<svg width="150" height="150" viewBox="0 0 150 150" fill="none" xmlns="http://www.w3.org/2000/svg">
<path d="M116.361 101.692C117.923 101.104 119.251 100.019 120.142 98.6025C121.033 97.1858 121.439 95.515 121.298 93.8449C121.156 92.1748 120.475 90.597 119.358 89.3521C118.242 88.1073 116.75 87.2636 115.112 86.9499L111.225 86.2056L107.367 74.5732C107.22 74.1306 106.954 73.7379 106.597 73.4389C106.241 73.14 105.809 72.9467 105.349 72.8807L70.3543 67.8562C69.7429 67.7682 69.1207 67.9109 68.6078 68.2568C68.095 68.6028 67.7277 69.1273 67.577 69.7293C66.8805 72.5017 67.1747 75.432 68.4082 78.0086L67.9691 77.9245C67.6131 77.8564 67.2465 77.8669 66.8949 77.9552L56.8964 80.4675C56.4672 80.5753 56.0742 80.7956 55.7575 81.106C55.4408 81.4163 55.2117 81.8056 55.0936 82.2341C54.9755 82.6626 54.9727 83.1148 55.0854 83.5448C55.1982 83.9747 55.4224 84.3668 55.7352 84.6812L63.2341 92.2179C63.5885 92.5741 64.0413 92.8149 64.5336 92.9092L70.9331 94.1346C71.5435 95.2783 72.3183 96.3252 73.2324 97.2418L77.498 101.529L77.4951 103.395C77.4876 108.266 79.2778 112.966 82.5194 116.587C85.761 120.207 90.2235 122.491 95.0436 122.995C94.5448 124.347 94.4417 125.814 94.7467 127.222C95.0517 128.63 95.752 129.922 96.7646 130.942L115.726 150L119.261 146.447L100.299 127.389C99.8308 126.918 99.5675 126.279 99.5675 125.613C99.5675 124.947 99.8308 124.308 100.299 123.837L114.994 109.068L145.722 139.951L149.257 136.398L117.179 104.158L116.361 101.692ZM90.9276 92.8475L84.2757 86.1619L89.0424 87.0743L94.0605 88.0355L94.0606 88.0349L99.628 89.1006L98.3429 94.267L90.9276 92.8475ZM104.547 90.0422L107.383 90.5851L106.097 95.7515L103.262 95.2087L104.547 90.0422ZM115.91 93.0659C116.165 93.4674 116.308 93.9305 116.324 94.4066C116.34 94.8827 116.229 95.3544 116.002 95.7724C115.774 96.1903 115.439 96.5392 115.032 96.7825C114.624 97.0258 114.159 97.1546 113.685 97.1554C113.567 97.1553 113.45 97.1474 113.334 97.1317C113.298 97.1278 113.261 97.1238 113.226 97.1164C113.213 97.1137 113.2 97.1112 113.187 97.1087L111.016 96.6931L112.301 91.5266L114.176 91.8855C114.531 91.9518 114.867 92.0909 115.166 92.294C115.464 92.4971 115.718 92.7599 115.91 93.0659H115.91ZM103.113 77.6353L105.598 85.1283L78.0886 79.8612L78.0882 79.8611C78.0547 79.8547 78.0185 79.8457 77.9842 79.8386L76.7675 78.6158C76.4658 78.3128 76.0918 78.0927 75.6814 77.9762C75.2709 77.8598 74.8376 77.851 74.4228 77.9508C73.1312 76.6942 72.3475 75.0022 72.2225 73.1999L103.113 77.6353ZM66.2251 88.1183L62.3919 84.2656L67.5737 82.9638L70.165 83.4601C69.6531 84.8937 69.3924 86.4057 69.3944 87.9288C69.3944 88.1975 69.4051 88.4643 69.4208 88.7303L66.2251 88.1183ZM98.9609 118.076H97.0712C95.155 118.076 93.2576 117.697 91.4876 116.959C89.7175 116.221 88.1095 115.14 86.7556 113.777C85.4017 112.414 84.3285 110.797 83.5973 109.016C82.8661 107.236 82.4913 105.329 82.4944 103.403L82.4989 100.494C82.4995 100.164 82.4351 99.8365 82.3095 99.531C82.1839 99.2255 81.9995 98.9479 81.7669 98.7142L76.7675 93.689C75.5573 92.471 74.7613 90.8994 74.4935 89.1992C74.2257 87.499 74.4997 85.7572 75.2764 84.223L89.9978 99.0187V108.027H94.9971V98.7412L111.137 101.831L112.134 104.836L98.9609 118.076Z" fill="url(#paint0_linear)"/>
<path d="M107.495 128.125C108.876 128.125 109.995 127.001 109.995 125.613C109.995 124.226 108.876 123.101 107.495 123.101C106.115 123.101 104.996 124.226 104.996 125.613C104.996 127.001 106.115 128.125 107.495 128.125Z" fill="url(#paint1_linear)"/>
<path d="M5.01048 116.913V25.1227C5.012 23.7905 5.53919 22.5134 6.47641 21.5715C7.41362 20.6295 8.68432 20.0997 10.0097 20.0981H119.993V15.0736H10.0097C7.35889 15.0766 4.81748 16.1363 2.94305 18.0202C1.06861 19.9042 0.0142365 22.4584 0.0112305 25.1227V125.613C0.0142365 128.277 1.06861 130.832 2.94305 132.716C4.81748 134.599 7.35889 135.659 10.0097 135.662H17.5086C19.4967 135.66 21.4028 134.865 22.8086 133.452C24.2144 132.039 25.0052 130.124 25.0075 128.125V125.613H20.0082V128.125C20.0075 128.791 19.7439 129.43 19.2753 129.901C18.8067 130.372 18.1713 130.637 17.5086 130.638H10.0097C8.68385 130.638 7.41227 130.108 6.47473 129.166C5.53719 128.224 5.01048 126.946 5.01048 125.613C5.01048 124.281 5.53719 123.003 6.47473 122.06C7.41227 121.118 8.68385 120.589 10.0097 120.589H77.4997V115.564H10.0097C8.25403 115.562 6.5291 116.027 5.01048 116.913Z" fill="url(#paint2_linear)"/>
<path d="M139.99 0H132.492C130.503 0.00228565 128.597 0.797072 127.192 2.21C125.786 3.62292 124.995 5.53861 124.993 7.53679V97.9782C124.995 99.9764 125.786 101.892 127.192 103.305C128.597 104.718 130.503 105.513 132.492 105.515H139.99C141.316 105.515 142.588 106.044 143.525 106.987C144.463 107.929 144.99 109.207 144.99 110.54C144.99 111.872 144.463 113.15 143.525 114.092C142.588 115.035 141.316 115.564 139.99 115.564V120.589C142.641 120.586 145.183 119.526 147.057 117.642C148.932 115.758 149.986 113.204 149.989 110.54V10.049C149.986 7.3848 148.932 4.83054 147.057 2.94664C145.183 1.06273 142.641 0.00302127 139.99 0ZM139.99 100.49H132.492C131.829 100.49 131.193 100.225 130.725 99.7538C130.256 99.2828 129.993 98.6443 129.992 97.9782V7.53679C129.993 6.87073 130.256 6.23217 130.725 5.76119C131.193 5.29021 131.829 5.02529 132.492 5.02452H139.99C141.316 5.02605 142.587 5.55591 143.524 6.49786C144.461 7.43981 144.988 8.71693 144.99 10.049V101.839C143.471 100.954 141.746 100.488 139.99 100.49Z" fill="url(#paint3_linear)"/>
<path d="M32.5065 57.782C31.0233 57.782 29.5735 58.224 28.3403 59.0522C27.1071 59.8803 26.146 61.0574 25.5784 62.4346C25.0108 63.8117 24.8623 65.3271 25.1517 66.7891C25.441 68.2511 26.1552 69.594 27.2039 70.6481C28.2527 71.7021 29.5889 72.4199 31.0435 72.7107C32.4981 73.0015 34.0059 72.8523 35.3762 72.2818C36.7464 71.7114 37.9176 70.7454 38.7415 69.506C39.5655 68.2666 40.0053 66.8094 40.0053 65.3188C40.0031 63.3206 39.2123 61.4049 37.8065 59.992C36.4007 58.579 34.4946 57.7842 32.5065 57.782ZM32.5065 67.831C32.0121 67.831 31.5288 67.6837 31.1177 67.4076C30.7067 67.1316 30.3863 66.7392 30.1971 66.2802C30.0079 65.8211 29.9584 65.316 30.0549 64.8286C30.1513 64.3413 30.3894 63.8937 30.739 63.5423C31.0885 63.191 31.5339 62.9517 32.0188 62.8548C32.5037 62.7578 33.0063 62.8076 33.463 62.9977C33.9198 63.1879 34.3102 63.5099 34.5848 63.923C34.8595 64.3362 35.0061 64.8219 35.0061 65.3188C35.0053 65.9848 34.7417 66.6234 34.2731 67.0944C33.8045 67.5653 33.1692 67.8303 32.5065 67.831Z" fill="url(#paint4_linear)"/>
<path d="M55.003 70.3434V60.2943C55.003 59.628 54.7397 58.989 54.2709 58.5179C53.8021 58.0468 53.1664 57.7821 52.5034 57.7821H50.6112L51.9493 56.4373C52.1814 56.204 52.3655 55.9271 52.4912 55.6223C52.6168 55.3175 52.6814 54.9908 52.6814 54.6609C52.6814 54.331 52.6168 54.0043 52.4912 53.6995C52.3655 53.3947 52.1814 53.1178 51.9493 52.8845L44.8787 45.7777C44.6466 45.5444 44.371 45.3593 44.0678 45.233C43.7645 45.1067 43.4395 45.0417 43.1112 45.0416C42.7829 45.0416 42.4579 45.1066 42.1546 45.2328C41.8513 45.359 41.5757 45.5441 41.3436 45.7774L40.0053 47.1224V45.2208C40.0053 44.5545 39.7419 43.9155 39.2732 43.4443C38.8044 42.9732 38.1686 42.7085 37.5057 42.7085H27.5072C26.8442 42.7085 26.2084 42.9732 25.7397 43.4443C25.2709 43.9155 25.0075 44.5545 25.0075 45.2208V47.1224L23.6692 45.7774C23.4371 45.5441 23.1615 45.3591 22.8582 45.2328C22.5549 45.1066 22.2299 45.0416 21.9016 45.0417C21.5733 45.0417 21.2483 45.1067 20.945 45.233C20.6418 45.3593 20.3662 45.5444 20.1341 45.7777L13.0635 52.8845C12.8314 53.1178 12.6473 53.3947 12.5216 53.6995C12.396 54.0043 12.3314 54.331 12.3314 54.6609C12.3314 54.9908 12.396 55.3175 12.5216 55.6223C12.6473 55.9271 12.8314 56.204 13.0635 56.4373L14.4017 57.7821H12.5094C11.8465 57.7821 11.2107 58.0468 10.7419 58.5179C10.2731 58.989 10.0098 59.628 10.0098 60.2943V70.3434C10.0098 71.0097 10.2731 71.6487 10.7419 72.1198C11.2107 72.5909 11.8465 72.8556 12.5094 72.8556H14.4017L13.0635 74.2004C12.8314 74.4337 12.6473 74.7106 12.5216 75.0154C12.396 75.3202 12.3314 75.6469 12.3314 75.9768C12.3314 76.3067 12.396 76.6334 12.5216 76.9382C12.6473 77.243 12.8314 77.5199 13.0635 77.7532L20.1341 84.86C20.3662 85.0933 20.6418 85.2784 20.945 85.4047C21.2483 85.531 21.5734 85.596 21.9016 85.5961C22.2299 85.5961 22.5549 85.5311 22.8582 85.4049C23.1615 85.2787 23.4371 85.0936 23.6692 84.8603L25.0075 83.5153V85.4169C25.0075 86.0832 25.2709 86.7222 25.7397 87.1934C26.2084 87.6645 26.8442 87.9292 27.5072 87.9292H37.5057C38.1686 87.9292 38.8044 87.6645 39.2732 87.1934C39.7419 86.7222 40.0053 86.0832 40.0053 85.4169V83.5153L41.3436 84.8603C41.5757 85.0936 41.8513 85.2787 42.1546 85.4049C42.4579 85.5311 42.7829 85.5961 43.1112 85.5961C43.4395 85.596 43.7645 85.531 44.0678 85.4047C44.371 85.2784 44.6466 85.0933 44.8787 84.86L51.9493 77.7532C52.1814 77.5199 52.3656 77.243 52.4912 76.9382C52.6168 76.6334 52.6815 76.3067 52.6815 75.9768C52.6815 75.6469 52.6168 75.3202 52.4912 75.0154C52.3656 74.7106 52.1814 74.4337 51.9493 74.2004L50.6112 72.8556H52.5034C53.1664 72.8556 53.8021 72.5909 54.2709 72.1198C54.7397 71.6487 55.003 71.0097 55.003 70.3434ZM50.0038 67.8311H44.5764C44.0821 67.8311 43.5988 67.9785 43.1877 68.2545C42.7766 68.5306 42.4562 68.923 42.267 69.382C42.0779 69.8411 42.0284 70.3463 42.1248 70.8336C42.2213 71.3209 42.4594 71.7686 42.809 72.1199L46.6469 75.977L43.1111 79.531L39.2731 75.6733C38.9235 75.3221 38.4781 75.0829 37.9933 74.986C37.5084 74.8891 37.0058 74.9388 36.5491 75.129C36.0924 75.3191 35.702 75.6411 35.4274 76.0542C35.1527 76.4674 35.0061 76.953 35.006 77.4499V82.9047H30.0068V77.4499C30.0067 76.953 29.8601 76.4674 29.5855 76.0542C29.3108 75.6411 28.9204 75.3191 28.4637 75.129C28.007 74.9388 27.5044 74.8891 27.0196 74.986C26.5347 75.0829 26.0893 75.3221 25.7397 75.6733L21.9018 79.531L18.3659 75.977L22.2038 72.1199C22.5534 71.7686 22.7915 71.3209 22.888 70.8336C22.9845 70.3463 22.935 69.8411 22.7458 69.382C22.5566 68.923 22.2362 68.5306 21.8251 68.2545C21.4141 67.9785 20.9308 67.8311 20.4364 67.8311H15.009V62.8066H20.4364C20.9308 62.8066 21.4141 62.6592 21.8251 62.3832C22.2362 62.1071 22.5566 61.7147 22.7458 61.2557C22.935 60.7966 22.9845 60.2915 22.888 59.8041C22.7915 59.3168 22.5534 58.8691 22.2038 58.5178L18.3659 54.6608L21.9018 51.1067L25.7397 54.9644C26.0893 55.3156 26.5347 55.5549 27.0196 55.6517C27.5044 55.7486 28.007 55.6989 28.4637 55.5087C28.9204 55.3186 29.3108 54.9966 29.5855 54.5835C29.8601 54.1703 30.0067 53.6847 30.0068 53.1878V47.733H35.006V53.1878C35.0061 53.6847 35.1527 54.1703 35.4274 54.5835C35.702 54.9966 36.0924 55.3186 36.5491 55.5087C37.0058 55.6989 37.5084 55.7486 37.9933 55.6517C38.4781 55.5549 38.9235 55.3156 39.2731 54.9644L43.1111 51.1067L46.6469 54.6608L42.809 58.5178C42.4594 58.8691 42.2213 59.3168 42.1248 59.8041C42.0284 60.2915 42.0779 60.7966 42.267 61.2557C42.4562 61.7147 42.7766 62.1071 43.1877 62.3832C43.5988 62.6592 44.0821 62.8066 44.5764 62.8066H50.0038V67.8311Z" fill="url(#paint5_linear)"/>
<path d="M65.7336 40.9319L55.7351 50.9809L59.27 54.534L68.5364 45.2207H97.4966V40.1962H67.5011C66.8382 40.1962 66.2024 40.4608 65.7336 40.9319Z" fill="url(#paint6_linear)"/>
<path d="M77.4997 25.1226H67.5012V30.1471H77.4997V25.1226Z" fill="url(#paint7_linear)"/>
<path d="M97.4968 25.1226H82.499V30.1471H97.4968V25.1226Z" fill="url(#paint8_linear)"/>
<path d="M82.499 32.6594H67.5012V37.6839H82.499V32.6594Z" fill="url(#paint9_linear)"/>
<path d="M92.4973 32.6594H87.498V37.6839H92.4973V32.6594Z" fill="url(#paint10_linear)"/>
<path d="M31.7742 91.1771L28.2393 94.7302L43.237 109.804C43.7058 110.275 44.3416 110.54 45.0045 110.54H67.5011V105.515H46.0398L31.7742 91.1771Z" fill="url(#paint11_linear)"/>
<path d="M57.5027 97.9783H47.5042V103.003H57.5027V97.9783Z" fill="url(#paint12_linear)"/>
<path d="M67.5012 97.9783H62.502V103.003H67.5012V97.9783Z" fill="url(#paint13_linear)"/>
<path d="M52.5034 90.4414H47.5042V95.4659H52.5034V90.4414Z" fill="url(#paint14_linear)"/>
<defs>
<linearGradient id="paint0_linear" x1="-133.493" y1="111.313" x2="73.4724" y2="344.481" gradientUnits="userSpaceOnUse">
<stop stop-color="#FFC300"/>
<stop offset="1" stop-color="#FF00FF"/>
</linearGradient>
<linearGradient id="paint1_linear" x1="94.9977" y1="125.76" x2="107.74" y2="138.212" gradientUnits="userSpaceOnUse">
<stop stop-color="#FFC300"/>
<stop offset="1" stop-color="#FF00FF"/>
</linearGradient>
<linearGradient id="paint2_linear" x1="-239.938" y1="78.8863" x2="65.8766" y2="377.734" gradientUnits="userSpaceOnUse">
<stop stop-color="#FFC300"/>
<stop offset="1" stop-color="#FF00FF"/>
</linearGradient>
<linearGradient id="paint3_linear" x1="75.0032" y1="63.8127" x2="194.599" y2="88.1608" gradientUnits="userSpaceOnUse">
<stop stop-color="#FFC300"/>
<stop offset="1" stop-color="#FF00FF"/>
</linearGradient>
<linearGradient id="paint4_linear" x1="-4.98614" y1="65.7586" x2="33.2407" y2="103.114" gradientUnits="userSpaceOnUse">
<stop stop-color="#FFC300"/>
<stop offset="1" stop-color="#FF00FF"/>
</linearGradient>
<linearGradient id="paint5_linear" x1="-79.9713" y1="66.6383" x2="34.7093" y2="178.706" gradientUnits="userSpaceOnUse">
<stop stop-color="#FFC300"/>
<stop offset="1" stop-color="#FF00FF"/>
</linearGradient>
<linearGradient id="paint6_linear" x1="-27.7828" y1="47.7834" x2="-5.12373" y2="112.604" gradientUnits="userSpaceOnUse">
<stop stop-color="#FFC300"/>
<stop offset="1" stop-color="#FF00FF"/>
</linearGradient>
<linearGradient id="paint7_linear" x1="47.5054" y1="27.7814" x2="57.8422" y2="47.9839" gradientUnits="userSpaceOnUse">
<stop stop-color="#FFC300"/>
<stop offset="1" stop-color="#FF00FF"/>
</linearGradient>
<linearGradient id="paint8_linear" x1="52.5053" y1="27.7814" x2="60.2943" y2="50.6159" gradientUnits="userSpaceOnUse">
<stop stop-color="#FFC300"/>
<stop offset="1" stop-color="#FF00FF"/>
</linearGradient>
<linearGradient id="paint9_linear" x1="37.5075" y1="35.3183" x2="45.2965" y2="58.1528" gradientUnits="userSpaceOnUse">
<stop stop-color="#FFC300"/>
<stop offset="1" stop-color="#FF00FF"/>
</linearGradient>
<linearGradient id="paint10_linear" x1="77.5001" y1="35.3183" x2="90.2424" y2="47.7703" gradientUnits="userSpaceOnUse">
<stop stop-color="#FFC300"/>
<stop offset="1" stop-color="#FF00FF"/>
</linearGradient>
<linearGradient id="paint11_linear" x1="-50.2797" y1="101.423" x2="-10.8869" y2="179.876" gradientUnits="userSpaceOnUse">
<stop stop-color="#FFC300"/>
<stop offset="1" stop-color="#FF00FF"/>
</linearGradient>
<linearGradient id="paint12_linear" x1="27.5084" y1="100.637" x2="37.8451" y2="120.84" gradientUnits="userSpaceOnUse">
<stop stop-color="#FFC300"/>
<stop offset="1" stop-color="#FF00FF"/>
</linearGradient>
<linearGradient id="paint13_linear" x1="52.5041" y1="100.637" x2="65.2463" y2="113.089" gradientUnits="userSpaceOnUse">
<stop stop-color="#FFC300"/>
<stop offset="1" stop-color="#FF00FF"/>
</linearGradient>
<linearGradient id="paint14_linear" x1="37.5062" y1="93.1003" x2="50.2485" y2="105.552" gradientUnits="userSpaceOnUse">
<stop stop-color="#FFC300"/>
<stop offset="1" stop-color="#FF00FF"/>
</linearGradient>
</defs>
</svg>
