<svg width="150" height="150" viewBox="0 0 150 150" fill="none" xmlns="http://www.w3.org/2000/svg">
<path d="M147.57 127.5H139.938L126.631 76.1063C126.281 72.3914 124.609 68.943 121.939 66.4293C119.269 63.9156 115.792 62.5154 112.18 62.5H96.7715V61.2406C100.319 58.4882 102.769 54.4903 103.663 50H104.028C105.952 49.9974 107.797 49.2063 109.157 47.8004C110.517 46.3944 111.283 44.4883 111.285 42.5V26.25C111.278 19.2904 108.6 12.618 103.838 7.69685C99.0763 2.77567 92.6201 0.00760992 85.886 0H83.467C76.7329 0.00760992 70.2767 2.77567 65.515 7.69685C60.7533 12.618 58.0749 19.2904 58.0676 26.25V42.5C58.0701 44.4883 58.8355 46.3944 60.1959 47.8004C61.5563 49.2063 63.4007 49.9974 65.3245 50H65.6904C66.5835 54.4903 69.0344 58.4882 72.5815 61.2406V62.5H57.1725C53.563 62.5153 50.0872 63.9138 47.4179 66.4249C44.7485 68.936 43.0753 72.3812 42.7221 76.0938L34.2707 107.5H27.8301C25.5855 107.503 23.4334 108.425 21.8462 110.066C20.2589 111.706 19.3661 113.93 19.3637 116.25V118.75C19.3661 121.07 20.2589 123.294 21.8462 124.934C23.4334 126.575 25.5855 127.497 27.8301 127.5H2.43071C1.78916 127.5 1.17387 127.763 0.720226 128.232C0.266576 128.701 0.0117188 129.337 0.0117188 130V140C0.0117188 140.663 0.266576 141.299 0.720226 141.768C1.17387 142.237 1.78916 142.5 2.43071 142.5H4.84971V147.5C4.84971 148.163 5.10456 148.799 5.55821 149.268C6.01186 149.737 6.62714 150 7.2687 150H142.732C143.374 150 143.989 149.737 144.443 149.268C144.896 148.799 145.151 148.163 145.151 147.5V142.5H147.57C148.212 142.5 148.827 142.237 149.281 141.768C149.734 141.299 149.989 140.663 149.989 140V130C149.989 129.337 149.734 128.701 149.281 128.232C148.827 127.763 148.212 127.5 147.57 127.5ZM106.447 42.5C106.447 43.1628 106.191 43.7981 105.738 44.2668C105.285 44.7354 104.67 44.9991 104.028 45V35H106.447V42.5ZM65.3245 45C64.6833 44.9991 64.0685 44.7354 63.615 44.2668C63.1616 43.7981 62.9064 43.1628 62.9056 42.5V35H65.3245V45ZM62.9056 30V26.25C62.9112 20.616 65.0794 15.2143 68.9341 11.2305C72.7889 7.24659 78.0155 5.00587 83.467 5H85.886C91.3375 5.00587 96.5641 7.24659 100.419 11.2305C104.274 15.2143 106.442 20.616 106.447 26.25V30H104.028V28.75C104.028 28.2719 104.01 27.7938 103.977 27.325C103.948 26.9342 103.83 26.5561 103.633 26.2211C103.436 25.8861 103.166 25.6037 102.844 25.3966C102.522 25.1894 102.157 25.0634 101.779 25.0288C101.402 24.9941 101.021 25.0517 100.669 25.1969C89.1426 29.9406 67.9552 30 67.7435 30H62.9056ZM70.1625 46.25V34.9625C75.6355 34.8219 89.1698 34.1562 99.1905 31.0156V46.25C99.1863 49.8954 97.7832 53.3903 95.2891 55.968C92.7949 58.5457 89.4133 59.9957 85.886 60H83.467C79.9397 59.9957 76.5581 58.5457 74.0639 55.968C71.5697 53.3903 70.1667 49.8954 70.1625 46.25ZM91.9335 63.925V65C91.9335 67.8 90.9901 72.5 84.6765 72.5C78.3629 72.5 77.4195 67.8 77.4195 65V63.925C79.3612 64.6373 81.4066 65.0008 83.467 65H85.886C87.9464 65.0008 89.9918 64.6373 91.9335 63.925ZM47.4452 77.2094C47.4875 77.0532 47.5148 76.893 47.5268 76.7313C47.7236 74.2236 48.8239 71.8836 50.6101 70.1741C52.3962 68.4647 54.7382 67.5104 57.1725 67.5H72.5815C72.645 67.5 72.7055 67.4938 72.766 67.4906C73.7033 73.6469 78.1694 77.5 84.6765 77.5C91.1836 77.5 95.6497 73.6469 96.587 67.4906C96.6475 67.4938 96.708 67.5 96.7715 67.5H112.18C114.615 67.5104 116.957 68.4647 118.743 70.1741C120.529 71.8836 121.629 74.2236 121.826 76.7313C121.838 76.8854 121.863 77.0381 121.902 77.1875L134.931 127.5H120.961V88.75C120.959 86.4301 120.066 84.206 118.479 82.5657C116.892 80.9253 114.74 80.0026 112.495 80H56.8581C54.6134 80.0026 52.4613 80.9253 50.8741 82.5657C49.2869 84.206 48.3941 86.4301 48.3916 88.75V127.5H35.0871C37.3318 127.497 39.4839 126.575 41.0711 124.934C42.6583 123.294 43.5511 121.07 43.5536 118.75V116.25C43.552 114.655 43.1289 113.091 42.3302 111.726C41.5314 110.361 40.3872 109.248 39.021 108.506L47.4452 77.2094ZM116.123 88.75V127.5H53.2296V88.75C53.2304 87.7557 53.6129 86.8023 54.2932 86.0993C54.9735 85.3962 55.896 85.0008 56.8581 85H112.495C113.457 85.0008 114.379 85.3962 115.06 86.0993C115.74 86.8023 116.123 87.7557 116.123 88.75ZM24.2017 118.75V116.25C24.2025 115.256 24.585 114.302 25.2653 113.599C25.9456 112.896 26.8681 112.501 27.8301 112.5H35.0871C36.0492 112.501 36.9717 112.896 37.652 113.599C38.3323 114.302 38.7148 115.256 38.7156 116.25V118.75C38.7148 119.744 38.3323 120.698 37.652 121.401C36.9717 122.104 36.0492 122.499 35.0871 122.5H27.8301C26.8681 122.499 25.9456 122.104 25.2653 121.401C24.585 120.698 24.2025 119.744 24.2017 118.75ZM140.313 145H9.68769V142.5H140.313V145ZM145.151 137.5H4.84971V132.5H145.151V137.5Z" fill="url(#paint0_linear)"/>
<path d="M84.676 100C82.7623 100 80.8915 100.586 79.3003 101.685C77.7091 102.784 76.4689 104.346 75.7365 106.173C75.0042 108 74.8126 110.011 75.1859 111.951C75.5593 113.891 76.4808 115.673 77.834 117.071C79.1872 118.47 80.9113 119.422 82.7883 119.808C84.6652 120.194 86.6108 119.996 88.3788 119.239C90.1469 118.482 91.6581 117.2 92.7213 115.556C93.7845 113.911 94.352 111.978 94.352 110C94.3491 107.349 93.3287 104.807 91.5147 102.932C89.7008 101.058 87.2413 100.003 84.676 100ZM84.676 115C83.7191 115 82.7837 114.707 81.9881 114.157C81.1925 113.608 80.5724 112.827 80.2063 111.913C79.8401 111 79.7443 109.994 79.931 109.025C80.1176 108.055 80.5784 107.164 81.255 106.464C81.9316 105.765 82.7937 105.289 83.7321 105.096C84.6706 104.903 85.6434 105.002 86.5274 105.381C87.4114 105.759 88.167 106.4 88.6986 107.222C89.2302 108.044 89.514 109.011 89.514 110C89.5125 111.326 89.0023 112.596 88.0953 113.534C87.1883 114.471 85.9586 114.998 84.676 115Z" fill="url(#paint1_linear)"/>
<path d="M77.419 42.5C78.755 42.5 79.838 41.3807 79.838 40C79.838 38.6193 78.755 37.5 77.419 37.5C76.083 37.5 75 38.6193 75 40C75 41.3807 76.083 42.5 77.419 42.5Z" fill="url(#paint2_linear)"/>
<path d="M91.9327 42.5C93.2686 42.5 94.3517 41.3807 94.3517 40C94.3517 38.6193 93.2686 37.5 91.9327 37.5C90.5967 37.5 89.5137 38.6193 89.5137 40C89.5137 41.3807 90.5967 42.5 91.9327 42.5Z" fill="url(#paint3_linear)"/>
<path d="M82.2569 55H87.0949C87.7364 55 88.3517 54.7366 88.8054 54.2678C89.259 53.7989 89.5139 53.163 89.5139 52.5C89.5139 51.837 89.259 51.2011 88.8054 50.7322C88.3517 50.2634 87.7364 50 87.0949 50H82.2569C81.6153 50 81 50.2634 80.5464 50.7322C80.0927 51.2011 79.8379 51.837 79.8379 52.5C79.8379 53.163 80.0927 53.7989 80.5464 54.2678C81 54.7366 81.6153 55 82.2569 55Z" fill="url(#paint4_linear)"/>
<path d="M50.8106 5H43.5536V2.5C43.5536 1.83696 43.2987 1.20107 42.8451 0.732233C42.3915 0.263392 41.7762 0 41.1346 0C40.4931 0 39.8778 0.263392 39.4241 0.732233C38.9705 1.20107 38.7156 1.83696 38.7156 2.5V5H29.0396V2.5C29.0396 1.83696 28.7848 1.20107 28.3311 0.732233C27.8775 0.263392 27.2622 0 26.6206 0C25.9791 0 25.3638 0.263392 24.9102 0.732233C24.4565 1.20107 24.2017 1.83696 24.2017 2.5V5H14.5257V2.5C14.5257 1.83696 14.2708 1.20107 13.8172 0.732233C13.3635 0.263392 12.7482 0 12.1067 0C11.4651 0 10.8499 0.263392 10.3962 0.732233C9.94255 1.20107 9.68769 1.83696 9.68769 2.5V5H2.43071C1.78916 5 1.17387 5.26339 0.720226 5.73223C0.266576 6.20107 0.0117188 6.83696 0.0117188 7.5V52.5C0.0117188 53.163 0.266576 53.7989 0.720226 54.2678C1.17387 54.7366 1.78916 55 2.43071 55H50.8106C51.4521 55 52.0674 54.7366 52.5211 54.2678C52.9747 53.7989 53.2296 53.163 53.2296 52.5V7.5C53.2296 6.83696 52.9747 6.20107 52.5211 5.73223C52.0674 5.26339 51.4521 5 50.8106 5ZM48.3916 50H4.84971V22.5H48.3916V50ZM48.3916 17.5H4.84971V10H9.68769V12.5C9.68769 13.163 9.94255 13.7989 10.3962 14.2678C10.8499 14.7366 11.4651 15 12.1067 15C12.7482 15 13.3635 14.7366 13.8172 14.2678C14.2708 13.7989 14.5257 13.163 14.5257 12.5V10H24.2017V12.5C24.2017 13.163 24.4565 13.7989 24.9102 14.2678C25.3638 14.7366 25.9791 15 26.6206 15C27.2622 15 27.8775 14.7366 28.3311 14.2678C28.7848 13.7989 29.0396 13.163 29.0396 12.5V10H38.7156V12.5C38.7156 13.163 38.9705 13.7989 39.4241 14.2678C39.8778 14.7366 40.4931 15 41.1346 15C41.7762 15 42.3915 14.7366 42.8451 14.2678C43.2987 13.7989 43.5536 13.163 43.5536 12.5V10H48.3916V17.5Z" fill="url(#paint5_linear)"/>
<path d="M19.3643 27.5C18.7227 27.5 18.1075 27.7634 17.6538 28.2322C17.2002 28.7011 16.9453 29.337 16.9453 30V42.5C16.9453 43.163 17.2002 43.7989 17.6538 44.2678C18.1075 44.7366 18.7227 45 19.3643 45C20.0059 45 20.6211 44.7366 21.0748 44.2678C21.5284 43.7989 21.7833 43.163 21.7833 42.5V30C21.7833 29.337 21.5284 28.7011 21.0748 28.2322C20.6211 27.7634 20.0059 27.5 19.3643 27.5Z" fill="url(#paint6_linear)"/>
<path d="M33.8771 27.5C33.2356 27.5 32.6203 27.7634 32.1667 28.2322C31.713 28.7011 31.4582 29.337 31.4582 30V35H29.0392V30C29.0392 29.337 28.7843 28.7011 28.3307 28.2322C27.877 27.7634 27.2617 27.5 26.6202 27.5C25.9786 27.5 25.3633 27.7634 24.9097 28.2322C24.456 28.7011 24.2012 29.337 24.2012 30V37.5C24.2012 38.163 24.456 38.7989 24.9097 39.2678C25.3633 39.7366 25.9786 40 26.6202 40H31.4582V42.5C31.4582 43.163 31.713 43.7989 32.1667 44.2678C32.6203 44.7366 33.2356 45 33.8771 45C34.5187 45 35.134 44.7366 35.5876 44.2678C36.0413 43.7989 36.2961 43.163 36.2961 42.5V30C36.2961 29.337 36.0413 28.7011 35.5876 28.2322C35.134 27.7634 34.5187 27.5 33.8771 27.5Z" fill="url(#paint7_linear)"/>
<defs>
<linearGradient id="paint0_linear" x1="-299.925" y1="79.3766" x2="80.516" y2="452.973" gradientUnits="userSpaceOnUse">
<stop stop-color="#FFC300"/>
<stop offset="1" stop-color="#FF00FF"/>
</linearGradient>
<linearGradient id="paint1_linear" x1="36.2984" y1="110.584" x2="86.9665" y2="158.735" gradientUnits="userSpaceOnUse">
<stop stop-color="#FFC300"/>
<stop offset="1" stop-color="#FF00FF"/>
</linearGradient>
<linearGradient id="paint2_linear" x1="65.3246" y1="40.1459" x2="77.9916" y2="52.1837" gradientUnits="userSpaceOnUse">
<stop stop-color="#FFC300"/>
<stop offset="1" stop-color="#FF00FF"/>
</linearGradient>
<linearGradient id="paint3_linear" x1="79.8383" y1="40.1459" x2="92.5053" y2="52.1838" gradientUnits="userSpaceOnUse">
<stop stop-color="#FFC300"/>
<stop offset="1" stop-color="#FF00FF"/>
</linearGradient>
<linearGradient id="paint4_linear" x1="60.4871" y1="52.6459" x2="70.94" y2="72.5132" gradientUnits="userSpaceOnUse">
<stop stop-color="#FFC300"/>
<stop offset="1" stop-color="#FF00FF"/>
</linearGradient>
<linearGradient id="paint5_linear" x1="-106.418" y1="29.1047" x2="32.9197" y2="161.521" gradientUnits="userSpaceOnUse">
<stop stop-color="#FFC300"/>
<stop offset="1" stop-color="#FF00FF"/>
</linearGradient>
<linearGradient id="paint6_linear" x1="7.26993" y1="36.7606" x2="29.7217" y2="42.8568" gradientUnits="userSpaceOnUse">
<stop stop-color="#FFC300"/>
<stop offset="1" stop-color="#FF00FF"/>
</linearGradient>
<linearGradient id="paint7_linear" x1="0.0127079" y1="36.7606" x2="41.2697" y2="64.7662" gradientUnits="userSpaceOnUse">
<stop stop-color="#FFC300"/>
<stop offset="1" stop-color="#FF00FF"/>
</linearGradient>
</defs>
</svg>
