<svg width="150" height="150" viewBox="0 0 150 150" fill="none" xmlns="http://www.w3.org/2000/svg">
<path d="M99.8862 35.705C99.9287 35.5225 99.9987 35.195 99.9987 35V20C99.9987 18.6175 98.8813 17.5 97.4991 17.5C96.1168 17.5 94.9995 18.6175 94.9995 20V31.2425C89.4879 27.2625 82.7465 25 75.4527 25C75.3802 25 75.3053 25 75.2353 25C69.7387 25 64.572 26.3125 60.0053 28.6975V17.5C60.0053 16.1175 58.8855 15 57.5057 15C56.1259 15 55.0061 16.1175 55.0061 17.5V31.915C47.0274 38.0925 41.8858 48.0625 41.9558 58.91C42.0733 77.3075 57.0758 92.5 75.4452 92.5C75.5177 92.5 75.5927 92.5 75.6627 92.5C94.1321 92.5 109.062 76.95 108.942 58.4775C108.887 49.7275 105.438 41.6425 99.8862 35.705ZM75.6302 87.5C75.5677 87.5 75.5077 87.5 75.4452 87.5C59.8178 87.5 47.0549 74.585 46.955 58.9325C46.8525 43.22 59.5554 30 75.2653 30C75.3277 30 75.3877 30 75.4502 30C91.0776 30 103.841 42.915 103.94 58.5675C104.043 74.28 91.3426 87.5 75.6302 87.5Z" fill="url(#paint0_linear)"/>
<path d="M57.4996 0C56.1198 0 55 1.1175 55 2.5V7.5C55 8.8825 56.1198 10 57.4996 10C58.8794 10 59.9993 8.8825 59.9993 7.5V2.5C59.9993 1.1175 58.8794 0 57.4996 0Z" fill="url(#paint1_linear)"/>
<path d="M97.4977 2.5C96.1154 2.5 94.998 3.6175 94.998 5V10C94.998 11.3825 96.1154 12.5 97.4977 12.5C98.88 12.5 99.9973 11.3825 99.9973 10V5C99.9973 3.6175 98.88 2.5 97.4977 2.5Z" fill="url(#paint2_linear)"/>
<path d="M30.0035 57.5C28.6237 57.5 27.5039 58.6175 27.5039 60V80C27.5039 81.3825 28.6237 82.5 30.0035 82.5C31.3833 82.5 32.5032 81.3825 32.5032 80V60C32.5032 58.6175 31.3833 57.5 30.0035 57.5Z" fill="url(#paint3_linear)"/>
<path d="M30.0035 42.5C28.6237 42.5 27.5039 43.6175 27.5039 45V50C27.5039 51.3825 28.6237 52.5 30.0035 52.5C31.3833 52.5 32.5032 51.3825 32.5032 50V45C32.5032 43.6175 31.3833 42.5 30.0035 42.5Z" fill="url(#paint4_linear)"/>
<path d="M124.99 35C123.608 35 122.49 36.1175 122.49 37.5V57.5C122.49 58.8825 123.608 60 124.99 60C126.372 60 127.489 58.8825 127.489 57.5V37.5C127.489 36.1175 126.372 35 124.99 35Z" fill="url(#paint5_linear)"/>
<path d="M124.99 20C123.608 20 122.49 21.1175 122.49 22.5V27.5C122.49 28.8825 123.608 30 124.99 30C126.372 30 127.489 28.8825 127.489 27.5V22.5C127.489 21.1175 126.372 20 124.99 20Z" fill="url(#paint6_linear)"/>
<path d="M84.9648 64.8875L84.9474 62.39C84.9349 60.385 84.145 58.5075 82.7177 57.1C81.2905 55.695 79.3258 54.885 77.4011 54.9525L72.4019 55C72.3969 55 72.3919 55 72.3869 55C71.0172 55 69.8949 53.8725 69.8874 52.5L69.8724 49.995C69.8649 48.615 70.9772 47.4825 72.3569 47.475L74.7965 47.4575C74.8765 47.4625 74.9465 47.5 75.0315 47.5C75.0365 47.5 75.0415 47.5 75.0465 47.5C75.1315 47.5 75.204 47.4575 75.2865 47.45L82.3503 47.405C83.7326 47.395 84.8449 46.3175 84.8349 44.9375C84.8249 43.56 83.7101 42.5 82.3353 42.5C82.3303 42.5 82.3253 42.5 82.3203 42.5L77.5136 42.4825L77.4986 40.0075C77.4911 38.6325 76.3713 37.5 74.999 37.5C74.994 37.5 74.989 37.5 74.984 37.5C73.6042 37.51 72.4919 38.6525 72.4994 40.0325L72.5144 42.5H72.3245C68.1901 42.5 64.8482 45.895 64.8732 50.0325L64.8882 52.54C64.9157 56.66 68.2751 60 72.3894 60C72.4044 60 72.4219 60 72.4369 60H77.4361C77.4411 60 77.4461 60 77.4511 60C78.111 60 78.7334 60.225 79.2083 60.6875C79.6807 61.1575 79.9457 61.7675 79.9507 62.4375L79.9682 64.9275C79.9782 66.3075 78.8634 67.4325 77.4836 67.44L67.4853 67.5025C66.1055 67.5125 64.9932 68.6375 65.0007 70.0175C65.0082 71.3925 66.128 72.5 67.5003 72.5C67.5053 72.5 67.5103 72.5 67.5153 72.5L72.5144 72.4675L72.5294 75.0175C72.5369 76.3925 73.6567 77.5 75.029 77.5C75.034 77.5 75.039 77.5 75.044 77.5C76.4238 77.49 77.5386 76.365 77.5286 74.9825L77.5136 72.435C81.6479 72.4075 84.9898 69.025 84.9648 64.8875Z" fill="url(#paint7_linear)"/>
<path d="M57.4996 62.5C58.8801 62.5 59.9993 61.3807 59.9993 60C59.9993 58.6193 58.8801 57.5 57.4996 57.5C56.1191 57.5 55 58.6193 55 60C55 61.3807 56.1191 62.5 57.4996 62.5Z" fill="url(#paint8_linear)"/>
<path d="M92.4938 62.5C93.8743 62.5 94.9934 61.3807 94.9934 60C94.9934 58.6193 93.8743 57.5 92.4938 57.5C91.1133 57.5 89.9941 58.6193 89.9941 60C89.9941 61.3807 91.1133 62.5 92.4938 62.5Z" fill="url(#paint9_linear)"/>
<path d="M147.487 97.5H119.992C116.737 97.5 113.988 99.5975 112.953 102.5H100.44C99.0878 102.5 98.0005 103.577 97.9555 104.92L77.1014 100.188C75.5967 99.8475 74.0344 99.965 72.5972 100.538L53.0254 108.302C50.4983 109.305 48.6462 111.34 47.8838 113.8L9.66262 102.587C7.333 101.91 4.88841 102.342 2.95873 103.787C1.08654 105.192 0.0117188 107.323 0.0117188 109.635V115.057C0.0117188 117.537 1.27151 119.833 3.37866 121.195L31.1466 139.167C31.3915 139.325 31.664 139.44 31.9489 139.505L73.2921 148.947C73.852 149.077 74.4269 149.14 74.9993 149.14C75.5742 149.14 76.1466 149.077 76.7065 148.947L98.4654 143.955C98.9178 144.573 99.6152 145 100.443 145H112.955C113.99 147.903 116.74 150 119.994 150H147.49C148.872 150 149.989 148.882 149.989 147.5V100C149.987 98.6175 148.87 97.5 147.487 97.5ZM97.3381 139.085L75.5867 144.075C75.2042 144.165 74.7968 144.165 74.4094 144.075L33.4937 134.73L6.09321 116.995C5.41582 116.555 5.01089 115.832 5.01089 115.055V109.633C5.01089 108.643 5.60079 108.055 5.95323 107.793C6.61312 107.3 7.44799 107.145 8.25285 107.388L47.9388 119.045C49.1036 122.49 52.4355 125 56.3524 125H74.9993C76.3791 125 77.4989 123.882 77.4989 122.5C77.4989 121.118 76.3791 120 74.9993 120H56.3524C54.2302 120 52.503 118.358 52.503 116.35C52.503 114.865 53.4329 113.533 54.8726 112.96L74.4444 105.19C74.9393 104.993 75.4792 104.95 75.9991 105.068L97.4855 109.943L97.3381 139.085ZM112.493 140H102.495V107.5H112.493V140ZM144.988 145H119.992C118.612 145 117.492 143.88 117.492 142.5V105C117.492 103.62 118.612 102.5 119.992 102.5H144.988V145Z" fill="url(#paint10_linear)"/>
<path d="M135.442 135H127.943C126.561 135 125.443 136.118 125.443 137.5C125.443 138.882 126.561 140 127.943 140H135.442C136.824 140 137.941 138.882 137.941 137.5C137.941 136.118 136.824 135 135.442 135Z" fill="url(#paint11_linear)"/>
<defs>
<linearGradient id="paint0_linear" x1="-92.0124" y1="56.0112" x2="101.974" y2="220.693" gradientUnits="userSpaceOnUse">
<stop stop-color="#FFC300"/>
<stop offset="1" stop-color="#FF00FF"/>
</linearGradient>
<linearGradient id="paint1_linear" x1="45.0021" y1="5.29177" x2="65.0737" y2="15.147" gradientUnits="userSpaceOnUse">
<stop stop-color="#FFC300"/>
<stop offset="1" stop-color="#FF00FF"/>
</linearGradient>
<linearGradient id="paint2_linear" x1="85.0001" y1="7.79177" x2="105.072" y2="17.647" gradientUnits="userSpaceOnUse">
<stop stop-color="#FFC300"/>
<stop offset="1" stop-color="#FF00FF"/>
</linearGradient>
<linearGradient id="paint3_linear" x1="17.506" y1="70.7294" x2="41.4913" y2="75.4402" gradientUnits="userSpaceOnUse">
<stop stop-color="#FFC300"/>
<stop offset="1" stop-color="#FF00FF"/>
</linearGradient>
<linearGradient id="paint4_linear" x1="17.506" y1="47.7918" x2="37.5776" y2="57.647" gradientUnits="userSpaceOnUse">
<stop stop-color="#FFC300"/>
<stop offset="1" stop-color="#FF00FF"/>
</linearGradient>
<linearGradient id="paint5_linear" x1="112.492" y1="48.2294" x2="136.478" y2="52.9402" gradientUnits="userSpaceOnUse">
<stop stop-color="#FFC300"/>
<stop offset="1" stop-color="#FF00FF"/>
</linearGradient>
<linearGradient id="paint6_linear" x1="112.492" y1="25.2918" x2="132.564" y2="35.147" gradientUnits="userSpaceOnUse">
<stop stop-color="#FFC300"/>
<stop offset="1" stop-color="#FF00FF"/>
</linearGradient>
<linearGradient id="paint7_linear" x1="24.6916" y1="58.6671" x2="105.21" y2="98.3898" gradientUnits="userSpaceOnUse">
<stop stop-color="#FFC300"/>
<stop offset="1" stop-color="#FF00FF"/>
</linearGradient>
<linearGradient id="paint8_linear" x1="45.0021" y1="60.1459" x2="57.6835" y2="72.5991" gradientUnits="userSpaceOnUse">
<stop stop-color="#FFC300"/>
<stop offset="1" stop-color="#FF00FF"/>
</linearGradient>
<linearGradient id="paint9_linear" x1="79.9962" y1="60.1459" x2="92.6776" y2="72.5991" gradientUnits="userSpaceOnUse">
<stop stop-color="#FFC300"/>
<stop offset="1" stop-color="#FF00FF"/>
</linearGradient>
<linearGradient id="paint10_linear" x1="-299.925" y1="125.282" x2="-215.694" y2="361.613" gradientUnits="userSpaceOnUse">
<stop stop-color="#FFC300"/>
<stop offset="1" stop-color="#FF00FF"/>
</linearGradient>
<linearGradient id="paint11_linear" x1="100.449" y1="137.646" x2="109.311" y2="159.403" gradientUnits="userSpaceOnUse">
<stop stop-color="#FFC300"/>
<stop offset="1" stop-color="#FF00FF"/>
</linearGradient>
</defs>
</svg>
