<svg width="170" height="170" viewBox="0 0 170 170" fill="none" xmlns="http://www.w3.org/2000/svg">
<path d="M85 0C75.611 0 68 7.61104 68 17C68 26.389 75.611 34 85 34C94.3851 33.9908 101.991 26.3851 102 17C102 7.61104 94.389 0 85 0ZM85 28.3333C78.7408 28.3333 73.6667 23.2592 73.6667 17C73.6667 10.7408 78.7408 5.66667 85 5.66667C91.2592 5.66667 96.3333 10.7408 96.3333 17C96.3333 23.2592 91.2592 28.3333 85 28.3333Z" fill="url(#paint0_linear)"/>
<path d="M96.3333 36.8334H95.6647L95.0668 37.1309C88.7269 40.2876 81.2731 40.2876 74.9332 37.1309L74.3353 36.8334H73.6667C65.8467 36.8426 59.5092 43.18 59.5 51V68C59.5 72.6945 63.3055 76.5 68 76.5H102C106.694 76.5 110.5 72.6945 110.5 68V51C110.491 43.18 104.153 36.8426 96.3333 36.8334ZM104.833 68C104.833 69.5648 103.565 70.8334 102 70.8334H68C66.4353 70.8334 65.1667 69.5648 65.1667 68V51C65.1674 46.5404 68.6145 42.8393 73.0632 42.5227C80.6335 46.036 89.3669 46.036 96.9368 42.5227C101.385 42.8393 104.833 46.5404 104.833 51V68Z" fill="url(#paint1_linear)"/>
<path d="M144.5 93.5C135.111 93.5 127.5 101.111 127.5 110.5C127.5 119.889 135.111 127.5 144.5 127.5C153.889 127.5 161.5 119.889 161.5 110.5C161.491 101.115 153.885 93.5092 144.5 93.5ZM144.5 121.833C138.241 121.833 133.167 116.759 133.167 110.5C133.167 104.241 138.241 99.1667 144.5 99.1667C150.759 99.1667 155.833 104.241 155.833 110.5C155.833 116.759 150.759 121.833 144.5 121.833Z" fill="url(#paint2_linear)"/>
<path d="M155.833 130.333H155.165L154.567 130.617C148.227 133.773 140.773 133.773 134.433 130.617L133.835 130.333H133.167C125.347 130.343 119.009 136.68 119 144.5V161.5C119 166.195 122.806 170 127.5 170H161.5C166.194 170 170 166.195 170 161.5V144.5C169.991 136.68 163.653 130.343 155.833 130.333ZM164.333 161.5C164.333 163.065 163.065 164.333 161.5 164.333H127.5C125.935 164.333 124.667 163.065 124.667 161.5V144.5C124.667 140.04 128.114 136.339 132.563 136.023C140.133 139.536 148.867 139.536 156.437 136.023C160.886 136.339 164.333 140.04 164.333 144.5V161.5Z" fill="url(#paint3_linear)"/>
<path d="M25.5 93.5C16.111 93.5 8.5 101.111 8.5 110.5C8.5 119.889 16.111 127.5 25.5 127.5C34.889 127.5 42.5 119.889 42.5 110.5C42.4908 101.115 34.8851 93.5092 25.5 93.5ZM25.5 121.833C19.2408 121.833 14.1667 116.759 14.1667 110.5C14.1667 104.241 19.2408 99.1667 25.5 99.1667C31.7592 99.1667 36.8333 104.241 36.8333 110.5C36.8333 116.759 31.7592 121.833 25.5 121.833Z" fill="url(#paint4_linear)"/>
<path d="M36.8333 130.333H36.1647L35.5668 130.617C29.2269 133.773 21.7731 133.773 15.4332 130.617L14.8353 130.333H14.1667C6.34667 130.343 0.00920833 136.68 0 144.5V161.5C0 166.195 3.80552 170 8.5 170H42.5C47.1945 170 51 166.195 51 161.5V144.5C50.9908 136.68 44.6533 130.343 36.8333 130.333ZM45.3333 161.5C45.3333 163.065 44.0647 164.333 42.5 164.333H8.5C6.93529 164.333 5.66667 163.065 5.66667 161.5V144.5C5.66737 140.04 9.11448 136.339 13.5632 136.023C21.1335 139.536 29.8665 139.536 37.4368 136.023C41.8855 136.339 45.3326 140.04 45.3333 144.5V161.5Z" fill="url(#paint5_linear)"/>
<path d="M113.109 143.889C113.108 143.886 113.106 143.883 113.105 143.88C112.491 142.44 110.827 141.77 109.388 142.384C96.5937 147.746 82.3845 148.724 68.9761 145.166L71.6281 144.387C73.1305 143.947 73.9918 142.373 73.5519 140.871C73.1121 139.368 71.5381 138.507 70.0358 138.947L58.7024 142.27C58.6599 142.27 58.6288 142.318 58.5891 142.333C58.3267 142.43 58.0802 142.567 57.8581 142.738C57.7596 142.791 57.6651 142.85 57.5748 142.916C57.2759 143.183 57.0389 143.512 56.8806 143.88C56.7269 144.25 56.6536 144.649 56.6653 145.05C56.7343 145.433 56.8289 145.812 56.9486 146.183C56.9656 146.223 56.9486 146.268 56.9798 146.308L62.6464 157.151C63.3711 158.539 65.0835 159.077 66.4714 158.352C67.8594 157.628 68.3974 155.915 67.6728 154.527L65.3664 150.119C80.6006 154.698 96.9563 153.808 111.604 147.603C113.044 146.993 113.719 145.331 113.109 143.889Z" fill="url(#paint6_linear)"/>
<path d="M160.668 74.4968C159.562 73.3907 157.768 73.3907 156.662 74.4968L152.653 78.506C150.307 53.6895 134.551 32.1541 111.609 22.406C110.169 21.7926 108.505 22.4623 107.892 23.902C107.278 25.3417 107.948 27.0059 109.388 27.6193C129.968 36.3662 144.274 55.4812 146.864 77.6928L143.668 74.4968C142.543 73.4095 140.749 73.4407 139.662 74.5662C138.601 75.6641 138.601 77.4049 139.662 78.5031L148.162 87.0031C149.267 88.111 151.061 88.1134 152.169 87.0081C152.171 87.0063 152.172 87.0046 152.174 87.0031L160.674 78.5031C161.778 77.3953 161.776 75.6018 160.668 74.4968Z" fill="url(#paint7_linear)"/>
<path d="M62.2512 24.5338C62.242 24.3684 62.2175 24.2044 62.1775 24.0436C62.1775 24.0181 62.1463 24.0011 62.135 23.9728C62.1237 23.9445 62.135 23.9246 62.135 23.902C62.0578 23.7642 61.9686 23.6332 61.8687 23.511C61.777 23.3449 61.6686 23.1883 61.5457 23.0435C61.3782 22.8951 61.1926 22.7686 60.9932 22.6666C60.8937 22.582 60.7874 22.5051 60.6758 22.4371L49.3425 17.2606C47.895 16.6664 46.2397 17.358 45.6454 18.8055C45.0833 20.1744 45.6694 21.7455 46.9908 22.4116L52.8587 25.0948C30.7682 36.9173 16.9841 59.9448 17 85C17 86.5647 18.2686 87.8333 19.8333 87.8333C21.3981 87.8333 22.6667 86.5647 22.6667 85C22.6525 62.9379 34.3191 42.517 53.3318 31.3253L51.2833 35.6065C50.608 37.015 51.1998 38.7044 52.6065 39.3833C52.9887 39.57 53.408 39.667 53.8333 39.6666C54.9213 39.6652 55.9123 39.0408 56.3833 38.0601L62.05 26.2366C62.05 26.2083 62.05 26.1771 62.0727 26.1488C62.1463 25.9551 62.1977 25.7536 62.2257 25.5481C62.2742 25.3955 62.3103 25.2393 62.3333 25.0806C62.3238 24.8961 62.2965 24.713 62.2512 24.5338Z" fill="url(#paint8_linear)"/>
<defs>
<linearGradient id="paint0_linear" x1="0.00413181" y1="17.992" x2="86.2377" y2="102.687" gradientUnits="userSpaceOnUse">
<stop stop-color="#FFC300"/>
<stop offset="1" stop-color="#FF00FF"/>
</linearGradient>
<linearGradient id="paint1_linear" x1="-42.4938" y1="57.8241" x2="55.4505" y2="181.505" gradientUnits="userSpaceOnUse">
<stop stop-color="#FFC300"/>
<stop offset="1" stop-color="#FF00FF"/>
</linearGradient>
<linearGradient id="paint2_linear" x1="59.5041" y1="111.492" x2="145.738" y2="196.187" gradientUnits="userSpaceOnUse">
<stop stop-color="#FFC300"/>
<stop offset="1" stop-color="#FF00FF"/>
</linearGradient>
<linearGradient id="paint3_linear" x1="17.0062" y1="151.324" x2="114.951" y2="275.005" gradientUnits="userSpaceOnUse">
<stop stop-color="#FFC300"/>
<stop offset="1" stop-color="#FF00FF"/>
</linearGradient>
<linearGradient id="paint4_linear" x1="-59.4959" y1="111.492" x2="26.7377" y2="196.187" gradientUnits="userSpaceOnUse">
<stop stop-color="#FFC300"/>
<stop offset="1" stop-color="#FF00FF"/>
</linearGradient>
<linearGradient id="paint5_linear" x1="-101.994" y1="151.324" x2="-4.04945" y2="275.005" gradientUnits="userSpaceOnUse">
<stop stop-color="#FFC300"/>
<stop offset="1" stop-color="#FF00FF"/>
</linearGradient>
<linearGradient id="paint6_linear" x1="-56.6683" y1="149.332" x2="-24.8254" y2="238.65" gradientUnits="userSpaceOnUse">
<stop stop-color="#FFC300"/>
<stop offset="1" stop-color="#FF00FF"/>
</linearGradient>
<linearGradient id="paint7_linear" x1="-0.00241449" y1="56.9227" x2="162.721" y2="187.969" gradientUnits="userSpaceOnUse">
<stop stop-color="#FFC300"/>
<stop offset="1" stop-color="#FF00FF"/>
</linearGradient>
<linearGradient id="paint8_linear" x1="-73.6612" y1="54.5058" x2="88.192" y2="156.312" gradientUnits="userSpaceOnUse">
<stop stop-color="#FFC300"/>
<stop offset="1" stop-color="#FF00FF"/>
</linearGradient>
</defs>
</svg>
