<svg width="150" height="150" viewBox="0 0 150 150" fill="none" xmlns="http://www.w3.org/2000/svg">
<path d="M92.5755 101.367C90.9587 101.367 89.6462 102.68 89.6462 104.297C89.6462 105.914 90.9587 107.227 92.5755 107.227C94.1923 107.227 95.5047 105.914 95.5047 104.297C95.5047 102.68 94.1923 101.367 92.5755 101.367Z" fill="url(#paint0_linear)"/>
<path d="M135.343 0H14.6575C6.58145 0 0.0112305 6.5712 0.0112305 14.6484V104.297C0.0112305 112.374 6.58145 118.945 14.6575 118.945H60.3538V132.422H57.4245C53.5135 132.422 49.8371 133.946 47.0692 136.713C44.3024 139.482 42.7783 143.159 42.7783 147.07C42.7783 148.689 44.0896 150 45.7075 150H104.293C105.91 150 107.222 148.689 107.222 147.07C107.222 138.993 100.652 132.422 92.5755 132.422H89.6463V118.945H135.343C143.419 118.945 149.989 112.374 149.989 104.297V14.6484C149.989 6.5712 143.419 0 135.343 0ZM14.6575 5.85938H135.343C140.188 5.85938 144.13 9.80186 144.13 14.6484V89.6484H130.656V22.2656C130.656 20.6474 129.344 19.3359 127.727 19.3359H104.293C102.675 19.3359 101.363 20.6474 101.363 22.2656V89.6484H86.701C86.6701 86.618 86.5912 83.6311 86.4653 80.7335C85.9527 68.8019 84.7844 60.8093 84.1768 57.2937C90.2207 52.8431 91.8707 44.5942 88.1759 38.1855L78.0231 20.5982C77.4991 19.6918 76.5322 19.1334 75.4863 19.1334C74.4394 19.1334 73.4725 19.6918 72.9496 20.5982L62.7922 38.1866C59.3091 44.2291 60.5437 52.0557 66.0155 56.6746C65.3816 60.1799 64.1023 68.4586 63.5462 80.7278C63.4146 83.6563 63.3311 86.6455 63.2991 89.6484H48.6368V45.7031C48.6368 45.2385 48.5269 44.8151 48.3473 44.4386C48.3393 44.4237 48.3347 44.4077 48.3278 44.3928L36.6108 20.9553C36.1142 19.9631 35.1004 19.3359 33.9905 19.3359C32.8806 19.3359 31.8668 19.9631 31.3702 20.9553L19.6532 44.3928C19.6464 44.4077 19.6418 44.4237 19.6349 44.4386C19.4518 44.8185 19.3443 45.2488 19.3443 45.7031V89.6484H5.86973V14.6484C5.86973 9.80186 9.81163 5.85938 14.6575 5.85938ZM107.222 89.6484V25.1953H124.797V31.0547H121.868C120.25 31.0547 118.939 32.3662 118.939 33.9844C118.939 35.6026 120.25 36.9141 121.868 36.9141H124.797V45.7031H121.868C120.25 45.7031 118.939 47.0146 118.939 48.6328C118.939 50.251 120.25 51.5625 121.868 51.5625H124.797V60.3516H121.868C120.25 60.3516 118.939 61.6631 118.939 63.2812C118.939 64.8994 120.25 66.2109 121.868 66.2109H124.797V77.9297H121.868C120.25 77.9297 118.939 79.2412 118.939 80.8594C118.939 82.4776 120.25 83.7891 121.868 83.7891H124.797V89.6484H107.222ZM75.4863 60.149C76.5505 60.149 77.61 60.0266 78.6467 59.7977C79.1902 63.2824 79.9889 69.4485 80.4615 77.9297H69.558C70.0535 69.4542 70.8899 63.192 71.4678 59.5894C72.7653 59.959 74.1167 60.149 75.4863 60.149ZM75.4863 54.2896C68.7914 54.2896 64.4742 47.002 67.8669 41.1152L75.4863 27.9224L83.1012 41.114C86.4813 46.9769 82.2236 54.2896 75.4863 54.2896ZM69.2891 83.7891H80.7189C80.7807 85.714 80.8231 87.672 80.8437 89.6484H69.1576C69.1793 87.6846 69.2239 85.7265 69.2891 83.7891ZM36.9198 89.6484V48.6328H42.7783V89.6484H36.9198ZM25.2028 89.6484V48.6328H31.0613V89.6484H25.2028ZM27.013 42.7734L33.9905 28.8162L40.9681 42.7734H27.013ZM100.861 144.141H49.1357C49.5659 142.92 50.2685 141.8 51.2113 140.856C52.8728 139.196 55.0788 138.281 57.4245 138.281H92.5755C96.395 138.281 99.6527 140.73 100.861 144.141ZM83.7878 132.422H66.2123V118.945H83.7878V132.422ZM135.343 113.086H14.6575C9.81163 113.086 5.86973 109.143 5.86973 104.297V95.5078H144.13V104.297C144.13 109.143 140.188 113.086 135.343 113.086Z" fill="url(#paint1_linear)"/>
<path d="M80.8585 101.367H63.283C61.6651 101.367 60.3538 102.679 60.3538 104.297C60.3538 105.915 61.6651 107.227 63.283 107.227H80.8585C82.4765 107.227 83.7878 105.915 83.7878 104.297C83.7878 102.679 82.4765 101.367 80.8585 101.367Z" fill="url(#paint2_linear)"/>
<defs>
<linearGradient id="paint0_linear" x1="77.9299" y1="104.468" x2="92.7909" y2="119.061" gradientUnits="userSpaceOnUse">
<stop stop-color="#FFC300"/>
<stop offset="1" stop-color="#FF00FF"/>
</linearGradient>
<linearGradient id="paint1_linear" x1="-299.926" y1="79.3766" x2="80.5155" y2="452.973" gradientUnits="userSpaceOnUse">
<stop stop-color="#FFC300"/>
<stop offset="1" stop-color="#FF00FF"/>
</linearGradient>
<linearGradient id="paint2_linear" x1="13.4886" y1="104.468" x2="20.5958" y2="132.385" gradientUnits="userSpaceOnUse">
<stop stop-color="#FFC300"/>
<stop offset="1" stop-color="#FF00FF"/>
</linearGradient>
</defs>
</svg>
