<svg width="150" height="150" viewBox="0 0 150 150" fill="none" xmlns="http://www.w3.org/2000/svg">
<path d="M149.264 28.225L121.764 0.725C121.287 0.26451 120.652 0.00493572 119.989 0H57.4889C55.5016 0.00593523 53.5973 0.798018 52.1921 2.20326C50.7869 3.60849 49.9948 5.5127 49.9889 7.5V22.625C36.5227 23.2562 23.817 29.0499 14.5104 38.803C5.2037 48.556 0.0112305 61.519 0.0112305 75C0.0112305 88.481 5.2037 101.444 14.5104 111.197C23.817 120.95 36.5227 126.744 49.9889 127.375V142.5C49.9948 144.487 50.7869 146.392 52.1921 147.797C53.5973 149.202 55.5016 149.994 57.4889 150H142.489C144.476 149.994 146.38 149.202 147.786 147.797C149.191 146.392 149.983 144.487 149.989 142.5V30C149.984 29.3372 149.724 28.7017 149.264 28.225ZM122.489 8.525L141.464 27.5H124.989C124.326 27.5 123.69 27.2366 123.221 26.7678C122.752 26.2989 122.489 25.663 122.489 25V8.525ZM4.98885 75C5.00513 62.8407 9.67818 51.1495 18.0476 42.329C26.4171 33.5086 37.8472 28.2289 49.9889 27.575V73.975L17.2388 106.725C9.35514 98.0396 4.98807 86.7298 4.98885 75ZM20.7639 110.25L53.5139 77.5H99.9138C99.4585 86.458 96.4711 95.1031 91.2987 102.431C86.1263 109.759 78.9811 115.469 70.693 118.899C62.4049 122.328 53.3139 123.336 44.4759 121.805C35.6379 120.274 27.4156 116.267 20.7639 110.25ZM144.989 142.5C144.989 143.163 144.725 143.799 144.257 144.268C143.788 144.737 143.152 145 142.489 145H57.4889C56.8258 145 56.1899 144.737 55.7211 144.268C55.2522 143.799 54.9889 143.163 54.9889 142.5V127.375C68.4504 126.725 81.1471 120.926 90.4534 111.177C99.7596 101.429 104.964 88.4772 104.989 75C104.989 74.337 104.725 73.7011 104.257 73.2322C103.788 72.7634 103.152 72.5 102.489 72.5H54.9889V7.5C54.9889 6.83696 55.2522 6.20107 55.7211 5.73223C56.1899 5.26339 56.8258 5 57.4889 5H117.489V25C117.495 26.9873 118.287 28.8915 119.692 30.2967C121.097 31.702 123.002 32.4941 124.989 32.5H144.989V142.5Z" fill="url(#paint0_linear)"/>
<path d="M62.4888 12.5C61.8257 12.5 61.1898 12.7634 60.721 13.2322C60.2522 13.7011 59.9888 14.337 59.9888 15V65C59.9888 65.663 60.2522 66.2989 60.721 66.7678C61.1898 67.2366 61.8257 67.5 62.4888 67.5H112.489C113.152 67.5 113.788 67.2366 114.257 66.7678C114.725 66.2989 114.989 65.663 114.989 65C114.974 51.0808 109.437 37.7361 99.5951 27.8937C89.7527 18.0513 76.408 12.5152 62.4888 12.5ZM64.9888 62.5V17.575C76.6995 18.2038 87.7646 23.1388 96.0573 31.4315C104.35 39.7242 109.285 50.7893 109.914 62.5H64.9888Z" fill="url(#paint1_linear)"/>
<path d="M117.489 95C113.039 95 108.689 96.3196 104.989 98.7919C101.289 101.264 98.4048 104.778 96.7019 108.89C94.9989 113.001 94.5533 117.525 95.4215 121.89C96.2896 126.254 98.4326 130.263 101.579 133.41C104.726 136.557 108.735 138.7 113.1 139.568C117.464 140.436 121.988 139.99 126.1 138.287C130.211 136.584 133.725 133.7 136.197 130C138.67 126.3 139.989 121.95 139.989 117.5C139.98 111.535 137.606 105.818 133.389 101.6C129.171 97.3828 123.454 95.0093 117.489 95ZM117.489 135C114.028 135 110.645 133.974 107.767 132.051C104.889 130.128 102.646 127.395 101.321 124.197C99.9967 120.999 99.6502 117.481 100.325 114.086C101.001 110.691 102.667 107.573 105.115 105.126C107.562 102.678 110.68 101.011 114.075 100.336C117.47 99.661 120.988 100.008 124.186 101.332C127.384 102.657 130.117 104.9 132.04 107.778C133.963 110.655 134.989 114.039 134.989 117.5C134.984 122.14 133.138 126.588 129.858 129.869C126.577 133.149 122.129 134.995 117.489 135Z" fill="url(#paint2_linear)"/>
<path d="M112.489 121.465L106.756 115.732L103.221 119.267L110.721 126.767C111.19 127.236 111.826 127.499 112.489 127.499C113.152 127.499 113.787 127.236 114.256 126.767L129.256 111.767L125.721 108.232L112.489 121.465Z" fill="url(#paint3_linear)"/>
<path d="M119.989 42.5H139.989V47.5H119.989V42.5Z" fill="url(#paint4_linear)"/>
<path d="M119.989 57.5H139.989V62.5H119.989V57.5Z" fill="url(#paint5_linear)"/>
<path d="M119.989 72.5H139.989V77.5H119.989V72.5Z" fill="url(#paint6_linear)"/>
<defs>
<linearGradient id="paint0_linear" x1="-299.926" y1="79.3766" x2="80.5155" y2="452.973" gradientUnits="userSpaceOnUse">
<stop stop-color="#FFC300"/>
<stop offset="1" stop-color="#FF00FF"/>
</linearGradient>
<linearGradient id="paint1_linear" x1="-50.0045" y1="41.6047" x2="89.491" y2="178.611" gradientUnits="userSpaceOnUse">
<stop stop-color="#FFC300"/>
<stop offset="1" stop-color="#FF00FF"/>
</linearGradient>
<linearGradient id="paint2_linear" x1="4.99459" y1="118.813" x2="119.127" y2="230.909" gradientUnits="userSpaceOnUse">
<stop stop-color="#FFC300"/>
<stop offset="1" stop-color="#FF00FF"/>
</linearGradient>
<linearGradient id="paint3_linear" x1="51.1545" y1="118.428" x2="98.1344" y2="180.778" gradientUnits="userSpaceOnUse">
<stop stop-color="#FFC300"/>
<stop offset="1" stop-color="#FF00FF"/>
</linearGradient>
<linearGradient id="paint4_linear" x1="79.9912" y1="45.1459" x2="86.0553" y2="68.9693" gradientUnits="userSpaceOnUse">
<stop stop-color="#FFC300"/>
<stop offset="1" stop-color="#FF00FF"/>
</linearGradient>
<linearGradient id="paint5_linear" x1="79.9912" y1="60.1459" x2="86.0553" y2="83.9693" gradientUnits="userSpaceOnUse">
<stop stop-color="#FFC300"/>
<stop offset="1" stop-color="#FF00FF"/>
</linearGradient>
<linearGradient id="paint6_linear" x1="79.9912" y1="75.1459" x2="86.0553" y2="98.9693" gradientUnits="userSpaceOnUse">
<stop stop-color="#FFC300"/>
<stop offset="1" stop-color="#FF00FF"/>
</linearGradient>
</defs>
</svg>
