<svg width="150" height="150" viewBox="0 0 150 150" fill="none" xmlns="http://www.w3.org/2000/svg">
<path d="M137.894 77.4194H149.157L147.052 73.7879C146.118 72.1742 144.969 70.7613 143.714 69.4766C147.727 65.0492 149.989 59.2597 149.989 53.2258C149.989 39.8855 139.137 29.0323 125.799 29.0323C124.744 29.0323 123.702 29.1242 122.669 29.2597C119.362 12.4161 104.512 0 87.095 0C74.2332 0 62.5398 6.67742 55.9916 17.5911C52.2712 15.6315 48.0428 14.5161 43.5531 14.5161C29.6463 14.5161 18.2166 25.246 17.0579 38.8597C7.47141 40.004 0.0112305 48.1742 0.0112305 58.0645C0.0112305 62.8403 1.78677 67.4032 4.92663 70.9282C4.20335 71.8186 3.5357 72.7694 2.94789 73.7879L0.843364 77.4194H12.1062C16.1072 77.4194 19.3632 80.6758 19.3632 84.6774C19.3632 88.679 16.1072 91.9355 12.1062 91.9355H0.843364L2.94789 95.5669C6.83521 102.281 14.0535 106.452 21.7822 106.452C29.0513 106.452 35.8607 102.777 39.8811 96.7742H45.9721V101.613C41.9711 101.613 38.7151 104.869 38.7151 108.871V113.71C38.7151 117.711 41.9711 120.968 45.9721 120.968V130.645C41.9711 130.645 38.7151 133.902 38.7151 137.903V142.742C38.7151 146.744 41.9711 150 45.9721 150H104.028C108.029 150 111.285 146.744 111.285 142.742V137.903C111.285 133.902 108.029 130.645 104.028 130.645V120.968C108.029 120.968 111.285 117.711 111.285 113.71V108.871C111.285 104.869 108.029 101.613 104.028 101.613V96.7742H110.119C114.139 102.777 120.949 106.452 128.218 106.452C135.947 106.452 143.165 102.281 147.052 95.5669L149.157 91.9355H137.894C133.893 91.9355 130.637 88.679 130.637 84.6774C130.637 80.6758 133.893 77.4194 137.894 77.4194ZM19.3632 43.5484C27.3676 43.5484 33.8771 50.0589 33.8771 58.0645H38.7151C38.7151 48.254 31.3711 40.1419 21.8959 38.896C23.0183 27.9339 32.3024 19.3548 43.5531 19.3548C54.7942 19.3548 64.1073 27.779 65.2176 38.9492L70.0314 38.4726C69.2888 31.004 65.5369 24.5565 60.0531 20.2331C65.7135 10.6863 75.8926 4.83871 87.095 4.83871C102.245 4.83871 115.153 15.6798 117.954 30.3605C114.081 31.6911 110.554 33.9823 107.768 37.096L111.372 40.3234C115.044 36.2226 120.303 33.871 125.799 33.871C136.469 33.871 145.151 42.554 145.151 53.2258C145.151 58.1274 143.281 62.8258 139.977 66.3871C135.576 63.554 130.211 62.3274 124.744 63.1742C118.839 64.0936 113.61 67.4952 110.201 72.5807H39.7988C36.3905 67.4927 31.1606 64.0936 25.2558 63.1742C19.0874 62.2185 13.0738 63.9145 8.41481 67.5677C6.13854 64.9427 4.84922 61.5823 4.84922 58.0645C4.84922 50.0589 11.3587 43.5484 19.3632 43.5484ZM106.447 137.903V142.742C106.447 144.075 105.361 145.161 104.028 145.161H45.9721C44.6392 145.161 43.5531 144.075 43.5531 142.742V137.903C43.5531 136.57 44.6392 135.484 45.9721 135.484H104.028C105.361 135.484 106.447 136.57 106.447 137.903ZM99.19 130.645H50.8101V120.968H99.19V130.645ZM106.447 108.871V113.71C106.447 115.043 105.361 116.129 104.028 116.129H45.9721C44.6392 116.129 43.5531 115.043 43.5531 113.71V108.871C43.5531 107.538 44.6392 106.452 45.9721 106.452H104.028C105.361 106.452 106.447 107.538 106.447 108.871ZM99.19 101.613H50.8101V96.7742H99.19V101.613ZM137.894 96.7742H140.04C136.914 99.8274 132.674 101.613 128.218 101.613C122.195 101.613 116.575 98.3686 113.554 93.1427L112.855 91.9355H37.1452L36.4461 93.1427C33.4248 98.3686 27.8055 101.613 21.7822 101.613C17.3264 101.613 13.0859 99.8274 9.96055 96.7742H12.1062C18.7754 96.7742 24.2012 91.3476 24.2012 84.6774C24.2012 78.0073 18.7754 72.5807 12.1062 72.5807H9.94604C13.7148 68.8766 19.0535 67.1032 24.5132 67.9548C29.3536 68.7073 33.7876 71.7968 36.3735 76.2218L37.0726 77.4194H112.925L113.627 76.2218C116.212 71.7992 120.644 68.7097 125.487 67.9548C130.947 67.1032 136.285 68.8766 140.054 72.5807H137.894C131.225 72.5807 125.799 78.0073 125.799 84.6774C125.799 91.3476 131.225 96.7742 137.894 96.7742Z" fill="url(#paint0_linear)"/>
<path d="M107.054 27.5805L111.488 25.6426C107.25 15.9434 97.6757 9.67725 87.095 9.67725V14.516C95.7526 14.516 103.588 19.645 107.054 27.5805Z" fill="url(#paint1_linear)"/>
<path d="M51.6159 32.1099L54.8452 28.5074C48.1543 22.5123 37.9389 22.7953 31.5818 29.1534L35.0022 32.5744C39.5403 28.0357 46.8384 27.83 51.6159 32.1099Z" fill="url(#paint2_linear)"/>
<path d="M83.9673 67.0334L95.3535 55.6455L83.9673 44.2576L80.5469 47.6785L88.5126 55.6455L80.5469 63.6124L83.9673 67.0334Z" fill="url(#paint3_linear)"/>
<path d="M66.0328 67.0334L69.4533 63.6124L61.4875 55.6455L69.4533 47.6785L66.0328 44.2576L54.6466 55.6455L66.0328 67.0334Z" fill="url(#paint4_linear)"/>
<path d="M70.212 67.22L75.0471 43.0162L79.7932 43.9646L74.9581 68.1684L70.212 67.22Z" fill="url(#paint5_linear)"/>
<defs>
<linearGradient id="paint0_linear" x1="-299.926" y1="79.3766" x2="80.5155" y2="452.973" gradientUnits="userSpaceOnUse">
<stop stop-color="#FFC300"/>
<stop offset="1" stop-color="#FF00FF"/>
</linearGradient>
<linearGradient id="paint1_linear" x1="38.3117" y1="19.1512" x2="81.8655" y2="77.4343" gradientUnits="userSpaceOnUse">
<stop stop-color="#FFC300"/>
<stop offset="1" stop-color="#FF00FF"/>
</linearGradient>
<linearGradient id="paint2_linear" x1="-14.9423" y1="28.6275" x2="-1.18953" y2="66.1116" gradientUnits="userSpaceOnUse">
<stop stop-color="#FFC300"/>
<stop offset="1" stop-color="#FF00FF"/>
</linearGradient>
<linearGradient id="paint3_linear" x1="50.9353" y1="56.31" x2="103.347" y2="89.7752" gradientUnits="userSpaceOnUse">
<stop stop-color="#FFC300"/>
<stop offset="1" stop-color="#FF00FF"/>
</linearGradient>
<linearGradient id="paint4_linear" x1="25.0351" y1="56.31" x2="77.4469" y2="89.7751" gradientUnits="userSpaceOnUse">
<stop stop-color="#FFC300"/>
<stop offset="1" stop-color="#FF00FF"/>
</linearGradient>
<linearGradient id="paint5_linear" x1="63.0539" y1="116.126" x2="87.1331" y2="116.129" gradientUnits="userSpaceOnUse">
<stop stop-color="#FFC300"/>
<stop offset="1" stop-color="#FF00FF"/>
</linearGradient>
</defs>
</svg>
