<svg width="150" height="150" viewBox="0 0 150 150" fill="none" xmlns="http://www.w3.org/2000/svg">
<path d="M87.7375 150H84.375C79.2062 150 75 145.794 75 140.625V105.3C75 100.131 79.2062 95.925 84.375 95.925H87.7375C92.9062 95.925 97.1125 100.131 97.1125 105.3V140.625C97.1125 145.794 92.9062 150 87.7375 150ZM84.375 102.175C82.6562 102.175 81.25 103.581 81.25 105.3V140.625C81.25 142.344 82.6562 143.75 84.375 143.75H87.7375C89.4562 143.75 90.8625 142.344 90.8625 140.625V105.3C90.8625 103.581 89.4562 102.175 87.7375 102.175H84.375Z" fill="url(#paint0_linear)"/>
<path d="M131.425 150H125.95C102.718 150 92.4871 142.2 92.0558 141.862C90.6996 140.8 90.4621 138.837 91.5246 137.475C92.5871 136.112 94.5433 135.869 95.9121 136.944C95.9808 137 105.112 143.75 125.95 143.75H131.425C135.756 143.75 139.425 140.65 140.137 136.369L143.631 115.444C144.056 112.875 143.337 110.269 141.662 108.281C139.975 106.294 137.525 105.156 134.925 105.156H116.993C115.837 105.156 114.781 104.519 114.243 103.506C113.7 102.487 113.756 101.262 114.393 100.294C114.406 100.275 116.856 96.4 116.856 90.0687C116.843 83.65 114.181 81.25 112.5 81.25C112 81.25 111.85 81.3187 111.843 81.3187C111.831 81.3562 111.143 82.25 111.143 87.0938C111.143 99.2875 96.1058 107.45 95.4621 107.794C93.9308 108.606 92.0496 108.031 91.2371 106.506C90.4246 104.987 90.9996 103.094 92.5183 102.281C95.9558 100.431 104.887 94.1 104.887 87.0938C104.887 82.8688 104.887 75 112.5 75C117.6 75 123.093 79.7187 123.093 90.0812C123.093 93.6562 122.468 96.65 121.75 98.9125H134.912C139.356 98.9125 143.55 100.856 146.418 104.25C149.287 107.637 150.518 112.094 149.787 116.475L146.293 137.4C145.087 144.7 138.831 150 131.425 150Z" fill="url(#paint1_linear)"/>
<path d="M59.375 131.25H15.625C7.00625 131.25 0 124.244 0 115.625V34.375C0 25.7562 7.00625 18.75 15.625 18.75H28.125C29.85 18.75 31.25 20.15 31.25 21.875C31.25 23.6 29.85 25 28.125 25H15.625C10.4562 25 6.25 29.2062 6.25 34.375V115.625C6.25 120.794 10.4562 125 15.625 125H59.375C61.1 125 62.5 126.4 62.5 128.125C62.5 129.85 61.1 131.25 59.375 131.25Z" fill="url(#paint2_linear)"/>
<path d="M71.875 37.5H34.375C29.2062 37.5 25 33.2937 25 28.125V15.625C25 13.9 26.4 12.5 28.125 12.5H37.8125C39.2625 5.375 45.5812 0 53.125 0C60.6687 0 66.9875 5.375 68.4375 12.5H78.125C79.85 12.5 81.25 13.9 81.25 15.625V28.125C81.25 33.2937 77.0437 37.5 71.875 37.5ZM31.25 18.75V28.125C31.25 29.8437 32.6562 31.25 34.375 31.25H71.875C73.5937 31.25 75 29.8437 75 28.125V18.75H65.625C63.9 18.75 62.5 17.35 62.5 15.625C62.5 10.4562 58.2937 6.25 53.125 6.25C47.9562 6.25 43.75 10.4562 43.75 15.625C43.75 17.35 42.35 18.75 40.625 18.75H31.25Z" fill="url(#paint3_linear)"/>
<path d="M84.375 56.25H21.875C20.15 56.25 18.75 54.85 18.75 53.125C18.75 51.4 20.15 50 21.875 50H84.375C86.1 50 87.5 51.4 87.5 53.125C87.5 54.85 86.1 56.25 84.375 56.25Z" fill="url(#paint4_linear)"/>
<path d="M84.375 75H21.875C20.15 75 18.75 73.6 18.75 71.875C18.75 70.15 20.15 68.75 21.875 68.75H84.375C86.1 68.75 87.5 70.15 87.5 71.875C87.5 73.6 86.1 75 84.375 75Z" fill="url(#paint5_linear)"/>
<path d="M59.375 93.75H21.875C20.15 93.75 18.75 92.35 18.75 90.625C18.75 88.9 20.15 87.5 21.875 87.5H59.375C61.1 87.5 62.5 88.9 62.5 90.625C62.5 92.35 61.1 93.75 59.375 93.75Z" fill="url(#paint6_linear)"/>
<path d="M103.125 62.5C101.4 62.5 100 61.1 100 59.375V34.375C100 29.2062 95.7937 25 90.625 25H78.125C76.4 25 75 23.6 75 21.875C75 20.15 76.4 18.75 78.125 18.75H90.625C99.2437 18.75 106.25 25.7562 106.25 34.375V59.375C106.25 61.1 104.85 62.5 103.125 62.5Z" fill="url(#paint7_linear)"/>
<defs>
<linearGradient id="paint0_linear" x1="30.7777" y1="124.54" x2="125.657" y2="162.646" gradientUnits="userSpaceOnUse">
<stop stop-color="#FFC300"/>
<stop offset="1" stop-color="#FF00FF"/>
</linearGradient>
<linearGradient id="paint1_linear" x1="-27.3989" y1="114.688" x2="156.798" y2="257.326" gradientUnits="userSpaceOnUse">
<stop stop-color="#FFC300"/>
<stop offset="1" stop-color="#FF00FF"/>
</linearGradient>
<linearGradient id="paint2_linear" x1="-124.992" y1="78.2824" x2="114.988" y2="209.226" gradientUnits="userSpaceOnUse">
<stop stop-color="#FFC300"/>
<stop offset="1" stop-color="#FF00FF"/>
</linearGradient>
<linearGradient id="paint3_linear" x1="-87.4931" y1="19.8441" x2="0.913397" y2="150.088" gradientUnits="userSpaceOnUse">
<stop stop-color="#FFC300"/>
<stop offset="1" stop-color="#FF00FF"/>
</linearGradient>
<linearGradient id="paint4_linear" x1="-118.742" y1="53.3074" x2="-115.832" y2="84.7467" gradientUnits="userSpaceOnUse">
<stop stop-color="#FFC300"/>
<stop offset="1" stop-color="#FF00FF"/>
</linearGradient>
<linearGradient id="paint5_linear" x1="-118.742" y1="72.0574" x2="-115.832" y2="103.497" gradientUnits="userSpaceOnUse">
<stop stop-color="#FFC300"/>
<stop offset="1" stop-color="#FF00FF"/>
</linearGradient>
<linearGradient id="paint6_linear" x1="-68.7447" y1="90.8074" x2="-64.2281" y2="121.859" gradientUnits="userSpaceOnUse">
<stop stop-color="#FFC300"/>
<stop offset="1" stop-color="#FF00FF"/>
</linearGradient>
<linearGradient id="paint7_linear" x1="12.5038" y1="41.9015" x2="116.859" y2="115.111" gradientUnits="userSpaceOnUse">
<stop stop-color="#FFC300"/>
<stop offset="1" stop-color="#FF00FF"/>
</linearGradient>
</defs>
</svg>
