<svg width="150" height="150" viewBox="0 0 150 150" fill="none" xmlns="http://www.w3.org/2000/svg">
<path d="M147.793 122.488C146.579 122.488 145.596 123.471 145.596 124.683V147.659C145.596 150.49 149.99 150.49 149.99 147.659V124.683C149.99 123.471 149.006 122.488 147.793 122.488Z" fill="url(#paint0_linear)"/>
<path d="M147.791 72.9819H130.54V65.0669H135.815C139.027 65.0669 141.64 62.4565 141.64 59.2475V5.81971C141.64 2.61073 139.027 0 135.815 0H53.8535C50.6419 0 48.0293 2.61073 48.0293 5.81971V13.7014C48.0293 16.5325 52.4231 16.5325 52.4231 13.7014V5.81971C52.4231 5.03151 53.0646 4.39024 53.8535 4.39024H135.816C136.604 4.39024 137.246 5.03151 137.246 5.81971V48.3843H130.54V24.9969C130.54 24.2725 130.182 23.5949 129.584 23.1858C128.986 22.7766 128.225 22.6885 127.549 22.9501C126.974 23.1729 114.853 28.1186 112.274 48.384H52.4231V25.1157C52.4231 22.2846 48.0293 22.2846 48.0293 25.1157V59.2475C48.0293 62.4565 50.6419 65.0669 53.8535 65.0669H83.3642V72.9819H33.4828C38.3488 68.1252 38.8239 60.4343 38.8239 53.9725C38.8239 52.7602 37.8406 51.7774 36.627 51.7774H24.7636V47.6333C31.8114 49.13 39.4941 43.3554 39.4001 36.0299C39.3875 35.0488 39.2656 34.0519 38.3585 33.4534C34.1855 30.7013 28.4384 31.848 24.7636 34.8533V30.8936C31.0418 26.5639 31.5082 16.368 25.4752 11.609C24.8673 11.1296 24.1948 10.6733 23.4733 10.3794C20.3768 9.11619 16.9731 14.6271 16.2352 16.7543C14.492 21.7809 16.0688 27.562 20.3695 30.7516V34.829C17.5496 32.5364 13.8666 31.4058 10.2687 32.1258C8.78181 32.4234 6.17627 33.0957 5.852 34.8966C4.45828 42.6457 13.2439 49.1336 20.3698 47.6397V51.7774H7.6277C6.41412 51.7774 5.43078 52.7602 5.43078 53.9725C5.43078 60.4253 5.78111 68.1258 10.6466 72.9819H2.20864C0.995059 72.9819 0.0117188 73.9648 0.0117188 75.1771V147.659C0.0117188 150.49 4.40555 150.49 4.40555 147.659V137.415H44.0965V147.659C44.0965 150.49 48.4903 150.49 48.4903 147.659V91.7561H126.178C126.189 92.5209 126.262 96.6404 126.271 97.8749H89.0911C80.4057 97.8749 73.9705 100.134 69.9639 104.589C65.1535 109.937 65.7868 116.421 65.8164 116.694C65.9359 117.809 66.878 118.655 68.0007 118.655H96.3831V122.606H87.7419C84.9085 122.606 84.9085 126.997 87.7419 126.997H96.3831V145.463H68.2626C65.4292 145.463 65.4292 149.854 68.2626 149.854H97.7965C98.0402 149.947 98.3035 150 98.58 150C98.8566 150 99.1199 149.947 99.3636 149.854H128.898C131.731 149.854 131.731 145.463 128.898 145.463H100.777V118.655H115.454C120.498 118.655 124.143 117.44 126.6 114.941C130.906 110.561 130.775 103.228 130.609 93.9421C130.596 93.2239 130.583 92.4934 130.572 91.7558H145.594V112.39C145.594 115.221 149.988 115.221 149.988 112.39V75.1771C149.988 73.9648 149.005 72.9819 147.791 72.9819ZM28.4328 37.6086C31.2601 35.8162 33.7197 36.2385 35.0004 36.6904C34.6137 41.2408 29.0772 44.5519 24.8454 43.1186C25.0229 41.7105 25.7382 39.3167 28.4328 37.6086ZM13.83 42.1747C11.9635 40.9914 10.3759 38.9538 10.1706 36.6893C14.5702 35.1439 19.7441 38.5677 20.3174 43.1186C18.1834 43.8416 15.7006 43.3604 13.83 42.1747ZM22.6801 14.9763C26.3592 17.7726 26.1943 24.1545 22.6672 26.9921C21.579 26.0979 19.9375 24.2172 19.9375 21.0094C19.9372 17.664 21.6121 15.8151 22.6801 14.9763ZM9.85566 56.1676H34.397C34.025 68.0257 30.483 72.7042 22.1271 72.7042C13.6566 72.7045 10.2119 68.1764 9.85566 56.1676ZM123.466 111.865C121.878 113.48 119.257 114.265 115.454 114.265H70.2436C70.4469 112.513 71.1242 109.867 73.2323 107.523C76.3701 104.034 81.7057 102.265 89.0914 102.265H126.215C126.034 106.567 125.383 109.915 123.466 111.865ZM137.246 52.7745V59.2478C137.246 60.036 136.604 60.677 135.815 60.677H130.54V52.7745H137.246ZM122.71 32.5926C123.906 31.0136 125.109 29.8384 126.146 28.9861V83.9704C125.112 83.0857 123.918 81.8789 122.731 80.2762C118.45 74.4989 116.186 66.2131 116.186 56.3137C116.186 46.4289 118.443 38.2261 122.71 32.5926ZM112.383 65.0672C112.803 68.0219 113.424 70.6507 114.181 72.9822H106.305V65.0672H112.383ZM52.4231 59.2475V52.7742H111.884C111.747 55.406 111.763 58.0469 111.934 60.6767H53.8535C53.0646 60.677 52.4231 60.0357 52.4231 59.2475ZM87.758 65.0672H101.911V72.9822H87.758V65.0672ZM115.907 77.3722C118.196 82.26 121.038 85.4175 123.337 87.3659H4.40555V77.3722H115.907ZM4.40555 133.024V114.585H44.0965V133.024H4.40555ZM44.0965 110.195H4.40555V91.7561H44.0965V110.195ZM130.54 87.3659V77.3722H145.594V87.3659H130.54Z" fill="url(#paint1_linear)"/>
<path d="M15.9766 103.171H32.6732C35.5066 103.171 35.5066 98.7805 32.6732 98.7805H15.9766C13.1432 98.7805 13.1432 103.171 15.9766 103.171Z" fill="url(#paint2_linear)"/>
<path d="M32.6732 121.61H15.9766C13.1432 121.61 13.1432 126 15.9766 126H32.6732C35.5066 126 35.5066 121.61 32.6732 121.61Z" fill="url(#paint3_linear)"/>
<defs>
<linearGradient id="paint0_linear" x1="136.809" y1="136.931" x2="158.168" y2="140.308" gradientUnits="userSpaceOnUse">
<stop stop-color="#FFC300"/>
<stop offset="1" stop-color="#FF00FF"/>
</linearGradient>
<linearGradient id="paint1_linear" x1="-299.922" y1="79.3766" x2="80.5188" y2="452.97" gradientUnits="userSpaceOnUse">
<stop stop-color="#FFC300"/>
<stop offset="1" stop-color="#FF00FF"/>
</linearGradient>
<linearGradient id="paint2_linear" x1="-28.0393" y1="101.104" x2="-23.4932" y2="122.407" gradientUnits="userSpaceOnUse">
<stop stop-color="#FFC300"/>
<stop offset="1" stop-color="#FF00FF"/>
</linearGradient>
<linearGradient id="paint3_linear" x1="-28.0393" y1="123.933" x2="-23.4932" y2="145.236" gradientUnits="userSpaceOnUse">
<stop stop-color="#FFC300"/>
<stop offset="1" stop-color="#FF00FF"/>
</linearGradient>
</defs>
</svg>
