<svg width="150" height="150" viewBox="0 0 150 150" fill="none" xmlns="http://www.w3.org/2000/svg">
<path d="M147.57 98.3607H125.545L124.469 88.5246H142.732C143.374 88.5246 143.989 88.2655 144.443 87.8044C144.896 87.3432 145.151 86.7178 145.151 86.0656V46.7213C145.151 46.0692 144.896 45.4437 144.443 44.9825C143.989 44.5214 143.374 44.2623 142.732 44.2623H84.6765C84.0349 44.2623 83.4197 44.5214 82.966 44.9825C82.5124 45.4437 82.2575 46.0692 82.2575 46.7213V86.0656C82.2575 86.7178 82.5124 87.3432 82.966 87.8044C83.4197 88.2655 84.0349 88.5246 84.6765 88.5246H102.94L101.863 98.3607H77.1655L74.9854 78.418C74.9294 77.9058 74.7166 77.4243 74.377 77.0415C74.0373 76.6588 73.5881 76.3941 73.0925 76.2848L50.8106 71.3883V68.0072C53.638 66.9869 56.0857 65.1025 57.818 62.6124C59.5503 60.1222 60.4825 57.1483 60.4866 54.0984V41.8033C60.4858 41.1111 60.4373 40.4199 60.3414 39.7346C60.3384 39.7039 60.3354 39.6732 60.3293 39.6424C59.8152 36.144 58.0836 32.9492 55.4492 30.6384C52.8147 28.3275 49.4522 27.054 45.9726 27.0492H41.1346C37.2865 27.0533 33.5972 28.6091 30.8762 31.3752C28.1552 34.1412 26.6247 37.8915 26.6206 41.8033V54.0984C26.6247 57.1483 27.5569 60.1222 29.2892 62.6124C31.0215 65.1025 33.4692 66.9869 36.2966 68.0072V71.3883L14.0147 76.2848C13.5191 76.3941 13.0699 76.6588 12.7302 77.0415C12.3906 77.4243 12.1778 77.9058 12.1218 78.418L9.94169 98.3607H2.43071C1.78916 98.3607 1.17387 98.6197 0.720226 99.0809C0.266576 99.5421 0.0117188 100.168 0.0117188 100.82V147.541C0.0117188 148.193 0.266576 148.819 0.720226 149.28C1.17387 149.741 1.78916 150 2.43071 150H147.57C148.212 150 148.827 149.741 149.281 149.28C149.734 148.819 149.989 148.193 149.989 147.541V100.82C149.989 100.168 149.734 99.5421 149.281 99.0809C148.827 98.6197 148.212 98.3607 147.57 98.3607ZM87.0955 83.6066V49.1803H140.313V83.6066H123.934L123.365 78.418C123.3 77.8165 123.018 77.2606 122.575 76.8568C122.131 76.453 121.557 76.2296 120.961 76.2295H106.447C105.852 76.2296 105.278 76.453 104.834 76.8568C104.391 77.2606 104.109 77.8165 104.044 78.418L103.475 83.6066H87.0955ZM120.677 98.3607H106.732L108.612 81.1476H118.796L120.677 98.3607ZM70.3681 80.7172L72.2973 98.3607H65.3245V88.5246C65.3245 87.8724 65.0697 87.247 64.616 86.7858C64.1624 86.3247 63.5471 86.0656 62.9056 86.0656C62.264 86.0656 61.6487 86.3247 61.1951 86.7858C60.7414 87.247 60.4866 87.8724 60.4866 88.5246V98.3607H45.9726V91.3187L50.1 76.2633L70.3681 80.7172ZM41.1346 71.3115V68.8525H45.9726V71.3115H41.1346ZM45.0866 76.2295L43.5536 81.8207L42.0206 76.2295H45.0866ZM31.4586 41.8033C31.4615 39.1955 32.4819 36.6954 34.2958 34.8514C36.1098 33.0074 38.5693 31.9702 41.1346 31.9672H45.9726C48.1446 31.9702 50.2527 32.7148 51.9586 34.0815C53.6644 35.4483 54.8692 37.358 55.3795 39.5041C54.7505 40.0758 52.903 41.3023 47.8534 42.4488C43.2996 43.4816 37.5515 44.1055 31.4586 44.2346V41.8033ZM31.4586 54.0984V49.1465C36.8137 49.0082 48.8814 48.3289 55.6486 45.0769V54.0984C55.6457 56.7062 54.6253 59.2063 52.8114 61.0503C50.9974 62.8943 48.5379 63.9315 45.9726 63.9344H41.1346C38.5693 63.9315 36.1098 62.8943 34.2958 61.0503C32.4819 59.2063 31.4615 56.7062 31.4586 54.0984ZM16.7391 80.7172L37.0072 76.2633L41.1346 91.3187V98.3607H26.6206V88.5246C26.6206 87.8724 26.3658 87.247 25.9121 86.7858C25.4585 86.3247 24.8432 86.0656 24.2017 86.0656C23.5601 86.0656 22.9448 86.3247 22.4912 86.7858C22.0375 87.247 21.7827 87.8724 21.7827 88.5246V98.3607H14.8099L16.7391 80.7172ZM145.151 145.082H4.84971V113.115H145.151V145.082ZM145.151 108.197H4.84971V103.279H145.151V108.197Z" fill="url(#paint0_linear)"/>
<path d="M113.702 71.3115C115.138 71.3115 116.541 70.8788 117.734 70.0682C118.927 69.2576 119.858 68.1055 120.407 66.7575C120.956 65.4095 121.1 63.9262 120.82 62.4952C120.54 61.0642 119.849 59.7498 118.834 58.7181C117.819 57.6864 116.526 56.9838 115.118 56.6991C113.71 56.4145 112.251 56.5606 110.925 57.1189C109.599 57.6773 108.466 58.6228 107.668 59.836C106.871 61.0491 106.445 62.4754 106.445 63.9344C106.447 65.8903 107.213 67.7654 108.573 69.1484C109.934 70.5314 111.778 71.3093 113.702 71.3115ZM113.702 61.4754C114.181 61.4754 114.648 61.6196 115.046 61.8898C115.444 62.16 115.754 62.5441 115.937 62.9934C116.12 63.4427 116.168 63.9372 116.075 64.4142C115.981 64.8912 115.751 65.3293 115.413 65.6732C115.074 66.0171 114.643 66.2513 114.174 66.3462C113.705 66.4411 113.219 66.3924 112.777 66.2063C112.335 66.0201 111.957 65.705 111.691 65.3006C111.425 64.8962 111.283 64.4208 111.283 63.9344C111.284 63.2825 111.539 62.6574 111.993 62.1964C112.446 61.7355 113.061 61.4761 113.702 61.4754Z" fill="url(#paint1_linear)"/>
<path d="M91.934 39.3443C95.7614 39.3443 99.5029 38.1905 102.685 36.0289C105.868 33.8673 108.348 30.795 109.813 27.2003C111.278 23.6057 111.661 19.6503 110.914 15.8343C110.167 12.0183 108.324 8.51304 105.618 5.76184C102.911 3.01065 99.4633 1.13706 95.7094 0.378003C91.9554 -0.38105 88.0644 0.00852356 84.5283 1.49746C80.9922 2.9864 77.9698 5.50782 75.8434 8.74289C73.717 11.978 72.582 15.7814 72.582 19.6721C72.5878 24.8877 74.6285 29.888 78.2564 33.576C81.8844 37.2639 86.8033 39.3384 91.934 39.3443ZM91.934 4.91804C94.8046 4.91804 97.6107 5.78335 99.9975 7.40456C102.384 9.02576 104.245 11.33 105.343 14.026C106.442 16.722 106.729 19.6885 106.169 22.5505C105.609 25.4125 104.227 28.0415 102.197 30.1049C100.167 32.1683 97.5809 33.5735 94.7655 34.1427C91.9501 34.712 89.0318 34.4198 86.3797 33.3031C83.7276 32.1864 81.4609 30.2954 79.8661 27.8691C78.2712 25.4428 77.42 22.5902 77.42 19.6721C77.4243 15.7605 78.9549 12.0102 81.6758 9.24427C84.3968 6.47829 88.086 4.92243 91.934 4.91804Z" fill="url(#paint2_linear)"/>
<path d="M90.8508 21.8714L95.6888 24.3304C95.9732 24.4778 96.2835 24.5666 96.6018 24.5915C96.9201 24.6164 97.2401 24.577 97.5434 24.4756C97.8467 24.3742 98.1272 24.2128 98.3688 24.0006C98.6104 23.7885 98.8083 23.5298 98.9511 23.2395C99.0939 22.9493 99.1787 22.6332 99.2007 22.3094C99.2228 21.9856 99.1815 21.6606 99.0794 21.3531C98.9773 21.0457 98.8163 20.7618 98.6058 20.5178C98.3952 20.2739 98.1392 20.0747 97.8525 19.9319L94.3517 18.1525V9.83606C94.3517 9.18389 94.0968 8.55843 93.6432 8.09727C93.1895 7.63612 92.5742 7.37704 91.9327 7.37704C91.2911 7.37704 90.6758 7.63612 90.2222 8.09727C89.7685 8.55843 89.5137 9.18389 89.5137 9.83606V19.6721C89.5137 20.1288 89.6388 20.5764 89.8749 20.9648C90.1111 21.3533 90.449 21.6672 90.8508 21.8714Z" fill="url(#paint3_linear)"/>
<path d="M99.1885 142.623H130.635C131.277 142.623 131.892 142.364 132.346 141.903C132.8 141.442 133.054 140.816 133.054 140.164C133.054 139.512 132.8 138.886 132.346 138.425C131.892 137.964 131.277 137.705 130.635 137.705H99.1885C98.547 137.705 97.9317 137.964 97.478 138.425C97.0244 138.886 96.7695 139.512 96.7695 140.164C96.7695 140.816 97.0244 141.442 97.478 141.903C97.9317 142.364 98.547 142.623 99.1885 142.623Z" fill="url(#paint4_linear)"/>
<path d="M137.892 142.623H140.311C140.952 142.623 141.567 142.364 142.021 141.903C142.475 141.442 142.73 140.816 142.73 140.164C142.73 139.512 142.475 138.886 142.021 138.425C141.567 137.964 140.952 137.705 140.311 137.705H137.892C137.25 137.705 136.635 137.964 136.181 138.425C135.728 138.886 135.473 139.512 135.473 140.164C135.473 140.816 135.728 141.442 136.181 141.903C136.635 142.364 137.25 142.623 137.892 142.623Z" fill="url(#paint5_linear)"/>
<defs>
<linearGradient id="paint0_linear" x1="-299.925" y1="92.112" x2="6.93981" y2="459.752" gradientUnits="userSpaceOnUse">
<stop stop-color="#FFC300"/>
<stop offset="1" stop-color="#FF00FF"/>
</linearGradient>
<linearGradient id="paint1_linear" x1="77.4192" y1="64.3649" x2="114.824" y2="100.504" gradientUnits="userSpaceOnUse">
<stop stop-color="#FFC300"/>
<stop offset="1" stop-color="#FF00FF"/>
</linearGradient>
<linearGradient id="paint2_linear" x1="-4.82107" y1="20.8201" x2="94.9242" y2="117.191" gradientUnits="userSpaceOnUse">
<stop stop-color="#FFC300"/>
<stop offset="1" stop-color="#FF00FF"/>
</linearGradient>
<linearGradient id="paint3_linear" x1="70.1292" y1="16.4904" x2="107.123" y2="36.94" gradientUnits="userSpaceOnUse">
<stop stop-color="#FFC300"/>
<stop offset="1" stop-color="#FF00FF"/>
</linearGradient>
<linearGradient id="paint4_linear" x1="24.2041" y1="140.307" x2="27.5831" y2="164.792" gradientUnits="userSpaceOnUse">
<stop stop-color="#FFC300"/>
<stop offset="1" stop-color="#FF00FF"/>
</linearGradient>
<linearGradient id="paint5_linear" x1="120.96" y1="140.307" x2="132.623" y2="157.211" gradientUnits="userSpaceOnUse">
<stop stop-color="#FFC300"/>
<stop offset="1" stop-color="#FF00FF"/>
</linearGradient>
</defs>
</svg>
