<svg width="170" height="170" viewBox="0 0 170 170" fill="none" xmlns="http://www.w3.org/2000/svg">
<path d="M53.8311 74.5385C53.0797 74.5385 52.3591 74.837 51.8278 75.3684C51.2965 75.8997 50.998 76.6204 50.998 77.3719V87.8326C50.998 88.584 51.2965 89.3047 51.8278 89.8361C52.3591 90.3674 53.0797 90.666 53.8311 90.666H116.159C116.91 90.666 117.631 90.3674 118.162 89.8361C118.693 89.3047 118.992 88.584 118.992 87.8326V77.3719C118.992 76.6204 118.693 75.8997 118.162 75.3684C117.631 74.837 116.91 74.5385 116.159 74.5385H111.954C111.483 73.1749 110.896 71.8544 110.198 70.5917L112.96 68.0416C113.248 67.7763 113.477 67.4543 113.634 67.0959C113.791 66.7375 113.872 66.3504 113.872 65.9591C113.872 65.5678 113.791 65.1808 113.634 64.8224C113.477 64.4639 113.248 64.1419 112.96 63.8766L104.945 56.4816C104.422 55.9989 103.736 55.7309 103.025 55.7309C102.313 55.7309 101.627 55.9989 101.104 56.4816L98.1063 59.2469C96.6222 58.5218 95.0792 57.9237 93.4941 57.4591V53.8324C93.4941 53.0809 93.1956 52.3602 92.6643 51.8289C92.133 51.2975 91.4124 50.999 90.661 50.999H79.3287C78.5774 50.999 77.8568 51.2975 77.3255 51.8289C76.7942 52.3602 76.4957 53.0809 76.4957 53.8324V57.4591C74.9106 57.9228 73.3677 58.5199 71.8834 59.2441L68.886 56.4787C68.3628 55.9961 67.6771 55.7281 66.9652 55.7281C66.2534 55.7281 65.5676 55.9961 65.0444 56.4787L57.0297 63.8738C56.7421 64.1391 56.5126 64.4611 56.3556 64.8195C56.1986 65.1779 56.1176 65.565 56.1176 65.9563C56.1176 66.3476 56.1986 66.7346 56.3556 67.093C56.5126 67.4515 56.7421 67.7735 57.0297 68.0388L59.7919 70.5888C59.0942 71.8516 58.5065 73.1721 58.0354 74.5357L53.8311 74.5385ZM73.8921 84.9992C74.9432 78.542 79.5214 73.6658 84.9949 73.6658C90.4684 73.6658 95.0466 78.542 96.0977 84.9992H73.8921ZM60.1489 80.2052C60.7829 80.2058 61.3989 79.9937 61.8981 79.6028C62.3974 79.2119 62.7511 78.6648 62.9026 78.049C63.4669 75.7719 64.4371 73.6152 65.7668 71.6825C66.151 71.1206 66.3201 70.4391 66.2431 69.7627C66.1661 69.0863 65.8482 68.4603 65.3475 67.9991L63.1293 65.9506L66.9652 62.4089L69.515 64.7663C69.96 65.1774 70.5251 65.435 71.1273 65.5013C71.7295 65.5676 72.3371 65.4391 72.8608 65.1346C75.0507 63.8629 77.4306 62.9513 79.9095 62.4344C80.5454 62.3012 81.1162 61.9535 81.5262 61.4496C81.9363 60.9456 82.1607 60.316 82.1618 59.6662V56.6657H87.828V59.6662C87.8277 60.3166 88.0511 60.9472 88.4607 61.4523C88.8703 61.9573 89.4411 62.3061 90.0774 62.4401C92.5564 62.9569 94.9362 63.8686 97.1261 65.1403C97.6499 65.4447 98.2575 65.5732 98.8596 65.5069C99.4618 65.4407 100.027 65.1831 100.472 64.7719L103.022 62.4146L106.858 65.9563L104.642 67.9991C104.142 68.4603 103.824 69.0863 103.747 69.7627C103.67 70.4391 103.839 71.1206 104.223 71.6825C105.555 73.6148 106.527 75.7715 107.093 78.049C107.244 78.6648 107.598 79.2119 108.097 79.6028C108.597 79.9937 109.213 80.2058 109.847 80.2052H113.326V84.9992H101.801C100.614 75.4027 93.5423 67.9991 84.9949 67.9991C76.4475 67.9991 69.3762 75.4027 68.1891 84.9992H56.6642V80.2052H60.1489Z" fill="url(#paint0_linear)"/>
<path d="M39.6719 170H130.33C131.082 170 131.802 169.702 132.333 169.17C132.865 168.639 133.163 167.918 133.163 167.167V158.709C133.149 150.52 130.185 142.61 124.815 136.427C119.444 130.245 112.027 126.205 103.92 125.046C108.443 122.389 112.205 118.612 114.846 114.08C117.486 109.547 118.916 104.411 118.998 99.1664C118.998 98.4149 118.699 97.6942 118.168 97.1629C117.637 96.6315 116.916 96.333 116.165 96.333H53.8373C53.0859 96.333 52.3653 96.6315 51.834 97.1629C51.3027 97.6942 51.0042 98.4149 51.0042 99.1664C51.0859 104.411 52.5159 109.547 55.1565 114.08C57.7971 118.612 61.5595 122.389 66.0818 125.046C57.9755 126.205 50.5579 130.245 45.1875 136.427C39.817 142.61 36.8532 150.52 36.8389 158.709V167.167C36.8389 167.918 37.1374 168.639 37.6687 169.17C38.2 169.702 38.9206 170 39.6719 170ZM56.846 102H113.156C111.587 114.733 99.5574 124.667 85.0011 124.667C70.4447 124.667 58.4155 114.733 56.846 102ZM42.505 158.709C42.514 151.186 45.5062 143.974 50.8253 138.654C56.1443 133.335 63.3559 130.342 70.8782 130.333H99.1239C106.646 130.342 113.858 133.335 119.177 138.654C124.496 143.974 127.488 151.186 127.497 158.709V164.333H42.505V158.709Z" fill="url(#paint1_linear)"/>
<path d="M47.3368 31.9953L43.3301 36.0024L54.6632 47.3367L58.67 43.3295L47.3368 31.9953Z" fill="url(#paint2_linear)"/>
<path d="M42.5004 82.166H25.502V87.8327H42.5004V82.166Z" fill="url(#paint3_linear)"/>
<path d="M144.491 82.166H127.493V87.8327H144.491V82.166Z" fill="url(#paint4_linear)"/>
<path d="M122.656 31.9939L111.323 43.3281L115.33 47.3353L126.663 36.001L122.656 31.9939Z" fill="url(#paint5_linear)"/>
<path d="M72.0592 29.1002L69.9485 42.0429C69.863 42.5678 69.9268 43.1062 70.1328 43.5965C70.3388 44.0868 70.6786 44.5093 71.1134 44.8155C71.5481 45.1217 72.0603 45.2994 72.5913 45.3282C73.1223 45.357 73.6507 45.2357 74.116 44.9783L85.0006 38.9603L95.8853 44.9783C96.3508 45.2356 96.8793 45.3566 97.4104 45.3276C97.9415 45.2985 98.4537 45.1205 98.8884 44.814C99.3228 44.5078 99.6623 44.0856 99.8682 43.5956C100.074 43.1056 100.138 42.5676 100.053 42.0429L97.9421 29.1002L106.861 19.9626C107.224 19.5898 107.478 19.1238 107.595 18.6159C107.711 18.1081 107.685 17.578 107.519 17.084C107.354 16.5899 107.056 16.1511 106.657 15.8157C106.258 15.4803 105.775 15.2613 105.26 15.1828L93.0522 13.3156L87.5646 1.62801C87.3358 1.14125 86.9732 0.729673 86.5192 0.441382C86.0651 0.153092 85.5384 0 85.0006 0C84.4628 0 83.9361 0.153092 83.4821 0.441382C83.0281 0.729673 82.6655 1.14125 82.4367 1.62801L76.9491 13.3156L64.7414 15.1799C64.2264 15.2584 63.743 15.4774 63.3444 15.8129C62.9457 16.1483 62.6473 16.5871 62.4819 17.0811C62.3164 17.5752 62.2904 18.1052 62.4066 18.6131C62.5228 19.121 62.7768 19.5869 63.1407 19.9598L72.0592 29.1002ZM79.3005 18.699C79.7604 18.6285 80.1958 18.4458 80.5684 18.1671C80.941 17.8884 81.2392 17.5223 81.4366 17.1009L85.0006 9.5019L88.5646 17.0924C88.7621 17.5138 89.0603 17.8799 89.4329 18.1586C89.8054 18.4373 90.2409 18.62 90.7008 18.6905L98.9535 19.9513L92.8879 26.1677C92.5781 26.4853 92.3472 26.8713 92.2138 27.2946C92.0805 27.7178 92.0484 28.1664 92.1201 28.6044L93.5367 37.1951L86.386 33.2426C85.9663 33.0104 85.4945 32.8886 85.0148 32.8886C84.5351 32.8886 84.0633 33.0104 83.6436 33.2426L76.4929 37.1951L77.8953 28.6044C77.9671 28.1664 77.935 27.7178 77.8016 27.2946C77.6683 26.8713 77.4374 26.4853 77.1275 26.1677L71.0478 19.9513L79.3005 18.699Z" fill="url(#paint6_linear)"/>
<path d="M168.21 54.0338L159.224 50.4326L155.629 41.4396C155.419 40.9129 155.056 40.4612 154.587 40.1431C154.117 39.8249 153.564 39.6548 152.997 39.6548C152.43 39.6548 151.876 39.8249 151.407 40.1431C150.937 40.4612 150.575 40.9129 150.365 41.4396L146.758 50.4326L137.766 54.0282C137.239 54.238 136.788 54.601 136.47 55.0702C136.152 55.5395 135.981 56.0934 135.981 56.6603C135.981 57.2273 136.152 57.7812 136.47 58.2505C136.788 58.7197 137.239 59.0827 137.766 59.2925L146.758 62.8994L150.353 71.8924C150.563 72.4191 150.926 72.8708 151.395 73.189C151.865 73.5071 152.418 73.6772 152.985 73.6772C153.552 73.6772 154.106 73.5071 154.575 73.189C155.044 72.8708 155.407 72.4191 155.617 71.8924L159.224 62.8994L168.216 59.3039C168.743 59.094 169.194 58.731 169.512 58.2618C169.83 57.7925 170 57.2386 170 56.6717C170 56.1047 169.83 55.5508 169.512 55.0816C169.194 54.6123 168.743 54.2493 168.216 54.0395L168.21 54.0338ZM152.991 59.2812L151.124 58.5332L150.376 56.666L151.124 54.7988L152.991 54.0508L154.858 54.7988L155.606 56.666L154.858 58.5332L152.991 59.2812Z" fill="url(#paint7_linear)"/>
<path d="M1.78461 59.2979L10.7711 62.8991L14.3663 71.8922C14.5761 72.4188 14.939 72.8705 15.4082 73.1887C15.8774 73.5069 16.4313 73.6769 16.9982 73.6769C17.5651 73.6769 18.1189 73.5069 18.5882 73.1887C19.0574 72.8705 19.4203 72.4188 19.6301 71.8922L23.2366 62.8991L32.2288 59.3036C32.7554 59.0937 33.207 58.7307 33.5252 58.2615C33.8433 57.7922 34.0134 57.2383 34.0134 56.6714C34.0134 56.1044 33.8433 55.5505 33.5252 55.0813C33.207 54.612 32.7554 54.249 32.2288 54.0392L23.2366 50.4323L19.6358 41.4449C19.426 40.9182 19.063 40.4666 18.5938 40.1484C18.1246 39.8302 17.5708 39.6602 17.0039 39.6602C16.437 39.6602 15.8831 39.8302 15.4139 40.1484C14.9447 40.4666 14.5817 40.9182 14.3719 41.4449L10.7711 50.4323L1.78461 54.0335C1.25796 54.2433 0.806368 54.6064 0.488219 55.0756C0.17007 55.5449 0 56.0988 0 56.6657C0 57.2327 0.17007 57.7866 0.488219 58.2558C0.806368 58.7251 1.25796 59.0881 1.78461 59.2979ZM17.0039 54.0505L18.8709 54.7985L19.6188 56.6657L18.8709 58.5329L17.0039 59.2809L15.1369 58.5329L14.3889 56.6657L15.1369 54.7985L17.0039 54.0505Z" fill="url(#paint8_linear)"/>
<path d="M139.024 134.22C139.234 134.747 139.597 135.199 140.066 135.517C140.535 135.835 141.089 136.005 141.656 136.005C142.223 136.005 142.777 135.835 143.246 135.517C143.715 135.199 144.078 134.747 144.288 134.22L147.889 125.233L156.881 121.637C157.408 121.428 157.859 121.065 158.177 120.595C158.495 120.126 158.666 119.572 158.666 119.005C158.666 118.438 158.495 117.884 158.177 117.415C157.859 116.946 157.408 116.583 156.881 116.373L147.889 112.766L144.294 103.773C144.084 103.246 143.721 102.795 143.252 102.477C142.782 102.158 142.229 101.988 141.662 101.988C141.095 101.988 140.541 102.158 140.072 102.477C139.603 102.795 139.24 103.246 139.03 103.773L135.423 112.766L126.431 116.362C125.904 116.571 125.453 116.934 125.135 117.404C124.817 117.873 124.646 118.427 124.646 118.994C124.646 119.561 124.817 120.115 125.135 120.584C125.453 121.053 125.904 121.416 126.431 121.626L135.423 125.233L139.024 134.22ZM139.041 119L139.789 117.132L141.656 116.384L143.523 117.132L144.271 119L143.523 120.867L141.656 121.615L139.789 120.867L139.041 119Z" fill="url(#paint9_linear)"/>
<path d="M42.5023 119C42.5027 118.433 42.3334 117.88 42.0163 117.411C41.6992 116.941 41.2487 116.578 40.7231 116.367L31.7366 112.766L28.1414 103.773C27.9317 103.246 27.5687 102.795 27.0995 102.477C26.6303 102.158 26.0764 101.988 25.5095 101.988C24.9426 101.988 24.3888 102.158 23.9196 102.477C23.4504 102.795 23.0874 103.246 22.8776 103.773L19.2711 112.766L10.2846 116.367C9.75796 116.577 9.30637 116.94 8.98822 117.409C8.67007 117.879 8.5 118.433 8.5 119C8.5 119.566 8.67007 120.12 8.98822 120.59C9.30637 121.059 9.75796 121.422 10.2846 121.632L19.2711 125.233L22.8663 134.226C23.0761 134.753 23.439 135.204 23.9082 135.522C24.3774 135.841 24.9313 136.011 25.4982 136.011C26.0651 136.011 26.6189 135.841 27.0881 135.522C27.5574 135.204 27.9203 134.753 28.1301 134.226L31.7366 125.233L40.7288 121.637C41.2542 121.425 41.7041 121.061 42.0203 120.591C42.3364 120.12 42.5043 119.566 42.5023 119ZM25.5039 121.615L23.6369 120.867L22.8889 119L23.6369 117.132L25.5039 116.384L27.3709 117.132L28.1188 119L27.3709 120.867L25.5039 121.615Z" fill="url(#paint10_linear)"/>
<defs>
<linearGradient id="paint0_linear" x1="-84.981" y1="71.9899" x2="3.38077" y2="220.749" gradientUnits="userSpaceOnUse">
<stop stop-color="#FFC300"/>
<stop offset="1" stop-color="#FF00FF"/>
</linearGradient>
<linearGradient id="paint1_linear" x1="-155.798" y1="135.316" x2="25.3743" y2="367.983" gradientUnits="userSpaceOnUse">
<stop stop-color="#FFC300"/>
<stop offset="1" stop-color="#FF00FF"/>
</linearGradient>
<linearGradient id="paint2_linear" x1="41.3143" y1="50.0141" x2="65.3187" y2="38.3846" gradientUnits="userSpaceOnUse">
<stop stop-color="#FFC300"/>
<stop offset="1" stop-color="#FF00FF"/>
</linearGradient>
<linearGradient id="paint3_linear" x1="-8.49282" y1="85.1647" x2="0.257305" y2="110.944" gradientUnits="userSpaceOnUse">
<stop stop-color="#FFC300"/>
<stop offset="1" stop-color="#FF00FF"/>
</linearGradient>
<linearGradient id="paint4_linear" x1="93.4979" y1="85.1647" x2="102.248" y2="110.944" gradientUnits="userSpaceOnUse">
<stop stop-color="#FFC300"/>
<stop offset="1" stop-color="#FF00FF"/>
</linearGradient>
<linearGradient id="paint5_linear" x1="90.7782" y1="68.1158" x2="115.253" y2="79.6331" gradientUnits="userSpaceOnUse">
<stop stop-color="#FFC300"/>
<stop offset="1" stop-color="#FF00FF"/>
</linearGradient>
<linearGradient id="paint6_linear" x1="-28.321" y1="23.9888" x2="86.6545" y2="136.909" gradientUnits="userSpaceOnUse">
<stop stop-color="#FFC300"/>
<stop offset="1" stop-color="#FF00FF"/>
</linearGradient>
<linearGradient id="paint7_linear" x1="67.9475" y1="57.6587" x2="154.238" y2="142.401" gradientUnits="userSpaceOnUse">
<stop stop-color="#FFC300"/>
<stop offset="1" stop-color="#FF00FF"/>
</linearGradient>
<linearGradient id="paint8_linear" x1="-68.0226" y1="57.6611" x2="18.2533" y2="142.389" gradientUnits="userSpaceOnUse">
<stop stop-color="#FFC300"/>
<stop offset="1" stop-color="#FF00FF"/>
</linearGradient>
<linearGradient id="paint9_linear" x1="56.6125" y1="119.989" x2="142.889" y2="204.732" gradientUnits="userSpaceOnUse">
<stop stop-color="#FFC300"/>
<stop offset="1" stop-color="#FF00FF"/>
</linearGradient>
<linearGradient id="paint10_linear" x1="-59.5005" y1="119.992" x2="26.7891" y2="204.692" gradientUnits="userSpaceOnUse">
<stop stop-color="#FFC300"/>
<stop offset="1" stop-color="#FF00FF"/>
</linearGradient>
</defs>
</svg>
