<svg width="150" height="150" viewBox="0 0 150 150" fill="none" xmlns="http://www.w3.org/2000/svg">
<path d="M97.4966 140C98.1596 140 98.7954 139.737 99.2641 139.268C99.7329 138.799 99.9963 138.163 99.9963 137.5C99.9963 136.837 99.7329 136.201 99.2641 135.732C98.7954 135.263 98.1596 135 97.4966 135H77.4996C76.8367 135 76.2009 135.263 75.7321 135.732C75.2634 136.201 75 136.837 75 137.5C75 138.163 75.2634 138.799 75.7321 139.268C76.2009 139.737 76.8367 140 77.4996 140H97.4966Z" fill="url(#paint0_linear)"/>
<path d="M2.51135 140H22.5084C23.1713 140 23.8071 139.737 24.2759 139.268C24.7446 138.799 25.008 138.163 25.008 137.5C25.008 136.837 24.7446 136.201 24.2759 135.732C23.8071 135.263 23.1713 135 22.5084 135H2.51135C1.8484 135 1.21261 135.263 0.743842 135.732C0.275071 136.201 0.0117188 136.837 0.0117188 137.5C0.0117188 138.163 0.275071 138.799 0.743842 139.268C1.21261 139.737 1.8484 140 2.51135 140Z" fill="url(#paint1_linear)"/>
<path d="M65.0016 145C64.3386 145 63.7028 145.263 63.2341 145.732C62.7653 146.201 62.502 146.837 62.502 147.5C62.502 148.163 62.7653 148.799 63.2341 149.268C63.7028 149.737 64.3386 150 65.0016 150H75.0001C75.663 150 76.2988 149.737 76.7676 149.268C77.2364 148.799 77.4997 148.163 77.4997 147.5C77.4997 146.837 77.2364 146.201 76.7676 145.732C76.2988 145.263 75.663 145 75.0001 145H65.0016Z" fill="url(#paint2_linear)"/>
<path d="M12.5098 147.5C12.5098 148.163 12.7731 148.799 13.2419 149.268C13.7107 149.737 14.3465 150 15.0094 150H50.0042C50.6671 150 51.3029 149.737 51.7717 149.268C52.2404 148.799 52.5038 148.163 52.5038 147.5C52.5038 146.837 52.2404 146.201 51.7717 145.732C51.3029 145.263 50.6671 145 50.0042 145H15.0094C14.3465 145 13.7107 145.263 13.2419 145.732C12.7731 146.201 12.5098 146.837 12.5098 147.5Z" fill="url(#paint3_linear)"/>
<path d="M142.751 58.1928C138.634 56.1337 133.215 55 127.493 55C125.788 54.9991 124.085 55.1025 122.393 55.3094L136.759 40.9403C137.228 40.4715 137.492 39.8356 137.492 39.1727C137.492 38.5097 137.228 37.8738 136.759 37.405C134.166 34.8112 130.012 34.2925 125.061 35.9431C120.694 37.3991 116.062 40.4294 112.014 44.4759C111.309 45.1816 110.636 45.9041 109.996 46.6434V27.5C109.996 26.837 109.732 26.2011 109.264 25.7322C108.795 25.2634 108.159 25 107.496 25C103.829 25 100.524 27.5712 98.1903 32.2397C96.1315 36.3578 94.9979 41.7772 94.9979 47.5C94.9888 50.3055 95.2734 53.1042 95.8472 55.8503C93.1016 55.2775 90.3037 54.9925 87.499 55C81.7771 55 76.3585 56.1337 72.241 58.1928C67.5733 60.5272 65.0024 63.8325 65.0024 67.5C65.0024 68.163 65.2657 68.7989 65.7345 69.2678C66.2033 69.7366 66.8391 70 67.502 70H84.8541C79.5237 77.6038 78.4016 85.2641 82.4048 89.2678C82.8736 89.7366 83.5093 89.9999 84.1722 89.9999C84.8351 89.9999 85.4708 89.7366 85.9396 89.2678L98.6764 76.5291C99.2598 77.4469 100.036 78.2266 100.951 78.814C101.866 79.4014 102.898 79.7823 103.976 79.9303C105.053 80.0783 106.15 79.9898 107.189 79.671C108.229 79.3521 109.187 78.8106 109.996 78.0841C110.108 78.1847 110.224 78.2812 110.342 78.3753C113.273 85.67 114.937 93.9859 115.2 102.591C109.096 103.05 103.217 105.332 98.0737 109.268C97.7612 109.507 97.4526 109.754 97.1467 110.005C83.1053 110.098 70.4631 115.793 63.7041 125H2.51172V130H107.496C117.51 130 124.993 133.96 124.993 137.5C124.993 141.04 117.51 145 107.496 145C106.833 145 106.197 145.263 105.729 145.732C105.26 146.201 104.996 146.837 104.996 147.5C104.996 148.163 105.26 148.799 105.729 149.268C106.197 149.737 106.833 150 107.496 150C113.218 150 118.637 148.866 122.754 146.807C127.422 144.473 129.993 141.168 129.993 137.5C129.993 134.698 128.487 132.108 125.696 130H147.49C147.9 130 148.304 129.899 148.665 129.706C149.027 129.514 149.336 129.235 149.565 128.895C149.793 128.555 149.935 128.163 149.977 127.755C150.018 127.348 149.959 126.936 149.805 126.556C146.928 119.498 142.471 113.52 136.915 109.268C134.672 107.545 132.222 106.111 129.621 105H129.993C129.993 92.4434 127.489 80.4341 122.728 70H147.49C148.153 70 148.789 69.7366 149.258 69.2678C149.726 68.7989 149.99 68.163 149.99 67.5C149.99 63.8325 147.419 60.5272 142.751 58.1928ZM104.996 31.1678V53.9769C104.262 55.4025 103.665 56.8946 103.212 58.4331C103.061 58.3528 102.913 58.2709 102.757 58.1928C102.347 57.9875 101.92 57.7944 101.485 57.6078C100.474 54.3347 99.9722 50.9256 99.9972 47.5C99.9972 39.8297 102.319 33.6441 104.996 31.1678ZM97.8244 70.3103L84.9891 83.1472C84.8454 79.9831 86.8669 74.9909 91.2022 70H97.9275C97.8912 70.1025 97.8562 70.2056 97.8244 70.3103ZM71.1693 65C73.6452 62.3222 79.8299 60 87.499 60C95.1682 60 101.353 62.3222 103.829 65H71.1693ZM104.996 75C104.502 75 104.019 74.8534 103.608 74.5787C103.197 74.304 102.876 73.9135 102.687 73.4567C102.498 72.9999 102.448 72.4972 102.545 72.0123C102.641 71.5273 102.879 71.0819 103.229 70.7322C103.578 70.3826 104.024 70.1445 104.509 70.048C104.994 69.9516 105.496 70.0011 105.953 70.1903C106.41 70.3795 106.8 70.7 107.075 71.1111C107.349 71.5222 107.496 72.0055 107.496 72.5C107.495 73.1628 107.232 73.7983 106.763 74.2669C106.294 74.7356 105.659 74.9993 104.996 75ZM107.652 61.4475C108.242 57.4625 111.227 52.3331 115.548 48.0116C120.971 42.5872 126.982 39.8528 130.63 39.9984L112.626 58.0062C112.496 58.0687 112.363 58.1287 112.235 58.1937C110.534 59.0103 108.984 60.1106 107.652 61.4475ZM114.995 75C114.501 75 114.017 74.8534 113.606 74.5787C113.195 74.304 112.875 73.9135 112.686 73.4567C112.496 72.9999 112.447 72.4972 112.543 72.0123C112.64 71.5273 112.878 71.0819 113.227 70.7322C113.577 70.3826 114.022 70.1445 114.507 70.048C114.992 69.9516 115.495 70.0011 115.951 70.1903C116.408 70.3795 116.799 70.7 117.073 71.1111C117.348 71.5222 117.495 72.0055 117.495 72.5C117.494 73.1628 117.23 73.7983 116.762 74.2669C116.293 74.7356 115.658 74.9993 114.995 75ZM85.8558 125H70.3107C75.4765 119.919 83.2247 116.439 91.8059 115.359C89.407 118.297 87.4064 121.538 85.8558 125ZM133.877 113.239C137.933 116.403 141.245 120.418 143.582 125H91.4069C93.744 120.418 97.0566 116.403 101.112 113.239C106.017 109.484 111.683 107.5 117.495 107.5C123.306 107.5 128.972 109.484 133.877 113.239ZM124.973 103.431C123.407 103.036 121.812 102.766 120.204 102.622C120.016 94.8918 118.679 87.2322 116.235 79.8956C117.842 79.6256 119.316 78.8392 120.435 77.6556C123.331 85.9454 124.863 94.6502 124.972 103.431H124.973ZM111.163 65C113.639 62.3222 119.824 60 127.493 60C135.162 60 141.347 62.3222 143.823 65H111.163Z" fill="url(#paint4_linear)"/>
<path d="M62.5018 135H37.5055C36.8425 135 36.2068 135.263 35.738 135.732C35.2692 136.201 35.0059 136.837 35.0059 137.5C35.0059 138.163 35.2692 138.799 35.738 139.268C36.2068 139.737 36.8425 140 37.5055 140H62.5018C63.1647 140 63.8005 139.737 64.2693 139.268C64.738 138.799 65.0014 138.163 65.0014 137.5C65.0014 136.837 64.738 136.201 64.2693 135.732C63.8005 135.263 63.1647 135 62.5018 135Z" fill="url(#paint5_linear)"/>
<path d="M40.006 15C37.5341 15 35.1177 15.7331 33.0624 17.1066C31.0071 18.4801 29.4051 20.4324 28.4592 22.7165C27.5132 25.0005 27.2657 27.5139 27.748 29.9386C28.2302 32.3634 29.4205 34.5907 31.1684 36.3388C32.9163 38.087 35.1433 39.2775 37.5677 39.7598C39.9921 40.2421 42.505 39.9946 44.7888 39.0485C47.0725 38.1024 49.0245 36.5002 50.3978 34.4446C51.7711 32.389 52.5041 29.9723 52.5041 27.5C52.5004 24.1859 51.1824 21.0087 48.8394 18.6653C46.4963 16.3219 43.3195 15.0037 40.006 15ZM40.006 35C38.5228 35 37.073 34.5601 35.8398 33.736C34.6066 32.9119 33.6455 31.7406 33.0779 30.3701C32.5103 28.9997 32.3618 27.4917 32.6512 26.0368C32.9405 24.582 33.6547 23.2456 34.7034 22.1967C35.7522 21.1478 37.0884 20.4335 38.543 20.1441C39.9976 19.8547 41.5054 20.0032 42.8757 20.5709C44.2459 21.1386 45.4171 22.0999 46.241 23.3332C47.065 24.5666 47.5048 26.0166 47.5048 27.5C47.5025 29.4884 46.7117 31.3947 45.3059 32.8007C43.9001 34.2068 41.9941 34.9977 40.006 35Z" fill="url(#paint6_linear)"/>
<path d="M42.5051 7.5V2.5C42.5051 1.83696 42.2418 1.20107 41.773 0.732233C41.3042 0.263392 40.6684 0 40.0055 0C39.3425 0 38.7068 0.263392 38.238 0.732233C37.7692 1.20107 37.5059 1.83696 37.5059 2.5V7.5C37.5059 8.16304 37.7692 8.79893 38.238 9.26777C38.7068 9.73661 39.3425 10 40.0055 10C40.6684 10 41.3042 9.73661 41.773 9.26777C42.2418 8.79893 42.5051 8.16304 42.5051 7.5Z" fill="url(#paint7_linear)"/>
<path d="M67.5024 27.5C67.5024 26.837 67.2391 26.2011 66.7703 25.7322C66.3015 25.2634 65.6657 25 65.0028 25H60.0035C59.3406 25 58.7048 25.2634 58.236 25.7322C57.7673 26.2011 57.5039 26.837 57.5039 27.5C57.5039 28.163 57.7673 28.7989 58.236 29.2678C58.7048 29.7366 59.3406 30 60.0035 30H65.0028C65.6657 30 66.3015 29.7366 66.7703 29.2678C67.2391 28.7989 67.5024 28.163 67.5024 27.5Z" fill="url(#paint8_linear)"/>
<path d="M42.5051 52.5V47.5C42.5051 46.837 42.2418 46.2011 41.773 45.7322C41.3042 45.2634 40.6684 45 40.0055 45C39.3425 45 38.7068 45.2634 38.238 45.7322C37.7692 46.2011 37.5059 46.837 37.5059 47.5V52.5C37.5059 53.163 37.7692 53.7989 38.238 54.2678C38.7068 54.7366 39.3425 55 40.0055 55C40.6684 55 41.3042 54.7366 41.773 54.2678C42.2418 53.7989 42.5051 53.163 42.5051 52.5Z" fill="url(#paint9_linear)"/>
<path d="M12.5098 27.5C12.5098 28.163 12.7731 28.7989 13.2419 29.2678C13.7107 29.7366 14.3465 30 15.0094 30H20.0086C20.6716 30 21.3074 29.7366 21.7761 29.2678C22.2449 28.7989 22.5083 28.163 22.5083 27.5C22.5083 26.837 22.2449 26.2011 21.7761 25.7322C21.3074 25.2634 20.6716 25 20.0086 25H15.0094C14.3465 25 13.7107 25.2634 13.2419 25.7322C12.7731 26.2011 12.5098 26.837 12.5098 27.5Z" fill="url(#paint10_linear)"/>
<path d="M27.6333 11.59L24.0988 8.05466C23.6283 7.59449 22.9953 7.33846 22.3372 7.34214C21.6791 7.34582 21.049 7.60892 20.5837 8.07434C20.1183 8.53975 19.8553 9.16993 19.8516 9.82811C19.8479 10.4863 20.1039 11.1194 20.564 11.59L24.0988 15.125C24.3294 15.3638 24.6052 15.5542 24.9102 15.6852C25.2151 15.8163 25.5431 15.8852 25.875 15.8881C26.2069 15.891 26.5361 15.8277 26.8433 15.702C27.1505 15.5763 27.4296 15.3907 27.6643 15.156C27.899 14.9212 28.0846 14.6421 28.2102 14.3349C28.3359 14.0276 28.3992 13.6984 28.3963 13.3665C28.3934 13.0345 28.3244 12.7065 28.1934 12.4015C28.0624 12.0965 27.872 11.8206 27.6333 11.59Z" fill="url(#paint11_linear)"/>
<path d="M55.9119 15.125L59.4467 11.5894C59.9068 11.1188 60.1628 10.4857 60.1591 9.8275C60.1554 9.16932 59.8924 8.53914 59.427 8.07373C58.9617 7.60831 58.3316 7.34521 57.6735 7.34153C57.0154 7.33785 56.3825 7.59388 55.9119 8.05405L52.3775 11.59C51.9221 12.0615 51.6702 12.693 51.6759 13.3485C51.6816 14.004 51.9445 14.631 52.4079 15.0945C52.8714 15.5581 53.4983 15.821 54.1537 15.8267C54.8091 15.8324 55.4405 15.5804 55.9119 15.125Z" fill="url(#paint12_linear)"/>
<path d="M55.9109 46.9453C56.3814 47.4055 57.0144 47.6615 57.6725 47.6578C58.3305 47.6541 58.9606 47.391 59.426 46.9256C59.8913 46.4602 60.1544 45.83 60.1581 45.1718C60.1617 44.5137 59.9058 43.8806 59.4456 43.41L55.9109 39.875C55.6803 39.6362 55.4045 39.4457 55.0995 39.3147C54.7945 39.1837 54.4665 39.1147 54.1346 39.1118C53.8027 39.109 53.4736 39.1722 53.1664 39.2979C52.8592 39.4236 52.5801 39.6093 52.3454 39.844C52.1107 40.0787 51.9251 40.3579 51.7994 40.6651C51.6737 40.9723 51.6105 41.3015 51.6134 41.6335C51.6163 41.9654 51.6852 42.2935 51.8162 42.5985C51.9472 42.9035 52.1377 43.1794 52.3764 43.41L55.9109 46.9453Z" fill="url(#paint13_linear)"/>
<path d="M20.5606 43.41C20.3242 43.6412 20.1361 43.9169 20.007 44.2214C19.8779 44.5258 19.8105 44.8528 19.8086 45.1834C19.8068 45.5141 19.8705 45.8418 19.9962 46.1477C20.1219 46.4535 20.3069 46.7314 20.5407 46.9652C20.7745 47.199 21.0523 47.3841 21.3581 47.5098C21.6639 47.6355 21.9916 47.6992 22.3222 47.6974C22.6528 47.6955 22.9798 47.6281 23.2841 47.499C23.5885 47.3699 23.8642 47.1817 24.0954 46.9453L27.6299 43.41C27.8686 43.1794 28.059 42.9035 28.19 42.5985C28.321 42.2935 28.39 41.9654 28.3929 41.6335C28.3958 41.3015 28.3325 40.9723 28.2068 40.6651C28.0812 40.3579 27.8955 40.0787 27.6608 39.844C27.4262 39.6093 27.1471 39.4236 26.8399 39.2979C26.5327 39.1722 26.2035 39.109 25.8716 39.1118C25.5397 39.1147 25.2117 39.1837 24.9068 39.3147C24.6018 39.4457 24.326 39.6362 24.0954 39.875L20.5606 43.41Z" fill="url(#paint14_linear)"/>
<defs>
<linearGradient id="paint0_linear" x1="25.0105" y1="137.646" x2="29.9711" y2="162.003" gradientUnits="userSpaceOnUse">
<stop stop-color="#FFC300"/>
<stop offset="1" stop-color="#FF00FF"/>
</linearGradient>
<linearGradient id="paint1_linear" x1="-49.9778" y1="137.646" x2="-45.0172" y2="162.003" gradientUnits="userSpaceOnUse">
<stop stop-color="#FFC300"/>
<stop offset="1" stop-color="#FF00FF"/>
</linearGradient>
<linearGradient id="paint2_linear" x1="32.5083" y1="147.646" x2="40.2292" y2="170.392" gradientUnits="userSpaceOnUse">
<stop stop-color="#FFC300"/>
<stop offset="1" stop-color="#FF00FF"/>
</linearGradient>
<linearGradient id="paint3_linear" x1="-67.4734" y1="147.646" x2="-64.296" y2="172.608" gradientUnits="userSpaceOnUse">
<stop stop-color="#FFC300"/>
<stop offset="1" stop-color="#FF00FF"/>
</linearGradient>
<linearGradient id="paint4_linear" x1="-292.426" y1="91.1472" x2="21.2484" y2="454.624" gradientUnits="userSpaceOnUse">
<stop stop-color="#FFC300"/>
<stop offset="1" stop-color="#FF00FF"/>
</linearGradient>
<linearGradient id="paint5_linear" x1="-24.9815" y1="137.646" x2="-20.7968" y2="162.303" gradientUnits="userSpaceOnUse">
<stop stop-color="#FFC300"/>
<stop offset="1" stop-color="#FF00FF"/>
</linearGradient>
<linearGradient id="paint6_linear" x1="-22.4817" y1="28.2294" x2="40.9252" y2="90.4956" gradientUnits="userSpaceOnUse">
<stop stop-color="#FFC300"/>
<stop offset="1" stop-color="#FF00FF"/>
</linearGradient>
<linearGradient id="paint7_linear" x1="27.508" y1="5.29177" x2="47.5795" y2="15.147" gradientUnits="userSpaceOnUse">
<stop stop-color="#FFC300"/>
<stop offset="1" stop-color="#FF00FF"/>
</linearGradient>
<linearGradient id="paint8_linear" x1="37.5081" y1="27.6459" x2="47.7649" y2="47.7905" gradientUnits="userSpaceOnUse">
<stop stop-color="#FFC300"/>
<stop offset="1" stop-color="#FF00FF"/>
</linearGradient>
<linearGradient id="paint9_linear" x1="27.508" y1="50.2918" x2="47.5795" y2="60.147" gradientUnits="userSpaceOnUse">
<stop stop-color="#FFC300"/>
<stop offset="1" stop-color="#FF00FF"/>
</linearGradient>
<linearGradient id="paint10_linear" x1="-7.48604" y1="27.6459" x2="2.77078" y2="47.7905" gradientUnits="userSpaceOnUse">
<stop stop-color="#FFC300"/>
<stop offset="1" stop-color="#FF00FF"/>
</linearGradient>
<linearGradient id="paint11_linear" x1="2.76297" y1="11.8645" x2="24.4382" y2="33.1498" gradientUnits="userSpaceOnUse">
<stop stop-color="#FFC300"/>
<stop offset="1" stop-color="#FF00FF"/>
</linearGradient>
<linearGradient id="paint12_linear" x1="34.71" y1="11.8317" x2="56.231" y2="32.9639" gradientUnits="userSpaceOnUse">
<stop stop-color="#FFC300"/>
<stop offset="1" stop-color="#FF00FF"/>
</linearGradient>
<linearGradient id="paint13_linear" x1="34.5247" y1="43.6342" x2="56.1999" y2="64.9194" gradientUnits="userSpaceOnUse">
<stop stop-color="#FFC300"/>
<stop offset="1" stop-color="#FF00FF"/>
</linearGradient>
<linearGradient id="paint14_linear" x1="2.64088" y1="43.6551" x2="24.4165" y2="65.0389" gradientUnits="userSpaceOnUse">
<stop stop-color="#FFC300"/>
<stop offset="1" stop-color="#FF00FF"/>
</linearGradient>
</defs>
</svg>
