<svg width="150" height="150" viewBox="0 0 150 150" fill="none" xmlns="http://www.w3.org/2000/svg">
<path d="M90.1203 27.0931H82.561V19.5682C82.561 18.9029 82.2955 18.2649 81.823 17.7945C81.3504 17.3241 80.7095 17.0599 80.0412 17.0599H69.9621C69.2939 17.0599 68.6529 17.3241 68.1804 17.7945C67.7078 18.2649 67.4424 18.9029 67.4424 19.5682V27.0931H59.8831C59.2148 27.0931 58.5739 27.3574 58.1013 27.8278C57.6288 28.2982 57.3633 28.9362 57.3633 29.6014V39.6346C57.3633 40.2999 57.6288 40.9379 58.1013 41.4083C58.5739 41.8787 59.2148 42.1429 59.8831 42.1429H67.4424V49.6678C67.4424 50.3331 67.7078 50.9711 68.1804 51.4415C68.6529 51.9119 69.2939 52.1761 69.9621 52.1761H80.0412C80.7095 52.1761 81.3504 51.9119 81.823 51.4415C82.2955 50.9711 82.561 50.3331 82.561 49.6678V42.1429H90.1203C90.7886 42.1429 91.4295 41.8787 91.9021 41.4083C92.3746 40.9379 92.6401 40.2999 92.6401 39.6346V29.6014C92.6401 28.9362 92.3746 28.2982 91.9021 27.8278C91.4295 27.3574 90.7886 27.0931 90.1203 27.0931ZM87.6005 37.1263H80.0412C79.3729 37.1263 78.732 37.3906 78.2595 37.861C77.7869 38.3314 77.5215 38.9694 77.5215 39.6346V47.1595H72.4819V39.6346C72.4819 38.9694 72.2164 38.3314 71.7439 37.861C71.2713 37.3906 70.6304 37.1263 69.9621 37.1263H62.4028V32.1097H69.9621C70.6304 32.1097 71.2713 31.8454 71.7439 31.375C72.2164 30.9046 72.4819 30.2666 72.4819 29.6014V22.0765H77.5215V29.6014C77.5215 30.2666 77.7869 30.9046 78.2595 31.375C78.732 31.8454 79.3729 32.1097 80.0412 32.1097H87.6005V37.1263Z" fill="url(#paint0_linear)"/>
<path d="M144.875 40.5376C144.926 40.0963 144.951 39.6524 144.951 39.2082C144.938 36.909 144.137 34.683 142.68 32.8993C141.222 31.1155 139.196 29.8811 136.938 29.4007C134.383 28.9166 131.738 29.4166 129.54 30.7997C127.341 32.1827 125.752 34.3455 125.095 36.8504L114.008 68.6055C113.843 68.6704 113.684 68.7458 113.529 68.8313L91.2542 81.8243C87.8457 83.8173 85.0186 86.6612 83.0521 90.0748C81.0856 93.4884 80.0478 97.3537 80.0413 101.289V124.917C79.373 124.917 78.7321 125.181 78.2595 125.652C77.787 126.122 77.5215 126.76 77.5215 127.425V147.492C77.5215 148.157 77.787 148.795 78.2595 149.265C78.7321 149.736 79.373 150 80.0413 150H115.318C115.986 150 116.627 149.736 117.1 149.265C117.572 148.795 117.838 148.157 117.838 147.492V127.425C117.838 126.76 117.572 126.122 117.1 125.652C116.627 125.181 115.986 124.917 115.318 124.917V119.399C115.323 118.339 115.549 117.292 115.983 116.325C116.417 115.358 117.049 114.491 117.838 113.78L134.871 98.7052C136.735 97.0823 138.068 94.9424 138.702 92.5598L149.637 51.85C149.871 51 149.989 50.1227 149.99 49.2414C149.98 47.4713 149.502 45.735 148.604 44.2071C147.706 42.6792 146.42 41.4136 144.875 40.5376ZM129.908 38.3303C130.217 37.0331 131.006 35.8996 132.117 35.1558C133.229 34.412 134.581 34.1125 135.905 34.317C137.034 34.5525 138.048 35.1666 138.777 36.0569C139.506 36.9471 139.907 38.0595 139.911 39.2082V39.2584C137.66 39.2999 135.485 40.0722 133.715 41.4577C131.946 42.8432 130.68 44.766 130.109 46.9338L123.079 68.5303C122.015 68.0277 120.873 67.7055 119.702 67.5771L129.908 38.3303ZM112.798 144.983H82.561V129.934H112.798V144.983ZM144.774 50.5457L133.813 91.2806C133.434 92.6961 132.645 93.9695 131.545 94.9427L114.487 110.018C113.167 111.203 112.11 112.649 111.385 114.265C110.661 115.881 110.284 117.629 110.279 119.399V124.917H85.0808V101.289C85.0933 98.2284 85.9032 95.2237 87.4313 92.5682C88.9595 89.9127 91.1536 87.6973 93.7992 86.1386L116.049 73.1706C116.622 72.8379 117.257 72.6213 117.915 72.5333C118.573 72.4452 119.242 72.4875 119.883 72.6577C120.525 72.8278 121.126 73.1225 121.653 73.5248C122.18 73.927 122.622 74.4289 122.953 75.0017C123.607 76.1607 123.788 77.5262 123.457 78.8143C123.282 79.4504 122.983 80.0458 122.576 80.5666C122.17 81.0874 121.664 81.5233 121.088 81.8494L106.65 90.1519C106.102 90.4989 105.709 91.0435 105.554 91.6719C105.4 92.3003 105.495 92.9638 105.82 93.5239C106.146 94.084 106.676 94.4974 107.3 94.6776C107.924 94.8579 108.594 94.7911 109.17 94.4912L123.608 86.1887C124.762 85.5369 125.774 84.6619 126.583 83.6151C127.392 82.5683 127.983 81.371 128.32 80.0936C129.006 77.5271 128.644 74.7947 127.312 72.4934L127.161 72.2676L134.947 48.3635C135.256 47.0663 136.045 45.9329 137.157 45.189C138.268 44.4452 139.621 44.1457 140.944 44.3502C142.074 44.5857 143.088 45.1999 143.817 46.0901C144.546 46.9803 144.946 48.0927 144.951 49.2414C144.959 49.6826 144.9 50.1225 144.774 50.5457Z" fill="url(#paint1_linear)"/>
<path d="M69.9606 124.917V101.289C69.9541 97.3537 68.9163 93.4884 66.9498 90.0748C64.9833 86.6611 62.1561 83.8173 58.7476 81.8243L36.4728 68.8062C36.3216 68.7309 36.1453 68.6808 35.9941 68.6055L24.9827 37.026C24.3427 34.4845 22.7539 32.2813 20.5398 30.8647C18.3256 29.4482 15.6524 28.9246 13.0641 29.4007C10.8054 29.8811 8.7794 31.1155 7.32205 32.8993C5.86469 34.683 5.06348 36.909 5.05126 39.2082C5.05061 39.6524 5.07585 40.0963 5.12686 40.5376C3.58164 41.4136 2.2954 42.6792 1.39747 44.2071C0.499546 45.735 0.0216063 47.4713 0.0117188 49.2414C0.0166128 50.1208 0.126575 50.9965 0.339289 51.85L11.3003 92.5347C11.9267 94.9273 13.2611 97.0771 15.1304 98.7052L32.1388 113.78C32.9359 114.486 33.5745 115.351 34.013 116.319C34.4516 117.287 34.6801 118.337 34.6838 119.399V124.917C34.0155 124.917 33.3746 125.181 32.902 125.652C32.4295 126.122 32.164 126.76 32.164 127.425V147.492C32.164 148.157 32.4295 148.795 32.902 149.265C33.3746 149.736 34.0155 150 34.6838 150H69.9606C70.6289 150 71.2698 149.736 71.7423 149.265C72.2149 148.795 72.4804 148.157 72.4804 147.492V127.425C72.4804 126.76 72.2149 126.122 71.7423 125.652C71.2698 125.181 70.6289 124.917 69.9606 124.917ZM10.0908 39.2082C10.0939 38.063 10.4905 36.9533 11.2148 36.0636C11.939 35.1738 12.9473 34.5575 14.072 34.317C15.4319 34.1205 16.816 34.443 17.947 35.2199C19.0779 35.9968 19.8719 37.1706 20.1699 38.5059L30.2994 67.5771C29.1284 67.7055 27.9872 68.0277 26.9229 68.5303L19.9431 47.0592C19.3751 44.87 18.1063 42.9246 16.3287 41.5171C14.5511 40.1096 12.3614 39.3167 10.0908 39.2583V39.2082ZM35.4901 110.018L18.4565 94.9427C17.3504 93.9643 16.5611 92.681 16.1887 91.2555L5.20245 50.5457C5.09815 50.1188 5.04736 49.6807 5.05126 49.2414C5.05437 48.0962 5.45099 46.9866 6.17523 46.0968C6.89947 45.207 7.90773 44.5907 9.0325 44.3502C10.3828 44.1485 11.7597 44.4632 12.8863 45.231C14.0129 45.9988 14.8057 47.1628 15.1052 48.4889L22.8409 72.2676L22.6897 72.4934C21.3582 74.7947 20.9958 77.5271 21.6818 80.0935C22.0191 81.371 22.6098 82.5683 23.419 83.6151C24.2283 84.6619 25.2397 85.5369 26.3937 86.1887L40.832 94.4912C41.4079 94.7911 42.0779 94.8579 42.7021 94.6776C43.3262 94.4974 43.8563 94.084 44.1815 93.5239C44.5068 92.9638 44.602 92.3003 44.4474 91.6719C44.2928 91.0435 43.9003 90.4989 43.3518 90.1518L28.9135 81.8494C28.3377 81.5233 27.8321 81.0874 27.4257 80.5666C27.0192 80.0458 26.7199 79.4503 26.5449 78.8143C26.2139 77.5262 26.3944 76.1607 27.0489 75.0017C27.3781 74.4302 27.8172 73.9288 28.3411 73.5262C28.865 73.1236 29.4634 72.8277 30.1022 72.6553C30.7409 72.483 31.4076 72.4376 32.064 72.5217C32.7204 72.6058 33.3537 72.8178 33.9278 73.1455L56.2026 86.1386C58.8483 87.6973 61.0424 89.9127 62.5705 92.5682C64.0987 95.2237 64.9086 98.2284 64.9211 101.289V124.917H39.7233V119.399C39.719 117.627 39.3399 115.876 38.6105 114.259C37.8811 112.643 36.8179 111.198 35.4901 110.018ZM67.4408 144.983H37.2036V129.934H67.4408V144.983Z" fill="url(#paint2_linear)"/>
<path d="M110.647 7.35775C108.308 5.02512 105.529 3.17458 102.471 1.91204C99.4124 0.64951 96.1338 -0.000232917 92.8228 6.26327e-08C89.5118 0.000233042 86.2333 0.650438 83.175 1.9134C80.1167 3.17637 77.3386 5.02729 74.9997 7.36026C72.6611 5.02724 69.8831 3.17629 66.8249 1.91339C63.7667 0.650486 60.4883 0.000425857 57.1774 0.000425857C53.8665 0.000425857 50.588 0.650486 47.5298 1.91339C44.4716 3.17629 41.6937 5.02724 39.355 7.36026C34.6389 12.065 31.9902 18.44 31.9902 25.0864C31.9902 31.7329 34.6389 38.1079 39.355 42.8126L73.2208 76.5242C73.6933 76.9945 74.3341 77.2586 75.0022 77.2586C75.6704 77.2586 76.3112 76.9945 76.7837 76.5242L110.649 42.8126C115.365 38.1071 118.014 31.7315 118.013 25.0847C118.013 18.4378 115.364 12.0626 110.647 7.35775ZM74.9997 71.2041L42.9155 39.2659C40.0987 36.4581 38.1814 32.882 37.406 28.9897C36.6306 25.0975 37.0319 21.0637 38.5592 17.3984C40.0864 13.7331 42.671 10.6008 45.9863 8.39752C49.3016 6.19424 53.1987 5.01887 57.1849 5.02001C59.8329 5.01096 62.4562 5.52684 64.9018 6.53758C67.3474 7.54831 69.5663 9.03366 71.4292 10.907L73.2182 12.6879C73.6908 13.1581 74.3316 13.4223 74.9997 13.4223C75.6679 13.4223 76.3087 13.1581 76.7812 12.6879L78.5753 10.902C80.446 9.03644 82.6679 7.55642 85.1138 6.5466C87.5597 5.53679 90.1817 5.01701 92.8296 5.01701C95.4776 5.01701 98.0995 5.53679 100.545 6.5466C102.991 7.55642 105.213 9.03644 107.084 10.902C110.858 14.6644 112.978 19.7642 112.978 25.0814C112.978 30.3986 110.858 35.4985 107.084 39.2609L74.9997 71.2041Z" fill="url(#paint3_linear)"/>
<defs>
<linearGradient id="paint0_linear" x1="-13.1861" y1="35.6426" x2="75.8851" y2="123.524" gradientUnits="userSpaceOnUse">
<stop stop-color="#FFC300"/>
<stop offset="1" stop-color="#FF00FF"/>
</linearGradient>
<linearGradient id="paint1_linear" x1="-67.407" y1="93.1343" x2="200.616" y2="251.08" gradientUnits="userSpaceOnUse">
<stop stop-color="#FFC300"/>
<stop offset="1" stop-color="#FF00FF"/>
</linearGradient>
<linearGradient id="paint2_linear" x1="-144.917" y1="93.1383" x2="123.096" y2="251.09" gradientUnits="userSpaceOnUse">
<stop stop-color="#FFC300"/>
<stop offset="1" stop-color="#FF00FF"/>
</linearGradient>
<linearGradient id="paint3_linear" x1="-140.045" y1="40.8835" x2="55.1547" y2="254.349" gradientUnits="userSpaceOnUse">
<stop stop-color="#FFC300"/>
<stop offset="1" stop-color="#FF00FF"/>
</linearGradient>
</defs>
</svg>
