<svg width="748" height="481" viewBox="0 0 748 481" fill="none" xmlns="http://www.w3.org/2000/svg">
<path d="M60.4 29L694 29C701.953 29 708.4 35.4471 708.4 43.4V465.8C708.4 473.753 701.953 480.2 694 480.2H60.4C52.4471 480.2 46 473.753 46 465.8V43.4C46 35.4471 52.4471 29 60.4 29Z" fill="url(#paint0_linear)"/>
<mask id="mask0" mask-type="alpha" maskUnits="userSpaceOnUse" x="46" y="29" width="663" height="452">
<path d="M60.4 29L694 29C701.953 29 708.4 35.4471 708.4 43.4V465.8C708.4 473.753 701.953 480.2 694 480.2H60.4C52.4471 480.2 46 473.753 46 465.8V43.4C46 35.4471 52.4471 29 60.4 29Z" fill="white"/>
</mask>
<g mask="url(#mask0)">
<path d="M46 66.2H156.4V480.2H60.4C52.4471 480.2 46 473.753 46 465.8V66.2Z" fill="url(#paint1_linear)"/>
<path fill-rule="evenodd" clip-rule="evenodd" d="M80.7998 117.8C80.7998 129.067 89.9332 138.2 101.2 138.2C112.466 138.2 121.6 129.067 121.6 117.8C121.6 106.533 112.466 97.3999 101.2 97.3999C89.9332 97.3999 80.7998 106.533 80.7998 117.8ZM116.8 117.8C116.8 126.416 109.815 133.4 101.2 133.4C92.5842 133.4 85.5998 126.416 85.5998 117.8C85.5998 109.184 92.5842 102.2 101.2 102.2C109.815 102.2 116.8 109.184 116.8 117.8Z" fill="white"/>
<path opacity="0.449823" d="M60.4 29H694C701.953 29 708.4 35.4471 708.4 43.4V66.2H46V43.4C46 35.4471 52.4471 29 60.4 29Z" fill="white"/>
<circle cx="68.8" cy="47.6" r="4.8" fill="#F3757C"/>
<circle cx="86.8" cy="47.6" r="4.8" fill="#C1A4FF"/>
<circle cx="104.8" cy="47.6" r="4.8" fill="#85CFF3"/>
<path d="M90.5577 165.892C89.2322 165.892 88.1577 164.818 88.1577 163.492C88.1577 162.167 89.2322 161.092 90.5577 161.092H111.843C113.168 161.092 114.243 162.167 114.243 163.492C114.243 164.818 113.168 165.892 111.843 165.892H90.5577Z" fill="white"/>
<path d="M192.16 105.892C190.834 105.892 189.76 104.818 189.76 103.492C189.76 102.167 190.834 101.092 192.16 101.092H213.445C214.77 101.092 215.845 102.167 215.845 103.492C215.845 104.818 214.77 105.892 213.445 105.892H192.16Z" fill="white"/>
<path d="M78.5577 177.892C77.2322 177.892 76.1577 176.818 76.1577 175.492C76.1577 174.167 77.2322 173.092 78.5577 173.092H123.843C125.168 173.092 126.243 174.167 126.243 175.492C126.243 176.818 125.168 177.892 123.843 177.892H78.5577Z" fill="#EAF2FF"/>
<path d="M192.16 117.892C190.834 117.892 189.76 116.818 189.76 115.492C189.76 114.167 190.834 113.092 192.16 113.092H237.445C238.77 113.092 239.845 114.167 239.845 115.492C239.845 116.818 238.77 117.892 237.445 117.892H192.16Z" fill="#F2F4FF"/>
</g>
<g filter="url(#filter0_d)">
<path d="M148.6 92.3169H309.4C314.702 92.3169 319 96.615 319 101.917V243.517C319 248.819 314.702 253.117 309.4 253.117H148.6C143.298 253.117 139 248.819 139 243.517V101.917C139 96.615 143.298 92.3169 148.6 92.3169Z" fill="url(#paint2_linear)"/>
<mask id="mask1" mask-type="alpha" maskUnits="userSpaceOnUse" x="139" y="92" width="180" height="162">
<path d="M148.6 92.3169H309.4C314.702 92.3169 319 96.615 319 101.917V243.517C319 248.819 314.702 253.117 309.4 253.117H148.6C143.298 253.117 139 248.819 139 243.517V101.917C139 96.615 143.298 92.3169 148.6 92.3169Z" fill="white"/>
</mask>
<g mask="url(#mask1)">
<path opacity="0.2" d="M257.355 92.3169H299.355V199.683H257.355V92.3169Z" fill="white"/>
<path d="M139 200.354H319V243.517C319 248.819 314.702 253.117 309.4 253.117H148.6C143.298 253.117 139 248.819 139 243.517V200.354Z" fill="white"/>
<path d="M160.6 221C159.275 221 158.2 219.925 158.2 218.6C158.2 217.274 159.275 216.2 160.6 216.2H181.885C183.211 216.2 184.285 217.274 184.285 218.6C184.285 219.925 183.211 221 181.885 221H160.6Z" fill="#EF8BDB"/>
<path d="M160.6 233C159.275 233 158.2 231.925 158.2 230.6C158.2 229.274 159.275 228.2 160.6 228.2H205.885C207.211 228.2 208.285 229.274 208.285 230.6C208.285 231.925 207.211 233 205.885 233H160.6Z" fill="#EAE8E9"/>
<g opacity="0.4" filter="url(#filter1_f)">
<path d="M152.379 179.147C151.716 179.147 151.179 178.61 151.179 177.947C151.179 177.284 151.716 176.747 152.379 176.747C155.195 176.747 158.097 175.618 161.347 173.362C163.347 171.974 165.45 170.188 167.998 167.768C169.005 166.811 170.042 165.796 171.449 164.397C171.709 164.138 171.976 163.872 172.329 163.52C172.771 163.079 173.018 162.833 173.216 162.635C173.944 161.909 174.482 161.375 175.015 160.849C186.72 149.297 194.634 144.259 204.959 144.259C214.683 144.259 220.443 146.216 230.675 151.705C231.035 151.898 231.035 151.898 231.395 152.091C241.845 157.7 247.591 159.639 257.675 159.639C267.771 159.639 273.831 156.125 281.004 148.155C281.586 147.509 284.188 144.54 284.895 143.76C289.876 138.273 293.659 135.876 299.076 135.876C299.739 135.876 300.276 136.414 300.276 137.076C300.276 137.739 299.739 138.276 299.076 138.276C294.498 138.276 291.242 140.34 286.672 145.374C285.983 146.134 283.385 149.097 282.788 149.76C275.203 158.189 268.563 162.039 257.675 162.039C247.114 162.039 241.028 159.985 230.26 154.206C229.9 154.013 229.9 154.013 229.541 153.82C219.627 148.501 214.203 146.659 204.959 146.659C195.466 146.659 187.982 151.424 176.701 162.557C176.171 163.08 175.636 163.611 174.911 164.334C174.713 164.532 174.467 164.777 174.024 165.219C173.67 165.572 173.403 165.839 173.142 166.098C171.723 167.51 170.674 168.536 169.65 169.509C167.021 172.005 164.833 173.864 162.715 175.334C159.098 177.845 155.751 179.147 152.379 179.147Z" fill="#1E6A79"/>
</g>
<path d="M152.379 179.147C151.716 179.147 151.179 178.61 151.179 177.947C151.179 177.284 151.716 176.747 152.379 176.747C155.065 176.747 157.875 175.344 161.041 172.522C163.003 170.772 165.068 168.52 167.569 165.471C168.558 164.265 169.575 162.986 170.955 161.224C171.209 160.899 171.471 160.564 171.817 160.121C172.251 159.565 172.492 159.256 172.687 159.007C173.4 158.094 173.926 157.422 174.449 156.759C185.938 142.2 193.694 135.859 203.913 135.859C213.57 135.859 219.265 138.911 229.337 147.435C229.69 147.734 229.69 147.734 230.043 148.033C240.242 156.667 245.822 159.639 255.581 159.639C265.385 159.639 271.308 155.25 278.339 145.267C278.91 144.455 281.46 140.738 282.152 139.763C287.039 132.883 290.753 129.876 296.159 129.876C296.821 129.876 297.359 130.414 297.359 131.076C297.359 131.739 296.821 132.276 296.159 132.276C291.767 132.276 288.582 134.856 284.109 141.153C283.431 142.107 280.885 145.82 280.301 146.649C272.867 157.205 266.343 162.039 255.581 162.039C245.104 162.039 239.089 158.836 228.492 149.865C228.139 149.566 228.139 149.566 227.786 149.267C218.113 141.081 212.848 138.259 203.913 138.259C194.708 138.259 187.373 144.256 176.333 158.246C175.813 158.905 175.289 159.574 174.578 160.484C174.384 160.733 174.143 161.042 173.709 161.597C173.362 162.042 173.1 162.377 172.844 162.703C171.454 164.479 170.427 165.77 169.425 166.993C166.852 170.13 164.71 172.466 162.638 174.313C159.073 177.491 155.757 179.147 152.379 179.147Z" fill="white"/>
<path fill-rule="evenodd" clip-rule="evenodd" d="M294.958 131.197C294.958 133.625 296.927 135.593 299.355 135.593C301.783 135.593 303.752 133.625 303.752 131.197C303.752 128.769 301.783 126.8 299.355 126.8C296.927 126.8 294.958 128.769 294.958 131.197ZM301.352 131.197C301.352 132.3 300.458 133.193 299.355 133.193C298.252 133.193 297.358 132.3 297.358 131.197C297.358 130.094 298.252 129.2 299.355 129.2C300.458 129.2 301.352 130.094 301.352 131.197Z" fill="white"/>
<circle cx="257.355" cy="161.197" r="3.19672" fill="white"/>
</g>
</g>
<g filter="url(#filter2_d)">
<path d="M255 290H389C393.418 290 397 293.582 397 298V338C397 342.418 393.418 346 389 346H255C250.582 346 247 342.418 247 338V298C247 293.582 250.582 290 255 290Z" fill="url(#paint3_linear)"/>
<path d="M307 314.5C305.895 314.5 305 313.605 305 312.5C305 311.395 305.895 310.5 307 310.5H324.737C325.842 310.5 326.737 311.395 326.737 312.5C326.737 313.605 325.842 314.5 324.737 314.5H307Z" fill="white"/>
<path opacity="0.3" d="M307 324.5C305.895 324.5 305 323.605 305 322.5C305 321.395 305.895 320.5 307 320.5H344.737C345.842 320.5 346.737 321.395 346.737 322.5C346.737 323.605 345.842 324.5 344.737 324.5H307Z" fill="white"/>
<circle opacity="0.2" cx="278" cy="318" r="13" fill="white"/>
<path fill-rule="evenodd" clip-rule="evenodd" d="M274.15 316.272C274.15 318.362 275.88 320.044 278 320.044C280.12 320.044 281.849 318.362 281.849 316.272C281.849 314.183 280.12 312.5 278 312.5C275.88 312.5 274.15 314.183 274.15 316.272ZM279.849 316.272C279.849 317.245 279.027 318.044 278 318.044C276.972 318.044 276.15 317.245 276.15 316.272C276.15 315.3 276.972 314.5 278 314.5C279.027 314.5 279.849 315.3 279.849 316.272Z" fill="white"/>
<path opacity="0.3" d="M281.849 321.971C281.849 322.523 281.402 322.971 280.849 322.971C280.297 322.971 279.849 322.523 279.849 321.971C279.849 320.999 279.027 320.199 278 320.199C276.972 320.199 276.15 320.999 276.15 321.971C276.15 322.523 275.703 322.971 275.15 322.971C274.598 322.971 274.15 322.523 274.15 321.971C274.15 319.882 275.88 318.199 278 318.199C280.12 318.199 281.849 319.882 281.849 321.971Z" fill="white"/>
</g>
<circle cx="371" cy="396" r="16" fill="url(#paint4_linear)"/>
<path opacity="0.3" fill-rule="evenodd" clip-rule="evenodd" d="M358.156 396C358.156 403.094 363.906 408.844 371 408.844C378.094 408.844 383.845 403.094 383.845 396C383.845 388.906 378.094 383.156 371 383.156C363.906 383.156 358.156 388.906 358.156 396ZM381.845 396C381.845 401.989 376.989 406.844 371 406.844C365.011 406.844 360.156 401.989 360.156 396C360.156 390.011 365.011 385.156 371 385.156C376.989 385.156 381.845 390.011 381.845 396Z" fill="white"/>
<path fill-rule="evenodd" clip-rule="evenodd" d="M374.581 397.917C374.581 398.619 374.341 399.211 373.86 399.692C373.379 400.173 372.731 400.483 371.916 400.621V401.362C371.916 401.596 371.845 401.785 371.702 401.928C371.559 402.071 371.37 402.142 371.136 402.142C370.911 402.142 370.725 402.071 370.577 401.928C370.43 401.785 370.356 401.596 370.356 401.362V400.66C369.88 400.617 369.418 400.517 368.972 400.361C368.526 400.205 368.133 400.006 367.795 399.763C367.657 399.677 367.559 399.579 367.503 399.471C367.447 399.363 367.418 399.226 367.418 399.061C367.418 398.845 367.486 398.654 367.62 398.489C367.754 398.325 367.908 398.242 368.081 398.242C368.246 398.242 368.45 398.312 368.692 398.45C369.091 398.684 369.47 398.856 369.83 398.964C370.19 399.072 370.564 399.126 370.954 399.126C371.474 399.126 371.873 399.029 372.15 398.834C372.428 398.639 372.566 398.364 372.566 398.008C372.566 397.792 372.486 397.614 372.326 397.475C372.166 397.337 371.968 397.228 371.734 397.15C371.5 397.072 371.162 396.973 370.72 396.851C370.079 396.687 369.55 396.522 369.134 396.357C368.718 396.193 368.361 395.933 368.062 395.577C367.763 395.222 367.613 394.745 367.613 394.147C367.613 393.445 367.863 392.843 368.361 392.34C368.859 391.838 369.511 391.517 370.317 391.378V390.637C370.317 390.403 370.391 390.215 370.538 390.072C370.686 389.929 370.872 389.857 371.097 389.857C371.331 389.857 371.52 389.929 371.663 390.072C371.806 390.215 371.877 390.403 371.877 390.637V391.352C372.657 391.456 373.39 391.751 374.074 392.236C374.204 392.323 374.298 392.423 374.354 392.535C374.41 392.648 374.438 392.782 374.438 392.938C374.438 393.155 374.371 393.346 374.237 393.51C374.103 393.675 373.949 393.757 373.775 393.757C373.68 393.757 373.591 393.744 373.509 393.718C373.427 393.692 373.312 393.636 373.164 393.549C372.809 393.324 372.491 393.155 372.209 393.042C371.927 392.93 371.583 392.873 371.175 392.873C370.707 392.873 370.333 392.977 370.051 393.185C369.769 393.393 369.628 393.671 369.628 394.017C369.628 394.26 369.711 394.457 369.875 394.609C370.04 394.761 370.248 394.88 370.499 394.966C370.751 395.053 371.102 395.153 371.552 395.265C372.185 395.421 372.703 395.58 373.106 395.74C373.509 395.9 373.856 396.156 374.146 396.507C374.436 396.858 374.581 397.328 374.581 397.917Z" fill="white"/>
<circle cx="431" cy="133" r="16" fill="url(#paint5_linear)"/>
<path d="M435.389 129.755C435.779 129.364 436.413 129.364 436.803 129.755C437.194 130.145 437.194 130.778 436.803 131.169L431.146 136.826C430.756 137.216 430.123 137.216 429.732 136.826L426.197 133.29C425.806 132.9 425.806 132.266 426.197 131.876C426.587 131.485 427.22 131.485 427.611 131.876L430.439 134.704L435.389 129.755Z" fill="white"/>
<path d="M195 334.059C195 325.19 202.19 318 211.059 318C219.928 318 227.118 325.19 227.118 334.059C227.118 339.578 224.932 343.895 220.561 347.011C219.508 347.761 218.882 348.975 218.882 350.268L218.882 353.412H203.235V350.268C203.235 348.975 202.61 347.761 201.557 347.011C197.186 343.895 195 339.578 195 334.059Z" fill="url(#paint6_linear)"/>
<path opacity="0.3" fill-rule="evenodd" clip-rule="evenodd" d="M202.647 334.818C202.647 339.463 206.413 343.229 211.059 343.229C215.704 343.229 219.471 339.463 219.471 334.818C219.471 330.172 215.704 326.406 211.059 326.406C206.413 326.406 202.647 330.172 202.647 334.818ZM217.471 334.818C217.471 338.359 214.6 341.229 211.059 341.229C207.518 341.229 204.647 338.359 204.647 334.818C204.647 331.276 207.518 328.406 211.059 328.406C214.6 328.406 217.471 331.276 217.471 334.818Z" fill="white"/>
<path d="M205.706 354.788H216.412C217.776 354.788 218.882 355.894 218.882 357.259C218.882 358.623 217.776 359.729 216.412 359.729H205.706C204.341 359.729 203.235 358.623 203.235 357.259C203.235 355.894 204.341 354.788 205.706 354.788Z" fill="url(#paint7_linear)"/>
<path d="M208.682 335.051C208.494 335.239 208.24 335.344 207.975 335.344H200.801C200.249 335.344 199.801 334.897 199.801 334.344C199.801 333.792 200.249 333.344 200.801 333.344H207.561L209.667 331.237C210.201 330.704 211.112 330.931 211.331 331.654L212.402 335.176L213.054 333.892C213.225 333.556 213.569 333.344 213.946 333.344H222.52C223.072 333.344 223.52 333.792 223.52 334.344C223.52 334.897 223.072 335.344 222.52 335.344H214.56L213.06 338.298C212.653 339.101 211.474 338.998 211.212 338.136L209.903 333.831L208.682 335.051Z" fill="white"/>
<path d="M389.704 3.13721L407.213 3.13721C408.572 3.13721 409.829 3.85498 410.52 5.02475L413.959 10.8497C414.65 12.0194 415.908 12.7372 417.266 12.7372H452.104C453.694 12.7372 454.984 14.0266 454.984 15.6172V54.0172C454.984 55.6078 453.694 56.8972 452.104 56.8972H389.704C388.113 56.8972 386.824 55.6078 386.824 54.0172V6.01721C386.824 4.42663 388.113 3.13721 389.704 3.13721Z" fill="url(#paint8_linear)"/>
<path d="M412.5 0.806885H456.447C458.038 0.806885 459.327 2.0963 459.327 3.68688C459.327 3.94446 459.292 4.20088 459.224 4.44927L447.365 47.6493C447.022 48.9 445.885 49.7669 444.588 49.7669H400.641C399.051 49.7669 397.761 48.4775 397.761 46.8869C397.761 46.6293 397.796 46.3729 397.864 46.1245L409.723 2.9245C410.066 1.6738 411.203 0.806885 412.5 0.806885Z" fill="url(#paint9_linear)"/>
<path d="M397.835 19.2L461.968 19.2C463.559 19.2 464.848 20.4894 464.848 22.08C464.848 22.3212 464.818 22.5616 464.758 22.7953L456.635 54.4753C456.308 55.7491 455.16 56.6399 453.845 56.6399H389.712C388.121 56.6399 386.832 55.3505 386.832 53.7599C386.832 53.5187 386.862 53.2783 386.922 53.0446L395.045 21.3646C395.371 20.0908 396.52 19.2 397.835 19.2Z" fill="url(#paint10_linear)"/>
<path fill-rule="evenodd" clip-rule="evenodd" d="M486.428 160.206C486.283 159.029 486.173 158.13 486.181 157.649C481.233 159.435 467.317 160.04 463.633 157.649C463.506 175.593 465.042 185.005 469.715 185.005C471.141 185.005 473.484 184.747 475.974 184.013L474.089 189.933C474.089 189.933 478.698 196.086 483.503 196.591C488.309 197.096 492.438 192.44 492.438 192.44L491.241 176.228L485.79 176.282C487.795 171.329 486.916 164.181 486.428 160.206Z" fill="url(#paint11_linear)"/>
<path d="M471.445 168.09C470.596 168.09 469.806 168.351 469.146 168.8C468.684 166.845 467.877 163.044 466.644 162.222C461.286 158.652 458.08 153.055 461.88 149.399C465.679 145.744 480.628 148.476 484.403 148.145C490.417 147.618 493.425 150.086 493.427 155.55C494.848 154.868 496.782 155.185 497.253 155.55C499.922 157.615 499.78 166.762 494.848 178.323C493.594 181.261 490.877 182.727 486.874 182.727C483.076 182.727 480.049 183.397 478.356 180.43C477.152 178.32 475.689 176.862 474.258 175.609C475.101 174.819 475.63 173.678 475.63 172.41C475.63 170.024 473.756 168.09 471.445 168.09Z" fill="url(#paint12_linear)"/>
<path d="M453.799 463.258C453.799 463.258 451.842 471.222 439.975 471.827C428.107 472.431 429.859 480.395 429.859 480.395C429.859 480.395 462.993 480.395 469.534 480.395C476.075 480.395 474.49 475.624 474.49 475.624L471.219 463.258H453.799Z" fill="url(#paint13_linear)"/>
<mask id="mask2" mask-type="alpha" maskUnits="userSpaceOnUse" x="429" y="463" width="46" height="18">
<path d="M453.799 463.258C453.799 463.258 451.842 471.222 439.975 471.827C428.107 472.431 429.859 480.395 429.859 480.395C429.859 480.395 462.993 480.395 469.534 480.395C476.075 480.395 474.49 475.624 474.49 475.624L471.219 463.258H453.799Z" fill="white"/>
</mask>
<g mask="url(#mask2)">
<rect opacity="0.2" x="429.633" y="474.32" width="45.1657" height="6.09813" fill="#373A5B"/>
</g>
<path d="M505.478 463.258C505.478 463.258 508.122 468.029 513.157 471.827C518.192 475.624 516.278 480.395 513.519 480.395C510.761 480.395 491.761 480.395 485.22 480.395C478.679 480.395 480.264 475.624 480.264 475.624L488.058 463.258H505.478Z" fill="url(#paint14_linear)"/>
<mask id="mask3" mask-type="alpha" maskUnits="userSpaceOnUse" x="480" y="463" width="37" height="18">
<path d="M505.478 463.258C505.478 463.258 508.122 468.029 513.157 471.827C518.192 475.624 516.278 480.395 513.519 480.395C510.761 480.395 491.761 480.395 485.22 480.395C478.679 480.395 480.264 475.624 480.264 475.624L488.058 463.258H505.478Z" fill="white"/>
</mask>
<g mask="url(#mask3)">
<rect opacity="0.2" x="479.955" y="474.32" width="36.334" height="6.09813" fill="#373A5B"/>
</g>
<path d="M406.878 198.809C409.23 200.401 410.703 203.012 411.297 206.643C410.71 210.422 409.71 212.843 408.299 213.906C406.888 214.968 405.607 215.337 404.456 215.012C401.565 211.097 398.587 208.307 395.524 206.643C390.928 204.146 391.431 203.037 390.748 200.729C390.489 199.855 387.959 195.713 388.005 194.889C388.081 193.535 390.523 194.05 391.691 196.42C392.944 198.962 396.447 200.215 402.2 200.181C400.458 197.673 400.011 195.909 400.86 194.889C402.133 193.357 403.35 196.42 406.878 198.809Z" fill="url(#paint15_linear)"/>
<path d="M500.14 282.494C499.603 283.395 496.763 286.358 496.167 287.011C495.571 287.664 499.076 287.469 498.169 288.922C496.808 291.1 500.922 290.049 500.448 291.46C499.795 293.403 502.934 291.082 504.666 289.712C506.398 288.343 508.354 291.87 512.523 289.953C513.727 289.4 516.446 286.994 519.733 283.404C516.297 278.016 510.382 275.798 510.382 275.798L507.244 276.268L507.424 278.087C507.552 279.031 507.203 280.259 506.059 280.259C504.915 280.259 499.849 280.236 498.669 280.683C497.488 281.131 493.536 283.739 493.536 283.739C493.781 284.751 496.167 284.594 497.488 283.404C498.224 282.741 500.215 282.367 500.14 282.494Z" fill="url(#paint16_linear)"/>
<path d="M508.142 285.735C514.808 331.894 505.021 350.975 508.142 391.603C508.861 400.967 508.142 436.563 507.248 454.468C507.056 458.336 509.649 463.155 505.401 464.067C501.153 464.98 488.581 464.613 485.82 464.613C483.059 464.613 484.547 459.825 484.547 456.088C484.547 427.867 480.265 426.115 481.182 411.295C482.343 392.551 481.72 366.544 474.799 333.275C467.891 350.509 459.914 367.194 455.383 383.33C451.608 396.773 463.565 412.485 467.533 438.785C468.092 442.495 476.013 462.843 471.759 463.492C467.506 464.141 456.635 464.141 453.707 464.038C450.778 463.936 447.727 454.055 444.143 442.576C440.56 431.097 422.907 398.705 422.907 383.33C422.907 373.08 431.224 340.549 447.858 285.735H508.142Z" fill="url(#paint17_linear)"/>
<mask id="mask4" mask-type="alpha" maskUnits="userSpaceOnUse" x="422" y="285" width="89" height="180">
<path d="M508.142 285.735C514.808 331.894 505.021 350.975 508.142 391.603C508.861 400.967 508.142 436.563 507.248 454.468C507.056 458.336 509.649 463.155 505.401 464.067C501.153 464.98 488.581 464.613 485.82 464.613C483.059 464.613 484.547 459.825 484.547 456.088C484.547 427.867 480.265 426.115 481.182 411.295C482.343 392.551 481.72 366.544 474.799 333.275C467.891 350.509 459.914 367.194 455.383 383.33C451.608 396.773 463.565 412.485 467.533 438.785C468.092 442.495 476.013 462.843 471.759 463.492C467.506 464.141 456.635 464.141 453.707 464.038C450.778 463.936 447.727 454.055 444.143 442.576C440.56 431.097 422.907 398.705 422.907 383.33C422.907 373.08 431.224 340.549 447.858 285.735H508.142Z" fill="white"/>
</mask>
<g mask="url(#mask4)">
<path opacity="0.3" d="M507.523 291.276C507.523 291.276 502.904 298.486 483.435 298.486C463.967 298.486 474.444 313.713 454.557 318.737C434.669 323.762 445.378 345.427 433.287 345.427C421.196 345.427 430.236 285.735 430.236 285.735L507.523 291.276Z" fill="#151731"/>
<path opacity="0.3" d="M474.799 333.275C474.799 333.275 483.862 319.246 486.216 307.914C486.216 307.914 487.997 323.662 482.264 330.805C476.532 337.948 490.344 348.482 483.875 361.009C477.406 373.537 476.6 381.672 476.6 381.672L474.799 333.275Z" fill="#151731"/>
</g>
<path d="M463.625 189.515C471.894 187.977 488.278 186.228 506.099 189.515C511.754 190.558 516.834 193.863 519.974 197.431C537.696 215.816 544.92 230.813 549.413 236.325C552.407 240 552.289 243.959 549.057 248.202C540.569 260.521 534.623 269.917 524.03 280.555C523.429 281.159 522.456 283.579 520.783 284.441C516.565 284.441 512.889 281.217 509.753 274.768C519.941 258.671 526.558 248.699 529.605 244.852C522.156 237.242 515.833 231.529 510.638 227.711C508.093 247.569 506.808 260.518 506.782 266.558C506.743 275.455 508.424 283.379 508.393 284.441C508.296 287.659 512.548 288.514 502.046 292.88C491.545 297.246 463.391 294.006 453.6 292.88C443.808 291.754 442.803 288.66 445.472 282.717C448.14 276.774 449.726 263.207 450.231 242.014L433.973 251.629C427.926 253.518 423.375 252.376 420.32 248.202C417.264 244.027 410.374 231.915 399.651 211.864C399.651 207.046 403.72 204.872 411.859 205.343L430.28 228.738L450.231 198.382C453.314 192.985 458.256 190.514 463.625 189.515Z" fill="url(#paint18_linear)"/>
<mask id="mask5" mask-type="alpha" maskUnits="userSpaceOnUse" x="399" y="187" width="153" height="109">
<path d="M463.625 189.515C471.894 187.977 488.278 186.228 506.099 189.515C511.754 190.558 516.834 193.863 519.974 197.431C537.696 215.816 544.92 230.813 549.413 236.325C552.407 240 552.289 243.959 549.057 248.202C540.569 260.521 534.623 269.917 524.03 280.555C523.429 281.159 522.456 283.579 520.783 284.441C516.565 284.441 512.889 281.217 509.753 274.768C519.941 258.671 526.558 248.699 529.605 244.852C522.156 237.242 515.833 231.529 510.638 227.711C508.093 247.569 506.808 260.518 506.782 266.558C506.743 275.455 508.424 283.379 508.393 284.441C508.296 287.659 512.548 288.514 502.046 292.88C491.545 297.246 463.391 294.006 453.6 292.88C443.808 291.754 442.803 288.66 445.472 282.717C448.14 276.774 449.726 263.207 450.231 242.014L433.973 251.629C427.926 253.518 423.375 252.376 420.32 248.202C417.264 244.027 410.374 231.915 399.651 211.864C399.651 207.046 403.72 204.872 411.859 205.343L430.28 228.738L450.231 198.382C453.314 192.985 458.256 190.514 463.625 189.515Z" fill="white"/>
</mask>
<g mask="url(#mask5)">
<path opacity="0.3" d="M457.588 186.599C457.588 186.599 452.935 192.44 469.124 192.44C485.313 192.44 497.338 184.88 497.338 184.88L457.588 186.599Z" fill="#373A5B"/>
<path opacity="0.3" d="M449.862 242.142L466.588 226.575C466.588 226.575 467.885 230.497 466.588 233.117C464.262 237.815 458.339 239.768 460.022 247.495C464.235 266.83 451.516 255.611 451.516 272.58C451.516 289.549 439.605 283.159 439.605 283.159L449.862 242.142Z" fill="#373A5B"/>
<path opacity="0.3" d="M510.521 228.129L513.052 209.984C513.052 209.984 514.972 228.129 522.334 230.061C529.696 231.992 526.909 241.276 529.54 244.808C524.066 245.355 513.052 246.738 513.052 246.738L510.521 228.129Z" fill="#373A5B"/>
</g>
<path d="M6.52477 113.029H34.3142C35.2222 113.029 36.0971 113.369 36.766 113.983L54.3015 130.078C55.0498 130.765 55.4757 131.734 55.4757 132.749V173.462C55.4757 176.8 52.77 179.505 49.4324 179.505H6.52477C3.18713 179.505 0.481445 176.8 0.481445 173.462V119.072C0.481445 115.734 3.18713 113.029 6.52477 113.029Z" fill="url(#paint19_linear)"/>
<mask id="mask6" mask-type="alpha" maskUnits="userSpaceOnUse" x="0" y="113" width="56" height="67">
<path d="M6.52477 113.029H34.3142C35.2222 113.029 36.0971 113.369 36.766 113.983L54.3015 130.078C55.0498 130.765 55.4757 131.734 55.4757 132.749V173.462C55.4757 176.8 52.77 179.505 49.4324 179.505H6.52477C3.18713 179.505 0.481445 176.8 0.481445 173.462V119.072C0.481445 115.734 3.18713 113.029 6.52477 113.029Z" fill="white"/>
</mask>
<g mask="url(#mask6)">
<path d="M9.99717 124.482C9.50011 124.482 9.09717 124.079 9.09717 123.582C9.09717 123.085 9.50011 122.682 9.99717 122.682H18.82C19.317 122.682 19.72 123.085 19.72 123.582C19.72 124.079 19.317 124.482 18.82 124.482H9.99717Z" fill="white"/>
<path d="M9.99717 129.83C9.50011 129.83 9.09717 129.427 9.09717 128.93C9.09717 128.432 9.50011 128.03 9.99717 128.03H24.733C25.2301 128.03 25.633 128.432 25.633 128.93C25.633 129.427 25.2301 129.83 24.733 129.83H9.99717Z" fill="#BF9EF5"/>
<path opacity="0.1" d="M10.7437 143.8H45.1046C46.2092 143.8 47.1046 144.695 47.1046 145.8V165.8C47.1046 166.904 46.2092 167.8 45.1046 167.8H10.7437C9.63908 167.8 8.74365 166.904 8.74365 165.8V145.8C8.74365 144.695 9.63908 143.8 10.7437 143.8Z" fill="#373A5B"/>
<path opacity="0.54" d="M10.7437 141.8H45.1046C46.2092 141.8 47.1046 142.695 47.1046 143.8V163.8C47.1046 164.904 46.2092 165.8 45.1046 165.8H10.7437C9.63908 165.8 8.74365 164.904 8.74365 163.8V143.8C8.74365 142.695 9.63908 141.8 10.7437 141.8Z" fill="white"/>
<path d="M10.7437 141.8H33.5372V165.8H10.7437C9.63908 165.8 8.74365 164.904 8.74365 163.8V143.8C8.74365 142.695 9.63908 141.8 10.7437 141.8Z" fill="white"/>
<path fill-rule="evenodd" clip-rule="evenodd" d="M16.8438 151.136C16.8438 153.842 19.0376 156.036 21.7438 156.036C24.4499 156.036 26.6438 153.842 26.6438 151.136C26.6438 148.43 24.4499 146.236 21.7438 146.236C19.0376 146.236 16.8438 148.43 16.8438 151.136ZM24.8438 151.136C24.8438 152.848 23.4558 154.236 21.7437 154.236C20.0317 154.236 18.6437 152.848 18.6437 151.136C18.6437 149.424 20.0317 148.036 21.7437 148.036C23.4558 148.036 24.8438 149.424 24.8438 151.136Z" fill="#FB8FB4"/>
<path d="M17.3321 160.518C16.8351 160.518 16.4321 160.115 16.4321 159.618C16.4321 159.121 16.8351 158.718 17.3321 158.718H26.1549C26.652 158.718 27.0549 159.121 27.0549 159.618C27.0549 160.115 26.652 160.518 26.1549 160.518H17.3321Z" fill="#D9EFF3"/>
<path d="M40.9603 65.6689H68.7497C69.6577 65.6689 70.5326 66.0096 71.2016 66.6236L88.7371 82.7182C89.4853 83.4049 89.9112 84.3739 89.9112 85.3895V126.102C89.9112 129.44 87.2055 132.145 83.8679 132.145H40.9603C37.6227 132.145 34.917 129.44 34.917 126.102V71.7123C34.917 68.3746 37.6227 65.6689 40.9603 65.6689Z" fill="url(#paint20_linear)"/>
</g>
<g filter="url(#filter3_d)">
<path d="M548 87H682C686.418 87 690 90.5817 690 95V218C690 222.418 686.418 226 682 226H548C543.582 226 540 222.418 540 218V95C540 90.5817 543.582 87 548 87Z" fill="white"/>
<mask id="mask7" mask-type="alpha" maskUnits="userSpaceOnUse" x="540" y="87" width="150" height="139">
<path d="M548 87H682C686.418 87 690 90.5817 690 95V218C690 222.418 686.418 226 682 226H548C543.582 226 540 222.418 540 218V95C540 90.5817 543.582 87 548 87Z" fill="white"/>
</mask>
<g mask="url(#mask7)">
<path d="M540.721 177.264H689.721V218.264C689.721 222.682 686.139 226.264 681.721 226.264H548.721C544.303 226.264 540.721 222.682 540.721 218.264V177.264Z" fill="#F8FDFF"/>
<path d="M561.353 206.834C560.248 206.834 559.353 205.939 559.353 204.834C559.353 203.73 560.248 202.834 561.353 202.834H579.09C580.195 202.834 581.09 203.73 581.09 204.834C581.09 205.939 580.195 206.834 579.09 206.834H561.353Z" fill="#C47EE9"/>
<path opacity="0.3" d="M561.353 196.834C560.248 196.834 559.353 195.939 559.353 194.834C559.353 193.73 560.248 192.834 561.353 192.834H572.09C573.195 192.834 574.09 193.73 574.09 194.834C574.09 195.939 573.195 196.834 572.09 196.834H561.353Z" fill="#C47EE9"/>
<path d="M606.353 206.834C605.248 206.834 604.353 205.939 604.353 204.834C604.353 203.73 605.248 202.834 606.353 202.834H624.09C625.195 202.834 626.09 203.73 626.09 204.834C626.09 205.939 625.195 206.834 624.09 206.834H606.353Z" fill="#C47EE9"/>
<path opacity="0.3" d="M606.353 196.834C605.248 196.834 604.353 195.939 604.353 194.834C604.353 193.73 605.248 192.834 606.353 192.834H617.09C618.195 192.834 619.09 193.73 619.09 194.834C619.09 195.939 618.195 196.834 617.09 196.834H606.353Z" fill="#C47EE9"/>
<path d="M651.353 206.834C650.248 206.834 649.353 205.939 649.353 204.834C649.353 203.73 650.248 202.834 651.353 202.834H669.09C670.195 202.834 671.09 203.73 671.09 204.834C671.09 205.939 670.195 206.834 669.09 206.834H651.353Z" fill="#C47EE9"/>
<path opacity="0.3" d="M651.353 196.834C650.248 196.834 649.353 195.939 649.353 194.834C649.353 193.73 650.248 192.834 651.353 192.834H662.09C663.195 192.834 664.09 193.73 664.09 194.834C664.09 195.939 663.195 196.834 662.09 196.834H651.353Z" fill="#C47EE9"/>
<path opacity="0.3" d="M570.272 137.56L559.15 148.096L558.462 147.37L569.647 136.784L578.826 130.551L578.981 130.48L589.832 127.645L599.863 136.74L609.188 140.962L618.938 131.832L619.03 131.764L629.302 125.847L639.648 120.513L649.6 131.798L659.493 136.997L668.933 127.584L669.639 128.292L659.678 138.224L649.054 132.64L648.911 132.528L639.414 121.759L629.78 126.725L619.579 132.602L609.384 142.148L599.379 137.618L599.249 137.533L589.561 128.75L579.317 131.426L570.272 137.56Z" fill="#FFA189"/>
<path fill-rule="evenodd" clip-rule="evenodd" d="M637.893 111.617C637.893 110.789 638.565 110.117 639.393 110.117C640.221 110.117 640.893 110.789 640.893 111.617V132.548C640.893 133.376 640.221 134.048 639.393 134.048C638.565 134.048 637.893 133.376 637.893 132.548V111.617ZM577.893 121.617C577.893 120.789 578.565 120.117 579.393 120.117C580.221 120.117 580.893 120.789 580.893 121.617V142.548C580.893 143.376 580.221 144.048 579.393 144.048C578.565 144.048 577.893 143.376 577.893 142.548V121.617ZM569.393 130.117C568.565 130.117 567.893 130.789 567.893 131.617V142.548C567.893 143.376 568.565 144.048 569.393 144.048C570.221 144.048 570.893 143.376 570.893 142.548V131.617C570.893 130.789 570.221 130.117 569.393 130.117ZM559.393 140.117C558.565 140.117 557.893 140.789 557.893 141.617V152.548C557.893 153.376 558.565 154.048 559.393 154.048C560.221 154.048 560.893 153.376 560.893 152.548V141.617C560.893 140.789 560.221 140.117 559.393 140.117ZM589.393 120.117C588.565 120.117 587.893 120.789 587.893 121.617V132.548C587.893 133.376 588.565 134.048 589.393 134.048C590.221 134.048 590.893 133.376 590.893 132.548V121.617C590.893 120.789 590.221 120.117 589.393 120.117ZM597.893 131.617C597.893 130.789 598.565 130.117 599.393 130.117C600.221 130.117 600.893 130.789 600.893 131.617V142.548C600.893 143.376 600.221 144.048 599.393 144.048C598.565 144.048 597.893 143.376 597.893 142.548V131.617ZM609.393 133.117C608.565 133.117 607.893 133.789 607.893 134.617V145.548C607.893 146.376 608.565 147.048 609.393 147.048C610.221 147.048 610.893 146.376 610.893 145.548V134.617C610.893 133.789 610.221 133.117 609.393 133.117ZM617.893 126.617C617.893 125.789 618.565 125.117 619.393 125.117C620.221 125.117 620.893 125.789 620.893 126.617V137.548C620.893 138.376 620.221 139.048 619.393 139.048C618.565 139.048 617.893 138.376 617.893 137.548V126.617ZM629.393 120.117C628.565 120.117 627.893 120.789 627.893 121.617V132.548C627.893 133.376 628.565 134.048 629.393 134.048C630.221 134.048 630.893 133.376 630.893 132.548V121.617C630.893 120.789 630.221 120.117 629.393 120.117ZM649.393 120.117C648.565 120.117 647.893 120.789 647.893 121.617V139.548C647.893 140.376 648.565 141.048 649.393 141.048C650.221 141.048 650.893 140.376 650.893 139.548V121.617C650.893 120.789 650.221 120.117 649.393 120.117ZM657.893 126.617C657.893 125.789 658.565 125.117 659.393 125.117C660.221 125.117 660.893 125.789 660.893 126.617V147.548C660.893 148.376 660.221 149.048 659.393 149.048C658.565 149.048 657.893 148.376 657.893 147.548V126.617ZM669.393 120.117C668.565 120.117 667.893 120.789 667.893 121.617V132.548C667.893 133.376 668.565 134.048 669.393 134.048C670.221 134.048 670.893 133.376 670.893 132.548V121.617C670.893 120.789 670.221 120.117 669.393 120.117Z" fill="url(#paint21_linear)"/>
</g>
</g>
<path d="M574.766 374.013H645.708C647.365 374.013 648.708 375.356 648.708 377.013V422.037C648.708 423.694 647.365 425.037 645.708 425.037H574.766C573.109 425.037 571.766 423.694 571.766 422.037V377.013C571.766 375.356 573.109 374.013 574.766 374.013Z" fill="url(#paint22_linear)"/>
<mask id="mask8" mask-type="alpha" maskUnits="userSpaceOnUse" x="571" y="374" width="78" height="52">
<path d="M574.766 374.013H645.708C647.365 374.013 648.708 375.356 648.708 377.013V422.037C648.708 423.694 647.365 425.037 645.708 425.037H574.766C573.109 425.037 571.766 423.694 571.766 422.037V377.013C571.766 375.356 573.109 374.013 574.766 374.013Z" fill="white"/>
</mask>
<g mask="url(#mask8)">
<path opacity="0.1" d="M583.502 394.664H600.502C601.607 394.664 602.502 395.559 602.502 396.664V416.664C602.502 417.769 601.607 418.664 600.502 418.664H583.502C582.397 418.664 581.502 417.769 581.502 416.664V396.664C581.502 395.559 582.397 394.664 583.502 394.664Z" fill="#373A5B"/>
<path d="M583.502 392.664H600.502C601.607 392.664 602.502 393.559 602.502 394.664V414.664C602.502 415.769 601.607 416.664 600.502 416.664H583.502C582.397 416.664 581.502 415.769 581.502 414.664V394.664C581.502 393.559 582.397 392.664 583.502 392.664Z" fill="white"/>
<path fill-rule="evenodd" clip-rule="evenodd" d="M588.102 402C588.102 404.154 589.848 405.9 592.002 405.9C594.156 405.9 595.902 404.154 595.902 402C595.902 399.846 594.156 398.1 592.002 398.1C589.848 398.1 588.102 399.846 588.102 402ZM594.102 402C594.102 403.16 593.162 404.1 592.002 404.1C590.842 404.1 589.902 403.16 589.902 402C589.902 400.84 590.842 399.9 592.002 399.9C593.162 399.9 594.102 400.84 594.102 402Z" fill="#FB8FB4"/>
<path d="M589.09 411.383C588.593 411.383 588.19 410.98 588.19 410.483C588.19 409.985 588.593 409.583 589.09 409.583H594.913C595.41 409.583 595.813 409.985 595.813 410.483C595.813 410.98 595.41 411.383 594.913 411.383H589.09Z" fill="#D9EFF3"/>
<g opacity="0.4">
<path opacity="0.1" d="M608.792 394.664H625.792C626.897 394.664 627.792 395.559 627.792 396.664V416.664C627.792 417.769 626.897 418.664 625.792 418.664H608.792C607.687 418.664 606.792 417.769 606.792 416.664V396.664C606.792 395.559 607.687 394.664 608.792 394.664Z" fill="#373A5B"/>
<path d="M608.792 392.664H625.792C626.897 392.664 627.792 393.559 627.792 394.664V414.664C627.792 415.769 626.897 416.664 625.792 416.664H608.792C607.687 416.664 606.792 415.769 606.792 414.664V394.664C606.792 393.559 607.687 392.664 608.792 392.664Z" fill="white"/>
<path fill-rule="evenodd" clip-rule="evenodd" d="M613.392 402C613.392 404.154 615.138 405.9 617.292 405.9C619.446 405.9 621.192 404.154 621.192 402C621.192 399.846 619.446 398.1 617.292 398.1C615.138 398.1 613.392 399.846 613.392 402ZM619.392 402C619.392 403.16 618.452 404.1 617.292 404.1C616.132 404.1 615.192 403.16 615.192 402C615.192 400.84 616.132 399.9 617.292 399.9C618.452 399.9 619.392 400.84 619.392 402Z" fill="#FB8FB4"/>
<path d="M614.38 411.383C613.883 411.383 613.48 410.98 613.48 410.483C613.48 409.985 613.883 409.583 614.38 409.583H620.203C620.7 409.583 621.103 409.985 621.103 410.483C621.103 410.98 620.7 411.383 620.203 411.383H614.38Z" fill="#D9EFF3"/>
</g>
<g opacity="0.4">
<path opacity="0.1" d="M634.082 394.664H651.082C652.187 394.664 653.082 395.559 653.082 396.664V416.664C653.082 417.769 652.187 418.664 651.082 418.664H634.082C632.977 418.664 632.082 417.769 632.082 416.664V396.664C632.082 395.559 632.977 394.664 634.082 394.664Z" fill="#373A5B"/>
<path d="M634.082 392.664H651.082C652.187 392.664 653.082 393.559 653.082 394.664V414.664C653.082 415.769 652.187 416.664 651.082 416.664H634.082C632.977 416.664 632.082 415.769 632.082 414.664V394.664C632.082 393.559 632.977 392.664 634.082 392.664Z" fill="white"/>
<path fill-rule="evenodd" clip-rule="evenodd" d="M638.682 402C638.682 404.154 640.428 405.9 642.582 405.9C644.736 405.9 646.482 404.154 646.482 402C646.482 399.846 644.736 398.1 642.582 398.1C640.428 398.1 638.682 399.846 638.682 402ZM644.682 402C644.682 403.16 643.742 404.1 642.582 404.1C641.422 404.1 640.482 403.16 640.482 402C640.482 400.84 641.422 399.9 642.582 399.9C643.742 399.9 644.682 400.84 644.682 402Z" fill="#FB8FB4"/>
<path d="M639.671 411.383C639.173 411.383 638.771 410.98 638.771 410.483C638.771 409.985 639.173 409.583 639.671 409.583H645.493C645.99 409.583 646.393 409.985 646.393 410.483C646.393 410.98 645.99 411.383 645.493 411.383H639.671Z" fill="#D9EFF3"/>
</g>
<path opacity="0.2" d="M574.766 374.013H645.708C647.365 374.013 648.708 375.356 648.708 377.013V382.404H571.766V377.013C571.766 375.356 573.109 374.013 574.766 374.013Z" fill="white"/>
<circle cx="577.462" cy="378.208" r="1" fill="#99FF87"/>
<circle cx="581.462" cy="378.208" r="1" fill="#FB7EB7"/>
<circle cx="585.462" cy="378.208" r="1" fill="#FB7EB7"/>
<path d="M582.668 389.101C582.171 389.101 581.768 388.698 581.768 388.201C581.768 387.703 582.171 387.301 582.668 387.301H591.491C591.988 387.301 592.391 387.703 592.391 388.201C592.391 388.698 591.988 389.101 591.491 389.101H582.668Z" fill="white"/>
</g>
<path d="M667.356 463.386C667.356 463.386 668.308 464.124 658.811 469.47C654.975 471.63 650.086 473.842 644.143 476.107C640.278 477.58 641.238 480.593 645.678 480.593C667.037 480.593 679.529 480.593 683.154 480.593C689.722 480.593 688.131 475.802 688.131 475.802L684.846 463.386H667.356Z" fill="url(#paint23_linear)"/>
<mask id="mask9" mask-type="alpha" maskUnits="userSpaceOnUse" x="641" y="463" width="48" height="18">
<path d="M667.356 463.386C667.356 463.386 668.308 464.124 658.811 469.47C654.975 471.63 650.086 473.842 644.143 476.107C640.278 477.58 641.238 480.593 645.678 480.593C667.037 480.593 679.529 480.593 683.154 480.593C689.722 480.593 688.131 475.802 688.131 475.802L684.846 463.386H667.356Z" fill="white"/>
</mask>
<g mask="url(#mask9)">
<path d="M691.118 473.055C691.118 473.055 655.934 477.115 653.906 465.818C651.879 454.522 689.442 460.4 689.442 460.4L691.118 473.055Z" fill="url(#paint24_linear)"/>
</g>
<path d="M699.04 463.386C699.04 463.386 692.328 470.681 687.273 474.494C682.217 478.306 685.588 480.593 688.357 480.593C691.127 480.593 712.812 480.593 719.38 480.593C725.947 480.593 724.356 475.802 724.356 475.802L716.53 463.386H699.04Z" fill="url(#paint25_linear)"/>
<mask id="mask10" mask-type="alpha" maskUnits="userSpaceOnUse" x="684" y="463" width="41" height="18">
<path d="M699.04 463.386C699.04 463.386 692.328 470.681 687.273 474.494C682.217 478.306 685.588 480.593 688.357 480.593C691.127 480.593 712.812 480.593 719.38 480.593C725.947 480.593 724.356 475.802 724.356 475.802L716.53 463.386H699.04Z" fill="white"/>
</mask>
<g mask="url(#mask10)">
<path d="M721.775 469.577C721.775 469.577 701.697 475.055 690.853 468.353C680.009 461.651 719.805 459.491 719.805 459.491L721.775 469.577Z" fill="url(#paint26_linear)"/>
</g>
<path d="M717.18 284.72C727.797 310.329 716.258 351.457 716.258 393.028C716.258 402.545 720.522 464.367 716.526 465.283C712.53 466.2 701.993 465.818 699.395 465.818C696.798 465.818 697.924 461.024 697.924 457.271C697.924 428.936 684.879 330.508 684.879 330.508C684.879 330.508 676.702 364.261 670.308 388.564C666.757 402.062 688.88 464.054 684.879 464.706C680.878 465.357 670.651 465.357 667.896 465.254C665.141 465.151 645.469 400.155 645.469 384.717C645.469 369.28 662.395 286.222 662.395 286.222L717.18 284.72Z" fill="url(#paint27_linear)"/>
<mask id="mask11" mask-type="alpha" maskUnits="userSpaceOnUse" x="645" y="284" width="77" height="182">
<path d="M717.18 284.72C727.797 310.329 716.258 351.457 716.258 393.028C716.258 402.545 720.522 464.367 716.526 465.283C712.53 466.2 701.993 465.818 699.395 465.818C696.798 465.818 697.924 461.024 697.924 457.271C697.924 428.936 684.879 330.508 684.879 330.508C684.879 330.508 676.702 364.261 670.308 388.564C666.757 402.062 688.88 464.054 684.879 464.706C680.878 465.357 670.651 465.357 667.896 465.254C665.141 465.151 645.469 400.155 645.469 384.717C645.469 369.28 662.395 286.222 662.395 286.222L717.18 284.72Z" fill="white"/>
</mask>
<g mask="url(#mask11)">
<path opacity="0.3" d="M655.837 299.235C655.837 299.235 656.666 314.275 679.627 314.275C702.589 314.275 682.956 339.895 706.413 345.821C729.869 351.748 716.245 380.583 730.505 380.583C744.766 380.583 718.218 300.892 718.218 300.892L655.837 299.235Z" fill="#151731"/>
<path opacity="0.3" d="M686.843 339.416L679.565 311.888C679.565 311.888 674.763 321.622 676.389 334.484C678.015 347.347 666.324 356.996 671.874 366.613C677.423 376.231 660.692 397.067 672.77 412.183C684.848 427.3 679.237 410.884 679.237 410.884L686.843 339.416Z" fill="#151731"/>
</g>
<path d="M683.527 148.085C663.316 152.916 667.825 173.016 673.136 194.714C678.446 216.413 691.364 257.324 718.534 254.036C745.703 250.748 753.278 233.75 743.44 214.432C733.602 195.115 714.006 194.714 711.7 178.518C709.395 162.322 703.738 143.253 683.527 148.085Z" fill="url(#paint28_linear)"/>
<path d="M681.358 195.799C704.018 192 681.686 191.338 699.792 193.131C710.92 194.234 722.301 203.654 722.301 203.654C726.589 207.149 725.735 227.013 722.301 239.919C719.05 252.138 712.977 254.884 712.958 259.309C712.919 268.241 722.301 280.413 722.301 304.057C721.555 304.14 717.767 285.06 717.04 285.138C716.143 285.233 717.909 303.971 717.04 304.057C699.275 305.82 695.251 315.764 681.358 314C679.798 313.802 676.674 291.31 676.674 291.31C676.674 291.31 673.257 314.184 671.266 314C665.808 313.497 661.667 309.014 657.66 309.014C656.837 309.014 659.695 292.23 660.847 283.637C661.344 279.929 662.964 269.186 662.964 254.357C662.964 245.682 645.609 246.612 645.609 246.612C645.609 246.612 658.698 199.598 681.358 195.799Z" fill="url(#paint29_linear)"/>
<mask id="mask12" mask-type="alpha" maskUnits="userSpaceOnUse" x="645" y="192" width="81" height="123">
<path d="M681.358 195.799C704.018 192 681.686 191.338 699.792 193.131C710.92 194.234 722.301 203.654 722.301 203.654C726.589 207.149 725.735 227.013 722.301 239.919C719.05 252.138 712.977 254.884 712.958 259.309C712.919 268.241 722.301 280.413 722.301 304.057C721.555 304.14 717.767 285.06 717.04 285.138C716.143 285.233 717.909 303.971 717.04 304.057C699.275 305.82 695.251 315.764 681.358 314C679.798 313.802 676.674 291.31 676.674 291.31C676.674 291.31 673.257 314.184 671.266 314C665.808 313.497 661.667 309.014 657.66 309.014C656.837 309.014 659.695 292.23 660.847 283.637C661.344 279.929 662.964 269.186 662.964 254.357C662.964 245.682 645.609 246.612 645.609 246.612C645.609 246.612 658.698 199.598 681.358 195.799Z" fill="white"/>
</mask>
<g mask="url(#mask12)">
<path opacity="0.3" d="M680.686 207.739C680.686 207.739 683.817 261.318 693.724 263.173C703.631 265.028 706.974 263.826 709.074 269.763C711.173 275.7 698.199 289.748 709.074 291.226C719.949 292.704 724.667 319.763 724.667 319.763L719.949 253.83L699.227 250.707L680.686 207.739Z" fill="#373A5B"/>
<path opacity="0.3" d="M635.676 256.17C635.676 256.17 675.675 253.196 691.069 248.201C693.621 247.372 696.089 248.755 698.473 247.798C698.473 247.798 705.599 248.176 703.539 252.188C699.954 259.171 681.257 261.538 676.767 261.538C666.164 261.538 667.66 254.271 656.362 258.678C645.063 263.085 635.676 256.17 635.676 256.17Z" fill="#373A5B"/>
<path opacity="0.3" d="M693.624 208.759C693.624 208.759 699.039 238.409 703.835 236.92C708.632 235.43 709.992 218.309 709.992 218.309C709.992 218.309 707.403 217.107 705.672 224.8C703.941 232.493 693.624 208.759 693.624 208.759Z" fill="#373A5B"/>
<circle opacity="0.3" r="3.25325" transform="matrix(-1 0 0 1 724.143 212.065)" fill="white"/>
<circle opacity="0.3" r="3.25325" transform="matrix(-1 0 0 1 702.455 212.065)" fill="white"/>
<circle opacity="0.3" r="3.25325" transform="matrix(-1 0 0 1 680.766 212.065)" fill="white"/>
<circle opacity="0.3" r="3.25325" transform="matrix(-1 0 0 1 659.078 212.065)" fill="white"/>
<circle opacity="0.3" r="3.25325" transform="matrix(-1 0 0 1 713.299 201.221)" fill="white"/>
<circle opacity="0.3" r="3.25325" transform="matrix(-1 0 0 1 691.611 201.221)" fill="white"/>
<circle opacity="0.3" r="3.25325" transform="matrix(-1 0 0 1 669.922 201.221)" fill="white"/>
<circle opacity="0.3" r="3.25325" transform="matrix(-1 0 0 1 648.234 201.221)" fill="white"/>
<circle opacity="0.3" r="3.25325" transform="matrix(-1 0 0 1 713.299 222.909)" fill="white"/>
<circle opacity="0.3" r="3.25325" transform="matrix(-1 0 0 1 691.611 222.909)" fill="white"/>
<circle opacity="0.3" r="3.25325" transform="matrix(-1 0 0 1 669.922 222.909)" fill="white"/>
<circle opacity="0.3" r="3.25325" transform="matrix(-1 0 0 1 648.234 222.909)" fill="white"/>
<circle opacity="0.3" r="3.25325" transform="matrix(-1 0 0 1 724.143 233.753)" fill="white"/>
<circle opacity="0.3" r="3.25325" transform="matrix(-1 0 0 1 702.455 233.753)" fill="white"/>
<circle opacity="0.3" r="3.25325" transform="matrix(-1 0 0 1 680.766 233.753)" fill="white"/>
<circle opacity="0.3" r="3.25325" transform="matrix(-1 0 0 1 659.078 233.753)" fill="white"/>
<circle opacity="0.3" r="3.25325" transform="matrix(-1 0 0 1 713.299 244.597)" fill="white"/>
<circle opacity="0.3" r="3.25325" transform="matrix(-1 0 0 1 691.611 244.597)" fill="white"/>
<circle opacity="0.3" r="3.25325" transform="matrix(-1 0 0 1 669.922 244.597)" fill="white"/>
<circle opacity="0.3" r="3.25325" transform="matrix(-1 0 0 1 648.234 244.597)" fill="white"/>
<circle opacity="0.3" r="3.25325" transform="matrix(-1 0 0 1 724.143 255.442)" fill="white"/>
<circle opacity="0.3" r="3.25325" transform="matrix(-1 0 0 1 702.455 255.442)" fill="white"/>
<circle opacity="0.3" r="3.25325" transform="matrix(-1 0 0 1 680.766 255.442)" fill="white"/>
<circle opacity="0.3" r="3.25325" transform="matrix(-1 0 0 1 659.078 255.442)" fill="white"/>
<circle opacity="0.3" r="3.25325" transform="matrix(-1 0 0 1 713.299 266.286)" fill="white"/>
<circle opacity="0.3" r="3.25325" transform="matrix(-1 0 0 1 691.611 266.286)" fill="white"/>
<circle opacity="0.3" r="3.25325" transform="matrix(-1 0 0 1 669.922 266.286)" fill="white"/>
<circle opacity="0.3" r="3.25325" transform="matrix(-1 0 0 1 648.234 266.286)" fill="white"/>
<circle opacity="0.3" r="3.25325" transform="matrix(-1 0 0 1 724.143 277.13)" fill="white"/>
<circle opacity="0.3" r="3.25325" transform="matrix(-1 0 0 1 702.455 277.13)" fill="white"/>
<circle opacity="0.3" r="3.25325" transform="matrix(-1 0 0 1 680.766 277.13)" fill="white"/>
<circle opacity="0.3" r="3.25325" transform="matrix(-1 0 0 1 659.078 277.13)" fill="white"/>
<circle opacity="0.3" r="3.25325" transform="matrix(-1 0 0 1 713.299 287.974)" fill="white"/>
<circle opacity="0.3" r="3.25325" transform="matrix(-1 0 0 1 691.611 287.974)" fill="white"/>
<circle opacity="0.3" r="3.25325" transform="matrix(-1 0 0 1 669.922 287.974)" fill="white"/>
<circle opacity="0.3" r="3.25325" transform="matrix(-1 0 0 1 648.234 287.974)" fill="white"/>
<circle opacity="0.3" r="3.25325" transform="matrix(-1 0 0 1 724.143 298.818)" fill="white"/>
<circle opacity="0.3" r="3.25325" transform="matrix(-1 0 0 1 702.455 298.818)" fill="white"/>
<circle opacity="0.3" r="3.25325" transform="matrix(-1 0 0 1 680.766 298.818)" fill="white"/>
<circle opacity="0.3" r="3.25325" transform="matrix(-1 0 0 1 659.078 298.818)" fill="white"/>
<path opacity="0.2" d="M688.345 202.076C688.345 202.076 677.47 222.269 678.818 239.337C680.167 256.406 674.441 317.253 674.441 317.253H664.639C664.639 317.253 672.052 300.541 672.81 292.27C674.931 269.118 676.254 249.992 675.525 239.337C674.042 217.647 685.431 201.104 685.431 201.104L688.345 202.076Z" fill="white"/>
<path opacity="0.3" d="M661.107 237.21C658.563 223.329 661.917 221.982 670.338 204.358C670.338 204.358 658.563 218.868 657.693 230.006C656.823 241.144 651.218 230.446 647.628 242.94C644.039 255.435 638.428 251.014 636.305 254.357C634.183 257.7 644.039 260.557 644.039 260.557L662.371 258.738C662.371 258.738 663.66 245.405 661.107 237.21Z" fill="#373A5B"/>
<path opacity="0.3" d="M713.562 195.393C713.562 195.393 713.558 204.358 697.302 204.358C696.14 204.358 692.521 209.993 692.065 209.363C691.346 208.369 689.568 205.344 687.599 205.258C683.674 205.087 678.718 208.557 677.965 206.796C677.532 205.784 686.066 197.968 686.066 197.968C686.066 197.968 690.692 190.459 696.721 189.895C702.75 189.33 713.562 195.393 713.562 195.393Z" fill="#373A5B"/>
<path opacity="0.3" d="M729.043 287.186C729.043 287.186 726.24 280.447 718.041 277.235L718.717 284.974L726.779 288.391L729.043 287.186Z" fill="#373A5B"/>
<path d="M700.286 193.241L692.312 208.852C691.987 209.488 691.12 209.588 690.658 209.043L685.431 202.867L678.327 207.263C677.447 207.808 676.42 206.821 676.93 205.92L683.374 194.539L695.748 190.411L700.642 193.241" fill="#FFD5D7"/>
</g>
<path d="M660.901 242.367C660.901 242.367 654.045 237.066 647.567 241.344C641.089 245.623 645.134 257.775 654.764 257.345C664.393 256.914 660.901 242.367 660.901 242.367Z" fill="#FFD5D7"/>
<path d="M708.675 237.007C708.675 237.007 715.451 237.136 716.172 241.344C716.894 245.553 717.172 258.081 708.675 258.695C700.179 259.309 699.733 251.264 699.733 251.264L708.675 237.007Z" fill="#FFD5D7"/>
<path d="M699.844 193.043C696.452 199.989 687.6 202.076 685.698 202.076C683.796 202.076 684.43 194.789 684.43 194.789L684.021 185.758L696.952 179.031C696.952 179.031 696.137 192.518 699.844 193.043Z" fill="url(#paint30_linear)"/>
<mask id="mask13" mask-type="alpha" maskUnits="userSpaceOnUse" x="684" y="179" width="16" height="24">
<path d="M699.844 193.043C696.452 199.989 687.6 202.076 685.698 202.076C683.796 202.076 684.43 194.789 684.43 194.789L684.021 185.758L696.952 179.031C696.952 179.031 696.137 192.518 699.844 193.043Z" fill="white"/>
</mask>
<g mask="url(#mask13)">
<path opacity="0.2" d="M697.003 179.031C697.003 179.031 694.652 193.64 684.634 194.804C674.617 195.968 675.39 188.45 675.39 188.45L697.003 179.031Z" fill="#DA433D"/>
</g>
<path d="M676.61 159.758C676.61 159.758 673.719 167.316 674.082 170.44C675.383 181.631 677.513 191.461 682.581 191.461C689.619 191.461 696.385 183.625 698.158 176.06C698.177 175.977 698.196 175.896 698.214 175.815C698.393 175.84 698.576 175.853 698.762 175.853C700.911 175.853 702.654 174.111 702.654 171.961C702.654 169.812 700.911 168.07 698.762 168.07C697.411 168.07 696.221 168.758 695.524 169.803C695.13 169.982 681.594 170.519 676.61 159.758Z" fill="url(#paint31_linear)"/>
<mask id="mask14" mask-type="alpha" maskUnits="userSpaceOnUse" x="674" y="159" width="29" height="33">
<path d="M676.61 159.758C676.61 159.758 673.719 167.316 674.082 170.44C675.383 181.631 677.513 191.461 682.581 191.461C689.619 191.461 696.385 183.625 698.158 176.06C698.177 175.977 698.196 175.896 698.214 175.815C698.393 175.84 698.576 175.853 698.762 175.853C700.911 175.853 702.654 174.111 702.654 171.961C702.654 169.812 700.911 168.07 698.762 168.07C697.411 168.07 696.221 168.758 695.524 169.803C695.13 169.982 681.594 170.519 676.61 159.758Z" fill="white"/>
</mask>
<g mask="url(#mask14)">
<path opacity="0.2" d="M676.61 157.631C676.61 157.631 676.628 168.361 684.311 170.422C691.993 172.483 695.386 169.797 695.386 169.797C695.386 169.797 695.132 169.335 696.046 167.885C696.96 166.435 676.61 157.631 676.61 157.631Z" fill="#DA433D"/>
</g>
<path d="M699.071 244.142L667.473 242.376C667.473 242.376 646.994 240.601 649.098 249.753C651.202 258.905 662.6 257.846 680.129 255.389C697.658 252.931 704.001 252.189 704.001 252.189L699.071 244.142Z" fill="url(#paint32_linear)"/>
<mask id="mask15" mask-type="alpha" maskUnits="userSpaceOnUse" x="648" y="242" width="57" height="16">
<path d="M699.071 244.142L667.473 242.376C667.473 242.376 646.994 240.601 649.098 249.753C651.202 258.905 662.6 257.846 680.129 255.389C697.658 252.931 704.001 252.189 704.001 252.189L699.071 244.142Z" fill="white"/>
</mask>
<g mask="url(#mask15)">
<path opacity="0.2" d="M651.877 229.363C651.877 229.363 665.686 232.208 669.968 237.548C674.249 242.888 668.419 229.363 668.419 229.363L653.637 227.844L651.877 229.363Z" fill="#DA433D"/>
<path opacity="0.2" d="M689.471 242.556C689.471 242.556 689.682 254.093 692.578 260.879C695.474 267.666 706.65 254.378 706.65 254.378L703.244 245.202L698.872 242.088L689.471 242.556Z" fill="#DA433D"/>
</g>
<path d="M696.653 249.476C701.802 255.885 702.296 258.325 708.334 249.476C714.402 240.584 707.317 233.934 704.897 230.484C702.478 227.034 692.202 206.919 690.526 202.497C690.526 202.497 688.302 195.784 690.88 192.894C693.519 189.937 695.893 186.911 693.16 187.205C688.092 187.749 689.485 191.129 683.714 190.426C677.943 189.723 677.182 187.083 673.154 181.705C669.126 176.327 672.641 187.452 673.941 189.967C675.241 192.482 676.006 196.671 677.987 198.094C679.208 198.971 680.291 201.194 681.214 204.678C681.023 204.798 689.298 240.324 696.653 249.476Z" fill="url(#paint33_linear)"/>
<mask id="mask16" mask-type="alpha" maskUnits="userSpaceOnUse" x="671" y="180" width="40" height="76">
<path d="M696.653 249.476C701.802 255.885 702.296 258.325 708.334 249.476C714.402 240.584 707.317 233.934 704.897 230.484C702.478 227.034 692.202 206.919 690.526 202.497C690.526 202.497 688.302 195.784 690.88 192.894C693.519 189.937 695.893 186.911 693.16 187.205C688.092 187.749 689.485 191.129 683.714 190.426C677.943 189.723 677.182 187.083 673.154 181.705C669.126 176.327 672.641 187.452 673.941 189.967C675.241 192.482 676.006 196.671 677.987 198.094C679.208 198.971 680.291 201.194 681.214 204.678C681.023 204.798 689.298 240.324 696.653 249.476Z" fill="white"/>
</mask>
<g mask="url(#mask16)">
<path opacity="0.2" d="M706.975 227.194C706.975 227.194 722.206 233.098 724.494 238.369C726.782 243.641 726.08 230.98 726.08 230.98L706.975 223.776V227.194Z" fill="#DA433D"/>
</g>
<path d="M151.177 462.846C151.177 462.846 153.164 471.088 165.216 471.714C177.268 472.339 175.49 480.581 175.49 480.581C175.49 480.581 141.841 480.581 135.198 480.581C128.556 480.581 130.165 475.643 130.165 475.643L133.487 462.846H151.177Z" fill="url(#paint34_linear)"/>
<mask id="mask17" mask-type="alpha" maskUnits="userSpaceOnUse" x="129" y="462" width="47" height="19">
<path d="M151.177 462.846C151.177 462.846 153.164 471.088 165.216 471.714C177.268 472.339 175.49 480.581 175.49 480.581C175.49 480.581 141.841 480.581 135.198 480.581C128.556 480.581 130.165 475.643 130.165 475.643L133.487 462.846H151.177Z" fill="white"/>
</mask>
<g mask="url(#mask17)">
<path d="M178.376 475.412L179.195 481C179.222 481.231 179.248 481.463 179.274 481.698H159.818C159.837 481.464 159.858 481.231 159.881 481H128.893V475.412H160.834C162.255 469.893 176.533 465.39 178.376 475.412Z" fill="#D8E8F8"/>
</g>
<path d="M100.486 462.846C100.486 462.846 103.172 467.784 108.285 471.714C113.398 475.643 111.454 480.581 108.653 480.581C105.852 480.581 86.5571 480.581 79.9146 480.581C73.272 480.581 74.8813 475.643 74.8813 475.643L82.7967 462.846H100.486Z" fill="url(#paint35_linear)"/>
<mask id="mask18" mask-type="alpha" maskUnits="userSpaceOnUse" x="74" y="462" width="38" height="19">
<path d="M100.486 462.846C100.486 462.846 103.172 467.784 108.285 471.714C113.398 475.643 111.454 480.581 108.653 480.581C105.852 480.581 86.5571 480.581 79.9146 480.581C73.272 480.581 74.8813 475.643 74.8813 475.643L82.7967 462.846H100.486Z" fill="white"/>
</mask>
<g mask="url(#mask18)">
<path d="M93.2482 468.297C99.0525 468.297 104.219 471.082 107.53 475.412H113.538V481H74.0542V475.412H78.9662C82.2778 471.082 87.4439 468.297 93.2482 468.297Z" fill="#D8E8F8"/>
</g>
<path d="M80.2611 283.421C77.843 328.814 81.0279 350.673 81.3583 390.839C81.4377 400.484 80.2611 436.457 81.1684 454.623C81.3644 458.548 78.7299 463.438 83.0454 464.364C87.361 465.29 100.133 464.918 102.938 464.918C105.744 464.918 104.232 460.059 104.232 456.267C104.232 427.634 116.429 331.657 116.429 331.657C116.429 331.657 123.932 358.75 128.702 385.837C132.202 405.719 129.196 463.542 133.413 463.809C137.629 464.076 148.778 464.467 151.753 464.364C154.587 464.265 158 399.939 157.168 381.358C156.336 362.776 141.506 283.421 141.506 283.421H80.2611Z" fill="url(#paint36_linear)"/>
<mask id="mask19" mask-type="alpha" maskUnits="userSpaceOnUse" x="79" y="283" width="79" height="182">
<path d="M80.2611 283.421C77.843 328.814 81.0279 350.673 81.3583 390.839C81.4377 400.484 80.2611 436.457 81.1684 454.623C81.3644 458.548 78.7299 463.438 83.0454 464.364C87.361 465.29 100.133 464.918 102.938 464.918C105.744 464.918 104.232 460.059 104.232 456.267C104.232 427.634 116.429 331.657 116.429 331.657C116.429 331.657 123.932 358.75 128.702 385.837C132.202 405.719 129.196 463.542 133.413 463.809C137.629 464.076 148.778 464.467 151.753 464.364C154.587 464.265 158 399.939 157.168 381.358C156.336 362.776 141.506 283.421 141.506 283.421H80.2611Z" fill="white"/>
</mask>
<g mask="url(#mask19)">
<path opacity="0.3" d="M141.911 302.48C141.911 302.48 141.073 317.678 117.84 317.678C94.6067 317.678 114.471 343.567 90.7382 349.556C85.6769 350.833 82.3219 353.163 80.0357 356.038C71.6012 366.647 78.537 281.485 78.537 281.485L141.911 279.835V302.48Z" fill="#151731"/>
<path opacity="0.3" d="M114.92 337.174L122.285 309.358C122.285 309.358 127.146 319.195 125.501 332.192C123.856 345.189 135.692 354.942 130.075 364.659C124.457 374.376 141.395 395.435 129.17 410.707C116.945 425.98 122.624 409.393 122.624 409.393L114.92 337.174Z" fill="#151731"/>
</g>
<path d="M127.287 188.225C119.437 185.713 103.189 184.896 85.1708 188.225C76.5943 189.81 69.8333 193.031 66.4981 201.006C63.1816 208.936 58.8821 217.764 57.1748 225.309C69.0366 230.85 79.2465 232.033 79.2465 232.033V257.463C79.2465 257.463 80.0942 276.318 78.0167 287.738C75.7658 300.11 74.787 308.9 74.8003 309.343C74.8976 312.603 76.4649 311.506 85.2957 312.906C94.1266 314.306 119.98 310.157 128.631 309.343C137.282 308.53 148.724 309.343 148.724 309.343L137.501 227.597L150.965 215.785L137.528 195.301C137.528 195.301 135.136 190.738 127.287 188.225Z" fill="url(#paint37_linear)"/>
<mask id="mask20" mask-type="alpha" maskUnits="userSpaceOnUse" x="57" y="186" width="94" height="128">
<path d="M127.287 188.225C119.437 185.713 103.189 184.896 85.1708 188.225C76.5943 189.81 69.8333 193.031 66.4981 201.006C63.1816 208.936 58.8821 217.764 57.1748 225.309C69.0366 230.85 79.2465 232.033 79.2465 232.033V257.463C79.2465 257.463 80.0942 276.318 78.0167 287.738C75.7658 300.11 74.787 308.9 74.8003 309.343C74.8976 312.603 76.4649 311.506 85.2957 312.906C94.1266 314.306 119.98 310.157 128.631 309.343C137.282 308.53 148.724 309.343 148.724 309.343L137.501 227.597L150.965 215.785L137.528 195.301C137.528 195.301 135.136 190.738 127.287 188.225Z" fill="white"/>
</mask>
<g mask="url(#mask20)">
<path opacity="0.5" d="M89.7585 213.663H135.166L136.222 218.821H86.3271L89.7585 213.663Z" fill="white"/>
<path opacity="0.5" d="M78.8159 230.855H169.602V236.325H78.8159V230.855Z" fill="white"/>
<rect opacity="0.5" x="47.1494" y="248.359" width="122.453" height="5.47009" fill="white"/>
<rect opacity="0.5" x="47.1494" y="265.863" width="122.453" height="5.47009" fill="white"/>
<path opacity="0.5" d="M47.1494 283.368L169.602 283.368V288.838H47.1494V283.368Z" fill="white"/>
<path opacity="0.5" d="M47.1494 300.872L169.602 300.872V306.342H47.1494V300.872Z" fill="white"/>
<path opacity="0.3" d="M137.508 239.505C137.508 239.505 137.544 221.35 134.369 210.267C134.369 210.267 140.09 213.65 140.966 224.886C141.842 236.123 147.486 225.33 151.101 237.935C154.715 250.54 163.841 242.281 165.978 245.653C168.116 249.026 154.715 255.708 154.715 255.708L137.508 239.505Z" fill="#373A5B"/>
<path opacity="0.3" d="M80.0942 185.553C80.0942 185.553 80.099 194.597 96.4676 194.597C112.836 194.597 113.082 177.12 113.082 177.12L80.0942 185.553Z" fill="#373A5B"/>
<path opacity="0.3" d="M66.2607 282.573C66.2607 282.573 69.0837 275.774 77.3397 272.534L76.6588 280.341L68.5411 283.788L66.2607 282.573Z" fill="#373A5B"/>
<path opacity="0.3" d="M78.0167 257.726C78.0167 257.726 100.587 257.251 111.991 256.557C123.394 255.863 126.134 254.798 126.134 254.798C126.134 254.798 110.68 260.263 105.28 260.263C99.8797 260.263 100.043 256.335 94.1267 264.486C88.2107 272.637 83.5141 262.246 78.0167 277.656C72.5194 293.067 78.0167 257.726 78.0167 257.726Z" fill="#373A5B"/>
<path opacity="0.3" d="M113.082 246.276L78.0166 241.296L78.5142 232.4L88.4466 215.372C88.4466 215.372 89.1948 217.873 85.2422 228.274C81.2897 238.675 91.6982 229.008 95.3532 235.802C99.0081 242.595 113.082 246.276 113.082 246.276Z" fill="#373A5B"/>
</g>
<path d="M102.292 146.132C108.408 143.611 121.674 140.597 124.636 147.684C127.599 154.771 131.09 163.596 125.679 167.24C120.267 170.883 116.807 176.461 111 174.846C105.193 173.232 100.716 178.137 100.716 178.137C100.716 178.137 97.549 177.731 96.7692 175.987C91.4835 164.163 93.9338 149.578 102.292 146.132Z" fill="url(#paint38_linear)"/>
<path d="M96.769 186.562C96.769 186.562 107.182 195.741 111 195.741C114.818 195.741 113.908 186.562 113.908 186.562L112.687 179.158L99.6783 172.322L96.769 186.562Z" fill="url(#paint39_linear)"/>
<mask id="mask21" mask-type="alpha" maskUnits="userSpaceOnUse" x="96" y="172" width="19" height="24">
<path d="M96.769 186.562C96.769 186.562 107.182 195.741 111 195.741C114.818 195.741 113.908 186.562 113.908 186.562L112.687 179.158L99.6783 172.322L96.769 186.562Z" fill="white"/>
</mask>
<g mask="url(#mask21)">
<path opacity="0.2" d="M99.3833 172.608C99.3833 172.608 101.749 187.454 111.826 188.637C121.903 189.82 121.126 182.18 121.126 182.18L99.3833 172.608Z" fill="#DA433D"/>
</g>
<path d="M121.182 155.965C121.182 155.965 124.089 163.646 123.724 166.821C122.415 178.193 119.792 183.879 116.102 183.879C109.022 183.879 101.288 180.22 99.5043 172.532C99.4849 172.448 99.4659 172.365 99.4474 172.283C99.2674 172.308 99.0834 172.322 98.8963 172.322C96.7342 172.322 94.9814 170.551 94.9814 168.367C94.9814 166.183 96.7342 164.412 98.8963 164.412C100.255 164.412 101.452 165.111 102.154 166.173C102.55 166.356 116.167 166.901 121.182 155.965Z" fill="url(#paint40_linear)"/>
<mask id="mask22" mask-type="alpha" maskUnits="userSpaceOnUse" x="94" y="155" width="30" height="29">
<path d="M121.182 155.965C121.182 155.965 124.089 163.646 123.724 166.821C122.415 178.193 119.792 183.879 116.102 183.879C109.022 183.879 101.288 180.22 99.5043 172.532C99.4849 172.448 99.4659 172.365 99.4474 172.283C99.2674 172.308 99.0834 172.322 98.8963 172.322C96.7342 172.322 94.9814 170.551 94.9814 168.367C94.9814 166.183 96.7342 164.412 98.8963 164.412C100.255 164.412 101.452 165.111 102.154 166.173C102.55 166.356 116.167 166.901 121.182 155.965Z" fill="white"/>
</mask>
<g mask="url(#mask22)">
<path opacity="0.2" d="M121.182 153.803C121.182 153.803 121.163 164.708 113.435 166.802C105.707 168.896 102.293 166.167 102.293 166.167C102.293 166.167 102.548 165.698 101.629 164.224C100.709 162.75 121.182 153.803 121.182 153.803Z" fill="#DA433D"/>
</g>
<path d="M162.143 249.267C157.766 249.898 149.633 247.347 137.743 241.614V224.617L150.708 216.21L158.092 225.722L177.491 202.798C179.013 199.339 180.005 196.184 181.531 194.376C183.972 191.484 181.537 186.737 184.221 186.737C184.735 186.737 186.426 187.886 186.691 189.28C186.901 190.382 186.901 191.673 186.691 193.153C190.279 193.5 192.497 194.182 193.346 195.199C194.678 196.795 194.119 203.239 193.346 205.359C192.267 208.318 190.854 208.318 187.82 209.244C187.075 209.471 186.03 209.985 184.684 210.784C174.002 235.812 166.488 248.64 162.143 249.267Z" fill="url(#paint41_linear)"/>
<mask id="mask23" mask-type="alpha" maskUnits="userSpaceOnUse" x="137" y="186" width="58" height="64">
<path d="M162.143 249.267C157.766 249.898 149.633 247.347 137.743 241.614V224.617L150.708 216.21L158.092 225.722L177.491 202.798C179.013 199.339 180.005 196.184 181.531 194.376C183.972 191.484 181.537 186.737 184.221 186.737C184.735 186.737 186.426 187.886 186.691 189.28C186.901 190.382 186.901 191.673 186.691 193.153C190.279 193.5 192.497 194.182 193.346 195.199C194.678 196.795 194.119 203.239 193.346 205.359C192.267 208.318 190.854 208.318 187.82 209.244C187.075 209.471 186.03 209.985 184.684 210.784C174.002 235.812 166.488 248.64 162.143 249.267Z" fill="white"/>
</mask>
<g mask="url(#mask23)">
<path opacity="0.2" d="M187.929 194.053C187.929 194.053 183.914 194.566 183.914 199.12C183.914 203.674 183.976 207.732 187.929 208.775C187.929 208.775 180.996 208.213 181.711 200.106C182.426 192 187.929 194.053 187.929 194.053Z" fill="#DA433D"/>
</g>
<path d="M126.342 219.497L116.049 267.658L150.612 266.907L161.647 219.497H126.342Z" fill="url(#paint42_linear)"/>
<path d="M61.5854 254.755C57.405 251.169 55.3732 241.461 58.8756 226.045C69.8209 230.822 78.8146 231.683 78.8146 231.683L75.3227 238.969L113.235 245.695C113.23 245.66 113.225 245.626 113.22 245.592C116.745 242.567 119.501 241.054 121.489 241.054L120.705 244.747C125.602 244.552 129.186 243.321 131.46 241.054C134.87 237.654 133.182 245.259 130.973 246.436C128.763 247.612 129.727 254.385 124.427 255.449C120.893 256.158 112.265 256.042 112.317 255.811C81.5414 257.97 65.6758 258.263 61.5854 254.755Z" fill="url(#paint43_linear)"/>
<mask id="mask24" mask-type="alpha" maskUnits="userSpaceOnUse" x="57" y="226" width="77" height="32">
<path d="M61.5854 254.755C57.405 251.169 55.3732 241.461 58.8756 226.045C69.8209 230.822 78.8146 231.683 78.8146 231.683L75.3227 238.969L113.235 245.695C113.23 245.66 113.225 245.626 113.22 245.592C116.745 242.567 119.501 241.054 121.489 241.054L120.705 244.747C125.602 244.552 129.186 243.321 131.46 241.054C134.87 237.654 133.182 245.259 130.973 246.436C128.763 247.612 129.727 254.385 124.427 255.449C120.893 256.158 112.265 256.042 112.317 255.811C81.5414 257.97 65.6758 258.263 61.5854 254.755Z" fill="white"/>
</mask>
<g mask="url(#mask24)">
<path opacity="0.2" d="M78.8816 232.102C78.8816 232.102 60.0511 231.743 57.1753 228.576C54.2994 225.41 60.6045 224.742 60.6045 224.742L78.8816 232.102Z" fill="#DA433D"/>
</g>
<defs>
<filter id="filter0_d" x="86" y="65.3169" width="286" height="266.8" filterUnits="userSpaceOnUse" color-interpolation-filters="sRGB">
<feFlood flood-opacity="0" result="BackgroundImageFix"/>
<feColorMatrix in="SourceAlpha" type="matrix" values="0 0 0 0 0 0 0 0 0 0 0 0 0 0 0 0 0 0 127 0"/>
<feOffset dy="26"/>
<feGaussianBlur stdDeviation="26.5"/>
<feColorMatrix type="matrix" values="0 0 0 0 0.306266 0 0 0 0 0.773996 0 0 0 0 0.759822 0 0 0 0.25 0"/>
<feBlend mode="normal" in2="BackgroundImageFix" result="effect1_dropShadow"/>
<feBlend mode="normal" in="SourceGraphic" in2="effect1_dropShadow" result="shape"/>
</filter>
<filter id="filter1_f" x="144.655" y="129.353" width="162.145" height="56.3182" filterUnits="userSpaceOnUse" color-interpolation-filters="sRGB">
<feFlood flood-opacity="0" result="BackgroundImageFix"/>
<feBlend mode="normal" in="SourceGraphic" in2="BackgroundImageFix" result="shape"/>
<feGaussianBlur stdDeviation="3.26194" result="effect1_foregroundBlur"/>
</filter>
<filter id="filter2_d" x="203" y="268" width="238" height="144" filterUnits="userSpaceOnUse" color-interpolation-filters="sRGB">
<feFlood flood-opacity="0" result="BackgroundImageFix"/>
<feColorMatrix in="SourceAlpha" type="matrix" values="0 0 0 0 0 0 0 0 0 0 0 0 0 0 0 0 0 0 127 0"/>
<feOffset dy="22"/>
<feGaussianBlur stdDeviation="22"/>
<feColorMatrix type="matrix" values="0 0 0 0 0.443137 0 0 0 0 0.65098 0 0 0 0 0.972549 0 0 0 0.252887 0"/>
<feBlend mode="normal" in2="BackgroundImageFix" result="effect1_dropShadow"/>
<feBlend mode="normal" in="SourceGraphic" in2="effect1_dropShadow" result="shape"/>
</filter>
<filter id="filter3_d" x="496" y="65" width="238" height="227" filterUnits="userSpaceOnUse" color-interpolation-filters="sRGB">
<feFlood flood-opacity="0" result="BackgroundImageFix"/>
<feColorMatrix in="SourceAlpha" type="matrix" values="0 0 0 0 0 0 0 0 0 0 0 0 0 0 0 0 0 0 127 0"/>
<feOffset dy="22"/>
<feGaussianBlur stdDeviation="22"/>
<feColorMatrix type="matrix" values="0 0 0 0 0.768627 0 0 0 0 0.494118 0 0 0 0 0.913725 0 0 0 0.25 0"/>
<feBlend mode="normal" in2="BackgroundImageFix" result="effect1_dropShadow"/>
<feBlend mode="normal" in="SourceGraphic" in2="effect1_dropShadow" result="shape"/>
</filter>
<linearGradient id="paint0_linear" x1="535.816" y1="590.619" x2="770.724" y2="70.8975" gradientUnits="userSpaceOnUse">
<stop stop-color="#FCEFFF"/>
<stop offset="1" stop-color="#C9E7FF"/>
</linearGradient>
<linearGradient id="paint1_linear" x1="127.636" y1="581.516" x2="326.339" y2="501.662" gradientUnits="userSpaceOnUse">
<stop stop-color="#FCEFFF"/>
<stop offset="1" stop-color="#C9E7FF"/>
</linearGradient>
<linearGradient id="paint2_linear" x1="175.145" y1="40.053" x2="102.104" y2="208.389" gradientUnits="userSpaceOnUse">
<stop stop-color="#39ABC5"/>
<stop offset="1" stop-color="#A8EB9D"/>
</linearGradient>
<linearGradient id="paint3_linear" x1="409.833" y1="397.764" x2="423.788" y2="292.574" gradientUnits="userSpaceOnUse">
<stop stop-color="#46E5F2"/>
<stop offset="1" stop-color="#9E66FF"/>
</linearGradient>
<linearGradient id="paint4_linear" x1="360.7" y1="370.216" x2="341.132" y2="402.216" gradientUnits="userSpaceOnUse">
<stop stop-color="#FFB782"/>
<stop offset="1" stop-color="#EB4878"/>
</linearGradient>
<linearGradient id="paint5_linear" x1="437.99" y1="154.451" x2="453.634" y2="122.243" gradientUnits="userSpaceOnUse">
<stop stop-color="#39ABC5"/>
<stop offset="1" stop-color="#A8EB9D"/>
</linearGradient>
<linearGradient id="paint6_linear" x1="212.741" y1="380.296" x2="248.16" y2="338.708" gradientUnits="userSpaceOnUse">
<stop stop-color="#FFCFAA"/>
<stop offset="1" stop-color="#FA6EB9"/>
</linearGradient>
<linearGradient id="paint7_linear" x1="210.726" y1="354.307" x2="208.754" y2="360.773" gradientUnits="userSpaceOnUse">
<stop stop-color="#E6AAFF"/>
<stop offset="1" stop-color="#3488ED"/>
</linearGradient>
<linearGradient id="paint8_linear" x1="398.965" y1="-13.3003" x2="370.063" y2="46.6231" gradientUnits="userSpaceOnUse">
<stop stop-color="#FFB782"/>
<stop offset="1" stop-color="#EB4878"/>
</linearGradient>
<linearGradient id="paint9_linear" x1="431.611" y1="57.9226" x2="450.163" y2="14.3371" gradientUnits="userSpaceOnUse">
<stop stop-color="#D4C4FF"/>
<stop offset="1" stop-color="#E4F6FF"/>
</linearGradient>
<linearGradient id="paint10_linear" x1="387.998" y1="17.8299" x2="381.793" y2="77.5969" gradientUnits="userSpaceOnUse">
<stop stop-color="#FFC5A2"/>
<stop offset="1" stop-color="#FA96B9" stop-opacity="0.509737"/>
</linearGradient>
<linearGradient id="paint11_linear" x1="478.788" y1="216.163" x2="508.95" y2="191.442" gradientUnits="userSpaceOnUse">
<stop stop-color="#FF9292"/>
<stop offset="1" stop-color="#FFB59D"/>
</linearGradient>
<linearGradient id="paint12_linear" x1="485.225" y1="186.923" x2="518.353" y2="156.035" gradientUnits="userSpaceOnUse">
<stop stop-color="#321847"/>
<stop offset="1" stop-color="#834A88"/>
</linearGradient>
<linearGradient id="paint13_linear" x1="398.337" y1="458.831" x2="405.071" y2="493.401" gradientUnits="userSpaceOnUse">
<stop stop-color="#CE8BA0"/>
<stop offset="1" stop-color="#875151"/>
</linearGradient>
<linearGradient id="paint14_linear" x1="541.466" y1="458.831" x2="533.258" y2="492.726" gradientUnits="userSpaceOnUse">
<stop stop-color="#CE8BA0"/>
<stop offset="1" stop-color="#875151"/>
</linearGradient>
<linearGradient id="paint15_linear" x1="400.262" y1="225.637" x2="416.461" y2="205.688" gradientUnits="userSpaceOnUse">
<stop stop-color="#FF9292"/>
<stop offset="1" stop-color="#FFB59D"/>
</linearGradient>
<linearGradient id="paint16_linear" x1="505.947" y1="300.425" x2="494.86" y2="280.794" gradientUnits="userSpaceOnUse">
<stop stop-color="#FF9292"/>
<stop offset="1" stop-color="#FFB59D"/>
</linearGradient>
<linearGradient id="paint17_linear" x1="503.213" y1="197.702" x2="357.017" y2="245.555" gradientUnits="userSpaceOnUse">
<stop stop-color="#404683"/>
<stop offset="1" stop-color="#373A5B"/>
</linearGradient>
<linearGradient id="paint18_linear" x1="534.769" y1="304.392" x2="563.696" y2="199.81" gradientUnits="userSpaceOnUse">
<stop stop-color="#5D63D3"/>
<stop offset="1" stop-color="#B986FF"/>
</linearGradient>
<linearGradient id="paint19_linear" x1="31.5393" y1="199.996" x2="37.8267" y2="114.132" gradientUnits="userSpaceOnUse">
<stop stop-color="#FF90D7"/>
<stop offset="1" stop-color="#906EFA"/>
</linearGradient>
<linearGradient id="paint20_linear" x1="65.9748" y1="152.637" x2="72.2622" y2="66.7726" gradientUnits="userSpaceOnUse">
<stop stop-color="#FF90D7"/>
<stop offset="1" stop-color="#906EFA"/>
</linearGradient>
<linearGradient id="paint21_linear" x1="598.016" y1="76.8811" x2="575.509" y2="156.886" gradientUnits="userSpaceOnUse">
<stop stop-color="#FFB782"/>
<stop offset="1" stop-color="#FF739C"/>
</linearGradient>
<linearGradient id="paint22_linear" x1="614.266" y1="463.774" x2="656.218" y2="381.875" gradientUnits="userSpaceOnUse">
<stop stop-color="#FFCFAA"/>
<stop offset="1" stop-color="#FA6EB9"/>
</linearGradient>
<linearGradient id="paint23_linear" x1="684.544" y1="454.921" x2="664.448" y2="491.397" gradientUnits="userSpaceOnUse">
<stop stop-color="#404683"/>
<stop offset="1" stop-color="#373A5B"/>
</linearGradient>
<linearGradient id="paint24_linear" x1="671.481" y1="482.016" x2="663.225" y2="460.314" gradientUnits="userSpaceOnUse">
<stop stop-color="#FF9292"/>
<stop offset="1" stop-color="#FFB59D"/>
</linearGradient>
<linearGradient id="paint25_linear" x1="721.33" y1="454.921" x2="699.694" y2="488.549" gradientUnits="userSpaceOnUse">
<stop stop-color="#404683"/>
<stop offset="1" stop-color="#373A5B"/>
</linearGradient>
<linearGradient id="paint26_linear" x1="704.28" y1="478.33" x2="698.237" y2="460.58" gradientUnits="userSpaceOnUse">
<stop stop-color="#FF9292"/>
<stop offset="1" stop-color="#FFB59D"/>
</linearGradient>
<linearGradient id="paint27_linear" x1="651.826" y1="195.591" x2="782.286" y2="232.275" gradientUnits="userSpaceOnUse">
<stop stop-color="#404683"/>
<stop offset="1" stop-color="#373A5B"/>
</linearGradient>
<linearGradient id="paint28_linear" x1="747.561" y1="147.322" x2="747.561" y2="254.223" gradientUnits="userSpaceOnUse">
<stop stop-color="#AF3053"/>
<stop offset="1" stop-color="#7A3343"/>
</linearGradient>
<linearGradient id="paint29_linear" x1="681.239" y1="406.853" x2="559.354" y2="303.929" gradientUnits="userSpaceOnUse">
<stop stop-color="#FFCFAA"/>
<stop offset="1" stop-color="#FA6EB9"/>
</linearGradient>
<linearGradient id="paint30_linear" x1="697.204" y1="177.599" x2="711.998" y2="192.273" gradientUnits="userSpaceOnUse">
<stop stop-color="#F68585"/>
<stop offset="1" stop-color="#FF9B92"/>
</linearGradient>
<linearGradient id="paint31_linear" x1="687.597" y1="207.349" x2="662.578" y2="182.312" gradientUnits="userSpaceOnUse">
<stop stop-color="#FF9292"/>
<stop offset="1" stop-color="#FFB59D"/>
</linearGradient>
<linearGradient id="paint32_linear" x1="670.796" y1="264.743" x2="665.747" y2="241.056" gradientUnits="userSpaceOnUse">
<stop stop-color="#FF9292"/>
<stop offset="1" stop-color="#FFB59D"/>
</linearGradient>
<linearGradient id="paint33_linear" x1="692.369" y1="277.39" x2="648.361" y2="256.387" gradientUnits="userSpaceOnUse">
<stop stop-color="#FF9292"/>
<stop offset="1" stop-color="#FFCFBF"/>
</linearGradient>
<linearGradient id="paint34_linear" x1="207.5" y1="458.265" x2="200.409" y2="493.99" gradientUnits="userSpaceOnUse">
<stop stop-color="#8BC1CE"/>
<stop offset="1" stop-color="#6974B1"/>
</linearGradient>
<linearGradient id="paint35_linear" x1="137.033" y1="458.265" x2="128.397" y2="493.267" gradientUnits="userSpaceOnUse">
<stop stop-color="#8BC1CE"/>
<stop offset="1" stop-color="#6974B1"/>
</linearGradient>
<linearGradient id="paint36_linear" x1="150.794" y1="194.099" x2="17.7727" y2="232.27" gradientUnits="userSpaceOnUse">
<stop stop-color="#3067AC"/>
<stop offset="1" stop-color="#4E679A"/>
</linearGradient>
<linearGradient id="paint37_linear" x1="124.557" y1="334.856" x2="197.222" y2="224.518" gradientUnits="userSpaceOnUse">
<stop stop-color="#39ABC5"/>
<stop offset="1" stop-color="#A8EB9D"/>
</linearGradient>
<linearGradient id="paint38_linear" x1="120.844" y1="192.218" x2="153.519" y2="155.192" gradientUnits="userSpaceOnUse">
<stop stop-color="#FFA77B"/>
<stop offset="1" stop-color="#FFE6CA"/>
</linearGradient>
<linearGradient id="paint39_linear" x1="99.6571" y1="170.866" x2="84.6555" y2="186.889" gradientUnits="userSpaceOnUse">
<stop stop-color="#F68585"/>
<stop offset="1" stop-color="#FF9B92"/>
</linearGradient>
<linearGradient id="paint40_linear" x1="110.129" y1="197.868" x2="131.961" y2="172.906" gradientUnits="userSpaceOnUse">
<stop stop-color="#FF9292"/>
<stop offset="1" stop-color="#FFB59D"/>
</linearGradient>
<linearGradient id="paint41_linear" x1="167.426" y1="280.744" x2="216.846" y2="231.386" gradientUnits="userSpaceOnUse">
<stop stop-color="#FF9292"/>
<stop offset="1" stop-color="#FFB59D"/>
</linearGradient>
<linearGradient id="paint42_linear" x1="116.049" y1="219.497" x2="116.049" y2="267.658" gradientUnits="userSpaceOnUse">
<stop stop-color="#A3EDED"/>
<stop offset="1" stop-color="#9FCFFF"/>
</linearGradient>
<linearGradient id="paint43_linear" x1="96.8385" y1="270.677" x2="108.231" y2="232.736" gradientUnits="userSpaceOnUse">
<stop stop-color="#FF9292"/>
<stop offset="1" stop-color="#FFB59D"/>
</linearGradient>
</defs>
</svg>
