<svg width="301" height="315" viewBox="0 0 301 315" fill="none" xmlns="http://www.w3.org/2000/svg">
<path d="M280.221 190.566V303.472C280.221 306.262 278.495 309.507 276.542 311.425C274.571 313.36 271.292 315 268.502 315H236.622H204.708C201.935 315 198.638 313.308 196.72 311.425C194.714 309.454 193.04 306.228 193.04 303.386V190.566C188.017 189.624 183.501 187.148 180.03 183.659C175.321 178.951 172.758 172.654 172.758 166.062V103.837C172.758 94.7516 176.455 86.4847 182.437 80.5028C188.419 74.5203 196.667 70.8055 205.753 70.8055H209.381C205.51 65.3643 203.243 58.7192 203.243 51.5689V20.7359C203.243 15.0505 205.579 9.87082 209.329 6.10436C213.096 2.33728 218.275 0 223.961 0H249.301C254.986 0 260.166 2.33728 263.933 6.10436C267.682 9.87082 270.02 15.0505 270.02 20.7359V51.5696C270.02 58.7198 267.752 65.365 263.881 70.8061H267.508C276.595 70.8061 284.843 74.5209 290.826 80.5034C296.807 86.4853 300.522 94.7516 300.522 103.838V166.063C300.522 172.935 297.732 179.161 293.232 183.66C289.761 187.148 285.244 189.624 280.221 190.566ZM49.8426 145.885C51.6385 144.089 54.5688 144.089 56.3653 145.885C58.1612 147.681 58.1612 150.611 56.3653 152.408L39.658 169.132C37.8443 170.929 34.9318 170.929 33.1353 169.132L22.48 158.477C20.6836 156.681 20.6836 153.75 22.48 151.954C24.2938 150.158 27.2063 150.158 29.02 151.954L36.3966 159.331L49.8426 145.885ZM49.8426 237.723C51.6385 235.927 54.5688 235.927 56.3653 237.723C58.1612 239.521 58.1612 242.45 56.3653 244.247L39.658 260.972C37.8443 262.768 34.9318 262.768 33.1353 260.972L22.48 250.316C20.6836 248.52 20.6836 245.59 22.48 243.793C24.2938 241.998 27.2063 241.998 29.02 243.793L36.3966 251.171L49.8426 237.723ZM49.8426 54.0465C51.6385 52.25 54.5688 52.25 56.3653 54.0465C58.1612 55.843 58.1612 58.7727 56.3653 60.5686L39.658 77.2759C37.8443 79.0896 34.9318 79.0896 33.1353 77.2759L22.48 66.6373C20.6836 64.8414 20.6836 61.911 22.48 60.1146C24.2938 58.3187 27.2063 58.3187 29.02 60.1146L36.3966 67.4918L49.8426 54.0465ZM260.794 41.9781C253.277 43.1981 240.232 43.4257 229.612 33.7813C225.984 35.9783 219.915 38.6121 212.468 37.7575V51.5696C212.468 58.2147 215.189 64.2483 219.566 68.6263C223.943 73.0209 229.995 75.7409 236.622 75.7409C243.267 75.7409 249.301 73.0203 253.696 68.6263C258.073 64.2489 260.794 58.2147 260.794 51.5696V41.9781ZM212.468 28.4626C217.683 29.4039 223.158 27.7126 227.117 24.2587C229.036 22.5846 231.948 22.7938 233.622 24.7121C242.569 35.0025 255.073 33.8508 260.794 32.6302V20.7359C260.794 17.5619 259.503 14.6844 257.41 12.5914C255.335 10.5162 252.475 9.22544 249.301 9.22544H223.961C220.787 9.22544 217.926 10.5162 215.851 12.5914C213.759 14.6844 212.468 17.5619 212.468 20.7359V28.4626ZM219.217 80.0322H205.753C199.213 80.0322 193.267 82.7177 188.959 87.0255C184.495 91.5075 181.948 97.5066 181.948 103.837V166.046C181.948 170.179 183.588 174.208 186.552 177.172C189.36 179.997 193.266 181.759 197.591 181.759H205.334V116.255C205.334 113.708 207.41 111.633 209.956 111.633C212.503 111.633 214.56 113.708 214.56 116.255V181.759H258.7V116.255C258.7 113.708 260.758 111.633 263.304 111.633C265.85 111.633 267.925 113.708 267.925 116.255V181.759H275.669C279.994 181.759 283.883 179.997 286.708 177.172C289.551 174.347 291.294 170.406 291.294 166.063V103.837C291.294 97.2975 288.626 91.35 284.301 87.0255C279.993 82.7177 274.046 80.0322 267.506 80.0322H254.025C248.951 83.1538 243.004 84.9676 236.621 84.9676C230.256 84.9676 224.292 83.1538 219.217 80.0322ZM92.2384 234.236C89.6919 234.236 87.6168 232.178 87.6168 229.632C87.6168 227.086 89.6919 225.01 92.2384 225.01H149.806C152.353 225.01 154.411 227.085 154.411 229.632C154.411 232.178 152.353 234.236 149.806 234.236H92.2384ZM92.2384 273.667C89.6919 273.667 87.6168 271.609 87.6168 269.063C87.6168 266.516 89.6919 264.441 92.2384 264.441H131.076C133.623 264.441 135.698 266.516 135.698 269.063C135.698 271.609 133.623 273.667 131.076 273.667H92.2384ZM92.2384 253.96C89.6919 253.96 87.6168 251.885 87.6168 249.338C87.6168 246.792 89.6919 244.735 92.2384 244.735H149.806C152.353 244.735 154.411 246.793 154.411 249.338C154.411 251.885 152.353 253.96 149.806 253.96H92.2384ZM92.2384 142.397C89.6919 142.397 87.6168 140.339 87.6168 137.793C87.6168 135.247 89.6919 133.172 92.2384 133.172H149.806C152.353 133.172 154.411 135.247 154.411 137.793C154.411 140.34 152.353 142.397 149.806 142.397H92.2384ZM92.2384 181.828C89.6919 181.828 87.6168 179.77 87.6168 177.224C87.6168 174.678 89.6919 172.603 92.2384 172.603H131.076C133.623 172.603 135.698 174.678 135.698 177.224C135.698 179.771 133.623 181.828 131.076 181.828H92.2384ZM92.2384 162.122C89.6919 162.122 87.6168 160.046 87.6168 157.5C87.6168 154.954 89.6919 152.896 92.2384 152.896H149.806C152.353 152.896 154.411 154.954 154.411 157.5C154.411 160.046 152.353 162.122 149.806 162.122H92.2384ZM92.2384 50.5587C89.6919 50.5587 87.6168 48.5008 87.6168 45.9549C87.6168 43.4085 89.6919 41.3333 92.2384 41.3333H149.806C152.353 41.3333 154.411 43.4085 154.411 45.9549C154.411 48.5014 152.353 50.5587 149.806 50.5587H92.2384ZM92.2384 89.9903C89.6919 89.9903 87.6168 87.9324 87.6168 85.3865C87.6168 82.8229 89.6919 80.7649 92.2384 80.7649H131.076C133.623 80.7649 135.698 82.8229 135.698 85.3865C135.698 87.933 133.623 89.9903 131.076 89.9903H92.2384ZM92.2384 70.2825C89.6919 70.2825 87.6168 68.2073 87.6168 65.6609C87.6168 63.1144 89.6919 61.0571 92.2384 61.0571H149.806C152.353 61.0571 154.411 63.115 154.411 65.6609C154.411 68.2067 152.353 70.2825 149.806 70.2825H92.2384ZM0 218.488C0 213.761 3.85383 209.924 8.56283 209.924H70.2819C75.0081 209.924 78.8626 213.761 78.8626 218.488V280.207C78.8626 284.916 74.9909 288.769 70.2819 288.769H8.56283C3.87167 288.769 0 284.898 0 280.207V218.488ZM69.6193 219.15H9.22544V279.544H69.6193V219.15ZM0 34.8106C0 30.1016 3.87167 26.2299 8.56283 26.2299H70.2819C74.9909 26.2299 78.8626 30.1016 78.8626 34.8106V96.5297C78.8626 101.239 74.9909 105.092 70.2819 105.092H8.56283C3.85383 105.092 0 101.239 0 96.5297V34.8106ZM69.6193 35.4732H9.22544V95.8671H69.6193V35.4732ZM0 126.649C0 121.94 3.85383 118.086 8.56283 118.086H70.2819C75.0081 118.086 78.8626 121.922 78.8626 126.649V188.369C78.8626 193.078 75.0081 196.932 70.2819 196.932H8.56283C3.85383 196.932 0 193.078 0 188.369V126.649ZM69.6193 127.312H9.22544V187.706H69.6193V127.312ZM232.018 305.775V211.546C232.018 209 234.076 206.943 236.622 206.943C239.185 206.943 241.243 209.001 241.243 211.546V305.775H268.292C269.635 305.53 270.734 304.536 270.995 303.194V190.985C248.079 190.985 225.181 190.985 202.266 190.985V303.194C202.527 304.537 203.626 305.53 204.969 305.775H232.018Z" fill="url(#paint0_linear)"/>
<defs>
<linearGradient id="paint0_linear" x1="-344.925" y1="-75.6" x2="2.0495e-05" y2="711.9" gradientUnits="userSpaceOnUse">
<stop stop-color="#FFC300"/>
<stop offset="1" stop-color="#FF00FF"/>
</linearGradient>
</defs>
</svg>
