<svg width="150" height="150" viewBox="0 0 150 150" fill="none" xmlns="http://www.w3.org/2000/svg">
<path d="M50.7079 99.3979C50.7137 99.4521 50.724 99.5049 50.7339 99.5576C50.7375 99.5755 50.7391 99.5934 50.743 99.6109C50.7568 99.6739 50.7745 99.7355 50.7942 99.7961C50.7964 99.8034 50.798 99.8113 50.8006 99.8187C50.8215 99.8808 50.846 99.9414 50.8724 100.001C50.8753 100.008 50.8773 100.014 50.8802 100.021C50.9062 100.078 50.9359 100.133 50.9668 100.188C50.9719 100.197 50.9761 100.206 50.9813 100.215C51.0112 100.266 51.0444 100.314 51.0782 100.363C51.0869 100.375 51.094 100.388 51.103 100.4C51.1362 100.445 51.1726 100.488 51.2093 100.531C51.2212 100.545 51.2318 100.559 51.2444 100.573C51.2901 100.624 51.3391 100.672 51.3896 100.719C51.3945 100.723 51.3983 100.728 51.4032 100.732L76.0555 123.159C76.0613 123.164 76.0678 123.169 76.0739 123.174C76.1241 123.219 76.176 123.262 76.2304 123.303C76.2478 123.316 76.2665 123.327 76.2842 123.34C76.3289 123.371 76.3734 123.403 76.4204 123.431C76.4362 123.441 76.4529 123.449 76.469 123.458C76.5196 123.488 76.5705 123.517 76.6236 123.542C76.6355 123.548 76.6478 123.553 76.6597 123.558C76.718 123.585 76.7766 123.611 76.8374 123.635C76.8458 123.638 76.8548 123.64 76.8635 123.643C76.9279 123.667 76.993 123.689 77.0597 123.707C77.068 123.71 77.0771 123.711 77.0854 123.713C77.1521 123.731 77.2194 123.747 77.2883 123.76C77.3073 123.763 77.3266 123.765 77.3456 123.768C77.4042 123.777 77.4625 123.786 77.5224 123.792C77.6023 123.799 77.6828 123.803 77.7636 123.803H144.352C147.46 123.803 149.988 121.503 149.988 118.676V78.659C149.988 77.4453 148.907 76.4618 147.573 76.4618C146.239 76.4618 145.158 77.4453 145.158 78.659V118.676C145.158 119.08 144.796 119.408 144.352 119.408H80.1786V102.108C80.1786 99.2813 77.6503 96.9813 74.5429 96.9813H55.5263V52.0912H62.0792C65.1866 52.0912 67.7149 49.7911 67.7149 46.9643V17.298C67.7149 16.0186 67.1936 14.85 66.3385 13.9509C66.277 13.8817 66.2113 13.8146 66.1392 13.7513C65.1128 12.7796 63.674 12.1708 62.0789 12.1708H55.5263V5.12694C55.5263 4.72294 55.8876 4.39452 56.3314 4.39452H144.352C144.796 4.39452 145.157 4.72294 145.157 5.12694V69.87C145.157 71.0837 146.239 72.0672 147.573 72.0672C148.906 72.0672 149.988 71.0837 149.988 69.87V5.12694C149.988 2.30009 147.46 0 144.352 0H56.3314C53.224 0 50.6956 2.30009 50.6956 5.12694V12.1711H5.6473C4.05255 12.1711 2.61334 12.7796 1.58699 13.7516C1.51517 13.8149 1.44947 13.8817 1.38764 13.9511C0.532618 14.8503 0.0112305 16.0189 0.0112305 17.2983V46.9646C0.0112305 49.7914 2.53959 52.0915 5.64698 52.0915H50.6956V99.1785C50.6956 99.2521 50.6998 99.3253 50.7079 99.3979ZM60.3038 16.5656L53.7386 24.1031C53.2778 24.6325 52.5879 24.9357 51.8456 24.9357H15.8809C15.1386 24.9357 14.4487 24.6325 13.9879 24.1031L7.42272 16.5656H60.3038ZM4.8422 46.9643V20.6792L10.2016 26.8321C11.5842 28.4194 13.6543 29.3296 15.8809 29.3296H51.8456C54.0722 29.3296 56.1423 28.4194 57.5249 26.8321L62.8843 20.6792V46.964C62.8843 47.368 62.523 47.6964 62.0792 47.6964H53.1422C53.1316 47.6964 53.1216 47.6949 53.1109 47.6949C53.1003 47.6949 53.0903 47.6961 53.0797 47.6964H5.6473C5.20353 47.6967 4.8422 47.3683 4.8422 46.9643ZM75.348 102.108V116.3L58.9419 101.376H74.5429C74.9867 101.376 75.348 101.704 75.348 102.108Z" fill="url(#paint0_linear)"/>
<path d="M40.0527 93.2112H27.447L42.1904 69.5464C43.476 67.4824 43.4599 65.0268 42.1469 62.9771C40.8343 60.9278 38.4937 59.7041 35.8864 59.7041H10.7171C8.10989 59.7041 5.76928 60.9278 4.45663 62.9771C3.14366 65.0268 3.12756 67.4824 4.41316 69.5464L19.1566 93.2112H6.55088C2.94496 93.2112 0.0114746 95.8798 0.0114746 99.1602V109.713C0.0114746 110.926 1.09289 111.91 2.4268 111.91C3.7607 111.91 4.84212 110.926 4.84212 109.713V99.1602C4.84212 98.303 5.60858 97.6057 6.55088 97.6057H40.053C40.9953 97.6057 41.7618 98.303 41.7618 99.1602V144.051C41.7618 144.908 40.9953 145.606 40.053 145.606H6.55088C5.60858 145.606 4.84212 144.908 4.84212 144.051V118.502C4.84212 117.288 3.7607 116.304 2.4268 116.304C1.09289 116.304 0.0114746 117.288 0.0114746 118.502V144.051C0.0114746 147.331 2.94496 150 6.55088 150H40.053C43.6589 150 46.5924 147.331 46.5924 144.051V99.1602C46.5921 95.8801 43.6586 93.2112 40.0527 93.2112ZM8.63031 65.1896C8.8406 64.8618 9.4644 64.0986 10.7171 64.0986H35.8867C37.1395 64.0986 37.7636 64.8615 37.9736 65.1896C38.1835 65.5178 38.6057 66.3879 37.9881 67.3796L23.3019 90.9521L8.61582 67.3793C7.99814 66.3879 8.42001 65.5178 8.63031 65.1896Z" fill="url(#paint1_linear)"/>
<path d="M23.3021 104.216C17.3069 104.216 12.4296 108.653 12.4296 114.107C12.4296 119.561 17.3069 123.998 23.3021 123.998C29.2972 123.998 34.1745 119.561 34.1745 114.107C34.1745 108.653 29.2969 104.216 23.3021 104.216ZM23.3021 119.603C19.9705 119.603 17.2602 117.137 17.2602 114.106C17.2602 111.076 19.9705 108.61 23.3021 108.61C26.6336 108.61 29.3439 111.076 29.3439 114.106C29.3439 117.137 26.6336 119.603 23.3021 119.603Z" fill="url(#paint2_linear)"/>
<path d="M28.7616 129.634H17.8424C16.5085 129.634 15.4271 130.617 15.4271 131.831C15.4271 133.045 16.5085 134.028 17.8424 134.028H28.7616C30.0955 134.028 31.177 133.045 31.177 131.831C31.177 130.617 30.0955 129.634 28.7616 129.634Z" fill="url(#paint3_linear)"/>
<path d="M145.351 132.922V132.165C145.351 129.311 142.8 126.99 139.663 126.99H110.532C109.198 126.99 108.116 127.973 108.116 129.187C108.116 130.401 109.198 131.385 110.532 131.385H139.663C140.136 131.385 140.521 131.735 140.521 132.165V132.83H111.623C109.984 132.83 108.609 133.859 108.226 135.243H57.4811C53.7399 135.243 50.6963 138.012 50.6963 141.415C50.6963 144.818 53.7399 147.587 57.4811 147.587H108.226C108.609 148.971 109.984 149.999 111.623 149.999H144.301C147.437 149.999 149.989 147.678 149.989 144.825V138.005C149.989 135.478 147.987 133.373 145.351 132.922ZM108.116 143.193H65.4568V139.637H108.116V143.193ZM55.5269 141.415C55.5269 140.435 56.4035 139.637 57.4811 139.637H60.6265V143.193H57.4811C56.4035 143.193 55.5269 142.395 55.5269 141.415ZM145.158 144.825C145.158 145.255 144.773 145.605 144.301 145.605H112.947V137.225H144.301C144.773 137.225 145.158 137.575 145.158 138.005V144.825Z" fill="url(#paint4_linear)"/>
<path d="M113.231 110.382H133.44C134.774 110.382 135.855 109.398 135.855 108.185C135.855 106.971 134.774 105.987 133.44 105.987H113.231C111.898 105.987 110.816 106.971 110.816 108.185C110.816 109.398 111.898 110.382 113.231 110.382Z" fill="url(#paint5_linear)"/>
<path d="M120.781 88.6442L114.305 92.3429C112.896 93.1471 112.055 94.5308 112.055 96.0437C112.055 97.5568 112.896 98.9405 114.305 99.7453L120.782 103.444C121.558 103.887 122.446 104.109 123.336 104.109C124.225 104.108 125.114 103.887 125.89 103.444L132.367 99.745C133.776 98.9405 134.616 97.5568 134.616 96.0437C134.616 94.5308 133.775 93.1471 132.367 92.3429L125.89 88.6442C124.338 87.7579 122.333 87.7579 120.781 88.6442ZM129.762 96.0442L123.35 99.7222L116.91 96.044L123.336 92.3742L129.762 96.0442Z" fill="url(#paint6_linear)"/>
<path d="M87.452 16.4302C88.7859 16.4302 89.8673 15.4467 89.8673 14.2329C89.8673 13.0191 88.7859 12.0356 87.452 12.0356H82.5296C80.3097 12.0356 78.504 13.6783 78.504 15.6977V23.4599C78.504 25.4794 80.3097 27.122 82.5296 27.122H118.154C120.374 27.122 122.179 25.4794 122.179 23.4599V15.6977C122.179 13.6783 120.374 12.0356 118.154 12.0356H97.1133C95.7794 12.0356 94.698 13.0191 94.698 14.2329C94.698 15.4467 95.7794 16.4302 97.1133 16.4302H117.349V22.7275H83.3347V16.4302H87.452Z" fill="url(#paint7_linear)"/>
<path d="M76.6427 43.2222C76.6427 44.4359 77.7241 45.4194 79.058 45.4194H121.626C122.96 45.4194 124.041 44.4359 124.041 43.2222C124.041 42.0084 122.96 41.0249 121.626 41.0249H79.058C77.7241 41.0249 76.6427 42.0087 76.6427 43.2222Z" fill="url(#paint8_linear)"/>
<path d="M79.058 57.052H121.626C122.96 57.052 124.041 56.0685 124.041 54.8547C124.041 53.641 122.96 52.6575 121.626 52.6575H79.058C77.7241 52.6575 76.6427 53.641 76.6427 54.8547C76.6427 56.0685 77.7241 57.052 79.058 57.052Z" fill="url(#paint9_linear)"/>
<path d="M79.058 68.6851H121.626C122.96 68.6851 124.041 67.7016 124.041 66.4878C124.041 65.274 122.96 64.2905 121.626 64.2905H79.058C77.7241 64.2905 76.6427 65.274 76.6427 66.4878C76.6427 67.7016 77.7241 68.6851 79.058 68.6851Z" fill="url(#paint10_linear)"/>
<defs>
<linearGradient id="paint0_linear" x1="-299.924" y1="65.5136" x2="9.44173" y2="433.598" gradientUnits="userSpaceOnUse">
<stop stop-color="#FFC300"/>
<stop offset="1" stop-color="#FF00FF"/>
</linearGradient>
<linearGradient id="paint1_linear" x1="-93.1447" y1="107.487" x2="91.5489" y2="201.064" gradientUnits="userSpaceOnUse">
<stop stop-color="#FFC300"/>
<stop offset="1" stop-color="#FF00FF"/>
</linearGradient>
<linearGradient id="paint2_linear" x1="-31.0578" y1="114.684" x2="18.9757" y2="168.701" gradientUnits="userSpaceOnUse">
<stop stop-color="#FFC300"/>
<stop offset="1" stop-color="#FF00FF"/>
</linearGradient>
<linearGradient id="paint3_linear" x1="-16.0706" y1="131.959" x2="-10.2098" y2="152.589" gradientUnits="userSpaceOnUse">
<stop stop-color="#FFC300"/>
<stop offset="1" stop-color="#FF00FF"/>
</linearGradient>
<linearGradient id="paint4_linear" x1="-147.877" y1="139.166" x2="-121.786" y2="249.746" gradientUnits="userSpaceOnUse">
<stop stop-color="#FFC300"/>
<stop offset="1" stop-color="#FF00FF"/>
</linearGradient>
<linearGradient id="paint5_linear" x1="60.7409" y1="108.313" x2="64.6016" y2="129.918" gradientUnits="userSpaceOnUse">
<stop stop-color="#FFC300"/>
<stop offset="1" stop-color="#FF00FF"/>
</linearGradient>
<linearGradient id="paint6_linear" x1="66.9357" y1="96.5147" x2="105.871" y2="150.004" gradientUnits="userSpaceOnUse">
<stop stop-color="#FFC300"/>
<stop offset="1" stop-color="#FF00FF"/>
</linearGradient>
<linearGradient id="paint7_linear" x1="-8.84157" y1="20.019" x2="15.1139" y2="88.1331" gradientUnits="userSpaceOnUse">
<stop stop-color="#FFC300"/>
<stop offset="1" stop-color="#FF00FF"/>
</linearGradient>
<linearGradient id="paint8_linear" x1="-18.1481" y1="43.3504" x2="-16.062" y2="65.4486" gradientUnits="userSpaceOnUse">
<stop stop-color="#FFC300"/>
<stop offset="1" stop-color="#FF00FF"/>
</linearGradient>
<linearGradient id="paint9_linear" x1="-18.1481" y1="54.983" x2="-16.062" y2="77.0811" gradientUnits="userSpaceOnUse">
<stop stop-color="#FFC300"/>
<stop offset="1" stop-color="#FF00FF"/>
</linearGradient>
<linearGradient id="paint10_linear" x1="-18.1481" y1="66.616" x2="-16.062" y2="88.7142" gradientUnits="userSpaceOnUse">
<stop stop-color="#FFC300"/>
<stop offset="1" stop-color="#FF00FF"/>
</linearGradient>
</defs>
</svg>
