<svg width="18" height="16" viewBox="0 0 18 16" fill="none" xmlns="http://www.w3.org/2000/svg">
<path d="M0.42417 15.8124H3.77176V4.65456H0.42417V15.8124ZM13.4659 4.26806C11.8412 4.26806 10.3875 4.86136 9.35632 6.17094V4.61786H5.99646V15.8125H9.35632V9.75873C9.35632 8.47934 10.5284 7.23125 11.9966 7.23125C13.4648 7.23125 13.8268 8.47934 13.8268 9.72743V15.8114H17.1744V9.47828C17.1743 5.07922 15.0916 4.26806 13.4659 4.26806ZM2.08232 3.53951C3.00749 3.53951 3.75839 2.78862 3.75839 1.86344C3.75839 0.938269 3.00749 0.1875 2.08232 0.1875C1.15714 0.1875 0.40625 0.938391 0.40625 1.86357C0.40625 2.78874 1.15714 3.53951 2.08232 3.53951Z" fill="white"/>
</svg>
