<svg width="150" height="150" viewBox="0 0 150 150" fill="none" xmlns="http://www.w3.org/2000/svg">
<path d="M72.041 16.1631H53.9063C53.0977 16.1631 52.4414 15.5068 52.4414 14.6982C52.4414 13.8896 53.0977 13.2334 53.9063 13.2334H72.041C72.8496 13.2334 73.5059 13.8896 73.5059 14.6982C73.5059 15.5068 72.8496 16.1631 72.041 16.1631Z" fill="url(#paint0_linear)" stroke="#FF667A"/>
<path d="M96.5098 16.1631H72.041C71.2318 16.1631 70.5762 15.5068 70.5762 14.6982C70.5762 13.8896 71.2318 13.2334 72.041 13.2334H96.5098C97.3184 13.2334 97.9746 13.8896 97.9746 14.6982C97.9746 15.5068 97.3184 16.1631 96.5098 16.1631Z" fill="url(#paint1_linear)" stroke="#FF667A"/>
<path d="M120.984 16.1631H96.5098C95.7012 16.1631 95.0449 15.5068 95.0449 14.6982C95.0449 13.8896 95.7012 13.2334 96.5098 13.2334H120.984C121.793 13.2334 122.449 13.8896 122.449 14.6982C122.449 15.5068 121.793 16.1631 120.984 16.1631Z" fill="url(#paint2_linear)" stroke="#FF667A"/>
<path d="M137.256 16.1631H120.984C120.176 16.1631 119.52 15.5068 119.52 14.6982C119.52 13.8896 120.176 13.2334 120.984 13.2334H137.256C138.065 13.2334 138.721 13.8896 138.721 14.6982C138.721 15.5068 138.065 16.1631 137.256 16.1631Z" fill="url(#paint3_linear)" stroke="#FF667A"/>
<path d="M145.459 23.7568H141.288L146.685 15.4998C147.004 15.0129 147.004 14.3836 146.685 13.8973L139.806 3.37382C139.536 2.95956 139.075 2.71054 138.58 2.71054C131.434 2.71054 67.7326 2.71054 58.8516 2.71054C58.043 2.71054 57.3867 3.36679 57.3867 4.17538C57.3867 4.98398 58.043 5.64023 58.8516 5.64023H58.858H64.3652L70.2891 14.6988L64.3652 23.7574C55.6113 23.7574 13.2908 23.7574 4.54102 23.7574C3.73184 23.7574 3.07617 24.4131 3.07617 25.2223C3.07617 26.0314 3.73184 26.6871 4.54102 26.6871H145.459C146.268 26.6871 146.924 26.0314 146.924 25.2223C146.924 24.4131 146.268 23.7568 145.459 23.7568ZM88.841 23.7568H67.8691L73.2656 15.501C73.3119 15.4301 73.3371 15.351 73.3699 15.2742C73.5299 14.9039 73.5299 14.492 73.3699 14.1217C73.3371 14.0455 73.3119 13.9664 73.2656 13.8949L67.8691 5.63906H88.841L94.7625 14.6976L88.841 23.7568ZM97.7391 15.4998C98.0572 15.0129 98.0572 14.3836 97.7391 13.8973L92.3414 5.64023H113.314L119.236 14.6988L113.314 23.7574H92.3414L97.7391 15.4998ZM116.814 23.7568L122.212 15.4998C122.53 15.0129 122.53 14.3836 122.212 13.8973L116.814 5.64023H137.787L143.709 14.6988L137.787 23.7574L116.814 23.7568Z" fill="url(#paint4_linear)" stroke="#FF6A74"/>
<path d="M104.443 66.8877C105.252 66.8877 105.908 66.2319 105.908 65.4229C105.908 64.6138 105.252 63.958 104.443 63.958C103.634 63.958 102.979 64.6138 102.979 65.4229C102.979 66.2319 103.634 66.8877 104.443 66.8877Z" fill="url(#paint5_linear)"/>
<path d="M145.459 63.958H110.303C109.494 63.958 108.838 64.6143 108.838 65.4229C108.838 66.2314 109.494 66.8877 110.303 66.8877H145.459C146.268 66.8877 146.924 66.2314 146.924 65.4229C146.924 64.6143 146.268 63.958 145.459 63.958Z" fill="url(#paint6_linear)" stroke="#FF6A74"/>
<path d="M145.459 144.36H4.54102C3.73184 144.36 3.07617 145.016 3.07617 145.825C3.07617 146.634 3.73184 147.29 4.54102 147.29H145.459C146.268 147.29 146.924 146.634 146.924 145.825C146.924 145.016 146.268 144.36 145.459 144.36Z" fill="url(#paint7_linear)" stroke="#FF6A74"/>
<path d="M39.9902 107.089C40.7992 107.089 41.4551 106.433 41.4551 105.624C41.4551 104.815 40.7992 104.159 39.9902 104.159C39.1812 104.159 38.5254 104.815 38.5254 105.624C38.5254 106.433 39.1812 107.089 39.9902 107.089Z" fill="url(#paint8_linear)"/>
<path d="M145.459 104.159H120.153L128.096 91.1115C128.63 91.2733 129.196 91.3623 129.783 91.3623C133.003 91.3623 135.622 88.7432 135.622 85.5235C135.622 82.3037 133.003 79.6846 129.783 79.6846C126.563 79.6846 123.944 82.3037 123.944 85.5235C123.944 87.1014 124.576 88.5322 125.596 89.584L116.723 104.159H99.8924L87.8713 66.8877H98.5834C99.392 66.8877 100.048 66.2315 100.048 65.4229C100.048 64.6143 99.392 63.958 98.5834 63.958H86.9268L82.5035 50.2436C84.1295 49.2059 85.2123 47.3901 85.2123 45.3229C85.2123 42.1031 82.5932 39.484 79.3734 39.484C76.1537 39.484 73.5346 42.1031 73.5346 45.3229C73.5346 46.8141 74.1012 48.1717 75.024 49.2047L65.1861 63.9586H4.54102C3.73242 63.9586 3.07617 64.6149 3.07617 65.4235C3.07617 66.2321 3.73242 66.8883 4.54102 66.8883H63.2332L54.4811 80.0139C53.8805 79.8047 53.2383 79.6852 52.5674 79.6852C49.3477 79.6852 46.7285 82.3043 46.7285 85.524C46.7285 88.7438 49.3477 91.3629 52.5674 91.3629C55.7871 91.3629 58.4062 88.7438 58.4062 85.524C58.4062 84.0328 57.8396 82.6746 56.9168 81.6422L66.7547 66.8883H84.7945L96.8156 104.16H45.8496C45.041 104.16 44.3848 104.816 44.3848 105.625C44.3848 106.433 45.041 107.089 45.8496 107.089H97.7602L102.183 120.803C100.556 121.84 99.4711 123.656 99.4711 125.725C99.4711 128.945 102.09 131.564 105.31 131.564C108.53 131.564 111.149 128.945 111.149 125.725C111.149 124.147 110.517 122.716 109.497 121.665L118.37 107.089H145.46C146.268 107.089 146.924 106.433 146.924 105.625C146.924 104.815 146.268 104.159 145.459 104.159ZM129.783 82.6143C131.387 82.6143 132.692 83.9192 132.692 85.5235C132.692 87.1278 131.387 88.4326 129.783 88.4326C128.179 88.4326 126.874 87.1278 126.874 85.5235C126.874 83.9192 128.179 82.6143 129.783 82.6143ZM52.5674 88.4326C50.9637 88.4326 49.6582 87.1278 49.6582 85.5235C49.6582 83.9192 50.9637 82.6143 52.5674 82.6143C54.1711 82.6143 55.4766 83.9192 55.4766 85.5235C55.4766 87.1278 54.1711 88.4326 52.5674 88.4326ZM79.374 42.4131C80.9777 42.4131 82.2832 43.718 82.2832 45.3223C82.2832 46.9266 80.9777 48.2315 79.374 48.2315C77.7703 48.2315 76.4648 46.9266 76.4648 45.3223C76.4648 43.718 77.7703 42.4131 79.374 42.4131ZM68.7076 63.958L77.4598 50.8324C78.2748 51.1166 78.9814 51.1864 79.7162 51.1436L83.8488 63.9574L68.7076 63.958ZM105.31 128.634C103.706 128.634 102.401 127.329 102.401 125.725C102.401 124.12 103.706 122.815 105.31 122.815C106.914 122.815 108.219 124.12 108.219 125.725C108.219 127.329 106.914 128.634 105.31 128.634ZM106.996 120.137C106.265 119.915 105.634 119.865 104.971 119.903L100.838 107.089H114.94L106.996 120.137Z" fill="url(#paint9_linear)" stroke="#FF657B"/>
<path d="M3.07617 105.624C3.07617 106.433 3.73242 107.089 4.54102 107.089H34.1309C34.9395 107.089 35.5957 106.433 35.5957 105.624C35.5957 104.815 34.9395 104.159 34.1309 104.159H4.54102C3.73242 104.159 3.07617 104.815 3.07617 105.624Z" fill="url(#paint10_linear)" stroke="#FF6A74"/>
<path d="M40.6875 5.63965H47.1328C47.9414 5.63965 48.5977 4.9834 48.5977 4.1748C48.5977 3.36621 47.9414 2.70996 47.1328 2.70996H40.6875C39.8789 2.70996 39.2227 3.36621 39.2227 4.1748C39.2227 4.9834 39.8795 5.63965 40.6875 5.63965Z" fill="url(#paint11_linear)" stroke="#FF657B"/>
<path d="M52.9922 5.63965C53.8012 5.63965 54.457 4.98382 54.457 4.1748C54.457 3.36579 53.8012 2.70996 52.9922 2.70996C52.1832 2.70996 51.5273 3.36579 51.5273 4.1748C51.5273 4.98382 52.1832 5.63965 52.9922 5.63965Z" fill="url(#paint12_linear)"/>
<path d="M18.9297 44.2477C19.7389 44.2477 20.3945 43.592 20.3945 42.7828V42.2701C20.3945 41.461 19.7389 40.8053 18.9297 40.8053C18.1205 40.8053 17.4648 41.461 17.4648 42.2701V42.7828C17.4648 43.5914 18.1205 44.2477 18.9297 44.2477Z" fill="url(#paint13_linear)"/>
<path d="M27.1328 44.2477C27.942 44.2477 28.5977 43.592 28.5977 42.7828V42.2701C28.5977 41.461 27.942 40.8053 27.1328 40.8053C26.3236 40.8053 25.668 41.461 25.668 42.2701V42.7828C25.668 43.5914 26.3236 44.2477 27.1328 44.2477Z" fill="url(#paint14_linear)"/>
<path d="M28.4591 48.4482C28.7831 47.7064 28.4444 46.8433 27.7026 46.5193C26.9608 46.1947 26.0977 46.534 25.7743 47.2758C24.7296 49.6681 21.3299 49.6646 20.2882 47.2763C19.9647 46.534 19.1034 46.1965 18.3598 46.5193C17.618 46.8428 17.2794 47.7058 17.6034 48.4476C19.6647 53.1732 26.393 53.1808 28.4591 48.4482Z" fill="url(#paint15_linear)"/>
<path d="M20.3945 82.9043V82.3916C20.3945 81.5825 19.7389 80.9268 18.9297 80.9268C18.1205 80.9268 17.4648 81.5825 17.4648 82.3916V82.9043C17.4648 83.7135 18.1205 84.3692 18.9297 84.3692C19.7389 84.3692 20.3945 83.7135 20.3945 82.9043Z" fill="url(#paint16_linear)"/>
<path d="M27.1328 84.3692C27.942 84.3692 28.5977 83.7135 28.5977 82.9043V82.3916C28.5977 81.5825 27.942 80.9268 27.1328 80.9268C26.3236 80.9268 25.668 81.5825 25.668 82.3916V82.9043C25.668 83.7135 26.3236 84.3692 27.1328 84.3692Z" fill="url(#paint17_linear)"/>
<path d="M27.8162 88.8428C27.8162 88.0336 27.1605 87.3779 26.3514 87.3779H19.7109C18.9018 87.3779 18.2461 88.0336 18.2461 88.8428C18.2461 89.652 18.9018 90.3076 19.7109 90.3076H26.3514C27.16 90.3076 27.8162 89.652 27.8162 88.8428Z" fill="url(#paint18_linear)"/>
<path d="M18.9297 124.57C19.7389 124.57 20.3945 123.915 20.3945 123.105V122.593C20.3945 121.784 19.7389 121.128 18.9297 121.128C18.1205 121.128 17.4648 121.784 17.4648 122.593V123.105C17.4648 123.915 18.1205 124.57 18.9297 124.57Z" fill="url(#paint19_linear)"/>
<path d="M27.1328 124.57C27.942 124.57 28.5977 123.915 28.5977 123.105V122.593C28.5977 121.784 27.942 121.128 27.1328 121.128C26.3236 121.128 25.668 121.784 25.668 122.593V123.105C25.668 123.915 26.3236 124.57 27.1328 124.57Z" fill="url(#paint20_linear)"/>
<path d="M23.0325 126.914C20.6606 126.914 18.5149 128.319 17.5663 130.493C17.2423 131.234 17.5809 132.098 18.3227 132.421C19.0628 132.746 19.927 132.406 20.251 131.665C20.7339 130.559 21.826 129.844 23.0325 129.844C24.2389 129.844 25.3305 130.559 25.8128 131.665C26.1368 132.408 27.0022 132.745 27.7411 132.422C28.4829 132.098 28.8221 131.235 28.4987 130.494C27.5501 128.319 25.4044 126.914 23.0325 126.914Z" fill="url(#paint21_linear)"/>
<path d="M36.1973 45.3223C36.1973 38.0625 30.291 32.1562 23.0312 32.1562C15.7715 32.1562 9.86523 38.0625 9.86523 45.3223C9.86523 52.582 15.7715 58.4883 23.0312 58.4883C30.291 58.4883 36.1973 52.582 36.1973 45.3223ZM12.7955 45.3223C12.7955 39.6779 17.3875 35.0859 23.0318 35.0859C28.6762 35.0859 33.2682 39.6779 33.2682 45.3223C33.2682 50.9666 28.6762 55.5586 23.0318 55.5586C17.3875 55.5586 12.7955 50.9666 12.7955 45.3223Z" fill="url(#paint22_linear)"/>
<path d="M36.1973 85.5234C36.1973 78.2637 30.291 72.3574 23.0312 72.3574C15.7715 72.3574 9.86523 78.2637 9.86523 85.5234C9.86523 92.7832 15.7715 98.6894 23.0312 98.6894C30.291 98.6894 36.1973 92.7832 36.1973 85.5234ZM12.7955 85.5234C12.7955 79.8791 17.3875 75.2871 23.0318 75.2871C28.6762 75.2871 33.2682 79.8791 33.2682 85.5234C33.2682 91.1678 28.6762 95.7598 23.0318 95.7598C17.3875 95.7598 12.7955 91.1678 12.7955 85.5234Z" fill="url(#paint23_linear)"/>
<path d="M23.0312 112.559C15.7715 112.559 9.86523 118.465 9.86523 125.725C9.86523 132.984 15.7715 138.891 23.0312 138.891C30.291 138.891 36.1973 132.984 36.1973 125.725C36.1967 118.465 30.2904 112.559 23.0312 112.559ZM23.0312 135.961C17.3869 135.961 12.7949 131.369 12.7949 125.725C12.7949 120.08 17.3869 115.488 23.0312 115.488C28.6756 115.488 33.2676 120.08 33.2676 125.725C33.267 131.369 28.675 135.961 23.0312 135.961Z" fill="url(#paint24_linear)"/>
<path d="M17.4863 16.1631H25.5119L23.5244 18.6252C23.0164 19.2545 23.1148 20.1768 23.7441 20.6854C24.3764 21.1951 25.2975 21.0932 25.8043 20.4656L29.7172 15.6188C30.1502 15.082 30.1502 14.315 29.7172 13.7783L25.8043 8.93145C25.2969 8.30274 24.374 8.20313 23.7441 8.71172C23.1148 9.21973 23.0164 10.142 23.5244 10.7719L25.5119 13.234H17.4863C16.6771 13.234 16.0215 13.8897 16.0215 14.6988C16.0215 15.508 16.6771 16.1631 17.4863 16.1631Z" fill="url(#paint25_linear)"/>
<defs>
<linearGradient id="paint0_linear" x1="10.3151" y1="14.7837" x2="12.3785" y2="29.355" gradientUnits="userSpaceOnUse">
<stop stop-color="#FFC300"/>
<stop offset="1" stop-color="#FF00FF"/>
</linearGradient>
<linearGradient id="paint1_linear" x1="15.7826" y1="14.7837" x2="17.3819" y2="29.473" gradientUnits="userSpaceOnUse">
<stop stop-color="#FFC300"/>
<stop offset="1" stop-color="#FF00FF"/>
</linearGradient>
<linearGradient id="paint2_linear" x1="40.2397" y1="14.7837" x2="41.8386" y2="29.4731" gradientUnits="userSpaceOnUse">
<stop stop-color="#FFC300"/>
<stop offset="1" stop-color="#FF00FF"/>
</linearGradient>
<linearGradient id="paint3_linear" x1="81.1184" y1="14.7837" x2="83.3729" y2="29.2969" gradientUnits="userSpaceOnUse">
<stop stop-color="#FFC300"/>
<stop offset="1" stop-color="#FF00FF"/>
</linearGradient>
<linearGradient id="paint4_linear" x1="-284.602" y1="15.3984" x2="-264.536" y2="133.635" gradientUnits="userSpaceOnUse">
<stop stop-color="#FFC300"/>
<stop offset="1" stop-color="#FF00FF"/>
</linearGradient>
<linearGradient id="paint5_linear" x1="97.1195" y1="65.5083" x2="104.55" y2="72.8063" gradientUnits="userSpaceOnUse">
<stop stop-color="#FFC300"/>
<stop offset="1" stop-color="#FF00FF"/>
</linearGradient>
<linearGradient id="paint6_linear" x1="32.6706" y1="65.5083" x2="33.8277" y2="80.2811" gradientUnits="userSpaceOnUse">
<stop stop-color="#FFC300"/>
<stop offset="1" stop-color="#FF00FF"/>
</linearGradient>
<linearGradient id="paint7_linear" x1="-284.602" y1="145.911" x2="-284.294" y2="160.768" gradientUnits="userSpaceOnUse">
<stop stop-color="#FFC300"/>
<stop offset="1" stop-color="#FF00FF"/>
</linearGradient>
<linearGradient id="paint8_linear" x1="32.6664" y1="105.709" x2="40.0969" y2="113.007" gradientUnits="userSpaceOnUse">
<stop stop-color="#FFC300"/>
<stop offset="1" stop-color="#FF00FF"/>
</linearGradient>
<linearGradient id="paint9_linear" x1="-284.603" y1="88.2107" x2="-70.9064" y2="416.092" gradientUnits="userSpaceOnUse">
<stop stop-color="#FFC300"/>
<stop offset="1" stop-color="#FF00FF"/>
</linearGradient>
<linearGradient id="paint10_linear" x1="-61.9589" y1="105.709" x2="-60.6069" y2="120.449" gradientUnits="userSpaceOnUse">
<stop stop-color="#FFC300"/>
<stop offset="1" stop-color="#FF00FF"/>
</linearGradient>
<linearGradient id="paint11_linear" x1="20.4738" y1="4.26028" x2="24.7683" y2="17.7573" gradientUnits="userSpaceOnUse">
<stop stop-color="#FFC300"/>
<stop offset="1" stop-color="#FF00FF"/>
</linearGradient>
<linearGradient id="paint12_linear" x1="45.6683" y1="4.26028" x2="53.0988" y2="11.5582" gradientUnits="userSpaceOnUse">
<stop stop-color="#FFC300"/>
<stop offset="1" stop-color="#FF00FF"/>
</linearGradient>
<linearGradient id="paint13_linear" x1="11.6058" y1="42.6269" x2="20.1996" y2="49.8103" gradientUnits="userSpaceOnUse">
<stop stop-color="#FFC300"/>
<stop offset="1" stop-color="#FF00FF"/>
</linearGradient>
<linearGradient id="paint14_linear" x1="19.8089" y1="42.6269" x2="28.4027" y2="49.8103" gradientUnits="userSpaceOnUse">
<stop stop-color="#FFC300"/>
<stop offset="1" stop-color="#FF00FF"/>
</linearGradient>
<linearGradient id="paint15_linear" x1="-4.72118" y1="49.3588" x2="6.82047" y2="71.8364" gradientUnits="userSpaceOnUse">
<stop stop-color="#FFC300"/>
<stop offset="1" stop-color="#FF00FF"/>
</linearGradient>
<linearGradient id="paint16_linear" x1="11.6058" y1="82.7484" x2="20.1996" y2="89.9318" gradientUnits="userSpaceOnUse">
<stop stop-color="#FFC300"/>
<stop offset="1" stop-color="#FF00FF"/>
</linearGradient>
<linearGradient id="paint17_linear" x1="19.8089" y1="82.7484" x2="28.4027" y2="89.9318" gradientUnits="userSpaceOnUse">
<stop stop-color="#FFC300"/>
<stop offset="1" stop-color="#FF00FF"/>
</linearGradient>
<linearGradient id="paint18_linear" x1="-0.892972" y1="88.9283" x2="3.3296" y2="102.476" gradientUnits="userSpaceOnUse">
<stop stop-color="#FFC300"/>
<stop offset="1" stop-color="#FF00FF"/>
</linearGradient>
<linearGradient id="paint19_linear" x1="11.6058" y1="122.95" x2="20.1996" y2="130.133" gradientUnits="userSpaceOnUse">
<stop stop-color="#FFC300"/>
<stop offset="1" stop-color="#FF00FF"/>
</linearGradient>
<linearGradient id="paint20_linear" x1="19.8089" y1="122.95" x2="28.4027" y2="130.133" gradientUnits="userSpaceOnUse">
<stop stop-color="#FFC300"/>
<stop offset="1" stop-color="#FF00FF"/>
</linearGradient>
<linearGradient id="paint21_linear" x1="-4.91092" y1="129.893" x2="6.68793" y2="152.51" gradientUnits="userSpaceOnUse">
<stop stop-color="#FFC300"/>
<stop offset="1" stop-color="#FF00FF"/>
</linearGradient>
<linearGradient id="paint22_linear" x1="-42.7956" y1="46.0906" x2="23.9898" y2="111.684" gradientUnits="userSpaceOnUse">
<stop stop-color="#FFC300"/>
<stop offset="1" stop-color="#FF00FF"/>
</linearGradient>
<linearGradient id="paint23_linear" x1="-42.7956" y1="86.2917" x2="23.9898" y2="151.885" gradientUnits="userSpaceOnUse">
<stop stop-color="#FFC300"/>
<stop offset="1" stop-color="#FF00FF"/>
</linearGradient>
<linearGradient id="paint24_linear" x1="-42.7956" y1="126.493" x2="23.9898" y2="192.087" gradientUnits="userSpaceOnUse">
<stop stop-color="#FFC300"/>
<stop offset="1" stop-color="#FF00FF"/>
</linearGradient>
<linearGradient id="paint25_linear" x1="-12.0177" y1="15.0669" x2="19.8843" y2="49.8663" gradientUnits="userSpaceOnUse">
<stop stop-color="#FFC300"/>
<stop offset="1" stop-color="#FF00FF"/>
</linearGradient>
</defs>
</svg>
