<svg width="150" height="150" viewBox="0 0 150 150" fill="none" xmlns="http://www.w3.org/2000/svg">
<path d="M95.7296 74.2675L99.2641 70.7325L86.0336 57.5L99.2641 44.2675L95.7296 40.7325L80.7319 55.7325C80.2632 56.2014 80 56.8371 80 57.5C80 58.163 80.2632 58.7987 80.7319 59.2675L95.7296 74.2675Z" fill="url(#paint0_linear)"/>
<path d="M124.26 74.2675L139.258 59.2675C139.726 58.7987 139.99 58.163 139.99 57.5C139.99 56.8371 139.726 56.2014 139.258 55.7325L124.26 40.7325L120.726 44.2675L133.956 57.5L120.726 70.7325L124.26 74.2675Z" fill="url(#paint1_linear)"/>
<path d="M79.9995 95H84.9988V100H79.9995V95Z" fill="url(#paint2_linear)"/>
<path d="M89.998 95H139.991V100H89.998V95Z" fill="url(#paint3_linear)"/>
<path d="M79.9995 85H129.992V90H79.9995V85Z" fill="url(#paint4_linear)"/>
<path d="M134.991 85H139.99V90H134.991V85Z" fill="url(#paint5_linear)"/>
<path d="M100.134 76.658L115.126 36.6721L119.806 38.4271L104.813 78.413L100.134 76.658Z" fill="url(#paint6_linear)"/>
<path d="M27.507 42.5H35.0058V50C35.0058 50.663 35.2692 51.2989 35.738 51.7678C36.2067 52.2366 36.8425 52.5 37.5055 52.5H42.5047V65C42.5047 65.663 42.7681 66.2989 43.2368 66.7678C43.7056 67.2366 44.3414 67.5 45.0043 67.5H65.0014V62.5H47.504V52.5H55.0028V47.5H40.0051V42.5H42.5047V37.5H30.0066V30H25.0073V40C25.0073 40.663 25.2707 41.2989 25.7394 41.7678C26.2082 42.2366 26.844 42.5 27.507 42.5Z" fill="url(#paint7_linear)"/>
<path d="M27.507 80H32.5062V87.5C32.5062 88.163 32.7696 88.7989 33.2383 89.2678C33.7071 89.7366 34.3429 90 35.0058 90H65.0014V85H37.5055V80H42.5047V75H30.0066V67.5H25.0073V77.5C25.0073 78.163 25.2707 78.7989 25.7394 79.2678C26.2082 79.7366 26.844 80 27.507 80Z" fill="url(#paint8_linear)"/>
<path d="M27.507 22.5H57.5025V17.5H30.0066V10H25.0073V20C25.0073 20.663 25.2707 21.2989 25.7394 21.7678C26.2082 22.2366 26.844 22.5 27.507 22.5Z" fill="url(#paint9_linear)"/>
<path d="M72.5005 112.5H77.4997V117.5H72.5005V112.5Z" fill="url(#paint10_linear)"/>
<path d="M142.49 30H75V7.5C75 5.51088 74.21 3.60322 72.8037 2.1967C71.3974 0.790177 69.49 0 67.5012 0H22.5079C20.519 0 18.6117 0.790177 17.2054 2.1967C15.799 3.60322 15.009 5.51088 15.009 7.5V30H7.51011C5.52128 30 3.61391 30.7902 2.2076 32.1967C0.801289 33.6032 0.0112305 35.5109 0.0112305 37.5V117.5C0.0112305 119.489 0.801289 121.397 2.2076 122.803C3.61391 124.21 5.52128 125 7.51011 125H57.0527L55.3855 135H52.5034C52.1153 135 51.7326 135.09 51.3855 135.264C51.0384 135.438 50.7365 135.69 50.5037 136L43.0048 146C42.7263 146.371 42.5567 146.813 42.515 147.275C42.4733 147.738 42.5612 148.203 42.7688 148.618C42.9764 149.033 43.2955 149.383 43.6904 149.627C44.0853 149.871 44.5403 150 45.0045 150H104.996C105.46 150 105.915 149.871 106.31 149.627C106.705 149.383 107.024 149.033 107.231 148.618C107.439 148.203 107.527 147.738 107.485 147.275C107.443 146.813 107.274 146.371 106.995 146L99.4964 136C99.2635 135.69 98.9616 135.438 98.6145 135.264C98.2675 135.09 97.8847 135 97.4967 135H94.6146L92.9474 125H142.49C144.479 125 146.386 124.21 147.792 122.803C149.199 121.397 149.989 119.489 149.989 117.5V37.5C149.989 35.5109 149.199 33.6032 147.792 32.1967C146.386 30.7902 144.479 30 142.49 30ZM20.0082 7.5C20.0082 6.83696 20.2716 6.20107 20.7404 5.73223C21.2091 5.26339 21.8449 5 22.5079 5H67.5012C68.1641 5 68.7999 5.26339 69.2687 5.73223C69.7374 6.20107 70.0008 6.83696 70.0008 7.5V92.5C70.0008 93.163 69.7374 93.7989 69.2687 94.2678C68.7999 94.7366 68.1641 95 67.5012 95H22.5079C21.8449 95 21.2091 94.7366 20.7404 94.2678C20.2716 93.7989 20.0082 93.163 20.0082 92.5V7.5ZM7.51011 35H15.009V92.5C15.009 94.4891 15.799 96.3968 17.2054 97.8033C18.6117 99.2098 20.519 100 22.5079 100H67.5012C69.49 100 71.3974 99.2098 72.8037 97.8033C74.21 96.3968 75 94.4891 75 92.5V35H142.49C143.153 35 143.789 35.2634 144.257 35.7322C144.726 36.2011 144.99 36.837 144.99 37.5V105H5.01048V37.5C5.01048 36.837 5.27384 36.2011 5.74261 35.7322C6.21138 35.2634 6.84717 35 7.51011 35ZM99.9963 145H50.0038L53.7532 140H96.2469L99.9963 145ZM89.5479 135H60.4522L62.1195 125H87.8806L89.5479 135ZM142.49 120H7.51011C6.84717 120 6.21138 119.737 5.74261 119.268C5.27384 118.799 5.01048 118.163 5.01048 117.5V110H144.99V117.5C144.99 118.163 144.726 118.799 144.257 119.268C143.789 119.737 143.153 120 142.49 120Z" fill="url(#paint11_linear)"/>
<defs>
<linearGradient id="paint0_linear" x1="41.4741" y1="58.4785" x2="114.287" y2="99.5591" gradientUnits="userSpaceOnUse">
<stop stop-color="#FFC300"/>
<stop offset="1" stop-color="#FF00FF"/>
</linearGradient>
<linearGradient id="paint1_linear" x1="82.1997" y1="58.4785" x2="155.012" y2="99.5591" gradientUnits="userSpaceOnUse">
<stop stop-color="#FFC300"/>
<stop offset="1" stop-color="#FF00FF"/>
</linearGradient>
<linearGradient id="paint2_linear" x1="70.0016" y1="97.6459" x2="82.683" y2="110.099" gradientUnits="userSpaceOnUse">
<stop stop-color="#FFC300"/>
<stop offset="1" stop-color="#FF00FF"/>
</linearGradient>
<linearGradient id="paint3_linear" x1="-9.98095" y1="97.6459" x2="-7.4243" y2="122.752" gradientUnits="userSpaceOnUse">
<stop stop-color="#FFC300"/>
<stop offset="1" stop-color="#FF00FF"/>
</linearGradient>
<linearGradient id="paint4_linear" x1="-19.9795" y1="87.6459" x2="-17.4229" y2="112.752" gradientUnits="userSpaceOnUse">
<stop stop-color="#FFC300"/>
<stop offset="1" stop-color="#FF00FF"/>
</linearGradient>
<linearGradient id="paint5_linear" x1="124.993" y1="87.6459" x2="137.675" y2="100.099" gradientUnits="userSpaceOnUse">
<stop stop-color="#FFC300"/>
<stop offset="1" stop-color="#FF00FF"/>
</linearGradient>
<linearGradient id="paint6_linear" x1="72.6268" y1="157.554" x2="97.0808" y2="163.541" gradientUnits="userSpaceOnUse">
<stop stop-color="#FFC300"/>
<stop offset="1" stop-color="#FF00FF"/>
</linearGradient>
<linearGradient id="paint7_linear" x1="-54.9759" y1="49.8441" x2="40.0479" y2="149.379" gradientUnits="userSpaceOnUse">
<stop stop-color="#FFC300"/>
<stop offset="1" stop-color="#FF00FF"/>
</linearGradient>
<linearGradient id="paint8_linear" x1="-54.9759" y1="79.4065" x2="-5.74306" y2="165.357" gradientUnits="userSpaceOnUse">
<stop stop-color="#FFC300"/>
<stop offset="1" stop-color="#FF00FF"/>
</linearGradient>
<linearGradient id="paint9_linear" x1="-39.979" y1="16.6147" x2="-18.4443" y2="71.5977" gradientUnits="userSpaceOnUse">
<stop stop-color="#FFC300"/>
<stop offset="1" stop-color="#FF00FF"/>
</linearGradient>
<linearGradient id="paint10_linear" x1="62.5026" y1="115.146" x2="75.184" y2="127.599" gradientUnits="userSpaceOnUse">
<stop stop-color="#FFC300"/>
<stop offset="1" stop-color="#FF00FF"/>
</linearGradient>
<linearGradient id="paint11_linear" x1="-299.926" y1="79.3766" x2="80.5155" y2="452.973" gradientUnits="userSpaceOnUse">
<stop stop-color="#FFC300"/>
<stop offset="1" stop-color="#FF00FF"/>
</linearGradient>
</defs>
</svg>
