<svg width="151" height="150" viewBox="0 0 151 150" fill="none" xmlns="http://www.w3.org/2000/svg">
<path d="M116.938 101.692C118.507 101.104 119.842 100.019 120.738 98.6025C121.634 97.1858 122.042 95.515 121.899 93.8449C121.757 92.1748 121.073 90.597 119.95 89.3521C118.828 88.1073 117.329 87.2636 115.683 86.9499L111.776 86.2056L107.898 74.5732C107.751 74.1306 107.483 73.7379 107.125 73.4389C106.766 73.14 106.332 72.9467 105.87 72.8807L70.6985 67.8562C70.084 67.7682 69.4587 67.9109 68.9432 68.2568C68.4277 68.6028 68.0587 69.1273 67.9072 69.7293C67.2071 72.5017 67.5028 75.432 68.7426 78.0086L68.3012 77.9245C67.9434 77.8564 67.575 77.8669 67.2216 77.9552L57.1726 80.4675C56.7412 80.5753 56.3462 80.7956 56.0279 81.106C55.7096 81.4163 55.4793 81.8056 55.3607 82.2341C55.242 82.6626 55.2392 83.1148 55.3525 83.5448C55.4657 83.9747 55.6911 84.3668 56.0055 84.6812L63.5423 92.2179C63.8985 92.5741 64.3536 92.8149 64.8484 92.9092L71.2802 94.1346C71.8937 95.2783 72.6724 96.3252 73.5912 97.2419L77.8783 101.529L77.8754 103.395C77.8679 108.266 79.6671 112.966 82.9251 116.587C86.1831 120.207 90.6682 122.491 95.5126 122.995C95.0112 124.347 94.9077 125.814 95.2142 127.222C95.5208 128.63 96.2246 129.922 97.2422 130.942L116.3 150L119.853 146.447L100.795 127.389C100.324 126.918 100.059 126.279 100.059 125.613C100.059 124.947 100.324 124.308 100.795 123.837L115.564 109.068L146.447 139.951L150 136.398L117.76 104.158L116.938 101.692ZM91.3758 92.8475L84.6903 86.1619L89.4811 87.0743L94.5245 88.0355L94.5246 88.0349L100.12 89.1006L98.8285 94.267L91.3758 92.8475ZM105.064 90.0422L107.914 90.5851L106.622 95.7515L103.772 95.2087L105.064 90.0422ZM116.485 93.0659C116.741 93.4674 116.885 93.9305 116.901 94.4066C116.917 94.8827 116.805 95.3544 116.576 95.7724C116.348 96.1904 116.011 96.5392 115.602 96.7825C115.192 97.0258 114.725 97.1546 114.248 97.1554C114.13 97.1553 114.012 97.1474 113.895 97.1317C113.859 97.1278 113.822 97.1238 113.787 97.1164C113.774 97.1137 113.761 97.1112 113.748 97.1087L111.566 96.6931L112.858 91.5266L114.742 91.8855C115.098 91.9519 115.437 92.0909 115.736 92.294C116.036 92.4971 116.291 92.7599 116.485 93.0659H116.485ZM103.623 77.6353L106.12 85.1283L78.4719 79.8612L78.4715 79.8611C78.4378 79.8547 78.4014 79.8457 78.367 79.8386L77.1441 78.6158C76.8409 78.3128 76.465 78.0927 76.0525 77.9762C75.6399 77.8598 75.2044 77.8511 74.7875 77.9508C73.4895 76.6942 72.7018 75.0022 72.5761 73.1999L103.623 77.6353ZM66.5485 88.1183L62.6959 84.2656L67.9038 82.9638L70.5082 83.4601C69.9938 84.8937 69.7317 86.4057 69.7337 87.9288C69.7337 88.1975 69.7444 88.4643 69.7603 88.7303L66.5485 88.1183ZM99.4497 118.076H97.5504C95.6246 118.076 93.7176 117.697 91.9386 116.959C90.1596 116.221 88.5435 115.14 87.1827 113.777C85.822 112.414 84.7433 110.797 84.0084 109.016C83.2735 107.236 82.8969 105.329 82.8999 103.403L82.9045 100.494C82.9051 100.164 82.8403 99.8365 82.7141 99.531C82.5878 99.2255 82.4025 98.9479 82.1688 98.7142L77.1441 93.689C75.9278 92.471 75.1278 90.8994 74.8586 89.1992C74.5894 87.499 74.8648 85.7572 75.6454 84.223L90.4413 99.0187V108.027H95.4658V98.7412L111.688 101.831L112.69 104.836L99.4497 118.076Z" fill="url(#paint0_linear)"/>
<path d="M108.027 128.125C109.414 128.125 110.539 127.001 110.539 125.613C110.539 124.226 109.414 123.101 108.027 123.101C106.639 123.101 105.515 124.226 105.515 125.613C105.515 127.001 106.639 128.125 108.027 128.125Z" fill="url(#paint1_linear)"/>
<path d="M5.02452 116.913V25.1225C5.02605 23.7904 5.55591 22.5133 6.49786 21.5713C7.43981 20.6294 8.71693 20.0995 10.049 20.098H120.589V15.0735H10.049C7.3848 15.0765 4.83054 16.1362 2.94664 18.0201C1.06273 19.904 0.00302127 22.4583 0 25.1225V125.613C0.00302127 128.277 1.06273 130.832 2.94664 132.715C4.83054 134.599 7.3848 135.659 10.049 135.662H17.5858C19.584 135.66 21.4997 134.865 22.9126 133.452C24.3256 132.039 25.1203 130.123 25.1226 128.125V125.613H20.0981V128.125C20.0973 128.791 19.8324 129.43 19.3614 129.901C18.8905 130.372 18.2519 130.637 17.5858 130.638H10.049C8.71646 130.638 7.43845 130.108 6.49617 129.166C5.55389 128.224 5.02452 126.946 5.02452 125.613C5.02452 124.28 5.55389 123.002 6.49617 122.06C7.43845 121.118 8.71646 120.588 10.049 120.588H77.8801V115.564H10.049C8.28447 115.562 6.55081 116.027 5.02452 116.913Z" fill="url(#paint2_linear)"/>
<path d="M140.687 0H133.15C131.152 0.00228565 129.236 0.797072 127.823 2.21C126.41 3.62292 125.616 5.53861 125.613 7.53679V97.9782C125.616 99.9764 126.41 101.892 127.823 103.305C129.236 104.718 131.152 105.513 133.15 105.515H140.687C142.019 105.515 143.297 106.044 144.24 106.987C145.182 107.929 145.711 109.207 145.711 110.54C145.711 111.872 145.182 113.15 144.24 114.092C143.297 115.035 142.019 115.564 140.687 115.564V120.589C143.351 120.586 145.905 119.526 147.789 117.642C149.673 115.758 150.733 113.204 150.736 110.54V10.049C150.733 7.3848 149.673 4.83054 147.789 2.94664C145.905 1.06273 143.351 0.00302127 140.687 0ZM140.687 100.49H133.15C132.484 100.49 131.845 100.225 131.374 99.7538C130.903 99.2828 130.639 98.6443 130.638 97.9782V7.53679C130.639 6.87073 130.903 6.23217 131.374 5.76119C131.845 5.29021 132.484 5.02529 133.15 5.02452H140.687C142.019 5.02605 143.296 5.55591 144.238 6.49786C145.18 7.43981 145.71 8.71693 145.711 10.049V101.839C144.185 100.954 142.451 100.488 140.687 100.49Z" fill="url(#paint3_linear)"/>
<path d="M32.6598 57.782C31.1692 57.782 29.712 58.224 28.4726 59.0522C27.2332 59.8803 26.2672 61.0574 25.6968 62.4346C25.1263 63.8117 24.9771 65.3271 25.2679 66.7891C25.5587 68.2511 26.2765 69.594 27.3305 70.6481C28.3846 71.7021 29.7275 72.4199 31.1895 72.7107C32.6515 73.0015 34.1669 72.8523 35.544 72.2819C36.9212 71.7114 38.0983 70.7454 38.9264 69.506C39.7546 68.2666 40.1966 66.8094 40.1966 65.3188C40.1944 63.3206 39.3996 61.4049 37.9867 59.992C36.5737 58.579 34.658 57.7842 32.6598 57.782ZM32.6598 67.831C32.163 67.831 31.6772 67.6837 31.2641 67.4076C30.851 67.1316 30.529 66.7392 30.3388 66.2802C30.1487 65.8211 30.0989 65.316 30.1958 64.8286C30.2928 64.3413 30.5321 63.8937 30.8834 63.5423C31.2347 63.191 31.6824 62.9517 32.1697 62.8548C32.657 62.7578 33.1622 62.8076 33.6212 62.9977C34.0803 63.1879 34.4727 63.5099 34.7487 63.923C35.0248 64.3362 35.1721 64.8219 35.1721 65.3188C35.1713 65.9848 34.9064 66.6234 34.4354 67.0944C33.9645 67.5653 33.3259 67.8303 32.6598 67.831Z" fill="url(#paint4_linear)"/>
<path d="M55.2695 70.3434V60.2943C55.2695 59.628 55.0048 58.989 54.5337 58.5179C54.0626 58.0468 53.4236 57.7821 52.7573 57.7821H50.8554L52.2004 56.4373C52.4337 56.204 52.6187 55.9271 52.745 55.6223C52.8712 55.3175 52.9362 54.9908 52.9362 54.6609C52.9362 54.331 52.8712 54.0043 52.745 53.6995C52.6187 53.3947 52.4337 53.1178 52.2004 52.8845L45.094 45.7777C44.8607 45.5444 44.5838 45.3593 44.279 45.233C43.9742 45.1067 43.6475 45.0417 43.3176 45.0416C42.9877 45.0416 42.6609 45.1066 42.3561 45.2328C42.0513 45.359 41.7743 45.5441 41.541 45.7774L40.196 47.1224V45.2208C40.196 44.5545 39.9313 43.9155 39.4601 43.4443C38.989 42.9732 38.35 42.7085 37.6837 42.7085H27.6347C26.9684 42.7085 26.3294 42.9732 25.8582 43.4443C25.3871 43.9155 25.1224 44.5545 25.1224 45.2208V47.1224L23.7773 45.7774C23.544 45.5441 23.2671 45.3591 22.9622 45.2328C22.6574 45.1066 22.3307 45.0416 22.0008 45.0417C21.6709 45.0417 21.3442 45.1067 21.0394 45.233C20.7346 45.3593 20.4576 45.5444 20.2244 45.7777L13.118 52.8845C12.8847 53.1178 12.6997 53.3947 12.5734 53.6995C12.4471 54.0043 12.3822 54.331 12.3822 54.6609C12.3822 54.9908 12.4471 55.3175 12.5734 55.6223C12.6997 55.9271 12.8847 56.204 13.118 56.4373L14.4629 57.7821H12.5611C11.8948 57.7821 11.2558 58.0468 10.7847 58.5179C10.3135 58.989 10.0488 59.628 10.0488 60.2943V70.3434C10.0488 71.0097 10.3135 71.6487 10.7847 72.1198C11.2558 72.5909 11.8948 72.8556 12.5611 72.8556H14.4629L13.118 74.2004C12.8847 74.4337 12.6997 74.7106 12.5734 75.0154C12.4471 75.3202 12.3822 75.6469 12.3822 75.9768C12.3822 76.3067 12.4471 76.6334 12.5734 76.9382C12.6997 77.243 12.8847 77.5199 13.118 77.7532L20.2244 84.86C20.4576 85.0933 20.7346 85.2784 21.0394 85.4047C21.3442 85.531 21.6709 85.596 22.0008 85.5961C22.3307 85.5961 22.6574 85.5311 22.9622 85.4049C23.2671 85.2787 23.544 85.0936 23.7773 84.8603L25.1224 83.5153V85.4169C25.1224 86.0832 25.3871 86.7222 25.8582 87.1934C26.3294 87.6645 26.9684 87.9292 27.6347 87.9292H37.6837C38.35 87.9292 38.989 87.6645 39.4601 87.1934C39.9313 86.7222 40.196 86.0832 40.196 85.4169V83.5153L41.541 84.8603C41.7743 85.0936 42.0513 85.2787 42.3561 85.4049C42.661 85.5311 42.9877 85.5961 43.3176 85.5961C43.6475 85.596 43.9742 85.531 44.279 85.4047C44.5838 85.2784 44.8607 85.0933 45.094 84.86L52.2004 77.7532C52.4337 77.5199 52.6187 77.243 52.745 76.9382C52.8712 76.6334 52.9362 76.3067 52.9362 75.9768C52.9362 75.6469 52.8712 75.3202 52.745 75.0154C52.6187 74.7106 52.4337 74.4337 52.2004 74.2004L50.8554 72.8556H52.7573C53.4236 72.8556 54.0626 72.5909 54.5337 72.1198C55.0048 71.6487 55.2695 71.0097 55.2695 70.3434ZM50.245 67.8311H44.7902C44.2933 67.8311 43.8076 67.9785 43.3945 68.2545C42.9813 68.5306 42.6593 68.923 42.4692 69.382C42.279 69.8411 42.2293 70.3463 42.3262 70.8336C42.4232 71.3209 42.6625 71.7686 43.0138 72.1199L46.8712 75.977L43.3174 79.531L39.4601 75.6733C39.1087 75.3221 38.6611 75.0829 38.1738 74.986C37.6865 74.8891 37.1813 74.9388 36.7223 75.129C36.2633 75.3191 35.8709 75.6411 35.5949 76.0542C35.3188 76.4674 35.1715 76.953 35.1714 77.4499V82.9047H30.1469V77.4499C30.1469 76.953 29.9995 76.4674 29.7235 76.0542C29.4474 75.6411 29.0551 75.3191 28.5961 75.129C28.137 74.9388 27.6319 74.8891 27.1446 74.986C26.6573 75.0829 26.2096 75.3221 25.8583 75.6733L22.0009 79.531L18.4472 75.977L22.3045 72.1199C22.6559 71.7686 22.8952 71.3209 22.9922 70.8336C23.0891 70.3463 23.0394 69.8411 22.8492 69.382C22.6591 68.923 22.3371 68.5306 21.9239 68.2545C21.5108 67.9785 21.025 67.8311 20.5281 67.8311H15.0734V62.8066H20.5281C21.025 62.8066 21.5108 62.6592 21.9239 62.3832C22.3371 62.1071 22.6591 61.7147 22.8492 61.2557C23.0394 60.7966 23.0891 60.2915 22.9922 59.8041C22.8952 59.3168 22.6559 58.8691 22.3045 58.5178L18.4472 54.6608L22.0009 51.1067L25.8583 54.9644C26.2096 55.3156 26.6573 55.5549 27.1446 55.6517C27.6319 55.7486 28.137 55.6989 28.5961 55.5087C29.0551 55.3186 29.4474 54.9966 29.7235 54.5835C29.9995 54.1703 30.1469 53.6847 30.1469 53.1878V47.733H35.1714V53.1878C35.1715 53.6847 35.3188 54.1703 35.5949 54.5835C35.8709 54.9966 36.2633 55.3186 36.7223 55.5087C37.1813 55.6989 37.6865 55.7486 38.1738 55.6517C38.6611 55.5549 39.1087 55.3156 39.4601 54.9644L43.3174 51.1067L46.8712 54.6608L43.0138 58.5178C42.6625 58.8691 42.4232 59.3168 42.3262 59.8041C42.2293 60.2915 42.279 60.7966 42.4692 61.2557C42.6593 61.7147 42.9813 62.1071 43.3945 62.3832C43.8076 62.6592 44.2933 62.8066 44.7902 62.8066H50.245V67.8311Z" fill="url(#paint5_linear)"/>
<path d="M66.0549 40.932L56.0059 50.981L59.5587 54.5342L68.8718 45.2208H97.9785V40.1963H67.8313C67.165 40.1963 66.5261 40.4609 66.0549 40.932Z" fill="url(#paint6_linear)"/>
<path d="M77.8801 25.1226H67.8311V30.1471H77.8801V25.1226Z" fill="url(#paint7_linear)"/>
<path d="M97.9779 25.1226H82.9043V30.1471H97.9779V25.1226Z" fill="url(#paint8_linear)"/>
<path d="M82.9046 32.6594H67.8311V37.6839H82.9046V32.6594Z" fill="url(#paint9_linear)"/>
<path d="M92.9532 32.6594H87.9287V37.6839H92.9532V32.6594Z" fill="url(#paint10_linear)"/>
<path d="M31.9239 91.1772L28.3711 94.7304L43.4447 109.804C43.9158 110.275 44.5548 110.54 45.2211 110.54H67.8314V105.515H46.2616L31.9239 91.1772Z" fill="url(#paint11_linear)"/>
<path d="M57.7824 97.9783H47.7334V103.003H57.7824V97.9783Z" fill="url(#paint12_linear)"/>
<path d="M67.8312 97.9783H62.8066V103.003H67.8312V97.9783Z" fill="url(#paint13_linear)"/>
<path d="M52.7579 90.4414H47.7334V95.4659H52.7579V90.4414Z" fill="url(#paint14_linear)"/>
<defs>
<linearGradient id="paint0_linear" x1="-134.179" y1="111.313" x2="72.6599" y2="345.516" gradientUnits="userSpaceOnUse">
<stop stop-color="#FFC300"/>
<stop offset="1" stop-color="#FF00FF"/>
</linearGradient>
<linearGradient id="paint1_linear" x1="95.4662" y1="125.76" x2="108.21" y2="138.276" gradientUnits="userSpaceOnUse">
<stop stop-color="#FFC300"/>
<stop offset="1" stop-color="#FF00FF"/>
</linearGradient>
<linearGradient id="paint2_linear" x1="-241.163" y1="78.8862" x2="64.6841" y2="379.275" gradientUnits="userSpaceOnUse">
<stop stop-color="#FFC300"/>
<stop offset="1" stop-color="#FF00FF"/>
</linearGradient>
<linearGradient id="paint3_linear" x1="75.3711" y1="63.8127" x2="195.523" y2="88.3977" gradientUnits="userSpaceOnUse">
<stop stop-color="#FFC300"/>
<stop offset="1" stop-color="#FF00FF"/>
</linearGradient>
<linearGradient id="paint4_linear" x1="-5.02227" y1="65.7586" x2="33.2086" y2="103.307" gradientUnits="userSpaceOnUse">
<stop stop-color="#FFC300"/>
<stop offset="1" stop-color="#FF00FF"/>
</linearGradient>
<linearGradient id="paint5_linear" x1="-80.3871" y1="66.6383" x2="34.3054" y2="179.284" gradientUnits="userSpaceOnUse">
<stop stop-color="#FFC300"/>
<stop offset="1" stop-color="#FF00FF"/>
</linearGradient>
<linearGradient id="paint6_linear" x1="-27.9342" y1="47.7836" x2="-5.36446" y2="112.675" gradientUnits="userSpaceOnUse">
<stop stop-color="#FFC300"/>
<stop offset="1" stop-color="#FF00FF"/>
</linearGradient>
<linearGradient id="paint7_linear" x1="47.7342" y1="27.7814" x2="58.0404" y2="48.026" gradientUnits="userSpaceOnUse">
<stop stop-color="#FFC300"/>
<stop offset="1" stop-color="#FF00FF"/>
</linearGradient>
<linearGradient id="paint8_linear" x1="52.759" y1="27.7814" x2="60.5169" y2="50.6398" gradientUnits="userSpaceOnUse">
<stop stop-color="#FFC300"/>
<stop offset="1" stop-color="#FF00FF"/>
</linearGradient>
<linearGradient id="paint9_linear" x1="37.6857" y1="35.3183" x2="45.4436" y2="58.1767" gradientUnits="userSpaceOnUse">
<stop stop-color="#FFC300"/>
<stop offset="1" stop-color="#FF00FF"/>
</linearGradient>
<linearGradient id="paint10_linear" x1="77.8803" y1="35.3183" x2="90.6239" y2="47.8345" gradientUnits="userSpaceOnUse">
<stop stop-color="#FFC300"/>
<stop offset="1" stop-color="#FF00FF"/>
</linearGradient>
<linearGradient id="paint11_linear" x1="-50.5448" y1="101.423" x2="-11.2707" y2="180.035" gradientUnits="userSpaceOnUse">
<stop stop-color="#FFC300"/>
<stop offset="1" stop-color="#FF00FF"/>
</linearGradient>
<linearGradient id="paint12_linear" x1="27.6365" y1="100.637" x2="37.9427" y2="120.882" gradientUnits="userSpaceOnUse">
<stop stop-color="#FFC300"/>
<stop offset="1" stop-color="#FF00FF"/>
</linearGradient>
<linearGradient id="paint13_linear" x1="52.7582" y1="100.637" x2="65.5018" y2="113.153" gradientUnits="userSpaceOnUse">
<stop stop-color="#FFC300"/>
<stop offset="1" stop-color="#FF00FF"/>
</linearGradient>
<linearGradient id="paint14_linear" x1="37.685" y1="93.1003" x2="50.4286" y2="105.616" gradientUnits="userSpaceOnUse">
<stop stop-color="#FFC300"/>
<stop offset="1" stop-color="#FF00FF"/>
</linearGradient>
</defs>
</svg>
