<svg width="32" height="32" viewBox="0 0 32 32" fill="none" xmlns="http://www.w3.org/2000/svg">
<path fill-rule="evenodd" clip-rule="evenodd" d="M0 15.888C0 7.1288 7.128 0 15.8872 0C24.6496 0 31.7784 7.1288 31.7784 15.888C31.7784 24.6504 24.6496 31.7784 15.8872 31.7784C7.128 31.7784 0 24.6504 0 15.888ZM10 13.5071C10 10.6345 12.1863 8 16.2975 8C19.6061 8 22.1768 10.2473 22.1871 13.2512C22.1871 16.3844 20.1114 18.9092 17.2388 18.9092C16.2731 18.9092 15.3665 18.4339 15.0524 17.8667C15.0524 17.8667 14.5752 19.604 14.459 20.0324C14.1392 21.2081 12.9992 22.8347 12.9064 22.9566C12.8483 23.0326 12.7442 23.0035 12.7264 22.9107C12.6973 22.7429 12.3607 20.7918 12.657 19.5871C12.8323 18.8755 13.7755 15.0653 13.7755 15.0653C13.7755 15.0653 13.4905 14.5215 13.4905 13.7162C13.4905 12.4486 14.2639 11.5045 15.2174 11.5045C16.0256 11.5045 16.4212 12.0839 16.4212 12.7843C16.4212 13.2796 16.2104 13.9293 15.988 14.6145C15.8597 15.0096 15.7277 15.4165 15.6299 15.8125C15.4087 16.722 16.1062 17.457 17.0428 17.457C18.7351 17.457 20.0373 15.7544 20.0373 13.2934C20.0373 11.1155 18.3976 9.59289 16.0537 9.59289C13.3433 9.59289 11.7504 11.5383 11.7504 13.5418C11.7504 14.3237 12.0645 15.1572 12.4601 15.6147C12.5351 15.7019 12.5473 15.7825 12.5239 15.8754C12.4935 15.9912 12.4502 16.1589 12.407 16.3267C12.342 16.5784 12.2771 16.8301 12.2557 16.9067C12.2154 17.0745 12.117 17.1092 11.936 17.0276C10.7444 16.5007 10 14.8394 10 13.5071Z" fill="url(#paint0_linear)"/>
<defs>
<linearGradient id="paint0_linear" x1="-63.5529" y1="16.8164" x2="17.046" y2="95.9771" gradientUnits="userSpaceOnUse">
<stop stop-color="#FFC300"/>
<stop offset="1" stop-color="#FF00FF"/>
</linearGradient>
</defs>
</svg>
