<svg width="170" height="170" viewBox="0 0 170 170" fill="none" xmlns="http://www.w3.org/2000/svg">
<path d="M60.3547 25.2153H22.709C21.3334 25.2153 20.2188 26.3303 20.2188 27.7056C20.2188 29.0808 21.3334 30.1958 22.709 30.1958H60.3547C61.7303 30.1958 62.8449 29.0808 62.8449 27.7056C62.8449 26.3303 61.73 25.2153 60.3547 25.2153Z" fill="url(#paint0_linear)"/>
<path d="M37.6361 35.8516H22.709C21.3334 35.8516 20.2188 36.9665 20.2188 38.3418C20.2188 39.7171 21.3334 40.832 22.709 40.832H37.6361C39.0117 40.832 40.1263 39.7171 40.1263 38.3418C40.1263 36.9665 39.0117 35.8516 37.6361 35.8516Z" fill="url(#paint1_linear)"/>
<path d="M104.452 122.271C109.302 122.271 113.781 119.439 115.86 115.056C116.45 113.814 115.921 112.328 114.678 111.739C113.435 111.149 111.95 111.678 111.361 112.921C110.101 115.575 107.389 117.29 104.452 117.29C101.515 117.29 98.8029 115.575 97.5432 112.921C96.9535 111.678 95.4673 111.149 94.2259 111.739C92.9834 112.328 92.4541 113.814 93.0438 115.056C95.1247 119.438 99.6024 122.271 104.452 122.271Z" fill="url(#paint2_linear)"/>
<path d="M83.6098 99.6393C85.8545 99.6393 87.6742 96.9283 87.6742 93.5841C87.6742 90.2398 85.8545 87.5288 83.6098 87.5288C81.3651 87.5288 79.5454 90.2398 79.5454 93.5841C79.5454 96.9283 81.3651 99.6393 83.6098 99.6393Z" fill="url(#paint3_linear)"/>
<path d="M125.295 99.6393C127.539 99.6393 129.359 96.9283 129.359 93.5841C129.359 90.2398 127.539 87.5288 125.295 87.5288C123.05 87.5288 121.23 90.2398 121.23 93.5841C121.23 96.9283 123.05 99.6393 125.295 99.6393Z" fill="url(#paint4_linear)"/>
<path d="M167.928 60.2716C169.095 59.158 169.711 57.7751 169.711 56.2727C169.711 49.9309 161.801 45.22 146.17 42.2321C147.503 40.6602 147.902 38.6378 147.295 36.5241C145.725 31.0506 137.692 29.3396 122.013 31.1399C116.771 31.7419 111.66 32.631 107.811 33.3811C107.853 33.1128 107.864 32.8977 107.864 32.7486C107.864 31.8239 107.575 30.4559 106.198 29.1885C103.434 26.6432 97.1128 25.5757 88.8565 26.259C85.7597 26.514 82.4626 27.0104 79.0324 27.7303C77.3879 23.4627 73.7096 20.1838 69.1538 19.1277C68.5937 11.9266 62.555 6.23754 55.2128 6.23754C54.0803 6.23754 52.9673 6.37135 51.8845 6.63697C49.3681 2.54236 44.9115 0 39.9829 0C35.0542 0 30.5977 2.54236 28.0815 6.63697C26.9985 6.37135 25.8855 6.23754 24.7529 6.23754C17.4107 6.23754 11.3717 11.9266 10.8119 19.1277C4.59 20.57 0 26.1554 0 32.7479C0 39.3404 4.59 44.9258 10.8119 46.3682C11.3721 53.5693 17.4107 59.2583 24.7529 59.2583C25.8855 59.2583 26.9988 59.1245 28.0815 58.8588C30.5973 62.9535 35.0539 65.4958 39.9829 65.4958C42.84 65.4958 45.5354 64.6369 47.7889 63.1211C47.8241 64.4609 47.9045 65.8398 48.025 67.2526C48.0147 67.2526 48.0047 67.2519 47.9948 67.2519C43.4559 67.2519 39.7631 70.9448 39.7631 75.4837C39.7631 80.0225 43.4559 83.7154 47.9948 83.7154C48.9766 83.7154 49.9182 83.5421 50.7922 83.2253C51.1239 84.5664 51.4844 85.9377 51.8752 87.3494C49.0018 89.5993 47.1498 93.0973 47.1498 97.0222C47.1498 102.983 51.421 107.964 57.0632 109.07C57.1253 111.019 57.2024 112.966 57.302 114.909C57.3886 116.622 57.6357 118.326 58.0367 119.974C58.3137 121.112 59.332 121.876 60.4543 121.876C60.6492 121.876 60.8474 121.853 61.0446 121.805C62.381 121.48 63.2008 120.133 62.8758 118.797C62.5487 117.452 62.3468 116.059 62.2758 114.656C61.4148 97.84 61.9856 80.7958 63.9715 63.9618C81.5984 62.3339 99.4397 61.7654 117.032 62.2715C118.391 62.314 119.554 61.2289 119.593 59.8539C119.633 58.4793 118.55 57.3325 117.176 57.293C98.7132 56.7614 79.9814 57.4006 61.5008 59.1929C60.341 59.3054 59.4143 60.2069 59.2699 61.3634C58.2941 69.1873 57.6204 77.0595 57.2488 84.9379C56.9716 84.9877 56.6963 85.0448 56.4257 85.1132C55.9194 83.2409 55.4695 81.4433 55.0694 79.6855C55.8032 78.4547 56.2262 77.018 56.2262 75.484C56.2262 72.9277 55.0548 70.64 53.2206 69.1289C52.799 65.5074 52.6592 62.1317 52.8053 59.0494C53.5952 59.1869 54.3987 59.2589 55.2125 59.2589C62.5547 59.2589 68.5937 53.5703 69.1535 46.3688C75.3751 44.9265 79.9654 39.3411 79.9654 32.7486C79.9654 32.7071 79.9631 32.6659 79.9628 32.6241C83.2236 31.9361 86.3457 31.4633 89.2663 31.2229C98.4997 30.4582 102.137 32.1854 102.832 32.8525C102.565 33.4143 101.472 34.4536 100.45 35.0921C99.4095 35.7339 98.9891 37.0358 99.4573 38.1647C99.9251 39.2936 101.142 39.9165 102.333 39.6339C102.433 39.6103 112.441 37.2493 122.618 36.0835C137.422 34.3878 142.085 36.4262 142.508 37.898C142.703 38.578 142.524 38.8138 142.417 38.9549C141.509 40.1486 138.157 40.7711 136.928 40.7734C135.669 40.6795 134.535 41.5434 134.3 42.7978C134.052 44.1173 134.895 45.3956 136.205 45.6878C136.391 45.7293 136.585 45.7559 137.299 45.8515C157.546 48.5622 164.731 53.1595 164.731 56.273C164.731 56.3311 164.731 56.439 164.489 56.6698C162.223 58.8349 153.108 59.4436 147.325 59.1862C140.616 58.5361 133.838 58.0337 127.178 57.6941C125.803 57.6244 124.634 58.6805 124.565 60.0542C124.494 61.4278 125.551 62.5979 126.925 62.6679C132.877 62.9717 138.925 63.4063 144.932 63.9618C146.922 80.7955 147.492 97.84 146.628 114.656C146.03 126.303 136.79 135.5 125.134 136.049C111.412 136.697 97.4943 136.697 83.7692 136.049C76.9506 135.727 70.714 132.397 66.6583 126.913C65.8401 125.807 64.2819 125.574 63.1753 126.391C62.0696 127.209 61.8362 128.768 62.654 129.874C64.9134 132.929 67.7284 135.435 70.9113 137.295C67.8682 139.072 65.1827 141.423 62.9933 144.261C59.5588 148.712 57.5908 154.042 57.3026 159.674C57.1688 162.295 57.0672 164.91 57.0011 167.445C56.9835 168.116 57.2379 168.767 57.7067 169.248C58.1755 169.729 58.8187 170 59.4904 170H149.414C150.085 170 150.729 169.729 151.197 169.248C151.666 168.767 151.921 168.116 151.903 167.445C151.837 164.91 151.735 162.295 151.602 159.674C151.313 154.042 149.346 148.712 145.912 144.261C143.726 141.427 141.044 139.078 138.005 137.301C145.792 132.761 151.109 124.522 151.602 114.911C151.702 112.967 151.779 111.02 151.842 109.07C157.484 107.965 161.756 102.984 161.756 97.0225C161.756 90.9945 157.39 85.9705 151.657 84.9382C151.331 78.0197 150.768 71.1058 149.975 64.2251C150.032 64.2251 150.087 64.2258 150.146 64.2258C155.222 64.2255 164.323 63.7151 167.928 60.2716ZM52.1299 97.0222C52.1299 93.8284 54.1912 91.1087 57.0516 90.1202C56.9125 94.7122 56.8756 99.3029 56.943 103.884C54.139 102.865 52.1299 100.174 52.1299 97.0222ZM44.7432 75.4837C44.7432 73.691 46.2018 72.2324 47.9945 72.2324C49.7871 72.2324 51.2457 73.691 51.2457 75.4837C51.2457 77.2763 49.7871 78.7349 47.9945 78.7349C46.2018 78.7349 44.7432 77.2763 44.7432 75.4837ZM66.5122 41.7337C65.8388 41.7725 65.2099 42.083 64.7697 42.594C64.3294 43.105 64.1149 43.7723 64.1757 44.4444C64.2026 44.7405 64.2155 45.0121 64.2155 45.2751C64.2155 50.2393 60.177 54.2778 55.2128 54.2778C53.97 54.2778 52.7648 54.0281 51.6309 53.5354C51.0153 53.2681 50.3177 53.2601 49.6961 53.5145C49.0746 53.7688 48.5822 54.2629 48.3305 54.8854C46.9466 58.3057 43.6701 60.5154 39.9829 60.5154C36.296 60.5154 33.0195 58.3054 31.6356 54.8854C31.3839 54.2629 30.8915 53.7688 30.27 53.5145C29.9678 53.391 29.6474 53.3292 29.3273 53.3292C28.989 53.3292 28.6513 53.3979 28.3352 53.5354C27.2013 54.0281 25.9957 54.2778 24.7529 54.2778C19.7887 54.2778 15.7502 50.2393 15.7502 45.2751C15.7502 45.0145 15.7632 44.7429 15.7904 44.4444C15.8512 43.7727 15.6367 43.105 15.1964 42.594C14.7561 42.083 14.1273 41.7725 13.4539 41.7337C8.70254 41.4591 4.98047 37.5119 4.98047 32.7479C4.98047 27.9839 8.70254 24.0367 13.4539 23.7621C14.1273 23.7233 14.7561 23.4129 15.1964 22.9019C15.6367 22.3909 15.8512 21.7235 15.7904 21.0514C15.7632 20.7529 15.7502 20.481 15.7502 20.2207C15.7502 15.2565 19.7887 11.2177 24.7529 11.2177C25.9957 11.2177 27.201 11.4674 28.3352 11.9601C28.9505 12.2274 29.6484 12.2354 30.27 11.981C30.8915 11.7267 31.3839 11.2326 31.6356 10.6101C33.0195 7.19047 36.296 4.98047 39.9829 4.98047C43.6698 4.98047 46.9466 7.19047 48.3305 10.6104C48.5822 11.2329 49.0746 11.727 49.6961 11.9813C50.3173 12.2357 51.0156 12.2277 51.6309 11.9604C52.7651 11.4677 53.9704 11.218 55.2128 11.218C60.177 11.218 64.2155 15.2568 64.2155 20.221C64.2155 20.484 64.2026 20.7556 64.1757 21.0518C64.1149 21.7235 64.3294 22.3912 64.7697 22.9022C65.2099 23.4132 65.8388 23.7233 66.5122 23.7625C71.2635 24.0371 74.9853 27.9843 74.9853 32.7482C74.9853 37.5122 71.2632 41.4591 66.5122 41.7337ZM136.956 40.7754C137.032 40.7801 137.087 40.7897 137.123 40.7953C137.067 40.7867 137.012 40.7801 136.956 40.7754ZM115.067 141.389C113.664 144.65 109.438 147.026 104.455 147.026C99.4706 147.026 95.2425 144.65 93.8393 141.389C97.3735 141.473 100.914 141.515 104.454 141.515C107.994 141.515 111.533 141.473 115.067 141.389ZM146.628 159.928C146.715 161.635 146.788 163.339 146.846 165.02H62.058C62.1164 163.339 62.1895 161.635 62.2768 159.928C62.743 150.821 68.4811 143.05 76.9725 139.916C79.0822 140.54 81.2819 140.918 83.5344 141.024C85.2205 141.104 86.9099 141.173 88.6009 141.233C89.9048 147.343 96.5149 152.007 104.454 152.007C112.392 152.007 119.001 147.343 120.305 141.233C121.996 141.173 123.684 141.104 125.37 141.024C127.647 140.917 129.847 140.536 131.943 139.919C140.428 143.054 146.162 150.824 146.628 159.928ZM156.776 97.0222C156.776 100.174 154.767 102.865 151.962 103.884C152.03 99.3029 151.994 94.7126 151.855 90.1206C154.715 91.109 156.776 93.8284 156.776 97.0222Z" fill="url(#paint5_linear)"/>
<defs>
<linearGradient id="paint0_linear" x1="-65.0284" y1="27.8509" x2="-62.0644" y2="52.7661" gradientUnits="userSpaceOnUse">
<stop stop-color="#FFC300"/>
<stop offset="1" stop-color="#FF00FF"/>
</linearGradient>
<linearGradient id="paint1_linear" x1="-19.594" y1="38.4871" x2="-13.5499" y2="62.2154" gradientUnits="userSpaceOnUse">
<stop stop-color="#FFC300"/>
<stop offset="1" stop-color="#FF00FF"/>
</linearGradient>
<linearGradient id="paint2_linear" x1="46.208" y1="117.198" x2="67.2712" y2="161.938" gradientUnits="userSpaceOnUse">
<stop stop-color="#FFC300"/>
<stop offset="1" stop-color="#FF00FF"/>
</linearGradient>
<linearGradient id="paint3_linear" x1="63.2888" y1="93.9374" x2="91.5229" y2="112.55" gradientUnits="userSpaceOnUse">
<stop stop-color="#FFC300"/>
<stop offset="1" stop-color="#FF00FF"/>
</linearGradient>
<linearGradient id="paint4_linear" x1="104.974" y1="93.9374" x2="133.208" y2="112.55" gradientUnits="userSpaceOnUse">
<stop stop-color="#FFC300"/>
<stop offset="1" stop-color="#FF00FF"/>
</linearGradient>
<linearGradient id="paint5_linear" x1="-339.402" y1="89.9601" x2="91.7524" y2="512.701" gradientUnits="userSpaceOnUse">
<stop stop-color="#FFC300"/>
<stop offset="1" stop-color="#FF00FF"/>
</linearGradient>
</defs>
</svg>
