<svg width="150" height="150" viewBox="0 0 150 150" fill="none" xmlns="http://www.w3.org/2000/svg">
<path d="M75.7755 44.0036H98.9699C100.989 44.0036 102.632 42.3609 102.632 40.3414V17.0477C102.632 15.0282 100.989 13.3855 98.9699 13.3855H75.7755C73.756 13.3855 72.1133 15.0282 72.1133 17.0477V22.5591C72.1133 23.7729 73.0968 24.7564 74.3106 24.7564C75.5244 24.7564 76.5079 23.7729 76.5079 22.5591V17.7801H98.2375V39.6093H76.5079V33.1313C76.5079 31.9176 75.5244 30.934 74.3106 30.934C73.0968 30.934 72.1133 31.9176 72.1133 33.1313V40.3417C72.1133 42.3609 73.756 44.0036 75.7755 44.0036Z" fill="url(#paint0_linear)"/>
<path d="M34.8526 40.4525H64.7866C66.0004 40.4525 66.9839 39.469 66.9839 38.2552C66.9839 37.0414 66.0004 36.0579 64.7866 36.0579H34.8526C33.6388 36.0579 32.6553 37.0414 32.6553 38.2552C32.6553 39.469 33.6391 40.4525 34.8526 40.4525Z" fill="url(#paint1_linear)"/>
<path d="M84.9443 56.8309C84.9443 55.6171 83.9608 54.6335 82.747 54.6335H52.5411C51.3273 54.6335 50.3438 55.6171 50.3438 56.8309C50.3438 58.0446 51.3273 59.0282 52.5411 59.0282H82.747C83.9605 59.0282 84.9443 58.0443 84.9443 56.8309Z" fill="url(#paint2_linear)"/>
<path d="M34.8526 30.8917H64.7866C66.0004 30.8917 66.9839 29.9082 66.9839 28.6944C66.9839 27.4806 66.0004 26.4971 64.7866 26.4971H34.8526C33.6388 26.4971 32.6553 27.4806 32.6553 28.6944C32.6553 29.9082 33.6391 30.8917 34.8526 30.8917Z" fill="url(#paint3_linear)"/>
<path d="M34.8526 21.3311H64.7866C66.0004 21.3311 66.9839 20.3476 66.9839 19.1338C66.9839 17.92 66.0004 16.9365 64.7866 16.9365H34.8526C33.6388 16.9365 32.6553 17.92 32.6553 19.1338C32.6553 20.3476 33.6391 21.3311 34.8526 21.3311Z" fill="url(#paint4_linear)"/>
<path d="M34.8526 83.3397H79.9281C81.1419 83.3397 82.1254 82.3562 82.1254 81.1424C82.1254 79.9286 81.1419 78.9451 79.9281 78.9451H34.8526C33.6388 78.9451 32.6553 79.9286 32.6553 81.1424C32.6553 82.3562 33.6391 83.3397 34.8526 83.3397Z" fill="url(#paint5_linear)"/>
<path d="M34.8526 71.0472H70.5011C71.7148 71.0472 72.6984 70.0637 72.6984 68.8499C72.6984 67.6361 71.7148 66.6526 70.5011 66.6526H34.8526C33.6388 66.6526 32.6553 67.6361 32.6553 68.8499C32.6553 70.0637 33.6391 71.0472 34.8526 71.0472Z" fill="url(#paint6_linear)"/>
<path d="M100.571 66.6526H80.0254C78.8116 66.6526 77.8281 67.6361 77.8281 68.8499C77.8281 70.0637 78.8116 71.0472 80.0254 71.0472H100.571C101.785 71.0472 102.768 70.0637 102.768 68.8499C102.768 67.6361 101.785 66.6526 100.571 66.6526Z" fill="url(#paint7_linear)"/>
<path d="M147.438 135.918C147.412 135.892 147.384 135.866 147.356 135.841L133.835 123.81C135.971 119.917 137.19 115.556 137.352 111.01C137.395 109.797 136.447 108.779 135.235 108.735C134.02 108.699 133.004 109.64 132.96 110.853C132.628 123.797 121.664 134.458 108.695 134.329C95.3059 134.329 84.4131 123.399 84.4131 109.965C84.2101 96.8 95.547 85.4159 108.695 85.6023C118.937 85.6023 128.13 92.1019 131.57 101.775C131.977 102.918 133.235 103.517 134.377 103.11C135.52 102.703 136.117 101.446 135.711 100.303C132.041 89.9834 122.823 82.7253 112.157 81.4204V3.66217C112.157 1.6427 110.514 0 108.494 0H26.7928C24.7733 0 23.1306 1.6427 23.1306 3.66217V11.6097H15.2276C13.2081 11.6097 11.5654 13.2524 11.5654 15.2718V23.2191H3.66217C1.6427 23.2191 0 24.8618 0 26.8812V136.496C0 138.516 1.6427 140.158 3.66217 140.158H73.6281C75.6476 140.158 77.2903 138.516 77.2903 136.496V128.549H86.8293C92.0934 134.769 99.9419 138.723 108.695 138.723C113.505 138.723 118.149 137.534 122.281 135.3L135.905 147.502C139.145 150.712 144.394 150.889 147.644 147.681C150.897 144.572 150.701 138.993 147.438 135.918ZM27.5252 4.39461H107.762V81.2261C98.4231 81.5305 89.9365 86.3863 84.8649 93.9693H75.9432C74.7294 93.9693 73.7459 94.9528 73.7459 96.1666C73.7459 97.3804 74.7294 98.3639 75.9432 98.3639H82.449C82.1549 99.0331 81.8839 99.716 81.6389 100.414C80.5637 103.477 80.0188 106.691 80.0188 109.965C80.0188 110.835 80.0598 111.695 80.1354 112.545H49.5659C52.5818 109.655 54.4662 105.587 54.4662 101.084V98.3642H66.4192C67.633 98.3642 68.6165 97.3807 68.6165 96.1669C68.6165 94.9531 67.633 93.9696 66.4192 93.9696H52.2689C51.0551 93.9696 50.0716 94.9531 50.0716 96.1669V101.084C50.0716 107.403 44.9533 112.545 38.6626 112.545H27.5252V4.39461ZM15.96 124.154V94.1179C15.96 92.9041 14.9765 91.9206 13.7627 91.9206C12.549 91.9206 11.5654 92.9041 11.5654 94.1179V124.886C11.5654 126.906 13.2081 128.548 15.2276 128.548H72.8957V135.764H4.39461V27.6137H11.5654V84.8303C11.5654 86.0441 12.549 87.0276 13.7627 87.0276C14.9765 87.0276 15.96 86.0441 15.96 84.8303V16.0043H23.1309V114.742C23.1309 115.956 24.1144 116.939 25.3282 116.939H80.8734C81.5109 119.496 82.4897 121.918 83.7598 124.154H15.96V124.154ZM144.551 144.559C143.031 146.075 140.451 145.921 138.88 144.267L126.101 132.822C128.074 131.311 129.893 129.495 131.406 127.53L144.389 139.083C145.887 140.526 146.061 143.105 144.551 144.559Z" fill="url(#paint8_linear)"/>
<path d="M108.696 91.1846C98.5565 91.0402 89.8118 99.8162 89.9659 109.965C89.9659 120.321 98.3681 128.746 108.696 128.746C119.023 128.746 127.425 120.321 127.425 109.965C127.425 99.6097 119.023 91.1846 108.696 91.1846ZM108.696 124.351C100.792 124.351 94.3605 117.898 94.3605 109.965C94.2404 102.192 100.934 95.4691 108.696 95.5789C116.6 95.5789 123.031 102.032 123.031 109.965C123.031 117.898 116.6 124.351 108.696 124.351Z" fill="url(#paint9_linear)"/>
<defs>
<linearGradient id="paint0_linear" x1="11.0794" y1="29.5879" x2="88.7306" y2="105.606" gradientUnits="userSpaceOnUse">
<stop stop-color="#FFC300"/>
<stop offset="1" stop-color="#FF00FF"/>
</linearGradient>
<linearGradient id="paint1_linear" x1="-35.9978" y1="38.3834" x2="-33.1403" y2="60.3065" gradientUnits="userSpaceOnUse">
<stop stop-color="#FFC300"/>
<stop offset="1" stop-color="#FF00FF"/>
</linearGradient>
<linearGradient id="paint2_linear" x1="-18.8531" y1="56.9591" x2="-16.0173" y2="78.8879" gradientUnits="userSpaceOnUse">
<stop stop-color="#FFC300"/>
<stop offset="1" stop-color="#FF00FF"/>
</linearGradient>
<linearGradient id="paint3_linear" x1="-35.9978" y1="28.8226" x2="-33.1403" y2="50.7457" gradientUnits="userSpaceOnUse">
<stop stop-color="#FFC300"/>
<stop offset="1" stop-color="#FF00FF"/>
</linearGradient>
<linearGradient id="paint4_linear" x1="-35.9978" y1="19.2621" x2="-33.1403" y2="41.1852" gradientUnits="userSpaceOnUse">
<stop stop-color="#FFC300"/>
<stop offset="1" stop-color="#FF00FF"/>
</linearGradient>
<linearGradient id="paint5_linear" x1="-66.2789" y1="81.2706" x2="-64.2787" y2="103.385" gradientUnits="userSpaceOnUse">
<stop stop-color="#FFC300"/>
<stop offset="1" stop-color="#FF00FF"/>
</linearGradient>
<linearGradient id="paint6_linear" x1="-47.426" y1="68.9781" x2="-44.9654" y2="90.9987" gradientUnits="userSpaceOnUse">
<stop stop-color="#FFC300"/>
<stop offset="1" stop-color="#FF00FF"/>
</linearGradient>
<linearGradient id="paint7_linear" x1="27.9506" y1="68.9781" x2="31.8258" y2="90.5785" gradientUnits="userSpaceOnUse">
<stop stop-color="#FFC300"/>
<stop offset="1" stop-color="#FF00FF"/>
</linearGradient>
<linearGradient id="paint8_linear" x1="-299.956" y1="79.3767" x2="80.4864" y2="452.997" gradientUnits="userSpaceOnUse">
<stop stop-color="#FFC300"/>
<stop offset="1" stop-color="#FF00FF"/>
</linearGradient>
<linearGradient id="paint9_linear" x1="15.0457" y1="111.06" x2="110.311" y2="204.373" gradientUnits="userSpaceOnUse">
<stop stop-color="#FFC300"/>
<stop offset="1" stop-color="#FF00FF"/>
</linearGradient>
</defs>
</svg>
