<svg width="150" height="150" viewBox="0 0 150 150" fill="none" xmlns="http://www.w3.org/2000/svg">
<path d="M140.115 65.1239C137.801 65.127 135.561 65.941 133.785 67.4244C132.009 68.9078 130.809 70.9668 130.394 73.2433H116.124C115.698 63.5291 111.835 54.2823 105.223 47.1529L115.344 37.0318C117.354 38.4493 119.821 39.0654 122.261 38.7597C124.702 38.454 126.94 37.2483 128.538 35.3789C130.137 33.5094 130.98 31.1107 130.902 28.6523C130.825 26.1939 129.833 23.8529 128.12 22.0876C126.408 20.3223 124.098 19.2597 121.643 19.108C119.188 18.9563 116.765 19.7263 114.848 21.2672C112.931 22.8082 111.658 25.0092 111.278 27.4393C110.899 29.8695 111.44 32.3537 112.796 34.4058L102.625 44.5772C95.4546 38.0578 86.2072 34.2886 76.5227 33.9379V19.6559C78.9565 19.2784 81.1618 18.0061 82.7068 16.088C84.2518 14.17 85.0252 11.7443 84.8756 9.28592C84.7261 6.82754 83.6643 4.51352 81.8981 2.79692C80.132 1.08032 77.7887 0.0847611 75.327 0.00516826C72.8654 -0.0744246 70.4627 0.767679 68.5894 2.3666C66.716 3.96553 65.5069 6.20612 65.1989 8.6497C64.8908 11.0933 65.5059 13.5639 66.9238 15.5777C68.3416 17.5916 70.4601 19.0037 72.8645 19.5376V33.9626C63.2696 34.4569 54.1529 38.3041 47.1045 44.833L36.9914 34.7198C38.4211 32.723 39.0542 30.2644 38.7666 27.8254C38.4791 25.3863 37.2916 23.1424 35.4367 21.5328C33.5818 19.9232 31.1929 19.0638 28.7377 19.1228C26.2825 19.1818 23.9377 20.155 22.1622 21.8519C20.3868 23.5488 19.3085 25.8472 19.1385 28.2972C18.9685 30.7473 19.7189 33.1726 21.243 35.0984C22.767 37.0242 24.9549 38.312 27.3785 38.7096C29.802 39.1071 32.2867 38.5859 34.3462 37.248L44.5282 47.43C37.9976 54.6028 34.2214 63.8586 33.8709 73.5527H19.6648C19.3041 71.1166 18.047 68.9028 16.1398 67.3448C14.2325 65.7868 11.8124 64.9968 9.35324 65.1295C6.89409 65.2621 4.57301 66.3079 2.84441 68.062C1.11582 69.8161 0.1042 72.1523 0.00761225 74.6131C-0.0889751 77.0739 0.736426 79.4822 2.32221 81.3664C3.908 83.2506 6.13998 84.4751 8.58116 84.8001C11.0223 85.1251 13.4969 84.5272 15.5204 83.1235C17.5439 81.7198 18.9707 79.6113 19.5212 77.211H33.8944C34.3868 86.7831 38.2165 95.8804 44.7184 102.923L34.6629 112.978C32.6528 111.561 30.1861 110.945 27.7456 111.25C25.3051 111.556 23.0665 112.762 21.4682 114.631C19.8699 116.501 19.0269 118.899 19.1042 121.358C19.1816 123.816 20.1737 126.157 21.8863 127.922C23.599 129.688 25.9089 130.75 28.3638 130.902C30.8187 131.054 33.2418 130.284 35.1588 128.743C37.0758 127.202 38.3487 125.001 38.7282 122.571C39.1077 120.141 38.5665 117.656 37.2106 115.604L47.3106 105.504C54.411 111.99 63.5653 115.774 73.173 116.195V130.409C70.754 130.865 68.5922 132.207 67.1108 134.173C65.6294 136.139 64.9352 138.587 65.164 141.038C65.3929 143.489 66.5283 145.766 68.3479 147.424C70.1676 149.081 72.5406 150 75.0021 150C77.4636 150 79.8366 149.081 81.6562 147.424C83.4759 145.766 84.6113 143.489 84.8402 141.038C85.069 138.587 84.3748 136.139 82.8934 134.173C81.412 132.207 79.2502 130.865 76.8312 130.409V116.195C86.5221 115.77 95.7488 111.924 102.872 105.339L112.935 115.403C111.531 117.423 110.931 119.895 111.253 122.334C111.574 124.773 112.795 127.005 114.676 128.591C116.557 130.178 118.962 131.005 121.421 130.912C123.88 130.818 126.215 129.81 127.969 128.085C129.724 126.36 130.772 124.042 130.907 121.585C131.042 119.128 130.256 116.709 128.702 114.802C127.147 112.895 124.937 111.636 122.503 111.273C120.07 110.909 117.588 111.467 115.544 112.838L105.452 102.746C111.927 95.6479 115.705 86.5011 116.124 76.9021H130.418C130.778 78.7403 131.653 80.4383 132.94 81.7984C134.228 83.1584 135.876 84.1244 137.692 84.5838C139.507 85.0432 141.416 84.977 143.196 84.3929C144.976 83.8089 146.553 82.7311 147.743 81.2851C148.933 79.8391 149.688 78.0845 149.92 76.2259C150.151 74.3673 149.85 72.4812 149.05 70.7874C148.251 69.0936 146.986 67.662 145.404 66.6594C143.822 65.6568 141.988 65.1244 140.115 65.1245V65.1239ZM116.645 24.5631C117.515 23.6928 118.624 23.1002 119.831 22.8601C121.038 22.62 122.289 22.7432 123.426 23.2142C124.563 23.6852 125.535 24.4827 126.219 25.5061C126.903 26.5294 127.268 27.7324 127.268 28.9632C127.268 30.1939 126.903 31.397 126.219 32.4203C125.535 33.4436 124.563 34.2411 123.426 34.7121C122.289 35.1831 121.038 35.3063 119.831 35.0662C118.624 34.8261 117.515 34.2335 116.645 33.3632C116.065 32.7868 115.604 32.1013 115.29 31.3461C114.975 30.591 114.814 29.7811 114.814 28.9632C114.814 28.1452 114.975 27.3354 115.29 26.5802C115.604 25.825 116.065 25.1395 116.645 24.5631ZM68.7795 9.8921C68.7795 8.66138 69.1444 7.4583 69.8282 6.43499C70.5119 5.41169 71.4838 4.61411 72.6208 4.14314C73.7578 3.67216 75.009 3.54893 76.2161 3.78904C77.4231 4.02914 78.5319 4.62179 79.4022 5.49204C80.2724 6.36229 80.8651 7.47105 81.1052 8.67813C81.3453 9.8852 81.222 11.1364 80.7511 12.2734C80.2801 13.4104 79.4825 14.3823 78.4592 15.066C77.4359 15.7498 76.2328 16.1147 75.0021 16.1147C73.3523 16.1129 71.7707 15.4567 70.6041 14.2901C69.4375 13.1235 68.7813 11.5419 68.7795 9.8921ZM24.5604 33.362C23.6902 32.4918 23.0975 31.383 22.8574 30.1759C22.6173 28.9689 22.7406 27.7177 23.2116 26.5807C23.6825 25.4436 24.4801 24.4718 25.5034 23.788C26.5267 23.1043 27.7298 22.7393 28.9605 22.7393C30.1912 22.7393 31.3943 23.1043 32.4176 23.788C33.4409 24.4718 34.2385 25.4436 34.7095 26.5807C35.1804 27.7177 35.3037 28.9689 35.0636 30.1759C34.8235 31.383 34.2308 32.4918 33.3606 33.362C32.7855 33.9447 32.1004 34.4074 31.3451 34.7232C30.5897 35.039 29.7792 35.2016 28.9605 35.2016C28.1418 35.2016 27.3313 35.039 26.5759 34.7232C25.8206 34.4074 25.1355 33.9447 24.5604 33.362ZM9.88945 81.2274C8.65873 81.2274 7.45565 80.8624 6.43235 80.1787C5.40904 79.4949 4.61147 78.5231 4.14049 77.386C3.66952 76.249 3.54629 74.9978 3.78639 73.7908C4.02649 72.5837 4.61914 71.4749 5.48939 70.6047C6.35964 69.7344 7.46841 69.1418 8.67548 68.9017C9.88255 68.6616 11.1337 68.7848 12.2708 69.2558C13.4078 69.7268 14.3796 70.5243 15.0634 71.5476C15.7471 72.5709 16.1121 73.774 16.1121 75.0047C16.1102 76.6545 15.454 78.2362 14.2875 79.4027C13.1209 80.5693 11.5392 81.2255 9.88945 81.2274ZM33.3594 125.446C32.4979 126.31 31.4016 126.901 30.2067 127.147C29.0118 127.393 27.7711 127.282 26.6388 126.828C25.5065 126.374 24.5326 125.597 23.8381 124.595C23.1436 123.592 22.7592 122.407 22.7326 121.187C22.7061 119.968 23.0386 118.767 23.6888 117.735C24.339 116.703 25.2782 115.885 26.3897 115.382C27.5011 114.879 28.7358 114.715 29.9403 114.908C31.1447 115.101 32.2657 115.644 33.164 116.47C33.3014 116.699 33.489 116.893 33.7127 117.039C34.716 118.23 35.2362 119.755 35.1708 121.311C35.1054 122.868 34.4591 124.343 33.3594 125.446ZM81.2235 140.117C81.2249 141.331 80.8712 142.519 80.2059 143.535C79.5406 144.55 78.5928 145.349 77.4793 145.832C76.3658 146.316 75.1351 146.463 73.9389 146.256C72.7427 146.049 71.6333 145.496 70.7472 144.666C69.8612 143.837 69.2372 142.766 68.9522 141.586C68.6672 140.405 68.7336 139.168 69.1432 138.025C69.5528 136.882 70.2877 135.884 71.2575 135.154C72.2272 134.424 73.3894 133.993 74.6009 133.915C74.8641 133.975 75.1376 133.975 75.4008 133.915C76.9774 134.017 78.4562 134.714 79.5376 135.866C80.619 137.018 81.2221 138.538 81.2247 140.117H81.2235ZM125.444 116.647C126.314 117.518 126.907 118.626 127.147 119.834C127.387 121.041 127.264 122.292 126.793 123.429C126.322 124.566 125.524 125.538 124.501 126.221C123.477 126.905 122.274 127.27 121.044 127.27C119.813 127.27 118.61 126.905 117.587 126.221C116.563 125.538 115.766 124.566 115.295 123.429C114.824 122.292 114.701 121.041 114.941 119.834C115.181 118.626 115.773 117.518 116.644 116.647C117.219 116.065 117.904 115.602 118.659 115.286C119.414 114.971 120.225 114.808 121.044 114.808C121.862 114.808 122.673 114.971 123.428 115.286C124.184 115.602 124.869 116.065 125.444 116.647ZM75.0021 112.579C67.584 112.579 60.3324 110.379 54.1644 106.258C47.9965 102.137 43.1891 96.2791 40.3503 89.4257C37.5115 82.5722 36.7688 75.0308 38.216 67.7552C39.6632 60.4796 43.2354 53.7965 48.4808 48.5511C53.7262 43.3057 60.4093 39.7335 67.6849 38.2863C74.9605 36.8391 82.5019 37.5819 89.3553 40.4207C96.2088 43.2595 102.067 48.0668 106.188 54.2348C110.309 60.4027 112.509 67.6543 112.509 75.0724C112.498 85.0164 108.542 94.5499 101.511 101.581C94.4796 108.613 84.9461 112.568 75.0021 112.579ZM140.115 81.2274C138.884 81.2274 137.681 80.8624 136.658 80.1787C135.634 79.4949 134.837 78.5231 134.366 77.386C133.895 76.249 133.772 74.9978 134.012 73.7908C134.252 72.5837 134.844 71.4749 135.715 70.6047C136.585 69.7344 137.694 69.1418 138.901 68.9017C140.108 68.6616 141.359 68.7848 142.496 69.2558C143.633 69.7268 144.605 70.5243 145.289 71.5476C145.972 72.5709 146.337 73.774 146.337 75.0047C146.336 76.6545 145.679 78.2362 144.513 79.4027C143.346 80.5693 141.765 81.2255 140.115 81.2274Z" fill="url(#paint0_linear)"/>
<path d="M96.8462 55.5501L96.8404 55.5455C94.2007 52.5749 90.9825 50.1743 87.3827 48.4907C83.783 46.8071 79.8775 45.876 75.9054 45.7543C75.7935 45.7411 75.6806 45.7385 75.5682 45.7463C75.3798 45.7427 75.1911 45.739 75.0018 45.739C74.8125 45.739 74.6238 45.7427 74.4351 45.7463C74.3233 45.7385 74.211 45.7412 74.0997 45.7543C70.1271 45.8761 66.2212 46.8075 62.621 48.4914C59.0209 50.1754 55.8024 52.5764 53.1625 55.5476C53.1589 55.5507 53.1552 55.5531 53.1519 55.5562C53.0317 55.6618 52.9261 55.7829 52.8376 55.9162C48.2574 61.2211 45.7373 67.9961 45.7373 75.0048C45.7373 82.0134 48.2574 88.7884 52.8376 94.0934C52.926 94.2267 53.0317 94.3479 53.1519 94.4537C53.1552 94.4567 53.1592 94.4595 53.1631 94.4625C55.8002 97.4306 59.0149 99.8298 62.6106 101.513C66.2063 103.197 70.1076 104.13 74.076 104.254C74.1533 104.265 74.2312 104.27 74.3092 104.271C74.347 104.271 74.3839 104.265 74.4214 104.263C74.6149 104.267 74.8088 104.271 75.0033 104.271C75.1978 104.271 75.3917 104.267 75.5853 104.263C75.6228 104.265 75.6597 104.271 75.6975 104.271C75.7755 104.27 75.8534 104.265 75.9307 104.254C79.899 104.13 83.8003 103.197 87.396 101.513C90.9917 99.8299 94.2064 97.4308 96.8435 94.4628L96.8481 94.4595C96.9712 94.3525 97.0795 94.2294 97.17 94.0937C101.75 88.7888 104.269 82.0142 104.269 75.006C104.269 67.9978 101.75 61.2232 97.17 55.9183C97.0791 55.7816 96.9702 55.6577 96.8462 55.5501ZM95.5381 90.2845C94.1127 88.8707 92.5438 87.6094 90.8568 86.5208C91.7924 83.3716 92.3268 80.1169 92.4472 76.8339H100.537C100.194 81.7039 98.4593 86.3729 95.5381 90.2845ZM49.4668 76.8339H57.5564C57.6769 80.1265 58.214 83.3906 59.1547 86.5483C57.4691 87.6321 55.8997 88.8868 54.4713 90.2925C51.5466 86.3792 49.8093 81.7073 49.4668 76.8339ZM54.471 59.7174C55.8995 61.1236 57.4687 62.3791 59.1541 63.4643C58.2139 66.621 57.6771 69.8841 57.5564 73.1757H49.4668C49.8094 68.3024 51.5465 63.6306 54.471 59.7174ZM76.8309 68.0663C80.5558 67.8532 84.2042 66.9205 87.5745 65.3199C88.27 67.8852 88.6764 70.5201 88.7863 73.1757H76.8309V68.0663ZM76.8309 64.3996V50.2694C81.0778 52.8606 84.3437 56.8573 86.3874 61.8303C83.4025 63.3085 80.1547 64.1817 76.8309 64.3996ZM73.1727 50.2694V64.3917C69.8526 64.1585 66.61 63.2789 63.6272 61.8023C65.6733 56.842 68.9353 52.8546 73.1727 50.2694ZM73.1727 68.0584V73.1757H61.2173C61.3275 70.5101 61.7365 67.8653 62.4367 65.291C65.8055 66.8914 69.45 67.8308 73.1727 68.0584ZM61.217 76.8339H73.1727V81.9532C69.4508 82.1845 65.8074 83.1246 62.4383 84.7228C61.7373 82.1472 61.3276 79.5009 61.217 76.8339ZM73.1727 85.6182V99.7416C68.9334 97.1559 65.6715 93.1681 63.6272 88.2079C66.6102 86.7317 69.8526 85.852 73.1727 85.6182ZM76.8309 99.7416V85.609C80.155 85.8264 83.4031 86.6997 86.388 88.1786C84.3443 93.1523 81.0784 97.151 76.8309 99.7416ZM76.8309 81.945V76.8339H88.7866C88.6765 79.4905 88.2697 82.1264 87.5739 84.6926C84.2032 83.0937 80.5554 82.1607 76.8309 81.945ZM92.4472 73.1757C92.3267 69.8933 91.7925 66.6394 90.8571 63.4908C92.544 62.4015 94.1128 61.1394 95.5381 59.725C98.4592 63.6367 100.194 68.3056 100.537 73.1757H92.4472ZM93.1408 56.9481C92.0455 58.0571 90.85 59.0624 89.5694 59.9512C88.1343 56.5464 86.0552 53.4507 83.4462 50.8343C87.0972 52.1153 90.4113 54.2053 93.1405 56.9481H93.1408ZM66.5577 50.8343C63.9544 53.4446 61.8786 56.5323 60.4439 59.9283C59.1635 59.0435 57.9667 58.0435 56.8683 56.9408C59.5967 54.2013 62.9089 52.1139 66.5574 50.8343H66.5577ZM56.8686 93.0675C57.967 91.9649 59.1637 90.9649 60.4439 90.08C61.8784 93.4762 63.9541 96.5641 66.5574 99.1746C62.909 97.8948 59.5969 95.8071 56.8686 93.0675ZM83.4462 99.1746C86.0548 96.5587 88.1338 93.4637 89.5691 90.0596C90.8494 90.9485 92.0447 91.9539 93.1399 93.063C90.4107 95.8049 87.0968 97.8942 83.4462 99.1746Z" fill="url(#paint1_linear)"/>
<defs>
<linearGradient id="paint0_linear" x1="-299.973" y1="79.3766" x2="80.4692" y2="453.019" gradientUnits="userSpaceOnUse">
<stop stop-color="#FFC300"/>
<stop offset="1" stop-color="#FF00FF"/>
</linearGradient>
<linearGradient id="paint1_linear" x1="-71.3197" y1="76.7127" x2="77.1335" y2="222.517" gradientUnits="userSpaceOnUse">
<stop stop-color="#FFC300"/>
<stop offset="1" stop-color="#FF00FF"/>
</linearGradient>
</defs>
</svg>
