<svg width="150" height="150" viewBox="0 0 150 150" fill="none" xmlns="http://www.w3.org/2000/svg">
<path d="M38.6253 32.0324C35.8126 29.1249 31.9369 27.4884 27.8919 27.4999H27.122C23.0811 27.4918 19.211 29.1281 16.4012 32.0324C13.7578 34.7506 12.3543 38.4396 12.5217 42.2274L12.8142 48.9574C13.2573 56.6587 19.7003 62.6362 27.412 62.4999H27.602C35.3136 62.6362 41.7567 56.6587 42.1998 48.9574L42.5047 42.2274C42.6722 38.4396 41.2687 34.7506 38.6253 32.0324ZM37.2055 48.7499C36.8668 53.7696 32.6306 57.6293 27.602 57.4999H27.412C22.3834 57.6293 18.1471 53.7696 17.8084 48.7499L17.721 46.7074C22.4859 46.4953 27.0611 44.7781 30.789 41.8024C32.3263 44.0762 34.6468 45.704 37.308 46.3749L37.2055 48.7499ZM34.071 36.9324C33.9319 35.8662 33.1264 35.0084 32.0713 34.8024C31.0199 34.5849 29.9482 35.0693 29.4167 36.0024C29.3842 36.0549 26.2822 40.9624 17.5285 41.7124C17.5069 39.3962 18.3977 37.1646 20.0081 35.4999C21.8744 33.5765 24.4421 32.4937 27.122 32.4999H27.8919C30.5718 32.4937 33.1396 33.5765 35.0058 35.4999C36.4641 37.0196 37.3296 39.0118 37.4455 41.1149C35.7157 40.3418 34.4609 38.7868 34.071 36.9324Z" fill="url(#paint0_linear)"/>
<path d="M136.111 92.0324C133.298 89.1249 129.422 87.4884 125.377 87.4999H124.607C120.566 87.4918 116.696 89.1281 113.887 92.0324C111.243 94.7506 109.839 98.4396 110.007 102.227L110.3 108.957C110.743 116.659 117.186 122.636 124.897 122.5H125.087C132.799 122.636 139.242 116.659 139.685 108.957L139.99 102.227C140.158 98.4396 138.754 94.7506 136.111 92.0324ZM134.991 102.025L134.691 108.75C134.352 113.77 130.116 117.629 125.087 117.5H124.897C119.869 117.629 115.633 113.77 115.294 108.75L114.994 102.012C114.897 99.5903 115.801 97.2353 117.494 95.4999C119.36 93.5765 121.928 92.4937 124.607 92.4999H125.377C128.057 92.4937 130.625 93.5765 132.491 95.4999C134.187 97.2384 135.091 99.5987 134.991 102.025Z" fill="url(#paint1_linear)"/>
<path d="M77.229 36.3575C74.5469 33.7628 70.2906 33.7628 67.6085 36.3575L39.7027 64.2675C39.2334 64.7369 38.5967 65.0006 37.933 65H12.5093C5.61039 65.0081 0.0193542 70.6 0.0112305 77.5V112.5C0.0112305 116.642 3.36854 120 7.5101 120C8.36153 120 9.20672 119.855 10.0097 119.573V122.5C10.0097 123.881 11.1289 125 12.5093 125H42.5048C43.8852 125 45.0044 123.881 45.0044 122.5V81.965C45.0041 81.3325 45.2435 80.7231 45.6743 80.26L77.3921 46.1425C80.0489 43.3956 79.9757 39.0147 77.229 36.3575ZM73.8223 42.6466C73.8132 42.6553 73.8042 42.6641 73.7951 42.6725L42.0049 76.8575C40.7176 78.2466 40.003 80.071 40.0052 81.965V120H15.009V82.5C15.009 81.1194 13.8898 80 12.5093 80C11.1289 80 10.0097 81.1194 10.0097 82.5V112.5C10.0097 113.881 8.89052 115 7.5101 115C6.12968 115 5.01048 113.881 5.01048 112.5V77.5C5.01048 73.3578 8.36778 70 12.5093 70H37.933C39.9237 70.0063 41.834 69.215 43.2372 67.8025L71.143 39.8925C71.9038 39.1706 73.0968 39.1706 73.8576 39.8925C74.6081 40.6628 74.5925 41.896 73.8223 42.6466Z" fill="url(#paint2_linear)"/>
<path d="M27.5069 72.5C26.1265 72.5 25.0073 73.6194 25.0073 75V105C25.0073 106.381 26.1265 107.5 27.5069 107.5C28.8874 107.5 30.0066 106.381 30.0066 105V75C30.0066 73.6194 28.8874 72.5 27.5069 72.5Z" fill="url(#paint3_linear)"/>
<path d="M81.1065 92.0325C78.2966 89.1282 74.4266 87.4919 70.3856 87.5H69.6157C65.5748 87.4919 61.7047 89.1282 58.8949 92.0325C56.2515 94.7507 54.8477 98.4397 55.0154 102.228L55.3079 108.958C55.751 116.659 62.194 122.636 69.9057 122.5H70.0957C77.8073 122.636 84.2504 116.659 84.6935 108.958L84.9859 102.228C85.1537 98.4397 83.7499 94.7507 81.1065 92.0325ZM79.9992 102.025L79.6992 108.75C79.3605 113.77 75.1243 117.629 70.0957 117.5H69.9057C64.8771 117.629 60.6408 113.77 60.3021 108.75L60.0022 102.013C59.9056 99.5903 60.8096 97.2353 62.5018 95.5C64.3681 93.5766 66.9358 92.4938 69.6157 92.5H70.3856C73.0655 92.4938 75.6333 93.5766 77.4995 95.5C79.1949 97.2385 80.0992 99.5988 79.9992 102.025Z" fill="url(#paint4_linear)"/>
<path d="M82.9162 125H57.0851C50.4161 125.007 45.0113 130.413 45.0044 137.083V147.5C45.0044 148.881 46.1236 150 47.504 150C48.8844 150 50.0036 148.881 50.0036 147.5V137.083C50.0077 133.173 53.176 130.004 57.0851 130H82.9162C86.8256 130.004 89.9936 133.173 89.9976 137.083V147.5C89.9976 148.881 91.1168 150 92.4972 150C93.8777 150 94.9969 148.881 94.9969 147.5V137.083C94.99 130.413 89.5852 125.007 82.9162 125Z" fill="url(#paint5_linear)"/>
<path d="M137.908 125H112.077C105.408 125.007 100.003 130.413 99.9961 137.083V147.5C99.9961 148.881 101.115 150 102.496 150C103.876 150 104.995 148.881 104.995 147.5V137.083C104.999 133.173 108.168 130.004 112.077 130H137.908C141.817 130.004 144.985 133.173 144.989 137.083V147.5C144.989 148.881 146.109 150 147.489 150C148.869 150 149.989 148.881 149.989 147.5V137.083C149.982 130.413 144.577 125.007 137.908 125Z" fill="url(#paint6_linear)"/>
<path d="M142.615 0H54.878C50.7733 0.04 47.475 3.39469 47.5041 7.5V45C47.5041 46.3806 48.6233 47.5 50.0037 47.5C51.3841 47.5 52.5033 46.3806 52.5033 45V15H144.989V75C145.022 76.3453 143.96 77.4631 142.615 77.5H57.3151C55.9347 77.5 54.8155 78.6194 54.8155 80C54.8155 81.3806 55.9347 82.5 57.3151 82.5H142.615C146.719 82.46 150.018 79.1053 149.989 75V7.5C150.018 3.39469 146.719 0.04 142.615 0ZM144.989 10H52.5033V7.5C52.4712 6.15469 53.5329 5.03687 54.878 5H142.615C143.96 5.03687 145.022 6.15469 144.989 7.5V10Z" fill="url(#paint7_linear)"/>
<path d="M137.49 31.875C136.11 31.875 134.991 32.9944 134.991 34.375V70C134.991 71.3806 136.11 72.5 137.49 72.5C138.871 72.5 139.99 71.3806 139.99 70V34.375C139.99 32.9944 138.871 31.875 137.49 31.875Z" fill="url(#paint8_linear)"/>
<path d="M127.492 47.5C126.111 47.5 124.992 48.6194 124.992 50V70C124.992 71.3806 126.111 72.5 127.492 72.5C128.872 72.5 129.991 71.3806 129.991 70V50C129.991 48.6194 128.872 47.5 127.492 47.5Z" fill="url(#paint9_linear)"/>
<path d="M117.494 42.5C116.113 42.5 114.994 43.6194 114.994 45V70C114.994 71.3806 116.113 72.5 117.494 72.5C118.874 72.5 119.993 71.3806 119.993 70V45C119.993 43.6194 118.874 42.5 117.494 42.5Z" fill="url(#paint10_linear)"/>
<path d="M107.495 57.5C106.115 57.5 104.996 58.6194 104.996 60V70C104.996 71.3806 106.115 72.5 107.495 72.5C108.876 72.5 109.995 71.3806 109.995 70V60C109.995 58.6194 108.876 57.5 107.495 57.5Z" fill="url(#paint11_linear)"/>
<path d="M138.878 20.4199C137.729 19.6537 136.177 19.9637 135.411 21.1124L126.877 33.9124L118.993 27.9999C117.893 27.1659 116.325 27.3821 115.491 28.4824C115.396 28.6078 115.313 28.7415 115.244 28.8824L105.51 48.3549L95.9966 55.4999C94.8921 56.3284 94.6684 57.8953 95.4967 58.9999C96.325 60.1046 97.8916 60.3284 98.9962 59.4999L108.995 51.9999C109.31 51.7681 109.566 51.4659 109.745 51.1174L118.401 33.7974L125.992 39.4999C127.096 40.3284 128.663 40.1049 129.492 39.0003C129.519 38.9634 129.546 38.9256 129.572 38.8874L139.57 23.8874C140.336 22.7387 140.026 21.1862 138.878 20.4199Z" fill="url(#paint12_linear)"/>
<path d="M89.9975 20H60.0021C58.6216 20 57.5024 21.1194 57.5024 22.5C57.5024 23.8806 58.6216 25 60.0021 25H89.9975C91.378 25 92.4972 23.8806 92.4972 22.5C92.4972 21.1194 91.378 20 89.9975 20Z" fill="url(#paint13_linear)"/>
<path d="M104.995 20H99.9962C98.6158 20 97.4966 21.1194 97.4966 22.5C97.4966 23.8806 98.6158 25 99.9962 25H104.995C106.376 25 107.495 23.8806 107.495 22.5C107.495 21.1194 106.376 20 104.995 20Z" fill="url(#paint14_linear)"/>
<defs>
<linearGradient id="paint0_linear" x1="-47.5078" y1="46.0223" x2="39.9866" y2="119.699" gradientUnits="userSpaceOnUse">
<stop stop-color="#FFC300"/>
<stop offset="1" stop-color="#FF00FF"/>
</linearGradient>
<linearGradient id="paint1_linear" x1="49.9775" y1="106.022" x2="137.472" y2="179.699" gradientUnits="userSpaceOnUse">
<stop stop-color="#FFC300"/>
<stop offset="1" stop-color="#FF00FF"/>
</linearGradient>
<linearGradient id="paint2_linear" x1="-158.632" y1="82.3489" x2="68.576" y2="277.76" gradientUnits="userSpaceOnUse">
<stop stop-color="#FFC300"/>
<stop offset="1" stop-color="#FF00FF"/>
</linearGradient>
<linearGradient id="paint3_linear" x1="15.0094" y1="91.0212" x2="39.4392" y2="94.4484" gradientUnits="userSpaceOnUse">
<stop stop-color="#FFC300"/>
<stop offset="1" stop-color="#FF00FF"/>
</linearGradient>
<linearGradient id="paint4_linear" x1="-4.98931" y1="106.022" x2="82.4988" y2="179.663" gradientUnits="userSpaceOnUse">
<stop stop-color="#FFC300"/>
<stop offset="1" stop-color="#FF00FF"/>
</linearGradient>
<linearGradient id="paint5_linear" x1="-54.9745" y1="138.229" x2="-3.69034" y2="238.952" gradientUnits="userSpaceOnUse">
<stop stop-color="#FFC300"/>
<stop offset="1" stop-color="#FF00FF"/>
</linearGradient>
<linearGradient id="paint6_linear" x1="0.0172447" y1="138.229" x2="51.3014" y2="238.952" gradientUnits="userSpaceOnUse">
<stop stop-color="#FFC300"/>
<stop offset="1" stop-color="#FF00FF"/>
</linearGradient>
<linearGradient id="paint7_linear" x1="-157.453" y1="43.6571" x2="47.7507" y2="294.022" gradientUnits="userSpaceOnUse">
<stop stop-color="#FFC300"/>
<stop offset="1" stop-color="#FF00FF"/>
</linearGradient>
<linearGradient id="paint8_linear" x1="124.993" y1="53.3728" x2="149.545" y2="56.3402" gradientUnits="userSpaceOnUse">
<stop stop-color="#FFC300"/>
<stop offset="1" stop-color="#FF00FF"/>
</linearGradient>
<linearGradient id="paint9_linear" x1="114.994" y1="60.7294" x2="138.98" y2="65.4402" gradientUnits="userSpaceOnUse">
<stop stop-color="#FFC300"/>
<stop offset="1" stop-color="#FF00FF"/>
</linearGradient>
<linearGradient id="paint10_linear" x1="104.996" y1="58.3753" x2="129.257" y2="62.346" gradientUnits="userSpaceOnUse">
<stop stop-color="#FFC300"/>
<stop offset="1" stop-color="#FF00FF"/>
</linearGradient>
<linearGradient id="paint11_linear" x1="94.9977" y1="65.4377" x2="117.497" y2="72.8026" gradientUnits="userSpaceOnUse">
<stop stop-color="#FFC300"/>
<stop offset="1" stop-color="#FF00FF"/>
</linearGradient>
<linearGradient id="paint12_linear" x1="5.0141" y1="41.1669" x2="105.982" y2="152.712" gradientUnits="userSpaceOnUse">
<stop stop-color="#FFC300"/>
<stop offset="1" stop-color="#FF00FF"/>
</linearGradient>
<linearGradient id="paint13_linear" x1="-12.4827" y1="22.6459" x2="-8.86898" y2="47.4871" gradientUnits="userSpaceOnUse">
<stop stop-color="#FFC300"/>
<stop offset="1" stop-color="#FF00FF"/>
</linearGradient>
<linearGradient id="paint14_linear" x1="77.5008" y1="22.6459" x2="87.7576" y2="42.7904" gradientUnits="userSpaceOnUse">
<stop stop-color="#FFC300"/>
<stop offset="1" stop-color="#FF00FF"/>
</linearGradient>
</defs>
</svg>
