<svg width="165" height="150" viewBox="0 0 165 150" fill="none" xmlns="http://www.w3.org/2000/svg">
<path d="M85.0761 145.304L77.0873 142.642V91.2813C80.0648 88.2389 81.9052 84.0791 81.9052 79.4959V47.3762C81.9052 43.6099 79.5345 40.388 76.2075 39.1202C79.6986 36.0287 81.9052 31.5178 81.9052 26.4988V16.8628C81.9052 7.56483 74.3404 0 65.0424 0C55.7444 0 48.1795 7.56483 48.1795 16.8628V26.4988C48.1795 31.5178 50.3862 36.0287 53.8773 39.1205C51.2881 40.1072 49.28 42.2776 48.5162 44.9676H43.0247C41.9731 41.2648 38.5636 38.5436 34.5284 38.5436H18.4685C14.3636 38.5436 10.9037 41.3586 9.9176 45.1593C4.28766 46.1672 0 51.0967 0 57.0121V69.86C0 75.7286 4.21924 80.6272 9.78302 81.6891C10.2674 85.3986 11.9591 88.7326 14.4539 91.2813V142.642L6.46505 145.304C5.20275 145.725 4.52085 147.09 4.94162 148.352C5.27823 149.361 6.21805 149.999 7.22661 149.999C7.47907 149.999 7.73603 149.959 7.98881 149.875L17.6247 146.663C18.6085 146.335 19.2718 145.415 19.2718 144.378V94.7284C21.4637 95.7726 23.9138 96.3588 26.4988 96.3588C29.0837 96.3588 31.5338 95.7726 33.7257 94.7284V144.378C33.7257 145.415 34.389 146.335 35.3728 146.663L45.0087 149.875C45.2563 149.958 45.5133 149.999 45.7706 149.999C46.0278 149.999 46.2851 149.958 46.5324 149.875L56.1684 146.663C57.1522 146.335 57.8155 145.415 57.8155 144.378V94.7284C60.0073 95.7726 62.4574 96.3588 65.0424 96.3588C67.6274 96.3588 70.0775 95.7726 72.2693 94.7284V144.378C72.2693 145.415 72.9326 146.335 73.9164 146.663L83.5523 149.875C83.8051 149.959 84.0621 149.999 84.3145 149.999C85.3234 149.999 86.2629 149.361 86.5995 148.352C87.0203 147.089 86.3384 145.725 85.0761 145.304ZM9.63591 76.6726C6.83218 75.6782 4.81795 73.0004 4.81795 69.86V57.0121C4.81795 53.8718 6.83218 51.194 9.63591 50.1996V76.6726ZM52.9975 16.8628C52.9975 10.2211 58.4007 4.81796 65.0424 4.81796C71.6841 4.81796 77.0873 10.2208 77.0873 16.8628V17.6658H72.2247C70.4089 15.6346 67.8092 14.4539 65.0424 14.4539C62.2756 14.4539 59.6758 15.6346 57.8601 17.6658H52.9975V16.8628ZM52.9975 26.4988V22.4838H59.0331C59.8367 22.4838 60.5877 22.0829 61.0348 21.4152C61.9332 20.0729 63.4316 19.2718 65.0424 19.2718C66.6532 19.2718 68.1516 20.0729 69.05 21.4152C69.4974 22.0829 70.248 22.4838 71.0517 22.4838H77.0873V26.4988C77.0873 33.1405 71.6841 38.5436 65.0424 38.5436C58.4007 38.5436 52.9975 33.1405 52.9975 26.4988ZM43.3616 49.7852H48.1795V77.087H43.3616V49.7852ZM14.4539 47.3762C14.4539 45.1622 16.2548 43.3613 18.4688 43.3613H34.5287C36.7427 43.3613 38.5436 45.1622 38.5436 47.3762V77.087H14.4539V47.3762ZM26.4991 91.5408C20.6822 91.5408 15.8154 87.3961 14.6964 81.9049H38.3015C37.1824 87.3961 32.3159 91.5408 26.4991 91.5408ZM52.9975 142.642L45.7706 145.051L38.5436 142.642V91.2813C40.9896 88.7817 42.6659 85.5283 43.1869 81.9049H48.3543C48.8749 85.5283 50.5513 88.7817 52.9975 91.2813V142.642ZM52.9975 47.3762C52.9975 45.1622 54.7985 43.3613 57.0125 43.3613H62.6334V69.86C62.6334 71.1907 63.7117 72.269 65.0424 72.269C66.3731 72.269 67.4514 71.1907 67.4514 69.86V43.3613H73.0723C75.2863 43.3613 77.0873 45.1622 77.0873 47.3762V77.087H52.9975V47.3762ZM65.0427 91.5408C59.2258 91.5408 54.3591 87.3961 53.24 81.9049H76.8451C75.726 87.3961 70.8596 91.5408 65.0427 91.5408Z" fill="url(#paint0_linear)"/>
<path d="M26.4991 0C17.2011 0 9.63623 7.56483 9.63623 16.8628C9.63623 26.1609 17.2011 33.7257 26.4991 33.7257C35.7971 33.7257 43.3619 26.1609 43.3619 16.8628C43.3619 7.56483 35.7971 0 26.4991 0ZM26.4991 4.81795C30.4312 4.81795 33.9287 6.71237 36.1286 9.63591H26.4991C24.0532 9.63591 21.8151 8.39641 20.4949 6.42779C22.2638 5.40607 24.3136 4.81795 26.4991 4.81795ZM26.4991 28.9077C19.8574 28.9077 14.4542 23.5046 14.4542 16.8628C14.4542 14.1552 15.3529 11.6533 16.8667 9.63944C19.1022 12.6112 22.6482 14.4539 26.4991 14.4539H38.3015C38.4601 15.2324 38.544 16.038 38.544 16.8628C38.544 23.5046 33.1408 28.9077 26.4991 28.9077Z" fill="url(#paint1_linear)"/>
<path d="M147.59 0C138.292 0 130.728 7.56483 130.728 16.8628C130.728 26.1609 138.292 33.7257 147.59 33.7257C156.888 33.7257 164.453 26.1609 164.453 16.8628C164.453 7.56483 156.888 0 147.59 0ZM147.59 28.9077C140.949 28.9077 135.545 23.5046 135.545 16.8628C135.545 10.2211 140.949 4.81795 147.59 4.81795C154.232 4.81795 159.635 10.2211 159.635 16.8628C159.635 23.5046 154.232 28.9077 147.59 28.9077Z" fill="url(#paint2_linear)"/>
<path d="M155.62 38.5435H139.56C135.525 38.5435 132.115 41.2646 131.064 44.9674H125.909V36.1345C125.909 34.8038 124.831 33.7255 123.5 33.7255H113.543V31.3165C113.543 27.3318 110.301 24.0896 106.316 24.0896C102.331 24.0896 99.0892 27.3318 99.0892 31.3165V33.7255H89.1321C87.8014 33.7255 86.7231 34.8038 86.7231 36.1345V79.4961C86.7231 80.8268 87.8014 81.905 89.1321 81.905H123.5C124.831 81.905 125.909 80.8268 125.909 79.4961V71.6129C127.534 71.5397 129.144 71.3444 130.727 71.0338V79.4967C130.727 84.0799 132.568 88.2394 135.545 91.2821V142.642L127.556 145.305C126.294 145.726 125.612 147.09 126.033 148.352C126.369 149.362 127.309 150 128.318 150C128.57 150 128.827 149.96 129.08 149.876L138.716 146.664C139.7 146.336 140.363 145.415 140.363 144.379V94.7285C142.555 95.7727 145.005 96.3589 147.59 96.3589C150.175 96.3589 152.625 95.7727 154.817 94.7285V142.642L146.828 145.305C145.566 145.725 144.884 147.09 145.305 148.352C145.641 149.361 146.581 149.999 147.59 149.999C147.842 149.999 148.099 149.959 148.352 149.875L157.988 146.663C158.972 146.335 159.635 145.415 159.635 144.378V91.2814C162.612 88.2391 164.453 84.0792 164.453 79.4961V47.3764C164.453 42.5064 160.49 38.5435 155.62 38.5435ZM103.907 31.3169C103.907 29.9884 104.988 28.9079 106.316 28.9079C107.645 28.9079 108.725 29.9884 108.725 31.3169V33.7258H103.907V31.3169ZM101.177 38.5435H111.455V43.3614H101.177V38.5435ZM130.727 66.1234C128.356 66.6736 125.942 66.9074 123.533 66.8229C123.522 66.8229 123.511 66.8213 123.5 66.8213C123.496 66.8213 123.493 66.822 123.489 66.822C120.22 66.7022 116.965 66.0042 113.853 64.7152C112.623 64.2049 111.214 64.7898 110.705 66.019C110.196 67.2482 110.78 68.6573 112.009 69.1664C114.985 70.3991 118.04 71.1549 121.091 71.4732V77.0877H91.5411V38.5441H96.3591V45.771C96.3591 47.1018 97.4373 48.18 98.768 48.18H113.864C115.195 48.18 116.273 47.1018 116.273 45.771V38.5441H121.091V59.5947C121.091 60.9254 122.169 62.0037 123.5 62.0037C124.831 62.0037 125.909 60.9254 125.909 59.5947V49.786H130.727V66.1234ZM147.59 91.541C141.773 91.541 136.907 87.3962 135.788 81.905H159.393C158.274 87.3962 153.407 91.541 147.59 91.541ZM159.635 77.0874H135.545V69.6989C143.884 66.6903 150.982 60.327 154.633 51.5108C155.143 50.2813 154.559 48.8722 153.33 48.3631C152.102 47.8534 150.692 48.4376 150.182 49.6668C147.398 56.3898 142.207 61.6494 135.545 64.5331V47.3767C135.545 45.1627 137.346 43.3617 139.56 43.3617H155.62C157.834 43.3617 159.635 45.1627 159.635 47.3767V77.0874Z" fill="url(#paint3_linear)"/>
<defs>
<linearGradient id="paint0_linear" x1="-173.437" y1="79.3762" x2="153.33" y2="264.929" gradientUnits="userSpaceOnUse">
<stop stop-color="#FFC300"/>
<stop offset="1" stop-color="#FF00FF"/>
</linearGradient>
<linearGradient id="paint1_linear" x1="-57.811" y1="17.8469" x2="27.7268" y2="101.858" gradientUnits="userSpaceOnUse">
<stop stop-color="#FFC300"/>
<stop offset="1" stop-color="#FF00FF"/>
</linearGradient>
<linearGradient id="paint2_linear" x1="63.2803" y1="17.8469" x2="148.818" y2="101.858" gradientUnits="userSpaceOnUse">
<stop stop-color="#FFC300"/>
<stop offset="1" stop-color="#FF00FF"/>
</linearGradient>
<linearGradient id="paint3_linear" x1="-68.7267" y1="90.7186" x2="214.475" y2="262.431" gradientUnits="userSpaceOnUse">
<stop stop-color="#FFC300"/>
<stop offset="1" stop-color="#FF00FF"/>
</linearGradient>
</defs>
</svg>
