<svg width="493" height="447" viewBox="0 0 493 447" fill="none" xmlns="http://www.w3.org/2000/svg">
<mask id="mask0" mask-type="alpha" maskUnits="userSpaceOnUse" x="43" y="56" width="374" height="255">
<path d="M51.4625 56.9363H407.914C412.388 56.9363 416.015 60.5633 416.015 65.0375V302.672C416.015 307.146 412.388 310.773 407.914 310.773H51.4625C46.9883 310.773 43.3613 307.146 43.3613 302.672V65.0375C43.3613 60.5633 46.9883 56.9363 51.4625 56.9363Z" fill="white"/>
</mask>
<g mask="url(#mask0)">
<path d="M51.4625 56.9363H407.914C412.388 56.9363 416.015 60.5633 416.015 65.0375V302.672C416.015 307.146 412.388 310.773 407.914 310.773H51.4625C46.9883 310.773 43.3613 307.146 43.3613 302.672V65.0375C43.3613 60.5633 46.9883 56.9363 51.4625 56.9363Z" fill="url(#paint0_linear)"/>
<path d="M43.3613 77.8643H105.47V310.773H51.4625C46.9883 310.773 43.3613 307.146 43.3613 302.672V77.8643Z" fill="url(#paint1_linear)"/>
<path d="M74.4181 118.37C68.0797 118.37 62.9414 113.232 62.9414 106.894C62.9414 100.555 68.0797 95.417 74.4181 95.417C80.7565 95.417 85.8947 100.555 85.8947 106.894C85.8947 113.232 80.7565 118.37 74.4181 118.37ZM74.4181 115.67C79.2651 115.67 83.1944 111.741 83.1944 106.894C83.1944 102.047 79.2651 98.1174 74.4181 98.1174C69.5711 98.1174 65.6418 102.047 65.6418 106.894C65.6418 111.741 69.5711 115.67 74.4181 115.67Z" fill="white"/>
<path opacity="0.449823" d="M51.4625 56.9363H407.914C412.388 56.9363 416.015 60.5633 416.015 65.0375V77.8643H43.3613V65.0375C43.3613 60.5633 46.9883 56.9363 51.4625 56.9363Z" fill="white"/>
<path d="M56.1906 70.101C57.682 70.101 58.891 68.892 58.891 67.4006C58.891 65.9092 57.682 64.7002 56.1906 64.7002C54.6992 64.7002 53.4902 65.9092 53.4902 67.4006C53.4902 68.892 54.6992 70.101 56.1906 70.101Z" fill="#F3757C"/>
<path d="M66.3156 70.101C67.807 70.101 69.016 68.892 69.016 67.4006C69.016 65.9092 67.807 64.7002 66.3156 64.7002C64.8242 64.7002 63.6152 65.9092 63.6152 67.4006C63.6152 68.892 64.8242 70.101 66.3156 70.101Z" fill="#C1A4FF"/>
<path d="M76.4426 70.101C77.934 70.101 79.143 68.892 79.143 67.4006C79.143 65.9092 77.934 64.7002 76.4426 64.7002C74.9512 64.7002 73.7422 65.9092 73.7422 67.4006C73.7422 68.892 74.9512 70.101 76.4426 70.101Z" fill="#85CFF3"/>
<path d="M68.4303 133.949C67.6846 133.949 67.0801 133.345 67.0801 132.599C67.0801 131.853 67.6846 131.249 68.4303 131.249H80.4048C81.1505 131.249 81.755 131.853 81.755 132.599C81.755 133.345 81.1505 133.949 80.4048 133.949H68.4303Z" fill="white"/>
<path d="M125.59 100.194C124.845 100.194 124.24 99.5898 124.24 98.8441C124.24 98.0984 124.845 97.4939 125.59 97.4939H137.565C138.311 97.4939 138.915 98.0984 138.915 98.8441C138.915 99.5898 138.311 100.194 137.565 100.194H125.59Z" fill="white"/>
<path d="M61.6783 140.7C60.9326 140.7 60.3281 140.096 60.3281 139.35C60.3281 138.604 60.9326 138 61.6783 138H87.1548C87.9005 138 88.505 138.604 88.505 139.35C88.505 140.096 87.9005 140.7 87.1548 140.7H61.6783Z" fill="#EAF2FF"/>
<path d="M125.59 106.946C124.845 106.946 124.24 106.341 124.24 105.595C124.24 104.85 124.845 104.245 125.59 104.245H151.067C151.813 104.245 152.417 104.85 152.417 105.595C152.417 106.341 151.813 106.946 151.067 106.946H125.59Z" fill="#F2F4FF"/>
</g>
<g filter="url(#filter0_d)">
<mask id="mask1" mask-type="alpha" maskUnits="userSpaceOnUse" x="207" y="95" width="107" height="73">
<path d="M213.129 95.1067H307.48C310.591 95.1067 313.113 97.6286 313.113 100.74V161.998C313.113 165.109 310.591 167.631 307.48 167.631H213.129C210.018 167.631 207.496 165.109 207.496 161.998V100.74C207.496 97.6286 210.018 95.1067 213.129 95.1067Z" fill="white"/>
</mask>
<g mask="url(#mask1)">
<path d="M213.129 95.1067H307.48C310.591 95.1067 313.113 97.6286 313.113 100.74V161.998C313.113 165.109 310.591 167.631 307.48 167.631H213.129C210.018 167.631 207.496 165.109 207.496 161.998V100.74C207.496 97.6286 210.018 95.1067 213.129 95.1067Z" fill="url(#paint2_linear)"/>
<path opacity="0.2" d="M227.485 136.043C228.89 136.043 230.029 137.183 230.029 138.588V154.644C230.029 156.049 228.89 157.188 227.485 157.188H222.717C221.311 157.188 220.172 156.049 220.172 154.644V138.588C220.172 137.183 221.311 136.043 222.717 136.043H227.485ZM241.567 136.043C242.972 136.043 244.112 137.183 244.112 138.588V154.644C244.112 156.049 242.972 157.188 241.567 157.188H236.799C235.393 157.188 234.254 156.049 234.254 154.644V138.588C234.254 137.183 235.393 136.043 236.799 136.043H241.567ZM255.649 136.043C257.055 136.043 258.194 137.183 258.194 138.588V154.644C258.194 156.049 257.055 157.188 255.649 157.188H250.881C249.476 157.188 248.336 156.049 248.336 154.644V138.588C248.336 137.183 249.476 136.043 250.881 136.043H255.649ZM269.732 136.043C271.137 136.043 272.276 137.183 272.276 138.588V154.644C272.276 156.049 271.137 157.188 269.732 157.188H264.963C263.558 157.188 262.419 156.049 262.419 154.644V138.588C262.419 137.183 263.558 136.043 264.963 136.043H269.732ZM283.814 136.043C285.219 136.043 286.359 137.183 286.359 138.588V154.644C286.359 156.049 285.219 157.188 283.814 157.188H279.046C277.64 157.188 276.501 156.049 276.501 154.644V138.588C276.501 137.183 277.64 136.043 279.046 136.043H283.814ZM297.896 136.043C299.302 136.043 300.441 137.183 300.441 138.588V154.644C300.441 156.049 299.302 157.188 297.896 157.188H293.128C291.723 157.188 290.583 156.049 290.583 154.644V138.588C290.583 137.183 291.723 136.043 293.128 136.043H297.896Z" fill="white"/>
<path d="M221.58 149.259H228.621C229.399 149.259 230.029 149.889 230.029 150.667V155.78C230.029 156.558 229.399 157.188 228.621 157.188H221.58C220.802 157.188 220.172 156.558 220.172 155.78V150.667C220.172 149.889 220.802 149.259 221.58 149.259ZM235.662 146.616H242.704C243.481 146.616 244.112 147.246 244.112 148.024V155.78C244.112 156.558 243.481 157.188 242.704 157.188H235.662C234.885 157.188 234.254 156.558 234.254 155.78V148.024C234.254 147.246 234.885 146.616 235.662 146.616ZM249.745 142.74H256.786C257.564 142.74 258.194 143.371 258.194 144.148V155.78C258.194 156.558 257.564 157.188 256.786 157.188H249.745C248.967 157.188 248.336 156.558 248.336 155.78V144.148C248.336 143.371 248.967 142.74 249.745 142.74ZM263.827 145.315H270.868C271.646 145.315 272.276 145.945 272.276 146.723V155.78C272.276 156.558 271.646 157.188 270.868 157.188H263.827C263.049 157.188 262.419 156.558 262.419 155.78V146.723C262.419 145.945 263.049 145.315 263.827 145.315ZM277.909 153.224H284.95C285.728 153.224 286.359 153.854 286.359 154.632V155.78C286.359 156.558 285.728 157.188 284.95 157.188H277.909C277.132 157.188 276.501 156.558 276.501 155.78V154.632C276.501 153.854 277.132 153.224 277.909 153.224ZM291.992 149.259H299.033C299.81 149.259 300.441 149.889 300.441 150.667V155.78C300.441 156.558 299.81 157.188 299.033 157.188H291.992C291.214 157.188 290.583 156.558 290.583 155.78V150.667C290.583 149.889 291.214 149.259 291.992 149.259Z" fill="white"/>
<path opacity="0.3" d="M293.326 125.344C287.554 125.344 282.871 120.685 282.871 114.935C282.871 109.184 287.554 104.525 293.326 104.525C299.099 104.525 303.781 109.184 303.781 114.935C303.781 120.685 299.099 125.344 293.326 125.344ZM293.326 122.528C297.546 122.528 300.965 119.127 300.965 114.935C300.965 110.742 297.546 107.341 293.326 107.341C289.106 107.341 285.688 110.742 285.688 114.935C285.688 119.127 289.106 122.528 293.326 122.528Z" fill="white"/>
<path d="M286.886 123.134C286.273 122.656 286.163 121.771 286.642 121.158C287.12 120.544 288.005 120.435 288.618 120.913C289.953 121.954 291.594 122.528 293.328 122.528C297.548 122.528 300.967 119.127 300.967 114.935C300.967 110.742 297.548 107.341 293.328 107.341C292.55 107.341 291.92 106.711 291.92 105.933C291.92 105.155 292.55 104.525 293.328 104.525C299.101 104.525 303.783 109.184 303.783 114.935C303.783 120.685 299.101 125.344 293.328 125.344C290.961 125.344 288.711 124.558 286.886 123.134Z" fill="white"/>
<path d="M220.875 112.358C220.097 112.358 219.467 111.727 219.467 110.949C219.467 110.172 220.097 109.541 220.875 109.541H233.364C234.142 109.541 234.772 110.172 234.772 110.949C234.772 111.727 234.142 112.358 233.364 112.358H220.875Z" fill="white"/>
<path opacity="0.3" d="M220.875 119.399C220.097 119.399 219.467 118.768 219.467 117.991C219.467 117.213 220.097 116.582 220.875 116.582H247.447C248.224 116.582 248.855 117.213 248.855 117.991C248.855 118.768 248.224 119.399 247.447 119.399H220.875Z" fill="white"/>
</g>
</g>
<g filter="url(#filter1_d)">
<path d="M122.574 95.1067H191.99C194.278 95.1067 196.134 96.9621 196.134 99.2509V162.968C196.134 165.257 194.278 167.112 191.99 167.112H122.574C120.285 167.112 118.43 165.257 118.43 162.968V99.2509C118.43 96.9621 120.285 95.1067 122.574 95.1067Z" fill="url(#paint3_linear)"/>
<path opacity="0.1" d="M118.803 141.866H195.989V163.105C195.989 165.394 194.133 167.25 191.845 167.25H122.947C120.658 167.25 118.803 165.394 118.803 163.105V141.866Z" fill="white"/>
<path d="M129.491 157.184C128.919 157.184 128.455 156.721 128.455 156.148C128.455 155.576 128.919 155.112 129.491 155.112H138.68C139.252 155.112 139.716 155.576 139.716 156.148C139.716 156.721 139.252 157.184 138.68 157.184H129.491Z" fill="white"/>
<path opacity="0.3" d="M129.491 152.004C128.919 152.004 128.455 151.54 128.455 150.968C128.455 150.396 128.919 149.932 129.491 149.932H135.053C135.626 149.932 136.089 150.396 136.089 150.968C136.089 151.54 135.626 152.004 135.053 152.004H129.491Z" fill="white"/>
<path d="M152.804 157.184C152.231 157.184 151.768 156.721 151.768 156.148C151.768 155.576 152.231 155.112 152.804 155.112H161.992C162.564 155.112 163.028 155.576 163.028 156.148C163.028 156.721 162.564 157.184 161.992 157.184H152.804Z" fill="white"/>
<path opacity="0.3" d="M152.804 152.004C152.231 152.004 151.768 151.54 151.768 150.968C151.768 150.396 152.231 149.932 152.804 149.932H158.366C158.938 149.932 159.402 150.396 159.402 150.968C159.402 151.54 158.938 152.004 158.366 152.004H152.804Z" fill="white"/>
<path d="M176.114 157.184C175.542 157.184 175.078 156.721 175.078 156.148C175.078 155.576 175.542 155.112 176.114 155.112H185.303C185.875 155.112 186.339 155.576 186.339 156.148C186.339 156.721 185.875 157.184 185.303 157.184H176.114Z" fill="white"/>
<path opacity="0.3" d="M176.114 152.004C175.542 152.004 175.078 151.54 175.078 150.968C175.078 150.396 175.542 149.932 176.114 149.932H181.676C182.249 149.932 182.713 150.396 182.713 150.968C182.713 151.54 182.249 152.004 181.676 152.004H176.114Z" fill="white"/>
<path opacity="0.3" d="M134.11 121.299L128.348 126.757L127.992 126.38L133.786 120.896L138.541 117.667L138.621 117.631L144.242 116.162L149.439 120.874L154.27 123.061L159.32 118.331L159.368 118.296L164.689 115.231L170.049 112.468L175.204 118.313L180.329 121.007L185.219 116.131L185.585 116.498L180.425 121.642L174.921 118.75L174.847 118.692L169.927 113.113L164.937 115.686L159.652 118.73L154.371 123.675L149.188 121.329L149.121 121.285L144.102 116.734L138.795 118.121L134.11 121.299Z" fill="white"/>
<path d="M127.699 123.4C127.699 122.971 128.047 122.623 128.476 122.623C128.905 122.623 129.253 122.971 129.253 123.4V129.063C129.253 129.492 128.905 129.84 128.476 129.84C128.047 129.84 127.699 129.492 127.699 129.063V123.4Z" fill="white"/>
<path d="M132.879 118.22C132.879 117.791 133.227 117.443 133.656 117.443C134.085 117.443 134.433 117.791 134.433 118.22V123.882C134.433 124.312 134.085 124.66 133.656 124.66C133.227 124.66 132.879 124.312 132.879 123.882V118.22Z" fill="white"/>
<path d="M138.061 113.039C138.061 112.61 138.408 112.262 138.838 112.262C139.267 112.262 139.615 112.61 139.615 113.039V123.882C139.615 124.311 139.267 124.659 138.838 124.659C138.408 124.659 138.061 124.311 138.061 123.882V113.039Z" fill="white"/>
<path d="M143.24 113.039C143.24 112.61 143.588 112.262 144.017 112.262C144.446 112.262 144.794 112.61 144.794 113.039V118.702C144.794 119.131 144.446 119.479 144.017 119.479C143.588 119.479 143.24 119.131 143.24 118.702V113.039Z" fill="white"/>
<path d="M148.42 118.22C148.42 117.791 148.768 117.443 149.197 117.443C149.626 117.443 149.974 117.791 149.974 118.22V123.882C149.974 124.312 149.626 124.66 149.197 124.66C148.768 124.66 148.42 124.312 148.42 123.882V118.22Z" fill="white"/>
<path d="M153.6 119.773C153.6 119.344 153.948 118.996 154.377 118.996C154.806 118.996 155.154 119.344 155.154 119.773V125.436C155.154 125.865 154.806 126.213 154.377 126.213C153.948 126.213 153.6 125.865 153.6 125.436V119.773Z" fill="white"/>
<path d="M158.779 115.63C158.779 115.2 159.127 114.853 159.556 114.853C159.985 114.853 160.333 115.2 160.333 115.63V121.292C160.333 121.721 159.985 122.069 159.556 122.069C159.127 122.069 158.779 121.721 158.779 121.292V115.63Z" fill="white"/>
<path d="M163.963 113.039C163.963 112.61 164.311 112.262 164.74 112.262C165.169 112.262 165.517 112.61 165.517 113.039V118.702C165.517 119.131 165.169 119.479 164.74 119.479C164.311 119.479 163.963 119.131 163.963 118.702V113.039Z" fill="white"/>
<path d="M169.143 107.859C169.143 107.43 169.49 107.082 169.92 107.082C170.349 107.082 170.697 107.43 170.697 107.859V118.702C170.697 119.131 170.349 119.479 169.92 119.479C169.49 119.479 169.143 119.131 169.143 118.702V107.859Z" fill="white"/>
<path d="M174.322 113.039C174.322 112.61 174.67 112.262 175.099 112.262C175.528 112.262 175.876 112.61 175.876 113.039V122.328C175.876 122.757 175.528 123.105 175.099 123.105C174.67 123.105 174.322 122.757 174.322 122.328V113.039Z" fill="white"/>
<path d="M179.5 115.63C179.5 115.2 179.848 114.853 180.277 114.853C180.706 114.853 181.054 115.2 181.054 115.63V126.472C181.054 126.902 180.706 127.249 180.277 127.249C179.848 127.249 179.5 126.902 179.5 126.472V115.63Z" fill="white"/>
<path d="M184.682 113.039C184.682 112.61 185.03 112.262 185.459 112.262C185.888 112.262 186.236 112.61 186.236 113.039V118.702C186.236 119.131 185.888 119.479 185.459 119.479C185.03 119.479 184.682 119.131 184.682 118.702V113.039Z" fill="white"/>
</g>
<g filter="url(#filter2_d)">
<mask id="mask2" mask-type="alpha" maskUnits="userSpaceOnUse" x="324" y="95" width="79" height="73">
<path d="M328.695 95.1067H398.111C400.399 95.1067 402.255 96.9621 402.255 99.2509V163.486C402.255 165.775 400.399 167.631 398.111 167.631H328.695C326.406 167.631 324.551 165.775 324.551 163.486V99.2509C324.551 96.9621 326.406 95.1067 328.695 95.1067Z" fill="white"/>
</mask>
<g mask="url(#mask2)">
<path d="M328.695 95.1067H398.111C400.399 95.1067 402.255 96.9621 402.255 99.2509V163.486C402.255 165.775 400.399 167.631 398.111 167.631H328.695C326.406 167.631 324.551 165.775 324.551 163.486V99.2509C324.551 96.9621 326.406 95.1067 328.695 95.1067Z" fill="url(#paint4_linear)"/>
<path d="M350.972 108.246C350.399 108.246 349.936 107.782 349.936 107.21C349.936 106.638 350.399 106.174 350.972 106.174H360.16C360.732 106.174 361.196 106.638 361.196 107.21C361.196 107.782 360.732 108.246 360.16 108.246H350.972Z" fill="white"/>
<path d="M340.187 115.441C343.334 115.441 345.885 112.889 345.885 109.742C345.885 106.595 343.334 104.044 340.187 104.044C337.039 104.044 334.488 106.595 334.488 109.742C334.488 112.889 337.039 115.441 340.187 115.441Z" fill="white"/>
<path d="M340.199 111.014C339.101 111.014 338.205 110.143 338.205 109.06C338.205 107.978 339.101 107.106 340.199 107.106C341.297 107.106 342.193 107.978 342.193 109.06C342.193 110.143 341.297 111.014 340.199 111.014ZM340.199 109.978C340.731 109.978 341.157 109.564 341.157 109.06C341.157 108.556 340.731 108.142 340.199 108.142C339.667 108.142 339.241 108.556 339.241 109.06C339.241 109.564 339.667 109.978 340.199 109.978Z" fill="#F3747B"/>
<path opacity="0.3" d="M342.193 112.013C342.193 112.299 341.961 112.531 341.675 112.531C341.389 112.531 341.157 112.299 341.157 112.013C341.157 111.509 340.731 111.095 340.199 111.095C339.667 111.095 339.241 111.509 339.241 112.013C339.241 112.299 339.009 112.531 338.723 112.531C338.437 112.531 338.205 112.299 338.205 112.013C338.205 110.93 339.101 110.059 340.199 110.059C341.297 110.059 342.193 110.93 342.193 112.013Z" fill="#F3747B"/>
<path opacity="0.3" d="M350.972 113.426C350.399 113.426 349.936 112.962 349.936 112.39C349.936 111.818 350.399 111.354 350.972 111.354H370.521C371.093 111.354 371.557 111.818 371.557 112.39C371.557 112.962 371.093 113.426 370.521 113.426H350.972Z" fill="white"/>
<g filter="url(#filter3_d)">
<path d="M338.019 126.188H358.74C360.743 126.188 362.366 127.812 362.366 129.814V153.644C362.366 155.646 360.743 157.27 358.74 157.27H338.019C336.016 157.27 334.393 155.646 334.393 153.644V129.814C334.393 127.812 336.016 126.188 338.019 126.188ZM369.618 126.188H390.34C392.342 126.188 393.966 127.812 393.966 129.814V153.644C393.966 155.646 392.342 157.27 390.34 157.27H369.618C367.616 157.27 365.992 155.646 365.992 153.644V129.814C365.992 127.812 367.616 126.188 369.618 126.188Z" fill="black"/>
</g>
<path d="M338.019 126.188H358.74C360.743 126.188 362.366 127.812 362.366 129.814V153.644C362.366 155.646 360.743 157.27 358.74 157.27H338.019C336.016 157.27 334.393 155.646 334.393 153.644V129.814C334.393 127.812 336.016 126.188 338.019 126.188ZM369.618 126.188H390.34C392.342 126.188 393.966 127.812 393.966 129.814V153.644C393.966 155.646 392.342 157.27 390.34 157.27H369.618C367.616 157.27 365.992 155.646 365.992 153.644V129.814C365.992 127.812 367.616 126.188 369.618 126.188Z" fill="white"/>
<path opacity="0.3" d="M346.301 140.123L348.62 143.743L350.774 141.391L354.362 146.626H342.395L346.301 140.123ZM351.95 136.833C352.808 136.833 353.504 137.528 353.504 138.387C353.504 139.245 352.808 139.941 351.95 139.941C351.091 139.941 350.396 139.245 350.396 138.387C350.396 137.528 351.091 136.833 351.95 136.833Z" fill="#FFA788"/>
<g opacity="0.3">
<g opacity="0.3">
<path opacity="0.3" d="M377.903 140.123L380.222 143.743L382.375 141.391L385.964 146.626H373.996L377.903 140.123ZM383.551 136.833C384.41 136.833 385.105 137.528 385.105 138.387C385.105 139.245 384.41 139.941 383.551 139.941C382.693 139.941 381.997 139.245 381.997 138.387C381.997 137.528 382.693 136.833 383.551 136.833Z" fill="#B579EE"/>
</g>
</g>
</g>
</g>
<path d="M348.252 44.4852C357.036 44.4852 364.156 37.3646 364.156 28.5809C364.156 19.7971 357.036 12.6765 348.252 12.6765C339.468 12.6765 332.348 19.7971 332.348 28.5809C332.348 37.3646 339.468 44.4852 348.252 44.4852Z" fill="url(#paint5_linear)"/>
<path d="M352.614 25.3547C353.002 24.9665 353.632 24.9665 354.02 25.3547C354.408 25.7429 354.408 26.3723 354.02 26.7605L348.397 32.3835C348.009 32.7717 347.379 32.7717 346.991 32.3835L343.477 28.8691C343.089 28.4809 343.089 27.8516 343.477 27.4634C343.865 27.0752 344.494 27.0752 344.883 27.4634L347.694 30.2749L352.614 25.3547Z" fill="#49B4C0"/>
<path d="M30.4839 115.464H49.1036C52.5314 115.464 55.3102 118.243 55.3102 121.671V134.86C55.3102 138.288 52.5314 141.066 49.1036 141.066H32.1355L26.7907 145.288C26.1182 145.819 25.1425 145.704 24.6113 145.032C24.395 144.758 24.2773 144.419 24.2773 144.07V121.671C24.2773 118.243 27.0561 115.464 30.4839 115.464Z" fill="url(#paint6_linear)"/>
<path opacity="0.4" d="M34.0169 127.102C35.1114 127.102 35.9986 127.989 35.9986 129.084C35.9986 130.178 35.1114 131.065 34.0169 131.065C32.9224 131.065 32.0352 130.178 32.0352 129.084C32.0352 127.989 32.9224 127.102 34.0169 127.102ZM40.6227 127.102C41.7172 127.102 42.6044 127.989 42.6044 129.084C42.6044 130.178 41.7172 131.065 40.6227 131.065C39.5282 131.065 38.6409 130.178 38.6409 129.084C38.6409 127.989 39.5282 127.102 40.6227 127.102ZM47.2285 127.102C48.323 127.102 49.2102 127.989 49.2102 129.084C49.2102 130.178 48.323 131.065 47.2285 131.065C46.134 131.065 45.2467 130.178 45.2467 129.084C45.2467 127.989 46.134 127.102 47.2285 127.102Z" fill="white"/>
<path d="M53.9134 129.254C55.97 129.254 57.6373 130.921 57.6373 132.978V145.137C57.6373 145.486 57.5196 145.824 57.3033 146.098C56.7722 146.771 55.7964 146.885 55.1239 146.354L52.9224 144.615H42.7415C40.6848 144.615 39.0176 142.948 39.0176 140.891V132.978C39.0176 130.921 40.6848 129.254 42.7415 129.254H53.9134Z" fill="url(#paint7_linear)"/>
<path opacity="0.4" d="M45.1126 135.068C46.2071 135.068 47.0943 135.955 47.0943 137.05C47.0943 138.144 46.2071 139.032 45.1126 139.032C44.0181 139.032 43.1309 138.144 43.1309 137.05C43.1309 135.955 44.0181 135.068 45.1126 135.068ZM51.7184 135.068C52.8129 135.068 53.7001 135.955 53.7001 137.05C53.7001 138.144 52.8129 139.032 51.7184 139.032C50.6239 139.032 49.7367 138.144 49.7367 137.05C49.7367 135.955 50.6239 135.068 51.7184 135.068Z" fill="white"/>
<g filter="url(#filter4_d)">
<path d="M211.655 200.354H281.314C283.611 200.354 285.473 202.216 285.473 204.513V225.307C285.473 227.603 283.611 229.465 281.314 229.465H211.655C209.358 229.465 207.496 227.603 207.496 225.307V204.513C207.496 202.216 209.358 200.354 211.655 200.354Z" fill="url(#paint8_linear)"/>
<path d="M238.686 213.09C238.112 213.09 237.646 212.625 237.646 212.05C237.646 211.476 238.112 211.011 238.686 211.011H247.907C248.481 211.011 248.947 211.476 248.947 212.05C248.947 212.625 248.481 213.09 247.907 213.09H238.686Z" fill="white"/>
<path opacity="0.3" d="M238.686 218.289C238.112 218.289 237.646 217.823 237.646 217.249C237.646 216.675 238.112 216.209 238.686 216.209H258.304C258.878 216.209 259.343 216.675 259.343 217.249C259.343 217.823 258.878 218.289 258.304 218.289H238.686Z" fill="white"/>
<path d="M223.61 222.707C219.304 222.707 215.812 219.216 215.812 214.909C215.812 210.603 219.304 207.112 223.61 207.112C227.917 207.112 231.408 210.603 231.408 214.909C231.408 219.216 227.917 222.707 223.61 222.707ZM223.61 220.628C226.768 220.628 229.328 218.068 229.328 214.909C229.328 211.751 226.768 209.191 223.61 209.191C220.452 209.191 217.892 211.751 217.892 214.909C217.892 218.068 220.452 220.628 223.61 220.628Z" fill="white"/>
</g>
<g filter="url(#filter5_d)">
<path d="M122.588 180.354H192.248C194.544 180.354 196.406 182.216 196.406 184.513V205.307C196.406 207.603 194.544 209.465 192.248 209.465H122.588C120.292 209.465 118.43 207.603 118.43 205.307V184.513C118.43 182.216 120.292 180.354 122.588 180.354Z" fill="url(#paint9_linear)"/>
<path opacity="0.2" d="M173.44 187.184H175.688C176.262 187.184 176.727 187.65 176.727 188.224V201.756C176.727 202.33 176.262 202.795 175.688 202.795H173.44C172.866 202.795 172.401 202.33 172.401 201.756V188.224C172.401 187.65 172.866 187.184 173.44 187.184ZM179.585 187.184H181.832C182.407 187.184 182.872 187.65 182.872 188.224V201.756C182.872 202.33 182.407 202.795 181.832 202.795H179.585C179.011 202.795 178.546 202.33 178.546 201.756V188.224C178.546 187.65 179.011 187.184 179.585 187.184ZM185.73 187.184H187.977C188.552 187.184 189.017 187.65 189.017 188.224V201.756C189.017 202.33 188.552 202.795 187.977 202.795H185.73C185.156 202.795 184.69 202.33 184.69 201.756V188.224C184.69 187.65 185.156 187.184 185.73 187.184ZM167.296 187.184H169.543C170.117 187.184 170.583 187.65 170.583 188.224V201.756C170.583 202.33 170.117 202.795 169.543 202.795H167.296C166.721 202.795 166.256 202.33 166.256 201.756V188.224C166.256 187.65 166.721 187.184 167.296 187.184Z" fill="white"/>
<path d="M173.44 191.743H175.688C176.262 191.743 176.727 192.208 176.727 192.783V201.756C176.727 202.33 176.262 202.796 175.688 202.796H173.44C172.866 202.796 172.401 202.33 172.401 201.756V192.783C172.401 192.208 172.866 191.743 173.44 191.743ZM167.296 196.941H169.543C170.117 196.941 170.583 197.407 170.583 197.981V201.756C170.583 202.33 170.117 202.796 169.543 202.796H167.296C166.721 202.796 166.256 202.33 166.256 201.756V197.981C166.256 197.407 166.721 196.941 167.296 196.941ZM179.585 194.502H181.832C182.407 194.502 182.872 194.968 182.872 195.542V201.756C182.872 202.33 182.407 202.796 181.832 202.796H179.585C179.011 202.796 178.546 202.33 178.546 201.756V195.542C178.546 194.968 179.011 194.502 179.585 194.502ZM185.73 199.701H187.977C188.552 199.701 189.017 200.166 189.017 200.74V201.756C189.017 202.33 188.552 202.796 187.977 202.796H185.73C185.156 202.796 184.69 202.33 184.69 201.756V200.74C184.69 200.166 185.156 199.701 185.73 199.701Z" fill="white"/>
<path d="M127.676 193.09C127.102 193.09 126.637 192.625 126.637 192.05C126.637 191.476 127.102 191.011 127.676 191.011H136.897C137.471 191.011 137.937 191.476 137.937 192.05C137.937 192.625 137.471 193.09 136.897 193.09H127.676Z" fill="white"/>
<path opacity="0.3" d="M127.676 198.289C127.102 198.289 126.637 197.823 126.637 197.249C126.637 196.675 127.102 196.209 127.676 196.209H147.294C147.868 196.209 148.334 196.675 148.334 197.249C148.334 197.823 147.868 198.289 147.294 198.289H127.676Z" fill="white"/>
</g>
<g filter="url(#filter6_d)">
<path d="M315.987 180.354H385.646C387.943 180.354 389.805 182.216 389.805 184.513V205.307C389.805 207.603 387.943 209.465 385.646 209.465H315.987C313.69 209.465 311.828 207.603 311.828 205.307V184.513C311.828 182.216 313.69 180.354 315.987 180.354Z" fill="url(#paint10_linear)"/>
<path opacity="0.2" d="M366.839 187.184H369.086C369.66 187.184 370.126 187.65 370.126 188.224V201.756C370.126 202.33 369.66 202.795 369.086 202.795H366.839C366.265 202.795 365.799 202.33 365.799 201.756V188.224C365.799 187.65 366.265 187.184 366.839 187.184ZM372.984 187.184H375.231C375.805 187.184 376.271 187.65 376.271 188.224V201.756C376.271 202.33 375.805 202.795 375.231 202.795H372.984C372.409 202.795 371.944 202.33 371.944 201.756V188.224C371.944 187.65 372.409 187.184 372.984 187.184ZM379.128 187.184H381.376C381.95 187.184 382.415 187.65 382.415 188.224V201.756C382.415 202.33 381.95 202.795 381.376 202.795H379.128C378.554 202.795 378.089 202.33 378.089 201.756V188.224C378.089 187.65 378.554 187.184 379.128 187.184ZM360.694 187.184H362.941C363.515 187.184 363.981 187.65 363.981 188.224V201.756C363.981 202.33 363.515 202.795 362.941 202.795H360.694C360.12 202.795 359.654 202.33 359.654 201.756V188.224C359.654 187.65 360.12 187.184 360.694 187.184Z" fill="white"/>
<path d="M366.839 191.743H369.086C369.66 191.743 370.126 192.208 370.126 192.783V201.756C370.126 202.33 369.66 202.796 369.086 202.796H366.839C366.265 202.796 365.799 202.33 365.799 201.756V192.783C365.799 192.208 366.265 191.743 366.839 191.743ZM360.694 196.941H362.941C363.515 196.941 363.981 197.407 363.981 197.981V201.756C363.981 202.33 363.515 202.796 362.941 202.796H360.694C360.12 202.796 359.654 202.33 359.654 201.756V197.981C359.654 197.407 360.12 196.941 360.694 196.941ZM372.984 194.502H375.231C375.805 194.502 376.271 194.968 376.271 195.542V201.756C376.271 202.33 375.805 202.796 375.231 202.796H372.984C372.409 202.796 371.944 202.33 371.944 201.756V195.542C371.944 194.968 372.409 194.502 372.984 194.502ZM379.128 199.701H381.376C381.95 199.701 382.415 200.166 382.415 200.74V201.756C382.415 202.33 381.95 202.796 381.376 202.796H379.128C378.554 202.796 378.089 202.33 378.089 201.756V200.74C378.089 200.166 378.554 199.701 379.128 199.701Z" fill="white"/>
<path d="M321.075 193.09C320.501 193.09 320.035 192.625 320.035 192.05C320.035 191.476 320.501 191.011 321.075 191.011H330.296C330.87 191.011 331.335 191.476 331.335 192.05C331.335 192.625 330.87 193.09 330.296 193.09H321.075Z" fill="white"/>
<path opacity="0.3" d="M321.075 198.289C320.501 198.289 320.035 197.823 320.035 197.249C320.035 196.675 320.501 196.209 321.075 196.209H340.692C341.267 196.209 341.732 196.675 341.732 197.249C341.732 197.823 341.267 198.289 340.692 198.289H321.075Z" fill="white"/>
</g>
<mask id="mask3" mask-type="alpha" maskUnits="userSpaceOnUse" x="213" y="430" width="39" height="17">
<path d="M233.406 430.461C232.312 435.366 228.449 438.004 221.817 438.377C215.185 438.749 212.358 441.388 213.337 446.292C231.854 446.292 242.94 446.292 246.595 446.292C250.251 446.292 251.636 444.823 250.75 441.885L248.008 430.461H233.406Z" fill="white"/>
</mask>
<g mask="url(#mask3)">
<path d="M233.406 430.461C232.312 435.366 228.449 438.004 221.817 438.377C215.185 438.749 212.358 441.388 213.337 446.292C231.854 446.292 242.94 446.292 246.595 446.292C250.251 446.292 251.636 444.823 250.75 441.885L248.008 430.461H233.406Z" fill="url(#paint11_linear)"/>
<path opacity="0.2" d="M251.009 439.528H213.148V446.599H251.009V439.528Z" fill="#F3F4FF"/>
</g>
<mask id="mask4" mask-type="alpha" maskUnits="userSpaceOnUse" x="255" y="430" width="31" height="17">
<path d="M264.395 430.46C262.917 433.399 260.771 436.038 257.957 438.376C253.737 441.884 255.341 446.292 257.654 446.292C259.966 446.292 275.893 446.292 281.376 446.292C285.031 446.292 286.416 444.823 285.53 441.884L278.997 430.46H264.395Z" fill="white"/>
</mask>
<g mask="url(#mask4)">
<path d="M276.726 430.46C278.204 433.399 280.35 436.038 283.164 438.376C287.384 441.884 285.78 446.292 283.467 446.292C281.155 446.292 265.228 446.292 259.745 446.292C256.09 446.292 254.705 444.823 255.591 441.884L262.124 430.46H276.726Z" fill="url(#paint12_linear)"/>
<path opacity="0.2" d="M285.79 439.528H255.332V446.599H285.79V439.528Z" fill="#F3F4FF"/>
</g>
<path d="M194.073 186.152C196.045 187.624 197.28 190.036 197.778 193.39C197.285 196.881 196.447 199.118 195.264 200.1C194.081 201.082 193.007 201.422 192.043 201.122C189.619 197.505 187.123 194.928 184.555 193.39C180.703 191.083 181.124 190.059 180.552 187.927C180.335 187.119 178.214 183.292 178.252 182.531C178.316 181.281 180.363 181.756 181.342 183.946C182.393 186.294 185.329 187.452 190.152 187.42C188.691 185.104 188.317 183.474 189.028 182.531C190.096 181.116 191.115 183.946 194.073 186.152Z" fill="url(#paint13_linear)"/>
<mask id="mask5" mask-type="alpha" maskUnits="userSpaceOnUse" x="266" y="257" width="23" height="16">
<path d="M283.141 263.464C283.591 264.297 285.972 267.033 286.471 267.637C286.971 268.24 284.033 268.06 284.793 269.402C285.934 271.415 282.485 270.444 282.883 271.747C283.43 273.542 280.799 271.398 279.347 270.133C277.895 268.867 276.256 272.126 272.761 270.355C271.751 269.844 269.472 267.621 266.717 264.305C268.637 260.987 271.249 258.644 274.555 257.278L277.186 257.712L277.035 259.393C276.927 260.265 277.22 261.399 278.179 261.399C279.138 261.399 283.384 261.378 284.374 261.791C285.034 262.067 286.468 263.008 288.676 264.614C288.471 265.549 286.471 265.404 285.364 264.305C284.747 263.692 283.078 263.347 283.141 263.464Z" fill="white"/>
</mask>
<g mask="url(#mask5)">
<path d="M272.251 263.464C271.801 264.297 269.421 267.033 268.921 267.637C268.422 268.24 271.359 268.06 270.599 269.402C269.459 271.415 272.908 270.444 272.51 271.747C271.963 273.542 274.594 271.398 276.046 270.133C277.497 268.867 279.137 272.126 282.632 270.355C283.641 269.844 285.921 267.621 288.676 264.305C286.756 260.987 284.143 258.644 280.838 257.278L278.207 257.712L278.358 259.393C278.465 260.265 278.172 261.399 277.213 261.399C276.254 261.399 272.008 261.378 271.018 261.791C270.358 262.067 268.924 263.008 266.716 264.614C266.921 265.549 268.921 265.404 270.028 264.305C270.646 263.692 272.315 263.347 272.251 263.464Z" fill="url(#paint14_linear)"/>
<path opacity="0.2" d="M278.102 258.093C281.355 263.004 284.363 265.665 287.125 266.075C289.887 266.486 287.601 263.058 280.267 255.791L278.102 258.093Z" fill="#50211F"/>
</g>
<mask id="mask6" mask-type="alpha" maskUnits="userSpaceOnUse" x="207" y="266" width="74" height="166">
<path d="M278.957 266.458C284.546 309.102 276.341 326.73 278.957 364.263C279.56 372.914 278.957 405.8 278.208 422.34C278.047 425.914 280.22 430.365 276.66 431.209C273.099 432.052 262.56 431.713 260.246 431.713C257.931 431.713 259.178 427.289 259.178 423.837C259.178 397.766 255.589 396.147 256.358 382.456C257.331 365.139 256.809 341.113 251.007 310.378C245.216 326.299 238.53 341.714 234.731 356.621C231.567 369.04 241.59 383.555 244.916 407.852C245.385 411.279 252.024 430.078 248.459 430.677C244.894 431.276 235.781 431.276 233.326 431.182C230.871 431.087 228.314 421.959 225.31 411.355C222.306 400.75 207.508 370.824 207.508 356.621C207.508 347.152 214.48 317.098 228.423 266.458H278.957Z" fill="white"/>
</mask>
<g mask="url(#mask6)">
<path d="M278.957 266.458C284.546 309.102 276.341 326.73 278.957 364.263C279.56 372.914 278.957 405.8 278.208 422.34C278.047 425.914 280.22 430.365 276.66 431.209C273.099 432.052 262.56 431.713 260.246 431.713C257.931 431.713 259.178 427.289 259.178 423.837C259.178 397.766 255.589 396.147 256.358 382.456C257.331 365.139 256.809 341.113 251.007 310.378C245.216 326.299 238.53 341.714 234.731 356.621C231.567 369.04 241.59 383.555 244.916 407.852C245.385 411.279 252.024 430.078 248.459 430.677C244.894 431.276 235.781 431.276 233.326 431.182C230.871 431.087 228.314 421.959 225.31 411.355C222.306 400.75 207.508 370.824 207.508 356.621C207.508 347.152 214.48 317.098 228.423 266.458H278.957Z" fill="url(#paint15_linear)"/>
<path opacity="0.3" d="M264.32 283.037H277.9V285.032H264.32V283.037Z" fill="white"/>
<path opacity="0.3" d="M278.441 271.578C275.859 276.019 269.129 278.239 258.249 278.239C241.929 278.239 250.712 292.305 234.041 296.947C217.37 301.589 226.347 321.605 216.211 321.605C209.455 321.605 208.602 303.223 213.654 266.458L278.441 271.578Z" fill="#151731"/>
<path opacity="0.3" d="M251.008 310.378C256.072 301.737 259.262 293.927 260.578 286.948C261.573 296.648 260.469 303.697 257.266 308.096C252.46 314.694 264.038 324.426 258.616 335.999C255.001 343.715 252.968 350.078 252.517 355.088L251.008 310.378Z" fill="#151731"/>
</g>
<path d="M261.56 162.701L265.738 175.322C259.589 180.862 253.742 183.915 252.524 183.915C251.305 183.915 250.248 181.145 249.352 175.604L249.743 173.021C249.004 173.124 247.311 173.155 246.579 173.155C242.662 173.155 239.591 161.239 240.556 147.903C241.679 148.707 243.494 146.88 245.333 146.906C248.55 146.95 252.243 148.175 255.332 146.906C260.188 144.91 258.778 157.311 259.106 157.146C259.495 156.505 260.396 158.36 261.81 162.712C261.726 162.712 261.643 162.708 261.56 162.701Z" fill="url(#paint16_linear)"/>
<path d="M244.348 155.237C244.127 150.511 242.918 148.206 240.723 148.322C240.935 143.774 242.891 140.466 246.59 138.399C252.139 135.298 262.863 134.292 265.778 144.918C267.721 152.002 266.353 158.941 261.673 165.733L252.194 167.088C250.285 164.986 248.588 162.931 247.104 160.924C248.42 160.565 249.395 159.256 249.395 157.696C249.395 155.86 248.044 154.371 246.378 154.371C245.596 154.371 244.884 154.699 244.348 155.237Z" fill="url(#paint17_linear)"/>
<path d="M246.746 177.757L249.341 174.282H266.536L268.497 177.757H246.746Z" fill="#FFCCB5"/>
<mask id="mask7" mask-type="alpha" maskUnits="userSpaceOnUse" x="188" y="175" width="128" height="101">
<path d="M241.643 177.568C248.575 176.147 262.308 174.531 277.247 177.568C281.988 178.531 286.246 181.584 288.878 184.881C303.733 201.866 309.789 215.72 313.555 220.813C316.066 224.208 315.967 227.865 313.257 231.785C306.143 243.166 301.158 251.847 292.278 261.674C291.774 262.232 290.959 264.468 289.556 265.264C286.021 265.264 282.939 262.285 280.31 256.328C288.85 241.457 294.397 232.244 296.952 228.69C290.707 221.66 285.407 216.381 281.052 212.854C278.919 231.2 277.841 243.163 277.82 248.743C277.787 256.962 279.197 264.282 279.17 265.264C279.089 268.237 282.653 269.027 273.85 273.06C265.047 277.094 241.447 274.101 233.239 273.06C225.031 272.02 224.189 269.162 226.426 263.671C228.662 258.181 229.992 245.647 230.415 226.068L216.787 234.951C211.718 236.696 207.903 235.641 205.341 231.785C202.78 227.928 197.005 216.738 188.016 198.215C188.016 193.763 191.427 191.755 198.249 192.19L213.691 213.803L230.415 185.759C233 180.774 237.142 178.491 241.643 177.568Z" fill="white"/>
</mask>
<g mask="url(#mask7)">
<path d="M241.643 177.568C248.575 176.147 262.308 174.531 277.247 177.568C281.988 178.531 286.246 181.584 288.878 184.881C303.733 201.866 309.789 215.72 313.555 220.813C316.066 224.208 315.967 227.865 313.257 231.785C306.143 243.166 301.158 251.847 292.278 261.674C291.774 262.232 290.959 264.468 289.556 265.264C286.021 265.264 282.939 262.285 280.31 256.328C288.85 241.457 294.397 232.244 296.952 228.69C290.707 221.66 285.407 216.381 281.052 212.854C278.919 231.2 277.841 243.163 277.82 248.743C277.787 256.962 279.197 264.282 279.17 265.264C279.089 268.237 282.653 269.027 273.85 273.06C265.047 277.094 241.447 274.101 233.239 273.06C225.031 272.02 224.189 269.162 226.426 263.671C228.662 258.181 229.992 245.647 230.415 226.068L216.787 234.951C211.718 236.696 207.903 235.641 205.341 231.785C202.78 227.928 197.005 216.738 188.016 198.215C188.016 193.763 191.427 191.755 198.249 192.19L213.691 213.803L230.415 185.759C233 180.774 237.142 178.491 241.643 177.568Z" fill="url(#paint18_linear)"/>
<path opacity="0.3" d="M236.582 174.872C233.981 178.47 237.204 180.268 246.252 180.268C255.299 180.268 263.183 177.94 269.902 173.284L236.582 174.872Z" fill="#923E5A"/>
<path opacity="0.3" d="M230.106 226.186L244.127 211.804C244.851 214.22 244.851 216.234 244.127 217.848C242.177 222.188 237.212 223.993 238.623 231.131C242.154 248.994 231.492 238.629 231.492 254.305C231.492 264.756 228.164 268.014 221.508 264.079L230.106 226.186Z" fill="#923E5A"/>
<path opacity="0.3" d="M280.953 213.24L283.074 196.477C284.147 207.653 286.741 213.835 290.855 215.025C297.026 216.809 294.69 225.386 296.896 228.649C293.836 228.986 289.229 229.58 283.074 230.432L280.953 213.24Z" fill="#923E5A"/>
<path opacity="0.2" d="M189.41 200.917C190.318 196.625 193.919 194.479 200.213 194.479L196.423 188.358L185.225 195.241L189.41 201.227" fill="white"/>
<path opacity="0.2" d="M282.079 252.107C285.415 258.709 288.987 262.01 292.795 262.01L291.132 265.797L285.789 265.694L279.758 257.096L280.335 252.555L282.079 252.107Z" fill="white"/>
</g>
<mask id="mask8" mask-type="alpha" maskUnits="userSpaceOnUse" x="59" y="430" width="42" height="16">
<path d="M81.1845 430.522C80.0138 435.285 75.8792 437.848 68.7805 438.21C61.6819 438.571 58.6564 441.134 59.7041 445.898C79.5234 445.898 91.3893 445.898 95.3018 445.898C99.2143 445.898 100.697 444.471 99.7488 441.617L96.8135 430.522H81.1845Z" fill="white"/>
</mask>
<g mask="url(#mask8)">
<path d="M78.3467 430.522C79.5174 435.285 83.6521 437.848 90.7507 438.21C97.8494 438.571 100.875 441.134 99.8272 445.898C80.0078 445.898 68.1419 445.898 64.2294 445.898C60.3169 445.898 58.8346 444.471 59.7825 441.617L62.7177 430.522H78.3467Z" fill="#D8E8F8"/>
<path opacity="0.2" d="M100.026 439.328H59.502V446.195H100.026V439.328Z" fill="#6F54C0"/>
</g>
<mask id="mask9" mask-type="alpha" maskUnits="userSpaceOnUse" x="0" y="430" width="33" height="16">
<path d="M9.70039 430.522C8.11839 433.376 5.82157 435.939 2.80995 438.21C-1.70749 441.617 0.0101306 445.898 2.48509 445.898C4.96004 445.898 22.0071 445.898 27.8758 445.898C31.7883 445.898 33.2707 444.471 32.3228 441.617L25.3294 430.522H9.70039Z" fill="white"/>
</mask>
<g mask="url(#mask9)">
<path d="M22.9012 430.522C24.4832 433.376 26.78 435.939 29.7916 438.21C34.3091 441.617 32.5914 445.898 30.1165 445.898C27.6415 445.898 10.5945 445.898 4.72572 445.898C0.813219 445.898 -0.66909 444.471 0.278793 441.617L7.27215 430.522H22.9012Z" fill="#D8E8F8"/>
<path opacity="0.2" d="M32.6001 439.328H0V446.195H32.6001V439.328Z" fill="#6F54C0"/>
</g>
<mask id="mask10" mask-type="alpha" maskUnits="userSpaceOnUse" x="5" y="271" width="83" height="161">
<path d="M32.5898 271.242C20.314 329.647 24.0904 325.375 17.959 360.943C16.5823 368.93 15.3379 376.958 13.7246 384.962C11.1571 397.699 10.3945 409.852 7.22786 422.634C6.47644 425.668 3.13628 430.429 6.94752 431.247C10.7588 432.066 22.0386 431.738 24.516 431.738C26.9933 431.738 26.6343 426.602 27.5968 424.088C33.8557 407.74 37.3899 392.916 38.1992 379.615C39.133 364.268 45.5138 342.439 57.3415 314.127C62.0472 340.809 63.4385 362.944 61.5155 380.531C59.9882 394.499 60.015 408.037 61.5959 421.145C62.0055 424.541 59.3217 430.665 63.1377 431.247C66.9536 431.83 76.7076 431.83 79.3353 431.738C81.963 431.646 81.3011 423.618 82.6449 414.841C83.9886 406.063 85.6132 394.757 86.6783 363.057C87.3883 341.924 87.3883 311.319 86.6783 271.242H32.5898Z" fill="white"/>
</mask>
<g mask="url(#mask10)">
<path d="M32.5898 271.242C20.314 329.647 24.0904 325.375 17.959 360.943C16.5823 368.93 15.3379 376.958 13.7246 384.962C11.1571 397.699 10.3945 409.852 7.22786 422.634C6.47644 425.668 3.13628 430.429 6.94752 431.247C10.7588 432.066 22.0386 431.738 24.516 431.738C26.9933 431.738 26.6343 426.602 27.5968 424.088C33.8557 407.74 37.3899 392.916 38.1992 379.615C39.133 364.268 45.5138 342.439 57.3415 314.127C62.0472 340.809 63.4385 362.944 61.5155 380.531C59.9882 394.499 60.015 408.037 61.5959 421.145C62.0055 424.541 59.3217 430.665 63.1377 431.247C66.9536 431.83 76.7076 431.83 79.3353 431.738C81.963 431.646 81.3011 423.618 82.6449 414.841C83.9886 406.063 85.6132 394.757 86.6783 363.057C87.3883 341.924 87.3883 311.319 86.6783 271.242H32.5898Z" fill="url(#paint19_linear)"/>
<path opacity="0.3" d="M61.5176 288.384H76.0527V290.322H61.5176V288.384Z" fill="white"/>
<path opacity="0.3" d="M86.1481 271.242C85.7278 278.869 79.695 282.683 68.0499 282.683C50.5821 282.683 59.9826 296.345 42.1388 300.853C24.295 305.361 33.9031 324.8 23.0549 324.8C15.8228 324.8 14.9103 306.947 20.3176 271.242H86.1481Z" fill="#151731"/>
<path opacity="0.3" d="M57.191 313.897C51.6195 315.02 47.7177 317.45 45.4856 321.186C42.1375 326.79 46.6825 340.869 41.0189 343.933C35.3554 346.998 37.9559 376.183 36.6556 382.8C35.7888 387.212 36.7994 389.858 39.6875 390.739L57.191 313.897Z" fill="#151731"/>
<path opacity="0.4" d="M83.4293 275.848C85.2452 323.079 85.5682 352.216 84.3983 363.258C83.2284 374.3 80.9674 397.941 77.6152 434.18" stroke="white" stroke-linecap="round" stroke-linejoin="round"/>
<path opacity="0.4" d="M56.6388 313.641C42.892 342.159 35.6389 363.574 34.8798 377.886C34.1206 392.199 30.08 410.963 22.7578 434.18" stroke="white" stroke-linecap="round" stroke-linejoin="round"/>
</g>
<mask id="mask11" mask-type="alpha" maskUnits="userSpaceOnUse" x="125" y="137" width="21" height="20">
<path d="M130.877 142.212C134.922 139.947 139.069 144.421 141.071 141.173C142.91 138.191 145.202 137.206 145.266 138.42C145.304 139.16 142.551 144.162 142.335 144.946C141.765 147.017 140.238 150.959 139.477 151.595C138.307 152.573 135.107 154.113 129.878 156.213C128.916 156.505 127.846 156.174 126.667 155.22C125.488 154.267 125.622 151.968 127.069 148.325C126.911 145.76 128.181 143.722 130.877 142.212Z" fill="white"/>
</mask>
<g mask="url(#mask11)">
<path d="M141.147 150.982C142.751 146.633 137.684 143.237 140.579 140.751C143.236 138.469 143.85 136.05 142.641 136.178C141.905 136.255 137.395 139.757 136.654 140.093C134.698 140.98 131.044 143.105 130.534 143.956C129.751 145.265 128.731 148.666 127.475 154.16C127.337 155.155 127.831 156.16 128.957 157.175C130.084 158.191 132.333 157.699 135.705 155.7C138.263 155.454 140.077 153.882 141.147 150.982Z" fill="url(#paint20_linear)"/>
</g>
<path d="M52.7588 173.056C52.6731 173.078 52.5858 173.097 52.4972 173.113C53.254 168.687 53.8911 166.745 54.4085 167.286C54.7824 167.383 51.2049 155.785 56.6594 156.791C60.1299 157.431 63.8166 155.572 67.1996 154.932C69.1336 154.566 71.3546 155.976 72.4034 154.999C75.612 168.99 74.4417 179.542 70.3129 180.27C69.5411 180.406 67.7518 180.691 66.9559 180.73L67.8035 183.128C67.7932 188.594 67.1458 191.44 65.8614 191.666C64.577 191.893 57.8993 190.059 50.4832 185.903L52.7588 173.056Z" fill="url(#paint21_linear)"/>
<path d="M57.1774 179.64C68.363 177.668 75.9241 167.524 74.0654 156.983C72.2068 146.443 61.6324 139.496 50.4467 141.469C39.2611 143.441 31.7001 153.585 33.5587 164.126C35.4173 174.667 45.9918 181.613 57.1774 179.64Z" fill="url(#paint22_linear)"/>
<mask id="mask12" mask-type="alpha" maskUnits="userSpaceOnUse" x="11" y="151" width="127" height="129">
<path d="M76.7525 184.171C69.3012 183.235 49.8283 184.518 38.9587 186.136C31.3048 187.275 26.1988 190.614 23.6406 196.152C13.8828 222.712 9.90655 238.389 11.7118 243.185C13.5171 247.98 20.0348 251.332 31.2648 253.241C31.2648 258.534 30.4899 264.02 28.9402 269.7C27.9012 272.525 26.3099 276.413 36.3538 277.653C46.3978 278.894 64.1097 280.832 75.163 278.894C86.2164 276.955 91.4185 276.533 87.8272 268.535C84.2358 260.537 83.5574 215.158 87.2115 211.849C90.8655 208.541 114.13 196.793 118.242 191.175C120.872 187.583 129.686 177.164 136.674 159.146C136.936 158.471 136.567 157.176 136.674 156.96C136.865 156.577 137.007 156.231 137.099 155.92C136.038 152.03 132.915 150.559 127.731 151.508C127.656 151.943 127.531 152.289 127.355 152.544C127.091 152.928 126.549 152.989 126.008 153.818C115.203 170.358 108.702 178.43 107.433 178.882C105.442 179.593 84.2039 185.107 76.7525 184.171Z" fill="white"/>
</mask>
<g mask="url(#mask12)">
<path d="M76.7525 184.171C69.3012 183.235 49.8283 184.518 38.9587 186.136C31.3048 187.275 26.1988 190.614 23.6406 196.152C13.8828 222.712 9.90655 238.389 11.7118 243.185C13.5171 247.98 20.0348 251.332 31.2648 253.241C31.2648 258.534 30.4899 264.02 28.9402 269.7C27.9012 272.525 26.3099 276.413 36.3538 277.653C46.3978 278.894 64.1097 280.832 75.163 278.894C86.2164 276.955 91.4185 276.533 87.8272 268.535C84.2358 260.537 83.5574 215.158 87.2115 211.849C90.8655 208.541 114.13 196.793 118.242 191.175C120.872 187.583 129.686 177.164 136.674 159.146C136.936 158.471 136.567 157.176 136.674 156.96C136.865 156.577 137.007 156.231 137.099 155.92C136.038 152.03 132.915 150.559 127.731 151.508C127.656 151.943 127.531 152.289 127.355 152.544C127.091 152.928 126.549 152.989 126.008 153.818C115.203 170.358 108.702 178.43 107.433 178.882C105.442 179.593 84.2039 185.107 76.7525 184.171Z" fill="url(#paint23_linear)"/>
<path opacity="0.3" d="M42.4112 183.646C37.2136 195.066 37.6401 201.467 43.6905 202.848C49.741 204.23 57.7486 199.795 67.7132 189.544L42.4112 183.646Z" fill="#373A5B"/>
<path opacity="0.3" d="M87.2148 210.764C88.9599 204.823 93.6009 201.251 101.138 200.047C112.443 198.242 112.643 188.1 119.743 186.136C124.477 184.826 121.802 189.057 111.72 198.83L87.2148 210.764Z" fill="#373A5B"/>
<path opacity="0.3" d="M30.8255 261.495C33.4184 237.026 34.2827 219.156 33.4184 207.885C31.6898 210.02 30.8255 214.006 30.8255 219.842C30.8255 228.597 22.0257 219.842 25.4285 232.724C28.8312 245.606 15.0066 242.177 23.0187 250.805C28.3602 256.557 30.6373 260.015 29.8503 261.18L30.8255 261.495Z" fill="#373A5B"/>
<path d="M136.746 156.96C135.823 155.078 134.549 153.741 132.922 152.948C131.296 152.155 128.644 152.155 124.967 152.948L127.012 151.1L132.922 149.694L136.362 151.775L138.181 155.627V157.378L136.746 156.96Z" fill="#2D4F83"/>
<path d="M46.4331 182.761H65.6605C67.7339 182.761 69.5499 184.152 70.0912 186.153C70.6113 188.076 69.5846 190.08 67.7197 190.781L50.4223 197.283C46.6652 198.695 42.4745 196.795 41.0622 193.038C41.0524 193.011 41.0427 192.985 41.0332 192.959L40.437 191.316C39.2354 188.004 40.9459 184.346 44.2575 183.144C44.955 182.891 45.6912 182.761 46.4331 182.761Z" fill="url(#paint24_linear)"/>
</g>
<mask id="mask13" mask-type="alpha" maskUnits="userSpaceOnUse" x="381" y="329" width="42" height="118">
<path d="M419.508 373.425C423.343 405.098 417.344 412.187 419.508 426.006L422.087 443.632C423.053 446.538 419.765 445.982 415.781 445.982L415.138 437.582C413.307 442.935 411.199 445.612 408.811 445.612H385.149C381.109 445.612 380.234 442.87 383.752 441.529C389.16 439.468 393.852 437.738 397.343 435.773C401.184 433.61 403.528 430.355 404.374 426.006C401.332 389.403 399.811 368.232 399.811 362.494C399.811 356.691 399.415 345.569 398.625 329.127H422.431C420.093 346.312 418.192 362.558 419.508 373.425Z" fill="white"/>
</mask>
<g mask="url(#mask13)">
<path d="M419.508 373.425C423.343 405.098 417.344 412.187 419.508 426.006L422.087 443.632C423.053 446.538 419.765 445.982 415.781 445.982L415.138 437.582C413.307 442.935 411.199 445.612 408.811 445.612H385.149C381.109 445.612 380.234 442.87 383.752 441.529C389.16 439.468 393.852 437.738 397.343 435.773C401.184 433.61 403.528 430.355 404.374 426.006C401.332 389.403 399.811 368.232 399.811 362.494C399.811 356.691 399.415 345.569 398.625 329.127H422.431C420.093 346.312 418.192 362.558 419.508 373.425Z" fill="url(#paint25_linear)"/>
<path d="M421.355 427.069L427.52 446.969L374.455 445.615C385.614 424.465 392.363 419.859 394.702 431.799C397.041 443.739 405.925 442.162 421.355 427.069Z" fill="url(#paint26_linear)"/>
<path opacity="0.2" d="M421.816 343.268C412.742 347.903 405.586 350.22 400.348 350.22C395.11 350.22 393.482 346.8 395.465 339.958L421.816 343.268Z" fill="#50211F"/>
</g>
<mask id="mask14" mask-type="alpha" maskUnits="userSpaceOnUse" x="358" y="326" width="44" height="120">
<path d="M390.428 371.144C396.943 405.182 394.264 412.126 396.428 425.946L399.007 443.571C399.973 446.478 396.685 445.922 392.701 445.922L392.058 437.521C390.227 442.875 388.119 445.552 385.731 445.552H362.068C358.028 445.552 357.154 442.809 360.672 441.469C366.08 439.408 370.772 437.678 374.263 435.712C378.104 433.55 380.448 430.294 381.294 425.946C375.545 389.202 370.051 372.825 370.051 367.087C370.051 363.218 370.489 352.27 371.364 334.241L401.928 326.182C394.34 344.139 388.47 360.915 390.428 371.144Z" fill="white"/>
</mask>
<g mask="url(#mask14)">
<path d="M390.428 371.144C396.943 405.182 394.264 412.126 396.428 425.946L399.007 443.571C399.973 446.478 396.685 445.922 392.701 445.922L392.058 437.521C390.227 442.875 388.119 445.552 385.731 445.552H362.068C358.028 445.552 357.154 442.809 360.672 441.469C366.08 439.408 370.772 437.678 374.263 435.712C378.104 433.55 380.448 430.294 381.294 425.946C375.545 389.202 370.051 372.825 370.051 367.087C370.051 363.218 370.489 352.27 371.364 334.241L401.928 326.182C394.34 344.139 388.47 360.915 390.428 371.144Z" fill="url(#paint27_linear)"/>
<path d="M401.212 427.008L407.378 446.909L354.312 445.555C365.472 424.404 372.221 419.799 374.56 431.739C376.899 443.679 385.783 442.102 401.212 427.008Z" fill="url(#paint28_linear)"/>
<path opacity="0.2" d="M396.39 343.74C385.026 348.06 376.725 350.221 371.487 350.221C366.248 350.221 365.699 346.887 369.839 340.22L396.39 343.74Z" fill="#50211F"/>
</g>
<mask id="mask15" mask-type="alpha" maskUnits="userSpaceOnUse" x="367" y="259" width="63" height="87">
<path d="M427.622 270.326C433.226 289.075 425.198 334.276 425.198 340.733C425.198 347.19 373.568 346.856 367.139 340.733C368.472 299.397 370.161 275.769 372.204 269.847C375.269 260.964 422.017 251.576 427.622 270.326Z" fill="white"/>
</mask>
<g mask="url(#mask15)">
<path d="M427.622 270.326C433.226 289.075 425.198 334.276 425.198 340.733C425.198 347.19 373.568 346.856 367.139 340.733C368.472 299.397 370.161 275.769 372.204 269.847C375.269 260.964 422.017 251.576 427.622 270.326Z" fill="url(#paint29_linear)"/>
<path opacity="0.3" d="M429.687 264.191C429.184 273.315 421.968 277.877 408.037 277.877C387.142 277.877 406.428 284.86 385.082 290.253C363.737 295.646 382.88 313.832 369.903 313.832C361.251 313.832 362.257 297.788 372.919 265.699L429.687 264.191Z" fill="#151731"/>
</g>
<mask id="mask16" mask-type="alpha" maskUnits="userSpaceOnUse" x="409" y="247" width="25" height="17">
<path d="M433.689 253.873C429.757 258.615 427.424 261.154 426.69 261.491C422.881 263.243 421.094 260.02 419.511 261.271C417.929 262.523 415.06 264.643 415.657 262.868C416.091 261.579 412.331 262.539 413.574 260.549C414.403 259.221 411.201 259.399 411.745 258.803C412.29 258.206 414.885 255.499 415.375 254.675C415.444 254.56 413.625 254.901 412.952 255.507C411.745 256.594 409.565 256.737 409.342 255.813C411.749 254.224 413.312 253.294 414.031 253.021C414.751 252.748 416.577 251.416 419.511 249.025L426.69 247.822C426.702 247.827 428.852 250.868 433.689 253.873Z" fill="white"/>
</mask>
<g mask="url(#mask16)">
<path d="M433.689 253.873C429.757 258.615 427.424 261.154 426.69 261.491C422.881 263.243 421.094 260.02 419.511 261.271C417.929 262.523 415.06 264.643 415.657 262.868C416.091 261.579 412.331 262.539 413.574 260.549C414.403 259.221 411.201 259.399 411.745 258.803C412.29 258.206 414.885 255.499 415.375 254.675C415.444 254.56 413.625 254.901 412.952 255.507C411.745 256.594 409.565 256.737 409.342 255.813C411.749 254.224 413.312 253.294 414.031 253.021C414.751 252.748 416.577 251.416 419.511 249.025L426.69 247.822C426.702 247.827 428.852 250.868 433.689 253.873Z" fill="url(#paint30_linear)"/>
<path opacity="0.2" d="M424.141 247.34C426.529 252.661 429.8 255.213 433.953 254.996C438.106 254.779 435.928 251.645 427.418 245.594L424.141 247.34Z" fill="#50211F"/>
</g>
<mask id="mask17" mask-type="alpha" maskUnits="userSpaceOnUse" x="363" y="280" width="16" height="19">
<path d="M368.416 281.589C364.358 286.614 362.815 290.385 363.788 292.901C365.247 296.675 372.555 301.161 376.236 295.668C377.362 293.988 376.512 293.299 373.687 293.601C374.584 292.589 374.806 292.796 376.905 290.5C379.647 287.501 377.85 286.01 378.598 283.378C379.454 280.363 376.06 279.766 368.416 281.589Z" fill="white"/>
</mask>
<g mask="url(#mask17)">
<path d="M368.416 281.589C364.358 286.614 362.815 290.385 363.788 292.901C365.247 296.675 372.555 301.161 376.236 295.668C377.362 293.988 376.512 293.299 373.687 293.601C374.584 292.589 374.806 292.796 376.905 290.5C379.647 287.501 377.85 286.01 378.598 283.378C379.454 280.363 376.06 279.766 368.416 281.589Z" fill="url(#paint31_linear)"/>
<path opacity="0.2" d="M365.976 283.666C370.009 286.396 374.458 286.884 379.322 285.129C384.187 283.373 380.083 282.058 367.01 281.181L365.307 283.155L365.976 283.666Z" fill="#50211F"/>
</g>
<mask id="mask18" mask-type="alpha" maskUnits="userSpaceOnUse" x="367" y="180" width="88" height="105">
<path d="M391.144 182.497C404.98 178.647 414.566 181.315 418.237 182.915C421.908 184.514 425.012 186.839 428.402 189.645C436 195.837 447.44 208.691 451.612 215.058C455.784 221.426 455.076 229.577 452.28 233.519C451.612 234.46 434.533 253.118 433.494 254.536C430.625 252.921 428.045 250.746 425.753 248.011C426.768 246.993 433.852 234.308 439.586 224.622C437.307 222.577 432.61 218.643 423.615 210.698C421.369 226.43 420.234 237.056 420.21 242.575C420.175 250.704 421.971 249.725 428.402 271.145C413.165 274.978 397.48 275.815 381.347 273.655L379.144 284.141C373.796 285.457 369.794 284.799 367.139 282.167C373.812 242.114 368.95 221.752 373.788 199.279C376.442 186.956 387.885 183.404 391.144 182.497Z" fill="white"/>
</mask>
<g mask="url(#mask18)">
<path d="M391.144 182.497C404.98 178.647 414.566 181.315 418.237 182.915C421.908 184.514 425.012 186.839 428.402 189.645C436 195.837 447.44 208.691 451.612 215.058C455.784 221.426 455.076 229.577 452.28 233.519C451.612 234.46 434.533 253.118 433.494 254.536C430.625 252.921 428.045 250.746 425.753 248.011C426.768 246.993 433.852 234.308 439.586 224.622C437.307 222.577 432.61 218.643 423.615 210.698C421.369 226.43 420.234 237.056 420.21 242.575C420.175 250.704 421.971 249.725 428.402 271.145C413.165 274.978 397.48 275.815 381.347 273.655L379.144 284.141C373.796 285.457 369.794 284.799 367.139 282.167C373.812 242.114 368.95 221.752 373.788 199.279C376.442 186.956 387.885 183.404 391.144 182.497Z" fill="url(#paint32_linear)"/>
<path opacity="0.3" d="M381.346 273.899C384.455 257.099 386.168 245.813 386.483 240.042C386.798 234.271 386.798 223.807 386.483 208.652C390.075 213.906 391.871 219.176 391.871 224.459C391.871 232.385 402.951 240.741 393.97 249.824C384.988 258.907 392.593 271.777 387.67 274.273C384.389 275.937 382.281 275.812 381.346 273.899Z" fill="#373A5B"/>
<path opacity="0.3" d="M374.752 180.608C371.917 184.167 375.431 185.946 385.293 185.946C395.155 185.946 403.748 183.643 411.073 179.038L374.752 180.608Z" fill="#373A5B"/>
<path opacity="0.3" d="M423.057 214.264L425.368 197.684C426.538 208.737 429.366 214.852 433.85 216.029C438.156 217.158 438.662 221.041 439.1 224.536C439.263 225.845 434.686 228.089 425.368 231.268L423.057 214.264Z" fill="#373A5B"/>
<path opacity="0.5" d="M382.425 270.913C382.154 270.879 381.962 270.633 381.996 270.362C382.03 270.092 382.276 269.9 382.547 269.934C382.872 269.974 383.198 270.013 383.522 270.052C383.793 270.084 383.986 270.329 383.955 270.599C383.923 270.87 383.677 271.064 383.407 271.032C383.08 270.993 382.753 270.954 382.425 270.913ZM385.375 271.25C385.104 271.222 384.907 270.979 384.935 270.708C384.964 270.437 385.206 270.24 385.477 270.269C385.804 270.303 386.131 270.335 386.457 270.367C386.728 270.393 386.926 270.634 386.9 270.906C386.874 271.177 386.633 271.375 386.361 271.349C386.033 271.317 385.705 271.284 385.375 271.25ZM388.336 271.527C388.064 271.504 387.862 271.266 387.885 270.994C387.907 270.723 388.145 270.521 388.417 270.543C388.745 270.57 389.072 270.596 389.398 270.621C389.67 270.641 389.874 270.878 389.853 271.15C389.833 271.421 389.596 271.625 389.324 271.605C388.995 271.58 388.666 271.554 388.336 271.527ZM391.3 271.739C391.028 271.722 390.821 271.489 390.837 271.217C390.854 270.945 391.088 270.737 391.36 270.754C391.688 270.774 392.015 270.792 392.342 270.81C392.614 270.824 392.823 271.056 392.809 271.328C392.794 271.601 392.562 271.809 392.29 271.795C391.961 271.778 391.631 271.759 391.3 271.739ZM394.27 271.885C393.997 271.874 393.785 271.645 393.795 271.373C393.805 271.101 394.034 270.888 394.307 270.898C394.635 270.911 394.962 270.922 395.289 270.931C395.561 270.939 395.776 271.167 395.768 271.439C395.76 271.711 395.532 271.926 395.26 271.918C394.931 271.908 394.6 271.897 394.27 271.885ZM397.246 271.96C396.974 271.957 396.756 271.733 396.759 271.46C396.763 271.188 396.987 270.97 397.259 270.974C397.587 270.978 397.915 270.981 398.242 270.983C398.514 270.984 398.734 271.206 398.733 271.479C398.731 271.751 398.509 271.971 398.237 271.97C397.907 271.968 397.577 271.965 397.246 271.96ZM400.224 271.963C399.952 271.966 399.728 271.748 399.725 271.475C399.722 271.203 399.94 270.979 400.213 270.976C400.541 270.972 400.869 270.967 401.195 270.961C401.468 270.955 401.693 271.171 401.699 271.444C401.704 271.716 401.488 271.942 401.215 271.947C400.886 271.954 400.555 271.959 400.224 271.963ZM403.206 271.889C402.933 271.9 402.704 271.687 402.694 271.415C402.684 271.143 402.896 270.914 403.168 270.903C403.496 270.891 403.823 270.877 404.149 270.862C404.421 270.849 404.652 271.059 404.665 271.332C404.678 271.604 404.467 271.835 404.195 271.848C403.866 271.863 403.536 271.877 403.206 271.889ZM406.163 271.738C405.891 271.755 405.656 271.549 405.638 271.277C405.62 271.005 405.827 270.771 406.099 270.753C406.426 270.732 406.752 270.709 407.078 270.685C407.349 270.665 407.586 270.869 407.606 271.14C407.627 271.412 407.423 271.649 407.151 271.669C406.822 271.693 406.493 271.716 406.163 271.738ZM409.131 271.503C408.859 271.528 408.619 271.329 408.594 271.058C408.568 270.786 408.768 270.546 409.039 270.521C409.366 270.49 409.692 270.458 410.017 270.425C410.288 270.397 410.53 270.594 410.558 270.865C410.586 271.136 410.389 271.378 410.118 271.406C409.79 271.44 409.461 271.472 409.131 271.503ZM412.094 271.183C411.824 271.216 411.578 271.024 411.544 270.753C411.511 270.483 411.703 270.237 411.974 270.203C412.299 270.163 412.624 270.122 412.948 270.079C413.218 270.043 413.466 270.232 413.502 270.503C413.538 270.773 413.348 271.021 413.078 271.057C412.751 271.1 412.423 271.142 412.094 271.183ZM415.048 270.774C414.779 270.815 414.527 270.631 414.485 270.361C414.444 270.092 414.629 269.84 414.898 269.799C415.222 269.749 415.545 269.697 415.867 269.644C416.136 269.6 416.39 269.782 416.434 270.051C416.478 270.32 416.296 270.574 416.027 270.618C415.702 270.672 415.375 270.724 415.048 270.774ZM417.991 270.273C417.723 270.323 417.466 270.147 417.416 269.879C417.366 269.611 417.542 269.353 417.81 269.303C418.132 269.243 418.454 269.182 418.774 269.118C419.042 269.066 419.301 269.24 419.354 269.507C419.407 269.774 419.233 270.034 418.965 270.087C418.641 270.15 418.317 270.213 417.991 270.273ZM420.918 269.679C420.652 269.737 420.389 269.569 420.33 269.303C420.272 269.037 420.44 268.774 420.706 268.715C421.026 268.645 421.345 268.572 421.663 268.499C421.929 268.437 422.194 268.602 422.255 268.868C422.317 269.133 422.152 269.398 421.886 269.46C421.564 269.535 421.242 269.607 420.918 269.679ZM423.784 268.998C423.52 269.065 423.252 268.906 423.184 268.642C423.117 268.378 423.276 268.109 423.54 268.042C423.858 267.961 424.174 267.878 424.49 267.794C424.753 267.724 425.023 267.88 425.094 268.143C425.164 268.407 425.008 268.677 424.744 268.747C424.425 268.833 424.105 268.916 423.784 268.998ZM426.661 268.212C426.399 268.288 426.125 268.138 426.049 267.876C425.973 267.615 426.123 267.341 426.384 267.265C426.699 267.173 427.012 267.079 427.325 266.984C427.585 266.905 427.861 267.052 427.94 267.312C428.02 267.573 427.873 267.849 427.612 267.928C427.296 268.024 426.979 268.119 426.661 268.212Z" fill="white"/>
<path opacity="0.5" d="M426.41 246.426C426.223 246.228 426.232 245.916 426.43 245.729C426.628 245.542 426.941 245.551 427.128 245.749C427.356 245.991 427.582 246.227 427.805 246.456C427.995 246.652 427.99 246.964 427.795 247.154C427.599 247.344 427.287 247.339 427.097 247.144C426.871 246.911 426.642 246.672 426.41 246.426ZM428.507 248.55C428.311 248.361 428.305 248.048 428.494 247.852C428.683 247.656 428.995 247.65 429.191 247.839C429.431 248.07 429.668 248.293 429.901 248.509C430.102 248.693 430.114 249.006 429.929 249.206C429.744 249.406 429.432 249.418 429.232 249.234C428.994 249.013 428.752 248.785 428.507 248.55ZM430.737 250.556C430.527 250.382 430.498 250.07 430.673 249.861C430.847 249.651 431.158 249.623 431.367 249.797C431.624 250.01 431.876 250.213 432.124 250.404C432.339 250.571 432.378 250.881 432.211 251.097C432.044 251.312 431.734 251.351 431.519 251.184C431.263 250.986 431.002 250.776 430.737 250.556ZM433.169 252.352C432.938 252.206 432.87 251.901 433.016 251.671C433.162 251.441 433.467 251.373 433.697 251.519C433.979 251.697 434.253 251.859 434.518 252.003C434.758 252.133 434.846 252.433 434.716 252.672C434.586 252.912 434.287 253 434.047 252.87C433.761 252.715 433.469 252.542 433.169 252.352Z" fill="white"/>
<path opacity="0.5" d="M366.886 280.094C366.64 279.976 366.536 279.682 366.654 279.436C366.771 279.19 367.066 279.086 367.312 279.203C367.606 279.344 367.899 279.477 368.192 279.603C368.443 279.71 368.558 280 368.451 280.251C368.343 280.501 368.053 280.617 367.803 280.51C367.498 280.379 367.192 280.24 366.886 280.094ZM369.692 281.224C369.433 281.139 369.291 280.86 369.376 280.601C369.46 280.342 369.739 280.201 369.998 280.285C370.306 280.386 370.613 280.478 370.92 280.561C371.183 280.633 371.338 280.904 371.266 281.167C371.195 281.43 370.923 281.585 370.66 281.514C370.338 281.426 370.015 281.329 369.692 281.224ZM372.659 281.945C372.39 281.902 372.206 281.65 372.249 281.38C372.292 281.111 372.545 280.928 372.814 280.971C373.132 281.021 373.449 281.063 373.765 281.094C374.036 281.122 374.233 281.364 374.206 281.635C374.179 281.906 373.937 282.104 373.665 282.076C373.331 282.043 372.995 281.999 372.659 281.945ZM375.695 282.16C375.423 282.165 375.198 281.949 375.193 281.676C375.187 281.404 375.404 281.179 375.677 281.173C375.996 281.167 376.314 281.152 376.632 281.126C376.904 281.104 377.142 281.307 377.163 281.578C377.185 281.85 376.983 282.088 376.711 282.11C376.373 282.137 376.035 282.154 375.695 282.16ZM378.756 281.816C378.489 281.872 378.228 281.7 378.173 281.433C378.117 281.166 378.289 280.905 378.556 280.85C378.867 280.786 379.178 280.712 379.487 280.628C379.75 280.557 380.021 280.713 380.092 280.976C380.163 281.239 380.007 281.51 379.744 281.581C379.416 281.669 379.086 281.748 378.756 281.816Z" fill="white"/>
<path opacity="0.5" d="M379.195 188.384C378.973 188.225 378.922 187.917 379.08 187.696C379.239 187.474 379.547 187.422 379.769 187.581C380.025 187.764 380.29 187.941 380.563 188.112C380.794 188.257 380.864 188.561 380.72 188.792C380.575 189.023 380.271 189.093 380.04 188.949C379.749 188.767 379.468 188.579 379.195 188.384ZM381.819 189.928C381.574 189.81 381.471 189.515 381.589 189.269C381.707 189.024 382.002 188.921 382.248 189.039C382.533 189.177 382.825 189.309 383.125 189.436C383.376 189.543 383.493 189.832 383.387 190.083C383.281 190.334 382.991 190.451 382.74 190.345C382.426 190.212 382.119 190.073 381.819 189.928ZM384.647 191.056C384.388 190.971 384.246 190.693 384.331 190.434C384.415 190.175 384.693 190.033 384.953 190.118C385.255 190.216 385.564 190.31 385.879 190.4C386.141 190.475 386.293 190.748 386.218 191.01C386.143 191.272 385.871 191.424 385.608 191.349C385.282 191.256 384.961 191.158 384.647 191.056ZM387.548 191.831C387.281 191.774 387.112 191.511 387.169 191.245C387.226 190.979 387.488 190.809 387.755 190.866C388.068 190.933 388.386 190.997 388.709 191.057C388.977 191.106 389.154 191.363 389.105 191.631C389.055 191.899 388.798 192.076 388.53 192.027C388.197 191.966 387.87 191.9 387.548 191.831ZM390.518 192.339C390.247 192.304 390.057 192.056 390.092 191.786C390.128 191.516 390.376 191.325 390.646 191.361C390.964 191.402 391.287 191.441 391.615 191.476C391.886 191.505 392.082 191.749 392.053 192.02C392.023 192.29 391.78 192.486 391.509 192.457C391.174 192.421 390.844 192.382 390.518 192.339ZM393.513 192.63C393.241 192.612 393.035 192.377 393.053 192.105C393.071 191.833 393.305 191.627 393.577 191.645C393.899 191.666 394.224 191.685 394.554 191.7C394.826 191.713 395.036 191.944 395.023 192.216C395.01 192.489 394.779 192.699 394.507 192.686C394.172 192.67 393.84 192.651 393.513 192.63ZM396.518 192.746C396.246 192.742 396.028 192.518 396.031 192.246C396.035 191.973 396.259 191.755 396.531 191.759C396.854 191.763 397.181 191.765 397.511 191.764C397.783 191.764 398.005 191.984 398.005 192.257C398.006 192.529 397.785 192.751 397.513 192.751C397.178 192.752 396.846 192.75 396.518 192.746ZM399.454 192.72C399.182 192.728 398.954 192.514 398.946 192.242C398.938 191.969 399.153 191.742 399.425 191.734C399.749 191.724 400.075 191.713 400.405 191.699C400.677 191.687 400.907 191.899 400.919 192.171C400.93 192.443 400.719 192.673 400.446 192.685C400.113 192.699 399.782 192.711 399.454 192.72ZM402.434 192.577C402.162 192.595 401.927 192.389 401.909 192.117C401.891 191.845 402.097 191.611 402.369 191.593C402.693 191.571 403.019 191.548 403.348 191.523C403.62 191.502 403.857 191.706 403.878 191.977C403.899 192.249 403.695 192.486 403.424 192.507C403.091 192.532 402.761 192.556 402.434 192.577ZM405.406 192.335C405.135 192.361 404.894 192.163 404.868 191.891C404.842 191.62 405.04 191.379 405.311 191.353C405.635 191.321 405.96 191.288 406.289 191.253C406.56 191.225 406.803 191.421 406.831 191.692C406.86 191.963 406.664 192.206 406.393 192.235C406.062 192.27 405.733 192.303 405.406 192.335ZM408.374 191.989C408.105 192.028 407.854 191.842 407.815 191.572C407.775 191.303 407.961 191.052 408.231 191.012C408.557 190.964 408.878 190.913 409.192 190.859C409.461 190.812 409.716 190.992 409.763 191.261C409.809 191.529 409.629 191.785 409.361 191.831C409.038 191.887 408.709 191.939 408.374 191.989ZM411.328 191.432C411.063 191.494 410.797 191.33 410.734 191.064C410.672 190.799 410.836 190.534 411.102 190.471C411.423 190.396 411.736 190.316 412.042 190.233C412.305 190.161 412.576 190.316 412.648 190.579C412.719 190.841 412.564 191.113 412.302 191.185C411.985 191.271 411.66 191.353 411.328 191.432ZM414.236 190.571C413.98 190.665 413.697 190.533 413.603 190.277C413.509 190.022 413.64 189.738 413.896 189.644C414.204 189.531 414.502 189.413 414.791 189.291C415.042 189.184 415.332 189.301 415.438 189.551C415.545 189.802 415.428 190.092 415.178 190.199C414.873 190.328 414.559 190.452 414.236 190.571ZM416.997 189.293C416.762 189.43 416.46 189.35 416.323 189.114C416.186 188.878 416.266 188.576 416.501 188.439C416.782 188.277 417.049 188.107 417.305 187.932C417.529 187.778 417.837 187.835 417.991 188.059C418.145 188.284 418.088 188.591 417.863 188.746C417.587 188.935 417.299 189.117 416.997 189.293ZM419.487 187.403C419.294 187.596 418.982 187.596 418.789 187.404C418.596 187.211 418.596 186.899 418.788 186.706C419.012 186.482 419.22 186.25 419.414 186.011C419.585 185.799 419.896 185.766 420.107 185.937C420.319 186.108 420.352 186.419 420.181 186.631C419.966 186.897 419.734 187.155 419.487 187.403ZM421.291 184.898C421.17 185.142 420.875 185.243 420.63 185.122C420.386 185.002 420.285 184.706 420.405 184.462C420.542 184.185 420.663 183.899 420.768 183.604C420.86 183.348 421.143 183.215 421.399 183.307C421.656 183.399 421.789 183.682 421.697 183.938C421.579 184.267 421.443 184.587 421.291 184.898ZM422.194 181.878C422.158 182.148 421.909 182.337 421.639 182.301C421.369 182.264 421.18 182.016 421.217 181.745C421.258 181.44 421.286 181.127 421.301 180.806C421.313 180.534 421.544 180.323 421.816 180.336C422.089 180.348 422.299 180.579 422.287 180.851C422.27 181.201 422.24 181.543 422.194 181.878ZM422.217 178.752C422.246 179.023 422.05 179.266 421.779 179.295C421.508 179.324 421.265 179.127 421.236 178.856C421.203 178.546 421.16 178.23 421.106 177.908C421.061 177.639 421.243 177.385 421.511 177.34C421.78 177.295 422.034 177.476 422.079 177.745C422.136 178.086 422.182 178.422 422.217 178.752ZM421.629 175.717C421.701 175.98 421.546 176.251 421.283 176.323C421.02 176.395 420.749 176.24 420.677 175.978C420.593 175.673 420.502 175.364 420.402 175.051C420.319 174.791 420.463 174.514 420.723 174.431C420.982 174.348 421.26 174.492 421.342 174.751C421.446 175.078 421.542 175.399 421.629 175.717Z" fill="white"/>
</g>
<path d="M405.013 169.033C404.876 173.691 405.458 177.94 406.967 180.591C413.199 180.889 416.388 182.058 419.437 183.449C415.625 188.578 406.967 190.285 397.19 190.285C390.672 190.285 385.459 189.259 381.551 187.206C384.746 184.724 388.238 183.098 392.027 182.327L392.397 178.88C391.996 178.906 391.595 178.906 391.196 178.878C386.595 178.556 385.286 169.497 384.815 159.255C384.752 157.878 384.645 150.084 393.53 150.12C405.01 150.166 405.546 168.004 405.013 169.033Z" fill="url(#paint33_linear)"/>
<path d="M385.042 163.219C384.694 161.854 384.51 160.423 384.51 158.949C384.51 149.411 392.242 141.679 401.779 141.679C411.317 141.679 419.049 149.411 419.049 158.949C419.049 168.486 411.317 176.218 401.779 176.218C396.18 176.218 391.203 173.553 388.047 169.422C389.318 168.912 390.215 167.669 390.215 166.216C390.215 164.309 388.668 162.762 386.761 162.762C386.135 162.762 385.548 162.929 385.042 163.219Z" fill="url(#paint34_linear)"/>
<path d="M409.808 159.063C414.441 159.063 418.196 155.472 418.196 151.043C418.196 146.614 414.441 143.024 409.808 143.024C405.175 143.024 401.42 146.614 401.42 151.043C401.42 155.472 405.175 159.063 409.808 159.063Z" fill="url(#paint35_linear)"/>
<path d="M411.912 157.064C416.544 157.064 420.3 153.474 420.3 149.044C420.3 144.615 416.544 141.025 411.912 141.025C407.279 141.025 403.523 144.615 403.523 149.044C403.523 153.474 407.279 157.064 411.912 157.064Z" fill="url(#paint36_linear)"/>
<mask id="mask19" mask-type="alpha" maskUnits="userSpaceOnUse" x="345" y="248" width="64" height="53">
<path d="M384.507 255.619L408.54 261.874L396.758 300.543L373.271 293.749C376.145 291.337 377.732 289.45 378.031 288.088C378.33 286.727 378.44 285.48 378.36 284.348L379.144 284.141C381.824 271.258 383.612 261.751 384.507 255.619ZM354.731 248.957L370.424 252.562C369.713 264.803 368.605 274.671 367.099 282.166L367.635 282.657C365.048 285.919 363.67 288.743 363.501 291.128L345.141 286.513L354.731 248.957Z" fill="white"/>
</mask>
<g mask="url(#mask19)">
<path d="M384.507 255.619L408.54 261.874L396.758 300.543L373.271 293.749C376.145 291.337 377.732 289.45 378.031 288.088C378.33 286.727 378.44 285.48 378.36 284.348L379.144 284.141C381.824 271.258 383.612 261.751 384.507 255.619ZM354.731 248.957L370.424 252.562C369.713 264.803 368.605 274.671 367.099 282.166L367.635 282.657C365.048 285.919 363.67 288.743 363.501 291.128L345.141 286.513L354.731 248.957Z" fill="url(#paint37_linear)"/>
<path opacity="0.3" d="M389.88 256.918C392.035 262.66 391.282 267.915 387.621 272.683C382.128 279.834 387.675 287.531 382.349 289.066C378.799 290.09 376.525 292.596 375.53 296.583L360.623 292.557C360.597 286.759 361.97 282.318 364.743 279.237C368.902 274.615 360.009 258.486 366.953 251.38C371.582 246.643 379.225 248.489 389.88 256.918Z" fill="#373A5B"/>
</g>
<path d="M166.227 34.3485V34.3534H134.387V34.3412C128.763 34.0741 124.285 29.4298 124.285 23.7396C124.285 18.148 128.609 13.5663 134.096 13.1559C135.892 5.60914 142.632 0 150.672 0C158.732 0 165.486 5.63716 167.262 13.2124C172.481 13.8805 176.514 18.339 176.514 23.7396C176.514 29.4925 171.938 34.1763 166.227 34.3485Z" fill="url(#paint38_linear)"/>
<path d="M150.847 28.8187C145.525 28.8187 141.211 24.5249 141.211 19.2272C141.211 13.9295 145.525 9.63574 150.847 9.63574C156.168 9.63574 160.482 13.9295 160.482 19.2272C160.482 24.5249 156.168 28.8187 150.847 28.8187ZM150.847 27.9808C155.706 27.9808 159.644 24.0612 159.644 19.2272C159.644 14.3932 155.706 10.4736 150.847 10.4736C145.987 10.4736 142.049 14.3932 142.049 19.2272C142.049 24.0612 145.987 27.9808 150.847 27.9808Z" fill="white"/>
<path d="M153.191 17.1782C153.519 16.8518 154.049 16.8531 154.376 17.1811C154.702 17.5091 154.701 18.0396 154.373 18.366L151.114 21.609C150.787 21.9343 150.259 21.9343 149.932 21.609L147.895 19.5821C147.567 19.2557 147.566 18.7252 147.893 18.3972C148.219 18.0692 148.75 18.0679 149.078 18.3943L150.523 19.833L153.191 17.1782Z" fill="white"/>
<path d="M459.763 126.527H488.037C490.379 126.527 492.278 128.425 492.278 130.768V159.042C492.278 161.384 490.379 163.283 488.037 163.283H459.763C457.42 163.283 455.521 161.384 455.521 159.042V130.768C455.521 128.425 457.42 126.527 459.763 126.527Z" fill="url(#paint39_linear)"/>
<path d="M459.763 126.527H488.037C490.379 126.527 492.278 128.425 492.278 130.768V136.423H455.521V130.768C455.521 128.425 457.42 126.527 459.763 126.527Z" fill="url(#paint40_linear)"/>
<path opacity="0.1" d="M464.474 134.135C465.919 134.135 467.091 132.963 467.091 131.518C467.091 130.073 465.919 128.902 464.474 128.902C463.029 128.902 461.857 130.073 461.857 131.518C461.857 132.963 463.029 134.135 464.474 134.135Z" fill="#373A5B"/>
<path d="M463.133 125.849C463.133 125.068 463.766 124.435 464.547 124.435C465.327 124.435 465.96 125.068 465.96 125.849V131.444C465.96 132.225 465.327 132.858 464.547 132.858C463.766 132.858 463.133 132.225 463.133 131.444V125.849Z" fill="#FDC8FF"/>
<path opacity="0.1" d="M482.146 134.135C483.591 134.135 484.763 132.963 484.763 131.518C484.763 130.073 483.591 128.902 482.146 128.902C480.701 128.902 479.529 130.073 479.529 131.518C479.529 132.963 480.701 134.135 482.146 134.135Z" fill="#373A5B"/>
<path d="M480.805 125.849C480.805 125.068 481.438 124.435 482.218 124.435C482.999 124.435 483.632 125.068 483.632 125.849V131.444C483.632 132.225 482.999 132.858 482.218 132.858C481.438 132.858 480.805 132.225 480.805 131.444V125.849Z" fill="#FDC8FF"/>
<defs>
<filter id="filter0_d" x="163.496" y="73.1067" width="193.617" height="160.524" filterUnits="userSpaceOnUse" color-interpolation-filters="sRGB">
<feFlood flood-opacity="0" result="BackgroundImageFix"/>
<feColorMatrix in="SourceAlpha" type="matrix" values="0 0 0 0 0 0 0 0 0 0 0 0 0 0 0 0 0 0 127 0"/>
<feOffset dy="22"/>
<feGaussianBlur stdDeviation="22"/>
<feColorMatrix type="matrix" values="0 0 0 0 1 0 0 0 0 0.564706 0 0 0 0 0.568627 0 0 0 0.302649 0"/>
<feBlend mode="normal" in2="BackgroundImageFix" result="effect1_dropShadow"/>
<feBlend mode="normal" in="SourceGraphic" in2="effect1_dropShadow" result="shape"/>
</filter>
<filter id="filter1_d" x="74.4297" y="73.1067" width="165.704" height="160.143" filterUnits="userSpaceOnUse" color-interpolation-filters="sRGB">
<feFlood flood-opacity="0" result="BackgroundImageFix"/>
<feColorMatrix in="SourceAlpha" type="matrix" values="0 0 0 0 0 0 0 0 0 0 0 0 0 0 0 0 0 0 127 0"/>
<feOffset dy="22"/>
<feGaussianBlur stdDeviation="22"/>
<feColorMatrix type="matrix" values="0 0 0 0 0.262745 0 0 0 0 0.682353 0 0 0 0 0.913725 0 0 0 0.25 0"/>
<feBlend mode="normal" in2="BackgroundImageFix" result="effect1_dropShadow"/>
<feBlend mode="normal" in="SourceGraphic" in2="effect1_dropShadow" result="shape"/>
</filter>
<filter id="filter2_d" x="280.551" y="73.1067" width="165.704" height="160.524" filterUnits="userSpaceOnUse" color-interpolation-filters="sRGB">
<feFlood flood-opacity="0" result="BackgroundImageFix"/>
<feColorMatrix in="SourceAlpha" type="matrix" values="0 0 0 0 0 0 0 0 0 0 0 0 0 0 0 0 0 0 127 0"/>
<feOffset dy="22"/>
<feGaussianBlur stdDeviation="22"/>
<feColorMatrix type="matrix" values="0 0 0 0 0.443137 0 0 0 0 0.65098 0 0 0 0 0.972549 0 0 0 0.252887 0"/>
<feBlend mode="normal" in2="BackgroundImageFix" result="effect1_dropShadow"/>
<feBlend mode="normal" in="SourceGraphic" in2="effect1_dropShadow" result="shape"/>
</filter>
<filter id="filter3_d" x="318.393" y="117.188" width="91.5732" height="63.0816" filterUnits="userSpaceOnUse" color-interpolation-filters="sRGB">
<feFlood flood-opacity="0" result="BackgroundImageFix"/>
<feColorMatrix in="SourceAlpha" type="matrix" values="0 0 0 0 0 0 0 0 0 0 0 0 0 0 0 0 0 0 127 0"/>
<feOffset dy="7"/>
<feGaussianBlur stdDeviation="8"/>
<feColorMatrix type="matrix" values="0 0 0 0 0.152941 0 0 0 0 0.364706 0 0 0 0 0.533333 0 0 0 0.15 0"/>
<feBlend mode="normal" in2="BackgroundImageFix" result="effect1_dropShadow"/>
<feBlend mode="normal" in="SourceGraphic" in2="effect1_dropShadow" result="shape"/>
</filter>
<filter id="filter4_d" x="163.496" y="178.354" width="165.977" height="117.111" filterUnits="userSpaceOnUse" color-interpolation-filters="sRGB">
<feFlood flood-opacity="0" result="BackgroundImageFix"/>
<feColorMatrix in="SourceAlpha" type="matrix" values="0 0 0 0 0 0 0 0 0 0 0 0 0 0 0 0 0 0 127 0"/>
<feOffset dy="22"/>
<feGaussianBlur stdDeviation="22"/>
<feColorMatrix type="matrix" values="0 0 0 0 1 0 0 0 0 0.564706 0 0 0 0 0.568627 0 0 0 0.302649 0"/>
<feBlend mode="normal" in2="BackgroundImageFix" result="effect1_dropShadow"/>
<feBlend mode="normal" in="SourceGraphic" in2="effect1_dropShadow" result="shape"/>
</filter>
<filter id="filter5_d" x="74.4297" y="158.354" width="165.977" height="117.111" filterUnits="userSpaceOnUse" color-interpolation-filters="sRGB">
<feFlood flood-opacity="0" result="BackgroundImageFix"/>
<feColorMatrix in="SourceAlpha" type="matrix" values="0 0 0 0 0 0 0 0 0 0 0 0 0 0 0 0 0 0 127 0"/>
<feOffset dy="22"/>
<feGaussianBlur stdDeviation="22"/>
<feColorMatrix type="matrix" values="0 0 0 0 0.545098 0 0 0 0 0.882353 0 0 0 0 0.788235 0 0 0 0.25 0"/>
<feBlend mode="normal" in2="BackgroundImageFix" result="effect1_dropShadow"/>
<feBlend mode="normal" in="SourceGraphic" in2="effect1_dropShadow" result="shape"/>
</filter>
<filter id="filter6_d" x="267.828" y="158.354" width="165.977" height="117.111" filterUnits="userSpaceOnUse" color-interpolation-filters="sRGB">
<feFlood flood-opacity="0" result="BackgroundImageFix"/>
<feColorMatrix in="SourceAlpha" type="matrix" values="0 0 0 0 0 0 0 0 0 0 0 0 0 0 0 0 0 0 127 0"/>
<feOffset dy="22"/>
<feGaussianBlur stdDeviation="22"/>
<feColorMatrix type="matrix" values="0 0 0 0 0.545098 0 0 0 0 0.882353 0 0 0 0 0.788235 0 0 0 0.25 0"/>
<feBlend mode="normal" in2="BackgroundImageFix" result="effect1_dropShadow"/>
<feBlend mode="normal" in="SourceGraphic" in2="effect1_dropShadow" result="shape"/>
</filter>
<linearGradient id="paint0_linear" x1="139.468" y1="233.93" x2="312.126" y2="56.6929" gradientUnits="userSpaceOnUse">
<stop stop-color="#FCEFFF"/>
<stop offset="1" stop-color="#C9E7FF"/>
</linearGradient>
<linearGradient id="paint1_linear" x1="73.3466" y1="293.347" x2="111.92" y2="75.3552" gradientUnits="userSpaceOnUse">
<stop stop-color="#FCEFFF"/>
<stop offset="1" stop-color="#C9E7FF"/>
</linearGradient>
<linearGradient id="paint2_linear" x1="198.818" y1="157.667" x2="278.2" y2="87.1008" gradientUnits="userSpaceOnUse">
<stop stop-color="#FFCFAA"/>
<stop offset="1" stop-color="#FA6EB9"/>
</linearGradient>
<linearGradient id="paint3_linear" x1="174.392" y1="166.234" x2="123.395" y2="94.9018" gradientUnits="userSpaceOnUse">
<stop stop-color="#55D9E5"/>
<stop offset="1" stop-color="#3488ED"/>
</linearGradient>
<linearGradient id="paint4_linear" x1="377.037" y1="148.646" x2="327.971" y2="94.829" gradientUnits="userSpaceOnUse">
<stop stop-color="#81EAEC"/>
<stop offset="1" stop-color="#3488ED"/>
</linearGradient>
<linearGradient id="paint5_linear" x1="339.193" y1="42.1288" x2="354.743" y2="10.1131" gradientUnits="userSpaceOnUse">
<stop stop-color="#C6E7ED"/>
<stop offset="1" stop-color="#E7F9E6"/>
</linearGradient>
<linearGradient id="paint6_linear" x1="21.7276" y1="152.446" x2="24.0251" y2="115.589" gradientUnits="userSpaceOnUse">
<stop stop-color="#FF90D7"/>
<stop offset="1" stop-color="#906EFA"/>
</linearGradient>
<linearGradient id="paint7_linear" x1="37.4877" y1="149.726" x2="54.4012" y2="129.224" gradientUnits="userSpaceOnUse">
<stop stop-color="#FFCFAA"/>
<stop offset="1" stop-color="#FA6EB9"/>
</linearGradient>
<linearGradient id="paint8_linear" x1="285.473" y1="211.705" x2="225.858" y2="242.461" gradientUnits="userSpaceOnUse">
<stop stop-color="#FFB782"/>
<stop offset="1" stop-color="#FF739C"/>
</linearGradient>
<linearGradient id="paint9_linear" x1="173.33" y1="192.554" x2="156.96" y2="214.678" gradientUnits="userSpaceOnUse">
<stop stop-color="#51CBE7"/>
<stop offset="1" stop-color="#BBF4B2"/>
</linearGradient>
<linearGradient id="paint10_linear" x1="366.728" y1="192.554" x2="350.358" y2="214.678" gradientUnits="userSpaceOnUse">
<stop stop-color="#51CBE7"/>
<stop offset="1" stop-color="#BBF4B2"/>
</linearGradient>
<linearGradient id="paint11_linear" x1="264.009" y1="437.571" x2="217.677" y2="448.235" gradientUnits="userSpaceOnUse">
<stop stop-color="#404683"/>
<stop offset="1" stop-color="#373A5B"/>
</linearGradient>
<linearGradient id="paint12_linear" x1="244.874" y1="437.131" x2="281.613" y2="447.643" gradientUnits="userSpaceOnUse">
<stop stop-color="#404683"/>
<stop offset="1" stop-color="#373A5B"/>
</linearGradient>
<linearGradient id="paint13_linear" x1="180.03" y1="201.101" x2="195.251" y2="187.311" gradientUnits="userSpaceOnUse">
<stop stop-color="#843E3E"/>
<stop offset="1" stop-color="#C08775"/>
</linearGradient>
<linearGradient id="paint14_linear" x1="286.676" y1="268.474" x2="272.004" y2="259.23" gradientUnits="userSpaceOnUse">
<stop stop-color="#843E3E"/>
<stop offset="1" stop-color="#C08775"/>
</linearGradient>
<linearGradient id="paint15_linear" x1="244.23" y1="266.458" x2="244.23" y2="431.78" gradientUnits="userSpaceOnUse">
<stop stop-color="#AF3053"/>
<stop offset="1" stop-color="#7A3343"/>
</linearGradient>
<linearGradient id="paint16_linear" x1="247.211" y1="187.96" x2="266.756" y2="161.769" gradientUnits="userSpaceOnUse">
<stop stop-color="#843E3E"/>
<stop offset="1" stop-color="#C08775"/>
</linearGradient>
<linearGradient id="paint17_linear" x1="248.129" y1="156.402" x2="272.287" y2="136.319" gradientUnits="userSpaceOnUse">
<stop stop-color="#321847"/>
<stop offset="1" stop-color="#834A88"/>
</linearGradient>
<linearGradient id="paint18_linear" x1="274.376" y1="200.651" x2="212.518" y2="265.566" gradientUnits="userSpaceOnUse">
<stop stop-color="#FFB782"/>
<stop offset="1" stop-color="#EB4878"/>
</linearGradient>
<linearGradient id="paint19_linear" x1="64.2571" y1="294.753" x2="-11.9584" y2="394.458" gradientUnits="userSpaceOnUse">
<stop stop-color="#3067AC"/>
<stop offset="1" stop-color="#4E679A"/>
</linearGradient>
<linearGradient id="paint20_linear" x1="126.851" y1="156.525" x2="139.586" y2="139.902" gradientUnits="userSpaceOnUse">
<stop stop-color="#FF9292"/>
<stop offset="1" stop-color="#FFB59D"/>
</linearGradient>
<linearGradient id="paint21_linear" x1="59.8336" y1="196.718" x2="73.1628" y2="166.812" gradientUnits="userSpaceOnUse">
<stop stop-color="#FF9292"/>
<stop offset="1" stop-color="#FFB59D"/>
</linearGradient>
<linearGradient id="paint22_linear" x1="44.6376" y1="167.521" x2="75.5061" y2="132.408" gradientUnits="userSpaceOnUse">
<stop stop-color="#321847"/>
<stop offset="1" stop-color="#834A88"/>
</linearGradient>
<linearGradient id="paint23_linear" x1="64.6892" y1="309.61" x2="108.201" y2="151.69" gradientUnits="userSpaceOnUse">
<stop stop-color="#46E5F2"/>
<stop offset="1" stop-color="#9E66FF"/>
</linearGradient>
<linearGradient id="paint24_linear" x1="37.4626" y1="194.359" x2="53.4314" y2="174.357" gradientUnits="userSpaceOnUse">
<stop stop-color="#46E5F2"/>
<stop offset="1" stop-color="#9E66FF"/>
</linearGradient>
<linearGradient id="paint25_linear" x1="399.948" y1="458.726" x2="433.563" y2="428.776" gradientUnits="userSpaceOnUse">
<stop stop-color="#843E3E"/>
<stop offset="1" stop-color="#C08775"/>
</linearGradient>
<linearGradient id="paint26_linear" x1="427.52" y1="434.356" x2="385.279" y2="452.625" gradientUnits="userSpaceOnUse">
<stop stop-color="#FF8299"/>
<stop offset="1" stop-color="#CC2B32"/>
</linearGradient>
<linearGradient id="paint27_linear" x1="377.861" y1="458.979" x2="412.863" y2="428.919" gradientUnits="userSpaceOnUse">
<stop stop-color="#843E3E"/>
<stop offset="1" stop-color="#C08775"/>
</linearGradient>
<linearGradient id="paint28_linear" x1="407.378" y1="434.295" x2="365.137" y2="452.564" gradientUnits="userSpaceOnUse">
<stop stop-color="#FF8299"/>
<stop offset="1" stop-color="#CC2B32"/>
</linearGradient>
<linearGradient id="paint29_linear" x1="426.184" y1="272.059" x2="366.817" y2="326.688" gradientUnits="userSpaceOnUse">
<stop stop-color="#404683"/>
<stop offset="1" stop-color="#373A5B"/>
</linearGradient>
<linearGradient id="paint30_linear" x1="411.559" y1="259.678" x2="426.893" y2="248.695" gradientUnits="userSpaceOnUse">
<stop stop-color="#843E3E"/>
<stop offset="1" stop-color="#C08775"/>
</linearGradient>
<linearGradient id="paint31_linear" x1="366.498" y1="300.151" x2="377.286" y2="286.263" gradientUnits="userSpaceOnUse">
<stop stop-color="#843E3E"/>
<stop offset="1" stop-color="#C08775"/>
</linearGradient>
<linearGradient id="paint32_linear" x1="392.661" y1="314.092" x2="451.757" y2="219.062" gradientUnits="userSpaceOnUse">
<stop stop-color="#6F4DE2"/>
<stop offset="1" stop-color="#FF7C7C"/>
</linearGradient>
<linearGradient id="paint33_linear" x1="434.259" y1="174.911" x2="391.663" y2="162.15" gradientUnits="userSpaceOnUse">
<stop stop-color="#C56868"/>
<stop offset="1" stop-color="#7B4838"/>
</linearGradient>
<linearGradient id="paint34_linear" x1="393.177" y1="164.234" x2="425.226" y2="137.006" gradientUnits="userSpaceOnUse">
<stop stop-color="#321847"/>
<stop offset="1" stop-color="#834A88"/>
</linearGradient>
<linearGradient id="paint35_linear" x1="412.796" y1="143.713" x2="403.163" y2="158.774" gradientUnits="userSpaceOnUse">
<stop stop-color="#FFB782"/>
<stop offset="1" stop-color="#EB4878"/>
</linearGradient>
<linearGradient id="paint36_linear" x1="407.733" y1="151.288" x2="422.768" y2="139.076" gradientUnits="userSpaceOnUse">
<stop stop-color="#321847"/>
<stop offset="1" stop-color="#834A88"/>
</linearGradient>
<linearGradient id="paint37_linear" x1="376.84" y1="248.957" x2="376.84" y2="300.543" gradientUnits="userSpaceOnUse">
<stop stop-color="#A3EDED"/>
<stop offset="1" stop-color="#9FCFFF"/>
</linearGradient>
<linearGradient id="paint38_linear" x1="117.657" y1="24.3953" x2="120.56" y2="8.72423" gradientUnits="userSpaceOnUse">
<stop stop-color="#FA74B8"/>
<stop offset="1" stop-color="#FEBBAD"/>
</linearGradient>
<linearGradient id="paint39_linear" x1="485.744" y1="138.635" x2="466.314" y2="166.13" gradientUnits="userSpaceOnUse">
<stop stop-color="#EEF7FF"/>
<stop offset="1" stop-color="#D5F1FF"/>
</linearGradient>
<linearGradient id="paint40_linear" x1="452.501" y1="132.026" x2="484.913" y2="120.729" gradientUnits="userSpaceOnUse">
<stop stop-color="#FFCFAA"/>
<stop offset="1" stop-color="#FA6EB9"/>
</linearGradient>
</defs>
</svg>
