<svg width="204" height="170" viewBox="0 0 204 170" fill="none" xmlns="http://www.w3.org/2000/svg">
<path d="M125.801 23.8C125.801 19.0928 124.405 14.4913 121.79 10.5774C119.174 6.66355 115.457 3.61304 111.109 1.81168C106.76 0.0103121 101.974 -0.461007 97.3575 0.457321C92.7408 1.37565 88.5 3.64238 85.1716 6.97087C81.8431 10.2994 79.5763 14.5401 78.658 19.1569C77.7397 23.7736 78.211 28.559 80.0124 32.9079C81.8137 37.2568 84.8642 40.9738 88.7781 43.589C92.692 46.2042 97.2935 47.6 102.001 47.6C108.311 47.5929 114.36 45.0832 118.822 40.6213C123.284 36.1595 125.794 30.11 125.801 23.8ZM102.001 40.8C98.6384 40.8 95.3516 39.803 92.556 37.935C89.7604 36.067 87.5814 33.412 86.2947 30.3056C85.0081 27.1993 84.6714 23.7812 85.3273 20.4835C85.9833 17.1858 87.6024 14.1567 89.9799 11.7792C92.3574 9.4017 95.3865 7.78261 98.6842 7.12666C101.982 6.47071 105.4 6.80737 108.506 8.09406C111.613 9.38075 114.268 11.5597 116.136 14.3553C118.004 17.151 119.001 20.4377 119.001 23.8C118.996 28.3071 117.203 32.6282 114.016 35.8152C110.829 39.0023 106.508 40.795 102.001 40.8Z" fill="url(#paint0_linear)"/>
<path d="M102.001 91.8003C99.3116 91.8003 96.6821 92.5979 94.4456 94.0923C92.2091 95.5867 90.466 97.7107 89.4366 100.196C88.4073 102.681 88.1379 105.415 88.6627 108.054C89.1875 110.692 90.4827 113.115 92.3847 115.017C94.2867 116.919 96.71 118.214 99.3481 118.739C101.986 119.264 104.721 118.994 107.206 117.965C109.691 116.936 111.815 115.193 113.309 112.956C114.804 110.72 115.601 108.09 115.601 105.4C115.597 101.795 114.163 98.3377 111.614 95.7881C109.064 93.2385 105.607 91.8043 102.001 91.8003ZM102.001 112.2C100.656 112.2 99.3417 111.801 98.2235 111.054C97.1052 110.307 96.2337 109.245 95.719 108.003C95.2043 106.76 95.0697 105.393 95.332 104.074C95.5944 102.755 96.2421 101.543 97.1931 100.592C98.144 99.641 99.3557 98.9933 100.675 98.731C101.994 98.4686 103.361 98.6032 104.604 99.1179C105.846 99.6326 106.908 100.504 107.655 101.622C108.403 102.741 108.801 104.055 108.801 105.4C108.799 107.203 108.082 108.931 106.807 110.206C105.533 111.481 103.804 112.198 102.001 112.2Z" fill="url(#paint1_linear)"/>
<path d="M200.6 136H183.6C186.304 135.997 188.897 134.921 190.809 133.009C192.721 131.097 193.797 128.504 193.8 125.8V112.2C193.8 111.298 193.442 110.434 192.804 109.796C192.167 109.158 191.302 108.8 190.4 108.8H170C169.098 108.8 168.233 109.158 167.596 109.796C166.958 110.434 166.6 111.298 166.6 112.2V125.8C166.603 128.504 167.679 131.097 169.591 133.009C171.503 134.921 174.096 135.997 176.8 136H153.357L159.783 71.7401C159.831 71.2673 159.778 70.7898 159.63 70.3384C159.482 69.887 159.24 69.4717 158.922 69.1193C158.603 68.7669 158.214 68.4852 157.779 68.2925C157.345 68.0997 156.875 68.0001 156.4 68.0001H142.8V64.6001C142.795 60.093 141.002 55.7719 137.815 52.5849C134.628 49.3979 130.307 47.6052 125.8 47.6001H78.2C73.6929 47.6052 69.3718 49.3979 66.1848 52.5849C62.9978 55.7719 61.2051 60.093 61.2 64.6001V68.0001H47.6C47.1248 68.0001 46.6549 68.0997 46.2206 68.2925C45.7863 68.4852 45.3972 68.7669 45.0785 69.1193C44.7597 69.4717 44.5184 69.887 44.37 70.3384C44.2216 70.7898 44.1695 71.2673 44.217 71.7401L50.643 136H37.4V132.6C37.397 129.896 36.3214 127.303 34.4091 125.391C32.4969 123.479 29.9043 122.403 27.2 122.4H20.4C17.6957 122.403 15.1031 123.479 13.1909 125.391C11.2787 127.303 10.203 129.896 10.2 132.6V136H3.4C2.49826 136 1.63346 136.358 0.995837 136.996C0.358213 137.634 0 138.498 0 139.4V153C0 153.902 0.358213 154.767 0.995837 155.404C1.63346 156.042 2.49826 156.4 3.4 156.4H13.6V170H20.4V156.4H183.6V170H190.4V156.4H200.6C201.502 156.4 202.367 156.042 203.004 155.404C203.642 154.767 204 153.902 204 153V139.4C204 138.498 203.642 137.634 203.004 136.996C202.367 136.358 201.502 136 200.6 136ZM173.4 125.8V115.6H187V125.8C186.999 126.702 186.64 127.566 186.003 128.203C185.366 128.841 184.501 129.199 183.6 129.2H176.8C175.899 129.199 175.034 128.841 174.397 128.203C173.76 127.566 173.401 126.702 173.4 125.8ZM68 64.6001C68.0032 61.8959 69.0788 59.3033 70.991 57.3911C72.9032 55.4789 75.4958 54.4032 78.2 54.4001H125.8C128.504 54.4032 131.097 55.4789 133.009 57.3911C134.921 59.3033 135.997 61.8959 136 64.6001V68.0001H68V64.6001ZM51.357 74.8001H152.643L146.523 136H57.477L51.357 74.8001ZM17 132.6C17.001 131.699 17.3596 130.834 17.997 130.197C18.6344 129.56 19.4986 129.201 20.4 129.2H27.2C28.1014 129.201 28.9656 129.56 29.603 130.197C30.2404 130.834 30.599 131.699 30.6 132.6V136H17V132.6ZM197.2 149.6H6.8V142.8H197.2V149.6Z" fill="url(#paint2_linear)"/>
<path d="M168.094 102H174.894C174.894 101.442 174.984 101.291 175.851 100.387C176.987 99.2045 178.702 97.4174 178.702 94.0658C178.702 90.7143 176.987 88.9276 175.851 87.7448C174.984 86.8412 174.894 86.6908 174.894 86.1323C174.894 85.5739 174.984 85.4239 175.851 84.5203C176.987 83.338 178.702 81.5508 178.702 78.1997H171.902C171.902 78.7573 171.813 78.9078 170.946 79.8109C169.811 80.9937 168.094 82.7808 168.094 86.1323C168.094 89.4839 169.811 91.271 170.946 92.4538C171.813 93.3573 171.902 93.5082 171.902 94.0658C171.902 94.6234 171.813 94.7747 170.946 95.6783C169.81 96.861 168.094 98.6482 168.094 102Z" fill="url(#paint3_linear)"/>
<path d="M181.697 102H188.497C188.497 101.442 188.586 101.291 189.453 100.387C190.589 99.2045 192.305 97.4174 192.305 94.0658C192.305 90.7143 190.589 88.9276 189.453 87.7448C188.586 86.8412 188.497 86.6908 188.497 86.1323C188.497 85.5739 188.586 85.4239 189.453 84.5203C190.589 83.338 192.305 81.5508 192.305 78.1997H185.505C185.505 78.7573 185.416 78.9078 184.548 79.8109C183.413 80.9937 181.697 82.7808 181.697 86.1323C181.697 89.4839 183.413 91.271 184.548 92.4538C185.416 93.3573 185.505 93.5082 185.505 94.0658C185.505 94.6234 185.416 94.7747 184.548 95.6783C183.413 96.861 181.697 98.6482 181.697 102Z" fill="url(#paint4_linear)"/>
<defs>
<linearGradient id="paint0_linear" x1="-16.9936" y1="25.1888" x2="103.733" y2="143.762" gradientUnits="userSpaceOnUse">
<stop stop-color="#FFC300"/>
<stop offset="1" stop-color="#FF00FF"/>
</linearGradient>
<linearGradient id="paint1_linear" x1="34.0047" y1="106.194" x2="102.992" y2="173.95" gradientUnits="userSpaceOnUse">
<stop stop-color="#FFC300"/>
<stop offset="1" stop-color="#FF00FF"/>
</linearGradient>
<linearGradient id="paint2_linear" x1="-407.975" y1="112.371" x2="-131.716" y2="564.587" gradientUnits="userSpaceOnUse">
<stop stop-color="#FFC300"/>
<stop offset="1" stop-color="#FF00FF"/>
</linearGradient>
<linearGradient id="paint3_linear" x1="146.88" y1="90.7941" x2="191.237" y2="110.212" gradientUnits="userSpaceOnUse">
<stop stop-color="#FFC300"/>
<stop offset="1" stop-color="#FF00FF"/>
</linearGradient>
<linearGradient id="paint4_linear" x1="160.482" y1="90.7941" x2="204.84" y2="110.212" gradientUnits="userSpaceOnUse">
<stop stop-color="#FFC300"/>
<stop offset="1" stop-color="#FF00FF"/>
</linearGradient>
</defs>
</svg>
