<?xml version="1.0" encoding="utf-8"?>
<!-- Generator: Adobe Illustrator 23.0.1, SVG Export Plug-In . SVG Version: 6.00 Build 0)  -->
<svg version="1.1" id="Layer_1" xmlns="http://www.w3.org/2000/svg" xmlns:xlink="http://www.w3.org/1999/xlink" x="0px" y="0px"
	 width="292px" height="62px" viewBox="0 0 292 62" style="enable-background:new 0 0 292 62;" xml:space="preserve">
<style type="text/css">
	.st0{fill:#C4351E;}
	.st1{fill:#11324D;}
</style>
<g>
	<g>
		<g>
			<path class="st0" d="M189.9,47.5V0h2.1v47.5H189.9z"/>
			<path class="st0" d="M199.2,20.1c1.9-2.3,4.2-3.4,8.7-3.4c4.5,0,6.8,1.1,8.7,3.4c1.9,2.3,2.8,6.3,2.8,12.2c0,5.9-0.8,10-2.5,12.3
				c-1.7,2.3-4.1,3.5-9,3.5c-4.9,0-7.4-1.2-9-3.5c-1.7-2.3-2.5-6.4-2.5-12.3C196.4,26.4,197.3,22.3,199.2,20.1z M203.3,45.4
				c1.3,0.5,2.3,0.7,4.6,0.7c2.3,0,3.2-0.2,4.5-0.7c1.3-0.5,2.3-1.3,3-2.6c0.7-1.3,1.2-2.7,1.4-4.3c0.2-1.6,0.3-3.8,0.3-6.7
				c0-5.1-0.7-8.6-2.1-10.4c-1.4-1.9-3.2-2.8-7.1-2.8c-3.9,0-5.7,0.9-7.1,2.8c-1.4,1.9-2.1,5.3-2.1,10.4c0,2.9,0.1,5.1,0.3,6.7
				c0.2,1.6,0.7,3,1.4,4.3C201,44.1,202,45,203.3,45.4z"/>
			<path class="st0" d="M252.8,47.5V17.2h2.1v30.3H252.8z"/>
			<path class="st0" d="M279.1,47.5c-3.4,0.4-5.9,0.5-7.4,0.5c-4.9,0-8.2-1.2-9.9-3.5c-1.7-2.3-2.5-6.4-2.5-12.4
				c0-5.9,0.9-10,2.8-12.2c1.9-2.2,5.1-3.3,9.6-3.3l7.3,0.6l-1.8,1.7c-2.4-0.3-4.2-0.4-5.5-0.4c-3.8,0-6.5,1-8,2.9
				c-1.5,1.9-2.2,5.5-2.2,10.6c0,5.1,0.7,8.8,2,10.8c1.3,2.1,4.1,3.1,8.2,3.1l5.6-0.4"/>
			<path class="st0" d="M246,45.6c-1.1-0.8-2.6-1.3-4.6-1.5c-0.2,0-0.4,0-0.6-0.1c-0.1,0-0.2,0-0.3,0c-0.1,0-0.3,0-0.4,0
				c-0.1,0-0.3,0-0.4,0c-0.1,0-0.2,0-0.3,0c-0.2,0-0.4,0-0.6,0c0,0,0,0-0.1,0h0c-2.4-0.1-4.3-0.2-5.9-0.2h0c-0.2,0-0.3,0-0.5,0
				c-0.5,0-0.7,0-0.7,0h0h0h0l0,0c-3.1-0.2-2.6-2.3-2.6-2.3l-0.1,0c0.1-0.4,0.2-0.8,0.2-0.8h0c0.2-0.7,0.5-1.7,1.1-3.1
				c1.3,0.5,2.6,0.8,4.1,0.8c5.8,0,10.6-4.7,10.6-10.6v-8.7h2.6l0.8-1.9h-3.5h-1h-9.6c-5.8,0-10.6,4.7-10.6,10.6
				c0,3.7,1.9,6.9,4.7,8.8l-0.1,0.3c-0.5,1.1-0.9,1.9-1.1,2.6v0c0,0,0,0.1-0.1,0.2c0,0,0,0.1,0,0.1c0,0,0,0.1,0,0.2c0,0,0,0.1,0,0.1
				c-0.2,0.9-0.5,2.5,0,3.6c0,0,0,0,0,0c0.4,1,1.3,1.8,3.1,1.9l1.6,0l0,0l5.7,0.1c3.3,0,5.6,0.4,6.8,1.2c1.2,0.8,1.8,2.6,1.8,5.4
				c0,2.8-0.8,4.7-2.5,5.9c-1.7,1.2-4.4,1.7-8.3,1.7c-3.9,0-6.2-1.4-7.5-2.5c-1.3-1.1-1.9-3.1-1.9-6.1c0-0.8,0.1-1.6,0.3-2.2
				l-1.6-1.6c-0.6,1.1-0.9,2.4-0.9,3.9c0,3.7,0.8,6.3,2.3,7.6c1.6,1.4,4.4,2.8,9.1,2.8c4.7,0,8.1-0.7,10.1-2.2
				c2-1.5,3.1-3.9,3.1-7.4C248.4,49,247.6,46.7,246,45.6z M225.9,27.8c0-4.6,3.8-8.4,8.4-8.4h8.4v8.4c0,4.6-3.8,8.4-8.4,8.4
				C229.7,36.2,225.9,32.4,225.9,27.8z"/>
		</g>
		<g>
			<path class="st1" d="M50.9,43.8l1.8-0.2l0.1,3.6c-4.6,0.6-8.5,1-11.8,1c-4.4,0-7.5-1.3-9.3-3.8c-1.8-2.5-2.7-6.5-2.7-11.8
				c0-10.6,4.2-15.9,12.7-15.9c4.1,0,7.1,1.1,9.2,3.4c2,2.3,3,5.9,3,10.8l-0.2,3.5h-20c0,3.4,0.6,5.8,1.8,7.5
				c1.2,1.6,3.3,2.4,6.3,2.4C44.8,44.1,47.8,44,50.9,43.8z M49.3,30.6c0-3.7-0.6-6.3-1.8-7.9c-1.2-1.5-3.1-2.3-5.8-2.3
				c-2.7,0-4.7,0.8-6.1,2.4c-1.4,1.6-2,4.2-2.1,7.8H49.3z"/>
			<path class="st1" d="M58.2,47.5V0h4.5v47.5H58.2z"/>
			<path class="st1" d="M100.7,47.5h-4.5V0h4.5v18.9c3.2-1.5,6.3-2.3,9.3-2.3c4,0,6.8,1.1,8.2,3.3c1.4,2.2,2.1,6.1,2.1,11.6v16h-4.5
				V31.6c0-4.2-0.4-7.1-1.2-8.6c-0.8-1.6-2.6-2.3-5.2-2.3c-2.5,0-5,0.5-7.4,1.4l-1.1,0.4V47.5z"/>
			<path class="st1" d="M124.7,47.5V17.2h4.5v30.3H124.7z"/>
			<path class="st1" d="M157,41.9v-5.1V26.4c0-3.4-0.8-5.8-2.3-7.4c-1.6-1.6-4.1-2.4-7.5-2.4c-3.4,0-7.4,0.4-11.8,1.3l0.2,3.5
				l1.9-0.2c3.5-0.4,6.8-0.6,10.1-0.6c1.5,0,2.7,0.4,3.6,1.3c0.9,0.9,1.3,2.4,1.3,4.4V29l-9.5,0.9c-3.2,0.3-5.5,1.2-7,2.6
				c-1.5,1.4-2.2,3.6-2.2,6.5c0,3,0.7,5.2,2.2,6.8c1.5,1.6,3.6,2.4,6.4,2.4c3.6,0,7.3-0.8,10.9-2.4c1,1,2.3,1.7,3.9,2.1V41.9z
				 M152.4,42.4l-1.4,0.5c-2.7,0.9-5.4,1.4-8.1,1.4c-3.1,0-4.6-1.9-4.6-5.6c0-1.7,0.4-3,1.2-3.9c0.8-0.9,2.1-1.4,3.9-1.6l9-0.9V42.4
				z"/>
			<path class="st1" d="M165.9,47.5h-4.5V17.2h4.5v2.1c3.3-1.8,6.4-2.7,9.4-2.7c4,0,6.8,1.1,8.2,3.3c1.4,2.2,2.1,6.1,2.1,11.6v16
				H181V31.6c0-4.2-0.4-7.1-1.2-8.6c-0.8-1.6-2.6-2.3-5.3-2.3c-1.3,0-2.7,0.2-4.1,0.6c-1.4,0.4-2.5,0.8-3.3,1.1l-1.2,0.5V47.5z"/>
			<path class="st1" d="M89.1,20.3c-1.7-2.4-4.5-3.7-8.4-3.7c-3,0-6,0.9-9.1,2.8v-2.2h-4.5v42.4c1.2,1.2,2.7,2,4.5,2.4V47.5
				c2.1,0.4,4.3,0.7,6.8,0.7c4.7,0,8.1-1.2,10.2-3.7c2-2.4,3.1-6.5,3.1-12.1C91.7,26.7,90.9,22.7,89.1,20.3z M85.2,41.4
				c-1.3,1.9-3.6,2.8-6.9,2.8c-1.5,0-3.7-0.2-6.5-0.7V23.1l1.2-0.6c0.8-0.4,1.9-0.8,3.3-1.2c1.4-0.4,2.7-0.6,3.9-0.6
				c2.3,0,4.1,0.9,5.2,2.7c1.2,1.8,1.8,4.8,1.8,9C87.1,36.5,86.5,39.5,85.2,41.4z"/>
			<path class="st1" d="M20.1,0v17.4c-2.6-0.5-5.1-0.8-7.5-0.8c-4.5,0-7.8,1.3-9.7,3.9C1,23.1,0,27.4,0,33.2c0,5.9,1.1,9.9,3.3,12.1
				c1.1,1.1,2.2,1.8,3.4,2.2c1.2,0.4,2.6,0.6,4.2,0.6c3,0,6.1-0.9,9.2-2.7l0.3-0.2c1.1,1.1,2.5,1.8,4.2,2.2V0H20.1z M20.1,41.8
				l-1.2,0.5c-0.8,0.4-1.9,0.7-3.4,1.1c-1.4,0.4-2.7,0.6-3.9,0.6c-1.1,0-2.1-0.1-2.8-0.4c-0.7-0.3-1.4-0.8-2.1-1.6
				c-1.4-1.6-2.1-4.8-2.1-9.5c0-4.1,0.6-7.2,1.8-9.1c1.2-2,3.4-2.9,6.4-2.9c2.2,0,4.6,0.2,7.2,0.7V41.8z"/>
		</g>
	</g>
	<g>
		<g>
			<path class="st0" d="M286.7,13v1.7h-0.8V10h1.8c1,0,1.6,0.5,1.6,1.5c0,0.7-0.3,1.1-0.8,1.4l0.8,1.8h-0.8l-0.7-1.7H286.7z
				 M287.7,10.7h-1v1.7h1c0.6,0,0.8-0.4,0.8-0.9C288.5,11,288.2,10.7,287.7,10.7z"/>
		</g>
		<g>
			<path class="st0" d="M287.6,16.8c-2.4,0-4.4-2-4.4-4.4c0-2.4,2-4.4,4.4-4.4s4.4,2,4.4,4.4C292,14.8,290,16.8,287.6,16.8z
				 M287.6,8.7c-2,0-3.7,1.7-3.7,3.7c0,2,1.7,3.7,3.7,3.7s3.7-1.7,3.7-3.7C291.3,10.3,289.6,8.7,287.6,8.7z"/>
		</g>
	</g>
</g>
</svg>
