<svg xmlns="http://www.w3.org/2000/svg" xmlns:xlink="http://www.w3.org/1999/xlink" width="353" height="154" viewBox="0 0 353 154">
    <defs>
        <path id="a" d="M11.374.37c-.59 2.404-2.673 3.697-6.249 3.879C1.55 4.431.025 5.724.552 8.128h17.935c1.97 0 2.718-.72 2.24-2.16L19.248.37h-7.874z"/>
        <path id="c" d="M5.14.37C4.343 1.81 3.185 3.103 1.668 4.25-.608 5.968.258 8.128 1.504 8.128h12.792c1.971 0 2.718-.72 2.24-2.16L13.014.37H5.14z"/>
        <linearGradient id="f" x1="134.336%" x2="6.662%" y1="14.643%" y2="100%">
            <stop offset="0%" stop-color="#3067AC"/>
            <stop offset="100%" stop-color="#4E679A"/>
        </linearGradient>
        <path id="e" d="M1.537.188c-3.013 20.895 1.411 29.532 0 47.924-.325 4.239 0 20.352.404 28.457.087 1.75-1.085 3.932.835 4.345 1.92.414 7.603.248 8.851.248 1.248 0 .576-2.168.576-3.86 0-12.774 1.935-13.568 1.52-20.276-.524-8.485.778-20.258 3.907-35.318.99 7.802 2.51 15.354 4.557 22.659 1.706 6.085.123 13.831 1.587 25.64.212 1.707-.51 10.366 1.412 10.66 1.923.294 6.837.294 8.16.247 1.324-.046 1.141-5.27 2.02-10.908.878-5.637 0-18.68 0-25.64 0-4.64-2.193-19.365-6.579-44.178H1.537z"/>
        <linearGradient id="h" x1="5.388%" x2="84.005%" y1="100%" y2="-7.433%">
            <stop offset="0%" stop-color="#46E5F2"/>
            <stop offset="100%" stop-color="#9E66FF"/>
        </linearGradient>
        <linearGradient id="j" x1="7.502%" x2="84.005%" y1="131.058%" y2="-7.433%">
            <stop offset="0%" stop-color="#46E5F2"/>
            <stop offset="100%" stop-color="#9E66FF"/>
        </linearGradient>
        <path id="i" d="M31.912 2.95c-3.51-1.123-12.787-1.205-20.984-.4-2.713.267-5.104 3.072-7.175 8.415-2.646 7.319-6.546 21-.58 21.69 2.177.252 4.532.378 7.067.378-.48 4.41-.712 8.29-.696 11.644.007 1.457-.513 3.486 3.12 3.702 3.633.216 15.029 2.166 19.728 1.488 4.699-.68 8.059-1.543 6.25-5.579-1.207-2.69-1.924-8.832-2.152-18.425l7.349 4.353c2.733.855 4.79.338 6.172-1.552 1.2-1.64 2.924-5.464 6.737-12.525.386-.713.556-1.4.512-2.057 1.396-3.426.254-5.032-3.425-4.819-.614 1.702-1.233 1.272-1.57 1.702-1.626 2.066-3.878 5.03-6.757 8.888L36.49 6.112c-.713-1.36-2.239-2.413-4.578-3.162z"/>
        <linearGradient id="l" x1="25.093%" x2="117.883%" y1="65.302%" y2="-13.53%">
            <stop offset="0%" stop-color="#321847"/>
            <stop offset="100%" stop-color="#834A88"/>
        </linearGradient>
        <linearGradient id="n" x1="60.082%" x2="0%" y1="23.826%" y2="110.63%">
            <stop offset="0%" stop-color="#F68585"/>
            <stop offset="100%" stop-color="#FF9B92"/>
        </linearGradient>
        <path id="m" d="M.222 6.614c1.77 1.131 3.61 1.697 5.515 1.697 1.907 0 2.625-.566 2.155-1.697L7.345 3.33 1.525.297.221 6.614z"/>
        <linearGradient id="q" x1="9.105%" x2="87.601%" y1="110.865%" y2="23.826%">
            <stop offset="0%" stop-color="#FF9292"/>
            <stop offset="100%" stop-color="#FFB59D"/>
        </linearGradient>
        <path id="p" d="M6.7.56c1.85.528 3.237.804 5.018.508 1.446-.24 1.826.795 1.78 1.487-.457 6.801-1.73 10.202-3.648 10.202-3.168 0-6.63-1.623-7.427-5.034a16.382 16.382 0 0 1-.026-.11A1.753 1.753 0 0 1 .398 5.876a1.753 1.753 0 0 1 3.21-.974c.177.081.07-5.204 3.093-4.341z"/>
        <path id="s" d="M2.295 3.746c1.089-1.294.003-3.417 1.2-3.417.229 0 .982.514 1.1 1.138.094.492.094 1.07 0 1.731 1.6.156 2.589.46 2.967.915.594.714.345 3.596 0 4.544-.48 1.322-1.11 1.322-2.463 1.737-.417.127-1.045.456-1.884.987-.52.147-1.1-.02-1.738-.5C.84 10.398.387 9.302.122 7.592.846 5.89 1.57 4.608 2.295 3.746z"/>
        <linearGradient id="u" x1="50%" x2="50%" y1="0%" y2="100%">
            <stop offset="0%" stop-color="#A3EDED"/>
            <stop offset="100%" stop-color="#9FCFFF"/>
        </linearGradient>
        <linearGradient id="w" x1="13.561%" x2="98.634%" y1="-68.368%" y2="97.339%">
            <stop offset="0%" stop-color="#8BC1CE"/>
            <stop offset="100%" stop-color="#6974B1"/>
        </linearGradient>
        <path id="v" d="M11.365.371c-.589 2.41-2.67 3.707-6.244 3.89-3.573.183-5.096 1.48-4.569 3.89h17.92c1.97 0 2.716-.722 2.239-2.166L19.233.371h-7.868z"/>
        <path id="y" d="M5.136.371c-.797 1.444-1.953 2.741-3.47 3.89-2.273 1.724-1.409 3.89-.163 3.89h12.782c1.97 0 2.716-.722 2.239-2.166L13.004.371H5.135z"/>
        <path id="A" d="M13.731.188c-6.18 29.553-3.448 27.299-6.534 45.297-.693 4.04-4.639 24.84-6.233 31.308-.378 1.535-1.452 4.142.677 4.359 2.129.217 6.07.248 7.318.248 1.247 0 1.774-2.6 2.259-3.871 2.1-5.515 7.092-24.062 14.974-55.64 3.68 17.505 4.586 35.434 2.716 53.788-.176 1.73-.751 5.475.201 5.475.953 0 7.44.248 8.154.248.715 0 .99-4.109 1.666-8.55.677-4.442 1.495-10.163 2.03-26.203.358-10.693.358-26.18 0-46.459H13.732z"/>
        <linearGradient id="D" x1="21.519%" x2="70.406%" y1="92.592%" y2="-8.059%">
            <stop offset="0%" stop-color="#39ABC5"/>
            <stop offset="100%" stop-color="#A8EB9D"/>
        </linearGradient>
        <path id="C" d="M32.74 1.253C29.232.127 20.462-.495 12.412.997c-3.831.71-6.159 1.591-8.03 4.602-1.87 3.01-3.087 5.19-4.183 7.565l7.998 8.218 1.685-2.454c1.004 8.053 1.512 13.45 1.524 16.193.017 4.039-3.181 18.914-3.167 19.396.044 1.461-1.872 2.714 2.645 3.341 4.516.628 17.585.98 22.83 0 5.245-.98 8.063-.652 6.795-4.812-.845-2.773-2.032-13.634-3.56-32.583l5.393-8.205-4.709-7.633c-.925-1.497-2.557-2.621-4.895-3.372z"/>
        <path id="F" d="M12.371 26.477c-2.011 1.116-3.128 1.116-5.016 0l-6.97-7.485-.236-1.982c2.637-2.182 4.477-4.233 5.522-6.152l3.749 5.63 8.64-9.918c.27-1.643.559-3.261 1.62-3.983 1.593-1.084 2.142-2.475 2.717-1.78.384.464.182 1.265-.605 2.403 2.598.016 4.18-.553 4.747-1.707.527-1.076 1.63-1.31 1.665-.696.02.375-1.123 2.255-1.24 2.652-.308 1.048-.08 1.551-2.156 2.685-1.323.722-2.61 1.91-3.86 3.565-3.885 8.923-6.585 15.664-8.577 16.768z"/>
        <path id="H" d="M11.22 7.302l2.997 11.353 1.512-4.244c3.341.776 5.783 3.317 7.326 7.625l-5.811 8.218c-2.018 2.461-5.59 2.461-7.488-.344-1.898-2.806-2.704-9.373-2.416-19.703a1.09 1.09 0 0 1-.036-.002C5.998 8.427 4.902 6.9 3.518 6.144 1.443 5.01 1.67 4.507 1.361 3.459 1.244 3.062.101 1.182.122.807c.035-.614 1.138-.38 1.665.696.566 1.154 2.148 1.723 4.747 1.707-.787-1.138-.989-1.94-.605-2.403.575-.695 1.124.696 2.718 1.78.708.482 1.566 2.054 2.573 4.715z"/>
        <linearGradient id="J" x1="24.242%" x2="117.883%" y1="93.583%" y2="-13.53%">
            <stop offset="0%" stop-color="#FFA77B"/>
            <stop offset="100%" stop-color="#FFE6CA"/>
        </linearGradient>
        <path id="K" d="M.222 6.633c3.104 2.723 5.225 4.084 6.363 4.084 1.139 0 1.572-1.361 1.3-4.084L7.34 3.34 1.523.297.222 6.633z"/>
        <path id="M" d="M12.114.375c.867 2.278 1.246 3.888 1.137 4.83-.586 5.06-1.759 7.59-3.409 7.59-3.165 0-6.624-1.628-7.421-5.05a16.481 16.481 0 0 1-.026-.11A1.755 1.755 0 0 1 .398 5.893c0-.972.784-1.76 1.75-1.76.608 0 1.144.311 1.458.784.177.081 6.265.324 8.508-4.542z"/>
        <linearGradient id="P" x1="134.336%" x2="6.662%" y1="14.643%" y2="100%">
            <stop offset="0%" stop-color="#404683"/>
            <stop offset="100%" stop-color="#373A5B"/>
        </linearGradient>
        <path id="O" d="M12.017.371c.287.223-.999 1.14-3.856 2.75-1.73.977-3.937 1.977-6.619 3.001-1.744.666-1.31 2.029.693 2.029h16.912c1.976 0 2.724-.722 2.245-2.166L19.91.37h-7.893z"/>
        <path id="R" d="M6.74.371C4.721 2.57 2.951 4.244 1.43 5.393-.85 7.117.67 8.15 1.92 8.15h14c1.975 0 2.724-.722 2.245-2.166L14.633.37H6.74z"/>
        <path id="T" d="M6.362.332C1.468 9.805 4.709 26.326 4.398 42.75 4.141 56.344.952 72.322.725 75.523c-.125 1.764-1.214 7.362.921 7.58 2.136.216 6.09.247 7.341.247 1.251 0 2-6.94 2.268-8.549.407-2.444 2.1-13.784 4.114-26.244.812-5.027 2.165-13.104 4.058-24.232 2.742 29.656 3.813 47.423 3.212 53.303-.177 1.731-.754 5.474.202 5.474.955 0 7.463.248 8.18.248.716 0 .503-4.108 1.182-8.549.258-1.693 1.587-11.383 1.563-27.321-.014-9.538.024-20.758-1.563-35.224-.253-2.301-.81-5.57-1.672-9.805L6.361.331z"/>
        <linearGradient id="V" x1="50%" x2="50%" y1="0%" y2="100%">
            <stop offset="0%" stop-color="#AF3053"/>
            <stop offset="100%" stop-color="#7A3343"/>
        </linearGradient>
        <linearGradient id="X" x1="-8.216%" x2="89.812%" y1="126.906%" y2="0%">
            <stop offset="0%" stop-color="#FFCFAA"/>
            <stop offset="100%" stop-color="#FA6EB9"/>
        </linearGradient>
        <path id="W" d="M32.03 1.961C25.17.048 31.884-.056 23.713.755c-3.347.332-6.733 1.918-10.157 4.757-3.768 3.076-9.441 9.462-11.51 12.626-2.068 3.163-2.22 7.525-.33 9.17 1.023.893 2.89-.336 5.599-3.687.944-.854 3.816-3.404 8.615-7.65 1.114 7.816 1.676 13.095 1.688 15.837.018 4.038-4.062 8.407-4.062 19.096.336.038 2.046-8.588 2.374-8.553.405.043-.392 8.514 0 8.553 8.017.797 9.832 5.293 16.102 4.495.47-.06 1.174-3.479 2.114-10.258 1.028 6.894 1.841 10.314 2.44 10.258 2.463-.227 4.332-2.254 6.14-2.254.371 0-.918-7.588-1.438-11.473-.224-1.676-.956-6.533-.956-13.237 0-2.615.319-5.49.956-8.623 4.651 4.9 8.169 7.4 10.554 7.497 2.385.097 2.183-2.74-.605-8.514C43.006 8.848 36.605 3.236 32.03 1.961z"/>
        <path id="Z" d="M.2 6.598c1.53 3.14 5.525 4.084 6.383 4.084.572 0 .763-1.098.572-3.295l.185-4.082L1.505.263C1.75 4.328 1.315 6.44.2 6.598z"/>
        <path id="ab" d="M12.152.375c.87 2.278 1.25 3.888 1.14 4.83-.586 5.058-1.547 9.503-3.834 9.503-3.176 0-6.23-3.543-7.03-6.963a16.433 16.433 0 0 1-.025-.111A1.758 1.758 0 0 1 .4 5.892c0-.972.786-1.76 1.756-1.76.61 0 1.146.312 1.461.784.178.081 6.286.324 8.535-4.541z"/>
        <path id="ad" d="M3.523 21.274c-.473-1.968-1.532-3.945-3.178-5.93l5.65-8.969.047.056-.047-.288c.269-1.648.936-2.833 2.002-3.556 1.599-1.085 2.15-2.475 2.727-1.78.385.464.182 1.265-.607 2.403 2.607.016 4.194-.554 4.762-1.708.53-1.075 1.635-1.309 1.67-.695.02.374-1.126 2.255-1.243 2.652-.31 1.048-.082 1.55-2.164 2.684-1.388.756-2.737 2.022-4.047 3.8a1.37 1.37 0 0 1-.101.024c-3.65 7.338-4.275 9.394-5.47 11.307z"/>
        <path id="ae" d="M8.033 12.74C4.113 8.642 1.456 5.744.062 4.047 2.028 2.29 3.772.983 5.294.128c1.163 1.782 3.482 4.9 6.958 9.353l.018-.007 1.422.213-.082.826c-.058.428.1.986.619.986.518 0 2.814-.01 3.349.192.356.136 1.131.598 2.325 1.387-.11.46-1.192.389-1.79-.151-.334-.302-1.236-.471-1.202-.414.243.41 1.53 1.754 1.8 2.05.27.297-1.318.209-.907.868.617.99-1.248.512-1.033 1.153.296.881-1.126-.172-1.91-.794-.786-.622-1.672.98-3.561.11-.364-.168-1.453-1.221-3.267-3.16z"/>
        <path id="af" d="M11.402.37c-.592 2.403-2.68 3.695-6.265 3.878C1.553 4.43.025 5.723.554 8.125H18.53c1.976 0 2.724-.72 2.246-2.159L19.294.37h-7.892z"/>
        <path id="ah" d="M5.152.37c-.799 1.44-1.959 2.732-3.48 3.878C-.609 5.966.258 8.125 1.508 8.125h12.823c1.976 0 2.724-.72 2.245-2.159L13.045.37H5.152z"/>
        <path id="aj" d="M1.541.188c-3.02 20.889 1.414 29.524 0 47.91-.326 4.237 0 20.346.405 28.448.087 1.751-1.088 3.932.837 4.345 1.925.413 7.621.247 8.872.247 1.251 0 .577-2.167.577-3.858 0-12.771 1.94-13.564 1.525-20.27-.526-8.484.779-20.253 3.915-35.308 3.13 7.799 5.722 15.35 7.775 22.652 1.71 6.083-3.708 13.193-5.506 25.096-.253 1.678-3.842 10.887-1.915 11.18 1.927.294 6.853.294 8.18.248 1.327-.047 2.71-4.518 4.334-9.713 1.623-5.195 9.622-19.853 9.622-26.811 0-4.639-3.768-19.36-11.306-44.166H1.541z"/>
        <linearGradient id="am" x1="67.813%" x2="6.662%" y1="0%" y2="100%">
            <stop offset="0%" stop-color="#FFB782"/>
            <stop offset="100%" stop-color="#EB4878"/>
        </linearGradient>
        <path id="al" d="M26.768 1.188c-5.743-.55-11.836-1.35-19.928 0C1.615 2.059.723 3.76.47 6.406-.22 13.63 1.727 20.294 6.31 26.397c-.01 11.467-.01 17.36 0 17.681.044 1.456-1.099 3.858 3.014 4.328 4.112.469 14.484 1.16 20.211-.247 5.728-1.407 7.099-.827 5.285-4.861-1.209-2.69-1.928-7.106-2.156-13.25 5.094-.211 7.873-1.815 8.338-4.812.56-3.613-1.5-10.283-6.182-20.01-1.538-2.325-4.221-3.672-8.05-4.038z"/>
        <linearGradient id="ao" x1="67.813%" x2="14.01%" y1="0%" y2="79%">
            <stop offset="0%" stop-color="#FFC499"/>
            <stop offset="100%" stop-color="#F3787C"/>
        </linearGradient>
        <linearGradient id="aq" x1="9.105%" x2="87.601%" y1="110.865%" y2="23.826%">
            <stop offset="0%" stop-color="#843E3E"/>
            <stop offset="100%" stop-color="#7B4838"/>
        </linearGradient>
        <path id="ap" d="M.223 6.612c3.324 2.714 5.315 4.07 5.973 4.07.659 0 1.23-1.356 1.715-4.07l-.548-3.283L1.528.297.223 6.612z"/>
        <linearGradient id="at" x1="9.105%" x2="87.601%" y1="110.865%" y2="23.826%">
            <stop offset="0%" stop-color="#843E3E"/>
            <stop offset="100%" stop-color="#C08775"/>
        </linearGradient>
        <path id="as" d="M5.657.374c2.624.977 6.318 1.57 7.987.488-.318 8.254-1.653 12.38-3.77 12.38-3.176 0-6.646-1.623-7.446-5.032a16.34 16.34 0 0 1-.025-.11 1.755 1.755 0 1 1 1.214-2.71c.178.08-.585-5.994 2.04-5.016z"/>
        <linearGradient id="aw" x1="9.105%" x2="87.601%" y1="110.865%" y2="23.826%">
            <stop offset="0%" stop-color="#843E3E"/>
            <stop offset="100%" stop-color="#FDAA8F"/>
        </linearGradient>
        <path id="av" d="M2.254 8.39c-.115-1.208-.275-1.99-.48-2.344C.806 4.376-.49 3.349.744 3.482c2.288.245 1.659 1.768 4.263 1.452 2.605-.317 2.948-1.507 4.766-3.93 1.818-2.425.231 2.59-.355 3.723C8.83 5.86 8.486 7.748 7.592 8.39c-.596.427-1.114 1.543-1.552 3.346-1.82.989-3.344.607-4.571-1.144l.785-2.202z"/>
        <linearGradient id="az" x1="9.105%" x2="170.128%" y1="110.865%" y2="60.697%">
            <stop offset="0%" stop-color="#843E3E"/>
            <stop offset="100%" stop-color="#C08775"/>
        </linearGradient>
        <path id="ay" d="M4.634 23.774C5.28 18.374 3.738 9.25.003.325L14.912 1.76c-.39 8.171-.584 13.699-.584 16.583 0 2.851-.748 13.373-2.246 31.564.417 2.162 1.57 3.78 3.46 4.854 1.72.977 4.029 1.837 6.69 2.861 1.732.667 1.301 2.03-.687 2.03H9.898c-1.175 0-2.213-1.33-3.113-3.991l-.317 4.174c-1.961 0-3.58.277-3.104-1.168l1.27-8.76c1.065-6.867-1.888-10.39 0-26.132z"/>
        <linearGradient id="aA" x1="100%" x2="8.356%" y1="0%" y2="97.229%">
            <stop offset="0%" stop-color="#FF8299"/>
            <stop offset="100%" stop-color="#CC2B32"/>
        </linearGradient>
        <path id="aC" d="M14.145 56.727c2.264 1.724.696 3.107-.545 3.107H2.58c-1.962 0-2.665-.906-2.19-2.35 1.138-2.854 2.015-5.655 2.63-8.402C6.023 36.587 5.367 33.484 6.899 26.49c.69-3.156 1.836-5.3 3.744-10.634L8.192.326l11.725 2.46v13.07c0 2.879-3.415 14.357-10.247 34.435.412 2.64 3.03 5.334 4.475 6.436z"/>
        <path id="aE" d="M1.171 5.885c-2.758 9.319 1.193 31.783 1.193 34.992 0 3.21 25.412 3.043 28.576 0-.656-20.543-1.487-32.286-2.493-35.23-1.508-4.414-24.518-9.08-27.276.238z"/>
        <linearGradient id="aH" x1="20.394%" x2="94.104%" y1="128.09%" y2="28.726%">
            <stop offset="0%" stop-color="#6F4DE2"/>
            <stop offset="100%" stop-color="#FF7C7C"/>
        </linearGradient>
        <path id="aG" d="M56.957 9.408c2.046.498 3.183 1.412 3.411 2.743-3.749 10.434-5.897 15.168-9.4 15.168-2.37 0-6.556-2.89-11.173-7.792-.632 3.135-1.246 6.256-1.564 8.858-.783 6.404 1.032 9.38 2.867 17.085.043.178.03.363.042.549-1.794 0-11.777 3.08-28.172 0 3.166-10.646 4.05-10.16 4.032-14.2-.012-2.742-.57-8.023-1.675-15.841-4.428 3.948-6.74 5.903-7.862 6.92 4.207 7.412 6.476 11.286 6.81 11.623-1.717 1.911-3.15 3.066-4.297 3.464-6.048-6.324-8.432-10.198-8.76-10.666-1.376-1.96-1.725-6.01.328-9.175C3.598 14.98 9.23 8.592 12.968 5.514c1.669-1.394 3.197-2.55 5.003-3.345 1.807-.795 3.54-1.118 5.231-1.287 8.11-.811 1.294-.834 8.104 1.08 4.53 1.273 10.865 6.863 19.006 16.772l6.645-9.326z"/>
        <linearGradient id="aK" x1="150.163%" x2="25.08%" y1="61.723%" y2="26.376%">
            <stop offset="0%" stop-color="#C56868"/>
            <stop offset="100%" stop-color="#7B4838"/>
        </linearGradient>
        <path id="aJ" d="M4.313 6.634C3.133 7.11 1.878 7.272 0 8.05c1.696 2.675 12.21 8.268 13.007 8.268.442 0 3.68-6.645 2.455-7.56-.632-.472-1.8-.928-3.503-1.368l.183-4.084L6.351.264c-.121 3.747-.8 5.87-2.038 6.37z"/>
        <path id="aM" d="M13.194 5.206c-.583 5.061-1.537 9.507-3.807 9.507-3.152 0-6.183-3.544-6.977-6.965a16.55 16.55 0 0 1-.025-.111A1.752 1.752 0 0 1 .397 5.894c0-.972.78-1.76 1.743-1.76.605 0 1.138.311 1.45.784C3.681 4.96 3.59 0 9.23.375c4.363.29 4.043 4.15 3.965 4.831z"/>
        <path id="aO" d="M.607 6.377l.047.057c-.016-.094-.032-.19-.047-.289.267-1.648.93-2.834 1.988-3.557C4.182 1.503 4.729.112 5.3.808c.382.463.181 1.264-.602 2.403 2.587.016 4.162-.554 4.726-1.708C9.95.427 11.048.193 11.083.808c.02.374-1.118 2.255-1.234 2.652-.307 1.048-.08 1.552-2.148 2.685-1.378.756-4.426 3.792-4.46 3.799-1.724.225-2.665-.49-2.823-2.147.01-.259.074-.732.19-1.42z"/>
        <path id="aP" d="M0 3.291C2.38 1.798 3.438.286 3.444.284L5.82.863l-.082.826c-.057.429.1.986.615.986.514 0 2.792-.01 3.323.193.354.135 1.124.598 2.308 1.387-.11.46-1.183.389-1.777-.151-.331-.302-1.226-.471-1.192-.414.241.41 1.518 1.755 1.786 2.051.268.297-1.308.208-.9.868.612.99-1.238.512-1.025 1.153.294.882-1.118-.172-1.897-.794-.779-.622-1.659.98-3.534.11C3.084 6.91 1.935 5.648 0 3.29z"/>
    </defs>
    <g fill="none" fill-rule="evenodd">
        <g transform="translate(32.709 145.689)">
            <mask id="b" fill="#fff">
                <use xlink:href="#a"/>
            </mask>
            <use fill="#D8E8F8" fill-rule="nonzero" transform="matrix(-1 0 0 1 21.317 0)" xlink:href="#a"/>
            <path fill="#6F54C0" fill-rule="nonzero" d="M.451 5.378h20.416v2.849H.451z" mask="url(#b)" opacity=".2"/>
        </g>
        <g transform="translate(7.811 145.689)">
            <mask id="d" fill="#fff">
                <use xlink:href="#c"/>
            </mask>
            <use fill="#D8E8F8" fill-rule="nonzero" transform="matrix(-1 0 0 1 16.929 0)" xlink:href="#c"/>
            <path fill="#6F54C0" fill-rule="nonzero" d="M.252 5.378h16.424v2.849H.252z" mask="url(#d)" opacity=".2"/>
        </g>
        <g transform="translate(9.154 65.511)">
            <mask id="g" fill="#fff">
                <use xlink:href="#e"/>
            </mask>
            <use fill="url(#f)" fill-rule="nonzero" xlink:href="#e"/>
            <path fill="#151731" fill-rule="nonzero" d="M28.968.188c-.249 4.52-3.82 6.78-10.71 6.78-10.338 0-1.5 11.55-12.059 14.223-10.56 2.671-4.426 15.671-10.846 15.671-4.28 0-2.436-11.976 5.531-35.927L28.968.188z" mask="url(#g)" opacity=".3"/>
            <path fill="#151731" fill-rule="nonzero" d="M18.635 23.794l4.972-11.834c1.02 3.098 1.02 6.527-.002 10.287-1.532 5.64 3.075 10.681-.003 14.627-3.078 3.946 3.074 14.296-3.259 20.288-4.222 3.995-5.156 3.666-2.801-.985l1.093-32.383z" mask="url(#g)" opacity=".3" transform="rotate(-8 20.482 35.946)"/>
            <path fill-rule="nonzero" stroke="#FFF" stroke-linecap="round" stroke-linejoin="round" d="M18.597 19.76c4.253 15.876 6.295 26.252 6.126 31.126-.253 7.312 1.457 24.923 1.457 30.309M2.879.496c-.585 13.538-.697 22.82-.337 27.847.54 7.541-.592 23.7-.592 26.777 0 3.078 1.084 22.2 0 25.547" mask="url(#g)" opacity=".4"/>
        </g>
        <g transform="translate(0 20.044)">
            <path fill="url(#h)" fill-rule="nonzero" d="M13.406.023l11.153 1.156a2.602 2.602 0 0 1 2.292 3.044 3.337 3.337 0 0 1-3.284 2.756H13.425a3.664 3.664 0 0 1-3.661-3.667A3.305 3.305 0 0 1 13.406.023z"/>
            <mask id="k" fill="#fff">
                <use xlink:href="#i"/>
            </mask>
            <use fill="url(#j)" fill-rule="nonzero" xlink:href="#i"/>
            <path fill="#87C2F9" fill-rule="nonzero" d="M14.436 49.66c.008-2.08.2-3.712.573-4.897.523-1.657 4.626-4.542 5.315-10.391.051-.43.447-1.339 1.344-1.339h9.042c1.121 0 1.416.762 1.475 1.132.544 3.41 1.63 6.24 3.26 8.486 1.806 2.491 1.507 5.238-.896 8.24l-20.113-1.23z" mask="url(#k)"/>
            <path fill="#373A5B" fill-rule="nonzero" d="M9.616 33.03c6.955.075 11.297.075 13.026 0 .574-.024.922-.451 1.33-.474l.833-.048c3.399-.207 5.507-.469 6.323-.786-4.606 1.628-7.714 2.442-9.323 2.442-2.414 0-2.342-1.755-4.987 1.887-2.644 3.643-4.744-1-7.202 5.886-1.638 4.59-1.638 1.622 0-8.907zM25.118 27.024L9.616 24.517 12.4 12.714c1.477 1.671 1.626 4.056.448 7.155-1.768 4.648 2.886.328 4.52 3.364 1.09 2.024 3.673 3.288 7.75 3.791z" mask="url(#k)" opacity=".3"/>
            <path fill="#2D4F83" fill-rule="nonzero" d="M52.893 9.244c.3 3.392 1.259 5.088 2.878 5.088 1.62 0 2.536-.507 2.75-1.522l1.967-4.871-4.583-1.366-3.012 1.036v1.635z" mask="url(#k)"/>
            <path fill="#373A5B" fill-rule="nonzero" d="M36.481 25.865c.011-5.408-.456-9.763-1.403-13.065 1.705 1.008 2.688 3.185 2.95 6.533.391 5.021 2.915.198 4.53 5.831 1.617 5.633 5.696 1.942 6.652 3.45.637 1.004-1.041 2.502-5.035 4.492l-7.694-7.24z" mask="url(#k)" opacity=".3"/>
            <path fill-rule="nonzero" stroke="#FFF" stroke-linecap="round" stroke-linejoin="round" d="M26.815 4.856c.678 1.842.858 4.821.54 8.938-.155 2.01-.135 3.414.06 4.21M19.98 4.94c.678 1.841.858 4.82.54 8.937-.155 2.01-.134 3.414.061 4.21" mask="url(#k)"/>
            <path fill="#2D4F83" fill-rule="nonzero" d="M25.918 27.468l-1.12-.163c-.096 3.07-.389 4.804-.877 5.203h1.65l.547-1.876.145-2.896-.345-.268z" mask="url(#k)"/>
        </g>
        <g transform="translate(11.228)">
            <ellipse cx="10.74" cy="10.121" fill="url(#l)" fill-rule="nonzero" rx="10.361" ry="9.778"/>
            <g transform="translate(5.858 15.644)">
                <mask id="o" fill="#fff">
                    <use xlink:href="#m"/>
                </mask>
                <use fill="url(#n)" fill-rule="nonzero" xlink:href="#m"/>
                <path fill="#DA433D" fill-rule="nonzero" d="M1.392.424c.706 4.39 2.562 6.76 5.568 7.11 3.007.35 4.394-.604 4.162-2.864L1.392.424z" mask="url(#o)" opacity=".2"/>
            </g>
            <g transform="translate(4.882 8.311)">
                <mask id="r" fill="#fff">
                    <use xlink:href="#p"/>
                </mask>
                <use fill="url(#q)" fill-rule="nonzero" xlink:href="#p"/>
                <path fill="#DA433D" fill-rule="nonzero" d="M13.67.489c-2.23 1.44-4.245 1.975-6.042 1.605-2.696-.554-2.113 3.528-4.355 2.46l.91-5.35L13.669.49z" mask="url(#r)" opacity=".2"/>
            </g>
        </g>
        <g>
            <g transform="translate(53.7 22)">
                <mask id="t" fill="#fff">
                    <use xlink:href="#s"/>
                </mask>
                <use fill="url(#q)" fill-rule="nonzero" xlink:href="#s"/>
                <path fill="#DA433D" fill-rule="nonzero" d="M.116 7.165c.92 2.58 2.489 3.663 4.704 3.252l-1.606 1.71-3.098-1.283V7.165zM5.147 3.6c-1.193.154-1.79.91-1.79 2.267 0 2.036.028 3.85 1.79 4.317-2.06-.167-2.984-1.46-2.771-3.876.212-2.417 1.136-3.32 2.771-2.707z" mask="url(#t)" opacity=".2"/>
            </g>
            <g fill-rule="nonzero">
                <path fill="url(#u)" d="M6.499.312L1.91 21.847l15.406-.336 4.919-21.2z" transform="translate(25.118 35.689)"/>
                <path fill="url(#q)" d="M.176 16.863c.488-2.088.646-3.716.474-4.883 1.571-1.353 2.8-2.029 3.686-2.029l-.35 1.651c2.183-.087 3.78-.637 4.794-1.651 1.52-1.52.768 1.88-.217 2.406-.985.527-.555 3.555-2.918 4.03-1.575.318-3.398.476-5.47.476z" transform="translate(25.118 35.689)"/>
            </g>
        </g>
        <g>
            <g transform="translate(236.73 145.665)">
                <mask id="x" fill="#fff">
                    <use xlink:href="#v"/>
                </mask>
                <use fill="url(#w)" fill-rule="nonzero" transform="matrix(-1 0 0 1 21.3 0)" xlink:href="#v"/>
                <path fill="#D8E8F8" fill-rule="nonzero" d="M21.52 5.394h-.057v2.941H0V5.394h13.719c.632-2.422 6.982-4.397 7.802 0z" mask="url(#x)"/>
            </g>
            <g transform="translate(206.974 145.665)">
                <mask id="z" fill="#fff">
                    <use xlink:href="#y"/>
                </mask>
                <use fill="url(#w)" fill-rule="nonzero" transform="matrix(-1 0 0 1 16.916 0)" xlink:href="#y"/>
                <path fill="#D8E8F8" fill-rule="nonzero" d="M9.512 2.272a8.02 8.02 0 0 1 6.352 3.122h1.21v2.941H0V5.394h3.16a8.02 8.02 0 0 1 6.352-3.122z" mask="url(#z)"/>
            </g>
            <g transform="translate(209.9 65.252)">
                <mask id="B" fill="#fff">
                    <use xlink:href="#A"/>
                </mask>
                <use fill="url(#f)" fill-rule="nonzero" xlink:href="#A"/>
                <path fill="#151731" fill-rule="nonzero" d="M41.14 8.743c-.249 4.533-3.816 6.8-10.702 6.8-10.329 0-1.497 11.585-12.049 14.264-10.551 2.68-4.423 15.717-10.837 15.717-4.277 0-2.48-15.97 5.392-47.913l29.13.483-.934 10.649z" mask="url(#B)" opacity=".3"/>
                <path fill="#151731" fill-rule="nonzero" d="M26.173 22.126l4.965-11.868c1.02 3.107 1.02 6.546 0 10.317-1.53 5.657 3.074 10.714 0 14.67-3.074 3.957 3.074 14.34-3.252 20.348-4.218 4.006-5.151 3.676-2.8-.989l1.087-32.478z" mask="url(#B)" opacity=".3"/>
            </g>
            <g transform="translate(212.122 21.123)">
                <mask id="E" fill="#fff">
                    <use xlink:href="#C"/>
                </mask>
                <use fill="url(#D)" fill-rule="nonzero" xlink:href="#C"/>
                <path fill="#FFF" fill-rule="nonzero" d="M13.336 12.398h22.482l.487 2.312H12.303zM-3.231 20.103h54.703v2.452H-3.231zM-3.231 27.948h54.703V30.4H-3.231zM-3.231 35.794h54.703v2.452H-3.231zM-3.231 43.639h54.703v2.451H-3.231zM-3.231 51.484h54.703v2.451H-3.231z" mask="url(#E)" opacity=".5"/>
                <path fill="#373A5B" fill-rule="nonzero" d="M9.764 19.237l3.19-5.807c-.856 4.927-.327 8.652 1.588 11.175 2.874 3.785 1.077 6.806-1.207 10.865-2.283 4.06-.73 7.147-3.931 10.001L8.927 25.35l.837-6.112zM37.222 23.932c-.325-5.06-.886-9.413-1.684-13.056 1.704 1.01 2.686 3.195 2.947 6.552.392 5.036 2.913.2 4.528 5.849 1.615 5.649 5.691 1.947 6.646 3.459.637 1.007-1.04 2.51-5.031 4.506l-7.406-7.31zM12.476.681c1.88 3.012 5.77 4.233 11.67 3.662.941-.09-.389-1.97-3.99-5.636L12.476.681z" mask="url(#E)" opacity=".3"/>
                <path fill="#373A5B" fill-rule="nonzero" d="M5.113 43.282c.84-2.03 2.49-3.53 4.949-4.499l-.304 3.499-3.627 1.545-1.018-.545zM-9.304 8.676c1.216.854 2.444.71 3.683-.43 1.239-1.141 1.951-2.312 2.137-3.512h-3.847L-9.786 6.33l.482 2.346z" mask="url(#E)" opacity=".3"/>
            </g>
            <g transform="translate(248.707 22.594)">
                <mask id="G" fill="#fff">
                    <use xlink:href="#F"/>
                </mask>
                <use fill="url(#q)" fill-rule="nonzero" xlink:href="#F"/>
                <path fill="#DA433D" fill-rule="nonzero" d="M5.757 10.927C4.07 16.217 2.2 19.294.15 20.156c-2.05.861-1.888-.677.488-4.615l5.12-4.614z" mask="url(#G)" opacity=".2"/>
            </g>
            <g transform="translate(197 20.142)">
                <mask id="I" fill="#fff">
                    <use xlink:href="#H"/>
                </mask>
                <use fill="url(#q)" fill-rule="nonzero" xlink:href="#H"/>
                <path fill="#DA433D" fill-rule="nonzero" d="M24.685 21.584l-1.07 1.966-1.843 1.363c-1.043-5.15-3.019-8.65-5.926-10.502-2.907-1.852-1.11-1.369 5.39 1.45l3.62 4.51-.17 1.213z" mask="url(#I)" opacity=".2"/>
            </g>
            <g>
                <path fill="url(#J)" fill-rule="nonzero" d="M4.155 1.393c2.735-1.121 8.667-2.462 9.991.691 1.325 3.153 2.886 7.08.466 8.7-2.42 1.622-3.967 4.103-6.563 3.385-1.731-.479-3.264.01-4.599 1.464-.944-.12-1.532-.44-1.765-.957C-.678 9.416.418 2.926 4.155 1.393z" transform="translate(228.438 2)"/>
                <g transform="translate(229.9 14.748)">
                    <mask id="L" fill="#fff">
                        <use xlink:href="#K"/>
                    </mask>
                    <use fill="url(#n)" fill-rule="nonzero" xlink:href="#K"/>
                    <path fill="#DA433D" fill-rule="nonzero" d="M1.391.425c.705 4.403 2.56 6.78 5.564 7.132 3.004.35 4.39-.607 4.158-2.873L1.391.424z" mask="url(#L)" opacity=".2"/>
                </g>
                <g transform="translate(228.925 7.394)">
                    <mask id="N" fill="#fff">
                        <use xlink:href="#M"/>
                    </mask>
                    <use fill="url(#q)" fill-rule="nonzero" xlink:href="#M"/>
                    <path fill="#DA433D" fill-rule="nonzero" d="M12.114-.587c-.006 3.235-1.16 5.162-3.464 5.784-2.304.62-3.965.527-4.983-.283.077-.14-.022-.427-.296-.864-.274-.438 2.64-1.983 8.743-4.637z" mask="url(#N)" opacity=".2"/>
                </g>
            </g>
        </g>
        <g>
            <g transform="matrix(-1 0 0 1 322.17 145.666)">
                <mask id="Q" fill="#fff">
                    <use xlink:href="#O"/>
                </mask>
                <use fill="url(#P)" fill-rule="nonzero" transform="matrix(-1 0 0 1 21.984 0)" xlink:href="#O"/>
                <path fill="url(#q)" fill-rule="nonzero" d="M-.756 4.743c10.585 1.223 16.182.132 16.792-3.272C16.646-1.934 11.301-2.75 0-.98l-.756 5.722z" mask="url(#Q)"/>
            </g>
            <g transform="matrix(-1 0 0 1 346.149 145.666)">
                <mask id="S" fill="#fff">
                    <use xlink:href="#R"/>
                </mask>
                <use fill="url(#P)" fill-rule="nonzero" transform="matrix(-1 0 0 1 18.558 0)" xlink:href="#R"/>
                <path fill="url(#q)" fill-rule="nonzero" d="M1.558 3.17c6.04 1.651 10.692 1.467 13.954-.553C18.775.597 14.42-.74 2.447-1.39l-.889 4.56z" mask="url(#S)"/>
            </g>
            <g transform="matrix(-1 0 0 1 343.213 63.302)">
                <mask id="U" fill="#fff">
                    <use xlink:href="#T"/>
                </mask>
                <use fill="url(#P)" fill-rule="nonzero" xlink:href="#T"/>
                <path fill="#151731" fill-rule="nonzero" d="M37.125 4.665c-2.052 8.35-6.533 12.526-13.44 12.526-10.363 0-1.845 5.444-12.43 8.123C.67 27.994 7.16 47.169.725 47.169c-4.29 0-3.066-16.197 3.673-48.592l32.727 6.088z" mask="url(#U)" opacity=".3"/>
                <path fill="#151731" fill-rule="nonzero" d="M19.405 24.084l3.872-12.318c1.763 3.408 2.132 6.997 1.11 10.768-1.535 5.656 3.084 10.712 0 14.668-3.085 3.956 3.084 14.337-3.263 20.345-2.66 2.518-.499-2.406-.267-11.875.092-3.726-.392-10.922-1.452-21.588z" mask="url(#U)" opacity=".3"/>
            </g>
            <path fill="url(#V)" fill-rule="nonzero" d="M29.095.49c9.12 2.184 7.085 11.272 4.689 21.081-2.397 9.81-8.226 28.306-20.487 26.82-12.26-1.487-15.679-9.172-11.24-17.905 4.44-8.734 13.284-8.915 14.324-16.237C17.421 6.927 19.974-1.694 29.095.49z" transform="matrix(-1 0 0 1 351.043 3)"/>
            <g transform="matrix(-1 0 0 1 353 23.1)">
                <mask id="Y" fill="#fff">
                    <use xlink:href="#W"/>
                </mask>
                <use fill="url(#X)" fill-rule="nonzero" xlink:href="#W"/>
                <path fill="#373A5B" fill-rule="nonzero" d="M15.836 38.387l-1.65-15.192.839-6.11 6.36-6.35c-2.966 5.289-3.488 9.194-1.567 11.717 2.883 3.785 1.08 6.805-1.21 10.864-1.106 1.958-.947 3.422-.846 4.733l2.753-.484 1.406.455 1.302.584-1.944 1.035.878.562c-.509 1.745-1.333 2.711-2.47 2.9-1.707.282-2.252 4.314-4.394 4.314-1.43 0-2.408-.71-2.938-2.132l2.25-6.68 1.231-.216z" mask="url(#Y)" opacity=".3"/>
                <ellipse cx="12.723" cy="9.315" fill="#FFF" fill-rule="nonzero" mask="url(#Y)" opacity=".3" rx="1.468" ry="1.471"/>
                <ellipse cx="22.511" cy="9.315" fill="#FFF" fill-rule="nonzero" mask="url(#Y)" opacity=".3" rx="1.468" ry="1.471"/>
                <ellipse cx="32.298" cy="9.315" fill="#FFF" fill-rule="nonzero" mask="url(#Y)" opacity=".3" rx="1.468" ry="1.471"/>
                <ellipse cx="42.085" cy="9.315" fill="#FFF" fill-rule="nonzero" mask="url(#Y)" opacity=".3" rx="1.468" ry="1.471"/>
                <ellipse cx="17.617" cy="4.412" fill="#FFF" fill-rule="nonzero" mask="url(#Y)" opacity=".3" rx="1.468" ry="1.471"/>
                <ellipse cx="27.404" cy="4.412" fill="#FFF" fill-rule="nonzero" mask="url(#Y)" opacity=".3" rx="1.468" ry="1.471"/>
                <ellipse cx="37.191" cy="4.412" fill="#FFF" fill-rule="nonzero" mask="url(#Y)" opacity=".3" rx="1.468" ry="1.471"/>
                <ellipse cx="46.979" cy="4.412" fill="#FFF" fill-rule="nonzero" mask="url(#Y)" opacity=".3" rx="1.468" ry="1.471"/>
                <ellipse cx="51.872" cy="9.315" fill="#FFF" fill-rule="nonzero" mask="url(#Y)" opacity=".3" rx="1.468" ry="1.471"/>
                <ellipse cx="7.83" cy="14.218" fill="#FFF" fill-rule="nonzero" mask="url(#Y)" opacity=".3" rx="1.468" ry="1.471"/>
                <ellipse cx="17.617" cy="14.218" fill="#FFF" fill-rule="nonzero" mask="url(#Y)" opacity=".3" rx="1.468" ry="1.471"/>
                <ellipse cx="27.404" cy="14.218" fill="#FFF" fill-rule="nonzero" mask="url(#Y)" opacity=".3" rx="1.468" ry="1.471"/>
                <ellipse cx="37.191" cy="14.218" fill="#FFF" fill-rule="nonzero" mask="url(#Y)" opacity=".3" rx="1.468" ry="1.471"/>
                <ellipse cx="46.979" cy="14.218" fill="#FFF" fill-rule="nonzero" mask="url(#Y)" opacity=".3" rx="1.468" ry="1.471"/>
                <ellipse cx="2.936" cy="19.12" fill="#FFF" fill-rule="nonzero" mask="url(#Y)" opacity=".3" rx="1.468" ry="1.471"/>
                <ellipse cx="12.723" cy="19.12" fill="#FFF" fill-rule="nonzero" mask="url(#Y)" opacity=".3" rx="1.468" ry="1.471"/>
                <ellipse cx="22.511" cy="19.12" fill="#FFF" fill-rule="nonzero" mask="url(#Y)" opacity=".3" rx="1.468" ry="1.471"/>
                <ellipse cx="32.298" cy="19.12" fill="#FFF" fill-rule="nonzero" mask="url(#Y)" opacity=".3" rx="1.468" ry="1.471"/>
                <ellipse cx="42.085" cy="19.12" fill="#FFF" fill-rule="nonzero" mask="url(#Y)" opacity=".3" rx="1.468" ry="1.471"/>
                <ellipse cx="7.83" cy="24.023" fill="#FFF" fill-rule="nonzero" mask="url(#Y)" opacity=".3" rx="1.468" ry="1.471"/>
                <ellipse cx="17.617" cy="24.023" fill="#FFF" fill-rule="nonzero" mask="url(#Y)" opacity=".3" rx="1.468" ry="1.471"/>
                <ellipse cx="27.404" cy="24.023" fill="#FFF" fill-rule="nonzero" mask="url(#Y)" opacity=".3" rx="1.468" ry="1.471"/>
                <ellipse cx="37.191" cy="24.023" fill="#FFF" fill-rule="nonzero" mask="url(#Y)" opacity=".3" rx="1.468" ry="1.471"/>
                <ellipse cx="46.979" cy="24.023" fill="#FFF" fill-rule="nonzero" mask="url(#Y)" opacity=".3" rx="1.468" ry="1.471"/>
                <ellipse cx="2.936" cy="28.925" fill="#FFF" fill-rule="nonzero" mask="url(#Y)" opacity=".3" rx="1.468" ry="1.471"/>
                <ellipse cx="12.723" cy="28.925" fill="#FFF" fill-rule="nonzero" mask="url(#Y)" opacity=".3" rx="1.468" ry="1.471"/>
                <ellipse cx="22.511" cy="28.925" fill="#FFF" fill-rule="nonzero" mask="url(#Y)" opacity=".3" rx="1.468" ry="1.471"/>
                <ellipse cx="32.298" cy="28.925" fill="#FFF" fill-rule="nonzero" mask="url(#Y)" opacity=".3" rx="1.468" ry="1.471"/>
                <ellipse cx="42.085" cy="28.925" fill="#FFF" fill-rule="nonzero" mask="url(#Y)" opacity=".3" rx="1.468" ry="1.471"/>
                <ellipse cx="7.83" cy="33.828" fill="#FFF" fill-rule="nonzero" mask="url(#Y)" opacity=".3" rx="1.468" ry="1.471"/>
                <ellipse cx="17.617" cy="33.828" fill="#FFF" fill-rule="nonzero" mask="url(#Y)" opacity=".3" rx="1.468" ry="1.471"/>
                <ellipse cx="27.404" cy="33.828" fill="#FFF" fill-rule="nonzero" mask="url(#Y)" opacity=".3" rx="1.468" ry="1.471"/>
                <ellipse cx="37.191" cy="33.828" fill="#FFF" fill-rule="nonzero" mask="url(#Y)" opacity=".3" rx="1.468" ry="1.471"/>
                <ellipse cx="46.979" cy="33.828" fill="#FFF" fill-rule="nonzero" mask="url(#Y)" opacity=".3" rx="1.468" ry="1.471"/>
                <ellipse cx="2.936" cy="38.731" fill="#FFF" fill-rule="nonzero" mask="url(#Y)" opacity=".3" rx="1.468" ry="1.471"/>
                <ellipse cx="12.723" cy="38.731" fill="#FFF" fill-rule="nonzero" mask="url(#Y)" opacity=".3" rx="1.468" ry="1.471"/>
                <ellipse cx="22.511" cy="38.731" fill="#FFF" fill-rule="nonzero" mask="url(#Y)" opacity=".3" rx="1.468" ry="1.471"/>
                <ellipse cx="32.298" cy="38.731" fill="#FFF" fill-rule="nonzero" mask="url(#Y)" opacity=".3" rx="1.468" ry="1.471"/>
                <ellipse cx="42.085" cy="38.731" fill="#FFF" fill-rule="nonzero" mask="url(#Y)" opacity=".3" rx="1.468" ry="1.471"/>
                <ellipse cx="7.83" cy="43.633" fill="#FFF" fill-rule="nonzero" mask="url(#Y)" opacity=".3" rx="1.468" ry="1.471"/>
                <ellipse cx="17.617" cy="43.633" fill="#FFF" fill-rule="nonzero" mask="url(#Y)" opacity=".3" rx="1.468" ry="1.471"/>
                <ellipse cx="27.404" cy="43.633" fill="#FFF" fill-rule="nonzero" mask="url(#Y)" opacity=".3" rx="1.468" ry="1.471"/>
                <ellipse cx="37.191" cy="43.633" fill="#FFF" fill-rule="nonzero" mask="url(#Y)" opacity=".3" rx="1.468" ry="1.471"/>
                <ellipse cx="46.979" cy="43.633" fill="#FFF" fill-rule="nonzero" mask="url(#Y)" opacity=".3" rx="1.468" ry="1.471"/>
                <ellipse cx="2.936" cy="48.536" fill="#FFF" fill-rule="nonzero" mask="url(#Y)" opacity=".3" rx="1.468" ry="1.471"/>
                <ellipse cx="12.723" cy="48.536" fill="#FFF" fill-rule="nonzero" mask="url(#Y)" opacity=".3" rx="1.468" ry="1.471"/>
                <ellipse cx="22.511" cy="48.536" fill="#FFF" fill-rule="nonzero" mask="url(#Y)" opacity=".3" rx="1.468" ry="1.471"/>
                <ellipse cx="32.298" cy="48.536" fill="#FFF" fill-rule="nonzero" mask="url(#Y)" opacity=".3" rx="1.468" ry="1.471"/>
                <ellipse cx="42.085" cy="48.536" fill="#FFF" fill-rule="nonzero" mask="url(#Y)" opacity=".3" rx="1.468" ry="1.471"/>
                <path fill="#FFF" fill-rule="nonzero" d="M28.878 4.799c3.272 6.086 4.705 11.701 4.299 16.846-.406 5.144.253 16.886 1.975 35.225h4.424c-2.23-5.037-3.46-8.802-3.688-11.295-.957-10.467-1.554-19.114-1.225-23.93.446-6.538-1.044-12.3-4.47-17.285l-1.315.439z" mask="url(#Y)" opacity=".2"/>
                <path fill="#373A5B" fill-rule="nonzero" d="M41.17 20.683c1.147-6.276-.366-6.885-4.166-14.853 3.542 4.374 5.444 8.239 5.706 11.596.393 5.035 2.922.199 4.542 5.848 1.62 5.648 4.152 3.65 5.11 5.161.638 1.008-.525 1.942-3.49 2.803-3.301-2.942-5.869-6.46-7.702-10.555zM17.498 1.778c.001 2.702 2.447 4.052 7.338 4.052.524 0 2.157 2.548 2.363 2.264.324-.45 1.127-1.818 2.015-1.857 1.772-.077 4.008 1.492 4.348.696.13-.305-1.088-1.636-3.656-3.991-1.391-2.263-2.994-3.48-4.808-3.65-1.814-.17-4.347.658-7.6 2.486zM59.819 7.306c.39 2.736 1.384 4.104 2.983 4.104 1.6 0 2.721-.827 3.367-2.48l-5.177-3.1-1.173 1.476z" mask="url(#Y)" opacity=".3"/>
                <path fill="#FFD5D7" fill-rule="nonzero" d="M23.49.805l3.222 6.321a1 1 0 0 0 1.655.192l1.826-2.161 1.385.858a1 1 0 0 0 1.398-1.342L31.12 1.392 25.537-.475 23.329.805" mask="url(#Y)"/>
                <path fill="#FFD5D7" fill-rule="nonzero" d="M1.232 26.388c-.118.92 1.345 3.203 2.014 3.203.669 0 5.58-3.382 5.736-4.097.155-.716.287-2.44-.719-2.599-1.005-.159-6.913 2.571-7.031 3.493zM51.11 18.754c.38-1.12.76-1.681 1.14-1.681.57 0 4.254 3.981 3.545 7.051-.71 3.07-2.298 3.702-2.874 3.07-.9-1.03-1.503-3.844-1.811-8.44z"/>
            </g>
            <g transform="matrix(-1 0 0 1 329.51 17.218)">
                <mask id="aa" fill="#fff">
                    <use xlink:href="#Z"/>
                </mask>
                <use fill="url(#n)" fill-rule="nonzero" xlink:href="#Z"/>
                <path fill="#DA433D" fill-rule="nonzero" d="M1.482.263c.707 4.404 2.568 6.78 5.581 7.131 3.014.351 4.404-.606 4.172-2.872L1.482.263z" mask="url(#aa)" opacity=".2"/>
            </g>
            <g transform="matrix(-1 0 0 1 330.979 8.393)">
                <mask id="ac" fill="#fff">
                    <use xlink:href="#ab"/>
                </mask>
                <use fill="url(#q)" fill-rule="nonzero" xlink:href="#ab"/>
                <path fill="#DA433D" fill-rule="nonzero" d="M12.152-.587c-.005 3.234-1.164 5.162-3.475 5.783-2.31.621-3.977.527-4.998-.283.077-.139-.023-.427-.298-.864-.275-.437 2.65-1.982 8.771-4.636z" mask="url(#ac)" opacity=".2"/>
            </g>
            <g>
                <use fill="url(#q)" fill-rule="nonzero" transform="matrix(-1 0 0 1 300.638 25.062)" xlink:href="#ad"/>
                <use fill="url(#q)" fill-rule="nonzero" transform="matrix(-1 0 0 1 349.574 48.594)" xlink:href="#ae"/>
            </g>
        </g>
        <g>
            <g transform="translate(90.532 145.691)">
                <mask id="ag" fill="#fff">
                    <use xlink:href="#af"/>
                </mask>
                <use fill="url(#P)" fill-rule="nonzero" transform="matrix(-1 0 0 1 21.369 0)" xlink:href="#af"/>
                <path fill="#F3F4FF" fill-rule="nonzero" d="M.452 4.812h20.465v3.464H.452z" mask="url(#ag)" opacity=".2"/>
            </g>
            <g transform="translate(73.404 145.691)">
                <mask id="ai" fill="#fff">
                    <use xlink:href="#ah"/>
                </mask>
                <use fill="url(#P)" fill-rule="nonzero" transform="matrix(-1 0 0 1 16.97 0)" xlink:href="#ah"/>
                <path fill="#F3F4FF" fill-rule="nonzero" d="M.253 4.812h16.463v3.464H.253z" mask="url(#ai)" opacity=".2"/>
            </g>
            <g transform="translate(74.383 65.537)">
                <mask id="ak" fill="#fff">
                    <use xlink:href="#aj"/>
                </mask>
                <use fill="url(#V)" fill-rule="nonzero" xlink:href="#aj"/>
                <path fill="#151731" fill-rule="nonzero" d="M29.037.188c-.25 4.519-3.828 6.778-10.736 6.778-10.362 0-1.502 11.547-12.087 14.218-10.585 2.671-4.437 15.667-10.872 15.667C-8.948 36.851-7.1 24.88.886.935L29.037.188z" mask="url(#ak)" opacity=".3"/>
                <path fill="#151731" fill-rule="nonzero" d="M18.675 23.785l4.98-11.829c1.023 3.098 1.024 6.526.001 10.285-1.533 5.638 3.086 10.68.003 14.623-3.084 3.944 3.086 14.294-3.26 20.282-4.23 3.992-5.166 3.663-2.808-.986l1.084-32.375z" mask="url(#ak)" opacity=".3" transform="rotate(-8 20.535 35.934)"/>
            </g>
            <g transform="translate(69 21.061)">
                <mask id="an" fill="#fff">
                    <use xlink:href="#al"/>
                </mask>
                <use fill="url(#am)" fill-rule="nonzero" xlink:href="#al"/>
                <path fill="#FFF" fill-rule="nonzero" d="M19.21 3.874c3.004 9.265 4.266 18.668 3.788 28.21-.718 14.31.897 10.47.897 15.037s1.91 7.199 2.23 2.153c.318-5.045-1.143-4.38-1.143-9.268 0-4.887.118-17.844-1.087-24.865-.803-4.68-2.365-9.65-4.685-14.905v3.638z" mask="url(#an)" opacity=".12"/>
                <path fill="#FFCCB5" fill-rule="nonzero" d="M23.487 12.183h5.383v1.466h-5.383z" mask="url(#an)"/>
                <path fill="url(#l)" fill-rule="nonzero" d="M21.192 28.898l3.874.435c.125 2.116.63 4.708 1.513 7.776l-3.581 3.91-3.513-2.444c.925-4.767 1.494-7.993 1.707-9.677zM19.21 3.874c1.828.845 2.742 1.462 2.742 1.852 0 .389-.183 1.024-.549 1.905 1.812 6.736 2.889 11.39 3.23 13.963l-3.28.23c-.135-2.269-.617-6.842-1.444-13.719-1.301-.768-1.952-1.366-1.952-1.796 0-.43.418-1.24 1.253-2.435z" mask="url(#an)"/>
                <path fill="#923E5A" fill-rule="nonzero" d="M6.927.214c-.114 3.382 2.274 5.074 7.165 5.074.524 0 2.157 2.54 2.363 2.256.325-.448 1.127-1.812 2.015-1.85 1.772-.078 5.575.929 5.914.135.13-.304-1.61-1.445-5.222-3.421-1.391-2.256-2.994-3.47-4.808-3.639-1.814-.17-4.29.312-7.427 1.445z" mask="url(#an)" opacity=".3"/>
                <path fill="#FFCCB5" fill-rule="nonzero" d="M12.378-1.955l3.238 8.427a1 1 0 0 0 1.704.278l2.38-2.876L22.4 5.222a1 1 0 0 0 1.304-1.41l-3.192-5.314-6.087-1.728-2.208 1.275" mask="url(#an)"/>
                <path fill="#373A5B" fill-rule="nonzero" d="M.725 44.12c.843-2.024 2.498-3.519 4.965-4.484l-.305 3.488-3.638 1.54-1.022-.543z" mask="url(#an)" opacity=".3"/>
                <path fill="#923E5A" fill-rule="nonzero" d="M22.375 5.87c.45 16.942-.814 25.692-3.795 26.249-4.47.836-7.921-2.232-9.015 1.705-1.094 3.938 4.908 9.008 0 9.674-3.272.444-4.512 2.119-3.72 5.025l-1.188-21.88 9.351-1.407L22.375 5.87z" mask="url(#an)" opacity=".3"/>
                <path fill="#923E5A" fill-rule="nonzero" d="M33.721 30.035c-12.033-.894-20.366-2.091-24.997-3.592-1.152-.374-2.265.25-3.341-.182-1.272 1.31-1.599 2.568-.979 3.774 1.618 3.147 7.006 6.905 9.031 6.905 4.785 0 5.853-7.761 10.951-5.775 3.4 1.324 6.511.947 9.335-1.13zM15.148 22.249l16.763-1.233c-.24-3.353-.87-6.256-1.889-8.708 0 3.313-1.084 4.804-3.254 4.472-3.253-.497-1.29 4.558-4.784 3.679-2.33-.586-4.609.01-6.836 1.79zM16.842 5.87c-1.629 8.91-3.165 13.14-4.608 12.693-1.443-.448-2.37-3.244-2.778-8.389.778-.36 1.428.615 1.949 2.926.52 2.311 2.333-.098 5.437-7.23z" mask="url(#an)" opacity=".3"/>
                <path fill="#373A5B" fill-rule="nonzero" d="M50.032 8.26c.39 2.728 1.384 4.092 2.983 4.092 1.599 0 2.721-.824 3.367-2.472l-5.177-3.09-1.173 1.47z" mask="url(#an)" opacity=".3"/>
                <path fill="url(#ao)" fill-rule="nonzero" d="M6.168 26.256c2.132 2.837 4.945 4.256 8.44 4.256 3.495 0 6.142-8.29 7.94-24.872-1.756-1.174-3.415-1.588-4.977-1.243l-5.974 12.726c-2.035 4.069-3.845 7.113-5.43 9.133z" mask="url(#an)"/>
                <path fill="#FFF" fill-rule="nonzero" d="M17.528 4.577l-1.14 2.55c2.008 2.057 3.964 2.45 5.869 1.182l.288-2.612c-1.736-1.015-3.408-1.388-5.017-1.12z" mask="url(#an)" opacity=".2"/>
            </g>
            <path fill="url(#l)" fill-rule="nonzero" d="M13.646 5.775C13.434 2.955 12.182 1.192 9.89.49 6.453-.566 1.937.216.66 4.302c-.85 2.725-.098 5.99 2.26 9.798l10.725-8.325z" transform="translate(81.232 2.453)"/>
            <g transform="translate(82.21 15.16)">
                <mask id="ar" fill="#fff">
                    <use xlink:href="#ap"/>
                </mask>
                <use fill="url(#aq)" fill-rule="nonzero" xlink:href="#ap"/>
                <path fill="#50211F" fill-rule="nonzero" d="M1.396.423c.707 4.39 2.567 6.76 5.581 7.11 3.014.35 4.404-.605 4.172-2.864L1.396.423z" mask="url(#ar)" opacity=".2"/>
            </g>
            <g transform="translate(81.232 7.34)">
                <mask id="au" fill="#fff">
                    <use xlink:href="#as"/>
                </mask>
                <use fill="url(#at)" fill-rule="nonzero" xlink:href="#as"/>
                <path fill="url(#l)" fill-rule="nonzero" d="M10.167 7.934c-1.644.217-2.657.755-3.042 1.615-.385.86.63.492 3.042-1.102 1.693 1.315 2.54 1.595 2.54.84 0-.757-.847-1.208-2.54-1.353z" mask="url(#au)"/>
                <path fill="#50211F" fill-rule="nonzero" d="M13.702.977c-2.235 1.44-4.254 1.975-6.056 1.605C4.943 2.028 5.528 6.11 3.28 5.041l.913-5.347 9.51 1.283z" mask="url(#au)" opacity=".2"/>
            </g>
            <g transform="translate(85.149 15.196)">
                <mask id="ax" fill="#fff">
                    <use xlink:href="#av"/>
                </mask>
                <use fill="url(#aw)" fill-rule="nonzero" xlink:href="#av"/>
                <path fill="#50211F" fill-rule="nonzero" d="M1.503 10.442c1.473 1.237 3.105 1.48 4.897.727v1.202l-3.36.284-1.537-1.235v-.978z" mask="url(#ax)" opacity=".2"/>
            </g>
        </g>
        <g>
            <g transform="matrix(-1 0 0 1 162.314 93.675)">
                <mask id="aB" fill="#fff">
                    <use xlink:href="#ay"/>
                </mask>
                <use fill="url(#az)" fill-rule="nonzero" xlink:href="#ay"/>
                <path fill="url(#aA)" fill-rule="nonzero" d="M2.913 50.434c7.595 7.502 11.967 8.286 13.119 2.352 1.15-5.934 4.473-3.646 9.965 6.866l-26.118.673 3.034-9.89z" mask="url(#aB)"/>
                <path fill="#50211F" fill-rule="nonzero" d="M14.854 8.106c-4.734 2.476-8.39 3.714-10.968 3.714-2.578 0-2.093-1.873 1.457-5.62l9.511 1.906z" mask="url(#aB)" opacity=".2"/>
            </g>
            <g transform="matrix(-1 0 0 1 183.686 93.675)">
                <mask id="aD" fill="#fff">
                    <use xlink:href="#aC"/>
                </mask>
                <use fill="url(#az)" fill-rule="nonzero" xlink:href="#aC"/>
                <path fill="#50211F" fill-rule="nonzero" d="M21.371 9.872c.375 1.191.222 1.84-.46 1.948-6.003.949-10.516 0-12.719 0-2.578 0-2.88-1.873-.906-5.62L21.37 9.871z" mask="url(#aD)" opacity=".2"/>
                <path fill="url(#aA)" fill-rule="nonzero" d="M.774 53.28c4.01 4 8.539 3.895 13.583-.312l3.681 6.866H-1.39L.774 53.28z" mask="url(#aD)"/>
            </g>
            <g transform="matrix(-1 0 0 1 177.857 60.325)">
                <mask id="aF" fill="#fff">
                    <use xlink:href="#aE"/>
                </mask>
                <use fill="url(#P)" fill-rule="nonzero" xlink:href="#aE"/>
                <path fill="#151731" fill-rule="nonzero" d="M29.037 2.836c-.247 4.535-3.8 6.802-10.656 6.802-10.284 0-.792 3.47-11.298 6.15S5.999 27.508-.388 27.508c-4.258 0-3.764-7.974 1.484-23.921l27.941-.75z" mask="url(#aF)" opacity=".3"/>
            </g>
            <g transform="matrix(-1 0 0 1 190 20.599)">
                <mask id="aI" fill="#fff">
                    <use xlink:href="#aG"/>
                </mask>
                <use fill="url(#aH)" fill-rule="nonzero" xlink:href="#aG"/>
                <ellipse cx="31.329" cy="13.978" fill="#FFF" fill-rule="nonzero" mask="url(#aI)" rx="1" ry="1"/>
                <ellipse cx="32.3" cy="18.882" fill="#FFF" fill-rule="nonzero" mask="url(#aI)" rx="1" ry="1"/>
                <path fill="#373A5B" fill-rule="nonzero" d="M14.147 17.133l6.312-6.352c-2.943 5.29-3.461 9.197-1.554 11.721 2.861 3.786 1.072 6.808-1.202 10.868-2.274 4.06.845 5.995-2.343 8.85l-2.046-18.974.833-6.113zM39.567 21.031c1.14-6.277-.363-6.887-4.135-14.857 3.517 4.375 5.404 8.241 5.664 11.6.39 5.037 2.9.198 4.508 5.85 1.608 5.65 4.121 3.65 5.072 5.163.634 1.008-.52 1.942-3.464 2.804-3.277-2.944-5.825-6.463-7.645-10.56zM9.948 43.293c.837-2.032 2.48-3.532 4.928-4.5l-.303 3.5-3.61 1.545-1.015-.545zM58.887 7.309c.387 2.737 1.374 4.105 2.961 4.105 1.587 0 2.701-.827 3.342-2.48l-5.138-3.101-1.165 1.476z" mask="url(#aI)" opacity=".3"/>
                <path fill="#FFF" fill-rule="nonzero" d="M9.69 37.83a.242.242 0 0 1-.335-.082.247.247 0 0 1 .081-.337c.139-.085.276-.171.41-.257a.241.241 0 0 1 .335.077.247.247 0 0 1-.076.338c-.136.087-.275.174-.416.26zm1.234-.805a.241.241 0 0 1-.337-.064.247.247 0 0 1 .063-.34c.134-.093.266-.186.394-.279a.241.241 0 0 1 .339.057.247.247 0 0 1-.056.342c-.132.095-.266.19-.403.284zm1.19-.88a.241.241 0 0 1-.341-.04.247.247 0 0 1 .04-.345c.128-.101.252-.203.373-.304a.241.241 0 0 1 .342.031.247.247 0 0 1-.031.346c-.125.104-.252.208-.383.313zm1.125-.977a.241.241 0 0 1-.343-.01.247.247 0 0 1 .01-.346c.117-.113.23-.225.34-.338a.241.241 0 0 1 .343-.003c.096.094.097.25.003.346-.113.117-.23.234-.353.35zm1.017-1.095a.241.241 0 0 1-.342.034.247.247 0 0 1-.034-.345l.06-.074a.241.241 0 0 1 .34-.038c.106.085.122.24.038.345l-.062.078zM56.002 9.155a.245.245 0 0 1 .208-.277.243.243 0 0 1 .273.21c.022.162.049.318.079.468a.243.243 0 1 1-.476.098 8.046 8.046 0 0 1-.084-.5zm.365 1.484a.246.246 0 0 1 .138-.318.242.242 0 0 1 .315.14c.057.148.12.288.19.419a.246.246 0 0 1-.1.332.242.242 0 0 1-.329-.101 4.472 4.472 0 0 1-.214-.472zm.84 1.326a.247.247 0 0 1-.005-.347.241.241 0 0 1 .344-.005c.107.106.22.2.343.283.11.076.14.228.065.34a.241.241 0 0 1-.337.066 2.973 2.973 0 0 1-.41-.337zm1.42.785a.245.245 0 0 1 .118-.476c.141.035.29.062.446.08.133.014.23.135.215.27a.243.243 0 0 1-.269.217 3.87 3.87 0 0 1-.51-.091zm1.495.1a.244.244 0 0 1-.262-.225.245.245 0 0 1 .223-.264c.15-.013.305-.032.464-.057a.245.245 0 1 1 .075.485 6.817 6.817 0 0 1-.5.06zM17.032 2.54a.247.247 0 0 1 .032-.346.241.241 0 0 1 .342.032c.1.122.204.244.311.366a.247.247 0 0 1-.02.346c-.1.09-.254.08-.343-.02-.11-.126-.218-.253-.322-.379zm.997 1.102a.247.247 0 0 1 0-.347.241.241 0 0 1 .344.001c.112.113.226.226.342.34.097.093.1.248.008.346a.241.241 0 0 1-.343.008c-.12-.116-.237-.232-.351-.348zm1.078 1.019a.247.247 0 0 1-.023-.346.241.241 0 0 1 .343-.024c.12.106.24.211.365.316a.247.247 0 0 1 .03.345.241.241 0 0 1-.343.03c-.126-.106-.25-.214-.372-.321zm1.14.947a.247.247 0 0 1-.043-.344.241.241 0 0 1 .34-.043c.127.1.254.198.383.296a.247.247 0 0 1 .048.343.241.241 0 0 1-.34.049c-.131-.1-.26-.2-.388-.3zm1.186.887a.247.247 0 0 1-.058-.342.241.241 0 0 1 .338-.06c.13.094.263.186.397.278.11.077.139.23.063.341a.241.241 0 0 1-.337.064c-.136-.093-.27-.187-.403-.281zm1.21.822a.247.247 0 0 1-.072-.339.241.241 0 0 1 .335-.073c.135.088.271.175.408.261a.247.247 0 0 1 .077.338.241.241 0 0 1-.335.078 38.504 38.504 0 0 1-.413-.265zm1.25.78a.247.247 0 0 1-.084-.335.242.242 0 0 1 .332-.086l.417.246a.247.247 0 0 1 .089.336.242.242 0 0 1-.332.09 41.952 41.952 0 0 1-.421-.25zm1.277.736a.246.246 0 0 1-.096-.333.242.242 0 0 1 .33-.097c.14.078.282.155.424.232a.246.246 0 0 1 .1.332.242.242 0 0 1-.328.1 43.688 43.688 0 0 1-.43-.234zm1.302.692a.246.246 0 0 1-.107-.33c.06-.12.206-.169.326-.108.145.074.289.146.432.217.12.06.17.207.111.328a.242.242 0 0 1-.325.113 42.55 42.55 0 0 1-.437-.22zm1.307.638a.246.246 0 0 1-.119-.326.242.242 0 0 1 .322-.12c.149.07.295.137.44.202.122.055.177.2.123.323a.242.242 0 0 1-.321.125 36.892 36.892 0 0 1-.445-.204zm1.348.594a.246.246 0 0 1-.133-.32.242.242 0 0 1 .317-.134c.154.064.303.123.447.18.125.048.187.19.139.316a.242.242 0 0 1-.314.14 24.318 24.318 0 0 1-.456-.182zm1.393.515a.246.246 0 0 1-.161-.306.242.242 0 0 1 .303-.162c.181.056.331.095.444.117a.245.245 0 0 1-.09.482c-.133-.026-.3-.07-.496-.13zm1.54-.424a.241.241 0 0 1-.341.039.247.247 0 0 1-.04-.345c.086-.108.177-.236.271-.38a.241.241 0 0 1 .336-.07.247.247 0 0 1 .07.34 5.79 5.79 0 0 1-.296.416zm.8-1.283a.242.242 0 0 1-.329.1.246.246 0 0 1-.1-.33c.072-.139.145-.282.217-.43a.242.242 0 0 1 .325-.112c.12.06.17.207.111.328-.074.153-.15.301-.225.444zm.64-1.36a.242.242 0 0 1-.319.129.246.246 0 0 1-.128-.322c.063-.148.124-.297.183-.448a.242.242 0 0 1 .316-.137c.124.05.185.193.135.319-.06.154-.123.307-.187.458zm.524-1.378a.242.242 0 0 1-.308.153.246.246 0 0 1-.152-.312c.053-.154.102-.307.15-.46a.242.242 0 0 1 .303-.16c.128.04.2.177.16.307-.048.156-.1.314-.153.472zm.42-1.443a.243.243 0 1 1-.472-.115c.038-.16.072-.317.102-.47a.243.243 0 1 1 .477.096c-.031.16-.067.322-.107.489zm.25-1.491a.244.244 0 0 1-.262.225.245.245 0 0 1-.222-.264c.013-.166.019-.322.017-.468a.244.244 0 0 1 .24-.248.244.244 0 0 1 .246.242c.002.162-.005.333-.02.513zm-.161-1.576a.246.246 0 0 1-.133.32.242.242 0 0 1-.317-.135.953.953 0 0 0-.209-.328.247.247 0 0 1-.004-.347.241.241 0 0 1 .343-.005c.135.133.24.299.32.495zM12.68 45.363a.245.245 0 0 1 .077-.484l.478.076c.132.02.223.146.202.28a.243.243 0 0 1-.277.204l-.48-.076zm1.443.224a.245.245 0 0 1-.205-.279.243.243 0 0 1 .275-.206l.48.07c.133.02.225.144.206.278a.243.243 0 0 1-.275.208l-.481-.071zm1.446.206a.245.245 0 0 1-.208-.276.243.243 0 0 1 .273-.21l.48.064c.133.018.227.141.21.275a.243.243 0 0 1-.273.212l-.482-.065zm1.449.188a.245.245 0 0 1-.212-.273.243.243 0 0 1 .27-.214l.481.058a.245.245 0 0 1 .213.272.243.243 0 0 1-.27.215l-.482-.058zm1.452.168a.245.245 0 0 1-.215-.27.243.243 0 0 1 .267-.218l.482.05c.133.015.23.135.217.27a.243.243 0 0 1-.267.219l-.484-.051zm1.453.146a.245.245 0 0 1-.22-.267.244.244 0 0 1 .265-.222c.161.016.322.03.483.044.133.012.232.13.22.266a.244.244 0 0 1-.262.223 91.979 91.979 0 0 1-.486-.044zm1.457.124a.244.244 0 0 1-.223-.264.244.244 0 0 1 .26-.226l.483.036c.134.01.235.127.225.262a.244.244 0 0 1-.259.227 85.677 85.677 0 0 1-.486-.035zm1.46.099a.244.244 0 0 1-.228-.26.244.244 0 0 1 .256-.23l.484.027a.244.244 0 0 1 .23.258.244.244 0 0 1-.255.232 79.624 79.624 0 0 1-.487-.027zm1.458.072a.244.244 0 0 1-.233-.255.244.244 0 0 1 .252-.235l.484.018c.134.004.24.118.235.253a.244.244 0 0 1-.25.237 73.808 73.808 0 0 1-.488-.018zm1.462.044a.244.244 0 0 1-.238-.25.244.244 0 0 1 .248-.24l.484.007a.244.244 0 0 1 .24.249.244.244 0 0 1-.246.242 68.21 68.21 0 0 1-.488-.008zm1.463.013a.244.244 0 0 1-.243-.245c0-.135.108-.245.242-.246.162 0 .324 0 .484-.002a.244.244 0 0 1 .246.242.244.244 0 0 1-.24.248c-.163.002-.325.003-.489.003zm1.466-.02a.244.244 0 0 1-.25-.24.244.244 0 0 1 .237-.251c.162-.004.323-.01.484-.015a.244.244 0 0 1 .25.237.244.244 0 0 1-.234.253c-.161.006-.324.01-.487.015zm1.465-.058a.244.244 0 0 1-.255-.232.244.244 0 0 1 .23-.258 52.4 52.4 0 0 0 .482-.028.244.244 0 0 1 .258.23.244.244 0 0 1-.228.26c-.162.01-.324.02-.487.028zm1.463-.098a.244.244 0 0 1-.261-.224.245.245 0 0 1 .222-.265l.482-.041a.244.244 0 0 1 .264.222.245.245 0 0 1-.22.266c-.161.015-.324.03-.487.042zm1.45-.14a.243.243 0 0 1-.268-.216.245.245 0 0 1 .215-.271l.48-.057a.243.243 0 0 1 .27.214.245.245 0 0 1-.211.273c-.161.02-.323.039-.485.057zm1.454-.189a.243.243 0 0 1-.275-.207.245.245 0 0 1 .205-.278l.478-.073a.245.245 0 1 1 .076.484c-.16.026-.321.05-.484.074zm1.45-.241a.245.245 0 1 1-.088-.482c.158-.03.316-.06.473-.092a.245.245 0 0 1 .095.481l-.48.093zm1.44-.3a.245.245 0 0 1-.108-.478c.157-.036.313-.074.468-.112a.245.245 0 0 1 .115.476c-.157.04-.316.077-.476.114zm1.425-.363a.246.246 0 0 1-.13-.473c.156-.044.31-.088.464-.134a.246.246 0 0 1 .138.47c-.157.047-.314.092-.472.137zm1.41-.434a.242.242 0 0 1-.307-.155.246.246 0 0 1 .153-.31c.154-.052.305-.105.456-.158a.242.242 0 0 1 .31.15.246.246 0 0 1-.148.312 26.75 26.75 0 0 1-.464.16zm1.387-.51a.242.242 0 0 1-.316-.138.246.246 0 0 1 .136-.318l.278-.114a.242.242 0 0 1 .317.133.246.246 0 0 1-.132.32c-.094.04-.188.078-.283.116z" mask="url(#aI)" opacity=".5"/>
            </g>
            <g fill-rule="nonzero" transform="matrix(-1 0 0 1 172.514 0)">
                <ellipse cx="4.129" cy="4.443" fill="url(#l)" rx="4.129" ry="3.986"/>
                <ellipse cx="6.557" cy="6.438" fill="url(#am)" rx="4.129" ry="3.986"/>
                <ellipse cx="10.443" cy="10.054" fill="url(#l)" rx="8.5" ry="8.583"/>
            </g>
            <g transform="matrix(-1 0 0 1 172.029 14.713)">
                <mask id="aL" fill="#fff">
                    <use xlink:href="#aJ"/>
                </mask>
                <use fill="url(#aK)" fill-rule="nonzero" xlink:href="#aJ"/>
                <path fill="#50211F" fill-rule="nonzero" d="M6.328.264c.702 4.404 2.548 6.782 5.54 7.133 2.99.351 4.371-.607 4.14-2.874L6.328.263z" mask="url(#aL)" opacity=".2"/>
            </g>
            <g transform="matrix(-1 0 0 1 168.629 5.885)">
                <mask id="aN" fill="#fff">
                    <use xlink:href="#aM"/>
                </mask>
                <use fill="url(#at)" fill-rule="nonzero" xlink:href="#aM"/>
                <path fill="#50211F" fill-rule="nonzero" d="M3.645 4.87C5.205 2.4 7.273 1.243 9.847 1.4c2.574.158 3.738 1.454 3.49 3.888L12.97.375 8.126-1.288 4.172.827 3.184 2.99l.46 1.88z" mask="url(#aN)" opacity=".2"/>
            </g>
            <g>
                <use fill="url(#at)" fill-rule="nonzero" transform="matrix(-1 0 0 1 133.171 22.56)" xlink:href="#aO"/>
                <use fill="url(#at)" fill-rule="nonzero" transform="matrix(-1 0 0 1 179.314 54.93)" xlink:href="#aP"/>
            </g>
        </g>
    </g>
</svg>
