<svg xmlns="http://www.w3.org/2000/svg" xmlns:xlink="http://www.w3.org/1999/xlink" width="375" height="466" viewBox="0 0 375 466">
    <defs>
        <filter id="a" width="296.9%" height="311.7%" x="-98.4%" y="-105.8%" filterUnits="objectBoundingBox">
            <feOffset dy="22" in="SourceAlpha" result="shadowOffsetOuter1"/>
            <feGaussianBlur in="shadowOffsetOuter1" result="shadowBlurOuter1" stdDeviation="22"/>
            <feColorMatrix in="shadowBlurOuter1" result="shadowMatrixOuter1" values="0 0 0 0 0.443137255 0 0 0 0 0.650980392 0 0 0 0 0.97254902 0 0 0 0.252887228 0"/>
            <feMerge>
                <feMergeNode in="shadowMatrixOuter1"/>
                <feMergeNode in="SourceGraphic"/>
            </feMerge>
        </filter>
        <linearGradient id="c" x1="67.546%" x2="-.379%" y1="77.348%" y2="-2.476%">
            <stop offset="0%" stop-color="#81EAEC"/>
            <stop offset="100%" stop-color="#3488ED"/>
        </linearGradient>
        <path id="b" d="M6.88 0h115.24c3.8 0 6.88 3.07 6.88 6.857v106.286c0 3.787-3.08 6.857-6.88 6.857H6.88c-3.8 0-6.88-3.07-6.88-6.857V6.857C0 3.07 3.08 0 6.88 0z"/>
        <path id="f" d="M6.02 0h34.4c3.325 0 6.02 2.686 6.02 6v39.429c0 3.313-2.695 6-6.02 6H6.02c-3.325 0-6.02-2.687-6.02-6V6c0-3.314 2.695-6 6.02-6zm52.46 0h34.4c3.325 0 6.02 2.686 6.02 6v39.429c0 3.313-2.695 6-6.02 6h-34.4c-3.325 0-6.02-2.687-6.02-6V6c0-3.314 2.695-6 6.02-6z"/>
        <filter id="e" width="155.6%" height="206.9%" x="-27.8%" y="-39.9%" filterUnits="objectBoundingBox">
            <feOffset dy="7" in="SourceAlpha" result="shadowOffsetOuter1"/>
            <feGaussianBlur in="shadowOffsetOuter1" result="shadowBlurOuter1" stdDeviation="8"/>
            <feColorMatrix in="shadowBlurOuter1" values="0 0 0 0 0.152941176 0 0 0 0 0.364705882 0 0 0 0 0.533333333 0 0 0 0.15 0"/>
        </filter>
        <filter id="g" width="295.5%" height="318%" x="-97.7%" y="-109%" filterUnits="objectBoundingBox">
            <feOffset dy="26" in="SourceAlpha" result="shadowOffsetOuter1"/>
            <feGaussianBlur in="shadowOffsetOuter1" result="shadowBlurOuter1" stdDeviation="26.5"/>
            <feColorMatrix in="shadowBlurOuter1" result="shadowMatrixOuter1" values="0 0 0 0 0.306266344 0 0 0 0 0.773995536 0 0 0 0 0.759821924 0 0 0 0.25 0"/>
            <feMerge>
                <feMergeNode in="shadowMatrixOuter1"/>
                <feMergeNode in="SourceGraphic"/>
            </feMerge>
        </filter>
        <linearGradient id="i" x1="70.406%" x2="21.519%" y1="-8.059%" y2="92.592%">
            <stop offset="0%" stop-color="#39ABC5"/>
            <stop offset="100%" stop-color="#A8EB9D"/>
        </linearGradient>
        <path id="h" d="M8.267.272h138.466C151.3.272 155 3.96 155 8.509v121.496c0 4.55-3.701 8.237-8.267 8.237H8.267C3.7 138.242 0 134.554 0 130.005V8.51C0 3.959 3.701.272 8.267.272z"/>
        <filter id="k" width="111.2%" height="138.8%" x="-5.6%" y="-19.4%" filterUnits="objectBoundingBox">
            <feGaussianBlur in="SourceGraphic" stdDeviation="2.4"/>
        </filter>
        <filter id="l" width="296.9%" height="313.4%" x="-98.4%" y="-106.7%" filterUnits="objectBoundingBox">
            <feOffset dy="22" in="SourceAlpha" result="shadowOffsetOuter1"/>
            <feGaussianBlur in="shadowOffsetOuter1" result="shadowBlurOuter1" stdDeviation="22"/>
            <feColorMatrix in="shadowBlurOuter1" result="shadowMatrixOuter1" values="0 0 0 0 0.768627451 0 0 0 0 0.494117647 0 0 0 0 0.91372549 0 0 0 0.25 0"/>
            <feMerge>
                <feMergeNode in="shadowMatrixOuter1"/>
                <feMergeNode in="SourceGraphic"/>
            </feMerge>
        </filter>
        <path id="m" d="M6.88 0h115.24c3.8 0 6.88 3.066 6.88 6.849V112.15c0 3.783-3.08 6.849-6.88 6.849H6.88c-3.8 0-6.88-3.066-6.88-6.849V6.85C0 3.066 3.08 0 6.88 0z"/>
        <linearGradient id="o" x1="100%" x2="6.662%" y1="-28.986%" y2="100%">
            <stop offset="0%" stop-color="#FFB782"/>
            <stop offset="100%" stop-color="#FF739C"/>
        </linearGradient>
        <linearGradient id="q" x1="-8.216%" x2="89.812%" y1="126.906%" y2="0%">
            <stop offset="0%" stop-color="#FFCFAA"/>
            <stop offset="100%" stop-color="#FA6EB9"/>
        </linearGradient>
        <path id="p" d="M3.235.01h60.938a2.587 2.587 0 0 1 2.577 2.597V41.57a2.587 2.587 0 0 1-2.577 2.596H3.235A2.587 2.587 0 0 1 .658 41.57V2.607A2.587 2.587 0 0 1 3.235.011z"/>
        <linearGradient id="t" x1="134.336%" x2="6.662%" y1="14.643%" y2="100%">
            <stop offset="0%" stop-color="#404683"/>
            <stop offset="100%" stop-color="#373A5B"/>
        </linearGradient>
        <path id="s" d="M22.037.706c.546.423-1.903 2.166-7.347 5.23-3.298 1.857-7.502 3.759-12.611 5.706-3.324 1.266-2.498 3.857 1.32 3.857H35.62c3.765 0 5.19-1.373 4.279-4.119L37.075.706H22.037z"/>
        <linearGradient id="u" x1="9.105%" x2="87.601%" y1="110.865%" y2="23.826%">
            <stop offset="0%" stop-color="#FF9292"/>
            <stop offset="100%" stop-color="#FFB59D"/>
        </linearGradient>
        <path id="w" d="M12.843.706c-3.847 4.18-7.22 7.364-10.118 9.549-4.346 3.278-1.449 5.244.933 5.244H30.33c3.765 0 5.191-1.373 4.28-4.119L27.88.706H12.843z"/>
        <path id="y" d="M4.447.072c-9.129 22.016.793 57.373.793 93.112 0 8.182-3.667 61.33-.23 62.118 3.435.788 12.495.46 14.728.46 2.233 0 1.265-4.122 1.265-7.348 0-16.24 3.74-52.566 11.217-108.978 4.687 19.345 8.863 35.982 12.528 49.911 3.053 11.604-15.968 64.899-12.528 65.459 3.44.56 12.233.56 14.601.471 2.37-.088 19.284-55.966 19.284-69.238 0-8.847-4.851-37.073-14.553-84.676L4.447.072z"/>
        <linearGradient id="A" x1="50%" x2="50%" y1="0%" y2="100%">
            <stop offset="0%" stop-color="#AF3053"/>
            <stop offset="100%" stop-color="#7A3343"/>
        </linearGradient>
        <path id="B" d="M37.72 3.73C18.235.462 37.437-.107 21.87 1.435c-6.379.632-12.83 3.647-19.354 9.046-3.687 3.005-2.952 20.082 0 31.177 2.796 10.505 8.017 12.866 8.034 16.67.033 7.68-8.034 18.143-8.034 38.47.642.071 3.899-16.332 4.524-16.265.771.082-.747 16.19 0 16.265 15.274 1.516 18.734 10.064 30.68 8.548.894-.114 2.236-6.616 4.027-19.507 1.958 13.11 3.508 19.612 4.65 19.507 4.692-.433 8.253-4.287 11.699-4.287.707 0-1.75-14.428-2.74-21.817-.428-3.187-1.821-12.423-1.821-25.171 0-4.972 4.974-7.192 14.922-6.659C60.954 20.468 50.708 5.906 37.72 3.73z"/>
        <linearGradient id="E" x1="60.082%" x2="0%" y1="23.826%" y2="110.63%">
            <stop offset="0%" stop-color="#F68585"/>
            <stop offset="100%" stop-color="#FF9B92"/>
        </linearGradient>
        <path id="D" d="M.38 12.547c2.917 5.971 10.528 7.766 12.163 7.766 1.09 0 1.454-2.088 1.09-6.265l.352-7.764L2.867.501C3.334 8.23 2.505 12.246.38 12.547z"/>
        <path id="G" d="M23.154.713c1.657 4.331 2.382 7.393 2.173 9.183-1.118 9.62-2.95 18.072-7.307 18.072-6.051 0-11.869-6.737-13.393-13.24l-.049-.211a3.346 3.346 0 1 1 2.314-5.168c.338.154 11.976.615 16.262-8.636z"/>
        <linearGradient id="J" x1="9.105%" x2="89.138%" y1="110.865%" y2="8.547%">
            <stop offset="0%" stop-color="#FF9292"/>
            <stop offset="100%" stop-color="#FFB59D"/>
        </linearGradient>
        <path id="I" d="M4.728 2.45L31.897.933C43.636-.085 48.902 2.03 47.696 7.275c-1.81 7.868-11.61 6.957-26.681 4.845C10.967 10.71 4.125 9.794.489 9.368l4.239-6.917z"/>
        <linearGradient id="M" x1="12.462%" x2="87.601%" y1="91.981%" y2="23.826%">
            <stop offset="0%" stop-color="#FF9292"/>
            <stop offset="100%" stop-color="#FFCFBF"/>
        </linearGradient>
        <path id="L" d="M12.402 60.176c-4.428 5.51-4.852 7.608-10.044 0-5.217-7.645.875-13.361 2.955-16.327 2.08-2.966 10.915-20.26 12.357-24.061 1.275-3.848 1.173-6.6-.305-8.256-2.269-2.542-4.31-5.143-1.96-4.89 4.357.467 3.16 3.373 8.121 2.769 4.963-.605 5.617-2.874 9.08-7.498 3.464-4.623.441 4.94-.677 7.103-1.118 2.162-1.775 5.764-3.478 6.987-1.05.754-1.981 2.665-2.774 5.66.163.103-6.952 30.645-13.275 38.513z"/>
        <linearGradient id="P" x1="13.561%" x2="98.634%" y1="-68.368%" y2="97.339%">
            <stop offset="0%" stop-color="#8BC1CE"/>
            <stop offset="100%" stop-color="#6974B1"/>
        </linearGradient>
        <path id="O" d="M21.173.726c-1.142 4.714-5.178 7.25-12.106 7.608-6.929.358-9.882 2.894-8.86 7.608h34.745c3.819 0 5.265-1.412 4.34-4.236L36.427.726H21.173z"/>
        <path id="R" d="M9.957.726C8.413 3.551 6.17 6.086 3.232 8.334c-4.41 3.372-2.733 7.608-.317 7.608h24.781c3.819 0 5.266-1.412 4.34-4.236L25.212.726H9.957z"/>
        <linearGradient id="U" x1="134.336%" x2="6.662%" y1="14.643%" y2="100%">
            <stop offset="0%" stop-color="#3067AC"/>
            <stop offset="100%" stop-color="#4E679A"/>
        </linearGradient>
        <path id="T" d="M1.087.361c-2.085 38.947.662 57.702.947 92.163.068 8.276-.947 39.14-.164 54.727.169 3.367-2.103 7.562 1.618 8.357 3.722.794 14.736.475 17.155.475 2.418 0 1.115-4.168 1.115-7.422 0-16.378 3.506-52.016 10.517-106.914A494.82 494.82 0 0 1 42.86 88.233c3.018 17.059.426 66.67 4.062 66.9 3.636.228 13.25.564 15.816.475 2.443-.085 5.386-55.276 4.669-71.218C66.927 73.76 62.426 45.752 53.9.36H1.087z"/>
        <linearGradient id="X" x1="21.519%" x2="70.406%" y1="92.592%" y2="-8.059%">
            <stop offset="0%" stop-color="#39ABC5"/>
            <stop offset="100%" stop-color="#A8EB9D"/>
        </linearGradient>
        <path id="W" d="M60.61 1.91c-6.77-2.156-20.78-2.857-36.318 0C16.896 3.27 11.066 6.032 8.19 12.874 5.33 19.679 1.623 27.253.15 33.727c6.82 3.17 13.164 5.092 19.033 5.768v21.819c.488 10.785.134 19.444-1.06 25.976-1.941 10.615-2.785 18.156-2.774 18.537.084 2.797 1.436 1.856 9.05 3.057 7.616 1.201 29.91-2.36 37.37-3.057 4.973-.465 10.748-.465 17.326 0l-9.678-70.138 11.61-10.134L69.44 7.98c-1.375-2.61-4.318-4.634-8.83-6.07z"/>
        <linearGradient id="Z" x1="24.242%" x2="117.883%" y1="93.583%" y2="-13.53%">
            <stop offset="0%" stop-color="#FFA77B"/>
            <stop offset="100%" stop-color="#FFE6CA"/>
        </linearGradient>
        <path id="aa" d="M.428 12.791c5.986 5.251 10.077 7.876 12.272 7.876 2.195 0 3.03-2.625 2.508-7.876L14.154 6.44 2.937.574.428 12.79z"/>
        <path id="ac" d="M23.36.723c1.673 4.393 2.403 7.498 2.193 9.314-1.128 9.757-3.39 14.636-6.572 14.636-6.105 0-12.775-3.14-14.313-9.736a31.782 31.782 0 0 1-.049-.214 3.385 3.385 0 0 1-3.851-3.36A3.385 3.385 0 0 1 4.144 7.97c1.172 0 2.204.6 2.81 1.512.34.156 12.083.624 16.407-8.759z"/>
        <path id="ae" d="M21.722 54.282c-3.774.542-10.787-1.647-21.04-6.566V33.133l11.18-7.213 6.367 8.161 16.728-19.668c1.313-2.968 2.168-5.675 3.484-7.226 2.105-2.482.005-6.555 2.32-6.555.443 0 1.901.986 2.13 2.182.18.946.18 2.053 0 3.323 3.094.298 5.007.883 5.738 1.756 1.149 1.369.667 6.898 0 8.717-.93 2.538-2.148 2.538-4.764 3.333-.643.195-1.544.636-2.705 1.321-9.211 21.474-15.69 32.48-19.438 33.018z"/>
        <linearGradient id="ag" x1="50%" x2="50%" y1="0%" y2="100%">
            <stop offset="0%" stop-color="#A3EDED"/>
            <stop offset="100%" stop-color="#9FCFFF"/>
        </linearGradient>
        <linearGradient id="ai" x1="9.105%" x2="71.9%" y1="110.865%" y2="24.893%">
            <stop offset="0%" stop-color="#FF9292"/>
            <stop offset="100%" stop-color="#FFB59D"/>
        </linearGradient>
        <path id="ah" d="M3.954 30.849C.35 27.772-1.403 19.443 1.617 6.216c6.293 2.733 12.024 4.345 17.194 4.837l-3.01 6.252 32.692 5.77-.013-.088c3.04-2.596 5.416-3.893 7.13-3.893l-.676 3.168c4.223-.167 7.314-1.223 9.274-3.168 2.94-2.918 1.486 3.607-.42 4.617-1.905 1.01-1.074 6.82-5.645 7.733-3.047.609-10.487.51-10.442.31-26.538 1.853-40.22 2.105-43.747-.905z"/>
    </defs>
    <g fill="none" fill-rule="evenodd">
        <g filter="url(#a)" transform="translate(31 22)">
            <mask id="d" fill="#fff">
                <use xlink:href="#b"/>
            </mask>
            <use fill="url(#c)" fill-rule="nonzero" xlink:href="#b"/>
            <path fill="#FFF" fill-rule="nonzero" d="M43.86 21.74c-.95 0-1.72-.767-1.72-1.714 0-.946.77-1.714 1.72-1.714h15.254c.95 0 1.72.768 1.72 1.714 0 .947-.77 1.715-1.72 1.715H43.86z" mask="url(#d)"/>
            <g fill-rule="nonzero" mask="url(#d)">
                <g transform="translate(16.413 14.688)">
                    <ellipse cx="9.545" cy="9.528" fill="#FFF" rx="9.46" ry="9.429"/>
                    <path fill="#F3747B" d="M9.566 11.633c-1.823 0-3.31-1.442-3.31-3.233 0-1.79 1.487-3.233 3.31-3.233s3.31 1.442 3.31 3.233c0 1.791-1.487 3.233-3.31 3.233zm0-1.714c.883 0 1.59-.685 1.59-1.519 0-.833-.707-1.519-1.59-1.519-.884 0-1.59.686-1.59 1.52 0 .833.706 1.518 1.59 1.518z"/>
                    <path fill="#F3747B" d="M12.876 13.285a.859.859 0 0 1-.86.857.859.859 0 0 1-.86-.857c0-.833-.707-1.519-1.59-1.519-.884 0-1.59.686-1.59 1.519a.859.859 0 0 1-.86.857.859.859 0 0 1-.86-.857c0-1.791 1.487-3.233 3.31-3.233s3.31 1.442 3.31 3.233z" opacity=".3"/>
                </g>
            </g>
            <path fill="#FFF" fill-rule="nonzero" d="M43.86 30.312c-.95 0-1.72-.767-1.72-1.714s.77-1.714 1.72-1.714h32.454c.95 0 1.72.767 1.72 1.714s-.77 1.714-1.72 1.714H43.86z" mask="url(#d)" opacity=".3"/>
            <g fill-rule="nonzero" mask="url(#d)">
                <g transform="translate(16.34 51.429)">
                    <use fill="#000" filter="url(#e)" xlink:href="#f"/>
                    <use fill="#FFF" xlink:href="#f"/>
                </g>
                <path fill="#FFA788" d="M29.626 85.245l6.486-10.76 3.85 5.99 3.575-3.892 5.957 8.662H29.626zm15.863-11.062a2.576 2.576 0 0 1-2.58-2.571 2.576 2.576 0 0 1 2.58-2.571 2.576 2.576 0 0 1 2.58 2.571 2.576 2.576 0 0 1-2.58 2.571z" opacity=".3"/>
            </g>
            <g fill="#B579EE" fill-rule="nonzero" mask="url(#d)" opacity=".3">
                <path d="M82.086 85.245l6.486-10.76 3.85 5.99 3.575-3.892 5.957 8.662H82.086zm15.863-11.062a2.576 2.576 0 0 1-2.58-2.571 2.576 2.576 0 0 1 2.58-2.571 2.576 2.576 0 0 1 2.58 2.571 2.576 2.576 0 0 1-2.58 2.571z"/>
            </g>
        </g>
        <g filter="url(#g)" transform="translate(174 56)">
            <mask id="j" fill="#fff">
                <use xlink:href="#h"/>
            </mask>
            <use fill="url(#i)" fill-rule="nonzero" xlink:href="#h"/>
            <path fill="#FFF" fill-rule="nonzero" d="M101.917.272h36.167v92.123h-36.167z" mask="url(#j)" opacity=".2"/>
            <path fill="#FFF" fill-rule="nonzero" d="M0 92.97h155v37.035c0 4.55-3.701 8.237-8.267 8.237H8.267C3.7 138.242 0 134.554 0 130.005V92.97z" mask="url(#j)"/>
            <path fill="#EF8BDB" fill-rule="nonzero" d="M18.6 110.685a2.063 2.063 0 0 1-2.067-2.06c0-1.136.926-2.058 2.067-2.058h18.329c1.141 0 2.066.922 2.066 2.059s-.925 2.06-2.066 2.06H18.6z" mask="url(#j)"/>
            <path fill="#EAE8E9" fill-rule="nonzero" d="M18.6 120.981a2.063 2.063 0 0 1-2.067-2.059c0-1.137.926-2.059 2.067-2.059h38.995c1.142 0 2.067.922 2.067 2.06 0 1.137-.925 2.058-2.067 2.058H18.6z" mask="url(#j)"/>
            <path fill="#1E6A79" fill-rule="nonzero" d="M11.521 74.774c-.57 0-1.033-.46-1.033-1.03 0-.568.462-1.029 1.033-1.029 2.425 0 4.924-.969 7.722-2.904 1.722-1.191 3.533-2.724 5.727-4.8a175.96 175.96 0 0 0 2.973-2.893 730.85 730.85 0 0 0 1.521-1.511c.627-.623 1.09-1.081 1.549-1.533 10.08-9.911 16.894-14.235 25.785-14.235 8.373 0 13.334 1.68 22.144 6.39l.62.331c9 4.812 13.947 6.476 22.63 6.476 8.694 0 13.913-3.015 20.09-9.854.5-.554 2.74-3.101 3.35-3.77 4.29-4.708 7.547-6.765 12.212-6.765.57 0 1.033.461 1.033 1.03 0 .568-.463 1.03-1.033 1.03-3.943 0-6.747 1.77-10.682 6.089-.594.652-2.83 3.195-3.344 3.764-6.532 7.232-12.25 10.535-21.625 10.535-9.095 0-14.335-1.762-23.608-6.72l-.62-.332c-8.537-4.564-13.206-6.144-21.167-6.144-8.174 0-14.619 4.088-24.333 13.64a407.572 407.572 0 0 0-2.305 2.285l-.76.754a177.816 177.816 0 0 1-3.007 2.926c-2.263 2.142-4.148 3.737-5.971 4.999-3.115 2.154-5.998 3.271-8.901 3.271z" filter="url(#k)" mask="url(#j)" opacity=".4"/>
            <path fill="#FFF" fill-rule="nonzero" d="M11.521 74.774c-.57 0-1.033-.46-1.033-1.03 0-.568.462-1.029 1.033-1.029 2.313 0 4.732-1.204 7.458-3.625 1.69-1.501 3.469-3.434 5.622-6.05a202.77 202.77 0 0 0 2.915-3.644 848.117 848.117 0 0 0 1.492-1.902c.614-.784 1.067-1.36 1.517-1.929 9.894-12.492 16.573-17.933 25.372-17.933 8.316 0 13.22 2.619 21.893 9.933l.608.513c8.782 7.408 13.588 9.958 21.991 9.958 8.442 0 13.543-3.766 19.597-12.332.492-.696 2.688-3.886 3.284-4.722 4.208-5.903 7.406-8.483 12.061-8.483.57 0 1.033.461 1.033 1.03 0 .568-.462 1.03-1.033 1.03-3.781 0-6.524 2.213-10.376 7.616-.584.818-2.776 4.004-3.28 4.715-6.4 9.058-12.019 13.205-21.286 13.205-9.022 0-14.201-2.748-23.326-10.446l-.608-.512c-8.33-7.024-12.864-9.446-20.558-9.446-7.926 0-14.242 5.146-23.75 17.15a472.456 472.456 0 0 0-2.259 2.875l-.744.95a204.62 204.62 0 0 1-2.945 3.68c-2.216 2.692-4.06 4.696-5.844 6.28-3.07 2.727-5.925 4.148-8.834 4.148z" mask="url(#j)"/>
            <path fill="#FFF" fill-rule="nonzero" d="M138.084 37.404a3.78 3.78 0 0 1-3.786-3.772 3.78 3.78 0 0 1 3.786-3.773 3.78 3.78 0 0 1 3.786 3.773 3.78 3.78 0 0 1-3.786 3.772zm0-2.059c.95 0 1.72-.767 1.72-1.713 0-.946-.77-1.713-1.72-1.713s-1.72.767-1.72 1.713c0 .946.77 1.713 1.72 1.713z" mask="url(#j)"/>
            <ellipse cx="101.917" cy="59.372" fill="#FFF" fill-rule="nonzero" mask="url(#j)" rx="2.753" ry="2.743"/>
        </g>
        <g filter="url(#l)" transform="translate(126 126)">
            <mask id="n" fill="#fff">
                <use xlink:href="#m"/>
            </mask>
            <use fill="#FFF" fill-rule="nonzero" xlink:href="#m"/>
            <path fill="#F8FDFF" fill-rule="nonzero" d="M.62 77.276h128.14v35.101c0 3.783-3.08 6.85-6.88 6.85H7.5c-3.8 0-6.88-3.067-6.88-6.85v-35.1z" mask="url(#n)"/>
            <path fill="#C47EE9" fill-rule="nonzero" d="M18.363 102.592c-.95 0-1.72-.766-1.72-1.712s.77-1.712 1.72-1.712h15.254c.95 0 1.72.766 1.72 1.712s-.77 1.712-1.72 1.712H18.363z" mask="url(#n)"/>
            <path fill="#C47EE9" fill-rule="nonzero" d="M18.363 94.031c-.95 0-1.72-.767-1.72-1.712 0-.946.77-1.712 1.72-1.712h9.234c.95 0 1.72.766 1.72 1.712 0 .945-.77 1.712-1.72 1.712h-9.234z" mask="url(#n)" opacity=".3"/>
            <path fill="#C47EE9" fill-rule="nonzero" d="M57.063 102.592c-.95 0-1.72-.766-1.72-1.712s.77-1.712 1.72-1.712h15.254c.95 0 1.72.766 1.72 1.712s-.77 1.712-1.72 1.712H57.063z" mask="url(#n)"/>
            <path fill="#C47EE9" fill-rule="nonzero" d="M57.063 94.031c-.95 0-1.72-.767-1.72-1.712 0-.946.77-1.712 1.72-1.712h9.234c.95 0 1.72.766 1.72 1.712 0 .945-.77 1.712-1.72 1.712h-9.234z" mask="url(#n)" opacity=".3"/>
            <path fill="#C47EE9" fill-rule="nonzero" d="M95.763 102.592c-.95 0-1.72-.766-1.72-1.712s.77-1.712 1.72-1.712h15.254c.95 0 1.72.766 1.72 1.712s-.77 1.712-1.72 1.712H95.763z" mask="url(#n)"/>
            <path fill="#C47EE9" fill-rule="nonzero" d="M95.763 94.031c-.95 0-1.72-.767-1.72-1.712 0-.946.77-1.712 1.72-1.712h9.234c.95 0 1.72.766 1.72 1.712 0 .945-.77 1.712-1.72 1.712h-9.234z" mask="url(#n)" opacity=".3"/>
            <path fill="#FFA189" fill-rule="nonzero" d="M26.034 43.286l-9.565 9.02-.591-.622 9.619-9.063 7.893-5.337.133-.06 9.332-2.427 8.627 7.786 8.02 3.615 8.385-7.816.079-.059 8.834-5.065 8.897-4.567 8.56 9.661 8.507 4.45 8.119-8.057.607.606-8.567 8.503-9.137-4.78-.122-.097-8.168-9.22-8.285 4.252-8.773 5.031-8.767 8.174-8.605-3.879-.111-.073-8.332-7.52-8.81 2.292z" mask="url(#n)" opacity=".3"/>
            <path fill="url(#o)" fill-rule="nonzero" d="M15.388 46.758c0-.709.578-1.284 1.29-1.284.713 0 1.29.575 1.29 1.284v9.359c0 .709-.577 1.284-1.29 1.284-.712 0-1.29-.575-1.29-1.284v-9.359zm8.6-8.56c0-.71.578-1.285 1.29-1.285.713 0 1.29.575 1.29 1.284v9.358c0 .71-.577 1.285-1.29 1.285-.712 0-1.29-.575-1.29-1.285v-9.358zm8.6-8.562c0-.71.578-1.284 1.29-1.284.713 0 1.29.575 1.29 1.284v17.92c0 .709-.577 1.284-1.29 1.284-.712 0-1.29-.575-1.29-1.285V29.636zm8.6 0c0-.71.578-1.284 1.29-1.284.713 0 1.29.575 1.29 1.284v9.358c0 .71-.577 1.285-1.29 1.285-.712 0-1.29-.575-1.29-1.285v-9.358zm8.6 8.561c0-.709.578-1.284 1.29-1.284.713 0 1.29.575 1.29 1.284v9.358c0 .71-.577 1.285-1.29 1.285-.712 0-1.29-.575-1.29-1.285v-9.358zm8.6 2.569c0-.71.578-1.285 1.29-1.285.713 0 1.29.575 1.29 1.285v9.358c0 .71-.577 1.284-1.29 1.284-.712 0-1.29-.575-1.29-1.284v-9.358zm8.6-6.85c0-.709.578-1.283 1.29-1.283.713 0 1.29.574 1.29 1.284v9.358c0 .71-.577 1.284-1.29 1.284-.712 0-1.29-.575-1.29-1.284v-9.358zm8.6-4.28c0-.71.578-1.284 1.29-1.284.713 0 1.29.575 1.29 1.284v9.358c0 .71-.577 1.285-1.29 1.285-.712 0-1.29-.575-1.29-1.285v-9.358zm8.6-8.561c0-.71.578-1.284 1.29-1.284.713 0 1.29.575 1.29 1.284v17.92c0 .709-.577 1.284-1.29 1.284-.712 0-1.29-.575-1.29-1.285V21.075zm8.6 8.561c0-.71.578-1.284 1.29-1.284.713 0 1.29.575 1.29 1.284v15.351c0 .71-.577 1.284-1.29 1.284-.712 0-1.29-.575-1.29-1.284v-15.35zm8.6 4.28c0-.709.578-1.283 1.29-1.283.713 0 1.29.574 1.29 1.284v17.92c0 .708-.577 1.283-1.29 1.283-.712 0-1.29-.575-1.29-1.284v-17.92zm8.6-4.28c0-.71.578-1.284 1.29-1.284.713 0 1.29.575 1.29 1.284v9.358c0 .71-.577 1.285-1.29 1.285-.712 0-1.29-.575-1.29-1.285v-9.358z" mask="url(#n)"/>
        </g>
        <g transform="translate(203 324)">
            <mask id="r" fill="#fff">
                <use xlink:href="#p"/>
            </mask>
            <use fill="url(#q)" fill-rule="nonzero" xlink:href="#p"/>
            <g fill-rule="nonzero" mask="url(#r)">
                <path fill="#373A5B" d="M10.739 17.882h14.603c.948 0 1.718.775 1.718 1.731v17.308c0 .956-.77 1.73-1.718 1.73H10.739a1.724 1.724 0 0 1-1.718-1.73V19.613c0-.956.77-1.73 1.718-1.73z" opacity=".1"/>
                <path fill="#FFF" d="M10.739 16.151h14.603c.948 0 1.718.775 1.718 1.731V35.19c0 .956-.77 1.73-1.718 1.73H10.739a1.724 1.724 0 0 1-1.718-1.73V17.882c0-.956.77-1.73 1.718-1.73z"/>
                <path fill="#FB8FB4" d="M18.04 27.606c-1.85 0-3.35-1.511-3.35-3.375s1.5-3.375 3.35-3.375 3.35 1.51 3.35 3.375c0 1.864-1.5 3.375-3.35 3.375zm0-1.558a1.81 1.81 0 0 0 1.804-1.817 1.81 1.81 0 0 0-1.804-1.818 1.81 1.81 0 0 0-1.804 1.818 1.81 1.81 0 0 0 1.804 1.817z"/>
                <path fill="#D9EFF3" d="M15.54 32.35a.776.776 0 0 1-.774-.779c0-.43.347-.779.773-.779h5.002c.427 0 .773.35.773.78 0 .43-.346.778-.773.778H15.54z"/>
            </g>
            <g fill-rule="nonzero" mask="url(#r)" opacity=".4">
                <path fill="#373A5B" d="M32.463 17.882h14.602c.949 0 1.718.775 1.718 1.731v17.308c0 .956-.77 1.73-1.718 1.73H32.463a1.724 1.724 0 0 1-1.718-1.73V19.613c0-.956.769-1.73 1.718-1.73z" opacity=".1"/>
                <path fill="#FFF" d="M32.463 16.151h14.602c.949 0 1.718.775 1.718 1.731V35.19c0 .956-.77 1.73-1.718 1.73H32.463a1.724 1.724 0 0 1-1.718-1.73V17.882c0-.956.769-1.73 1.718-1.73z"/>
                <path fill="#FB8FB4" d="M39.764 27.606c-1.85 0-3.35-1.511-3.35-3.375s1.5-3.375 3.35-3.375 3.35 1.51 3.35 3.375c0 1.864-1.5 3.375-3.35 3.375zm0-1.558a1.81 1.81 0 0 0 1.804-1.817 1.81 1.81 0 0 0-1.804-1.818 1.81 1.81 0 0 0-1.804 1.818 1.81 1.81 0 0 0 1.804 1.817z"/>
                <path fill="#D9EFF3" d="M37.263 32.35a.776.776 0 0 1-.773-.779c0-.43.346-.779.773-.779h5.002c.427 0 .773.35.773.78 0 .43-.346.778-.773.778h-5.002z"/>
            </g>
            <g fill-rule="nonzero" mask="url(#r)" opacity=".4">
                <path fill="#373A5B" d="M54.186 17.882h14.603c.948 0 1.718.775 1.718 1.731v17.308c0 .956-.77 1.73-1.718 1.73H54.186a1.724 1.724 0 0 1-1.718-1.73V19.613c0-.956.77-1.73 1.718-1.73z" opacity=".1"/>
                <path fill="#FFF" d="M54.186 16.151h14.603c.948 0 1.718.775 1.718 1.731V35.19c0 .956-.77 1.73-1.718 1.73H54.186a1.724 1.724 0 0 1-1.718-1.73V17.882c0-.956.77-1.73 1.718-1.73z"/>
                <path fill="#FB8FB4" d="M61.487 27.606c-1.85 0-3.35-1.511-3.35-3.375s1.5-3.375 3.35-3.375 3.35 1.51 3.35 3.375c0 1.864-1.5 3.375-3.35 3.375zm0-1.558a1.81 1.81 0 0 0 1.804-1.817 1.81 1.81 0 0 0-1.804-1.818 1.81 1.81 0 0 0-1.804 1.818 1.81 1.81 0 0 0 1.804 1.817z"/>
                <path fill="#D9EFF3" d="M58.987 32.35a.776.776 0 0 1-.774-.779c0-.43.347-.779.774-.779h5.001c.427 0 .773.35.773.78 0 .43-.346.778-.773.778h-5.001z"/>
            </g>
            <path fill="#FFF" fill-rule="nonzero" d="M3.235.01h60.938a2.587 2.587 0 0 1 2.577 2.597v4.666H.658V2.607A2.587 2.587 0 0 1 3.235.011z" mask="url(#r)" opacity=".2"/>
            <ellipse cx="5.551" cy="3.642" fill="#99FF87" fill-rule="nonzero" mask="url(#r)" rx="1" ry="1"/>
            <ellipse cx="8.987" cy="3.642" fill="#FB7EB7" fill-rule="nonzero" mask="url(#r)" rx="1" ry="1"/>
            <ellipse cx="12.423" cy="3.642" fill="#FB7EB7" fill-rule="nonzero" mask="url(#r)" rx="1" ry="1"/>
            <path fill="#FFF" fill-rule="nonzero" d="M10.023 13.068a.776.776 0 0 1-.773-.78c0-.43.346-.778.773-.778h7.579c.426 0 .773.349.773.779 0 .43-.347.779-.773.779h-7.58z" mask="url(#r)"/>
        </g>
        <g transform="matrix(-1 0 0 1 292.79 450.292)">
            <mask id="v" fill="#fff">
                <use xlink:href="#s"/>
            </mask>
            <use fill="url(#t)" fill-rule="nonzero" transform="matrix(-1 0 0 1 40.167 0)" xlink:href="#s"/>
            <path fill="url(#u)" fill-rule="nonzero" d="M-2.301 9.018c20.168 2.327 30.833.253 31.995-6.221C30.856-3.678 20.672-5.23-.86-1.861L-2.3 9.019z" mask="url(#v)"/>
        </g>
        <g transform="matrix(-1 0 0 1 324.42 450.292)">
            <mask id="x" fill="#fff">
                <use xlink:href="#w"/>
            </mask>
            <use fill="url(#t)" fill-rule="nonzero" transform="matrix(-1 0 0 1 35.36 0)" xlink:href="#w"/>
            <path fill="url(#u)" fill-rule="nonzero" d="M2.969 6.028c11.508 3.14 20.37 2.79 26.587-1.052 6.216-3.84-2.082-6.38-24.894-7.619L2.969 6.028z" mask="url(#x)"/>
        </g>
        <g transform="matrix(-1 0 0 1 321.947 297.326)">
            <mask id="z" fill="#fff">
                <use xlink:href="#y"/>
            </mask>
            <use fill="url(#t)" fill-rule="nonzero" xlink:href="#y"/>
            <path fill="#151731" fill-rule="nonzero" d="M57.19 12.55c-.475 8.62-7.293 12.93-20.455 12.93-19.743 0-2.863 22.026-23.03 27.12C-6.465 57.697 5.25 82.486-7.012 82.486c-8.174 0-4.652-22.837 10.565-68.51L57.19 12.55z" mask="url(#z)" opacity=".3"/>
            <path fill="#151731" fill-rule="nonzero" d="M33.722 46.377l9.49-22.565c1.95 5.907 1.95 12.446 0 19.617-2.923 10.755 5.877 20.37.001 27.893-5.876 7.523 5.877 27.264-6.216 38.687-8.061 7.616-9.845 6.99-5.35-1.88l2.075-61.752z" mask="url(#z)" opacity=".3" transform="rotate(-8 37.259 69.55)"/>
        </g>
        <path fill="url(#A)" fill-rule="nonzero" d="M55.435.932c17.377 4.154 13.5 21.434 8.934 40.088-4.566 18.654-15.673 53.826-39.033 51C1.975 89.191-4.538 74.58 3.92 57.971S29.229 41.02 31.21 27.096C33.194 13.172 38.057-3.221 55.435.932z" transform="matrix(-1 0 0 1 344 179)"/>
        <g transform="matrix(-1 0 0 1 324.42 217.223)">
            <mask id="C" fill="#fff">
                <use xlink:href="#B"/>
            </mask>
            <use fill="url(#q)" fill-rule="nonzero" xlink:href="#B"/>
            <path fill="#373A5B" fill-rule="nonzero" d="M38.297 13.994c-1.794 30.708-5.531 46.594-11.21 47.657-8.518 1.595-11.393.561-13.198 5.665-1.805 5.104 9.35 17.182 0 18.452-6.234.847-10.703 9.025-13.407 24.533L4.54 53.62l17.816-2.685 15.942-36.94z" mask="url(#C)" opacity=".3"/>
            <path fill="#373A5B" fill-rule="nonzero" d="M76.997 55.63c-22.928-1.704-38.803-3.988-47.627-6.85-2.195-.713-4.317.475-6.366-.347-4.085.216-5.537 1.475-4.356 3.774 3.083 6.003 19.158 8.038 23.018 8.038 9.117 0 7.831-6.247 17.546-2.459 6.476 2.526 12.404 1.807 17.785-2.156zM27.173 14.87c-3.104 16.994-6.03 25.064-8.78 24.21-2.749-.853-4.514-6.186-5.294-16 1.484-.688 2.723 1.172 3.715 5.581.992 4.41 4.445-.188 10.36-13.79z" mask="url(#C)" opacity=".3"/>
            <ellipse cx=".932" cy="17.713" fill="#FFF" fill-rule="nonzero" mask="url(#C)" opacity=".3" rx="2.797" ry="2.797"/>
            <ellipse cx="19.58" cy="17.713" fill="#FFF" fill-rule="nonzero" mask="url(#C)" opacity=".3" rx="2.797" ry="2.797"/>
            <ellipse cx="38.228" cy="17.713" fill="#FFF" fill-rule="nonzero" mask="url(#C)" opacity=".3" rx="2.797" ry="2.797"/>
            <ellipse cx="56.876" cy="17.713" fill="#FFF" fill-rule="nonzero" mask="url(#C)" opacity=".3" rx="2.797" ry="2.797"/>
            <ellipse cx="10.256" cy="8.39" fill="#FFF" fill-rule="nonzero" mask="url(#C)" opacity=".3" rx="2.797" ry="2.797"/>
            <ellipse cx="28.904" cy="8.39" fill="#FFF" fill-rule="nonzero" mask="url(#C)" opacity=".3" rx="2.797" ry="2.797"/>
            <ellipse cx="47.552" cy="8.39" fill="#FFF" fill-rule="nonzero" mask="url(#C)" opacity=".3" rx="2.797" ry="2.797"/>
            <ellipse cx="66.2" cy="8.39" fill="#FFF" fill-rule="nonzero" mask="url(#C)" opacity=".3" rx="2.797" ry="2.797"/>
            <ellipse cx="75.524" cy="17.713" fill="#FFF" fill-rule="nonzero" mask="url(#C)" opacity=".3" rx="2.797" ry="2.797"/>
            <ellipse cx="-8.392" cy="27.036" fill="#FFF" fill-rule="nonzero" mask="url(#C)" opacity=".3" rx="2.797" ry="2.797"/>
            <ellipse cx="10.256" cy="27.036" fill="#FFF" fill-rule="nonzero" mask="url(#C)" opacity=".3" rx="2.797" ry="2.797"/>
            <ellipse cx="28.904" cy="27.036" fill="#FFF" fill-rule="nonzero" mask="url(#C)" opacity=".3" rx="2.797" ry="2.797"/>
            <ellipse cx="47.552" cy="27.036" fill="#FFF" fill-rule="nonzero" mask="url(#C)" opacity=".3" rx="2.797" ry="2.797"/>
            <ellipse cx="66.2" cy="27.036" fill="#FFF" fill-rule="nonzero" mask="url(#C)" opacity=".3" rx="2.797" ry="2.797"/>
            <ellipse cx="-17.715" cy="36.359" fill="#FFF" fill-rule="nonzero" mask="url(#C)" opacity=".3" rx="2.797" ry="2.797"/>
            <ellipse cx=".932" cy="36.359" fill="#FFF" fill-rule="nonzero" mask="url(#C)" opacity=".3" rx="2.797" ry="2.797"/>
            <ellipse cx="19.58" cy="36.359" fill="#FFF" fill-rule="nonzero" mask="url(#C)" opacity=".3" rx="2.797" ry="2.797"/>
            <ellipse cx="38.228" cy="36.359" fill="#FFF" fill-rule="nonzero" mask="url(#C)" opacity=".3" rx="2.797" ry="2.797"/>
            <ellipse cx="56.876" cy="36.359" fill="#FFF" fill-rule="nonzero" mask="url(#C)" opacity=".3" rx="2.797" ry="2.797"/>
            <ellipse cx="-8.392" cy="45.681" fill="#FFF" fill-rule="nonzero" mask="url(#C)" opacity=".3" rx="2.797" ry="2.797"/>
            <ellipse cx="10.256" cy="45.681" fill="#FFF" fill-rule="nonzero" mask="url(#C)" opacity=".3" rx="2.797" ry="2.797"/>
            <ellipse cx="28.904" cy="45.681" fill="#FFF" fill-rule="nonzero" mask="url(#C)" opacity=".3" rx="2.797" ry="2.797"/>
            <ellipse cx="47.552" cy="45.681" fill="#FFF" fill-rule="nonzero" mask="url(#C)" opacity=".3" rx="2.797" ry="2.797"/>
            <ellipse cx="66.2" cy="45.681" fill="#FFF" fill-rule="nonzero" mask="url(#C)" opacity=".3" rx="2.797" ry="2.797"/>
            <ellipse cx="-17.715" cy="55.004" fill="#FFF" fill-rule="nonzero" mask="url(#C)" opacity=".3" rx="2.797" ry="2.797"/>
            <ellipse cx=".932" cy="55.004" fill="#FFF" fill-rule="nonzero" mask="url(#C)" opacity=".3" rx="2.797" ry="2.797"/>
            <ellipse cx="19.58" cy="55.004" fill="#FFF" fill-rule="nonzero" mask="url(#C)" opacity=".3" rx="2.797" ry="2.797"/>
            <ellipse cx="38.228" cy="55.004" fill="#FFF" fill-rule="nonzero" mask="url(#C)" opacity=".3" rx="2.797" ry="2.797"/>
            <ellipse cx="56.876" cy="55.004" fill="#FFF" fill-rule="nonzero" mask="url(#C)" opacity=".3" rx="2.797" ry="2.797"/>
            <ellipse cx="-8.392" cy="64.327" fill="#FFF" fill-rule="nonzero" mask="url(#C)" opacity=".3" rx="2.797" ry="2.797"/>
            <ellipse cx="10.256" cy="64.327" fill="#FFF" fill-rule="nonzero" mask="url(#C)" opacity=".3" rx="2.797" ry="2.797"/>
            <ellipse cx="28.904" cy="64.327" fill="#FFF" fill-rule="nonzero" mask="url(#C)" opacity=".3" rx="2.797" ry="2.797"/>
            <ellipse cx="47.552" cy="64.327" fill="#FFF" fill-rule="nonzero" mask="url(#C)" opacity=".3" rx="2.797" ry="2.797"/>
            <ellipse cx="66.2" cy="64.327" fill="#FFF" fill-rule="nonzero" mask="url(#C)" opacity=".3" rx="2.797" ry="2.797"/>
            <ellipse cx="-17.715" cy="73.65" fill="#FFF" fill-rule="nonzero" mask="url(#C)" opacity=".3" rx="2.797" ry="2.797"/>
            <ellipse cx=".932" cy="73.65" fill="#FFF" fill-rule="nonzero" mask="url(#C)" opacity=".3" rx="2.797" ry="2.797"/>
            <ellipse cx="19.58" cy="73.65" fill="#FFF" fill-rule="nonzero" mask="url(#C)" opacity=".3" rx="2.797" ry="2.797"/>
            <ellipse cx="38.228" cy="73.65" fill="#FFF" fill-rule="nonzero" mask="url(#C)" opacity=".3" rx="2.797" ry="2.797"/>
            <ellipse cx="56.876" cy="73.65" fill="#FFF" fill-rule="nonzero" mask="url(#C)" opacity=".3" rx="2.797" ry="2.797"/>
            <ellipse cx="-8.392" cy="82.972" fill="#FFF" fill-rule="nonzero" mask="url(#C)" opacity=".3" rx="2.797" ry="2.797"/>
            <ellipse cx="10.256" cy="82.972" fill="#FFF" fill-rule="nonzero" mask="url(#C)" opacity=".3" rx="2.797" ry="2.797"/>
            <ellipse cx="28.904" cy="82.972" fill="#FFF" fill-rule="nonzero" mask="url(#C)" opacity=".3" rx="2.797" ry="2.797"/>
            <ellipse cx="47.552" cy="82.972" fill="#FFF" fill-rule="nonzero" mask="url(#C)" opacity=".3" rx="2.797" ry="2.797"/>
            <ellipse cx="66.2" cy="82.972" fill="#FFF" fill-rule="nonzero" mask="url(#C)" opacity=".3" rx="2.797" ry="2.797"/>
            <ellipse cx="-17.715" cy="92.295" fill="#FFF" fill-rule="nonzero" mask="url(#C)" opacity=".3" rx="2.797" ry="2.797"/>
            <ellipse cx=".932" cy="92.295" fill="#FFF" fill-rule="nonzero" mask="url(#C)" opacity=".3" rx="2.797" ry="2.797"/>
            <ellipse cx="19.58" cy="92.295" fill="#FFF" fill-rule="nonzero" mask="url(#C)" opacity=".3" rx="2.797" ry="2.797"/>
            <ellipse cx="38.228" cy="92.295" fill="#FFF" fill-rule="nonzero" mask="url(#C)" opacity=".3" rx="2.797" ry="2.797"/>
            <ellipse cx="56.876" cy="92.295" fill="#FFF" fill-rule="nonzero" mask="url(#C)" opacity=".3" rx="2.797" ry="2.797"/>
            <path fill="#FFF" fill-rule="nonzero" d="M31.712 9.125c6.234 11.574 8.964 22.252 8.191 32.034-.773 9.783.482 32.111 3.764 66.985h8.428c-4.25-9.579-6.591-16.738-7.026-21.478-1.824-19.905-2.96-36.347-2.334-45.507.85-12.432-1.989-23.388-8.517-32.869l-2.506.835z" mask="url(#C)" opacity=".2"/>
            <path fill="#373A5B" fill-rule="nonzero" d="M55.132 39.33c2.187-11.933-.697-13.091-7.938-28.243 6.75 8.316 10.374 15.666 10.873 22.05.748 9.575 5.567.378 8.654 11.12 3.086 10.741 7.91 6.94 9.735 9.815 1.217 1.916-1 3.693-6.649 5.33l-15.762-1.564c-.74-7.641-.377-13.81 1.087-18.508zM10.03 3.38c.002 5.138 4.663 7.707 13.98 7.707 1 0 4.111 4.845 4.503 4.304.618-.855 2.148-3.456 3.84-3.53 3.375-.147 7.637 2.837 8.284 1.323.248-.58-2.074-3.11-6.966-7.59-2.651-4.304-5.705-6.617-9.16-6.94C21.053-1.67 16.226-.095 10.03 3.38zM-3.281 82.295c1.607-3.862 4.76-6.714 9.46-8.555l-.582 6.653-6.931 2.937-1.947-1.035zM90.664 13.893c.743 5.202 2.638 7.803 5.684 7.803 3.047 0 5.186-1.571 6.416-4.715L92.9 11.087l-2.237 2.806z" mask="url(#C)" opacity=".3"/>
            <path fill="#FFD5D7" fill-rule="nonzero" d="M21.445 1.53l6.76 13.233a1 1 0 0 0 1.654.192l4.359-5.15 5.642 3.492a1 1 0 0 0 1.397-1.343l-5.271-9.308-10.64-3.55L21.14 1.53" mask="url(#C)"/>
            <path fill="#FFD5D7" fill-rule="nonzero" d="M55.308 43.763c3.93-3.038 7.752-3.33 11.466-.878 5.57 3.678 2.091 14.125-6.188 13.755-5.52-.247-7.28-4.54-5.278-12.877zM14.232 39.155c-3.884.075-6.033 1.318-6.446 3.73-.62 3.618-.86 14.388 6.446 14.916 4.87.352 7.433-1.778 7.689-6.388l-7.69-12.258z"/>
        </g>
        <g transform="matrix(-1 0 0 1 302.975 206.036)">
            <mask id="F" fill="#fff">
                <use xlink:href="#D"/>
            </mask>
            <use fill="url(#E)" fill-rule="nonzero" xlink:href="#D"/>
            <path fill="#DA433D" fill-rule="nonzero" d="M2.823.5c1.348 8.374 4.893 12.894 10.635 13.561 5.742.667 8.391-1.154 7.948-5.463L2.823.501z" mask="url(#F)" opacity=".2"/>
        </g>
        <g transform="matrix(-1 0 0 1 305.772 189.255)">
            <mask id="H" fill="#fff">
                <use xlink:href="#G"/>
            </mask>
            <use fill="url(#u)" fill-rule="nonzero" xlink:href="#G"/>
            <path fill="#DA433D" fill-rule="nonzero" d="M23.154-1.116c-.01 6.15-2.218 9.815-6.621 10.996-4.403 1.182-7.578 1.003-9.523-.537.146-.264-.044-.812-.567-1.643-.524-.832 5.046-3.77 16.711-8.816z" mask="url(#H)" opacity=".2"/>
        </g>
        <g>
            <g transform="matrix(-1 0 0 1 306.658 260.062)">
                <mask id="K" fill="#fff">
                    <use xlink:href="#I"/>
                </mask>
                <use fill="url(#J)" fill-rule="nonzero" xlink:href="#I"/>
                <path fill="#DA433D" fill-rule="nonzero" d="M45.306-10.255c-7.916 1.631-13.1 3.977-15.554 7.037-2.455 3.06-2.01.715 1.331-7.037l12.71-1.306 1.513 1.306zM12.982 1.088c-.12 6.611-1.011 11.862-2.671 15.752-1.66 3.89-5.693 2.026-12.1-5.59l2.93-7.888L4.898.685l8.083.403z" mask="url(#K)" opacity=".2"/>
            </g>
            <g transform="matrix(-1 0 0 1 312.253 206.923)">
                <mask id="N" fill="#fff">
                    <use xlink:href="#L"/>
                </mask>
                <use fill="url(#M)" fill-rule="nonzero" xlink:href="#L"/>
                <path fill="#DA433D" fill-rule="nonzero" d="M3.527 41.02c-8.731 3.384-13.752 6.586-15.064 9.608-1.311 3.02-1.765.903-1.363-6.353l16.427-6.193v2.938z" mask="url(#N)" opacity=".2"/>
            </g>
        </g>
        <g>
            <g transform="translate(93.81 419.698)">
                <mask id="Q" fill="#fff">
                    <use xlink:href="#O"/>
                </mask>
                <use fill="url(#P)" fill-rule="nonzero" transform="matrix(-1 0 0 1 39.573 0)" xlink:href="#O"/>
                <path fill="#D8E8F8" fill-rule="nonzero" d="M41.855 11.507l.706 4.795.068.599H25.852c.016-.202.034-.401.054-.6H-.816v-4.794h27.544c1.226-4.735 13.537-8.599 15.127 0z" mask="url(#Q)"/>
            </g>
            <g transform="translate(45.66 419.698)">
                <mask id="S" fill="#fff">
                    <use xlink:href="#R"/>
                </mask>
                <use fill="url(#P)" fill-rule="nonzero" transform="matrix(-1 0 0 1 32.796 0)" xlink:href="#R"/>
                <path fill="#D8E8F8" fill-rule="nonzero" d="M16.598 5.403c5.005 0 9.46 2.39 12.315 6.104h5.181v4.795H.047v-4.795h4.235c2.856-3.715 7.31-6.104 12.316-6.104z" mask="url(#S)"/>
            </g>
            <g transform="translate(49.971 266.118)">
                <mask id="V" fill="#fff">
                    <use xlink:href="#T"/>
                </mask>
                <use fill="url(#U)" fill-rule="nonzero" xlink:href="#T"/>
                <path fill="#151731" fill-rule="nonzero" d="M54.25 16.713c-.482 8.693-7.401 13.04-20.758 13.04-20.034 0-2.904 22.213-23.37 27.351C5.758 58.2 2.865 60.2.893 62.666-3.956 68.734-4.387 47.412-.399-1.3L54.25-2.715v19.428z" mask="url(#V)" opacity=".3"/>
                <path fill="#151731" fill-rule="nonzero" d="M34.192 45.747l9.611-22.75c1.985 5.962 1.991 12.557.02 19.787-2.957 10.846 5.985 20.553.028 28.135-5.957 7.581 5.993 27.506-6.27 39.015-8.176 7.673-9.987 7.039-5.434-1.902l2.045-62.285z" mask="url(#V)" opacity=".3" transform="rotate(-8 37.826 69.124)"/>
            </g>
            <g transform="translate(31 182.893)">
                <mask id="Y" fill="#fff">
                    <use xlink:href="#W"/>
                </mask>
                <use fill="url(#X)" fill-rule="nonzero" xlink:href="#W"/>
                <path fill="#FFF" fill-rule="nonzero" d="M28.248 23.735h39.156l.911 4.425H25.29zM18.812 38.485H97.1v4.693H18.812zM-8.494 53.503H97.099v4.693H-8.494zM-8.494 68.522H97.099v4.693H-8.494zM-8.494 83.54H97.099v4.693H-8.494zM-8.494 98.559H97.099v4.693H-8.494z" mask="url(#Y)" opacity=".5"/>
                <path fill="#373A5B" fill-rule="nonzero" d="M69.423 45.906c.021-10.384-.88-18.746-2.706-25.085 3.289 1.935 5.185 6.116 5.688 12.543.756 9.64 5.623.38 8.74 11.196 3.117 10.815 10.986 3.728 12.829 6.622 1.229 1.929-2.009 4.805-9.712 8.626L69.423 45.906zM19.914-.384c.003 5.173 4.71 7.76 14.12 7.76S48.219 2.378 48.36-7.62L19.914-.384zM7.986 82.858c1.623-3.889 4.807-6.76 9.553-8.613l-.587 6.698-7 2.958-1.966-1.043zM102.86 13.988c.75 5.238 2.663 7.857 5.74 7.857 3.077 0 5.237-1.582 6.48-4.747l-9.962-5.935-2.258 2.825z" mask="url(#Y)" opacity=".3"/>
                <path fill="#373A5B" fill-rule="nonzero" d="M18.123 61.54c12.975-.272 22.74-.606 29.296-1.003 6.556-.397 10.621-.9 12.197-1.51-8.885 3.127-14.88 4.69-17.984 4.69-4.656 0-4.516-3.37-9.617 3.623-5.102 6.993-9.152-1.922-13.892 11.3-3.16 8.815-3.16 3.115 0-17.1zM48.36 51.716l-30.237-4.273.429-7.633 8.565-14.609c.43 1.43-.491 5.12-2.763 11.07-3.409 8.924 5.567.63 8.719 6.458 2.1 3.886 7.197 6.882 15.288 8.987z" mask="url(#Y)" opacity=".3"/>
            </g>
            <path fill="url(#Z)" fill-rule="nonzero" d="M8.013 2.687C13.287.524 24.726-2.062 27.281 4.02c2.554 6.08 5.565 13.652.898 16.778-4.666 3.126-7.65 7.912-12.657 6.527-3.338-.924-6.294.017-8.868 2.823-1.82-.232-2.955-.847-3.404-1.845C-1.308 18.158.805 5.644 8.013 2.687z" transform="translate(62.043 146)"/>
            <g transform="translate(64.866 170.584)">
                <mask id="ab" fill="#fff">
                    <use xlink:href="#aa"/>
                </mask>
                <use fill="url(#E)" fill-rule="nonzero" xlink:href="#aa"/>
                <path fill="#DA433D" fill-rule="nonzero" d="M2.683.82c1.36 8.491 4.936 13.076 10.73 13.752 5.792.677 8.465-1.17 8.018-5.54L2.683.819z" mask="url(#ab)" opacity=".2"/>
            </g>
            <g transform="translate(62.984 156.4)">
                <mask id="ad" fill="#fff">
                    <use xlink:href="#ac"/>
                </mask>
                <use fill="url(#u)" fill-rule="nonzero" xlink:href="#ac"/>
                <path fill="#DA433D" fill-rule="nonzero" d="M23.36-1.132c-.01 6.237-2.237 9.955-6.68 11.153-4.442 1.198-7.645 1.016-9.608-.545.147-.268-.043-.824-.572-1.667-.529-.843 5.092-3.823 16.86-8.94z" mask="url(#ad)" opacity=".2"/>
            </g>
            <g>
                <g transform="translate(99.944 182.893)">
                    <mask id="af" fill="#fff">
                        <use xlink:href="#ae"/>
                    </mask>
                    <use fill="url(#u)" fill-rule="nonzero" xlink:href="#ae"/>
                    <path fill="#DA433D" fill-rule="nonzero" d="M43.958 6.91c-2.308.293-3.462 1.742-3.462 4.347 0 3.907.053 7.389 3.462 8.284-3.986-.321-5.773-2.8-5.362-7.438.41-4.637 2.198-6.368 5.362-5.194z" mask="url(#af)" opacity=".2"/>
                </g>
                <g transform="translate(31 211.036)">
                    <path fill="url(#ag)" fill-rule="nonzero" d="M59.795.598L50.919 41.92l29.804-.644L90.24.598z"/>
                    <mask id="aj" fill="#fff">
                        <use xlink:href="#ah"/>
                    </mask>
                    <use fill="url(#ai)" fill-rule="nonzero" xlink:href="#ah"/>
                    <path fill="#DA433D" fill-rule="nonzero" d="M18.869 11.413C8.044 11.208 1.804 10.2.15 8.388c-1.653-1.811-.668-2.908 2.957-3.29l15.76 6.315z" mask="url(#aj)" opacity=".2"/>
                </g>
            </g>
        </g>
    </g>
</svg>
