<svg xmlns="http://www.w3.org/2000/svg" xmlns:xlink="http://www.w3.org/1999/xlink" width="748" height="481" viewBox="0 0 748 481">
    <defs>
        <linearGradient id="b" x1="25.79%" x2="89.698%" y1="92.518%" y2="-3.793%">
            <stop offset="0%" stop-color="#FCEFFF"/>
            <stop offset="100%" stop-color="#C9E7FF"/>
        </linearGradient>
        <path id="a" d="M14.4 0H648c7.953 0 14.4 6.447 14.4 14.4v422.4c0 7.953-6.447 14.4-14.4 14.4H14.4c-7.953 0-14.4-6.447-14.4-14.4V14.4C0 6.447 6.447 0 14.4 0z"/>
        <filter id="d" width="268.3%" height="287%" x="-84.2%" y="-93.5%" filterUnits="objectBoundingBox">
            <feOffset dy="26" in="SourceAlpha" result="shadowOffsetOuter1"/>
            <feGaussianBlur in="shadowOffsetOuter1" result="shadowBlurOuter1" stdDeviation="26.5"/>
            <feColorMatrix in="shadowBlurOuter1" result="shadowMatrixOuter1" values="0 0 0 0 0.306266344 0 0 0 0 0.773995536 0 0 0 0 0.759821924 0 0 0 0.25 0"/>
            <feMerge>
                <feMergeNode in="shadowMatrixOuter1"/>
                <feMergeNode in="SourceGraphic"/>
            </feMerge>
        </filter>
        <linearGradient id="f" x1="70.406%" x2="21.519%" y1="-8.059%" y2="92.592%">
            <stop offset="0%" stop-color="#39ABC5"/>
            <stop offset="100%" stop-color="#A8EB9D"/>
        </linearGradient>
        <path id="e" d="M9.6.317h160.8a9.6 9.6 0 0 1 9.6 9.6v141.6a9.6 9.6 0 0 1-9.6 9.6H9.6a9.6 9.6 0 0 1-9.6-9.6V9.917a9.6 9.6 0 0 1 9.6-9.6z"/>
        <filter id="h" width="109.7%" height="133.3%" x="-4.8%" y="-16.6%" filterUnits="objectBoundingBox">
            <feGaussianBlur in="SourceGraphic" stdDeviation="2.4"/>
        </filter>
        <filter id="i" width="269.3%" height="553.6%" x="-84.7%" y="-226.8%" filterUnits="objectBoundingBox">
            <feOffset dy="22" in="SourceAlpha" result="shadowOffsetOuter1"/>
            <feGaussianBlur in="shadowOffsetOuter1" result="shadowBlurOuter1" stdDeviation="22"/>
            <feColorMatrix in="shadowBlurOuter1" result="shadowMatrixOuter1" values="0 0 0 0 0.443137255 0 0 0 0 0.650980392 0 0 0 0 0.97254902 0 0 0 0.252887228 0"/>
            <feMerge>
                <feMergeNode in="shadowMatrixOuter1"/>
                <feMergeNode in="SourceGraphic"/>
            </feMerge>
        </filter>
        <linearGradient id="j" x1="23.698%" x2="84.005%" y1="162.283%" y2="-7.433%">
            <stop offset="0%" stop-color="#46E5F2"/>
            <stop offset="100%" stop-color="#9E66FF"/>
        </linearGradient>
        <linearGradient id="k" x1="67.813%" x2="6.662%" y1="0%" y2="100%">
            <stop offset="0%" stop-color="#FFB782"/>
            <stop offset="100%" stop-color="#EB4878"/>
        </linearGradient>
        <linearGradient id="l" x1="21.519%" x2="70.406%" y1="92.592%" y2="-8.059%">
            <stop offset="0%" stop-color="#39ABC5"/>
            <stop offset="100%" stop-color="#A8EB9D"/>
        </linearGradient>
        <linearGradient id="m" x1="-8.216%" x2="89.812%" y1="126.906%" y2="0%">
            <stop offset="0%" stop-color="#FFCFAA"/>
            <stop offset="100%" stop-color="#FA6EB9"/>
        </linearGradient>
        <linearGradient id="n" x1="84.873%" x2="13.408%" y1="26.003%" y2="100%">
            <stop offset="0%" stop-color="#E6AAFF"/>
            <stop offset="100%" stop-color="#3488ED"/>
        </linearGradient>
        <linearGradient id="o" x1="14.114%" x2="57.862%" y1="94.784%" y2="13.048%">
            <stop offset="0%" stop-color="#D4C4FF"/>
            <stop offset="100%" stop-color="#E4F6FF"/>
        </linearGradient>
        <linearGradient id="p" x1="78.565%" x2="45.216%" y1="13.015%" y2="167.155%">
            <stop offset="0%" stop-color="#FFC5A2"/>
            <stop offset="100%" stop-color="#FA96B9" stop-opacity=".51"/>
        </linearGradient>
        <linearGradient id="q" x1="9.105%" x2="87.601%" y1="110.865%" y2="23.826%">
            <stop offset="0%" stop-color="#FF9292"/>
            <stop offset="100%" stop-color="#FFB59D"/>
        </linearGradient>
        <linearGradient id="r" x1="25.093%" x2="117.883%" y1="65.302%" y2="-13.53%">
            <stop offset="0%" stop-color="#321847"/>
            <stop offset="100%" stop-color="#834A88"/>
        </linearGradient>
        <linearGradient id="t" x1="13.561%" x2="98.634%" y1="-68.368%" y2="97.339%">
            <stop offset="0%" stop-color="#CE8BA0"/>
            <stop offset="100%" stop-color="#875151"/>
        </linearGradient>
        <path id="s" d="M25.163.818c-1.305 5.31-5.913 8.165-13.825 8.568-7.912.403-11.284 3.26-10.116 8.569h39.675c4.36 0 6.013-1.59 4.956-4.771L42.583.818h-17.42z"/>
        <path id="v" d="M11.37.818c-1.763 3.18-4.323 6.037-7.68 8.568-5.035 3.798-3.12 8.569-.362 8.569h28.3c4.36 0 6.012-1.59 4.956-4.771L28.789.818H11.37z"/>
        <linearGradient id="y" x1="134.336%" x2="6.662%" y1="14.643%" y2="100%">
            <stop offset="0%" stop-color="#404683"/>
            <stop offset="100%" stop-color="#373A5B"/>
        </linearGradient>
        <path id="x" d="M85.501.415c6.667 46.16-3.12 65.24 0 105.868.72 9.364 0 44.96-.893 62.865-.193 3.868 2.4 8.687-1.847 9.6-4.248.912-16.82.546-19.581.546-2.761 0-1.274-4.79-1.274-8.526 0-28.22-4.281-29.973-3.364-44.793 1.16-18.744.538-44.75-6.383-78.02C45.25 65.19 37.274 81.875 32.743 98.01c-3.775 13.443 8.182 29.155 12.15 55.455.56 3.71 8.48 24.058 4.226 24.707-4.253.649-15.124.649-18.053.546-2.928-.102-5.98-9.983-9.563-21.462C17.919 145.777.266 113.385.266 98.01.266 87.76 8.584 55.23 25.218.415H85.5z"/>
        <linearGradient id="B" x1="43.498%" x2="79.041%" y1="90.881%" y2="0%">
            <stop offset="0%" stop-color="#5D63D3"/>
            <stop offset="100%" stop-color="#B986FF"/>
        </linearGradient>
        <path id="A" d="M64.745 2.475c8.27-1.538 24.653-3.287 42.474 0 5.655 1.043 10.735 4.348 13.875 7.916 17.722 18.385 24.946 33.382 29.439 38.894 2.994 3.675 2.876 7.634-.356 11.877-8.488 12.32-14.434 21.715-25.027 32.353-.601.604-1.574 3.024-3.247 3.886-4.218 0-7.894-3.224-11.03-9.673 10.188-16.097 16.805-26.069 19.852-29.916-7.45-7.61-13.772-13.323-18.967-17.141-2.545 19.858-3.83 32.807-3.856 38.847-.039 8.897 1.642 16.82 1.61 17.883-.096 3.218 4.156 4.073-6.346 8.439-10.501 4.366-38.655 1.126-48.446 0-9.792-1.126-10.797-4.22-8.128-10.163 2.668-5.943 4.254-19.51 4.759-40.703L35.093 64.59c-6.047 1.89-10.598.747-13.653-3.427-3.056-4.175-9.946-16.287-20.67-36.338 0-4.818 4.07-6.992 12.21-6.521L31.4 41.698l19.95-30.356c3.084-5.397 8.026-7.868 13.395-8.867z"/>
        <linearGradient id="E" x1="-8.216%" x2="-.379%" y1="126.906%" y2="-2.476%">
            <stop offset="0%" stop-color="#FF90D7"/>
            <stop offset="100%" stop-color="#906EFA"/>
        </linearGradient>
        <path id="D" d="M6.525.029h27.79c.907 0 1.782.34 2.451.954l17.536 16.095a3.626 3.626 0 0 1 1.174 2.671v40.713a6.043 6.043 0 0 1-6.044 6.043H6.525A6.043 6.043 0 0 1 .48 60.462V6.072A6.043 6.043 0 0 1 6.525.029z"/>
        <filter id="G" width="269.3%" height="282.7%" x="-84.7%" y="-91.4%" filterUnits="objectBoundingBox">
            <feOffset dy="22" in="SourceAlpha" result="shadowOffsetOuter1"/>
            <feGaussianBlur in="shadowOffsetOuter1" result="shadowBlurOuter1" stdDeviation="22"/>
            <feColorMatrix in="shadowBlurOuter1" result="shadowMatrixOuter1" values="0 0 0 0 0.768627451 0 0 0 0 0.494117647 0 0 0 0 0.91372549 0 0 0 0.25 0"/>
            <feMerge>
                <feMergeNode in="shadowMatrixOuter1"/>
                <feMergeNode in="SourceGraphic"/>
            </feMerge>
        </filter>
        <path id="H" d="M8 0h134a8 8 0 0 1 8 8v123a8 8 0 0 1-8 8H8a8 8 0 0 1-8-8V8a8 8 0 0 1 8-8z"/>
        <linearGradient id="J" x1="100%" x2="6.662%" y1="-28.986%" y2="100%">
            <stop offset="0%" stop-color="#FFB782"/>
            <stop offset="100%" stop-color="#FF739C"/>
        </linearGradient>
        <path id="K" d="M3.766.013h70.943a3 3 0 0 1 3 3v45.024a3 3 0 0 1-3 3H3.766a3 3 0 0 1-3-3V3.013a3 3 0 0 1 3-3z"/>
        <path id="M" d="M25.63.821c.635.492-2.213 2.52-8.545 6.084-3.836 2.16-8.725 4.372-14.667 6.637-3.866 1.473-2.905 4.486 1.534 4.486H41.43c4.378 0 6.037-1.597 4.976-4.79L43.12.82H25.63z"/>
        <path id="O" d="M14.936.821C10.462 5.684 6.54 9.387 3.17 11.93c-5.056 3.812-1.686 6.1 1.084 6.1h31.023c4.378 0 6.037-1.598 4.976-4.792L32.427.821h-17.49z"/>
        <path id="Q" d="M5.172.083c-10.617 25.61.922 66.737.922 108.308 0 9.517-4.264 71.34-.268 72.256 3.996.916 14.533.535 17.13.535 2.598 0 1.472-4.795 1.472-8.547 0-18.89 4.348-61.145 13.045-126.763 5.451 22.502 10.308 41.854 14.57 58.056 3.551 13.497-18.571 75.49-14.57 76.141 4 .652 14.227.652 16.982.549 2.755-.103 22.428-65.1 22.428-80.537 0-10.292-5.642-43.124-16.926-98.496L5.172.083z"/>
        <linearGradient id="S" x1="50%" x2="50%" y1="0%" y2="100%">
            <stop offset="0%" stop-color="#AF3053"/>
            <stop offset="100%" stop-color="#7A3343"/>
        </linearGradient>
        <path id="T" d="M43.87 4.338C21.21.538 43.541-.124 25.434 1.67c-7.418.735-14.92 4.243-22.508 10.523-4.289 3.495-3.434 23.359 0 36.265 3.25 12.219 9.323 14.965 9.343 19.39.038 8.932-9.343 21.104-9.343 44.748.746.083 4.533-18.997 5.26-18.92.898.096-.868 18.833 0 18.92 17.765 1.763 21.79 11.707 35.682 9.943 1.04-.132 2.602-7.695 4.684-22.69 2.278 15.25 4.08 22.812 5.409 22.69 5.457-.503 9.599-4.986 13.606-4.986.822 0-2.035-16.784-3.187-25.378-.497-3.707-2.118-14.45-2.118-29.279 0-5.783 5.785-8.365 17.356-7.745-8.727-31.343-20.643-48.28-35.75-50.813z"/>
        <linearGradient id="W" x1="60.082%" x2="0%" y1="23.826%" y2="110.63%">
            <stop offset="0%" stop-color="#F68585"/>
            <stop offset="100%" stop-color="#FF9B92"/>
        </linearGradient>
        <path id="V" d="M.442 14.595c3.392 6.946 12.244 9.033 14.146 9.033 1.268 0 1.69-2.43 1.268-7.287l.41-9.03L3.333.582c.544 8.99-.42 13.662-2.892 14.012z"/>
        <path id="Y" d="M26.93.83c1.927 5.038 2.769 8.598 2.527 10.681-1.301 11.19-3.431 21.021-8.499 21.021-7.038 0-13.804-7.836-15.577-15.4-.02-.083-.038-.165-.056-.246a3.892 3.892 0 1 1 2.69-6.012c.394.18 13.93.716 18.915-10.045z"/>
        <linearGradient id="ab" x1="9.105%" x2="89.138%" y1="110.865%" y2="8.547%">
            <stop offset="0%" stop-color="#FF9292"/>
            <stop offset="100%" stop-color="#FFB59D"/>
        </linearGradient>
        <path id="aa" d="M5.499 2.85l31.598-1.766C50.75-.099 56.875 2.36 55.472 8.462c-2.104 9.152-13.502 8.093-31.031 5.635-11.686-1.638-19.644-2.704-23.872-3.2l4.93-8.046z"/>
        <linearGradient id="ae" x1="12.462%" x2="87.601%" y1="91.981%" y2="23.826%">
            <stop offset="0%" stop-color="#FF9292"/>
            <stop offset="100%" stop-color="#FFCFBF"/>
        </linearGradient>
        <path id="ad" d="M14.424 69.996c-5.15 6.41-5.643 8.85-11.682 0-6.067-8.892 1.018-15.541 3.437-18.992C8.6 47.554 18.874 27.44 20.55 23.017c1.483-4.475 1.365-7.676-.354-9.603-2.638-2.956-5.013-5.982-2.28-5.689 5.068.544 3.675 3.925 9.446 3.221 5.771-.703 6.533-3.342 10.56-8.72 4.029-5.379.514 5.746-.787 8.261-1.3 2.516-2.064 6.705-4.046 8.128-1.22.876-2.304 3.1-3.226 6.583.19.12-8.085 35.646-15.439 44.798z"/>
        <linearGradient id="ah" x1="13.561%" x2="98.634%" y1="-68.368%" y2="97.339%">
            <stop offset="0%" stop-color="#8BC1CE"/>
            <stop offset="100%" stop-color="#6974B1"/>
        </linearGradient>
        <path id="ag" d="M24.554.846c-1.325 5.495-6.005 8.45-14.04 8.868C2.48 10.13-.945 13.086.241 18.58h40.291c4.429 0 6.107-1.646 5.034-4.938L42.243.846h-17.69z"/>
        <path id="aj" d="M11.547.846c-1.791 3.292-4.39 6.248-7.8 8.868-5.112 3.93-3.168 8.867-.367 8.867h28.738c4.429 0 6.107-1.646 5.034-4.938L29.236.846h-17.69z"/>
        <linearGradient id="am" x1="134.336%" x2="6.662%" y1="14.643%" y2="100%">
            <stop offset="0%" stop-color="#3067AC"/>
            <stop offset="100%" stop-color="#4E679A"/>
        </linearGradient>
        <path id="al" d="M1.261.421c-2.418 45.393.767 67.252 1.097 107.418.08 9.645-1.097 45.618-.19 63.784.196 3.925-2.438 8.815 1.877 9.74 4.316.927 17.088.555 19.893.555 2.806 0 1.294-4.859 1.294-8.65 0-19.09 4.066-60.626 12.197-124.61 5.002 18.06 9.093 36.12 12.273 54.18 3.5 19.881.494 77.704 4.71 77.971 4.217.267 15.366.659 18.341.555 2.834-.1 6.247-64.425 5.415-83.006C77.613 85.97 72.392 53.325 62.506.42H1.261z"/>
        <path id="ao" d="M70.286 2.225c-7.849-2.512-24.097-3.329-42.115 0C19.594 3.81 12.833 7.031 9.498 15.006 6.182 22.936 1.882 31.763.175 39.309c7.908 3.694 15.265 5.935 22.071 6.724v25.43c.566 12.57.156 22.662-1.23 30.274-2.25 12.372-3.23 21.163-3.216 21.606.097 3.26 1.665 2.163 10.496 3.563 8.83 1.4 34.684-2.75 43.335-3.563 5.767-.542 12.465-.542 20.093 0L80.501 41.597l13.463-11.812L80.527 9.3c-1.594-3.042-5.008-5.4-10.24-7.076z"/>
        <linearGradient id="aq" x1="24.242%" x2="117.883%" y1="93.583%" y2="-13.53%">
            <stop offset="0%" stop-color="#FFA77B"/>
            <stop offset="100%" stop-color="#FFE6CA"/>
        </linearGradient>
        <path id="ar" d="M.497 14.909c6.941 6.12 11.685 9.18 14.23 9.18 2.546 0 3.515-3.06 2.909-9.18l-1.222-7.404L3.406.67l-2.91 14.24z"/>
        <path id="at" d="M27.09.843c1.94 5.12 2.787 8.739 2.543 10.856-1.309 11.372-3.932 17.058-7.622 17.058-7.08 0-14.814-3.66-16.598-11.348l-.056-.249a3.91 3.91 0 0 1-.552.04c-2.162 0-3.914-1.771-3.914-3.956 0-2.184 1.752-3.954 3.914-3.954 1.36 0 2.557.699 3.259 1.761.395.182 14.012.728 19.027-10.208z"/>
        <path id="av" d="M25.19 63.267c-4.376.631-12.51-1.92-24.4-7.653V38.617l12.965-8.407 7.384 9.512 19.4-22.924c1.522-3.46 2.513-6.613 4.04-8.422 2.44-2.892.005-7.64 2.69-7.64.514 0 2.205 1.15 2.47 2.544.21 1.102.21 2.393 0 3.873 3.588.347 5.806 1.029 6.655 2.046 1.332 1.596.773 8.04 0 10.16-1.079 2.959-2.492 2.959-5.526 3.885-.745.227-1.79.74-3.136 1.54C37.05 49.812 29.536 62.64 25.19 63.267z"/>
        <linearGradient id="ax" x1="50%" x2="50%" y1="0%" y2="100%">
            <stop offset="0%" stop-color="#A3EDED"/>
            <stop offset="100%" stop-color="#9FCFFF"/>
        </linearGradient>
        <linearGradient id="az" x1="9.105%" x2="71.9%" y1="110.865%" y2="24.893%">
            <stop offset="0%" stop-color="#FF9292"/>
            <stop offset="100%" stop-color="#FFB59D"/>
        </linearGradient>
        <path id="ay" d="M4.585 35.955c-4.18-3.586-6.212-13.294-2.71-28.71 7.298 3.185 13.944 5.064 19.94 5.638l-3.492 7.286 37.912 6.726-.015-.103c3.525-3.025 6.281-4.538 8.27-4.538l-.785 3.693c4.897-.195 8.482-1.426 10.755-3.693 3.41-3.4 1.723 4.205-.487 5.382-2.21 1.176-1.245 7.949-6.546 9.013-3.534.71-12.162.593-12.11.362C24.54 39.17 8.676 39.464 4.585 35.955z"/>
    </defs>
    <g fill="none" fill-rule="evenodd">
        <g transform="translate(46 29)">
            <mask id="c" fill="#fff">
                <use xlink:href="#a"/>
            </mask>
            <use fill="url(#b)" fill-rule="nonzero" xlink:href="#a"/>
            <path fill="url(#b)" fill-rule="nonzero" d="M0 37.2h110.4v414h-96c-7.953 0-14.4-6.447-14.4-14.4V37.2z" mask="url(#c)"/>
            <path fill="#FFF" fill-rule="nonzero" d="M55.2 109.2c-11.267 0-20.4-9.133-20.4-20.4s9.133-20.4 20.4-20.4 20.4 9.133 20.4 20.4-9.133 20.4-20.4 20.4zm0-4.8c8.616 0 15.6-6.984 15.6-15.6s-6.984-15.6-15.6-15.6-15.6 6.984-15.6 15.6 6.984 15.6 15.6 15.6z" mask="url(#c)"/>
            <path fill="#FFF" fill-rule="nonzero" d="M14.4 0H648c7.953 0 14.4 6.447 14.4 14.4v22.8H0V14.4C0 6.447 6.447 0 14.4 0z" mask="url(#c)" opacity=".45"/>
            <circle cx="22.8" cy="18.6" r="4.8" fill="#F3757C" fill-rule="nonzero" mask="url(#c)"/>
            <circle cx="40.8" cy="18.6" r="4.8" fill="#C1A4FF" fill-rule="nonzero" mask="url(#c)"/>
            <circle cx="58.8" cy="18.6" r="4.8" fill="#85CFF3" fill-rule="nonzero" mask="url(#c)"/>
            <path fill="#FFF" fill-rule="nonzero" d="M44.558 136.892a2.4 2.4 0 0 1 0-4.8h21.284a2.4 2.4 0 1 1 0 4.8H44.558zM146.16 76.892a2.4 2.4 0 1 1 0-4.8h21.285a2.4 2.4 0 0 1 0 4.8H146.16z" mask="url(#c)"/>
            <path fill="#EAF2FF" fill-rule="nonzero" d="M32.558 148.892a2.4 2.4 0 0 1 0-4.8h45.284a2.4 2.4 0 1 1 0 4.8H32.558z" mask="url(#c)"/>
            <path fill="#F2F4FF" fill-rule="nonzero" d="M146.16 88.892a2.4 2.4 0 1 1 0-4.8h45.285a2.4 2.4 0 0 1 0 4.8H146.16z" mask="url(#c)"/>
        </g>
        <g filter="url(#d)" transform="translate(139 92)">
            <mask id="g" fill="#fff">
                <use xlink:href="#e"/>
            </mask>
            <use fill="url(#f)" fill-rule="nonzero" xlink:href="#e"/>
            <path fill="#FFF" fill-rule="nonzero" d="M118.355.317h42v107.366h-42z" mask="url(#g)" opacity=".2"/>
            <path fill="#FFF" fill-rule="nonzero" d="M0 108.354h180v43.163a9.6 9.6 0 0 1-9.6 9.6H9.6a9.6 9.6 0 0 1-9.6-9.6v-43.163z" mask="url(#g)"/>
            <path fill="#EF8BDB" fill-rule="nonzero" d="M21.6 129a2.4 2.4 0 0 1 0-4.8h21.285a2.4 2.4 0 0 1 0 4.8H21.6z" mask="url(#g)"/>
            <path fill="#EAE8E9" fill-rule="nonzero" d="M21.6 141a2.4 2.4 0 0 1 0-4.8h45.285a2.4 2.4 0 0 1 0 4.8H21.6z" mask="url(#g)"/>
            <path fill="#1E6A79" fill-rule="nonzero" d="M13.38 87.147a1.2 1.2 0 1 1 0-2.4c2.815 0 5.717-1.129 8.967-3.385 2-1.388 4.103-3.174 6.65-5.594a204.678 204.678 0 0 0 3.452-3.371 850.359 850.359 0 0 0 1.767-1.762c.728-.726 1.266-1.26 1.8-1.786 11.704-11.552 19.618-16.59 29.943-16.59 9.724 0 15.484 1.957 25.716 7.446l.72.387c10.45 5.608 16.196 7.547 26.28 7.547 10.096 0 16.156-3.513 23.33-11.484.58-.646 3.183-3.615 3.89-4.394 4.981-5.488 8.764-7.884 14.182-7.884a1.2 1.2 0 1 1 0 2.4c-4.579 0-7.835 2.063-12.404 7.097-.69.76-3.288 3.723-3.885 4.387-7.585 8.428-14.225 12.278-25.113 12.278-10.561 0-16.647-2.054-27.415-7.833l-.72-.386c-9.913-5.319-15.337-7.161-24.581-7.161-9.493 0-16.977 4.765-28.258 15.898a474.145 474.145 0 0 0-2.677 2.662l-.882.88a206.838 206.838 0 0 1-3.492 3.41c-2.629 2.496-4.817 4.355-6.935 5.825-3.617 2.511-6.964 3.813-10.336 3.813z" filter="url(#h)" mask="url(#g)" opacity=".4"/>
            <path fill="#FFF" fill-rule="nonzero" d="M13.38 87.147a1.2 1.2 0 1 1 0-2.4c2.686 0 5.495-1.403 8.66-4.225 1.963-1.75 4.028-4.002 6.529-7.051a236.177 236.177 0 0 0 3.386-4.247 988.149 988.149 0 0 0 1.732-2.217c.713-.913 1.24-1.585 1.762-2.247 11.49-14.56 19.245-20.901 29.464-20.901 9.657 0 15.352 3.052 25.424 11.576l.706.598c10.199 8.635 15.78 11.606 25.538 11.606 9.804 0 15.727-4.389 22.758-14.372.571-.811 3.121-4.53 3.813-5.503 4.887-6.88 8.6-9.887 14.007-9.887a1.2 1.2 0 1 1 0 2.4c-4.392 0-7.577 2.58-12.05 8.876-.678.954-3.224 4.667-3.808 5.496-7.434 10.557-13.958 15.39-24.72 15.39-10.477 0-16.492-3.203-27.089-12.174l-.705-.598c-9.674-8.186-14.94-11.008-23.874-11.008-9.205 0-16.54 5.997-27.58 19.987a550.342 550.342 0 0 0-2.624 3.352l-.865 1.106a238.33 238.33 0 0 1-3.42 4.289c-2.572 3.137-4.714 5.473-6.786 7.32-3.565 3.178-6.88 4.834-10.259 4.834z" mask="url(#g)"/>
            <path fill="#FFF" fill-rule="nonzero" d="M160.355 43.593a4.397 4.397 0 1 1 0-8.793 4.397 4.397 0 0 1 0 8.793zm0-2.4a1.997 1.997 0 1 0 0-3.993 1.997 1.997 0 0 0 0 3.993z" mask="url(#g)"/>
            <circle cx="118.355" cy="69.197" r="3.197" fill="#FFF" fill-rule="nonzero" mask="url(#g)"/>
        </g>
        <g fill-rule="nonzero" filter="url(#i)" transform="translate(247 290)">
            <path fill="url(#j)" d="M8 0h134a8 8 0 0 1 8 8v40a8 8 0 0 1-8 8H8a8 8 0 0 1-8-8V8a8 8 0 0 1 8-8z"/>
            <path fill="#FFF" d="M60 24.5a2 2 0 1 1 0-4h17.737a2 2 0 1 1 0 4H60z"/>
            <path fill="#FFF" d="M60 34.5a2 2 0 1 1 0-4h37.737a2 2 0 1 1 0 4H60z" opacity=".3"/>
            <circle cx="31" cy="28" r="13" fill="#FFF" opacity=".2"/>
            <path fill="#FFF" d="M31 30.044c-2.12 0-3.85-1.682-3.85-3.772S28.88 22.5 31 22.5s3.85 1.683 3.85 3.772c0 2.09-1.73 3.772-3.85 3.772zm0-2c1.028 0 1.85-.8 1.85-1.772S32.027 24.5 31 24.5s-1.85.8-1.85 1.772c0 .973.822 1.772 1.85 1.772z"/>
            <path fill="#FFF" d="M34.85 31.971a1 1 0 0 1-2 0c0-.972-.822-1.772-1.85-1.772s-1.85.8-1.85 1.772a1 1 0 1 1-2 0c0-2.09 1.73-3.772 3.85-3.772s3.85 1.683 3.85 3.772z" opacity=".3"/>
        </g>
        <g transform="translate(355 380)">
            <circle cx="16" cy="16" r="16" fill="url(#k)" fill-rule="nonzero"/>
            <path fill="#FFF" fill-rule="nonzero" d="M16 28.844c-7.094 0-12.844-5.75-12.844-12.844C3.156 8.906 8.906 3.156 16 3.156c7.094 0 12.844 5.75 12.844 12.844 0 7.094-5.75 12.844-12.844 12.844zm0-2c5.99 0 10.844-4.855 10.844-10.844 0-5.99-4.855-10.844-10.844-10.844C10.01 5.156 5.156 10.01 5.156 16c0 5.99 4.855 10.844 10.844 10.844z" opacity=".3"/>
            <path fill="#FFF" d="M19.581 17.918c0 .702-.24 1.293-.721 1.774-.481.481-1.129.79-1.944.93v.74a.765.765 0 0 1-.214.566.765.765 0 0 1-.566.214.77.77 0 0 1-.558-.214.752.752 0 0 1-.221-.566v-.701a5.76 5.76 0 0 1-1.385-.3 4.614 4.614 0 0 1-1.176-.598.785.785 0 0 1-.293-.292.883.883 0 0 1-.085-.41c0-.216.068-.407.202-.572.134-.164.288-.247.462-.247.164 0 .368.07.61.209.4.234.778.405 1.138.513.36.108.734.163 1.124.163.52 0 .92-.098 1.197-.293.277-.195.416-.47.416-.825a.673.673 0 0 0-.241-.534 1.727 1.727 0 0 0-.591-.325 21.093 21.093 0 0 0-1.014-.298 13.61 13.61 0 0 1-1.587-.494 2.67 2.67 0 0 1-1.072-.78c-.299-.356-.448-.832-.448-1.43 0-.703.249-1.305.747-1.807.498-.503 1.15-.824 1.957-.962v-.742c0-.234.073-.422.22-.565a.77.77 0 0 1 .56-.214c.234 0 .422.071.565.214a.765.765 0 0 1 .215.566v.714c.78.105 1.512.4 2.197.884.13.087.223.187.279.3a.892.892 0 0 1 .085.402.878.878 0 0 1-.202.572c-.134.165-.288.248-.461.248a.88.88 0 0 1-.267-.04 1.852 1.852 0 0 1-.345-.168 5.973 5.973 0 0 0-.955-.508c-.282-.112-.626-.168-1.034-.168-.468 0-.842.103-1.124.311a.983.983 0 0 0-.422.832c0 .243.082.44.247.592.164.152.372.27.623.357.252.087.603.187 1.053.3.633.156 1.151.314 1.554.474.403.16.75.416 1.04.767.29.351.435.821.435 1.41z"/>
        </g>
        <g fill-rule="nonzero" transform="translate(415 117)">
            <circle cx="16" cy="16" r="16" fill="url(#l)"/>
            <path fill="#FFF" d="M20.39 12.755a1 1 0 0 1 1.413 1.414l-5.657 5.657a1 1 0 0 1-1.414 0l-3.535-3.536a1 1 0 1 1 1.414-1.414l2.828 2.828 4.95-4.95z"/>
        </g>
        <g fill-rule="nonzero">
            <path fill="url(#m)" d="M0 16.059C0 7.189 7.19 0 16.059 0s16.059 7.19 16.059 16.059c0 5.519-2.186 9.836-6.557 12.952a4 4 0 0 0-1.679 3.257v3.144H8.235v-3.144a4 4 0 0 0-1.678-3.257C2.186 25.895 0 21.578 0 16.059z" transform="translate(195 318)"/>
            <path fill="#FFF" d="M211.059 343.23a8.412 8.412 0 1 1 0-16.824 8.412 8.412 0 0 1 0 16.823zm0-2a6.412 6.412 0 1 0 0-12.824 6.412 6.412 0 0 0 0 12.823z" opacity=".3"/>
            <path fill="url(#n)" d="M10.706 36.788h10.706a2.47 2.47 0 0 1 0 4.941H10.706a2.47 2.47 0 1 1 0-4.941z" transform="translate(195 318)"/>
            <path fill="#FFF" d="M208.682 335.051a1 1 0 0 1-.707.293h-7.174a1 1 0 1 1 0-2h6.76l2.107-2.106a1 1 0 0 1 1.664.416l1.07 3.522.652-1.284a1 1 0 0 1 .892-.548h8.574a1 1 0 0 1 0 2h-7.96l-1.5 2.954c-.407.803-1.586.7-1.848-.162l-1.309-4.305-1.22 1.22z"/>
        </g>
        <g fill-rule="nonzero">
            <path fill="url(#k)" d="M3.704 3.137h17.51a3.84 3.84 0 0 1 3.306 1.888l3.44 5.825a3.84 3.84 0 0 0 3.306 1.887h34.838a2.88 2.88 0 0 1 2.88 2.88v38.4a2.88 2.88 0 0 1-2.88 2.88h-62.4a2.88 2.88 0 0 1-2.88-2.88v-48a2.88 2.88 0 0 1 2.88-2.88z" transform="translate(386)"/>
            <path fill="url(#o)" d="M15.596.257h43.947A2.88 2.88 0 0 1 62.32 3.9L50.461 47.1a2.88 2.88 0 0 1-2.777 2.117H3.737A2.88 2.88 0 0 1 .96 45.575l11.859-43.2A2.88 2.88 0 0 1 15.596.257z" transform="translate(396.904 .55)"/>
            <path fill="url(#p)" d="M11.835 19.2h64.133a2.88 2.88 0 0 1 2.79 3.595l-8.123 31.68a2.88 2.88 0 0 1-2.79 2.165H3.712a2.88 2.88 0 0 1-2.79-3.595l8.123-31.68a2.88 2.88 0 0 1 2.79-2.165z" transform="translate(386)"/>
        </g>
        <g fill-rule="nonzero">
            <path fill="url(#q)" d="M22.528 19.486l5.45-.054 1.198 16.212c-2.753 3.104-5.731 4.488-8.935 4.15-3.204-.336-6.342-2.555-9.414-6.657l1.885-5.92c-2.49.734-4.833.992-6.26.992C1.78 28.209.243 18.797.37.853c3.685 2.391 17.6 1.786 22.549 0-.038 2.107 2.207 12.213-.391 18.633z" transform="translate(463.262 156.796)"/>
            <path fill="url(#r)" d="M11.423 21.014c-.85 0-1.64.261-2.3.71-.462-1.955-1.268-5.756-2.502-6.578-5.357-3.57-8.564-9.168-4.764-12.823C5.657-1.332 20.605 1.4 24.38 1.07c6.015-.527 9.023 1.941 9.025 7.405 1.42-.682 3.354-.365 3.825 0 2.67 2.065 2.528 11.212-2.404 22.773-1.254 2.938-3.972 4.404-7.975 4.404-3.798 0-6.824.67-8.517-2.297-1.205-2.11-2.668-3.568-4.098-4.821a4.372 4.372 0 0 0 1.372-3.199c0-2.386-1.874-4.32-4.185-4.32z" transform="translate(460.022 147.076)"/>
        </g>
        <g transform="translate(428.636 462.44)">
            <mask id="u" fill="#fff">
                <use xlink:href="#s"/>
            </mask>
            <use fill="url(#t)" fill-rule="nonzero" xlink:href="#s"/>
            <path fill="#373A5B" fill-rule="nonzero" d="M.997 11.88h45.166v6.098H.997z" mask="url(#u)" opacity=".2"/>
        </g>
        <g transform="translate(479.396 462.44)">
            <mask id="w" fill="#fff">
                <use xlink:href="#v"/>
            </mask>
            <use fill="url(#t)" fill-rule="nonzero" transform="matrix(-1 0 0 1 37.451 0)" xlink:href="#v"/>
            <path fill="#373A5B" fill-rule="nonzero" d="M.559 11.88h36.334v6.098H.559z" mask="url(#w)" opacity=".2"/>
        </g>
        <g fill="url(#q)" fill-rule="nonzero" transform="translate(388 193.52)">
            <path d="M18.878 5.288c2.352 1.593 3.825 4.204 4.42 7.834-.588 3.78-1.588 6.2-2.999 7.264-1.411 1.062-2.692 1.431-3.843 1.106-2.891-3.915-5.869-6.705-8.932-8.37C2.928 10.626 3.43 9.517 2.748 7.21c-.259-.874-2.79-5.017-2.743-5.84C.08.014 2.523.528 3.69 2.898 4.944 5.443 8.447 6.696 14.2 6.66c-1.742-2.507-2.189-4.27-1.34-5.292 1.273-1.53 2.49 1.532 6.018 3.92zM112.14 88.974c-.537.9-3.377 3.863-3.973 4.516-.596.654 2.909.459 2.002 1.911-1.361 2.179 2.753 1.128 2.279 2.539-.653 1.943 2.486-.378 4.218-1.748 1.732-1.37 3.688 2.158 7.857.241 1.204-.553 3.923-2.96 7.21-6.549-2.29-3.592-5.407-6.127-9.35-7.606l-3.14.47.181 1.82c.128.943-.221 2.17-1.365 2.17s-6.21-.023-7.39.425c-.788.298-2.498 1.317-5.133 3.055.245 1.012 2.63.856 3.952-.334.736-.663 2.727-1.037 2.652-.91z"/>
        </g>
        <g transform="translate(422.64 285.32)">
            <mask id="z" fill="#fff">
                <use xlink:href="#x"/>
            </mask>
            <use fill="url(#y)" fill-rule="nonzero" xlink:href="#x"/>
            <path fill="#151731" fill-rule="nonzero" d="M84.883 5.956c-3.08 4.807-11.109 7.21-24.088 7.21-19.468 0-8.991 15.227-28.879 20.251-19.887 5.025-9.179 26.69-21.27 26.69-8.06 0-9.077-19.897-3.05-59.692l77.287 5.541z" mask="url(#z)" opacity=".3"/>
            <path fill="#151731" fill-rule="nonzero" d="M52.159 47.955c6.041-9.353 9.847-17.806 11.417-25.36 1.187 10.498-.13 18.128-3.952 22.89-5.732 7.143 8.08 17.677 1.61 30.204-4.312 8.352-6.737 15.24-7.274 20.663l-1.801-48.397z" mask="url(#z)" opacity=".3"/>
        </g>
        <g transform="translate(398.88 187.04)">
            <mask id="C" fill="#fff">
                <use xlink:href="#A"/>
            </mask>
            <use fill="url(#B)" fill-rule="nonzero" xlink:href="#A"/>
            <path fill="#373A5B" fill-rule="nonzero" d="M58.709-.441C55.606 3.453 59.45 5.4 70.244 5.4s20.198-2.52 28.214-7.56L58.708-.441zM50.982 55.102l16.726-15.567c.865 2.614.865 4.795 0 6.542-2.326 4.698-8.25 6.651-6.566 14.378 4.213 19.335-8.506 8.116-8.506 25.085 0 11.312-3.97 14.839-11.911 10.579l10.257-41.017zM111.641 41.09l2.53-18.146c1.28 12.097 4.375 18.79 9.283 20.077 7.362 1.931 4.575 11.215 7.206 14.747-3.65.364-9.146 1.008-16.489 1.93l-2.53-18.609z" mask="url(#C)" opacity=".3"/>
        </g>
        <g transform="translate(0 113)">
            <mask id="F" fill="#fff">
                <use xlink:href="#D"/>
            </mask>
            <use fill="url(#E)" fill-rule="nonzero" xlink:href="#D"/>
            <path fill="#FFF" fill-rule="nonzero" d="M9.997 11.481a.9.9 0 1 1 0-1.8h8.823a.9.9 0 0 1 0 1.8H9.997z" mask="url(#F)"/>
            <path fill="#BF9EF5" fill-rule="nonzero" d="M9.997 16.83a.9.9 0 1 1 0-1.8h14.736a.9.9 0 1 1 0 1.8H9.997z" mask="url(#F)"/>
            <g fill-rule="nonzero" mask="url(#F)">
                <path fill="#373A5B" d="M10.744 30.8h34.36a2 2 0 0 1 2 2v20a2 2 0 0 1-2 2h-34.36a2 2 0 0 1-2-2v-20a2 2 0 0 1 2-2z" opacity=".1"/>
                <path fill="#FFF" d="M10.744 28.8h34.36a2 2 0 0 1 2 2v20a2 2 0 0 1-2 2h-34.36a2 2 0 0 1-2-2v-20a2 2 0 0 1 2-2z" opacity=".54"/>
                <path fill="#FFF" d="M10.744 28.8h22.793v24H10.744a2 2 0 0 1-2-2v-20a2 2 0 0 1 2-2z"/>
                <path fill="#FB8FB4" d="M21.744 43.036a4.9 4.9 0 1 1 0-9.8 4.9 4.9 0 0 1 0 9.8zm0-1.8a3.1 3.1 0 1 0 0-6.2 3.1 3.1 0 0 0 0 6.2z"/>
                <path fill="#D9EFF3" d="M17.333 47.518a.9.9 0 1 1 0-1.8h8.822a.9.9 0 0 1 0 1.8h-8.822z"/>
            </g>
            <path fill="url(#E)" fill-rule="nonzero" d="M40.96-47.331h27.79c.908 0 1.783.34 2.452.954l17.535 16.095a3.626 3.626 0 0 1 1.174 2.671v40.713a6.043 6.043 0 0 1-6.043 6.043H40.96a6.043 6.043 0 0 1-6.043-6.043v-54.39a6.043 6.043 0 0 1 6.043-6.043z" mask="url(#F)"/>
        </g>
        <g filter="url(#G)" transform="translate(540 87)">
            <mask id="I" fill="#fff">
                <use xlink:href="#H"/>
            </mask>
            <use fill="#FFF" fill-rule="nonzero" xlink:href="#H"/>
            <path fill="#F8FDFF" fill-rule="nonzero" d="M.721 90.264h149v41a8 8 0 0 1-8 8h-133a8 8 0 0 1-8-8v-41z" mask="url(#I)"/>
            <path fill="#C47EE9" fill-rule="nonzero" d="M21.353 119.835a2 2 0 1 1 0-4H39.09a2 2 0 0 1 0 4H21.353z" mask="url(#I)"/>
            <path fill="#C47EE9" fill-rule="nonzero" d="M21.353 109.835a2 2 0 1 1 0-4H32.09a2 2 0 0 1 0 4H21.353z" mask="url(#I)" opacity=".3"/>
            <path fill="#C47EE9" fill-rule="nonzero" d="M66.353 119.835a2 2 0 1 1 0-4H84.09a2 2 0 0 1 0 4H66.353z" mask="url(#I)"/>
            <path fill="#C47EE9" fill-rule="nonzero" d="M66.353 109.835a2 2 0 1 1 0-4H77.09a2 2 0 0 1 0 4H66.353z" mask="url(#I)" opacity=".3"/>
            <path fill="#C47EE9" fill-rule="nonzero" d="M111.353 119.835a2 2 0 1 1 0-4h17.737a2 2 0 1 1 0 4h-17.737z" mask="url(#I)"/>
            <path fill="#C47EE9" fill-rule="nonzero" d="M111.353 109.835a2 2 0 1 1 0-4h10.737a2 2 0 1 1 0 4h-10.737z" mask="url(#I)" opacity=".3"/>
            <path fill="#FFA189" fill-rule="nonzero" d="M30.272 50.56L19.15 61.096l-.688-.726 11.185-10.586 9.18-6.233.154-.07 10.851-2.836 10.031 9.095 9.325 4.222 9.75-9.13.092-.068 10.272-5.917 10.346-5.334 9.952 11.285 9.893 5.199 9.44-9.413.706.708-9.96 9.932-10.625-5.584-.143-.112-9.497-10.77-9.633 4.967-10.202 5.877-10.195 9.547-10.005-4.53-.13-.086-9.688-8.783-10.244 2.676z" mask="url(#I)" opacity=".3"/>
            <path fill="url(#J)" fill-rule="nonzero" d="M17.893 54.617a1.5 1.5 0 0 1 3 0v10.931a1.5 1.5 0 1 1-3 0V54.617zm10-10a1.5 1.5 0 0 1 3 0v10.931a1.5 1.5 0 1 1-3 0V44.617zm10-10a1.5 1.5 0 0 1 3 0v20.931a1.5 1.5 0 1 1-3 0V34.617zm10 0a1.5 1.5 0 0 1 3 0v10.931a1.5 1.5 0 1 1-3 0V34.617zm10 10a1.5 1.5 0 0 1 3 0v10.931a1.5 1.5 0 1 1-3 0V44.617zm10 3a1.5 1.5 0 0 1 3 0v10.931a1.5 1.5 0 1 1-3 0V47.617zm10-8a1.5 1.5 0 0 1 3 0v10.931a1.5 1.5 0 1 1-3 0V39.617zm10-5a1.5 1.5 0 0 1 3 0v10.931a1.5 1.5 0 1 1-3 0V34.617zm10-10a1.5 1.5 0 0 1 3 0v20.931a1.5 1.5 0 0 1-3 0V24.617zm10 10a1.5 1.5 0 0 1 3 0v17.931a1.5 1.5 0 0 1-3 0V34.617zm10 5a1.5 1.5 0 0 1 3 0v20.931a1.5 1.5 0 0 1-3 0V39.617zm10-5a1.5 1.5 0 0 1 3 0v10.931a1.5 1.5 0 0 1-3 0V34.617z" mask="url(#I)"/>
        </g>
        <g transform="translate(571 374)">
            <mask id="L" fill="#fff">
                <use xlink:href="#K"/>
            </mask>
            <use fill="url(#m)" fill-rule="nonzero" xlink:href="#K"/>
            <g fill-rule="nonzero" mask="url(#L)">
                <path fill="#373A5B" d="M12.502 20.664h17a2 2 0 0 1 2 2v20a2 2 0 0 1-2 2h-17a2 2 0 0 1-2-2v-20a2 2 0 0 1 2-2z" opacity=".1"/>
                <path fill="#FFF" d="M12.502 18.664h17a2 2 0 0 1 2 2v20a2 2 0 0 1-2 2h-17a2 2 0 0 1-2-2v-20a2 2 0 0 1 2-2z"/>
                <path fill="#FB8FB4" d="M21.002 31.9a3.9 3.9 0 1 1 0-7.8 3.9 3.9 0 0 1 0 7.8zm0-1.8a2.1 2.1 0 1 0 0-4.2 2.1 2.1 0 0 0 0 4.2z"/>
                <path fill="#D9EFF3" d="M18.09 37.382a.9.9 0 1 1 0-1.8h5.824a.9.9 0 0 1 0 1.8H18.09z"/>
            </g>
            <g fill-rule="nonzero" mask="url(#L)" opacity=".4">
                <path fill="#373A5B" d="M37.792 20.664h17a2 2 0 0 1 2 2v20a2 2 0 0 1-2 2h-17a2 2 0 0 1-2-2v-20a2 2 0 0 1 2-2z" opacity=".1"/>
                <path fill="#FFF" d="M37.792 18.664h17a2 2 0 0 1 2 2v20a2 2 0 0 1-2 2h-17a2 2 0 0 1-2-2v-20a2 2 0 0 1 2-2z"/>
                <path fill="#FB8FB4" d="M46.292 31.9a3.9 3.9 0 1 1 0-7.8 3.9 3.9 0 0 1 0 7.8zm0-1.8a2.1 2.1 0 1 0 0-4.2 2.1 2.1 0 0 0 0 4.2z"/>
                <path fill="#D9EFF3" d="M43.38 37.382a.9.9 0 1 1 0-1.8h5.824a.9.9 0 0 1 0 1.8H43.38z"/>
            </g>
            <g fill-rule="nonzero" mask="url(#L)" opacity=".4">
                <path fill="#373A5B" d="M63.082 20.664h17a2 2 0 0 1 2 2v20a2 2 0 0 1-2 2h-17a2 2 0 0 1-2-2v-20a2 2 0 0 1 2-2z" opacity=".1"/>
                <path fill="#FFF" d="M63.082 18.664h17a2 2 0 0 1 2 2v20a2 2 0 0 1-2 2h-17a2 2 0 0 1-2-2v-20a2 2 0 0 1 2-2z"/>
                <path fill="#FB8FB4" d="M71.582 31.9a3.9 3.9 0 1 1 0-7.8 3.9 3.9 0 0 1 0 7.8zm0-1.8a2.1 2.1 0 1 0 0-4.2 2.1 2.1 0 0 0 0 4.2z"/>
                <path fill="#D9EFF3" d="M68.67 37.382a.9.9 0 1 1 0-1.8h5.824a.9.9 0 0 1 0 1.8H68.67z"/>
            </g>
            <path fill="#FFF" fill-rule="nonzero" d="M3.766.013h70.943a3 3 0 0 1 3 3v5.39H.766v-5.39a3 3 0 0 1 3-3z" mask="url(#L)" opacity=".2"/>
            <circle cx="6.463" cy="4.208" r="1" fill="#99FF87" fill-rule="nonzero" mask="url(#L)"/>
            <circle cx="10.463" cy="4.208" r="1" fill="#FB7EB7" fill-rule="nonzero" mask="url(#L)"/>
            <circle cx="14.463" cy="4.208" r="1" fill="#FB7EB7" fill-rule="nonzero" mask="url(#L)"/>
            <path fill="#FFF" fill-rule="nonzero" d="M11.669 15.1a.9.9 0 1 1 0-1.8h8.822a.9.9 0 1 1 0 1.8H11.67z" mask="url(#L)"/>
        </g>
        <g>
            <g transform="matrix(-1 0 0 1 688.442 462.565)">
                <mask id="N" fill="#fff">
                    <use xlink:href="#M"/>
                </mask>
                <use fill="url(#y)" fill-rule="nonzero" transform="matrix(-1 0 0 1 46.716 0)" xlink:href="#M"/>
                <path fill="url(#q)" fill-rule="nonzero" d="M-2.676 10.49c23.456 2.707 35.86.294 37.212-7.237C35.887-4.277 24.042-6.084-1-2.165L-2.676 10.49z" mask="url(#N)"/>
            </g>
            <g transform="matrix(-1 0 0 1 725.227 462.565)">
                <mask id="P" fill="#fff">
                    <use xlink:href="#O"/>
                </mask>
                <use fill="url(#y)" fill-rule="nonzero" transform="matrix(-1 0 0 1 41.124 0)" xlink:href="#O"/>
                <path fill="url(#q)" fill-rule="nonzero" d="M3.453 7.012c13.385 3.652 23.692 3.244 30.922-1.224S31.953-1.634 5.422-3.074L3.452 7.012z" mask="url(#P)"/>
            </g>
            <g transform="matrix(-1 0 0 1 722.352 284.636)">
                <mask id="R" fill="#fff">
                    <use xlink:href="#Q"/>
                </mask>
                <use fill="url(#y)" fill-rule="nonzero" xlink:href="#Q"/>
                <path fill="#151731" fill-rule="nonzero" d="M66.515 14.598c-.553 10.027-8.483 15.04-23.79 15.04-22.963 0-3.33 25.62-26.786 31.547-23.456 5.926-9.833 34.761-24.093 34.761-9.507 0-5.411-26.563 12.287-79.69l62.382-1.658z" mask="url(#R)" opacity=".3"/>
                <path fill="#151731" fill-rule="nonzero" d="M39.22 53.945L50.26 27.698c2.266 6.871 2.266 14.477 0 22.818-3.4 12.51 6.834 23.694 0 32.445-6.835 8.751 6.834 31.713-7.23 45.001-9.377 8.86-11.451 8.13-6.224-2.186l2.415-71.83z" mask="url(#R)" opacity=".3" transform="rotate(-8 43.333 80.9)"/>
            </g>
            <path fill="url(#S)" fill-rule="nonzero" d="M64.473 1.084c20.211 4.832 15.702 24.932 10.391 46.63-5.31 21.699-18.228 62.61-45.398 59.322C2.297 103.748-5.278 86.75 4.56 67.432c9.838-19.317 29.434-19.718 31.74-35.914C38.606 15.32 44.262-3.747 64.473 1.084z" transform="matrix(-1 0 0 1 748 147)"/>
            <g transform="matrix(-1 0 0 1 725.227 191.461)">
                <mask id="U" fill="#fff">
                    <use xlink:href="#T"/>
                </mask>
                <use fill="url(#m)" fill-rule="nonzero" xlink:href="#T"/>
                <path fill="#373A5B" fill-rule="nonzero" d="M44.541 16.278c-2.087 35.72-6.433 54.197-13.037 55.434-9.907 1.855-13.251.653-15.35 6.59-2.1 5.937 10.875 19.985 0 21.463-7.25.985-12.448 10.497-15.593 28.537l4.717-65.933L26 59.246l18.541-42.968z" mask="url(#U)" opacity=".3"/>
                <path fill="#373A5B" fill-rule="nonzero" d="M89.551 64.709c-26.666-1.983-45.13-4.64-55.392-7.97-2.553-.828-5.021.554-7.405-.402-4.75.252-6.44 1.715-5.066 4.39 3.586 6.983 22.283 9.35 26.772 9.35 10.603 0 9.107-7.267 20.406-2.86 7.532 2.938 14.427 2.102 20.685-2.508zM31.604 17.298c-3.61 19.766-7.014 29.154-10.212 28.16-3.197-.992-5.25-7.196-6.157-18.61 1.726-.802 3.166 1.362 4.32 6.49 1.154 5.13 5.17-.218 12.049-16.04z" mask="url(#U)" opacity=".3"/>
                <circle cx="1.084" cy="20.604" r="3.253" fill="#FFF" fill-rule="nonzero" mask="url(#U)" opacity=".3"/>
                <circle cx="22.773" cy="20.604" r="3.253" fill="#FFF" fill-rule="nonzero" mask="url(#U)" opacity=".3"/>
                <circle cx="44.461" cy="20.604" r="3.253" fill="#FFF" fill-rule="nonzero" mask="url(#U)" opacity=".3"/>
                <circle cx="66.149" cy="20.604" r="3.253" fill="#FFF" fill-rule="nonzero" mask="url(#U)" opacity=".3"/>
                <circle cx="11.929" cy="9.76" r="3.253" fill="#FFF" fill-rule="nonzero" mask="url(#U)" opacity=".3"/>
                <circle cx="33.617" cy="9.76" r="3.253" fill="#FFF" fill-rule="nonzero" mask="url(#U)" opacity=".3"/>
                <circle cx="55.305" cy="9.76" r="3.253" fill="#FFF" fill-rule="nonzero" mask="url(#U)" opacity=".3"/>
                <circle cx="76.994" cy="9.76" r="3.253" fill="#FFF" fill-rule="nonzero" mask="url(#U)" opacity=".3"/>
                <circle cx="87.838" cy="20.604" r="3.253" fill="#FFF" fill-rule="nonzero" mask="url(#U)" opacity=".3"/>
                <circle cx="-9.76" cy="31.448" r="3.253" fill="#FFF" fill-rule="nonzero" mask="url(#U)" opacity=".3"/>
                <circle cx="11.929" cy="31.448" r="3.253" fill="#FFF" fill-rule="nonzero" mask="url(#U)" opacity=".3"/>
                <circle cx="33.617" cy="31.448" r="3.253" fill="#FFF" fill-rule="nonzero" mask="url(#U)" opacity=".3"/>
                <circle cx="55.305" cy="31.448" r="3.253" fill="#FFF" fill-rule="nonzero" mask="url(#U)" opacity=".3"/>
                <circle cx="76.994" cy="31.448" r="3.253" fill="#FFF" fill-rule="nonzero" mask="url(#U)" opacity=".3"/>
                <circle cx="-20.604" cy="42.292" r="3.253" fill="#FFF" fill-rule="nonzero" mask="url(#U)" opacity=".3"/>
                <circle cx="1.084" cy="42.292" r="3.253" fill="#FFF" fill-rule="nonzero" mask="url(#U)" opacity=".3"/>
                <circle cx="22.773" cy="42.292" r="3.253" fill="#FFF" fill-rule="nonzero" mask="url(#U)" opacity=".3"/>
                <circle cx="44.461" cy="42.292" r="3.253" fill="#FFF" fill-rule="nonzero" mask="url(#U)" opacity=".3"/>
                <circle cx="66.149" cy="42.292" r="3.253" fill="#FFF" fill-rule="nonzero" mask="url(#U)" opacity=".3"/>
                <circle cx="-9.76" cy="53.136" r="3.253" fill="#FFF" fill-rule="nonzero" mask="url(#U)" opacity=".3"/>
                <circle cx="11.929" cy="53.136" r="3.253" fill="#FFF" fill-rule="nonzero" mask="url(#U)" opacity=".3"/>
                <circle cx="33.617" cy="53.136" r="3.253" fill="#FFF" fill-rule="nonzero" mask="url(#U)" opacity=".3"/>
                <circle cx="55.305" cy="53.136" r="3.253" fill="#FFF" fill-rule="nonzero" mask="url(#U)" opacity=".3"/>
                <circle cx="76.994" cy="53.136" r="3.253" fill="#FFF" fill-rule="nonzero" mask="url(#U)" opacity=".3"/>
                <circle cx="-20.604" cy="63.981" r="3.253" fill="#FFF" fill-rule="nonzero" mask="url(#U)" opacity=".3"/>
                <circle cx="1.084" cy="63.981" r="3.253" fill="#FFF" fill-rule="nonzero" mask="url(#U)" opacity=".3"/>
                <circle cx="22.773" cy="63.981" r="3.253" fill="#FFF" fill-rule="nonzero" mask="url(#U)" opacity=".3"/>
                <circle cx="44.461" cy="63.981" r="3.253" fill="#FFF" fill-rule="nonzero" mask="url(#U)" opacity=".3"/>
                <circle cx="66.149" cy="63.981" r="3.253" fill="#FFF" fill-rule="nonzero" mask="url(#U)" opacity=".3"/>
                <circle cx="-9.76" cy="74.825" r="3.253" fill="#FFF" fill-rule="nonzero" mask="url(#U)" opacity=".3"/>
                <circle cx="11.929" cy="74.825" r="3.253" fill="#FFF" fill-rule="nonzero" mask="url(#U)" opacity=".3"/>
                <circle cx="33.617" cy="74.825" r="3.253" fill="#FFF" fill-rule="nonzero" mask="url(#U)" opacity=".3"/>
                <circle cx="55.305" cy="74.825" r="3.253" fill="#FFF" fill-rule="nonzero" mask="url(#U)" opacity=".3"/>
                <circle cx="76.994" cy="74.825" r="3.253" fill="#FFF" fill-rule="nonzero" mask="url(#U)" opacity=".3"/>
                <circle cx="-20.604" cy="85.669" r="3.253" fill="#FFF" fill-rule="nonzero" mask="url(#U)" opacity=".3"/>
                <circle cx="1.084" cy="85.669" r="3.253" fill="#FFF" fill-rule="nonzero" mask="url(#U)" opacity=".3"/>
                <circle cx="22.773" cy="85.669" r="3.253" fill="#FFF" fill-rule="nonzero" mask="url(#U)" opacity=".3"/>
                <circle cx="44.461" cy="85.669" r="3.253" fill="#FFF" fill-rule="nonzero" mask="url(#U)" opacity=".3"/>
                <circle cx="66.149" cy="85.669" r="3.253" fill="#FFF" fill-rule="nonzero" mask="url(#U)" opacity=".3"/>
                <circle cx="-9.76" cy="96.513" r="3.253" fill="#FFF" fill-rule="nonzero" mask="url(#U)" opacity=".3"/>
                <circle cx="11.929" cy="96.513" r="3.253" fill="#FFF" fill-rule="nonzero" mask="url(#U)" opacity=".3"/>
                <circle cx="33.617" cy="96.513" r="3.253" fill="#FFF" fill-rule="nonzero" mask="url(#U)" opacity=".3"/>
                <circle cx="55.305" cy="96.513" r="3.253" fill="#FFF" fill-rule="nonzero" mask="url(#U)" opacity=".3"/>
                <circle cx="76.994" cy="96.513" r="3.253" fill="#FFF" fill-rule="nonzero" mask="url(#U)" opacity=".3"/>
                <circle cx="-20.604" cy="107.357" r="3.253" fill="#FFF" fill-rule="nonzero" mask="url(#U)" opacity=".3"/>
                <circle cx="1.084" cy="107.357" r="3.253" fill="#FFF" fill-rule="nonzero" mask="url(#U)" opacity=".3"/>
                <circle cx="22.773" cy="107.357" r="3.253" fill="#FFF" fill-rule="nonzero" mask="url(#U)" opacity=".3"/>
                <circle cx="44.461" cy="107.357" r="3.253" fill="#FFF" fill-rule="nonzero" mask="url(#U)" opacity=".3"/>
                <circle cx="66.149" cy="107.357" r="3.253" fill="#FFF" fill-rule="nonzero" mask="url(#U)" opacity=".3"/>
                <path fill="#FFF" fill-rule="nonzero" d="M36.882 10.615c7.25 13.462 10.426 25.882 9.527 37.261-.899 11.38.56 37.351 4.378 77.916h9.802c-4.943-11.141-7.666-19.469-8.172-24.983-2.12-23.152-3.443-42.278-2.715-52.933.99-14.46-2.313-27.205-9.905-38.233l-2.915.972z" mask="url(#U)" opacity=".2"/>
                <path fill="#373A5B" fill-rule="nonzero" d="M64.12 45.748c2.544-13.88-.81-15.227-9.23-32.852 7.85 9.674 12.064 18.223 12.644 25.649.87 11.138 6.475.44 10.065 12.934 3.59 12.495 9.2 8.074 11.323 11.417 1.415 2.229-1.163 4.295-7.733 6.2l-18.333-1.819c-.86-8.888-.438-16.065 1.265-21.529zM11.665 3.932c.003 5.976 5.423 8.964 16.26 8.964 1.162 0 4.781 5.636 5.237 5.006.72-.994 2.498-4.02 4.466-4.105 3.925-.171 8.882 3.3 9.635 1.538.288-.675-2.412-3.618-8.102-8.829-3.083-5.005-6.635-7.696-10.654-8.072-4.02-.377-9.634 1.456-16.842 5.498zM-3.816 95.725c1.869-4.493 5.536-7.81 11.002-9.95l-.676 7.737-8.062 3.418-2.264-1.205zM105.447 16.16c.863 6.052 3.067 9.077 6.61 9.077 3.544 0 6.031-1.828 7.462-5.484l-11.472-6.857-2.6 3.264z" mask="url(#U)" opacity=".3"/>
                <path fill="#FFD5D7" fill-rule="nonzero" d="M24.942 1.78l7.973 15.61a1 1 0 0 0 1.654.192l5.228-6.176 7.104 4.396a1 1 0 0 0 1.396-1.343L41.853 3.08l-12.374-4.13-4.894 2.83" mask="url(#U)"/>
                <path fill="#FFD5D7" fill-rule="nonzero" d="M64.326 50.905c4.571-3.533 9.016-3.874 13.335-1.022 6.477 4.279 2.432 16.431-7.197 16-6.42-.287-8.466-5.28-6.138-14.978zM16.552 45.545c-4.517.087-7.016 1.532-7.497 4.338-.721 4.209-1 16.737 7.497 17.35 5.665.41 8.645-2.067 8.943-7.43l-8.943-14.258z"/>
            </g>
            <g transform="matrix(-1 0 0 1 700.286 178.448)">
                <mask id="X" fill="#fff">
                    <use xlink:href="#V"/>
                </mask>
                <use fill="url(#W)" fill-rule="nonzero" xlink:href="#V"/>
                <path fill="#DA433D" fill-rule="nonzero" d="M3.283.583c1.568 9.74 5.69 14.997 12.369 15.773 6.678.776 9.76-1.342 9.244-6.354L3.283.582z" mask="url(#X)" opacity=".2"/>
            </g>
            <g transform="matrix(-1 0 0 1 703.539 158.929)">
                <mask id="Z" fill="#fff">
                    <use xlink:href="#Y"/>
                </mask>
                <use fill="url(#q)" fill-rule="nonzero" xlink:href="#Y"/>
                <path fill="#DA433D" fill-rule="nonzero" d="M26.93-1.298c-.013 7.153-2.58 11.417-7.701 12.79-5.122 1.375-8.814 1.166-11.076-.624.17-.308-.05-.945-.66-1.912s5.87-4.385 19.437-10.254z" mask="url(#Z)" opacity=".2"/>
            </g>
            <g>
                <g transform="matrix(-1 0 0 1 704.57 241.291)">
                    <mask id="ac" fill="#fff">
                        <use xlink:href="#aa"/>
                    </mask>
                    <use fill="url(#ab)" fill-rule="nonzero" xlink:href="#aa"/>
                    <path fill="#DA433D" fill-rule="nonzero" d="M52.693-11.929c-9.206 1.898-15.237 4.626-18.09 8.186-2.855 3.56-2.339.831 1.548-8.186l14.782-1.518 1.76 1.518zM15.098 1.265c-.14 7.69-1.176 13.798-3.106 18.323-1.931 4.524-6.622 2.357-14.072-6.502l3.406-9.175L5.698.797l9.4.468z" mask="url(#ac)" opacity=".2"/>
                </g>
                <g transform="matrix(-1 0 0 1 711.076 179.48)">
                    <mask id="af" fill="#fff">
                        <use xlink:href="#ad"/>
                    </mask>
                    <use fill="url(#ae)" fill-rule="nonzero" xlink:href="#ad"/>
                    <path fill="#DA433D" fill-rule="nonzero" d="M4.102 47.714c-10.155 3.936-15.994 7.661-17.52 11.176-1.525 3.514-2.053 1.051-1.585-7.39l19.105-7.204v3.418z" mask="url(#af)" opacity=".2"/>
                </g>
            </g>
        </g>
        <g>
            <g transform="translate(129.839 462)">
                <mask id="ai" fill="#fff">
                    <use xlink:href="#ag"/>
                </mask>
                <use fill="url(#ah)" fill-rule="nonzero" transform="matrix(-1 0 0 1 45.892 0)" xlink:href="#ag"/>
                <path fill="#D8E8F8" fill-rule="nonzero" d="M48.538 13.412L49.356 19l.079.698H29.979c.02-.235.04-.467.063-.698H-.946v-5.588h31.941c1.422-5.52 15.7-10.022 17.543 0z" mask="url(#ai)"/>
            </g>
            <g transform="translate(74 462)">
                <mask id="ak" fill="#fff">
                    <use xlink:href="#aj"/>
                </mask>
                <use fill="url(#ah)" fill-rule="nonzero" transform="matrix(-1 0 0 1 38.033 0)" xlink:href="#aj"/>
                <path fill="#D8E8F8" fill-rule="nonzero" d="M19.248 6.297c5.804 0 10.97 2.785 14.282 7.115h6.008V19H.054v-5.588h4.912c3.312-4.33 8.478-7.115 14.282-7.115z" mask="url(#ak)"/>
            </g>
            <g transform="translate(79 283)">
                <mask id="an" fill="#fff">
                    <use xlink:href="#al"/>
                </mask>
                <use fill="url(#am)" fill-rule="nonzero" xlink:href="#al"/>
                <path fill="#151731" fill-rule="nonzero" d="M62.911 19.48c-.559 10.132-8.582 15.198-24.071 15.198-23.233 0-3.368 25.89-27.102 31.878-5.061 1.277-8.416 3.607-10.702 6.482C-4.587 80.111-5.087 55.26-.463-1.515l63.374-1.65V19.48z" mask="url(#an)" opacity=".3"/>
                <path fill="#151731" fill-rule="nonzero" d="M39.67 53.327l11.165-26.52c2.297 6.945 2.299 14.632.007 23.06-3.438 12.64 6.925 23.947.01 32.787s6.928 32.052-7.304 45.474c-9.488 8.949-11.588 8.211-6.3-2.213l2.422-72.588z" mask="url(#an)" opacity=".3" transform="rotate(-8 43.849 80.568)"/>
            </g>
            <g transform="translate(57 186)">
                <mask id="ap" fill="#fff">
                    <use xlink:href="#ao"/>
                </mask>
                <use fill="url(#l)" fill-rule="nonzero" xlink:href="#ao"/>
                <path fill="#FFF" fill-rule="nonzero" d="M32.759 27.663h45.407l1.057 5.158H29.327zM21.816 44.855h90.786v5.47H21.816zM-9.851 62.359h122.453v5.47H-9.851zM-9.851 79.863h122.453v5.47H-9.851zM-9.85 97.368h122.452v5.47H-9.851zM-9.85 114.872h122.452v5.47H-9.851z" mask="url(#ap)" opacity=".5"/>
                <path fill="#373A5B" fill-rule="nonzero" d="M80.508 53.505c.024-12.103-1.022-21.85-3.139-29.238 3.814 2.255 6.013 7.128 6.597 14.619.876 11.237 6.52.444 10.135 13.05 3.614 12.604 12.74 4.345 14.877 7.717 1.425 2.249-2.329 5.6-11.263 10.055L80.508 53.505zM23.094-.447c.003 6.029 5.461 9.044 16.373 9.044 10.913 0 16.451-5.826 16.615-17.477L23.094-.447zM9.26 96.573c1.883-4.533 5.576-7.88 11.08-10.04l-.681 7.807-8.118 3.448-2.28-1.215zM119.283 16.303c.87 6.105 3.089 9.158 6.657 9.158s6.073-1.845 7.513-5.533l-11.551-6.917-2.619 3.292z" mask="url(#ap)" opacity=".3"/>
                <path fill="#373A5B" fill-rule="nonzero" d="M21.017 71.726c15.046-.317 26.37-.707 33.973-1.17 7.603-.462 12.317-1.048 14.144-1.758-10.303 3.644-17.255 5.465-20.855 5.465-5.4 0-5.237-3.928-11.153 4.223-5.916 8.15-10.612-2.24-16.11 13.17-3.664 10.274-3.664 3.63 0-19.93zM56.082 60.276l-35.065-4.98.497-8.896 9.933-17.028c.498 1.667-.57 5.968-3.205 12.902-3.952 10.401 6.456.734 10.111 7.528 2.437 4.529 8.346 8.02 17.73 10.474z" mask="url(#ap)" opacity=".3"/>
            </g>
            <path fill="url(#aq)" fill-rule="nonzero" d="M9.292 3.132C15.408.61 28.674-2.403 31.636 4.684 34.6 11.771 38.09 20.596 32.68 24.24c-5.412 3.643-8.872 9.22-14.679 7.606-3.871-1.076-7.299.02-10.284 3.29-2.111-.27-3.427-.987-3.947-2.15C-1.516 21.164.934 6.579 9.292 3.133z" transform="translate(93 143)"/>
            <g transform="translate(96.273 171.653)">
                <mask id="as" fill="#fff">
                    <use xlink:href="#ar"/>
                </mask>
                <use fill="url(#W)" fill-rule="nonzero" xlink:href="#ar"/>
                <path fill="#DA433D" fill-rule="nonzero" d="M3.111.955c1.577 9.897 5.724 15.24 12.443 16.03 6.718.788 9.818-1.365 9.3-6.458L3.11.955z" mask="url(#as)" opacity=".2"/>
            </g>
            <g transform="translate(94.09 155.122)">
                <mask id="au" fill="#fff">
                    <use xlink:href="#at"/>
                </mask>
                <use fill="url(#q)" fill-rule="nonzero" xlink:href="#at"/>
                <path fill="#DA433D" fill-rule="nonzero" d="M27.09-1.32c-.012 7.27-2.594 11.603-7.746 13-5.152 1.396-8.866 1.184-11.143-.635.171-.313-.05-.96-.663-1.943-.613-.983 5.905-4.456 19.553-10.421z" mask="url(#au)" opacity=".2"/>
            </g>
            <g>
                <g transform="translate(136.952 186)">
                    <mask id="aw" fill="#fff">
                        <use xlink:href="#av"/>
                    </mask>
                    <use fill="url(#q)" fill-rule="nonzero" xlink:href="#av"/>
                    <path fill="#DA433D" fill-rule="nonzero" d="M50.976 8.053c-2.676.342-4.014 2.031-4.014 5.067 0 4.554.061 8.612 4.014 9.655-4.621-.374-6.694-3.264-6.218-8.668.477-5.405 2.55-7.423 6.218-6.054z" mask="url(#aw)" opacity=".2"/>
                </g>
                <g transform="translate(57 218.8)">
                    <path fill="url(#ax)" fill-rule="nonzero" d="M69.342.697l-10.293 48.16 34.563-.75L104.648.697z"/>
                    <mask id="aA" fill="#fff">
                        <use xlink:href="#ay"/>
                    </mask>
                    <use fill="url(#az)" fill-rule="nonzero" xlink:href="#ay"/>
                    <path fill="#DA433D" fill-rule="nonzero" d="M21.882 13.302C9.328 13.062 2.092 11.888.175 9.776c-1.917-2.11-.774-3.389 3.43-3.834l18.277 7.36z" mask="url(#aA)" opacity=".2"/>
                </g>
            </g>
        </g>
    </g>
</svg>
