<svg xmlns="http://www.w3.org/2000/svg" width="149" height="149" viewBox="0 0 149 149">
    <defs>
        <linearGradient id="a" x1="-75.437%" x2="174.757%" y1="-73.896%" y2="171.833%">
            <stop offset="0%" stop-color="#FFC300"/>
            <stop offset="100%" stop-color="#F0F"/>
        </linearGradient>
        <linearGradient id="b" x1="-75.437%" x2="178.191%" y1="-73.896%" y2="175.206%">
            <stop offset="0%" stop-color="#FFC300"/>
            <stop offset="100%" stop-color="#F0F"/>
        </linearGradient>
    </defs>
    <g fill="none" fill-rule="evenodd">
        <path fill="url(#a)" fill-rule="nonzero" d="M54.779 110.685c1.352 0 2.254-.902 2.254-2.255V64.472c0-9.693-6.988-17.583-15.554-17.583H15.554C6.988 46.889 0 54.779 0 64.472v43.958c0 1.353.902 2.255 2.254 2.255h8.792v30.883c0 4.058 3.156 7.214 7.214 7.214h20.063c4.057 0 7.213-3.382 7.213-7.214v-30.883h9.243zm-13.526 30.883c0 1.578-1.127 2.705-2.705 2.705h-7.89v-34.49c0-1.353-.902-2.254-2.254-2.254-1.353 0-2.254.901-2.254 2.254v34.49h-7.665c-1.578 0-2.705-1.352-2.705-2.705v-57.71c0-1.352-.902-2.253-2.254-2.253-1.353 0-2.255.901-2.255 2.254v22.092H4.51V64.472c0-7.214 4.959-13.075 11.045-13.075h25.7c6.086 0 11.045 5.861 11.045 13.075v41.704h-6.537V84.084c0-1.352-.902-2.254-2.255-2.254-1.352 0-2.254.902-2.254 2.254v57.484z"/>
        <path fill="url(#b)" fill-rule="nonzero" d="M28.404 44.184c9.468 0 17.358-7.89 17.358-17.358 0-9.694-7.665-17.358-17.358-17.358-9.468 0-17.358 7.89-17.358 17.358 0 9.693 7.89 17.358 17.358 17.358zm0-30.208c6.988 0 12.85 5.862 12.85 12.85 0 6.988-5.862 12.85-12.85 12.85-6.988 0-12.85-5.862-12.85-12.85 0-6.988 5.862-12.85 12.85-12.85z"/>
        <path fill="url(#b)" d="M105.725 120.153c-.225 0-.225 0 0 0-.45-.451-.901-.677-1.578-.677-.676 0-1.127.226-1.578.677l-10.144 11.045c-.902.902-.902 2.255.225 3.156.902.902 2.255.677 3.156-.225l6.312-6.763v16.907H53.652c-1.353 0-2.255.902-2.255 2.255 0 1.352.902 2.254 2.255 2.254h50.27c1.352 0 2.254-.902 2.254-2.254v-18.936l5.861 6.537a2.414 2.414 0 0 0 3.156.225 2.414 2.414 0 0 0 .226-3.156l-9.694-11.045zM103.471 11.722c1.353 0 2.254-.902 2.254-2.254V2.254c0-1.352-.901-2.254-2.254-2.254s-2.254.902-2.254 2.254v7.214c0 1.352 1.127 2.254 2.254 2.254zM146.528 43.057h-7.214c-1.353 0-2.254.901-2.254 2.254 0 1.352.901 2.254 2.254 2.254h7.214c1.352 0 2.254-.902 2.254-2.254 0-1.127-.902-2.254-2.254-2.254zM60.64 47.565h7.214c1.352 0 2.254-.902 2.254-2.254 0-1.353-.902-2.254-2.254-2.254H60.64c-1.353 0-2.254.901-2.254 2.254 0 1.352.901 2.254 2.254 2.254zM130.522 21.641l5.185-5.185c.902-.902.902-2.254 0-3.156-.902-.902-2.254-.902-3.156 0l-5.185 5.185c-.901.902-.901 2.254 0 3.156.677.902 2.254.902 3.156 0zM76.645 21.641c.902.902 2.254.902 3.156 0 .902-.902.902-2.254 0-3.156L74.616 13.3c-.901-.902-2.254-.902-3.156 0-.901.902-.901 2.254 0 3.156l5.185 5.185zM144.273 59.513l-6.763-2.705c-1.127-.451-2.48 0-2.93 1.127-.451 1.127 0 2.48 1.127 2.93l6.763 2.705c1.127.451 2.48 0 2.93-1.127.451-1.127 0-2.48-1.127-2.93zM62.894 31.109l6.763 2.705c1.127.45 2.48 0 2.93-1.127.451-1.127 0-2.48-1.127-2.93l-6.762-2.706c-1.128-.45-2.48 0-2.931 1.127-.45 1.128 0 2.48 1.127 2.93zM116.32 14.202c1.127.45 2.48 0 2.93-1.127l2.706-6.763c.45-1.127 0-2.48-1.127-2.93-1.127-.451-2.48 0-2.93 1.127l-2.931 6.762c-.451 1.127 0 2.48 1.352 2.93zM87.691 13.3c.45 1.127 1.803 1.578 2.93 1.127 1.128-.45 1.804-1.803 1.128-2.93l-2.705-6.763c-.451-1.127-1.804-1.578-2.93-1.127-1.128.45-1.804 1.803-1.128 2.93l2.705 6.763zM69.882 57.258l-6.762 2.706c-1.128.45-1.578 1.803-1.128 2.93.451 1.127 1.804 1.578 2.931 1.127l6.763-2.705c1.127-.45 1.578-1.803 1.127-2.93-.676-1.128-1.804-1.578-2.93-1.128zM137.285 33.589l6.763-2.706c1.127-.45 1.578-1.803 1.127-2.93-.45-1.127-1.803-1.578-2.93-1.127l-6.763 2.705c-1.128.45-1.578 1.803-1.128 2.93.451 1.128 1.804 1.578 2.931 1.128z"/>
        <path fill="url(#b)" fill-rule="nonzero" d="M101.668 13.751c-14.879.902-27.052 13.075-28.404 28.178-.902 9.243 2.254 18.26 8.566 24.797 4.509 4.734 7.44 10.82 8.115 17.133h-2.254c-.902 0-1.803.45-2.48 1.127-.676.676-1.127 1.578-1.127 2.48v11.046c0 2.028 1.578 3.606 3.607 3.606h6.537v3.156h-2.93c-1.353 0-2.254 1.128-2.254 2.255 0 1.352 1.127 2.254 2.254 2.254h3.156c.676 3.381 3.607 5.861 6.988 5.861h3.832c3.382 0 6.312-2.48 6.989-5.861h3.156c1.352 0 2.254-1.127 2.254-2.254 0-1.353-1.127-2.255-2.254-2.255h-2.931v-3.156h6.537c.902 0 1.804-.45 2.48-1.127.676-.676 1.127-1.578 1.127-2.48V87.467c0-2.03-1.578-3.607-3.607-3.607h-2.254c.676-6.312 3.607-12.624 8.116-17.358 5.41-5.861 8.566-13.526 8.566-21.641.45-17.809-14.202-32.236-31.785-31.109zm6.762 88.367v6.087c0 1.578-1.127 2.93-2.705 2.93h-3.832c-1.578 0-2.705-1.352-2.705-2.93v-6.087h9.242zm10.37-4.508c-18.71 0-17.583 0-29.756.225v-9.242c13.75 0 20.964 0 29.756-.226v9.243zm3.381-34.265c-5.41 5.636-8.566 12.85-9.468 20.514h-6.537V57.935c3.832-.902 6.763-4.509 6.763-8.792 0-4.96-4.058-9.017-9.017-9.017-4.96 0-9.017 4.058-9.017 9.017 0 4.283 2.93 7.665 6.763 8.792v26.15h-6.989c-.676-7.44-4.057-14.653-9.468-20.29-5.41-5.635-8.115-13.3-7.439-21.19 1.127-13.3 11.497-23.67 24.346-24.345 14.879-.902 27.277 11.27 27.502 26.6-.225 6.763-2.705 13.526-7.439 18.485zm-18.26-9.693a4.522 4.522 0 0 1-4.508-4.509 4.522 4.522 0 0 1 4.509-4.508 4.522 4.522 0 0 1 4.508 4.508c.226 2.48-1.803 4.509-4.508 4.509z"/>
    </g>
</svg>
