<svg xmlns="http://www.w3.org/2000/svg" xmlns:xlink="http://www.w3.org/1999/xlink" width="722" height="478" viewBox="0 0 722 478">
    <defs>
        <filter id="a" width="269.3%" height="288.1%" x="-84.7%" y="-94.1%" filterUnits="objectBoundingBox">
            <feOffset dy="22" in="SourceAlpha" result="shadowOffsetOuter1"/>
            <feGaussianBlur in="shadowOffsetOuter1" result="shadowBlurOuter1" stdDeviation="22"/>
            <feColorMatrix in="shadowBlurOuter1" result="shadowMatrixOuter1" values="0 0 0 0 0.306266344 0 0 0 0 0.773995536 0 0 0 0 0.759821924 0 0 0 0.25 0"/>
            <feMerge>
                <feMergeNode in="shadowMatrixOuter1"/>
                <feMergeNode in="SourceGraphic"/>
            </feMerge>
        </filter>
        <linearGradient id="c" x1="70.406%" x2="21.519%" y1="3.666%" y2="83.99%">
            <stop offset="0%" stop-color="#39ABC5"/>
            <stop offset="100%" stop-color="#A8EB9D"/>
        </linearGradient>
        <path id="b" d="M8 .264h134a8 8 0 0 1 8 8v118a8 8 0 0 1-8 8H8a8 8 0 0 1-8-8v-118a8 8 0 0 1 8-8z"/>
        <filter id="e" width="109.7%" height="133.3%" x="-4.8%" y="-16.6%" filterUnits="objectBoundingBox">
            <feGaussianBlur in="SourceGraphic" stdDeviation="2"/>
        </filter>
        <filter id="f" width="269.3%" height="282.7%" x="-84.7%" y="-91.4%" filterUnits="objectBoundingBox">
            <feOffset dy="22" in="SourceAlpha" result="shadowOffsetOuter1"/>
            <feGaussianBlur in="shadowOffsetOuter1" result="shadowBlurOuter1" stdDeviation="22"/>
            <feColorMatrix in="shadowBlurOuter1" result="shadowMatrixOuter1" values="0 0 0 0 0.768627451 0 0 0 0 0.494117647 0 0 0 0 0.91372549 0 0 0 0.25 0"/>
            <feMerge>
                <feMergeNode in="shadowMatrixOuter1"/>
                <feMergeNode in="SourceGraphic"/>
            </feMerge>
        </filter>
        <path id="g" d="M8 0h134a8 8 0 0 1 8 8v123a8 8 0 0 1-8 8H8a8 8 0 0 1-8-8V8a8 8 0 0 1 8-8z"/>
        <linearGradient id="i" x1="100%" x2="6.662%" y1="38.062%" y2="57.557%">
            <stop offset="0%" stop-color="#FFB782"/>
            <stop offset="100%" stop-color="#FF739C"/>
        </linearGradient>
        <filter id="j" width="269.3%" height="258.8%" x="-84.7%" y="-79.4%" filterUnits="objectBoundingBox">
            <feOffset dy="22" in="SourceAlpha" result="shadowOffsetOuter1"/>
            <feGaussianBlur in="shadowOffsetOuter1" result="shadowBlurOuter1" stdDeviation="22"/>
            <feColorMatrix in="shadowBlurOuter1" result="shadowMatrixOuter1" values="0 0 0 0 0.443137255 0 0 0 0 0.650980392 0 0 0 0 0.97254902 0 0 0 0.252887228 0"/>
            <feMerge>
                <feMergeNode in="shadowMatrixOuter1"/>
                <feMergeNode in="SourceGraphic"/>
            </feMerge>
        </filter>
        <path id="k" d="M8 0h134a8 8 0 0 1 8 8v144a8 8 0 0 1-8 8H8a8 8 0 0 1-8-8V8a8 8 0 0 1 8-8z"/>
        <path id="m" d="M23.299.757c-1.208 4.916-5.475 7.56-12.8 7.934C3.172 9.064.05 11.71 1.131 16.625h36.736c4.037 0 5.567-1.473 4.589-4.418L39.427.757H23.3z"/>
        <path id="o" d="M10.528.757c-1.633 2.946-4.003 5.59-7.111 7.934-4.662 3.516-2.89 7.934-.335 7.934h26.202c4.038 0 5.568-1.473 4.59-4.418L26.657.757h-16.13z"/>
        <linearGradient id="r" x1="66.055%" x2="41.75%" y1="14.643%" y2="100%">
            <stop offset="0%" stop-color="#3067AC"/>
            <stop offset="100%" stop-color="#4E679A"/>
        </linearGradient>
        <path id="q" d="M3.15.384c-6.174 42.74 2.889 60.408 0 98.026-.667 8.67 0 41.63.826 58.208.179 3.582-2.222 8.044 1.711 8.889 3.933.845 15.574.506 18.13.506 2.557 0 1.18-4.434 1.18-7.895 0-26.13 3.964-27.752 3.114-41.474-1.074-17.356 1.593-41.436 8.001-72.241 2.029 15.957 5.14 31.406 9.336 46.347 3.495 12.447.25 28.292 3.25 52.444.435 3.494-1.045 21.206 2.893 21.807 3.938.6 14.004.6 16.716.506 2.711-.095 2.336-10.781 4.135-22.313 1.8-11.531 0-38.208 0-52.444 0-9.49-4.492-39.612-13.474-90.366H3.149z"/>
        <linearGradient id="t" x1="5.388%" x2="84.005%" y1="58.265%" y2="40.506%">
            <stop offset="0%" stop-color="#46E5F2"/>
            <stop offset="100%" stop-color="#9E66FF"/>
        </linearGradient>
        <linearGradient id="v" x1="7.502%" x2="84.005%" y1="105.726%" y2="10.516%">
            <stop offset="0%" stop-color="#46E5F2"/>
            <stop offset="100%" stop-color="#9E66FF"/>
        </linearGradient>
        <path id="u" d="M65.368 6.034c-7.189-2.296-26.193-2.465-42.984-.817-5.556.545-10.455 6.282-14.697 17.21C2.267 37.398-5.721 65.382 6.5 66.795c4.458.515 9.284.773 14.476.773-.984 9.02-1.46 16.958-1.427 23.816.015 2.98-1.049 7.131 6.392 7.573 7.442.442 30.784 4.431 40.41 3.043 9.625-1.388 16.508-3.156 12.801-11.41-2.47-5.503-3.94-18.065-4.406-37.688L89.8 61.804c5.6 1.75 9.813.692 12.643-3.173 2.456-3.356 5.99-11.177 13.8-25.619.79-1.46 1.139-2.862 1.048-4.209 2.86-7.007.521-10.292-7.015-9.856-1.257 3.48-2.525 2.601-3.217 3.48-3.329 4.228-7.942 10.289-13.839 18.182L74.746 12.501c-1.46-2.78-4.586-4.936-9.378-6.467z"/>
        <linearGradient id="x" x1="25.093%" x2="117.883%" y1="63.589%" y2="-6.416%">
            <stop offset="0%" stop-color="#321847"/>
            <stop offset="100%" stop-color="#834A88"/>
        </linearGradient>
        <linearGradient id="z" x1="59.6%" x2="2.392%" y1="23.826%" y2="110.63%">
            <stop offset="0%" stop-color="#F68585"/>
            <stop offset="100%" stop-color="#FF9B92"/>
        </linearGradient>
        <path id="y" d="M.455 13.528C4.082 15.843 7.848 17 11.752 17c3.905 0 5.376-1.157 4.414-3.472l-1.12-6.718L3.122.607.455 13.528z"/>
        <linearGradient id="C" x1="9.105%" x2="87.601%" y1="103.407%" y2="27.034%">
            <stop offset="0%" stop-color="#FF9292"/>
            <stop offset="100%" stop-color="#FFB59D"/>
        </linearGradient>
        <path id="B" d="M13.725 1.147c3.787 1.08 6.63 1.643 10.277 1.038 2.963-.491 3.742 1.626 3.647 3.04-.935 13.913-3.545 20.87-7.472 20.87-6.49 0-13.58-3.321-15.215-10.298a33.466 33.466 0 0 1-.052-.226 3.589 3.589 0 1 1 2.481-5.544c.363.166.141-10.644 6.334-8.88z"/>
        <linearGradient id="F" x1="29.773%" x2="68.598%" y1="110.865%" y2="23.826%">
            <stop offset="0%" stop-color="#FF9292"/>
            <stop offset="100%" stop-color="#FFB59D"/>
        </linearGradient>
        <path id="E" d="M4.702 7.661C6.932 5.016 4.708.674 7.158.674c.47 0 2.014 1.051 2.256 2.326.191 1.008.191 2.189 0 3.542 3.276.318 5.301.942 6.076 1.872 1.216 1.46.706 7.354 0 9.293-.985 2.706-2.275 2.706-5.045 3.553-.854.26-2.14.934-3.86 2.02-1.066.3-2.252-.04-3.559-1.025C1.72 21.271.794 19.03.25 15.53c1.482-3.482 2.966-6.105 4.452-7.869z"/>
        <linearGradient id="H" x1="50%" x2="50%" y1="0%" y2="100%">
            <stop offset="0%" stop-color="#A3EDED"/>
            <stop offset="100%" stop-color="#9FCFFF"/>
        </linearGradient>
        <linearGradient id="I" x1="9.105%" x2="87.601%" y1="86.079%" y2="34.485%">
            <stop offset="0%" stop-color="#FF9292"/>
            <stop offset="100%" stop-color="#FFB59D"/>
        </linearGradient>
        <linearGradient id="K" x1="13.561%" x2="98.634%" y1="32.959%" y2="56.815%">
            <stop offset="0%" stop-color="#8BC1CE"/>
            <stop offset="100%" stop-color="#6974B1"/>
        </linearGradient>
        <path id="J" d="M23.299.757c-1.208 4.916-5.475 7.56-12.8 7.934C3.172 9.064.05 11.71 1.131 16.625h36.736c4.037 0 5.567-1.473 4.589-4.418L39.427.757H23.3z"/>
        <linearGradient id="N" x1="13.561%" x2="98.634%" y1="23.669%" y2="60.531%">
            <stop offset="0%" stop-color="#8BC1CE"/>
            <stop offset="100%" stop-color="#6974B1"/>
        </linearGradient>
        <path id="M" d="M10.528.757c-1.633 2.946-4.003 5.59-7.111 7.934-4.662 3.516-2.89 7.934-.335 7.934h26.202c4.038 0 5.568-1.473 4.59-4.418L26.657.757h-16.13z"/>
        <linearGradient id="Q" x1="71.582%" x2="38.91%" y1="14.643%" y2="100%">
            <stop offset="0%" stop-color="#3067AC"/>
            <stop offset="100%" stop-color="#4E679A"/>
        </linearGradient>
        <path id="P" d="M28.15.384c-12.67 60.273-7.07 55.675-13.397 92.38-1.42 8.242-9.509 50.663-12.777 63.854-.775 3.13-2.976 8.446 1.388 8.889 4.364.442 12.445.506 15.001.506 2.557 0 3.638-5.3 4.632-7.895 4.306-11.247 14.538-49.073 30.696-113.478 7.546 35.702 9.403 72.269 5.57 109.7-.362 3.531-1.542 11.167.411 11.167s15.251.506 16.716.506c1.464 0 2.028-8.38 3.415-17.438 1.387-9.059 3.063-20.726 4.163-53.44.732-21.808.732-53.392 0-94.75H28.149z"/>
        <linearGradient id="T" x1="34.991%" x2="60.754%" y1="92.592%" y2="-8.059%">
            <stop offset="0%" stop-color="#39ABC5"/>
            <stop offset="100%" stop-color="#A8EB9D"/>
        </linearGradient>
        <path id="S" d="M67.116 2.556C59.927.259 41.948-1.01 25.447 2.034c-7.854 1.449-12.626 3.244-16.46 9.385-3.836 6.14-6.33 10.586-8.576 15.43l16.396 16.76 3.453-5.006c2.058 16.424 3.1 27.432 3.124 33.025.036 8.237-6.521 38.574-6.492 39.558.09 2.98-3.838 5.534 5.421 6.814 9.26 1.28 36.05 2 46.803 0 10.752-2 16.529-1.33 13.93-9.814-1.733-5.656-4.166-27.806-7.3-66.451L86.803 25 77.15 9.432c-1.897-3.053-5.242-5.345-10.034-6.876z"/>
        <linearGradient id="W" x1="9.105%" x2="87.601%" y1="105.139%" y2="26.289%">
            <stop offset="0%" stop-color="#FF9292"/>
            <stop offset="100%" stop-color="#FFB59D"/>
        </linearGradient>
        <path id="V" d="M25.361 54c-4.124 2.274-6.413 2.274-10.284 0L.788 38.735.305 34.69c5.405-4.45 9.179-8.632 11.32-12.547l7.686 11.483L37.024 13.4c.552-3.352 1.144-6.651 3.318-8.124 3.267-2.211 4.394-5.047 5.573-3.63.786.946.372 2.58-1.241 4.901 5.326.032 8.57-1.129 9.73-3.482C55.486.87 57.747.394 57.817 1.647c.043.763-2.3 4.599-2.54 5.408-.631 2.137-.166 3.163-4.421 5.475-2.71 1.473-5.348 3.896-7.913 7.271C34.98 38 29.445 51.748 25.361 54z"/>
        <linearGradient id="Z" x1="28.219%" x2="70.026%" y1="110.865%" y2="23.826%">
            <stop offset="0%" stop-color="#FF9292"/>
            <stop offset="100%" stop-color="#FFB59D"/>
        </linearGradient>
        <path id="Y" d="M23 14.893l6.144 23.153 3.1-8.655c6.85 1.582 11.856 6.765 15.019 15.55L35.349 61.703C31.213 66.722 23.892 66.722 20 61c-3.892-5.721-5.543-19.116-4.952-40.182a2.247 2.247 0 0 1-.075-.006c-2.677-3.625-4.924-6.74-7.76-8.282-4.256-2.312-3.79-3.338-4.423-5.475C2.551 6.245.208 2.41.25 1.647.322.394 2.583.87 3.665 3.065c1.16 2.353 4.404 3.514 9.73 3.482-1.613-2.322-2.026-3.955-1.24-4.9 1.178-1.418 2.305 1.418 5.572 3.63 1.452.983 3.21 4.188 5.274 9.616z"/>
        <linearGradient id="ab" x1="24.242%" x2="117.883%" y1="93.518%" y2="-13.435%">
            <stop offset="0%" stop-color="#FFA77B"/>
            <stop offset="100%" stop-color="#FFE6CA"/>
        </linearGradient>
        <linearGradient id="ad" x1="55.624%" x2="22.111%" y1="23.826%" y2="110.63%">
            <stop offset="0%" stop-color="#F68585"/>
            <stop offset="100%" stop-color="#FF9B92"/>
        </linearGradient>
        <path id="ac" d="M.455 13.528c6.363 5.553 10.712 8.33 13.045 8.33s3.222-2.777 2.666-8.33l-1.12-6.718L3.122.607.455 13.528z"/>
        <linearGradient id="ag" x1="9.105%" x2="87.601%" y1="106.094%" y2="25.878%">
            <stop offset="0%" stop-color="#FF9292"/>
            <stop offset="100%" stop-color="#FFB59D"/>
        </linearGradient>
        <path id="af" d="M24.833.765c1.777 4.646 2.554 7.93 2.33 9.85-1.199 10.32-3.604 15.48-6.986 15.48-6.49 0-13.58-3.321-15.215-10.298a33.466 33.466 0 0 1-.052-.226 3.589 3.589 0 1 1 2.481-5.544c.363.166 12.845.661 17.442-9.262z"/>
        <linearGradient id="aj" x1="134.336%" x2="6.662%" y1="45.203%" y2="56.784%">
            <stop offset="0%" stop-color="#404683"/>
            <stop offset="100%" stop-color="#373A5B"/>
        </linearGradient>
        <path id="ai" d="M24.557.757c.586.454-2.04 2.324-7.88 5.61C13.14 8.36 8.631 10.4 3.152 12.488c-3.565 1.36-2.68 4.138 1.415 4.138h34.559c4.037 0 5.567-1.473 4.589-4.418L40.685.757H24.558z"/>
        <linearGradient id="ak" x1="9.105%" x2="87.601%" y1="60.83%" y2="45.343%">
            <stop offset="0%" stop-color="#FF9292"/>
            <stop offset="100%" stop-color="#FFB59D"/>
        </linearGradient>
        <linearGradient id="an" x1="134.336%" x2="6.662%" y1="43.458%" y2="59.251%">
            <stop offset="0%" stop-color="#404683"/>
            <stop offset="100%" stop-color="#373A5B"/>
        </linearGradient>
        <path id="am" d="M13.774.757C9.648 5.242 6.03 8.657 2.923 11c-4.662 3.516-1.554 5.625 1 5.625H32.53c4.038 0 5.568-1.473 4.59-4.418L29.903.757h-16.13z"/>
        <linearGradient id="ao" x1="9.105%" x2="87.601%" y1="58.674%" y2="46.27%">
            <stop offset="0%" stop-color="#FF9292"/>
            <stop offset="100%" stop-color="#FFB59D"/>
        </linearGradient>
        <linearGradient id="ar" x1="63.725%" x2="42.947%" y1="14.643%" y2="100%">
            <stop offset="0%" stop-color="#404683"/>
            <stop offset="100%" stop-color="#373A5B"/>
        </linearGradient>
        <path id="aq" d="M13 .677C3 20 9.623 53.698 8.987 87.198c-.526 27.729-7.043 60.32-7.506 66.848-.256 3.6-2.481 15.018 1.883 15.46 4.364.443 12.445.507 15.001.507 2.557 0 4.088-14.156 4.635-17.438.83-4.986 4.289-28.116 8.406-53.533 1.66-10.252 4.425-26.727 8.293-49.425 5.604 60.49 7.791 96.73 6.563 108.723-.361 3.531-1.54 11.167.412 11.167 1.953 0 15.251.506 16.716.506 1.464 0 1.028-8.38 2.415-17.438.529-3.455 3.243-23.219 3.195-55.729-.029-19.454.048-42.34-3.195-71.846-.516-4.695-1.654-11.362-3.415-20L13 .677z"/>
        <linearGradient id="at" x1="50%" x2="50%" y1="0%" y2="100%">
            <stop offset="0%" stop-color="#AF3053"/>
            <stop offset="100%" stop-color="#7A3343"/>
        </linearGradient>
        <linearGradient id="av" x1="-4.034%" x2="86.951%" y1="126.906%" y2="0%">
            <stop offset="0%" stop-color="#FFCFAA"/>
            <stop offset="100%" stop-color="#FA6EB9"/>
        </linearGradient>
        <path id="au" d="M65.454 4C51.434.098 65.152-.114 48.455 1.54c-6.84.678-13.76 3.912-20.756 9.703C20 17.518 8.407 30.543 4.179 36.996c-4.227 6.452-4.537 15.349-.676 18.707 2.093 1.82 5.907-.687 11.443-7.521 1.93-1.742 7.798-6.944 17.605-15.604 2.275 15.941 3.425 26.708 3.45 32.301.035 8.238-8.302 17.148-8.302 38.952.688.077 4.18-17.518 4.852-17.447.826.088-.802 17.367 0 17.447 16.381 1.626 20.092 10.795 32.903 9.169.96-.122 2.4-7.096 4.32-20.924 2.1 14.062 3.763 21.037 4.987 20.924 5.033-.464 8.852-4.598 12.547-4.598.759 0-1.876-15.477-2.939-23.402-.458-3.419-1.953-13.326-1.953-27 0-5.333.651-11.196 1.953-17.59 9.504 9.997 16.693 15.094 21.567 15.293 4.873.198 4.46-5.59-1.237-17.366C87.883 18.047 74.8 6.601 65.454 4z"/>
        <linearGradient id="ay" x1="54.753%" x2="26.429%" y1="23.826%" y2="110.63%">
            <stop offset="0%" stop-color="#F68585"/>
            <stop offset="100%" stop-color="#FF9B92"/>
        </linearGradient>
        <path id="ax" d="M.408 13.459c3.128 6.405 11.29 8.33 13.045 8.33 1.169 0 1.559-2.24 1.169-6.72l.377-8.328L3.075.537c.5 8.292-.388 12.599-2.667 12.922z"/>
        <linearGradient id="aB" x1="16.691%" x2="80.626%" y1="110.865%" y2="23.826%">
            <stop offset="0%" stop-color="#FF9292"/>
            <stop offset="100%" stop-color="#FFB59D"/>
        </linearGradient>
        <path id="aA" d="M24.833.765c1.777 4.646 2.554 7.93 2.33 9.85C25.965 20.935 24 30 19.328 30c-6.49 0-12.73-7.226-14.365-14.203a33.466 33.466 0 0 1-.052-.226 3.589 3.589 0 1 1 2.481-5.544c.363.166 12.845.661 17.442-9.262z"/>
        <linearGradient id="aE" x1="25.091%" x2="72.903%" y1="110.865%" y2="23.826%">
            <stop offset="0%" stop-color="#FF9292"/>
            <stop offset="100%" stop-color="#FFB59D"/>
        </linearGradient>
        <path id="aD" d="M7.2 43.393c-.967-4.014-3.132-8.046-6.495-12.096L12.25 13.003l.097.115a31.15 31.15 0 0 1-.097-.588c.55-3.361 1.914-5.779 4.092-7.254 3.267-2.211 4.394-5.047 5.573-3.63.786.946.372 2.58-1.241 4.901 5.326.032 8.57-1.129 9.73-3.482C31.486.87 33.747.394 33.817 1.647c.043.763-2.3 4.599-2.54 5.408-.631 2.137-.166 3.163-4.421 5.475-2.837 1.541-5.594 4.125-8.27 7.75-.07.019-.138.036-.207.05-7.457 14.967-8.735 19.162-11.18 23.063z"/>
        <linearGradient id="aG" x1="9.105%" x2="87.601%" y1="93.441%" y2="31.319%">
            <stop offset="0%" stop-color="#FF9292"/>
            <stop offset="100%" stop-color="#FFB59D"/>
        </linearGradient>
        <path id="aF" d="M16.415 25.987C8.404 17.627 2.975 11.717.126 8.256 4.144 4.669 7.708 2.005 10.82.262c2.375 3.633 7.114 9.992 14.218 19.076l.036-.014 2.907.435-.168 1.685c-.118.874.205 2.01 1.265 2.01 1.059 0 5.75-.021 6.843.393.728.277 2.312 1.22 4.751 2.83-.226.937-2.435.791-3.658-.31-.682-.614-2.525-.96-2.456-.843.498.835 3.127 3.578 3.679 4.182.552.605-2.693.425-1.854 1.77 1.26 2.017-2.55 1.044-2.11 2.35.604 1.799-2.302-.35-3.906-1.618-1.603-1.268-3.414 1.998-7.275.223-.743-.342-2.968-2.49-6.676-6.444z"/>
        <linearGradient id="aI" x1="134.336%" x2="6.662%" y1="44.91%" y2="57.198%">
            <stop offset="0%" stop-color="#404683"/>
            <stop offset="100%" stop-color="#373A5B"/>
        </linearGradient>
        <path id="aH" d="M23.299.757c-1.208 4.916-5.475 7.56-12.8 7.934C3.172 9.064.05 11.71 1.131 16.625h36.736c4.037 0 5.567-1.473 4.589-4.418L39.427.757H23.3z"/>
        <linearGradient id="aL" x1="134.336%" x2="6.662%" y1="42.135%" y2="61.123%">
            <stop offset="0%" stop-color="#404683"/>
            <stop offset="100%" stop-color="#373A5B"/>
        </linearGradient>
        <path id="aK" d="M10.528.757c-1.633 2.946-4.003 5.59-7.111 7.934-4.662 3.516-2.89 7.934-.335 7.934h26.202c4.038 0 5.568-1.473 4.59-4.418L26.657.757h-16.13z"/>
        <linearGradient id="aO" x1="50%" x2="50%" y1="0%" y2="100%">
            <stop offset="0%" stop-color="#AF3053"/>
            <stop offset="100%" stop-color="#7A3343"/>
        </linearGradient>
        <path id="aN" d="M3.15.384c-6.174 42.74 2.889 60.408 0 98.026-.667 8.67 0 41.63.826 58.208.179 3.582-2.222 8.044 1.711 8.889 3.933.845 15.574.506 18.13.506 2.557 0 1.18-4.434 1.18-7.895 0-26.13 3.964-27.752 3.114-41.474-1.074-17.356 1.593-41.436 8.001-72.241C42.51 60.36 47.805 75.809 52 90.75c3.495 12.447-7.576 26.995-11.25 51.347-.518 3.435-7.852 22.276-3.914 22.877 3.938.6 14.004.6 16.716.506 2.712-.095 5.537-9.244 8.855-19.872 3.318-10.629 19.663-40.622 19.663-54.858 0-9.49-7.7-39.612-23.102-90.366H3.149z"/>
        <linearGradient id="aR" x1="62.522%" x2="19.535%" y1="0%" y2="100%">
            <stop offset="0%" stop-color="#FFB782"/>
            <stop offset="100%" stop-color="#EB4878"/>
        </linearGradient>
        <path id="aQ" d="M54.7 2.43c-11.737-1.125-24.187-2.762-40.723 0C3.3 4.214 1.477 7.695.96 13.107-.449 27.888 3.528 41.523 12.892 54.01c-.02 23.462-.02 35.52 0 36.176.09 2.98-2.245 7.895 6.159 8.854 8.404.96 29.599 2.374 41.302-.504 11.704-2.878 14.506-1.692 10.8-9.946-2.471-5.503-3.94-14.54-4.407-27.11 10.41-.433 16.09-3.714 17.039-9.846 1.144-7.392-3.066-21.039-12.633-40.94-3.143-4.759-8.626-7.513-16.451-8.264z"/>
        <linearGradient id="aT" x1="48.661%" x2="53.649%" y1="65.302%" y2="-13.53%">
            <stop offset="0%" stop-color="#321847"/>
            <stop offset="100%" stop-color="#834A88"/>
        </linearGradient>
        <linearGradient id="aU" x1="56.929%" x2="36.001%" y1="0%" y2="79%">
            <stop offset="0%" stop-color="#FFC499"/>
            <stop offset="100%" stop-color="#F3787C"/>
        </linearGradient>
        <linearGradient id="aV" x1="27.614%" x2="111.012%" y1="65.302%" y2="-13.53%">
            <stop offset="0%" stop-color="#321847"/>
            <stop offset="100%" stop-color="#834A88"/>
        </linearGradient>
        <linearGradient id="aX" x1="27.648%" x2="70.551%" y1="110.865%" y2="23.826%">
            <stop offset="0%" stop-color="#843E3E"/>
            <stop offset="100%" stop-color="#7B4838"/>
        </linearGradient>
        <path id="aW" d="M.455 13.528c6.792 5.553 10.861 8.33 12.207 8.33s2.514-2.777 3.504-8.33l-1.12-6.718L3.122.607.455 13.528z"/>
        <linearGradient id="ba" x1="9.105%" x2="87.601%" y1="108.558%" y2="24.818%">
            <stop offset="0%" stop-color="#843E3E"/>
            <stop offset="100%" stop-color="#C08775"/>
        </linearGradient>
        <path id="aZ" d="M11.56.765c5.363 2 12.91 3.214 16.322 1-.651 16.886-3.378 25.33-7.705 25.33-6.49 0-13.58-3.321-15.215-10.298a33.466 33.466 0 0 1-.052-.226 3.589 3.589 0 1 1 2.481-5.544c.363.166-1.194-12.262 4.169-10.262z"/>
        <linearGradient id="bb" x1="25.093%" x2="117.883%" y1="52.045%" y2="41.509%">
            <stop offset="0%" stop-color="#321847"/>
            <stop offset="100%" stop-color="#834A88"/>
        </linearGradient>
        <linearGradient id="be" x1="19.078%" x2="78.431%" y1="110.865%" y2="23.826%">
            <stop offset="0%" stop-color="#843E3E"/>
            <stop offset="100%" stop-color="#FDAA8F"/>
        </linearGradient>
        <path id="bd" d="M4.606 17.166c-.234-2.471-.561-4.07-.982-4.796C1.647 8.955-.999 6.853 1.522 7.124c4.673.501 3.388 3.619 8.71 2.97 5.322-.648 6.024-3.082 9.739-8.042 3.714-4.96.473 5.3-.726 7.619-1.2 2.32-1.904 6.182-3.732 7.495-1.218.874-2.275 3.157-3.17 6.846C8.621 26.035 5.507 25.255 3 21.671l1.605-4.505z"/>
        <linearGradient id="bh" x1="43.606%" x2="68.782%" y1="110.865%" y2="60.697%">
            <stop offset="0%" stop-color="#843E3E"/>
            <stop offset="100%" stop-color="#C08775"/>
        </linearGradient>
        <path id="bg" d="M9.54 48.475C10.873 37.463 7.695 18.86.006.663l30.695 2.923C29.9 20.248 29.5 31.518 29.5 37.398c0 5.814-1.542 27.268-4.624 64.36.857 4.406 3.232 7.705 7.124 9.896 3.537 1.992 8.293 3.745 13.772 5.834 3.565 1.358 2.68 4.137-1.415 4.137H20.38c-2.42 0-4.556-2.713-6.41-8.137L13.315 122c-4.037 0-7.369.564-6.39-2.382l2.614-17.86c2.192-14.004-3.887-21.188 0-53.283z"/>
        <linearGradient id="bi" x1="100%" x2="8.356%" y1="41.691%" y2="57.849%">
            <stop offset="0%" stop-color="#FF8299"/>
            <stop offset="100%" stop-color="#CC2B32"/>
        </linearGradient>
        <linearGradient id="bl" x1="45.444%" x2="63.382%" y1="110.865%" y2="60.697%">
            <stop offset="0%" stop-color="#843E3E"/>
            <stop offset="100%" stop-color="#C08775"/>
        </linearGradient>
        <path id="bk" d="M29.122 115.663C33.784 119.18 30.554 122 28 122H5.31c-4.037 0-5.485-1.848-4.507-4.793 2.343-5.819 4.148-11.529 5.416-17.131 6.178-25.476 4.83-31.803 7.982-46.063 1.423-6.437 3.781-10.808 7.708-21.684L16.867.663l24.14 5.016v26.65c0 5.87-7.033 29.274-21.098 70.213.848 5.38 6.236 10.876 9.213 13.121z"/>
        <linearGradient id="bn" x1="100%" x2="8.356%" y1="43.875%" y2="55.786%">
            <stop offset="0%" stop-color="#FF8299"/>
            <stop offset="100%" stop-color="#CC2B32"/>
        </linearGradient>
        <linearGradient id="bp" x1="94.518%" x2="27.124%" y1="14.643%" y2="100%">
            <stop offset="0%" stop-color="#404683"/>
            <stop offset="100%" stop-color="#373A5B"/>
        </linearGradient>
        <path id="bo" d="M2.411 12c-5.679 19 2.456 64.803 2.456 71.347 0 6.543 52.318 6.205 58.834 0-1.352-41.887-3.063-65.831-5.133-71.832C55.462 2.514 8.09-7 2.41 12z"/>
        <linearGradient id="bs" x1="20.394%" x2="94.104%" y1="96.623%" y2="37.298%">
            <stop offset="0%" stop-color="#6F4DE2"/>
            <stop offset="100%" stop-color="#FF7C7C"/>
        </linearGradient>
        <path id="br" d="M117.264 19.182c4.212 1.015 6.553 2.88 7.024 5.593-7.719 21.274-12.142 30.928-19.352 30.928-4.88 0-13.5-5.893-23.005-15.889-1.302 6.393-2.566 12.757-3.22 18.062C77.098 70.933 80.835 77 84.614 92.712c.086.362.06.74.086 1.119-3.695 0-24.247 6.278-58.002 0C33.216 72.125 35.036 73.117 35 64.879c-.024-5.593-1.174-16.36-3.45-32.301-9.115 8.05-13.874 12.037-16.184 14.109 8.66 15.113 13.332 23.013 14.018 23.7-3.534 3.897-6.483 6.251-8.845 7.063C8.087 64.555 3.18 56.657 2.503 55.703c-2.833-3.995-3.55-12.255.677-18.707C7.407 30.543 19 17.518 26.699 11.243 30.135 8.4 33.28 6.044 37 4.423c3.72-1.62 7.288-2.28 10.77-2.624C64.466.144 50.433.099 64.453 4c9.326 2.595 22.369 13.994 39.129 34.198l13.681-19.016z"/>
        <linearGradient id="bu" x1="25.093%" x2="117.883%" y1="63.987%" y2="-8.07%">
            <stop offset="0%" stop-color="#321847"/>
            <stop offset="100%" stop-color="#834A88"/>
        </linearGradient>
        <linearGradient id="bv" x1="67.813%" x2="6.662%" y1="4.297%" y2="95.703%">
            <stop offset="0%" stop-color="#FFB782"/>
            <stop offset="100%" stop-color="#EB4878"/>
        </linearGradient>
        <linearGradient id="bw" x1="25.093%" x2="117.883%" y1="65.302%" y2="-13.53%">
            <stop offset="0%" stop-color="#321847"/>
            <stop offset="100%" stop-color="#834A88"/>
        </linearGradient>
        <linearGradient id="by" x1="148.119%" x2="25.588%" y1="61.723%" y2="26.376%">
            <stop offset="0%" stop-color="#C56868"/>
            <stop offset="100%" stop-color="#7B4838"/>
        </linearGradient>
        <path id="bx" d="M8.88 13.527c-2.43.97-5.013 1.3-8.88 2.887 3.491 5.454 25.14 16.859 26.78 16.859.908 0 7.576-13.55 5.053-15.415-1.3-.963-3.705-1.892-7.211-2.79l.377-8.327L13.075.537c-.25 7.642-1.648 11.972-4.196 12.99z"/>
        <linearGradient id="bB" x1="16.687%" x2="80.63%" y1="110.865%" y2="23.826%">
            <stop offset="0%" stop-color="#843E3E"/>
            <stop offset="100%" stop-color="#C08775"/>
        </linearGradient>
        <path id="bA" d="M27.164 10.615C25.964 20.935 24 30 19.327 30c-6.49 0-12.73-7.226-14.365-14.203a33.466 33.466 0 0 1-.052-.226 3.589 3.589 0 1 1 2.481-5.544C7.58 10.115 7.392 0 19 .766c8.984.592 8.325 8.463 8.164 9.85z"/>
        <linearGradient id="bE" x1="9.105%" x2="87.601%" y1="97.476%" y2="29.584%">
            <stop offset="0%" stop-color="#843E3E"/>
            <stop offset="100%" stop-color="#C08775"/>
        </linearGradient>
        <path id="bD" d="M1.25 13.003l.097.115a31.15 31.15 0 0 1-.097-.588C1.8 9.17 3.164 6.751 5.342 5.276 8.61 3.065 9.736.23 10.915 1.646c.786.946.372 2.58-1.241 4.901 5.326.032 8.57-1.129 9.73-3.482C20.486.87 22.747.394 22.817 1.647c.043.763-2.3 4.599-2.54 5.408-.631 2.137-.166 3.163-4.421 5.475-2.837 1.541-9.113 7.73-9.182 7.745-3.551.459-5.489-1-5.813-4.377.022-.528.151-1.493.39-2.895z"/>
        <linearGradient id="bG" x1="9.105%" x2="87.601%" y1="75.393%" y2="39.08%">
            <stop offset="0%" stop-color="#843E3E"/>
            <stop offset="100%" stop-color="#C08775"/>
        </linearGradient>
        <path id="bF" d="M0 6.71C4.901 3.667 7.08.585 7.091.58l4.889 1.179-.168 1.685c-.118.874.205 2.01 1.265 2.01 1.059 0 5.75-.021 6.843.393.728.277 2.312 1.22 4.751 2.83-.226.937-2.435.791-3.658-.31-.682-.614-2.525-.96-2.456-.843.498.835 3.127 3.578 3.679 4.182.552.605-2.693.425-1.854 1.77 1.26 2.017-2.55 1.044-2.11 2.35.604 1.799-2.302-.35-3.906-1.618-1.603-1.268-3.414 1.998-7.275.223-.743-.342-3.107-2.915-7.091-7.72z"/>
    </defs>
    <g fill="none" fill-rule="evenodd">
        <g filter="url(#a)" transform="translate(185 66)">
            <mask id="d" fill="#fff">
                <use xlink:href="#b"/>
            </mask>
            <use fill="url(#c)" fill-rule="nonzero" xlink:href="#b"/>
            <path fill="#FFF" fill-rule="nonzero" d="M98.63.264h35v89.472h-35z" mask="url(#d)" opacity=".2"/>
            <path fill="#FFF" fill-rule="nonzero" d="M0 90.295h150v35.97a8 8 0 0 1-8 8H8a8 8 0 0 1-8-8v-35.97z" mask="url(#d)"/>
            <path fill="#EF8BDB" fill-rule="nonzero" d="M18 107.5a2 2 0 0 1 0-4h17.737a2 2 0 0 1 0 4H18z" mask="url(#d)"/>
            <path fill="#EAE8E9" fill-rule="nonzero" d="M18 117.5a2 2 0 0 1 0-4h37.737a2 2 0 0 1 0 4H18z" mask="url(#d)"/>
            <path fill="#1E6A79" fill-rule="nonzero" d="M11.15 72.623a1 1 0 1 1 0-2c2.346 0 4.765-.941 7.472-2.821 1.667-1.157 3.42-2.645 5.543-4.662.84-.797 1.704-1.643 2.876-2.81a708.572 708.572 0 0 0 1.473-1.467c.606-.605 1.054-1.05 1.499-1.489 9.754-9.626 16.348-13.825 24.952-13.825 8.104 0 12.904 1.63 21.431 6.205l.6.322c8.708 4.674 13.496 6.29 21.9 6.29 8.413 0 13.463-2.928 19.44-9.57.485-.539 2.654-3.013 3.244-3.662 4.15-4.573 7.302-6.57 11.817-6.57a1 1 0 1 1 0 2c-3.815 0-6.529 1.72-10.337 5.914-.575.633-2.74 3.103-3.237 3.656-6.32 7.024-11.854 10.232-20.927 10.232-8.801 0-13.873-1.712-22.846-6.527l-.6-.322c-8.261-4.433-12.78-5.968-20.485-5.968-7.91 0-14.146 3.97-23.548 13.249a395.112 395.112 0 0 0-2.23 2.218l-.735.733a172.366 172.366 0 0 1-2.91 2.842c-2.19 2.08-4.015 3.63-5.78 4.854-3.014 2.093-5.803 3.178-8.613 3.178z" filter="url(#e)" mask="url(#d)" opacity=".4"/>
            <path fill="#FFF" fill-rule="nonzero" d="M11.15 72.623a1 1 0 1 1 0-2c2.238 0 4.579-1.17 7.217-3.521 1.636-1.458 3.357-3.335 5.44-5.876.824-1.005 1.672-2.07 2.822-3.54a823.424 823.424 0 0 0 1.443-1.847c.594-.76 1.033-1.32 1.469-1.873C39.115 41.834 45.579 36.55 54.094 36.55c8.047 0 12.793 2.544 21.187 9.647l.588.498c8.499 7.196 13.15 9.672 21.282 9.672 8.17 0 13.106-3.657 18.965-11.977.476-.676 2.6-3.774 3.177-4.586 4.073-5.734 7.167-8.24 11.672-8.24a1 1 0 1 1 0 2c-3.659 0-6.314 2.15-10.041 7.398-.565.795-2.687 3.889-3.173 4.58-6.195 8.797-11.632 12.825-20.6 12.825-8.731 0-13.744-2.67-22.574-10.145l-.588-.498c-8.061-6.822-12.45-9.174-19.895-9.174-7.67 0-13.783 4.997-22.983 16.656a458.615 458.615 0 0 0-2.187 2.793l-.72.922a198.61 198.61 0 0 1-2.85 3.574c-2.144 2.615-3.929 4.56-5.656 6.1-2.97 2.648-5.734 4.029-8.549 4.029z" mask="url(#d)"/>
            <path fill="#FFF" fill-rule="nonzero" d="M133.63 36.328a3.664 3.664 0 1 1 0-7.328 3.664 3.664 0 0 1 0 7.328zm0-2a1.664 1.664 0 1 0 0-3.328 1.664 1.664 0 0 0 0 3.328z" mask="url(#d)"/>
            <circle cx="98.629" cy="57.664" r="2.664" fill="#FFF" fill-rule="nonzero" mask="url(#d)"/>
        </g>
        <g filter="url(#f)" transform="translate(525 109)">
            <mask id="h" fill="#fff">
                <use xlink:href="#g"/>
            </mask>
            <use fill="#FFF" fill-rule="nonzero" xlink:href="#g"/>
            <path fill="#F8FDFF" fill-rule="nonzero" d="M.721 90.264h149v41a8 8 0 0 1-8 8h-133a8 8 0 0 1-8-8v-41z" mask="url(#h)"/>
            <path fill="#C47EE9" fill-rule="nonzero" d="M21.353 119.835a2 2 0 1 1 0-4H39.09a2 2 0 0 1 0 4H21.353z" mask="url(#h)"/>
            <path fill="#C47EE9" fill-rule="nonzero" d="M21.353 109.835a2 2 0 1 1 0-4H32.09a2 2 0 0 1 0 4H21.353z" mask="url(#h)" opacity=".3"/>
            <path fill="#C47EE9" fill-rule="nonzero" d="M66.353 119.835a2 2 0 1 1 0-4H84.09a2 2 0 0 1 0 4H66.353z" mask="url(#h)"/>
            <path fill="#C47EE9" fill-rule="nonzero" d="M66.353 109.835a2 2 0 1 1 0-4H77.09a2 2 0 0 1 0 4H66.353z" mask="url(#h)" opacity=".3"/>
            <path fill="#C47EE9" fill-rule="nonzero" d="M111.353 119.835a2 2 0 1 1 0-4h17.737a2 2 0 1 1 0 4h-17.737z" mask="url(#h)"/>
            <path fill="#C47EE9" fill-rule="nonzero" d="M111.353 109.835a2 2 0 1 1 0-4h10.737a2 2 0 1 1 0 4h-10.737z" mask="url(#h)" opacity=".3"/>
            <path fill="#FFA189" fill-rule="nonzero" d="M30.272 50.56L19.15 61.096l-.688-.726 11.185-10.586 9.18-6.233.154-.07 10.851-2.836 10.031 9.095 9.325 4.222 9.75-9.13.092-.068 10.272-5.917 10.346-5.334 9.952 11.285 9.893 5.199 9.44-9.413.706.708-9.96 9.932-10.625-5.584-.143-.112-9.497-10.77-9.633 4.967-10.202 5.877-10.195 9.547-10.005-4.53-.13-.086-9.688-8.783-10.244 2.676z" mask="url(#h)" opacity=".3"/>
            <path fill="url(#i)" fill-rule="nonzero" d="M17.893 54.617a1.5 1.5 0 0 1 3 0v10.931a1.5 1.5 0 1 1-3 0V54.617zm10-10a1.5 1.5 0 0 1 3 0v10.931a1.5 1.5 0 1 1-3 0V44.617zm10-10a1.5 1.5 0 0 1 3 0v20.931a1.5 1.5 0 1 1-3 0V34.617zm10 0a1.5 1.5 0 0 1 3 0v10.931a1.5 1.5 0 1 1-3 0V34.617zm10 10a1.5 1.5 0 0 1 3 0v10.931a1.5 1.5 0 1 1-3 0V44.617zm10 3a1.5 1.5 0 0 1 3 0v10.931a1.5 1.5 0 1 1-3 0V47.617zm10-8a1.5 1.5 0 0 1 3 0v10.931a1.5 1.5 0 1 1-3 0V39.617zm10-5a1.5 1.5 0 0 1 3 0v10.931a1.5 1.5 0 1 1-3 0V34.617zm10-10a1.5 1.5 0 0 1 3 0v20.931a1.5 1.5 0 0 1-3 0V24.617zm10 10a1.5 1.5 0 0 1 3 0v17.931a1.5 1.5 0 0 1-3 0V34.617zm10 5a1.5 1.5 0 0 1 3 0v20.931a1.5 1.5 0 0 1-3 0V39.617zm10-5a1.5 1.5 0 0 1 3 0v10.931a1.5 1.5 0 0 1-3 0V34.617z" mask="url(#h)"/>
        </g>
        <g filter="url(#j)" transform="translate(355 22)">
            <mask id="l" fill="#fff">
                <use xlink:href="#k"/>
            </mask>
            <use fill="#FFF" fill-rule="nonzero" xlink:href="#k"/>
            <g fill-rule="nonzero" mask="url(#l)">
                <path fill="#FD9FB1" d="M26 61h87a7 7 0 0 1 7 7v46a7 7 0 0 1-7 7H26a7 7 0 0 1-7-7V68a7 7 0 0 1 7-7z" opacity=".2"/>
                <path fill="#A575F3" d="M136 61h97a7 7 0 0 1 7 7v46a7 7 0 0 1-7 7h-97a7 7 0 0 1-7-7V68a7 7 0 0 1 7-7z" opacity=".2"/>
                <path fill="#F091A0" d="M57.949 99.453l7.541-12.554 4.476 6.988 4.158-4.54 6.927 10.106H57.95zm18.445-12.906a3 3 0 1 1 0-6 3 3 0 0 1 0 6z" opacity=".3"/>
            </g>
            <path fill="#47B3C0" fill-rule="nonzero" d="M51 24.5a2 2 0 1 1 0-4h17.737a2 2 0 1 1 0 4H51z" mask="url(#l)"/>
            <g fill-rule="nonzero" mask="url(#l)">
                <g transform="translate(19.085 16.272)">
                    <circle cx="11.098" cy="11.116" r="11" fill="#50B9BD" opacity=".1"/>
                    <path fill="#A3DAD8" d="M14.972 15.5a1 1 0 1 1-2 0c0-.973-.822-1.773-1.85-1.773-1.027 0-1.849.8-1.849 1.772a1 1 0 1 1-2 0c0-2.09 1.73-3.772 3.85-3.772s3.85 1.683 3.85 3.772z"/>
                    <path fill="#59BEB9" d="M11.123 13.572c-2.12 0-3.85-1.682-3.85-3.772s1.73-3.772 3.85-3.772 3.85 1.683 3.85 3.772c0 2.09-1.73 3.772-3.85 3.772zm0-2c1.027 0 1.85-.8 1.85-1.772s-.823-1.772-1.85-1.772c-1.028 0-1.85.8-1.85 1.772 0 .973.822 1.772 1.85 1.772z"/>
                </g>
            </g>
            <path fill="#DAF0F2" fill-rule="nonzero" d="M51 34.5a2 2 0 1 1 0-4h37.737a2 2 0 1 1 0 4H51z" mask="url(#l)"/>
            <path fill="#8E7DFD" fill-rule="nonzero" d="M92 141.5a2 2 0 0 1 0-4h13.737a2 2 0 1 1 0 4H92zM122 141.5a2 2 0 0 1 0-4h13.737a2 2 0 1 1 0 4H122z" mask="url(#l)" opacity=".3"/>
        </g>
        <g transform="translate(67 461)">
            <mask id="n" fill="#fff">
                <use xlink:href="#m"/>
            </mask>
            <use fill="#D8E8F8" fill-rule="nonzero" transform="matrix(-1 0 0 1 43.666 0)" xlink:href="#m"/>
            <path fill="#6F54C0" fill-rule="nonzero" d="M.923 11h41.82v5.828H.923z" mask="url(#n)" opacity=".2"/>
        </g>
        <g transform="translate(16 461)">
            <mask id="p" fill="#fff">
                <use xlink:href="#o"/>
            </mask>
            <use fill="#D8E8F8" fill-rule="nonzero" transform="matrix(-1 0 0 1 34.677 0)" xlink:href="#o"/>
            <path fill="#6F54C0" fill-rule="nonzero" d="M.517 11H34.16v5.828H.517z" mask="url(#p)" opacity=".2"/>
        </g>
        <g transform="translate(18.752 297)">
            <mask id="s" fill="#fff">
                <use xlink:href="#q"/>
            </mask>
            <use fill="url(#r)" fill-rule="nonzero" xlink:href="#q"/>
            <path fill="#151731" fill-rule="nonzero" d="M59.337.384c-.51 9.246-7.822 13.87-21.939 13.87-21.174 0-3.07 23.625-24.7 29.09S3.631 75.4-9.519 75.4c-8.767 0-4.99-24.495 11.33-73.486L59.338.384z" mask="url(#s)" opacity=".3"/>
            <path fill="#151731" fill-rule="nonzero" d="M38.167 48.668l10.18-24.204c2.09 6.336 2.09 13.35 0 21.042-3.136 11.537 6.302 21.85 0 29.919-6.303 8.07 6.302 29.244-6.668 41.498-8.646 8.17-10.56 7.498-5.739-2.016l2.227-66.239z" mask="url(#s)" opacity=".3" transform="rotate(-8 41.96 73.524)"/>
            <path fill-rule="nonzero" stroke="#FFF" stroke-linecap="round" stroke-linejoin="round" d="M38.094 40.417c8.711 32.475 12.895 53.698 12.55 63.668-.52 14.957 2.983 50.978 2.983 61.995M5.897 1.015c-1.197 27.69-1.427 46.677-.69 56.96 1.106 15.424-1.212 48.476-1.212 54.771 0 6.296 2.22 45.41 0 52.254" mask="url(#s)" opacity=".4"/>
        </g>
        <g transform="translate(0 204)">
            <path fill="url(#t)" fill-rule="nonzero" d="M27.46.047l22.847 2.364A5.324 5.324 0 0 1 55 8.638a6.832 6.832 0 0 1-6.727 5.637H27.5a7.5 7.5 0 0 1-7.5-7.5A6.764 6.764 0 0 1 27.46.047z"/>
            <mask id="w" fill="#fff">
                <use xlink:href="#u"/>
            </mask>
            <use fill="url(#v)" fill-rule="nonzero" xlink:href="#u"/>
            <path fill="#87C2F9" fill-rule="nonzero" d="M29.57 101.578c.017-4.254.41-7.593 1.175-10.018 1.07-3.388 9.476-9.29 10.887-21.255.104-.879.915-2.737 2.752-2.737h18.521c2.298 0 2.902 1.557 3.023 2.315 1.114 6.976 3.34 12.762 6.676 17.358 3.7 5.096 3.088 10.714-1.835 16.856l-41.199-2.519z" mask="url(#w)"/>
            <path fill="#373A5B" fill-rule="nonzero" d="M19.697 67.562c14.246.152 23.14.152 26.682 0 1.177-.05 1.89-.924 2.725-.97.59-.033 1.159-.065 1.706-.099 6.963-.422 11.28-.958 12.953-1.607-9.436 3.33-15.802 4.995-19.098 4.995-4.946 0-4.796-3.59-10.214 3.86-5.418 7.45-9.72-2.048-14.754 12.039-3.356 9.39-3.356 3.318 0-18.218zM51.45 55.276l-31.753-5.128L25.4 26.006c3.023 3.418 3.329 8.297.916 14.635-3.62 9.507 5.912.67 9.26 6.88 2.23 4.14 7.523 6.726 15.876 7.755z" mask="url(#w)" opacity=".3"/>
            <path fill="#2D4F83" fill-rule="nonzero" d="M108.345 18.908c.613 6.939 2.579 10.408 5.896 10.408 3.316 0 5.194-1.038 5.632-3.114l4.03-9.963-9.389-2.793-6.17 2.118v3.344z" mask="url(#w)"/>
            <path fill="#373A5B" fill-rule="nonzero" d="M74.728 52.907c.022-11.063-.936-19.972-2.874-26.725 3.492 2.06 5.506 6.515 6.041 13.362.802 10.271 5.971.406 9.281 11.928 3.31 11.522 11.668 3.972 13.625 7.055 1.305 2.055-2.133 5.119-10.314 9.19l-15.759-14.81z" mask="url(#w)" opacity=".3"/>
            <path fill-rule="nonzero" stroke="#FFF" stroke-linecap="round" stroke-linejoin="round" d="M54.928 9.932c1.387 3.768 1.756 9.862 1.106 18.282-.318 4.113-.276 6.984.124 8.613M40.928 10.103c1.387 3.768 1.756 9.862 1.106 18.282-.318 4.113-.276 6.984.124 8.613" mask="url(#w)"/>
            <path fill="#2D4F83" fill-rule="nonzero" d="M53.09 56.185l-2.293-.333C50.599 62.13 50 65.677 49 66.493h3.38l1.12-3.836.297-5.925-.707-.547z" mask="url(#w)"/>
        </g>
        <g transform="translate(23 163)">
            <ellipse cx="22" cy="20.702" fill="url(#x)" fill-rule="nonzero" rx="21.224" ry="20"/>
            <g transform="translate(12 32)">
                <mask id="A" fill="#fff">
                    <use xlink:href="#y"/>
                </mask>
                <use fill="url(#z)" fill-rule="nonzero" xlink:href="#y"/>
                <path fill="#DA433D" fill-rule="nonzero" d="M2.852.866c1.445 8.982 5.247 13.83 11.405 14.546 6.159.715 9-1.238 8.525-5.86L2.852.866z" mask="url(#A)" opacity=".2"/>
            </g>
            <g transform="translate(10 17)">
                <mask id="D" fill="#fff">
                    <use xlink:href="#B"/>
                </mask>
                <use fill="url(#C)" fill-rule="nonzero" xlink:href="#B"/>
                <path fill="#DA433D" fill-rule="nonzero" d="M28 1c-4.568 2.945-8.693 4.04-12.375 3.284-5.523-1.135-4.329 7.215-8.921 5.03l1.864-10.94L28 1z" mask="url(#D)" opacity=".2"/>
            </g>
        </g>
        <g>
            <g transform="translate(110 208)">
                <mask id="G" fill="#fff">
                    <use xlink:href="#E"/>
                </mask>
                <use fill="url(#F)" fill-rule="nonzero" xlink:href="#E"/>
                <path fill="#DA433D" fill-rule="nonzero" d="M.238 14.656c1.886 5.275 5.097 7.493 9.635 6.652l-3.29 3.495-6.345-2.621v-7.526z" mask="url(#G)" opacity=".2"/>
                <path fill="#DA433D" fill-rule="nonzero" d="M10.544 7.365C8.1 7.678 6.878 9.223 6.878 12c0 4.165.056 7.877 3.666 8.831-4.22-.342-6.113-2.985-5.678-7.929.435-4.943 2.328-6.789 5.678-5.537z" mask="url(#G)" opacity=".2"/>
            </g>
            <g fill-rule="nonzero">
                <path fill="url(#H)" d="M13.312.638L3.914 44.687 35.472 44 45.548.638z" transform="translate(51.45 236)"/>
                <path fill="url(#I)" d="M.36 34.493c1-4.271 1.325-7.601.972-9.988 3.218-2.767 5.734-4.15 7.55-4.15l-.716 3.377c4.47-.179 7.743-1.304 9.819-3.378 3.113-3.11 1.573 3.846-.445 4.922-2.017 1.077-1.137 7.271-5.977 8.244-3.226.649-6.96.973-11.203.973z" transform="translate(51.45 236)"/>
            </g>
        </g>
        <g>
            <g transform="translate(484.447 461)">
                <mask id="L" fill="#fff">
                    <use xlink:href="#J"/>
                </mask>
                <use fill="url(#K)" fill-rule="nonzero" transform="matrix(-1 0 0 1 43.666 0)" xlink:href="#J"/>
                <path fill="#D8E8F8" fill-rule="nonzero" d="M44.117 11H44v6H0v-6h28.123c1.296-4.938 14.314-8.967 15.994 0z" mask="url(#L)"/>
            </g>
            <g transform="translate(423.447 461)">
                <mask id="O" fill="#fff">
                    <use xlink:href="#M"/>
                </mask>
                <use fill="url(#N)" fill-rule="nonzero" transform="matrix(-1 0 0 1 34.677 0)" xlink:href="#M"/>
                <path fill="#D8E8F8" fill-rule="nonzero" d="M19.5 4.635A16.472 16.472 0 0 1 32.522 11H35v6H0v-6h6.479A16.472 16.472 0 0 1 19.5 4.635z" mask="url(#O)"/>
            </g>
            <g transform="translate(429.447 297)">
                <mask id="R" fill="#fff">
                    <use xlink:href="#P"/>
                </mask>
                <use fill="url(#Q)" fill-rule="nonzero" xlink:href="#P"/>
                <path fill="#151731" fill-rule="nonzero" d="M84.337 17.83c-.51 9.247-7.822 13.87-21.939 13.87-21.174 0-3.07 23.626-24.7 29.09-21.63 5.466-9.067 32.056-22.217 32.056-8.767 0-5.082-32.573 11.053-97.718l59.716.984-1.913 21.719z" mask="url(#R)" opacity=".3"/>
                <path fill="#151731" fill-rule="nonzero" d="M53.654 45.125l10.18-24.204c2.09 6.336 2.09 13.35 0 21.042-3.136 11.537 6.302 21.85 0 29.919-6.303 8.07 6.302 29.244-6.668 41.498-8.646 8.17-10.56 7.498-5.739-2.016l2.227-66.239z" mask="url(#R)" opacity=".3"/>
            </g>
            <g transform="translate(434 207)">
                <mask id="U" fill="#fff">
                    <use xlink:href="#S"/>
                </mask>
                <use fill="url(#T)" fill-rule="nonzero" xlink:href="#S"/>
                <path fill="#FFF" fill-rule="nonzero" d="M27.339 25.286h46.089L74.426 30H25.22zM-6.624 41h112.141v5H-6.624zM-6.624 57h112.141v5H-6.624zM-6.624 73h112.141v5H-6.624zM-6.624 89h112.141v5H-6.623zM-6.624 105h112.141v5H-6.623z" mask="url(#U)" opacity=".5"/>
                <path fill="#373A5B" fill-rule="nonzero" d="M20.017 39.234l6.54-11.843c-1.757 10.047-.672 17.644 3.255 22.79 5.89 7.72 2.206 13.88-2.475 22.16-4.681 8.279-1.495 14.576-8.059 20.396l-.977-41.04 1.716-12.463zM76.305 48.809c-.666-10.322-1.817-19.197-3.451-26.627 3.492 2.06 5.506 6.515 6.041 13.362.802 10.271 5.971.406 9.281 11.928 3.31 11.522 11.668 3.972 13.625 7.055 1.305 2.055-2.133 5.119-10.314 9.19L76.305 48.81zM25.577 1.39C29.43 7.532 37.404 10.021 49.5 8.857c1.93-.186-.797-4.017-8.18-11.494L25.577 1.389z" mask="url(#U)" opacity=".3"/>
                <path fill="#373A5B" fill-rule="nonzero" d="M10.48 88.273c1.724-4.142 5.106-7.201 10.147-9.176l-.624 7.136-7.434 3.151-2.088-1.11zM-19.073 17.694c2.493 1.742 5.01 1.449 7.55-.878 2.54-2.326 4-4.713 4.38-7.16h-7.885l-5.033 3.253.988 4.785z" mask="url(#U)" opacity=".3"/>
            </g>
            <g transform="translate(509 210)">
                <mask id="X" fill="#fff">
                    <use xlink:href="#V"/>
                </mask>
                <use fill="url(#W)" fill-rule="nonzero" xlink:href="#V"/>
                <path fill="#DA433D" fill-rule="nonzero" d="M11.803 22.286C8.34 33.076 4.509 39.349.305 41.106c-4.203 1.758-3.87-1.379 1-9.41l10.498-9.41z" mask="url(#X)" opacity=".2"/>
            </g>
            <g transform="translate(403 205)">
                <mask id="aa" fill="#fff">
                    <use xlink:href="#Y"/>
                </mask>
                <use fill="url(#Z)" fill-rule="nonzero" xlink:href="#Y"/>
                <path fill="#DA433D" fill-rule="nonzero" d="M50.605 44.02l-2.193 4.01-3.779 2.779c-2.14-10.501-6.189-17.64-12.148-21.418-5.96-3.777-2.277-2.791 11.048 2.958l7.42 9.198-.348 2.473z" mask="url(#aa)" opacity=".2"/>
            </g>
            <g>
                <path fill="url(#ab)" fill-rule="nonzero" d="M8.518 2.842C14.124.554 26.284-2.18 29 4.25c2.716 6.431 5.916 14.44.956 17.745-4.961 3.306-8.133 8.367-13.456 6.903-3.548-.977-6.69.018-9.427 2.985-1.935-.245-3.141-.896-3.618-1.95C-1.39 19.202.856 5.968 8.518 2.841z" transform="translate(467.447 168)"/>
                <g transform="translate(470.447 194)">
                    <mask id="ae" fill="#fff">
                        <use xlink:href="#ac"/>
                    </mask>
                    <use fill="url(#ad)" fill-rule="nonzero" xlink:href="#ac"/>
                    <path fill="#DA433D" fill-rule="nonzero" d="M2.852.866c1.445 8.982 5.247 13.83 11.405 14.546 6.159.715 9-1.238 8.525-5.86L2.852.866z" mask="url(#ae)" opacity=".2"/>
                </g>
                <g transform="translate(468.447 179)">
                    <mask id="ah" fill="#fff">
                        <use xlink:href="#af"/>
                    </mask>
                    <use fill="url(#ag)" fill-rule="nonzero" xlink:href="#af"/>
                    <path fill="#DA433D" fill-rule="nonzero" d="M24.833-1.197C24.822 5.4 22.455 9.33 17.732 10.598c-4.723 1.267-8.127 1.075-10.214-.576.156-.284-.046-.871-.608-1.763-.562-.892 5.412-4.044 17.923-9.456z" mask="url(#ah)" opacity=".2"/>
                </g>
            </g>
        </g>
        <g>
            <g transform="matrix(-1 0 0 1 659 461)">
                <mask id="al" fill="#fff">
                    <use xlink:href="#ai"/>
                </mask>
                <use fill="url(#aj)" fill-rule="nonzero" transform="matrix(-1 0 0 1 44.924 0)" xlink:href="#ai"/>
                <path fill="url(#ak)" fill-rule="nonzero" d="M-1.546 9.674c21.63 2.495 33.069.27 34.315-6.674C34.016-3.945 23.093-5.61 0-1.997l-1.546 11.67z" mask="url(#al)"/>
            </g>
            <g transform="matrix(-1 0 0 1 708 461)">
                <mask id="ap" fill="#fff">
                    <use xlink:href="#am"/>
                </mask>
                <use fill="url(#an)" fill-rule="nonzero" transform="matrix(-1 0 0 1 37.923 0)" xlink:href="#am"/>
                <path fill="url(#ao)" fill-rule="nonzero" d="M3.184 6.466c12.343 3.368 21.848 2.992 28.515-1.128C38.365 1.218 29.466-1.507 5-2.835L3.184 6.466z" mask="url(#ap)"/>
            </g>
            <g transform="matrix(-1 0 0 1 702 293)">
                <mask id="as" fill="#fff">
                    <use xlink:href="#aq"/>
                </mask>
                <use fill="url(#ar)" fill-rule="nonzero" xlink:href="#aq"/>
                <path fill="#151731" fill-rule="nonzero" d="M75.865 9.515c-4.195 17.034-13.35 25.55-27.467 25.55-21.174 0-3.768 11.104-25.398 16.569S14.631 96.212 1.48 96.212c-8.766 0-6.264-33.038 7.507-99.115L75.865 9.515z" mask="url(#as)" opacity=".3"/>
                <path fill="#151731" fill-rule="nonzero" d="M39.654 49.125L47.567 24c3.601 6.95 4.357 14.271 2.266 21.963-3.135 11.537 6.303 21.85 0 29.919-6.302 8.07 6.303 29.244-6.667 41.498-5.437 5.137-1.019-4.907-.544-24.22.187-7.602-.803-22.28-2.968-44.035z" mask="url(#as)" opacity=".3"/>
            </g>
            <path fill="url(#at)" fill-rule="nonzero" d="M59.454 1c18.638 4.455 14.48 22.99 9.583 43-4.898 20.01-16.81 57.736-41.864 54.704-25.055-3.032-32.04-18.707-22.968-36.52C13.278 44.368 31.348 44 33.475 29.063 35.6 14.13 40.816-3.456 59.454 1z" transform="matrix(-1 0 0 1 718 170)"/>
            <g transform="matrix(-1 0 0 1 722 211)">
                <mask id="aw" fill="#fff">
                    <use xlink:href="#au"/>
                </mask>
                <use fill="url(#av)" fill-rule="nonzero" xlink:href="#au"/>
                <path fill="#373A5B" fill-rule="nonzero" d="M32.36 78.3l-3.373-30.987 1.716-12.465 12.995-12.95c-6.06 10.786-7.126 18.752-3.2 23.898 5.89 7.72 2.207 13.88-2.475 22.16-2.258 3.994-1.932 6.98-1.728 9.653l5.626-.987 2.873.928 2.661 1.191-3.972 2.113L45.278 82c-1.04 3.558-2.724 5.53-5.049 5.914-3.488.577-4.6 8.8-8.98 8.8-2.918 0-4.92-1.45-6.001-4.348l4.598-13.625 2.515-.441z" mask="url(#aw)" opacity=".3"/>
                <circle cx="26" cy="19" r="3" fill="#FFF" fill-rule="nonzero" mask="url(#aw)" opacity=".3"/>
                <circle cx="46" cy="19" r="3" fill="#FFF" fill-rule="nonzero" mask="url(#aw)" opacity=".3"/>
                <circle cx="66" cy="19" r="3" fill="#FFF" fill-rule="nonzero" mask="url(#aw)" opacity=".3"/>
                <circle cx="86" cy="19" r="3" fill="#FFF" fill-rule="nonzero" mask="url(#aw)" opacity=".3"/>
                <circle cx="36" cy="9" r="3" fill="#FFF" fill-rule="nonzero" mask="url(#aw)" opacity=".3"/>
                <circle cx="56" cy="9" r="3" fill="#FFF" fill-rule="nonzero" mask="url(#aw)" opacity=".3"/>
                <circle cx="76" cy="9" r="3" fill="#FFF" fill-rule="nonzero" mask="url(#aw)" opacity=".3"/>
                <circle cx="96" cy="9" r="3" fill="#FFF" fill-rule="nonzero" mask="url(#aw)" opacity=".3"/>
                <circle cx="106" cy="19" r="3" fill="#FFF" fill-rule="nonzero" mask="url(#aw)" opacity=".3"/>
                <circle cx="16" cy="29" r="3" fill="#FFF" fill-rule="nonzero" mask="url(#aw)" opacity=".3"/>
                <circle cx="36" cy="29" r="3" fill="#FFF" fill-rule="nonzero" mask="url(#aw)" opacity=".3"/>
                <circle cx="56" cy="29" r="3" fill="#FFF" fill-rule="nonzero" mask="url(#aw)" opacity=".3"/>
                <circle cx="76" cy="29" r="3" fill="#FFF" fill-rule="nonzero" mask="url(#aw)" opacity=".3"/>
                <circle cx="96" cy="29" r="3" fill="#FFF" fill-rule="nonzero" mask="url(#aw)" opacity=".3"/>
                <circle cx="6" cy="39" r="3" fill="#FFF" fill-rule="nonzero" mask="url(#aw)" opacity=".3"/>
                <circle cx="26" cy="39" r="3" fill="#FFF" fill-rule="nonzero" mask="url(#aw)" opacity=".3"/>
                <circle cx="46" cy="39" r="3" fill="#FFF" fill-rule="nonzero" mask="url(#aw)" opacity=".3"/>
                <circle cx="66" cy="39" r="3" fill="#FFF" fill-rule="nonzero" mask="url(#aw)" opacity=".3"/>
                <circle cx="86" cy="39" r="3" fill="#FFF" fill-rule="nonzero" mask="url(#aw)" opacity=".3"/>
                <circle cx="16" cy="49" r="3" fill="#FFF" fill-rule="nonzero" mask="url(#aw)" opacity=".3"/>
                <circle cx="36" cy="49" r="3" fill="#FFF" fill-rule="nonzero" mask="url(#aw)" opacity=".3"/>
                <circle cx="56" cy="49" r="3" fill="#FFF" fill-rule="nonzero" mask="url(#aw)" opacity=".3"/>
                <circle cx="76" cy="49" r="3" fill="#FFF" fill-rule="nonzero" mask="url(#aw)" opacity=".3"/>
                <circle cx="96" cy="49" r="3" fill="#FFF" fill-rule="nonzero" mask="url(#aw)" opacity=".3"/>
                <circle cx="6" cy="59" r="3" fill="#FFF" fill-rule="nonzero" mask="url(#aw)" opacity=".3"/>
                <circle cx="26" cy="59" r="3" fill="#FFF" fill-rule="nonzero" mask="url(#aw)" opacity=".3"/>
                <circle cx="46" cy="59" r="3" fill="#FFF" fill-rule="nonzero" mask="url(#aw)" opacity=".3"/>
                <circle cx="66" cy="59" r="3" fill="#FFF" fill-rule="nonzero" mask="url(#aw)" opacity=".3"/>
                <circle cx="86" cy="59" r="3" fill="#FFF" fill-rule="nonzero" mask="url(#aw)" opacity=".3"/>
                <circle cx="16" cy="69" r="3" fill="#FFF" fill-rule="nonzero" mask="url(#aw)" opacity=".3"/>
                <circle cx="36" cy="69" r="3" fill="#FFF" fill-rule="nonzero" mask="url(#aw)" opacity=".3"/>
                <circle cx="56" cy="69" r="3" fill="#FFF" fill-rule="nonzero" mask="url(#aw)" opacity=".3"/>
                <circle cx="76" cy="69" r="3" fill="#FFF" fill-rule="nonzero" mask="url(#aw)" opacity=".3"/>
                <circle cx="96" cy="69" r="3" fill="#FFF" fill-rule="nonzero" mask="url(#aw)" opacity=".3"/>
                <circle cx="6" cy="79" r="3" fill="#FFF" fill-rule="nonzero" mask="url(#aw)" opacity=".3"/>
                <circle cx="26" cy="79" r="3" fill="#FFF" fill-rule="nonzero" mask="url(#aw)" opacity=".3"/>
                <circle cx="46" cy="79" r="3" fill="#FFF" fill-rule="nonzero" mask="url(#aw)" opacity=".3"/>
                <circle cx="66" cy="79" r="3" fill="#FFF" fill-rule="nonzero" mask="url(#aw)" opacity=".3"/>
                <circle cx="86" cy="79" r="3" fill="#FFF" fill-rule="nonzero" mask="url(#aw)" opacity=".3"/>
                <circle cx="16" cy="89" r="3" fill="#FFF" fill-rule="nonzero" mask="url(#aw)" opacity=".3"/>
                <circle cx="36" cy="89" r="3" fill="#FFF" fill-rule="nonzero" mask="url(#aw)" opacity=".3"/>
                <circle cx="56" cy="89" r="3" fill="#FFF" fill-rule="nonzero" mask="url(#aw)" opacity=".3"/>
                <circle cx="76" cy="89" r="3" fill="#FFF" fill-rule="nonzero" mask="url(#aw)" opacity=".3"/>
                <circle cx="96" cy="89" r="3" fill="#FFF" fill-rule="nonzero" mask="url(#aw)" opacity=".3"/>
                <circle cx="6" cy="99" r="3" fill="#FFF" fill-rule="nonzero" mask="url(#aw)" opacity=".3"/>
                <circle cx="26" cy="99" r="3" fill="#FFF" fill-rule="nonzero" mask="url(#aw)" opacity=".3"/>
                <circle cx="46" cy="99" r="3" fill="#FFF" fill-rule="nonzero" mask="url(#aw)" opacity=".3"/>
                <circle cx="66" cy="99" r="3" fill="#FFF" fill-rule="nonzero" mask="url(#aw)" opacity=".3"/>
                <circle cx="86" cy="99" r="3" fill="#FFF" fill-rule="nonzero" mask="url(#aw)" opacity=".3"/>
                <path fill="#FFF" fill-rule="nonzero" d="M59.011 9.788c6.686 12.414 9.614 23.868 8.785 34.361-.829 10.494.517 34.444 4.037 71.851h9.04c-4.558-10.274-7.07-17.954-7.536-23.038-1.956-21.35-3.176-38.988-2.504-48.813.912-13.335-2.133-25.087-9.134-35.256l-2.688.895z" mask="url(#aw)" opacity=".2"/>
                <path fill="#373A5B" fill-rule="nonzero" d="M84.13 42.187c2.345-12.8-.748-14.042-8.514-30.294 7.24 8.92 11.126 16.804 11.661 23.651.803 10.271 5.971.406 9.281 11.928C99.868 58.994 105.042 54.917 107 58c1.305 2.055-1.072 3.96-7.131 5.717-6.747-6.001-11.993-13.178-15.74-21.53zM35.757 3.626c.003 5.511 5 8.267 14.994 8.267 1.072 0 4.41 5.197 4.83 4.616.663-.917 2.303-3.707 4.118-3.786 3.62-.158 8.19 3.043 8.885 1.418.266-.622-2.225-3.336-7.471-8.141-2.844-4.616-6.119-7.097-9.825-7.444-3.707-.347-8.884 1.343-15.531 5.07zM122.238 14.902c.797 5.58 2.829 8.37 6.096 8.37 3.268 0 5.562-1.685 6.881-5.057l-10.578-6.322-2.399 3.01z" mask="url(#aw)" opacity=".3"/>
                <path fill="#FFD5D7" fill-rule="nonzero" d="M48 1.641l7.3 14.292a1 1 0 0 0 1.654.191l4.745-5.606 6.292 3.894a1 1 0 0 0 1.397-1.343L63.595 2.84 52.185-.97l-4.514 2.61" mask="url(#aw)"/>
                <path fill="#FFD5D7" fill-rule="nonzero" d="M2.517 53.824c-.242 1.879 2.748 6.533 4.116 6.533C8 60.357 18.037 53.46 18.353 52c.317-1.46.587-4.974-1.467-5.3-2.055-.324-14.127 5.245-14.369 7.124zM104.442 38.253c.776-2.286 1.553-3.43 2.33-3.43 1.164 0 8.693 8.122 7.243 14.384-1.45 6.263-4.694 7.55-5.872 6.263-1.839-2.104-3.072-7.843-3.701-17.217z"/>
            </g>
            <g transform="matrix(-1 0 0 1 674 199)">
                <mask id="az" fill="#fff">
                    <use xlink:href="#ax"/>
                </mask>
                <use fill="url(#ay)" fill-rule="nonzero" xlink:href="#ax"/>
                <path fill="#DA433D" fill-rule="nonzero" d="M3.028.537c1.445 8.982 5.247 13.83 11.405 14.546 6.159.715 9-1.238 8.525-5.86L3.028.537z" mask="url(#az)" opacity=".2"/>
            </g>
            <g transform="matrix(-1 0 0 1 677 181)">
                <mask id="aC" fill="#fff">
                    <use xlink:href="#aA"/>
                </mask>
                <use fill="url(#aB)" fill-rule="nonzero" xlink:href="#aA"/>
                <path fill="#DA433D" fill-rule="nonzero" d="M24.833-1.197C24.822 5.4 22.455 9.33 17.732 10.598c-4.723 1.267-8.127 1.075-10.214-.576.156-.284-.046-.871-.608-1.763-.562-.892 5.412-4.044 17.923-9.456z" mask="url(#aC)" opacity=".2"/>
            </g>
            <g>
                <use fill="url(#aE)" fill-rule="nonzero" transform="matrix(-1 0 0 1 615 215)" xlink:href="#aD"/>
                <use fill="url(#aG)" fill-rule="nonzero" transform="matrix(-1 0 0 1 715 263)" xlink:href="#aF"/>
            </g>
        </g>
        <g>
            <g transform="translate(185 461)">
                <mask id="aJ" fill="#fff">
                    <use xlink:href="#aH"/>
                </mask>
                <use fill="url(#aI)" fill-rule="nonzero" transform="matrix(-1 0 0 1 43.666 0)" xlink:href="#aH"/>
                <path fill="#F3F4FF" fill-rule="nonzero" d="M.923 9.845h41.82v7.087H.923z" mask="url(#aJ)" opacity=".2"/>
            </g>
            <g transform="translate(150 461)">
                <mask id="aM" fill="#fff">
                    <use xlink:href="#aK"/>
                </mask>
                <use fill="url(#aL)" fill-rule="nonzero" transform="matrix(-1 0 0 1 34.677 0)" xlink:href="#aK"/>
                <path fill="#F3F4FF" fill-rule="nonzero" d="M.517 9.845H34.16v7.087H.517z" mask="url(#aM)" opacity=".2"/>
            </g>
            <g transform="translate(152 297)">
                <mask id="aP" fill="#fff">
                    <use xlink:href="#aN"/>
                </mask>
                <use fill="url(#aO)" fill-rule="nonzero" xlink:href="#aN"/>
                <path fill="#151731" fill-rule="nonzero" d="M59.337.384c-.51 9.246-7.822 13.87-21.939 13.87-21.174 0-3.07 23.625-24.7 29.09S3.631 75.4-9.519 75.4c-8.767 0-4.99-24.495 11.33-73.486L59.338.384z" mask="url(#aP)" opacity=".3"/>
                <path fill="#151731" fill-rule="nonzero" d="M38.167 48.668l10.18-24.204c2.09 6.336 2.09 13.35 0 21.042-3.136 11.537 6.302 21.85 0 29.919-6.303 8.07 6.302 29.244-6.668 41.498-8.646 8.17-10.56 7.498-5.739-2.016l2.227-66.239z" mask="url(#aP)" opacity=".3" transform="rotate(-8 41.96 73.524)"/>
            </g>
            <g transform="translate(141 206)">
                <mask id="aS" fill="#fff">
                    <use xlink:href="#aQ"/>
                </mask>
                <use fill="url(#aR)" fill-rule="nonzero" xlink:href="#aQ"/>
                <path fill="#FFF" fill-rule="nonzero" d="M39.255 7.926c6.138 18.957 8.718 38.196 7.74 57.718-1.466 29.282 1.834 21.422 1.834 30.768 0 9.345 3.903 14.729 4.555 4.405.653-10.323-2.334-8.962-2.334-18.962s.242-36.511-2.221-50.876c-1.642-9.577-4.833-19.742-9.574-30.497v7.444z" mask="url(#aS)" opacity=".12"/>
                <path fill="#FFCCB5" fill-rule="nonzero" d="M47.996 24.926h11v3h-11z" mask="url(#aS)"/>
                <path fill="url(#aT)" fill-rule="nonzero" d="M43.305 59.126l7.916.892c.256 4.328 1.287 9.63 3.093 15.908l-7.318 8-7.179-5c1.89-9.753 3.053-16.353 3.488-19.8zm-4.05-51.2c3.735 1.73 5.603 2.993 5.603 3.789 0 .796-.373 2.096-1.12 3.898 3.702 13.782 5.902 23.305 6.6 28.569l-6.702.472c-.277-4.643-1.262-14-2.953-28.07-2.659-1.571-3.988-2.796-3.988-3.675s.853-2.54 2.56-4.983z" mask="url(#aS)"/>
                <path fill="#923E5A" fill-rule="nonzero" d="M14.156.438c-.233 6.92 4.647 10.381 14.64 10.381 1.072 0 4.41 5.197 4.83 4.616.663-.917 2.303-3.707 4.118-3.786 3.62-.158 11.39 1.902 12.085.277.266-.622-3.291-2.955-10.671-7C36.314.31 33.039-2.17 29.333-2.518c-3.707-.347-8.766.638-15.177 2.956z" mask="url(#aS)" opacity=".3"/>
                <path fill="#FFCCB5" fill-rule="nonzero" d="M25.295-4l7.256 18.91a1 1 0 0 0 1.705.278l5.999-7.262 8.726 4.36a1 1 0 0 0 1.305-1.41l-8.367-13.95-12.44-3.535L24.967-4" mask="url(#aS)"/>
                <path fill="#373A5B" fill-rule="nonzero" d="M1.48 90.273c1.724-4.142 5.106-7.201 10.147-9.176l-.624 7.136-7.434 3.151-2.088-1.11z" mask="url(#aS)" opacity=".3"/>
                <path fill="#923E5A" fill-rule="nonzero" d="M45.724 12.011c.92 34.664-1.665 52.566-7.756 53.706-9.136 1.711-16.187-4.566-18.422 3.49-2.235 8.055 10.028 18.43 0 19.792-6.686.908-9.22 4.335-7.6 10.28L9.517 54.515l19.109-2.88L45.724 12.01z" mask="url(#aS)" opacity=".3"/>
                <path fill="#923E5A" fill-rule="nonzero" d="M68.909 61.452c-24.59-1.828-41.618-4.278-51.08-7.349-2.355-.763-4.63.511-6.829-.371-2.6 2.68-3.266 5.254-2 7.72 3.306 6.44 14.315 14.13 18.455 14.13 9.778 0 11.96-15.88 22.378-11.817 6.946 2.71 13.305 1.938 19.076-2.313zM30.954 45.522L65.21 43c-.491-6.861-1.778-12.8-3.86-17.818 0 6.78-2.215 9.83-6.648 9.152-6.65-1.018-2.637 9.325-9.778 7.526-4.76-1.2-9.417.021-13.969 3.662zM34.417 12.011C31.087 30.239 27.949 38.896 25 37.98c-2.949-.916-4.841-6.637-5.678-17.163 1.592-.738 2.92 1.257 3.984 5.986 1.064 4.73 4.768-.201 11.11-14.792z" mask="url(#aS)" opacity=".3"/>
                <path fill="#373A5B" fill-rule="nonzero" d="M102.238 16.902c.797 5.58 2.829 8.37 6.096 8.37 3.268 0 5.562-1.685 6.881-5.057l-10.578-6.322-2.399 3.01z" mask="url(#aS)" opacity=".3"/>
                <path fill="url(#aU)" fill-rule="nonzero" d="M12.603 53.722c4.357 5.804 10.106 8.707 17.249 8.707 7.142 0 12.55-16.963 16.226-50.889-3.59-2.402-6.98-3.25-10.173-2.544L23.698 35.034C19.54 43.36 15.841 49.59 12.603 53.722z" mask="url(#aS)"/>
                <path fill="#FFF" fill-rule="nonzero" d="M35.819 9.365l-2.329 5.217c4.101 4.209 8.099 5.015 11.992 2.419l.589-5.345c-3.549-2.076-6.966-2.84-10.252-2.29z" mask="url(#aS)" opacity=".2"/>
            </g>
            <path fill="url(#aV)" fill-rule="nonzero" d="M27.884 11.817C27.452 6.045 24.894 2.439 20.211 1 13.187-1.158 3.958.442 1.351 8.803c-1.739 5.574-.2 12.256 4.617 20.046l21.916-17.032z" transform="translate(165.996 167.926)"/>
            <g transform="translate(167.996 193.926)">
                <mask id="aY" fill="#fff">
                    <use xlink:href="#aW"/>
                </mask>
                <use fill="url(#aX)" fill-rule="nonzero" xlink:href="#aW"/>
                <path fill="#50211F" fill-rule="nonzero" d="M2.852.866c1.445 8.982 5.247 13.83 11.405 14.546 6.159.715 9-1.238 8.525-5.86L2.852.866z" mask="url(#aY)" opacity=".2"/>
            </g>
            <g transform="translate(165.996 177.926)">
                <mask id="bc" fill="#fff">
                    <use xlink:href="#aZ"/>
                </mask>
                <use fill="url(#ba)" fill-rule="nonzero" xlink:href="#aZ"/>
                <path fill="url(#bb)" fill-rule="nonzero" d="M20.775 16.232c-3.357.445-5.43 1.547-6.215 3.305-.786 1.759 1.286 1.007 6.215-2.254 3.46 2.691 5.19 3.264 5.19 1.717 0-1.547-1.73-2.47-5.19-2.768z" mask="url(#bc)"/>
                <path fill="#50211F" fill-rule="nonzero" d="M28 2c-4.568 2.945-8.693 4.04-12.375 3.284-5.523-1.135-4.329 7.215-8.921 5.03L8.568-.627 28 2z" mask="url(#bc)" opacity=".2"/>
            </g>
            <g transform="translate(174 194)">
                <mask id="bf" fill="#fff">
                    <use xlink:href="#bd"/>
                </mask>
                <use fill="url(#be)" fill-rule="nonzero" xlink:href="#bd"/>
                <path fill="#50211F" fill-rule="nonzero" d="M3.07 21.365c3.012 2.531 6.347 3.027 10.008 1.487v2.46l-6.865.58-3.142-2.526v-2z" mask="url(#bf)" opacity=".2"/>
            </g>
        </g>
        <g>
            <g transform="matrix(-1 0 0 1 332 355)">
                <mask id="bj" fill="#fff">
                    <use xlink:href="#bg"/>
                </mask>
                <use fill="url(#bh)" fill-rule="nonzero" xlink:href="#bg"/>
                <path fill="url(#bi)" fill-rule="nonzero" d="M5.998 102.834c15.635 15.295 24.638 16.893 27.008 4.794 2.37-12.1 9.21-7.433 20.517 14L-.25 123l6.248-20.166z" mask="url(#bj)"/>
                <path fill="#50211F" fill-rule="nonzero" d="M30.582 16.529C20.836 21.577 13.308 24.1 8 24.1s-4.308-3.82 3-11.461l19.582 3.889z" mask="url(#bj)" opacity=".2"/>
            </g>
            <g transform="matrix(-1 0 0 1 376 355)">
                <mask id="bm" fill="#fff">
                    <use xlink:href="#bk"/>
                </mask>
                <use fill="url(#bl)" fill-rule="nonzero" xlink:href="#bk"/>
                <path fill="#50211F" fill-rule="nonzero" d="M44 20.128c.772 2.43.456 3.754-.947 3.973-12.36 1.934-21.65 0-26.186 0-5.308 0-5.93-3.82-1.867-11.461l29 7.488z" mask="url(#bm)" opacity=".2"/>
                <path fill="url(#bn)" fill-rule="nonzero" d="M1.593 108.635c8.258 8.155 17.58 7.943 27.966-.635l7.579 14h-40l4.455-13.365z" mask="url(#bm)"/>
            </g>
            <g transform="matrix(-1 0 0 1 364 287)">
                <mask id="bq" fill="#fff">
                    <use xlink:href="#bo"/>
                </mask>
                <use fill="url(#bp)" fill-rule="nonzero" xlink:href="#bo"/>
                <path fill="#151731" fill-rule="nonzero" d="M59.783 5.782c-.51 9.246-7.823 13.87-21.94 13.87-21.174 0-1.63 7.076-23.26 12.54C-7.047 37.657 12.35 56.086-.8 56.086c-8.767 0-7.748-16.259 3.056-48.775l57.526-1.529z" mask="url(#bq)" opacity=".3"/>
            </g>
            <g transform="matrix(-1 0 0 1 389 206)">
                <mask id="bt" fill="#fff">
                    <use xlink:href="#br"/>
                </mask>
                <use fill="url(#bs)" fill-rule="nonzero" xlink:href="#br"/>
                <circle cx="64.5" cy="28.5" r="1.5" fill="#FFF" fill-rule="nonzero" mask="url(#bt)"/>
                <circle cx="66.5" cy="38.5" r="1.5" fill="#FFF" fill-rule="nonzero" mask="url(#bt)"/>
                <path fill="#373A5B" fill-rule="nonzero" d="M29.127 34.933l12.995-12.95c-6.06 10.786-7.126 18.752-3.2 23.898 5.89 7.72 2.207 13.88-2.475 22.16-4.68 8.278 1.74 12.222-4.824 18.043L27.41 47.397l1.716-12.464zM81.462 42.882c2.346-12.8-.747-14.042-8.513-30.294 7.24 8.92 11.126 16.804 11.661 23.651.802 10.271 5.971.406 9.281 11.928 3.31 11.522 8.484 7.445 10.442 10.528 1.305 2.055-1.072 3.961-7.132 5.717-6.746-6.001-11.992-13.178-15.739-21.53zM20.48 88.273c1.724-4.142 5.106-7.201 10.147-9.176l-.624 7.136-7.434 3.151-2.088-1.11zM121.238 14.902c.797 5.58 2.829 8.37 6.096 8.37 3.268 0 5.562-1.685 6.881-5.057l-10.578-6.322-2.399 3.01z" mask="url(#bt)" opacity=".3"/>
                <path fill="#FFF" fill-rule="nonzero" d="M19.948 77.134a.5.5 0 0 1-.52-.854c.285-.175.566-.349.842-.524a.5.5 0 0 1 .535.846c-.28.177-.566.354-.857.532zm2.543-1.64a.5.5 0 1 1-.564-.826c.276-.19.547-.378.811-.567a.5.5 0 1 1 .581.813c-.27.193-.546.386-.828.58zm2.45-1.795a.5.5 0 1 1-.62-.785c.263-.207.519-.414.767-.621a.5.5 0 0 1 .64.768c-.255.213-.518.426-.788.638zm2.317-1.994a.5.5 0 1 1-.688-.726c.242-.229.475-.458.7-.687a.5.5 0 1 1 .714.7c-.233.238-.475.476-.726.713zm2.092-2.232a.5.5 0 0 1-.774-.633l.123-.152a.5.5 0 1 1 .78.626l-.13.16zM115.299 18.666a.5.5 0 1 1 .99-.136c.046.33.1.649.162.955a.5.5 0 0 1-.98.199 16.26 16.26 0 0 1-.172-1.018zm.751 3.026a.5.5 0 0 1 .932-.364c.118.303.249.589.391.856a.5.5 0 0 1-.882.47 9.075 9.075 0 0 1-.44-.962zm1.729 2.704a.5.5 0 0 1 .698-.717c.22.215.455.407.706.576a.5.5 0 1 1-.56.829 6.11 6.11 0 0 1-.844-.688zm2.924 1.6a.5.5 0 1 1 .242-.97c.292.072.598.126.919.162a.5.5 0 0 1-.11.994 8.037 8.037 0 0 1-1.05-.186zm3.078.203a.5.5 0 1 1-.081-.996c.309-.026.627-.064.956-.115a.5.5 0 0 1 .154.988c-.352.055-.696.096-1.03.123zM35.066 5.177a.5.5 0 0 1 .77-.639c.206.25.42.498.64.747a.5.5 0 1 1-.747.664 31.475 31.475 0 0 1-.663-.772zm2.052 2.25a.5.5 0 0 1 .71-.706c.229.23.463.461.704.691a.5.5 0 0 1-.692.723 40.334 40.334 0 0 1-.722-.709zm2.22 2.076a.5.5 0 0 1 .658-.753c.246.215.496.43.751.643a.5.5 0 1 1-.643.766c-.26-.218-.515-.437-.766-.656zm2.346 1.932a.5.5 0 1 1 .614-.789c.259.201.521.402.788.602a.5.5 0 0 1-.601.8c-.27-.204-.538-.408-.801-.613zm2.443 1.807a.5.5 0 0 1 .576-.817c.27.19.542.378.817.566a.5.5 0 0 1-.564.826c-.28-.19-.555-.382-.829-.575zm2.492 1.678a.5.5 0 0 1 .541-.84c.278.178.557.356.839.532a.5.5 0 0 1-.531.847 79.372 79.372 0 0 1-.85-.54zm2.574 1.591a.5.5 0 0 1 .51-.86c.285.17.57.337.858.503a.5.5 0 1 1-.5.865c-.291-.167-.58-.337-.868-.508zm2.627 1.499a.5.5 0 1 1 .48-.877c.292.16.584.317.876.473a.5.5 0 0 1-.471.882c-.295-.157-.59-.317-.885-.478zm2.681 1.41a.5.5 0 1 1 .451-.892c.298.15.594.298.89.443a.5.5 0 1 1-.44.898 87.943 87.943 0 0 1-.9-.448zm2.69 1.301a.5.5 0 0 1 .42-.908c.305.141.607.278.904.41a.5.5 0 0 1-.407.914 76.313 76.313 0 0 1-.916-.416zm2.776 1.212a.5.5 0 1 1 .379-.926c.318.13.625.252.92.366a.5.5 0 1 1-.36.933c-.301-.116-.614-.24-.939-.373zm2.867 1.051a.5.5 0 1 1 .294-.956c.373.115.682.195.914.239a.5.5 0 0 1-.186.982 9.845 9.845 0 0 1-1.022-.265zm3.171-.866a.5.5 0 1 1-.782-.623c.176-.221.362-.481.556-.776a.5.5 0 1 1 .836.55c-.21.318-.414.602-.61.849zm1.647-2.616a.5.5 0 0 1-.883-.47c.15-.28.3-.573.448-.876a.5.5 0 0 1 .897.442c-.153.312-.308.614-.462.904zm1.319-2.773a.5.5 0 0 1-.92-.393c.128-.301.254-.606.376-.913a.5.5 0 0 1 .93.37c-.126.314-.255.627-.386.936zm1.078-2.809a.5.5 0 1 1-.946-.323c.108-.315.21-.628.307-.938a.5.5 0 0 1 .954.298c-.1.319-.204.64-.315.963zm.865-2.943a.5.5 0 1 1-.972-.234c.079-.327.15-.646.211-.957a.5.5 0 0 1 .981.195c-.064.324-.138.657-.22.996zm.515-3.04a.5.5 0 0 1-.997-.08c.027-.336.039-.655.036-.954a.5.5 0 0 1 1-.01c.003.33-.01.678-.04 1.044zm-.332-3.213a.5.5 0 1 1-.926.377 1.942 1.942 0 0 0-.43-.669.5.5 0 1 1 .697-.716c.278.27.496.608.66 1.008zM26.107 92.494a.5.5 0 1 1 .157-.988c.33.053.657.104.984.155a.5.5 0 0 1-.154.988c-.328-.05-.657-.103-.987-.155zm2.969.456a.5.5 0 0 1 .146-.99c.33.05.66.097.987.144a.5.5 0 0 1-.142.99l-.991-.144zm2.978.42a.5.5 0 1 1 .134-.99c.33.044.66.088.988.13a.5.5 0 1 1-.129.992l-.993-.132zm2.982.383a.5.5 0 1 1 .12-.993c.332.04.662.08.991.118a.5.5 0 0 1-.116.994l-.995-.12zm2.99.342a.5.5 0 0 1 .107-.994l.992.104a.5.5 0 0 1-.101.995l-.997-.105zm2.992.298a.5.5 0 0 1 .092-.995l.995.089a.5.5 0 0 1-.087.996l-1-.09zm3 .253a.5.5 0 1 1 .076-.998c.333.026.664.05.994.073a.5.5 0 0 1-.07.998l-1-.073zm3.006.202a.5.5 0 0 1 .058-.999c.334.02.666.038.997.055a.5.5 0 1 1-.053 1l-1.002-.056zm3 .147a.5.5 0 0 1 .04-1c.334.014.666.026.997.037a.5.5 0 0 1-.033 1c-.333-.011-.668-.024-1.004-.037zm3.012.09a.5.5 0 0 1 .02-1c.333.007.666.012.996.016a.5.5 0 1 1-.012 1 141.8 141.8 0 0 1-1.004-.016zm3.012.026a.5.5 0 0 1-.002-1c.334 0 .666-.003.996-.006a.5.5 0 0 1 .01 1c-.333.003-.668.006-1.004.006zm3.018-.042a.5.5 0 0 1-.026-1c.333-.008.664-.018.994-.03a.5.5 0 1 1 .035 1c-.333.011-.667.021-1.003.03zm3.015-.117a.5.5 0 0 1-.052-.999c.333-.017.665-.036.994-.056a.5.5 0 1 1 .061.998c-.332.02-.667.04-1.003.057zm3.014-.199a.5.5 0 1 1-.08-.997c.332-.026.662-.055.99-.084a.5.5 0 0 1 .091.996c-.332.03-.666.058-1.001.085zm2.985-.286a.5.5 0 1 1-.11-.993c.33-.037.66-.076.987-.116a.5.5 0 0 1 .122.992c-.331.041-.664.08-.999.117zm2.994-.384a.5.5 0 1 1-.145-.99 82 82 0 0 0 .983-.15.5.5 0 0 1 .157.988c-.33.052-.662.103-.995.152zm2.983-.493a.5.5 0 0 1-.182-.984c.327-.06.652-.122.975-.187a.5.5 0 0 1 .195.981 75.17 75.17 0 0 1-.988.19zm2.964-.611a.5.5 0 0 1-.223-.975c.325-.074.647-.15.966-.228a.5.5 0 0 1 .237.971c-.324.08-.65.156-.98.232zm2.936-.741a.5.5 0 0 1-.267-.964c.32-.089.638-.18.953-.273a.5.5 0 0 1 .283.96c-.32.094-.643.186-.969.277zm2.903-.885a.5.5 0 1 1-.317-.948c.315-.105.628-.213.938-.322a.5.5 0 0 1 .333.942c-.315.112-.633.221-.954.328zm2.854-1.04a.5.5 0 0 1-.37-.93 49.5 49.5 0 0 0 .573-.232.5.5 0 0 1 .381.925 50.5 50.5 0 0 1-.584.236z" mask="url(#bt)" opacity=".5"/>
            </g>
            <g fill-rule="nonzero" transform="matrix(-1 0 0 1 353 164)">
                <ellipse cx="8.5" cy="9.06" fill="url(#bu)" rx="8.5" ry="8.127"/>
                <ellipse cx="13.5" cy="13.127" fill="url(#bv)" rx="8.5" ry="8.127"/>
                <circle cx="21.5" cy="20.5" r="17.5" fill="url(#bw)"/>
            </g>
            <g transform="matrix(-1 0 0 1 352 194)">
                <mask id="bz" fill="#fff">
                    <use xlink:href="#bx"/>
                </mask>
                <use fill="url(#by)" fill-rule="nonzero" xlink:href="#bx"/>
                <path fill="#50211F" fill-rule="nonzero" d="M13.028.537c1.445 8.982 5.247 13.83 11.405 14.546 6.159.715 9-1.238 8.525-5.86L13.028.537z" mask="url(#bz)" opacity=".2"/>
            </g>
            <g transform="matrix(-1 0 0 1 345 176)">
                <mask id="bC" fill="#fff">
                    <use xlink:href="#bA"/>
                </mask>
                <use fill="url(#bB)" fill-rule="nonzero" xlink:href="#bA"/>
                <path fill="#50211F" fill-rule="nonzero" d="M7.504 9.932c3.214-5.04 7.47-7.4 12.77-7.078 5.3.322 7.695 2.964 7.186 7.927L26.7.765l-9.97-3.392L8.59 1.687l-2.034 4.41.949 3.835z" mask="url(#bC)" opacity=".2"/>
            </g>
            <g>
                <use fill="url(#bE)" fill-rule="nonzero" transform="matrix(-1 0 0 1 272 210)" xlink:href="#bD"/>
                <use fill="url(#bG)" fill-rule="nonzero" transform="matrix(-1 0 0 1 367 276)" xlink:href="#bF"/>
            </g>
        </g>
    </g>
</svg>
