<svg xmlns="http://www.w3.org/2000/svg" xmlns:xlink="http://www.w3.org/1999/xlink" width="366" height="482" viewBox="0 0 366 482">
    <defs>
        <linearGradient id="b" x1="134.336%" x2="6.662%" y1="45.274%" y2="56.683%">
            <stop offset="0%" stop-color="#404683"/>
            <stop offset="100%" stop-color="#373A5B"/>
        </linearGradient>
        <path id="a" d="M32.512.151c.796.612-2.775 3.135-10.712 7.57-4.81 2.688-10.939 5.44-18.388 8.258-4.846 1.834-3.642 5.583 1.923 5.583h46.983c5.489 0 7.568-1.987 6.239-5.961L54.439.15H32.512z"/>
        <linearGradient id="c" x1="9.105%" x2="87.601%" y1="60.669%" y2="45.412%">
            <stop offset="0%" stop-color="#FF9292"/>
            <stop offset="100%" stop-color="#FFB59D"/>
        </linearGradient>
        <linearGradient id="f" x1="134.336%" x2="6.662%" y1="43.555%" y2="59.114%">
            <stop offset="0%" stop-color="#404683"/>
            <stop offset="100%" stop-color="#373A5B"/>
        </linearGradient>
        <path id="e" d="M18.725.151C13.116 6.202 8.2 10.81 3.974 13.972c-6.338 4.744-2.113 7.59 1.36 7.59h38.89c5.49 0 7.57-1.987 6.24-5.961L40.651.15H18.725z"/>
        <linearGradient id="g" x1="9.105%" x2="87.601%" y1="58.545%" y2="46.325%">
            <stop offset="0%" stop-color="#FF9292"/>
            <stop offset="100%" stop-color="#FFB59D"/>
        </linearGradient>
        <linearGradient id="j" x1="63.986%" x2="42.813%" y1="14.643%" y2="100%">
            <stop offset="0%" stop-color="#404683"/>
            <stop offset="100%" stop-color="#373A5B"/>
        </linearGradient>
        <path id="i" d="M16.926.047c-13.692 26.21-4.623 71.917-5.494 117.355-.72 37.61-9.643 81.817-10.277 90.67-.35 4.883-3.397 20.37 2.578 20.97 5.975.601 17.039.687 20.54.687 3.5 0 5.597-19.2 6.345-23.652 1.138-6.763 5.873-38.136 11.51-72.61 2.273-13.906 6.058-36.252 11.354-67.039 7.673 82.046 10.668 131.202 8.987 147.469-.495 4.79-2.11 15.146.564 15.146 2.673 0 20.882.686 22.887.686 2.004 0 1.408-11.365 3.307-23.652.724-4.686 4.44-31.493 4.374-75.589-.04-26.386.066-57.429-4.374-97.45-.707-6.368-2.266-15.41-4.677-27.127L16.926.047z"/>
        <linearGradient id="l" x1="50%" x2="50%" y1="0%" y2="100%">
            <stop offset="0%" stop-color="#AF3053"/>
            <stop offset="100%" stop-color="#7A3343"/>
        </linearGradient>
        <linearGradient id="n" x1="2.619%" x2="82.402%" y1="126.906%" y2="0%">
            <stop offset="0%" stop-color="#FFCFAA"/>
            <stop offset="100%" stop-color="#FA6EB9"/>
        </linearGradient>
        <path id="m" d="M81.298 5.41C62.241.134 80.888-.153 58.193 2.084 48.894 3 39.49 7.375 29.98 15.208 19.515 23.696 12.063 47.104 7.622 56.811c-4.442 9.707-6.168 20.762-.92 25.304 2.845 2.462 7.55 1.67 14.114-2.375 2.624-2.357 7.66-13.235 15.107-32.636 3.528 19.538 5.308 33.09 5.34 40.655.049 11.142-11.283 23.195-11.283 52.687.935.104 5.683-23.696 6.595-23.6 1.123.12-1.09 23.492 0 23.6 22.266 2.2 27.31 14.602 44.723 12.403 1.305-.165 3.262-9.6 5.872-28.302 2.855 19.02 5.114 28.454 6.778 28.302 6.84-.628 12.032-6.22 17.055-6.22 1.03 0-2.55-20.935-3.995-31.654-.623-4.625-2.654-18.025-2.654-36.522 0-7.214.885-15.144 2.654-23.791 12.918 13.52 22.69 20.416 29.314 20.684 6.624.268 6.064-7.562-1.681-23.49C111.784 24.412 94.003 8.93 81.298 5.412z"/>
        <linearGradient id="q" x1="54.748%" x2="26.455%" y1="23.826%" y2="110.63%">
            <stop offset="0%" stop-color="#F68585"/>
            <stop offset="100%" stop-color="#FF9B92"/>
        </linearGradient>
        <path id="p" d="M.558 18.438C4.841 27.213 16.018 29.85 18.42 29.85c1.601 0 2.135-3.068 1.601-9.206l.516-11.408L4.21.736c.686 11.359-.531 17.26-3.652 17.702z"/>
        <linearGradient id="t" x1="16.729%" x2="80.591%" y1="110.865%" y2="23.826%">
            <stop offset="0%" stop-color="#FF9292"/>
            <stop offset="100%" stop-color="#FFB59D"/>
        </linearGradient>
        <path id="s" d="M33.128.177c2.433 6.365 3.497 10.863 3.191 13.495-1.642 14.137-4.331 26.556-10.73 26.556-8.886 0-17.43-9.9-19.668-19.457a45.87 45.87 0 0 1-.071-.31 4.915 4.915 0 0 1-5.605-4.868 4.915 4.915 0 0 1 9.002-2.726c.497.227 17.587.905 23.881-12.69z"/>
        <linearGradient id="v" x1="26.526%" x2="71.583%" y1="110.865%" y2="23.826%">
            <stop offset="0%" stop-color="#FF9292"/>
            <stop offset="100%" stop-color="#FFB59D"/>
        </linearGradient>
        <linearGradient id="x" x1="25.273%" x2="72.736%" y1="110.865%" y2="23.826%">
            <stop offset="0%" stop-color="#FF9292"/>
            <stop offset="100%" stop-color="#FFB59D"/>
        </linearGradient>
        <path id="w" d="M8.934 58.047C7.616 52.56 4.668 47.048.088 41.511l15.725-25.009.132.157c-.046-.262-.09-.53-.132-.804.75-4.595 2.607-7.9 5.574-9.916 4.45-3.024 5.984-6.9 7.59-4.962 1.07 1.292.507 3.525-1.69 6.699 7.255.044 11.673-1.543 13.253-4.76 1.474-3 4.553-3.652 4.649-1.94.058 1.044-3.133 6.288-3.46 7.394-.86 2.922-.227 4.325-6.022 7.485-3.864 2.107-7.62 5.639-11.266 10.594-.093.027-.186.05-.28.069-10.158 20.461-11.899 26.196-15.227 31.53z"/>
        <linearGradient id="z" x1="44.982%" x2="64.741%" y1="110.865%" y2="60.697%">
            <stop offset="0%" stop-color="#843E3E"/>
            <stop offset="100%" stop-color="#C08775"/>
        </linearGradient>
        <path id="y" d="M52.208 61.61c5.274 43.485-2.976 53.218 0 72.19L55.756 158c1.327 3.99-3.194 3.227-8.674 3.227l-.884-11.533c-2.518 7.35-5.418 11.025-8.701 11.025H4.954c-5.557 0-6.759-3.765-1.921-5.606 7.437-2.83 13.89-5.205 18.692-7.903 5.283-2.969 8.506-7.438 9.669-13.409-4.184-50.253-6.276-79.319-6.276-87.196 0-7.967-.543-23.236-1.63-45.81h32.74c-3.216 23.593-5.83 45.898-4.02 60.817z"/>
        <linearGradient id="A" x1="100%" x2="8.356%" y1="41.72%" y2="57.821%">
            <stop offset="0%" stop-color="#FF8299"/>
            <stop offset="100%" stop-color="#CC2B32"/>
        </linearGradient>
        <linearGradient id="D" x1="44.599%" x2="65.866%" y1="110.865%" y2="60.697%">
            <stop offset="0%" stop-color="#843E3E"/>
            <stop offset="100%" stop-color="#C08775"/>
        </linearGradient>
        <path id="C" d="M43.978 61.758c8.96 46.731 5.276 56.265 8.252 75.237l3.548 24.199c1.327 3.99-3.194 3.227-8.674 3.227l-.884-11.533c-2.517 7.35-5.418 11.025-8.701 11.025H4.976c-5.557 0-6.759-3.765-1.92-5.606 7.436-2.83 13.89-5.205 18.691-7.903 5.283-2.969 8.506-7.438 9.669-13.409-7.906-50.445-15.461-72.93-15.461-80.808 0-5.31.601-20.342 1.805-45.094L59.794.029C49.36 24.682 41.286 47.714 43.978 61.758z"/>
        <linearGradient id="G" x1="94.665%" x2="27.048%" y1="14.643%" y2="100%">
            <stop offset="0%" stop-color="#404683"/>
            <stop offset="100%" stop-color="#373A5B"/>
        </linearGradient>
        <path id="F" d="M83.942 15.03c7.728 25.812-3.341 88.037-3.341 96.926 0 8.89-71.194 8.43-80.06 0C2.38 55.051 4.708 22.523 7.525 14.371c4.226-12.229 68.69-25.153 76.417.659z"/>
        <linearGradient id="J" x1="9.105%" x2="87.601%" y1="74.615%" y2="39.415%">
            <stop offset="0%" stop-color="#843E3E"/>
            <stop offset="100%" stop-color="#C08775"/>
        </linearGradient>
        <path id="I" d="M33.946 8.518c-5.447 6.468-8.68 9.933-9.695 10.393-5.279 2.389-7.755-2.008-9.947-.3-2.193 1.706-6.167 4.6-5.34 2.178.6-1.759-4.608-.449-2.886-3.164 1.149-1.81-3.288-1.568-2.534-2.382.755-.814 4.35-4.507 5.03-5.63.095-.158-2.425.308-3.358 1.135-1.672 1.482-4.692 1.678-5.002.416 3.335-2.167 5.5-3.436 6.497-3.808.997-.372 3.528-2.189 7.593-5.451L24.25.265c.016.005 2.994 4.155 9.695 8.253z"/>
        <linearGradient id="M" x1="18.7%" x2="78.779%" y1="110.865%" y2="23.826%">
            <stop offset="0%" stop-color="#843E3E"/>
            <stop offset="100%" stop-color="#C08775"/>
        </linearGradient>
        <path id="L" d="M7.026 1.903c-5.622 6.855-7.76 12-6.412 15.432C2.636 22.483 12.76 28.6 17.86 21.109c1.56-2.293.383-3.233-3.531-2.82 1.244-1.38 1.55-1.099 4.458-4.23 3.8-4.092 1.31-6.125 2.346-9.715C22.32.231 17.618-.583 7.026 1.903z"/>
        <linearGradient id="P" x1="28.883%" x2="81.458%" y1="128.09%" y2="28.726%">
            <stop offset="0%" stop-color="#6F4DE2"/>
            <stop offset="100%" stop-color="#FF7C7C"/>
        </linearGradient>
        <path id="O" d="M33.842 2.795c19.154-5.29 32.424-1.624 37.506.574 5.082 2.198 9.379 5.392 14.073 9.248 10.517 8.508 26.355 26.17 32.13 34.92 5.774 8.75 4.794 19.95.924 25.366-.925 1.294-24.568 26.931-26.007 28.88-3.97-2.22-7.543-5.208-10.716-8.967 1.405-1.398 11.213-18.828 19.151-32.138-3.156-2.81-9.658-8.216-22.11-19.132-3.11 21.617-4.68 36.217-4.713 43.801-.049 11.17 2.437 9.825 11.34 39.258-21.092 5.266-42.806 6.416-65.14 3.448l-3.049 14.41c-7.404 1.807-12.944.903-16.62-2.713C9.849 84.714 3.118 56.734 9.816 25.855 13.49 8.922 29.331 4.04 33.842 2.795z"/>
        <linearGradient id="R" x1="142.708%" x2="26.935%" y1="61.723%" y2="26.376%">
            <stop offset="0%" stop-color="#C56868"/>
            <stop offset="100%" stop-color="#7B4838"/>
        </linearGradient>
        <linearGradient id="S" x1="25.093%" x2="117.883%" y1="64.71%" y2="-11.072%">
            <stop offset="0%" stop-color="#321847"/>
            <stop offset="100%" stop-color="#834A88"/>
        </linearGradient>
        <linearGradient id="T" x1="67.813%" x2="6.662%" y1="6.065%" y2="93.935%">
            <stop offset="0%" stop-color="#FFB782"/>
            <stop offset="100%" stop-color="#EB4878"/>
        </linearGradient>
        <linearGradient id="U" x1="25.093%" x2="117.883%" y1="63.446%" y2="-5.823%">
            <stop offset="0%" stop-color="#321847"/>
            <stop offset="100%" stop-color="#834A88"/>
        </linearGradient>
        <linearGradient id="W" x1="50%" x2="50%" y1="0%" y2="100%">
            <stop offset="0%" stop-color="#A3EDED"/>
            <stop offset="100%" stop-color="#9FCFFF"/>
        </linearGradient>
        <path id="V" d="M39.09 61.092c3.96-3.287 6.145-5.859 6.558-7.714.412-1.855.563-3.554.454-5.097l1.08-.282c3.691-17.555 6.154-30.51 7.388-38.867l33.109 8.524L71.447 70.35 39.09 61.092zM35.167 4.967c-.98 16.68-2.506 30.127-4.58 40.34l.737.67c-3.563 4.445-5.462 8.293-5.695 11.543L.335 51.23 13.547.054l21.62 4.913z"/>
        <linearGradient id="Y" x1="67.813%" x2="6.662%" y1="36.122%" y2="63.878%">
            <stop offset="0%" stop-color="#FFB782"/>
            <stop offset="100%" stop-color="#EB4878"/>
        </linearGradient>
        <linearGradient id="Z" x1="5.388%" x2="84.005%" y1="63.878%" y2="34.059%">
            <stop offset="0%" stop-color="#46E5F2"/>
            <stop offset="100%" stop-color="#9E66FF"/>
        </linearGradient>
    </defs>
    <g fill="none" fill-rule="evenodd">
        <g transform="matrix(-1 0 0 1 244.435 456.932)">
            <mask id="d" fill="#fff">
                <use xlink:href="#a"/>
            </mask>
            <use fill="url(#b)" fill-rule="nonzero" transform="matrix(-1 0 0 1 59.327 0)" xlink:href="#a"/>
            <path fill="url(#c)" fill-rule="nonzero" d="M-2.974 12.182c29.405 3.368 44.955.366 46.65-9.005C45.371-6.193 30.521-8.44-.874-3.565l-2.1 15.747z" mask="url(#d)"/>
        </g>
        <g transform="matrix(-1 0 0 1 311.923 456.932)">
            <mask id="h" fill="#fff">
                <use xlink:href="#e"/>
            </mask>
            <use fill="url(#f)" fill-rule="nonzero" transform="matrix(-1 0 0 1 51.555 0)" xlink:href="#e"/>
            <path fill="url(#g)" fill-rule="nonzero" d="M4.328 7.854c16.78 4.545 29.703 4.037 38.766-1.522C52.157.772 40.058-2.904 6.797-4.696L4.328 7.854z" mask="url(#h)"/>
        </g>
        <g transform="matrix(-1 0 0 1 303.382 228.816)">
            <mask id="k" fill="#fff">
                <use xlink:href="#i"/>
            </mask>
            <use fill="url(#j)" fill-rule="nonzero" xlink:href="#i"/>
            <path fill="#151731" fill-rule="nonzero" d="M103 12.035c-5.743 23.104-18.279 34.656-37.607 34.656-28.991 0-5.159 15.06-34.775 22.473-29.616 7.412-11.458 60.464-29.463 60.464-12.004 0-8.578-44.812 10.277-134.436l91.569 16.843z" mask="url(#k)" opacity=".3"/>
            <path fill="#151731" fill-rule="nonzero" d="M53.42 65.76l10.835-34.078c4.93 9.428 5.965 19.357 3.103 29.79-4.293 15.648 8.63 29.635 0 40.581C58.73 113 75.988 141.72 58.23 158.34c-7.443 6.967-1.394-6.656-.745-32.852.256-10.31-1.098-30.22-4.063-59.727z" mask="url(#k)" opacity=".3"/>
        </g>
        <path fill="url(#l)" fill-rule="nonzero" d="M81.11 1.352c25.427 6.021 19.755 31.074 13.074 58.12-6.681 27.045-22.933 78.037-57.113 73.939C2.89 129.313-6.64 108.126 5.737 84.048c12.377-24.078 37.03-24.576 39.93-44.764C48.568 19.097 55.684-4.67 81.111 1.352z" transform="matrix(-1 0 0 1 325.98 61)"/>
        <g transform="matrix(-1 0 0 1 323.829 117.073)">
            <mask id="o" fill="#fff">
                <use xlink:href="#m"/>
            </mask>
            <use fill="url(#n)" fill-rule="nonzero" xlink:href="#m"/>
            <ellipse cx="27.671" cy="25.7" fill="#FFF" fill-rule="nonzero" mask="url(#o)" opacity=".3" rx="4.078" ry="4.058"/>
            <ellipse cx="54.855" cy="25.7" fill="#FFF" fill-rule="nonzero" mask="url(#o)" opacity=".3" rx="4.078" ry="4.058"/>
            <ellipse cx="82.04" cy="25.7" fill="#FFF" fill-rule="nonzero" mask="url(#o)" opacity=".3" rx="4.078" ry="4.058"/>
            <ellipse cx="109.225" cy="25.7" fill="#FFF" fill-rule="nonzero" mask="url(#o)" opacity=".3" rx="4.078" ry="4.058"/>
            <ellipse cx="41.263" cy="12.174" fill="#FFF" fill-rule="nonzero" mask="url(#o)" opacity=".3" rx="4.078" ry="4.058"/>
            <ellipse cx="68.448" cy="12.174" fill="#FFF" fill-rule="nonzero" mask="url(#o)" opacity=".3" rx="4.078" ry="4.058"/>
            <ellipse cx="95.632" cy="12.174" fill="#FFF" fill-rule="nonzero" mask="url(#o)" opacity=".3" rx="4.078" ry="4.058"/>
            <ellipse cx="122.817" cy="12.174" fill="#FFF" fill-rule="nonzero" mask="url(#o)" opacity=".3" rx="4.078" ry="4.058"/>
            <ellipse cx="136.409" cy="25.7" fill="#FFF" fill-rule="nonzero" mask="url(#o)" opacity=".3" rx="4.078" ry="4.058"/>
            <ellipse cx="14.078" cy="39.227" fill="#FFF" fill-rule="nonzero" mask="url(#o)" opacity=".3" rx="4.078" ry="4.058"/>
            <ellipse cx="41.263" cy="39.227" fill="#FFF" fill-rule="nonzero" mask="url(#o)" opacity=".3" rx="4.078" ry="4.058"/>
            <ellipse cx="68.448" cy="39.227" fill="#FFF" fill-rule="nonzero" mask="url(#o)" opacity=".3" rx="4.078" ry="4.058"/>
            <ellipse cx="95.632" cy="39.227" fill="#FFF" fill-rule="nonzero" mask="url(#o)" opacity=".3" rx="4.078" ry="4.058"/>
            <ellipse cx="122.817" cy="39.227" fill="#FFF" fill-rule="nonzero" mask="url(#o)" opacity=".3" rx="4.078" ry="4.058"/>
            <ellipse cx=".486" cy="52.753" fill="#FFF" fill-rule="nonzero" mask="url(#o)" opacity=".3" rx="4.078" ry="4.058"/>
            <ellipse cx="27.671" cy="52.753" fill="#FFF" fill-rule="nonzero" mask="url(#o)" opacity=".3" rx="4.078" ry="4.058"/>
            <ellipse cx="54.855" cy="52.753" fill="#FFF" fill-rule="nonzero" mask="url(#o)" opacity=".3" rx="4.078" ry="4.058"/>
            <ellipse cx="82.04" cy="52.753" fill="#FFF" fill-rule="nonzero" mask="url(#o)" opacity=".3" rx="4.078" ry="4.058"/>
            <ellipse cx="109.225" cy="52.753" fill="#FFF" fill-rule="nonzero" mask="url(#o)" opacity=".3" rx="4.078" ry="4.058"/>
            <ellipse cx="14.078" cy="66.279" fill="#FFF" fill-rule="nonzero" mask="url(#o)" opacity=".3" rx="4.078" ry="4.058"/>
            <ellipse cx="41.263" cy="66.279" fill="#FFF" fill-rule="nonzero" mask="url(#o)" opacity=".3" rx="4.078" ry="4.058"/>
            <ellipse cx="68.448" cy="66.279" fill="#FFF" fill-rule="nonzero" mask="url(#o)" opacity=".3" rx="4.078" ry="4.058"/>
            <ellipse cx="95.632" cy="66.279" fill="#FFF" fill-rule="nonzero" mask="url(#o)" opacity=".3" rx="4.078" ry="4.058"/>
            <ellipse cx="122.817" cy="66.279" fill="#FFF" fill-rule="nonzero" mask="url(#o)" opacity=".3" rx="4.078" ry="4.058"/>
            <ellipse cx=".486" cy="79.806" fill="#FFF" fill-rule="nonzero" mask="url(#o)" opacity=".3" rx="4.078" ry="4.058"/>
            <ellipse cx="27.671" cy="79.806" fill="#FFF" fill-rule="nonzero" mask="url(#o)" opacity=".3" rx="4.078" ry="4.058"/>
            <ellipse cx="54.855" cy="79.806" fill="#FFF" fill-rule="nonzero" mask="url(#o)" opacity=".3" rx="4.078" ry="4.058"/>
            <ellipse cx="82.04" cy="79.806" fill="#FFF" fill-rule="nonzero" mask="url(#o)" opacity=".3" rx="4.078" ry="4.058"/>
            <ellipse cx="109.225" cy="79.806" fill="#FFF" fill-rule="nonzero" mask="url(#o)" opacity=".3" rx="4.078" ry="4.058"/>
            <ellipse cx="14.078" cy="93.332" fill="#FFF" fill-rule="nonzero" mask="url(#o)" opacity=".3" rx="4.078" ry="4.058"/>
            <ellipse cx="41.263" cy="93.332" fill="#FFF" fill-rule="nonzero" mask="url(#o)" opacity=".3" rx="4.078" ry="4.058"/>
            <ellipse cx="68.448" cy="93.332" fill="#FFF" fill-rule="nonzero" mask="url(#o)" opacity=".3" rx="4.078" ry="4.058"/>
            <ellipse cx="95.632" cy="93.332" fill="#FFF" fill-rule="nonzero" mask="url(#o)" opacity=".3" rx="4.078" ry="4.058"/>
            <ellipse cx="122.817" cy="93.332" fill="#FFF" fill-rule="nonzero" mask="url(#o)" opacity=".3" rx="4.078" ry="4.058"/>
            <ellipse cx=".486" cy="106.859" fill="#FFF" fill-rule="nonzero" mask="url(#o)" opacity=".3" rx="4.078" ry="4.058"/>
            <ellipse cx="27.671" cy="106.859" fill="#FFF" fill-rule="nonzero" mask="url(#o)" opacity=".3" rx="4.078" ry="4.058"/>
            <ellipse cx="54.855" cy="106.859" fill="#FFF" fill-rule="nonzero" mask="url(#o)" opacity=".3" rx="4.078" ry="4.058"/>
            <ellipse cx="82.04" cy="106.859" fill="#FFF" fill-rule="nonzero" mask="url(#o)" opacity=".3" rx="4.078" ry="4.058"/>
            <ellipse cx="109.225" cy="106.859" fill="#FFF" fill-rule="nonzero" mask="url(#o)" opacity=".3" rx="4.078" ry="4.058"/>
            <ellipse cx="14.078" cy="120.385" fill="#FFF" fill-rule="nonzero" mask="url(#o)" opacity=".3" rx="4.078" ry="4.058"/>
            <ellipse cx="41.263" cy="120.385" fill="#FFF" fill-rule="nonzero" mask="url(#o)" opacity=".3" rx="4.078" ry="4.058"/>
            <ellipse cx="68.448" cy="120.385" fill="#FFF" fill-rule="nonzero" mask="url(#o)" opacity=".3" rx="4.078" ry="4.058"/>
            <ellipse cx="95.632" cy="120.385" fill="#FFF" fill-rule="nonzero" mask="url(#o)" opacity=".3" rx="4.078" ry="4.058"/>
            <ellipse cx="122.817" cy="120.385" fill="#FFF" fill-rule="nonzero" mask="url(#o)" opacity=".3" rx="4.078" ry="4.058"/>
            <ellipse cx=".486" cy="133.912" fill="#FFF" fill-rule="nonzero" mask="url(#o)" opacity=".3" rx="4.078" ry="4.058"/>
            <ellipse cx="27.671" cy="133.912" fill="#FFF" fill-rule="nonzero" mask="url(#o)" opacity=".3" rx="4.078" ry="4.058"/>
            <ellipse cx="54.855" cy="133.912" fill="#FFF" fill-rule="nonzero" mask="url(#o)" opacity=".3" rx="4.078" ry="4.058"/>
            <ellipse cx="82.04" cy="133.912" fill="#FFF" fill-rule="nonzero" mask="url(#o)" opacity=".3" rx="4.078" ry="4.058"/>
            <ellipse cx="109.225" cy="133.912" fill="#FFF" fill-rule="nonzero" mask="url(#o)" opacity=".3" rx="4.078" ry="4.058"/>
            <path fill="#FFF" fill-rule="nonzero" d="M72.54 13.24c9.088 16.792 13.069 32.285 11.942 46.478-1.127 14.194.702 46.59 5.487 97.189h12.286c-6.195-13.898-9.609-24.285-10.242-31.163-2.659-28.88-4.317-52.736-3.403-66.026 1.24-18.037-2.9-33.934-12.416-47.69L72.54 13.24z" mask="url(#o)" opacity=".2"/>
            <path fill="#373A5B" fill-rule="nonzero" d="M36.665 43.285l4.956-10.214c-1.5 12.289.42 21.914 5.757 28.875 8.006 10.442 2.998 18.775-3.364 29.974-6.363 11.198-.171 16.534-9.093 24.407l-3.19-52.33 4.934-20.712zM106.682 57.064c3.188-17.314-1.016-18.994-11.571-40.978 9.84 12.067 15.123 22.73 15.85 31.993 1.09 13.892 8.116.549 12.615 16.134 4.5 15.585 11.532 10.07 14.193 14.24 1.774 2.78-1.458 5.358-9.694 7.734-9.17-8.118-16.3-17.826-21.393-29.123zM40.933 4.905c.004 7.454 6.797 11.181 20.38 11.181 1.457 0 5.994 7.03 6.565 6.244.901-1.24 3.13-5.014 5.597-5.12 4.92-.214 11.133 4.115 12.077 1.918.362-.842-3.023-4.512-10.155-11.012-3.865-6.244-8.317-9.6-13.355-10.07-5.038-.47-12.074 1.817-21.11 6.859z" mask="url(#o)" opacity=".3"/>
            <path fill="#373A5B" fill-rule="nonzero" d="M21.528 119.402c2.343-5.603 6.94-9.741 13.791-12.412l-.848 9.652-10.104 4.263-2.839-1.503zM158.481 20.157c1.082 7.548 3.845 11.323 8.286 11.323 4.442 0 7.56-2.28 9.352-6.841l-14.378-8.553-3.26 4.071z" mask="url(#o)" opacity=".3"/>
            <path fill="#FFD5D7" fill-rule="nonzero" d="M57.574 2.22L67.742 22.03a1 1 0 0 0 1.651.191l6.8-7.995 9.743 6a1 1 0 0 0 1.393-1.346L78.771 3.839l-15.51-5.15-6.134 3.53" mask="url(#o)"/>
            <path fill="#FFD5D7" fill-rule="nonzero" d="M8.417 56.791c7.038-.162 10.01 6.156 8.914 18.957-1.643 19.2-14.96 6.716-16.862 4.035-1.267-1.788 1.382-9.452 7.948-22.992zM134.292 51.743c1.055-3.093 2.11-4.639 3.166-4.639 1.583 0 11.817 10.985 9.846 19.456-1.97 8.471-6.38 10.212-7.982 8.471-2.499-2.846-4.176-10.609-5.03-23.288z"/>
        </g>
        <g transform="matrix(-1 0 0 1 265.644 100.952)">
            <mask id="r" fill="#fff">
                <use xlink:href="#p"/>
            </mask>
            <use fill="url(#q)" fill-rule="nonzero" xlink:href="#p"/>
            <path fill="#DA433D" fill-rule="nonzero" d="M4.146.736C6.125 13.04 11.33 19.682 19.762 20.663c8.432.98 12.323-1.696 11.672-8.028L4.146.736z" mask="url(#r)" opacity=".2"/>
        </g>
        <g transform="matrix(-1 0 0 1 268.879 77.164)">
            <mask id="u" fill="#fff">
                <use xlink:href="#s"/>
            </mask>
            <use fill="url(#t)" fill-rule="nonzero" xlink:href="#s"/>
            <path fill="#DA433D" fill-rule="nonzero" d="M33.128-2.51c-.015 9.036-3.257 14.423-9.723 16.158-6.466 1.736-11.128 1.473-13.984-.789.214-.389-.064-1.194-.833-2.415-.77-1.222 7.41-5.54 24.54-12.955z" mask="url(#u)" opacity=".2"/>
        </g>
        <g>
            <path fill="url(#v)" fill-rule="nonzero" d="M43.747 69.77c-3.33-5.333-12.379-22.79-22.535-43.252a3.807 3.807 0 0 1-.282-.069c-3.646-4.955-7.401-8.487-11.265-10.594-5.796-3.16-5.162-4.563-6.023-7.485C3.316 7.264.124 2.02.182.977.28-.736 3.359-.085 4.833 2.915c1.58 3.218 5.998 4.805 13.253 4.76-2.197-3.173-2.76-5.406-1.69-6.698 1.606-1.938 3.14 1.938 7.59 4.962 2.967 2.016 4.825 5.321 5.574 9.916-.043.274-.087.542-.132.804l.132-.157 23.344 33.766c.726 11.687-2.326 18.187-9.156 19.502z" transform="matrix(-1 0 0 1 365.573 127.523)"/>
            <use fill="url(#x)" fill-rule="nonzero" transform="matrix(-1 0 0 1 184.843 123.445)" xlink:href="#w"/>
        </g>
        <g>
            <g transform="matrix(-1 0 0 1 101.42 320.42)">
                <mask id="B" fill="#fff">
                    <use xlink:href="#y"/>
                </mask>
                <use fill="url(#z)" fill-rule="nonzero" xlink:href="#y"/>
                <path fill="url(#A)" fill-rule="nonzero" d="M54.746 135.259l8.48 27.322-72.981-1.86c15.347-29.037 24.629-35.36 27.846-18.967 3.216 16.392 15.435 14.227 36.655-6.495z" mask="url(#B)"/>
                <path fill="#50211F" fill-rule="nonzero" d="M55.378 20.208c-12.478 6.364-22.32 9.545-29.524 9.545-7.204 0-9.443-4.696-6.715-14.088l36.24 4.543z" mask="url(#B)" opacity=".2"/>
            </g>
            <g transform="matrix(-1 0 0 1 133.186 317.14)">
                <mask id="E" fill="#fff">
                    <use xlink:href="#C"/>
                </mask>
                <use fill="url(#D)" fill-rule="nonzero" xlink:href="#C"/>
                <path fill="url(#A)" fill-rule="nonzero" d="M58.81 138.454l8.48 27.322-72.981-1.86c15.347-29.037 24.629-35.36 27.845-18.967 3.217 16.392 15.436 14.227 36.656-6.495z" mask="url(#E)"/>
                <path fill="#50211F" fill-rule="nonzero" d="M52.18 24.134c-15.63 5.932-27.046 8.898-34.25 8.898-7.204 0-7.96-4.577-2.267-13.73l36.516 4.832z" mask="url(#E)" opacity=".2"/>
            </g>
            <g transform="matrix(-1 0 0 1 122.543 225.91)">
                <mask id="H" fill="#fff">
                    <use xlink:href="#F"/>
                </mask>
                <use fill="url(#G)" fill-rule="nonzero" xlink:href="#F"/>
                <path fill="#151731" fill-rule="nonzero" d="M86.794 6.583C86.1 19.143 76.149 25.424 56.94 25.424c-28.814 0-2.22 9.613-31.653 17.038-29.434 7.424-3.037 32.46-20.931 32.46-11.93 0-10.544-22.088 4.158-66.263l78.28-2.076z" mask="url(#H)" opacity=".3"/>
            </g>
            <g transform="matrix(-1 0 0 1 63.318 209.364)">
                <mask id="K" fill="#fff">
                    <use xlink:href="#I"/>
                </mask>
                <use fill="url(#J)" fill-rule="nonzero" xlink:href="#I"/>
                <path fill="#50211F" fill-rule="nonzero" d="M20.715-.393c3.31 7.258 7.842 10.739 13.596 10.444 5.753-.296 2.735-4.571-9.055-12.826l-4.54 2.382z" mask="url(#K)" opacity=".2"/>
            </g>
            <g transform="matrix(-1 0 0 1 126.83 253.787)">
                <mask id="N" fill="#fff">
                    <use xlink:href="#L"/>
                </mask>
                <use fill="url(#M)" fill-rule="nonzero" xlink:href="#L"/>
                <path fill="#50211F" fill-rule="nonzero" d="M3.64 4.736C9.226 8.46 15.39 9.125 22.13 6.731c6.74-2.394 1.053-4.19-17.06-5.385L2.712 4.038l.928.698z" mask="url(#N)" opacity=".2"/>
            </g>
            <g transform="matrix(-1 0 0 1 122.543 117.727)">
                <mask id="Q" fill="#fff">
                    <use xlink:href="#O"/>
                </mask>
                <use fill="url(#P)" fill-rule="nonzero" xlink:href="#O"/>
                <path fill="#373A5B" fill-rule="nonzero" d="M20.28 128.388c4.305-23.084 6.676-38.592 7.112-46.522.436-7.93.436-22.307 0-43.132 4.973 7.22 7.46 14.46 7.46 21.72 0 10.89 15.337 22.373 2.904 34.853s-1.906 30.166-8.72 33.595c-4.543 2.287-7.462 2.115-8.756-.514zM11.151.2c-3.924 4.89.94 7.334 14.592 7.334 13.652 0 25.548-3.164 35.688-9.492L11.15.2zM78.023 46.445l3.2-22.782c1.62 15.188 5.533 23.59 11.741 25.207 5.961 1.552 6.662 6.888 7.268 11.69.226 1.8-6.11 4.883-19.009 9.25l-3.2-23.365z" mask="url(#Q)" opacity=".3"/>
                <path fill="#FFF" fill-rule="nonzero" d="M21.776 124.285a.679.679 0 0 1-.593-.756.682.682 0 0 1 .762-.59c.451.057.901.11 1.35.163a.68.68 0 0 1 .6.753.682.682 0 0 1-.759.594c-.452-.053-.905-.107-1.36-.164zm4.085.464a.68.68 0 0 1-.609-.745.682.682 0 0 1 .75-.604c.453.047.905.092 1.356.135a.68.68 0 0 1 .614.74.682.682 0 0 1-.746.61c-.454-.044-.91-.09-1.365-.136zm4.098.38a.68.68 0 0 1-.624-.732.682.682 0 0 1 .737-.62c.454.038.906.073 1.358.107a.68.68 0 0 1 .63.727.681.681 0 0 1-.732.625c-.456-.034-.912-.07-1.369-.107zm4.104.292a.68.68 0 0 1-.64-.718.681.681 0 0 1 .722-.636c.455.027.908.053 1.36.077a.68.68 0 0 1 .646.713.681.681 0 0 1-.718.64c-.456-.023-.912-.049-1.37-.076zm4.11.2a.68.68 0 0 1-.656-.703.681.681 0 0 1 .708-.652c.454.017.908.032 1.36.045a.68.68 0 0 1 .663.698.68.68 0 0 1-.703.657c-.456-.013-.913-.028-1.371-.045zm4.121.104a.68.68 0 0 1-.674-.687.68.68 0 0 1 .692-.669c.455.006.908.01 1.36.013a.68.68 0 0 1 .68.681.68.68 0 0 1-.686.674c-.457-.002-.914-.006-1.372-.012zm4.123.004a.68.68 0 0 1-.691-.67.68.68 0 0 1 .675-.686c.455-.006.908-.013 1.36-.022a.68.68 0 0 1 .697.664.68.68 0 0 1-.669.692c-.456.009-.914.016-1.372.022zm4.127-.102a.681.681 0 0 1-.708-.651.68.68 0 0 1 .657-.704c.453-.017.906-.036 1.357-.057a.681.681 0 0 1 .715.646.68.68 0 0 1-.65.709c-.456.021-.913.04-1.37.057zm4.094-.208a.681.681 0 0 1-.726-.633.68.68 0 0 1 .637-.72c.453-.03.905-.06 1.356-.094a.681.681 0 0 1 .731.626.68.68 0 0 1-.63.726c-.455.034-.911.066-1.368.095zm4.109-.322a.682.682 0 0 1-.744-.612.68.68 0 0 1 .617-.739c.452-.041.903-.085 1.353-.131a.682.682 0 0 1 .75.604.68.68 0 0 1-.61.744c-.454.047-.91.091-1.366.134zm4.102-.44a.682.682 0 0 1-.761-.59.68.68 0 0 1 .594-.756c.45-.055.9-.113 1.348-.172a.682.682 0 0 1 .768.583.679.679 0 0 1-.587.761c-.453.06-.907.118-1.362.173zm4.09-.562a.679.679 0 0 1-.208-1.34c.448-.069.895-.14 1.341-.213a.679.679 0 1 1 .222 1.338c-.45.074-.903.145-1.356.215zm4.073-.688a.678.678 0 0 1-.25-1.333c.446-.083.89-.167 1.334-.254a.678.678 0 1 1 .265 1.33c-.448.088-.898.174-1.349.257zm4.053-.817a.678.678 0 1 1-.294-1.324c.443-.097.885-.196 1.325-.298a.678.678 0 1 1 .308 1.321c-.445.103-.892.203-1.34.3zm3.967-.936a.678.678 0 1 1-.338-1.314c.44-.11.878-.224 1.315-.34a.677.677 0 1 1 .353 1.31c-.443.117-.886.232-1.33.344zm3.982-1.08a.677.677 0 1 1-.383-1.302c.436-.126.87-.254 1.302-.385.361-.109.743.093.853.451a.677.677 0 0 1-.455.846c-.438.133-.876.263-1.317.39zM82.663 90.64a.674.674 0 0 1 .027-.96.687.687 0 0 1 .966.028c.316.333.629.657.938.973a.674.674 0 0 1-.015.958.687.687 0 0 1-.965-.014c-.314-.32-.63-.649-.951-.986zm2.902 2.917a.674.674 0 0 1-.018-.959.687.687 0 0 1 .966-.018c.332.317.66.624.983.92a.674.674 0 0 1 .038.958.687.687 0 0 1-.965.038c-.33-.302-.664-.615-1.004-.94zm3.087 2.756a.675.675 0 0 1-.089-.955.687.687 0 0 1 .962-.088c.356.294.705.572 1.047.835.298.23.353.656.122.951a.686.686 0 0 1-.959.121 40.95 40.95 0 0 1-1.083-.864zm3.367 2.468a.675.675 0 0 1-.211-.935.686.686 0 0 1 .943-.21c.39.246.768.468 1.136.666.332.179.455.59.274.92a.686.686 0 0 1-.926.272c-.396-.214-.801-.451-1.216-.713zM.263 136.9a.676.676 0 0 1-.322-.904.685.685 0 0 1 .911-.319 33 33 0 0 0 1.219.55.676.676 0 0 1 .358.89.685.685 0 0 1-.897.355 34.37 34.37 0 0 1-1.27-.571zm3.884 1.553a.677.677 0 0 1-.438-.855.684.684 0 0 1 .861-.434c.427.138.852.265 1.277.38a.677.677 0 1 1-.36 1.308c-.446-.121-.893-.254-1.34-.399zm4.107.992a.679.679 0 1 1 .215-1.34c.44.07.878.127 1.316.17a.68.68 0 0 1 .61.743.682.682 0 0 1-.748.607 24.723 24.723 0 0 1-1.393-.18zm4.203.295a.68.68 0 0 1-.695-.665.68.68 0 0 1 .67-.69c.442-.01.882-.03 1.322-.066a.682.682 0 0 1 .736.622.68.68 0 0 1-.626.73c-.468.037-.937.06-1.407.069zm4.237-.472a.678.678 0 1 1-.277-1.328c.431-.089.861-.19 1.29-.305a.677.677 0 1 1 .356 1.31c-.455.12-.911.229-1.369.323zM17.306 10.884a.675.675 0 0 1-.158-.946.686.686 0 0 1 .953-.157c.354.251.721.495 1.1.73.32.199.417.617.216.934a.686.686 0 0 1-.941.215c-.402-.25-.792-.508-1.17-.776zm3.633 2.122a.676.676 0 0 1-.318-.906.685.685 0 0 1 .912-.315c.394.189.8.37 1.215.545.347.147.509.545.362.89a.685.685 0 0 1-.896.359c-.435-.184-.86-.375-1.275-.573zm3.915 1.55a.677.677 0 0 1-.438-.855.684.684 0 0 1 .861-.435c.419.136.846.265 1.282.388a.677.677 0 1 1-.374 1.304 37.348 37.348 0 0 1-1.331-.402zm4.015 1.065a.678.678 0 1 1 .287-1.326c.433.092.873.18 1.321.262a.678.678 0 1 1-.248 1.333c-.46-.084-.914-.174-1.36-.27zm4.112.698a.679.679 0 0 1-.589-.76.682.682 0 0 1 .766-.585c.441.058.888.11 1.342.16a.68.68 0 0 1 .606.746.682.682 0 0 1-.753.601c-.463-.05-.92-.103-1.372-.162zm4.146.4a.68.68 0 0 1-.637-.721.681.681 0 0 1 .727-.633c.445.03.895.055 1.351.076a.68.68 0 0 1 .65.71.681.681 0 0 1-.714.644 74.868 74.868 0 0 1-1.377-.076zm4.16.159a.68.68 0 0 1-.673-.687.68.68 0 0 1 .692-.67c.447.007.899.01 1.356.008a.68.68 0 0 1 .684.677.68.68 0 0 1-.682.68c-.463 0-.922-.002-1.376-.008zm4.065-.035a.68.68 0 0 1-.703-.658.68.68 0 0 1 .663-.698c.448-.013.9-.029 1.356-.048a.681.681 0 0 1 .711.65.68.68 0 0 1-.653.705c-.462.02-.92.035-1.374.049zm4.125-.197a.681.681 0 0 1-.726-.632.68.68 0 0 1 .637-.72c.448-.03.9-.062 1.355-.096a.681.681 0 0 1 .733.624.68.68 0 0 1-.629.728c-.46.035-.917.067-1.37.096zm4.115-.333a.682.682 0 0 1-.746-.61.68.68 0 0 1 .614-.74c.448-.043.899-.088 1.353-.136.375-.04.712.23.752.603a.68.68 0 0 1-.608.746c-.458.048-.913.094-1.365.137zm4.109-.476a.682.682 0 0 1-.775-.572.679.679 0 0 1 .576-.77c.452-.065.896-.136 1.33-.21a.678.678 0 0 1 .233 1.336c-.446.076-.9.149-1.364.216zm4.088-.765a.678.678 0 1 1-.313-1.32c.444-.104.878-.213 1.302-.328a.677.677 0 1 1 .36 1.308c-.44.12-.89.233-1.349.34zm4.026-1.183a.684.684 0 0 1-.877-.403.677.677 0 0 1 .407-.87c.426-.155.839-.317 1.238-.486a.685.685 0 0 1 .896.358.676.676 0 0 1-.36.89c-.422.177-.856.348-1.304.511zm3.823-1.756a.686.686 0 0 1-.934-.246.675.675 0 0 1 .247-.926 17.48 17.48 0 0 0 1.112-.698.686.686 0 0 1 .95.175.675.675 0 0 1-.176.943c-.382.26-.782.511-1.2.752zm3.446-2.597a.687.687 0 0 1-.966.002.674.674 0 0 1-.001-.96c.31-.307.598-.626.866-.955a.687.687 0 0 1 .96-.1c.294.234.34.661.102.953-.298.366-.618.72-.96 1.06zm2.497-3.442a.685.685 0 0 1-.914.309.676.676 0 0 1-.312-.908c.19-.381.357-.774.503-1.178a.684.684 0 0 1 .874-.41c.355.127.54.516.412.868a12.68 12.68 0 0 1-.563 1.319zm1.251-4.15a.682.682 0 0 1-.768.581.679.679 0 0 1-.585-.763c.057-.42.096-.85.116-1.29a.681.681 0 0 1 .714-.647.68.68 0 0 1 .65.709c-.021.48-.064.95-.127 1.41zm.032-4.295a.68.68 0 0 1-.607.746.682.682 0 0 1-.752-.603c-.045-.426-.105-.86-.18-1.303a.679.679 0 0 1 .562-.78.683.683 0 0 1 .786.556c.079.47.143.93.191 1.384zm-.815-4.17a.684.684 0 0 1-1.318.358 32.387 32.387 0 0 0-.38-1.274.677.677 0 0 1 .444-.851.684.684 0 0 1 .858.44c.143.448.275.89.396 1.327z" mask="url(#Q)" opacity=".5"/>
            </g>
            <g fill-rule="nonzero">
                <path fill="url(#R)" d="M33.365 26.085c-.19 6.362.62 12.164 2.72 15.783 8.681.407 13.122 2.004 17.37 3.904-5.31 7.003-17.37 9.335-30.986 9.335-9.078 0-16.338-1.402-21.782-4.205 4.45-3.39 9.314-5.61 14.591-6.663l.515-4.707c-.558.035-1.116.035-1.672-.003-6.408-.44-8.232-12.81-8.888-26.796C5.145 10.853 4.997.21 17.371.26c15.99.063 16.737 24.42 15.994 25.826z" transform="matrix(-1 0 0 1 102.051 75.203)"/>
                <g transform="matrix(-1 0 0 1 97.335 63)">
                    <path fill="url(#S)" d="M.832 30.346a23.192 23.192 0 0 1-.741-5.832C.09 11.49 10.859.931 24.143.931c13.284 0 24.053 10.559 24.053 23.583 0 13.025-10.769 23.583-24.053 23.583-7.798 0-14.73-3.64-19.125-9.28 1.769-.697 3.018-2.395 3.018-4.378 0-2.605-2.154-4.717-4.81-4.717-.872 0-1.69.227-2.394.624z"/>
                    <ellipse cx="35.328" cy="13.721" fill="url(#T)" rx="11.683" ry="10.951"/>
                    <ellipse cx="38.258" cy="10.993" fill="url(#U)" rx="11.683" ry="10.951"/>
                </g>
            </g>
            <g transform="matrix(-1 0 0 1 152 211.506)">
                <mask id="X" fill="#fff">
                    <use xlink:href="#V"/>
                </mask>
                <use fill="url(#W)" fill-rule="nonzero" xlink:href="#V"/>
                <path fill="#373A5B" fill-rule="nonzero" d="M61.968 10.902c2.97 7.824 1.933 14.985-3.111 21.482-7.567 9.745.075 20.234-7.263 22.326-4.892 1.395-8.023 4.81-9.395 10.243l-20.536-5.486c-.036-7.902 1.855-13.952 5.675-18.15 5.73-6.3-6.522-28.279 3.045-37.962 6.377-6.456 16.906-3.94 31.585 7.547z" mask="url(#X)" opacity=".3"/>
            </g>
        </g>
        <g fill-rule="nonzero" transform="matrix(-1 0 0 1 229 0)">
            <path fill="url(#Y)" d="M4.17.344h92.957c2.11 0 3.82 1.727 3.82 3.858v37.285c0 2.13-1.71 3.857-3.82 3.857H15.842a3.8 3.8 0 0 0-2.569 1.003L6.74 52.34a3.794 3.794 0 0 1-5.396-.261 3.878 3.878 0 0 1-.993-2.594V4.202C.35 2.072 2.06.344 4.17.344z"/>
            <ellipse cx="23.382" cy="24.036" fill="#373A5B" opacity=".3" rx="14.007" ry="14.143"/>
            <path fill="#DCB0B8" d="M28.315 29.672c0 .71-.57 1.285-1.273 1.285a1.28 1.28 0 0 1-1.274-1.285c0-1.25-1.046-2.279-2.355-2.279-1.308 0-2.355 1.028-2.355 2.279 0 .71-.57 1.285-1.273 1.285a1.28 1.28 0 0 1-1.274-1.285c0-2.687 2.203-4.85 4.902-4.85 2.7 0 4.902 2.163 4.902 4.85z"/>
            <path fill="#FFF" d="M23.413 27.194c-2.7 0-4.902-2.163-4.902-4.85 0-2.686 2.203-4.85 4.902-4.85 2.7 0 4.902 2.164 4.902 4.85 0 2.687-2.202 4.85-4.902 4.85zm0-2.571c1.309 0 2.355-1.028 2.355-2.278s-1.046-2.279-2.355-2.279c-1.308 0-2.355 1.028-2.355 2.279 0 1.25 1.047 2.278 2.355 2.278zM46.334 20.05a1.152 1.152 0 0 1-1.146-1.157c0-.639.513-1.157 1.146-1.157h12.605c.633 0 1.146.518 1.146 1.157 0 .64-.513 1.157-1.146 1.157H46.334z"/>
            <path fill="#FBBBA5" d="M46.334 28.777a1.152 1.152 0 0 1-1.146-1.157c0-.64.513-1.158 1.146-1.158h35.318c.633 0 1.146.519 1.146 1.158 0 .639-.513 1.157-1.146 1.157H46.334z"/>
        </g>
        <g fill-rule="nonzero">
            <path fill="url(#Z)" d="M4.17.344h92.957c2.11 0 3.82 1.727 3.82 3.858v37.285c0 2.13-1.71 3.857-3.82 3.857H15.842a3.8 3.8 0 0 0-2.569 1.003L6.74 52.34a3.794 3.794 0 0 1-5.396-.261 3.878 3.878 0 0 1-.993-2.594V4.202C.35 2.072 2.06.344 4.17.344z" transform="translate(105 53)"/>
            <path fill="#BAB2FD" d="M181.253 86.57c-6.069 0-10.99-4.944-10.99-11.045 0-6.102 4.921-11.046 10.99-11.046 6.07 0 10.99 4.944 10.99 11.046 0 6.101-4.92 11.046-10.99 11.046zm0-1.285c5.367 0 9.717-4.37 9.717-9.76s-4.35-9.76-9.717-9.76c-5.367 0-9.716 4.37-9.716 9.76s4.35 9.76 9.716 9.76z"/>
            <path fill="#FFF" d="M183.67 72.96a1.28 1.28 0 0 1 1.81-.004 1.28 1.28 0 0 1-.013 1.81l-3.696 3.678a1.28 1.28 0 0 1-1.805.009l-2.288-2.277a1.28 1.28 0 0 1 .004-1.81 1.28 1.28 0 0 1 1.81-.013l1.39 1.383 2.788-2.775zM119.057 73.05a1.152 1.152 0 0 1-1.146-1.157c0-.639.513-1.157 1.146-1.157h12.605c.633 0 1.146.518 1.146 1.157 0 .64-.513 1.157-1.146 1.157h-12.605z"/>
            <path fill="#98C5F9" d="M119.057 81.777a1.152 1.152 0 0 1-1.146-1.157c0-.64.513-1.158 1.146-1.158h35.318c.633 0 1.146.519 1.146 1.158 0 .639-.513 1.157-1.146 1.157h-35.318z"/>
        </g>
    </g>
</svg>
