<svg xmlns="http://www.w3.org/2000/svg" xmlns:xlink="http://www.w3.org/1999/xlink" width="354" height="323" viewBox="0 0 354 323">
    <defs>
        <linearGradient id="a" x1="21.519%" x2="70.406%" y1="92.592%" y2="-8.059%">
            <stop offset="0%" stop-color="#39ABC5"/>
            <stop offset="100%" stop-color="#A8EB9D"/>
        </linearGradient>
        <linearGradient id="b" x1="-8.216%" x2="89.812%" y1="126.906%" y2="0%">
            <stop offset="0%" stop-color="#FFCFAA"/>
            <stop offset="100%" stop-color="#FA6EB9"/>
        </linearGradient>
        <linearGradient id="c" x1="5.388%" x2="84.005%" y1="100%" y2="-7.433%">
            <stop offset="0%" stop-color="#46E5F2"/>
            <stop offset="100%" stop-color="#9E66FF"/>
        </linearGradient>
        <linearGradient id="d" x1="20.394%" x2="94.104%" y1="128.09%" y2="28.726%">
            <stop offset="0%" stop-color="#6F4DE2"/>
            <stop offset="100%" stop-color="#FF7C7C"/>
        </linearGradient>
        <linearGradient id="e" x1="38.977%" x2="-.379%" y1="74.828%" y2="-2.476%">
            <stop offset="0%" stop-color="#37CEDB"/>
            <stop offset="100%" stop-color="#3488ED"/>
        </linearGradient>
        <linearGradient id="f" x1="25.79%" x2="89.698%" y1="92.518%" y2="-3.793%">
            <stop offset="0%" stop-color="#FAE6FF"/>
            <stop offset="100%" stop-color="#B2DDFF"/>
        </linearGradient>
        <linearGradient id="g" x1="67.813%" x2="6.662%" y1="0%" y2="100%">
            <stop offset="0%" stop-color="#FFB782"/>
            <stop offset="100%" stop-color="#EB4878"/>
        </linearGradient>
        <linearGradient id="h" x1="64.737%" x2="64.737%" y1="-2.476%" y2="121.754%">
            <stop offset="0%" stop-color="#52DEEA"/>
            <stop offset="100%" stop-color="#3488ED"/>
        </linearGradient>
        <filter id="i" width="413.6%" height="919.4%" x="-156.8%" y="-409.7%" filterUnits="objectBoundingBox">
            <feOffset dy="22" in="SourceAlpha" result="shadowOffsetOuter1"/>
            <feGaussianBlur in="shadowOffsetOuter1" result="shadowBlurOuter1" stdDeviation="22"/>
            <feColorMatrix in="shadowBlurOuter1" result="shadowMatrixOuter1" values="0 0 0 0 0.443137255 0 0 0 0 0.650980392 0 0 0 0 0.97254902 0 0 0 0.252887228 0"/>
            <feMerge>
                <feMergeNode in="shadowMatrixOuter1"/>
                <feMergeNode in="SourceGraphic"/>
            </feMerge>
        </filter>
        <linearGradient id="j" x1="84.873%" x2="13.408%" y1="26.003%" y2="100%">
            <stop offset="0%" stop-color="#E6AAFF"/>
            <stop offset="100%" stop-color="#3488ED"/>
        </linearGradient>
        <filter id="k" width="413.6%" height="367.4%" x="-156.8%" y="-133.7%" filterUnits="objectBoundingBox">
            <feOffset dy="22" in="SourceAlpha" result="shadowOffsetOuter1"/>
            <feGaussianBlur in="shadowOffsetOuter1" result="shadowBlurOuter1" stdDeviation="22"/>
            <feColorMatrix in="shadowBlurOuter1" result="shadowMatrixOuter1" values="0 0 0 0 0.701290887 0 0 0 0 0.46762252 0 0 0 0 0.999867134 0 0 0 0.24498981 0"/>
            <feMerge>
                <feMergeNode in="shadowMatrixOuter1"/>
                <feMergeNode in="SourceGraphic"/>
            </feMerge>
        </filter>
        <linearGradient id="l" x1="100%" x2="18.903%" y1="-2.476%" y2="100%">
            <stop offset="0%" stop-color="#FF90D7"/>
            <stop offset="100%" stop-color="#906EFA"/>
        </linearGradient>
        <linearGradient id="m" x1="14.896%" y1="100%" y2="22.236%">
            <stop offset="0%" stop-color="#FFF" stop-opacity=".503"/>
            <stop offset="100%" stop-color="#FFF"/>
        </linearGradient>
        <linearGradient id="o" x1="134.336%" x2="6.662%" y1="14.643%" y2="100%">
            <stop offset="0%" stop-color="#404683"/>
            <stop offset="100%" stop-color="#373A5B"/>
        </linearGradient>
        <path id="n" d="M14.75.455c.352.272-1.226 1.395-4.733 3.37C7.893 5.02 5.185 6.244 1.893 7.5c-2.141.816-1.609 2.484.85 2.484h20.758c2.425 0 3.344-.884 2.757-2.653L24.438.455H14.75z"/>
        <linearGradient id="p" x1="9.105%" x2="87.601%" y1="110.865%" y2="23.826%">
            <stop offset="0%" stop-color="#FF9292"/>
            <stop offset="100%" stop-color="#FFB59D"/>
        </linearGradient>
        <path id="r" d="M8.273.455c-2.478 2.693-4.65 4.744-6.517 6.151-2.8 2.112-.934 3.378.6 3.378H19.54c2.425 0 3.344-.884 2.756-2.653L17.961.455H8.273z"/>
        <path id="t" d="M7.809.406C1.802 12.011 5.78 32.25 5.399 52.37 5.081 69.022 1.167 88.596.888 92.516c-.153 2.162-1.49 9.02 1.132 9.285 2.62.266 7.475.304 9.01.304 1.536 0 2.456-8.501 2.784-10.472.5-2.995 2.576-16.886 5.05-32.15.997-6.158 2.657-16.052 4.98-29.684 3.366 36.328 4.68 58.094 3.943 65.296-.217 2.12-.926 6.706.247 6.706s9.161.304 10.04.304c.88 0 .618-5.032 1.451-10.472.318-2.075 1.948-13.945 1.92-33.47-.018-11.683.028-25.428-1.92-43.149-.31-2.82-.993-6.823-2.051-12.011L7.809.406z"/>
        <path id="v" d="M33.309 5.405c-8.422-2.343 1.242-.414-8.788.58-4.109.407-7.767 1.794-10.976 4.16C5.638 16.787-.366 28.884.5 35.615c.578 4.486 5.616 6.141 15.114 4.964.021 4.947-6.851 15.839-6.851 28.933.413.047 19.574 3.158 33.857-2.848.599-.252.808-4.056.627-11.411 1.117 8.428 2.18 12.641 3.189 12.641.455 0-1.127-9.083-1.766-13.842-.275-2.053-1.173-8.003-1.173-16.216 0-3.203.98-8.848 2.939-16.937 7.843-6.134 13.077-10.803 15.701-14.007 2.624-3.204.86-5.491-5.296-6.863C46.768 5.175 38.923 6.967 33.31 5.405z"/>
        <linearGradient id="x" x1="50%" x2="50%" y1="0%" y2="100%">
            <stop offset="0%" stop-color="#AF3053"/>
            <stop offset="100%" stop-color="#7A3343"/>
        </linearGradient>
    </defs>
    <g fill="none" fill-rule="evenodd">
        <circle cx="216.5" cy="157.5" r="130.5" fill="url(#a)" fill-rule="nonzero" opacity=".3"/>
        <circle cx="335" cy="202" r="19" fill="url(#b)" fill-rule="nonzero" opacity=".5"/>
        <circle cx="219" cy="31" r="31" fill="url(#c)" fill-rule="nonzero" opacity=".3"/>
        <circle cx="316" cy="300" r="12" fill="url(#d)" fill-rule="nonzero" opacity=".2"/>
        <circle cx="325" cy="40" r="9" fill="url(#e)" fill-rule="nonzero" opacity=".3"/>
        <g fill-rule="nonzero">
            <path fill="url(#f)" d="M14.295 0h80.41C102.6 0 109 6.43 109 14.362v196.276C109 218.57 102.6 225 94.705 225h-80.41C6.4 225 0 218.57 0 210.638V14.362C0 6.43 6.4 0 14.295 0z" transform="translate(155 95)"/>
            <path fill="#FFF" d="M171.192 103.775h76.673c6.58 0 11.913 5.358 11.913 11.968v183.514c0 6.61-5.334 11.968-11.913 11.968h-76.673c-6.58 0-11.913-5.358-11.913-11.968V115.743c0-6.61 5.334-11.968 11.913-11.968z"/>
            <path fill="#9574FE" d="M210.315 150.652c-5.592 0-10.125-4.555-10.125-10.173 0-5.619 4.533-10.173 10.125-10.173 5.593 0 10.126 4.554 10.126 10.173 0 5.618-4.533 10.173-10.126 10.173zm0-2.394c4.277 0 7.743-3.483 7.743-7.78 0-4.296-3.466-7.779-7.743-7.779-4.276 0-7.743 3.483-7.743 7.78 0 4.296 3.467 7.779 7.743 7.779z"/>
            <path fill="#E488DF" d="M205.033 164.46a1.194 1.194 0 0 1-1.191-1.196c0-.661.533-1.197 1.19-1.197h10.566c.658 0 1.191.536 1.191 1.197 0 .66-.533 1.197-1.191 1.197h-10.565z"/>
            <path fill="#FBCCEE" d="M199.077 170.445a1.194 1.194 0 0 1-1.192-1.197c0-.661.534-1.197 1.192-1.197h22.477c.658 0 1.191.536 1.191 1.197s-.533 1.197-1.191 1.197h-22.477z"/>
            <path fill="#48B4BF" d="M203.194 100.775a.896.896 0 0 1-.893-.897c0-.496.4-.898.893-.898h13.311c.494 0 .894.402.894.898 0 .495-.4.897-.894.897h-13.31zM221.063 100.775a.896.896 0 0 1-.893-.897c0-.496.4-.898.893-.898h.803c.494 0 .894.402.894.898 0 .495-.4.897-.894.897h-.803z" opacity=".3"/>
        </g>
        <ellipse cx="134" cy="320" fill="#373A5B" fill-rule="nonzero" opacity=".1" rx="134" ry="3"/>
        <g fill-rule="nonzero" transform="translate(267 63)">
            <circle cx="9" cy="9" r="9" fill="url(#g)"/>
            <path fill="#FFF" d="M11.469 7.174a.562.562 0 1 1 .795.796l-3.182 3.182a.562.562 0 0 1-.795 0L6.298 9.163a.562.562 0 1 1 .796-.795l1.59 1.59 2.785-2.784z"/>
        </g>
        <g fill-rule="nonzero" transform="translate(140 203)">
            <path fill="url(#h)" d="M20.755.473l17.007 10.348a2.42 2.42 0 0 1 1.145 2.23c-.55 8.257-2.31 15.15-5.278 20.678-3.144 5.856-7.207 10.277-12.19 13.262-.928.863-2.468.863-3.671.05-5.82-3.668-10.194-8.443-13.123-14.325C1.887 27.178.385 20.605.136 12.998a2.419 2.419 0 0 1 1.15-2.147L18.341.473a2.315 2.315 0 0 1 2.413 0z"/>
            <ellipse cx="19.586" cy="22.656" fill="#373A5B" opacity=".3" rx="9.78" ry="9.986"/>
            <path fill="#FFF" d="M22.217 19.736a.993.993 0 0 1 1.403-.015.993.993 0 0 1-.014 1.404l-3.947 3.946a.993.993 0 0 1-1.403.015l-2.54-2.54a.993.993 0 0 1 .014-1.404.993.993 0 0 1 1.403-.014l1.846 1.846 3.238-3.238z"/>
        </g>
        <g fill-rule="nonzero" transform="translate(250 124)">
            <path fill="url(#e)" d="M3.775.413h21.887a3.283 3.283 0 0 1 3.283 3.283v21.887a3.283 3.283 0 0 1-3.283 3.283H3.775a3.283 3.283 0 0 1-3.283-3.283V3.696A3.283 3.283 0 0 1 3.775.413z"/>
            <path fill="#D2EEE9" d="M12.12 22.226a.496.496 0 0 1-.493-.5c0-.276.22-.5.492-.5h5.417c.272 0 .492.224.492.5s-.22.5-.492.5h-5.417z"/>
            <circle cx="14.827" cy="13.743" r="6.019" fill="#373A5B" opacity=".1"/>
            <g transform="translate(8.755 6.019)">
                <circle cx="6.073" cy="6.082" r="6.019" fill="#FFF"/>
                <path fill="#F9B9BD" d="M8.192 8.48a.547.547 0 0 1-1.094 0c0-.531-.45-.969-1.012-.969s-1.012.438-1.012.97a.547.547 0 0 1-1.094 0c0-1.144.946-2.064 2.106-2.064s2.106.92 2.106 2.064z"/>
                <path fill="#F3747B" d="M6.086 7.426c-1.16 0-2.106-.92-2.106-2.064 0-1.143.946-2.064 2.106-2.064s2.106.921 2.106 2.064c0 1.144-.946 2.064-2.106 2.064zm0-1.094c.562 0 1.012-.438 1.012-.97s-.45-.97-1.012-.97-1.012.438-1.012.97.45.97 1.012.97z"/>
            </g>
        </g>
        <g fill-rule="nonzero" filter="url(#i)" transform="translate(195 183)">
            <path fill="#FFF" d="M4.32 0h72.36C79.066 0 81 1.983 81 4.429V26.57C81 29.017 79.066 31 76.68 31H4.32C1.934 31 0 29.017 0 26.571V4.43C0 1.983 1.934 0 4.32 0z"/>
            <path fill="#9771FE" d="M32.4 13.563c-.596 0-1.08-.496-1.08-1.108 0-.611.484-1.107 1.08-1.107h9.578c.597 0 1.08.496 1.08 1.107 0 .612-.483 1.107-1.08 1.107H32.4z"/>
            <path fill="#EAE3FF" d="M32.4 19.098c-.596 0-1.08-.495-1.08-1.107 0-.611.484-1.107 1.08-1.107h20.378c.597 0 1.08.496 1.08 1.107 0 .612-.483 1.107-1.08 1.107H32.4z"/>
            <ellipse cx="16.74" cy="15.5" fill="#FF769A" opacity=".1" rx="7.02" ry="7.196"/>
            <path fill="#FFB3C6" d="M18.819 17.698a.547.547 0 0 1-.54.554.547.547 0 0 1-.54-.554.99.99 0 0 0-.999-.98.99.99 0 0 0-.999.98.547.547 0 0 1-.54.554.547.547 0 0 1-.54-.554c0-1.156.934-2.088 2.079-2.088s2.079.932 2.079 2.088z"/>
            <path fill="#FF769A" d="M16.74 16.632a2.083 2.083 0 0 1-2.079-2.089c0-1.156.934-2.088 2.079-2.088s2.079.932 2.079 2.088a2.083 2.083 0 0 1-2.079 2.089zm0-1.108a.99.99 0 0 0 .999-.98.99.99 0 0 0-.999-.982.99.99 0 0 0-.999.981.99.99 0 0 0 .999.981z"/>
        </g>
        <g fill-rule="nonzero" transform="translate(227 247)">
            <circle cx="9" cy="9" r="9" fill="url(#j)"/>
            <g fill="#FFF">
                <path d="M6.245 8.432v3.375h5.625V8.432H6.245zm0-1.125h5.625c.621 0 1.125.504 1.125 1.125v3.375c0 .622-.504 1.125-1.125 1.125H6.245a1.125 1.125 0 0 1-1.125-1.125V8.432c0-.621.504-1.125 1.125-1.125z"/>
                <path d="M7.933 7.87a.563.563 0 0 1-1.125 0V6.34a2.25 2.25 0 0 1 4.5 0V7.87a.563.563 0 0 1-1.125 0V6.34a1.125 1.125 0 0 0-2.25 0V7.87z"/>
            </g>
        </g>
        <g fill-rule="nonzero" filter="url(#k)" transform="translate(104 72)">
            <path fill="url(#l)" d="M4.32 0h72.36C79.066 0 81 1.944 81 4.343v86.314C81 93.056 79.066 95 76.68 95H4.32C1.934 95 0 93.056 0 90.657V4.343C0 1.944 1.934 0 4.32 0z"/>
            <g transform="translate(26.796 9.683)">
                <ellipse cx="13.577" cy="13.663" fill="#FFF" rx="8.424" ry="8.469"/>
                <path fill="url(#m)" d="M13.577 26.903c-7.307 0-13.23-5.955-13.23-13.3 0-7.346 5.923-13.3 13.23-13.3s13.23 5.954 13.23 13.3c0 7.345-5.923 13.3-13.23 13.3zm0-.543c7.009 0 12.69-5.712 12.69-12.757 0-7.046-5.681-12.758-12.69-12.758C6.57.845.887 6.557.887 13.603c0 7.045 5.682 12.757 12.69 12.757z" opacity=".3"/>
                <path fill="#F3747B" d="M13.577 15.244c-1.528 0-2.772-1.225-2.772-2.741 0-1.517 1.244-2.742 2.772-2.742 1.528 0 2.772 1.225 2.772 2.742 0 1.516-1.244 2.74-2.772 2.74zm0-1.086c.937 0 1.692-.743 1.692-1.655s-.755-1.656-1.692-1.656c-.937 0-1.692.744-1.692 1.656 0 .912.755 1.655 1.692 1.655z"/>
                <path fill="#F3747B" d="M16.349 17.022c0 .3-.242.543-.54.543a.541.541 0 0 1-.54-.543c0-.912-.755-1.655-1.692-1.655-.937 0-1.692.743-1.692 1.655 0 .3-.241.543-.54.543a.541.541 0 0 1-.54-.543c0-1.516 1.244-2.741 2.772-2.741 1.528 0 2.772 1.225 2.772 2.741z" opacity=".3"/>
            </g>
            <path fill="#FFF" d="M0 59.714h81v30.943C81 93.056 79.066 95 76.68 95H4.32C1.934 95 0 93.056 0 90.657V59.714z"/>
            <path fill="#472A68" d="M13.08 68.4h9.72c2.087 0 3.78 1.701 3.78 3.8v9.771c0 2.1-1.693 3.8-3.78 3.8h-9.72c-2.088 0-3.78-1.7-3.78-3.8V72.2c0-2.099 1.692-3.8 3.78-3.8zm22.68 0h9.72c2.087 0 3.78 1.701 3.78 3.8v9.771c0 2.1-1.693 3.8-3.78 3.8h-9.72c-2.088 0-3.78-1.7-3.78-3.8V72.2c0-2.099 1.692-3.8 3.78-3.8zm22.68 0h9.72c2.087 0 3.78 1.701 3.78 3.8v9.771c0 2.1-1.693 3.8-3.78 3.8h-9.72c-2.088 0-3.78-1.7-3.78-3.8V72.2c0-2.099 1.692-3.8 3.78-3.8z" opacity=".1"/>
            <path fill="#FFF" d="M35.83 45.099c-.596 0-1.08-.486-1.08-1.086 0-.6.484-1.086 1.08-1.086h9.579c.596 0 1.08.486 1.08 1.086 0 .6-.484 1.086-1.08 1.086H35.83z"/>
            <path fill="#DCB7F3" d="M30.43 50.527c-.596 0-1.08-.486-1.08-1.085 0-.6.484-1.086 1.08-1.086H50.81c.596 0 1.08.486 1.08 1.086 0 .6-.484 1.085-1.08 1.085H30.43z"/>
        </g>
        <g transform="translate(93.64 309.572)">
            <mask id="q" fill="#fff">
                <use xlink:href="#n"/>
            </mask>
            <use fill="url(#o)" fill-rule="nonzero" transform="matrix(-1 0 0 1 26.984 0)" xlink:href="#n"/>
            <path fill="url(#p)" fill-rule="nonzero" d="M-.928 5.81c12.992 1.499 19.862.163 20.611-4.008C20.432-2.37 13.871-3.37 0-1.2L-.928 5.81z" mask="url(#q)"/>
        </g>
        <g transform="translate(64.208 309.572)">
            <mask id="s" fill="#fff">
                <use xlink:href="#r"/>
            </mask>
            <use fill="url(#o)" fill-rule="nonzero" transform="matrix(-1 0 0 1 22.779 0)" xlink:href="#r"/>
            <path fill="url(#p)" fill-rule="nonzero" d="M1.912 3.883C9.327 5.906 15.036 5.68 19.04 3.206 23.045.73 17.7-.904 3.003-1.702l-1.09 5.585z" mask="url(#s)"/>
        </g>
        <g transform="translate(67.812 208.675)">
            <mask id="u" fill="#fff">
                <use xlink:href="#t"/>
            </mask>
            <use fill="url(#o)" fill-rule="nonzero" xlink:href="#t"/>
            <path fill="#151731" fill-rule="nonzero" d="M23.271 30.029c-3.453.696-5.872 2.202-7.255 4.517-2.076 3.473.741 12.2-2.77 14.098-3.51 1.9 2.97 19.391 2.163 23.492-.537 2.734.09 4.374 1.88 4.92L23.27 30.03z" mask="url(#u)" opacity=".3"/>
            <path fill="#151731" fill-rule="nonzero" d="M45.569 5.714c-2.52 10.23-8.02 15.346-16.498 15.346-12.719 0-2.263 6.668-15.256 9.95C.823 34.292 8.788 57.782.89 57.782c-5.265 0-3.762-19.841 4.51-59.525l40.17 7.457z" mask="url(#u)" opacity=".3"/>
        </g>
        <g transform="translate(61.805 156.425)">
            <mask id="w" fill="#fff">
                <use xlink:href="#v"/>
            </mask>
            <use fill="url(#b)" fill-rule="nonzero" xlink:href="#v"/>
            <path fill="#373A5B" fill-rule="nonzero" d="M46.12 20.784c1.082-3.682 3.96-5.896 8.631-6.642 7.008-1.12 7.132-7.405 11.533-8.622 2.934-.812 1.276 1.81-4.973 7.867l-15.19 7.397z" mask="url(#w)" opacity=".3"/>
            <g fill="#FFF" fill-rule="nonzero" mask="url(#w)" opacity=".3">
                <g transform="translate(-4.205 6.606)">
                    <ellipse cx="13.815" cy="7.807" rx="1.802" ry="1.802"/>
                    <ellipse cx="25.828" cy="7.807" rx="1.802" ry="1.802"/>
                    <ellipse cx="37.841" cy="7.807" rx="1.802" ry="1.802"/>
                    <ellipse cx="49.855" cy="7.807" rx="1.802" ry="1.802"/>
                    <ellipse cx="19.822" cy="1.802" rx="1.802" ry="1.802"/>
                    <ellipse cx="31.835" cy="1.802" rx="1.802" ry="1.802"/>
                    <ellipse cx="43.848" cy="1.802" rx="1.802" ry="1.802"/>
                    <ellipse cx="55.861" cy="1.802" rx="1.802" ry="1.802"/>
                    <ellipse cx="61.868" cy="7.807" rx="1.802" ry="1.802"/>
                    <ellipse cx="7.809" cy="13.813" rx="1.802" ry="1.802"/>
                    <ellipse cx="19.822" cy="13.813" rx="1.802" ry="1.802"/>
                    <ellipse cx="31.835" cy="13.813" rx="1.802" ry="1.802"/>
                    <ellipse cx="43.848" cy="13.813" rx="1.802" ry="1.802"/>
                    <ellipse cx="55.861" cy="13.813" rx="1.802" ry="1.802"/>
                    <ellipse cx="1.802" cy="19.819" rx="1.802" ry="1.802"/>
                    <ellipse cx="13.815" cy="19.819" rx="1.802" ry="1.802"/>
                    <ellipse cx="25.828" cy="19.819" rx="1.802" ry="1.802"/>
                    <ellipse cx="37.841" cy="19.819" rx="1.802" ry="1.802"/>
                    <ellipse cx="49.855" cy="19.819" rx="1.802" ry="1.802"/>
                    <ellipse cx="7.809" cy="25.825" rx="1.802" ry="1.802"/>
                    <ellipse cx="19.822" cy="25.825" rx="1.802" ry="1.802"/>
                    <ellipse cx="31.835" cy="25.825" rx="1.802" ry="1.802"/>
                    <ellipse cx="43.848" cy="25.825" rx="1.802" ry="1.802"/>
                    <ellipse cx="55.861" cy="25.825" rx="1.802" ry="1.802"/>
                    <ellipse cx="1.802" cy="31.83" rx="1.802" ry="1.802"/>
                    <ellipse cx="13.815" cy="31.83" rx="1.802" ry="1.802"/>
                    <ellipse cx="25.828" cy="31.83" rx="1.802" ry="1.802"/>
                    <ellipse cx="37.841" cy="31.83" rx="1.802" ry="1.802"/>
                    <ellipse cx="49.855" cy="31.83" rx="1.802" ry="1.802"/>
                    <ellipse cx="7.809" cy="37.836" rx="1.802" ry="1.802"/>
                    <ellipse cx="19.822" cy="37.836" rx="1.802" ry="1.802"/>
                    <ellipse cx="31.835" cy="37.836" rx="1.802" ry="1.802"/>
                    <ellipse cx="43.848" cy="37.836" rx="1.802" ry="1.802"/>
                    <ellipse cx="55.861" cy="37.836" rx="1.802" ry="1.802"/>
                    <ellipse cx="1.802" cy="43.842" rx="1.802" ry="1.802"/>
                    <ellipse cx="13.815" cy="43.842" rx="1.802" ry="1.802"/>
                    <ellipse cx="25.828" cy="43.842" rx="1.802" ry="1.802"/>
                    <ellipse cx="37.841" cy="43.842" rx="1.802" ry="1.802"/>
                    <ellipse cx="49.855" cy="43.842" rx="1.802" ry="1.802"/>
                    <ellipse cx="7.809" cy="49.848" rx="1.802" ry="1.802"/>
                    <ellipse cx="19.822" cy="49.848" rx="1.802" ry="1.802"/>
                    <ellipse cx="31.835" cy="49.848" rx="1.802" ry="1.802"/>
                    <ellipse cx="43.848" cy="49.848" rx="1.802" ry="1.802"/>
                    <ellipse cx="55.861" cy="49.848" rx="1.802" ry="1.802"/>
                    <ellipse cx="1.802" cy="55.853" rx="1.802" ry="1.802"/>
                    <ellipse cx="13.815" cy="55.853" rx="1.802" ry="1.802"/>
                    <ellipse cx="25.828" cy="55.853" rx="1.802" ry="1.802"/>
                    <ellipse cx="37.841" cy="55.853" rx="1.802" ry="1.802"/>
                </g>
            </g>
            <ellipse cx="45.65" cy="62.46" fill="#FFF" fill-rule="nonzero" mask="url(#w)" opacity=".3" rx="1.802" ry="1.802"/>
            <path fill="#373A5B" fill-rule="nonzero" d="M67.417 11.953c.478 3.351 1.699 5.027 3.662 5.027 1.962 0 3.34-1.013 4.132-3.038l-6.354-3.797-1.44 1.808zM37.977 5.985c-3.174 22.139-9.66 34.383-19.457 36.734-9.798 2.35-16.931 2.324-21.4-.078L.231 18.618 31.835 2.42l6.142 3.564z" mask="url(#w)" opacity=".3"/>
            <path fill="#FFD5D7" fill-rule="nonzero" d="M52.635 3.95C50.197 1.498 53.858-.155 55.767.538c1.91.693 6.067 5.154 5.196 8.915-.87 3.761-4.096 5.097-4.804 4.325-1.656-1.896-1.087-7.375-3.524-9.828z"/>
        </g>
        <path fill="url(#p)" fill-rule="nonzero" d="M4.892 35.434c-.463-4.411-2.08-7.197-4.85-8.357l12.245-16.33c.673-2.822 1.227-4.597 1.663-5.325.316-.528 2.58-1.845 3.794-2.395.459-.208 3.254-2.378 3.71-2.426.75-.08.37 1.42-1.278 2.834-1.794 1.54 1.347 3.646.352 6.341-.538 1.459-1.38 2.375-2.525 2.75-7.266 14.13-11.759 21.578-13.111 22.908z" transform="translate(117.572 130.03)"/>
        <path fill="url(#p)" fill-rule="nonzero" d="M10.797.348c1.419 1.747 2.348 3.547 2.79 5.402 1.445 6.077.973 11.756-1.751 12.435-.937.234-1.93.207-2.922-.024l-.131 2.9c.234 2.69 0 4.036-.703 4.036-1.053 0-5.956-1.156-7.835-5.002C1.568 19.907 9.56 6.799 10.797.348z" transform="translate(88.234 142.011)"/>
        <g fill="url(#x)" fill-rule="nonzero" transform="translate(57 136.606)">
            <path d="M43.829 14.417a2.402 2.402 0 0 0-4.486 1.198 2.402 2.402 0 0 0 4.105 1.695c-.472 2.888-1.211 5.971-1.98 9.115C38.525 38.442 31.37 61.1 16.32 59.28 1.272 57.46-2.924 48.044 2.526 37.346c5.45-10.7 16.304-10.92 17.58-19.89C21.385 8.485 24.517-2.076 35.713.6c7.262 1.735 8.762 7.03 8.117 13.816z"/>
        </g>
    </g>
</svg>
