<svg width="39" height="36" viewBox="0 0 39 36" fill="none" xmlns="http://www.w3.org/2000/svg">
<path d="M14.2148 20.6445V35.9521H0.0791016V23.8672C0.0791016 17.3242 0.860352 12.5879 2.42285 9.6582C4.47363 5.75195 7.7207 2.79785 12.1641 0.795898L15.3867 5.92285C12.7012 7.0459 10.7236 8.73047 9.4541 10.9766C8.18457 13.1738 7.47656 16.3965 7.33008 20.6445H14.2148ZM36.9199 20.6445V35.9521H22.7842V23.8672C22.7842 17.3242 23.5654 12.5879 25.1279 9.6582C27.1787 5.75195 30.4258 2.79785 34.8691 0.795898L38.0918 5.92285C35.4062 7.0459 33.4287 8.73047 32.1592 10.9766C30.8896 13.1738 30.1816 16.3965 30.0352 20.6445H36.9199Z" fill="white"/>
</svg>
