<svg xmlns="http://www.w3.org/2000/svg" xmlns:xlink="http://www.w3.org/1999/xlink" width="1110" height="915" viewBox="0 0 354 292">
    <defs>
        <linearGradient id="b" x1="25.79%" x2="89.698%" y1="92.518%" y2="-3.793%">
            <stop offset="0%" stop-color="#FCEFFF"/>
            <stop offset="100%" stop-color="#C9E7FF"/>
        </linearGradient>
        <path id="a" d="M6.682.502h197.52a6.658 6.658 0 0 1 6.658 6.659v171.682H.024V7.161A6.658 6.658 0 0 1 6.682.502z"/>
        <filter id="d" width="406.1%" height="386.4%" x="-152.6%" y="-143.1%" filterUnits="objectBoundingBox">
            <feOffset dy="22" in="SourceAlpha" result="shadowOffsetOuter1"/>
            <feGaussianBlur in="shadowOffsetOuter1" result="shadowBlurOuter1" stdDeviation="22"/>
            <feColorMatrix in="shadowBlurOuter1" result="shadowMatrixOuter1" values="0 0 0 0 0.443137255 0 0 0 0 0.650980392 0 0 0 0 0.97254902 0 0 0 0.252887228 0"/>
            <feMerge>
                <feMergeNode in="shadowMatrixOuter1"/>
                <feMergeNode in="SourceGraphic"/>
            </feMerge>
        </filter>
        <path id="e" d="M4.439 0H78.79a4.439 4.439 0 0 1 4.439 4.439v79.9a4.439 4.439 0 0 1-4.439 4.438H4.439A4.439 4.439 0 0 1 0 84.34v-79.9A4.439 4.439 0 0 1 4.439 0z"/>
        <linearGradient id="g" x1="39.393%" x2="89.672%" y1="100%" y2="0%">
            <stop offset="0%" stop-color="#37CEDB"/>
            <stop offset="100%" stop-color="#3488ED"/>
        </linearGradient>
        <linearGradient id="h" x1="82.224%" x2="29.363%" y1="32.943%" y2="107.746%">
            <stop offset="0%" stop-color="#FFF"/>
            <stop offset="100%" stop-color="#C2E7F9"/>
        </linearGradient>
        <linearGradient id="i" x1="-8.216%" x2="89.812%" y1="126.906%" y2="0%">
            <stop offset="0%" stop-color="#FFCFAA"/>
            <stop offset="100%" stop-color="#FA6EB9"/>
        </linearGradient>
        <linearGradient id="k" x1="70.406%" x2="21.519%" y1="-8.059%" y2="92.592%">
            <stop offset="0%" stop-color="#39ABC5"/>
            <stop offset="100%" stop-color="#A8EB9D"/>
        </linearGradient>
        <path id="j" d="M3.62.016h15.42c.503 0 .989.189 1.36.53l9.73 8.93c.415.38.651.919.651 1.482v22.59a3.353 3.353 0 0 1-3.353 3.353H3.62a3.353 3.353 0 0 1-3.353-3.353V3.369A3.353 3.353 0 0 1 3.62.016z"/>
        <linearGradient id="m" x1="-8.216%" x2="95.921%" y1="126.906%" y2="-5.63%">
            <stop offset="0%" stop-color="#FF90D7"/>
            <stop offset="100%" stop-color="#906EFA"/>
        </linearGradient>
        <filter id="n" width="406.1%" height="920.4%" x="-152.6%" y="-408.7%" filterUnits="objectBoundingBox">
            <feOffset dy="22" in="SourceAlpha" result="shadowOffsetOuter1"/>
            <feGaussianBlur in="shadowOffsetOuter1" result="shadowBlurOuter1" stdDeviation="22"/>
            <feColorMatrix in="shadowBlurOuter1" result="shadowMatrixOuter1" values="0 0 0 0 0.545098039 0 0 0 0 0.882352941 0 0 0 0 0.788235294 0 0 0 0.25 0"/>
            <feMerge>
                <feMergeNode in="shadowMatrixOuter1"/>
                <feMergeNode in="SourceGraphic"/>
            </feMerge>
        </filter>
        <linearGradient id="o" x1="100%" x2="6.662%" y1="-28.986%" y2="100%">
            <stop offset="0%" stop-color="#FFB782"/>
            <stop offset="100%" stop-color="#FF739C"/>
        </linearGradient>
        <linearGradient id="p" x1="67.813%" x2="6.662%" y1="0%" y2="100%">
            <stop offset="0%" stop-color="#FFEADB"/>
            <stop offset="100%" stop-color="#FACED7"/>
        </linearGradient>
        <filter id="q" width="406.1%" height="545.9%" x="-152.6%" y="-222.2%" filterUnits="objectBoundingBox">
            <feOffset dy="22" in="SourceAlpha" result="shadowOffsetOuter1"/>
            <feGaussianBlur in="shadowOffsetOuter1" result="shadowBlurOuter1" stdDeviation="22"/>
            <feColorMatrix in="shadowBlurOuter1" result="shadowMatrixOuter1" values="0 0 0 0 1 0 0 0 0 0.564705882 0 0 0 0 0.568627451 0 0 0 0.302649457 0"/>
            <feMerge>
                <feMergeNode in="shadowMatrixOuter1"/>
                <feMergeNode in="SourceGraphic"/>
            </feMerge>
        </filter>
        <path id="r" d="M15.513.504c-.804 3.273-3.645 5.034-8.523 5.283-4.878.248-6.956 2.01-6.237 5.282h24.46c2.689 0 3.707-.98 3.056-2.941L26.252.504H15.513z"/>
        <path id="t" d="M7.01.504C5.923 2.465 4.344 4.226 2.275 5.787c-3.104 2.34-1.924 5.282-.223 5.282h17.447c2.688 0 3.706-.98 3.055-2.941L17.75.504H7.009z"/>
        <linearGradient id="w" x1="134.336%" x2="6.662%" y1="14.643%" y2="100%">
            <stop offset="0%" stop-color="#3067AC"/>
            <stop offset="100%" stop-color="#4E679A"/>
        </linearGradient>
        <path id="v" d="M2.097.256c-4.11 28.458 1.924 40.221 0 65.269-.443 5.773 0 27.718.55 38.756.12 2.385-1.48 5.356 1.14 5.918 2.618.563 10.369.337 12.071.337 1.703 0 .785-2.952.785-5.256 0-17.398 2.64-18.479 2.074-27.615-.715-11.556 1.06-27.59 5.328-48.1 1.35 10.625 3.422 20.911 6.216 30.86 2.327 8.287.167 18.837 2.164 34.918.29 2.327-.696 14.12 1.926 14.52 2.622.4 9.324.4 11.13.336 1.805-.063 1.555-7.178 2.753-14.856 1.198-7.678 0-25.44 0-34.919 0-6.319-2.99-26.375-8.972-60.168H2.097z"/>
        <linearGradient id="y" x1="5.388%" x2="84.005%" y1="100%" y2="-7.433%">
            <stop offset="0%" stop-color="#46E5F2"/>
            <stop offset="100%" stop-color="#9E66FF"/>
        </linearGradient>
        <linearGradient id="A" x1="7.502%" x2="84.005%" y1="131.058%" y2="-7.433%">
            <stop offset="0%" stop-color="#46E5F2"/>
            <stop offset="100%" stop-color="#9E66FF"/>
        </linearGradient>
        <path id="z" d="M43.524 4.018c-4.787-1.53-17.44-1.642-28.62-.545-3.7.363-6.961 4.183-9.786 11.46-3.608 9.968-8.927 28.6-.79 29.54 2.968.344 6.181.516 9.638.516-.655 6.005-.971 11.291-.95 15.857.01 1.985-.698 4.748 4.257 5.043 4.954.294 20.496 2.95 26.905 2.026 6.41-.925 10.992-2.102 8.524-7.597-1.645-3.664-2.623-12.029-2.934-25.094l10.023 5.927c3.728 1.165 6.534.46 8.418-2.113 1.636-2.234 3.988-7.442 9.189-17.058.525-.971.758-1.905.697-2.802 1.904-4.665.347-6.853-4.67-6.562-.837 2.317-1.682 1.732-2.143 2.317-2.216 2.815-5.287 6.85-9.214 12.106l-12.3-18.715c-.972-1.852-3.053-3.287-6.244-4.306z"/>
        <linearGradient id="C" x1="25.093%" x2="117.883%" y1="65.302%" y2="-13.53%">
            <stop offset="0%" stop-color="#321847"/>
            <stop offset="100%" stop-color="#834A88"/>
        </linearGradient>
        <linearGradient id="E" x1="60.082%" x2="0%" y1="23.826%" y2="110.63%">
            <stop offset="0%" stop-color="#F68585"/>
            <stop offset="100%" stop-color="#FF9B92"/>
        </linearGradient>
        <path id="D" d="M.303 9.007c2.415 1.542 4.922 2.312 7.522 2.312 2.6 0 3.58-.77 2.939-2.312l-.746-4.472L2.078.404.304 9.007z"/>
        <linearGradient id="H" x1="9.105%" x2="87.601%" y1="110.865%" y2="23.826%">
            <stop offset="0%" stop-color="#FF9292"/>
            <stop offset="100%" stop-color="#FFB59D"/>
        </linearGradient>
        <path id="G" d="M9.139.764c2.521.718 4.414 1.094 6.842.691 1.973-.327 2.492 1.082 2.428 2.024-.622 9.264-2.36 13.895-4.975 13.895-4.32 0-9.042-2.21-10.13-6.856l-.035-.15a2.39 2.39 0 1 1 1.652-3.691c.242.11.094-7.088 4.218-5.913z"/>
        <path id="J" d="M3.13 5.101C4.616 3.34 3.135.45 4.767.45c.313 0 1.34.7 1.502 1.548.127.672.127 1.458 0 2.359 2.181.211 3.53.627 4.046 1.246.81.972.47 4.897 0 6.188-.656 1.801-1.515 1.801-3.36 2.365-.568.174-1.425.623-2.57 1.345-.71.2-1.499-.027-2.369-.682-.87-.655-1.486-2.148-1.848-4.477C1.153 8.022 2.14 6.276 3.13 5.1z"/>
        <linearGradient id="L" x1="50%" x2="50%" y1="0%" y2="100%">
            <stop offset="0%" stop-color="#A3EDED"/>
            <stop offset="100%" stop-color="#9FCFFF"/>
        </linearGradient>
        <linearGradient id="N" x1="13.561%" x2="98.634%" y1="-68.368%" y2="97.339%">
            <stop offset="0%" stop-color="#CE8BA0"/>
            <stop offset="100%" stop-color="#875151"/>
        </linearGradient>
        <path id="M" d="M15.513.504c-.804 3.273-3.645 5.034-8.523 5.283-4.878.248-6.956 2.01-6.237 5.282h24.46c2.689 0 3.707-.98 3.056-2.941L26.252.504H15.513z"/>
        <path id="P" d="M7.01.504C5.923 2.465 4.344 4.226 2.275 5.787c-3.104 2.34-1.924 5.282-.223 5.282h17.447c2.688 0 3.706-.98 3.055-2.941L17.75.504H7.009z"/>
        <path id="R" d="M12.509 4.916c.33.555 2.082 2.382 2.45 2.784.366.403-1.794.283-1.235 1.179.839 1.343-1.698.695-1.405 1.565.402 1.197-1.533-.233-2.6-1.078-1.068-.844-2.274 1.33-4.845.149C4.132 9.173 2.456 7.69.43 5.477 1.841 3.263 3.763 1.7 6.194.788l1.935.29-.111 1.121c-.08.582.136 1.339.842 1.339.705 0 3.828-.014 4.556.262.485.183 1.54.811 3.164 1.883-.151.624-1.622.528-2.436-.206-.454-.409-1.682-.64-1.635-.561z"/>
        <linearGradient id="U" x1="134.336%" x2="6.662%" y1="14.643%" y2="100%">
            <stop offset="0%" stop-color="#404683"/>
            <stop offset="100%" stop-color="#373A5B"/>
        </linearGradient>
        <path id="T" d="M15.557.411C7.122 40.542 9.993 38.133 5.78 62.572c-.946 5.488-.457 11.856-1.565 17.355-1.765 8.753-.723 16.237-2.9 25.02-.515 2.084-2.145 5.356.474 5.918 2.619.563 10.37.337 12.072.337s.79-3.529 1.45-5.256c4.302-11.233 6.73-21.42 7.286-30.559.642-10.545 3.54-25.597 8.697-45.156 4.032 16.327 6.048 30.952 6.048 43.876 0 9.833 1.577 20.81 2.663 29.817.282 2.333-1.563 6.541 1.06 6.941 2.622.4 9.324.4 11.13.337 1.805-.063 1.35-5.579 2.273-11.61.924-6.032-1.708-19.39-.976-41.17.488-14.522-.833-33.548-3.962-57.08L15.557.41z"/>
        <path id="W" d="M3.678 1.005C.688 4.71-.45 7.49.268 9.345c1.075 2.781 6.461 6.087 9.174 2.039 1.246-1.859-2.593-.719-1.879-1.524.662-.746.826-.594 2.373-2.286 2.02-2.21.696-3.31 1.248-5.25.631-2.222-1.87-2.662-7.506-1.319z"/>
        <linearGradient id="Z" x1="43.498%" x2="79.041%" y1="90.881%" y2="0%">
            <stop offset="0%" stop-color="#5D63D3"/>
            <stop offset="100%" stop-color="#B986FF"/>
        </linearGradient>
        <path id="Y" d="M8.606 2.686c4.786-1.529 16.453-3.29 27.925-1.184 4.007.736 6.892 2.704 8.828 4.904 10.926 11.335 15.38 20.58 18.15 23.979 1.846 2.265 1.773 4.706-.22 7.322-5.233 7.595-8.899 13.388-15.43 19.946-.37.372-.97 1.864-2.001 2.396-2.6 0-4.867-1.988-6.8-5.964 6.28-9.924 10.36-16.071 12.239-18.443-4.593-4.692-8.49-8.214-11.694-10.568-1.568 12.243-2.361 20.226-2.377 23.95-.024 5.484 1.013 10.37.993 11.025-.06 1.984 2.012 5.56-5.683 5.56s-11.128-1.023-18.823-1.023c-.783 0-2.364 9.934-4.523 9.934-3.43 0-6.281-.848-8.552-2.546-1.712-.672 2.537-15.574 2.537-38.23l-.813-21.43c-.645-6.616 3.053-8.609 6.244-9.628z"/>
        <path id="ab" d="M19.144 30.679c2.096-1.76 3.293-2.947 3.588-3.559.296-.611.348-1.679.157-3.203 1.176.179 2.082-.5 2.72-2.039.639-1.538 1.95-6.91 3.932-16.117l13.4 3.412-7.95 26.09-15.847-4.584zM16.817 2.783c-1.446 12.07-1.832 18.355-1.157 18.855-2.326 2.916-3.531 5.324-3.616 7.226L.164 25.796 6.634.457l10.183 2.326z"/>
        <path id="ad" d="M16.35.504c.39.302-1.358 1.547-5.246 3.736C8.75 5.566 5.747 6.924 2.098 8.315c-2.373.904-1.783 2.754.943 2.754h23.01c2.689 0 3.707-.98 3.056-2.941L27.09.504H16.35z"/>
        <path id="af" d="M9.171.504c-2.747 2.986-5.155 5.26-7.225 6.82-3.104 2.341-1.035 3.745.666 3.745H21.66c2.688 0 3.707-.98 3.055-2.941L19.91.504H9.171z"/>
        <path id="ah" d="M8.656.45C1.997 13.318 6.407 35.755 5.984 58.06c-.35 18.462-4.69 40.162-4.998 44.509-.17 2.396-1.652 9.999 1.254 10.294 2.905.294 8.286.337 9.988.337s2.722-9.426 3.086-11.61c.553-3.32 2.856-18.721 5.597-35.645 1.106-6.826 2.946-17.795 5.522-32.908 3.73 40.275 5.188 64.406 4.37 72.39-.241 2.352-1.026 7.436.274 7.436s10.155.337 11.13.337c.975 0 .685-5.58 1.608-11.61.352-2.301 2.16-15.46 2.127-37.107-.019-12.953.032-28.191-2.127-47.837-.344-3.126-1.102-7.565-2.274-13.317L8.656.451z"/>
        <path id="aj" d="M36.923 5.992c-9.335-2.597 1.377-.458-9.741.643-4.555.452-8.61 1.989-12.167 4.613C6.25 18.61-.406 32.022.555 39.484c.64 4.975 6.225 6.81 16.753 5.504.024 5.484-7.594 17.56-7.594 32.077.458.052 21.698 3.5 37.53-3.158.664-.28.896-4.496.696-12.65 1.238 9.343 2.416 14.014 3.534 14.014.505 0-1.25-10.07-1.957-15.346-.305-2.276-1.3-8.873-1.3-17.978 0-3.55 1.086-9.81 3.257-18.777C60.17 16.37 65.97 11.193 68.88 7.641c2.91-3.552.952-6.088-5.87-7.608-11.167 5.705-19.862 7.691-26.086 5.96z"/>
        <linearGradient id="al" x1="50%" x2="50%" y1="0%" y2="100%">
            <stop offset="0%" stop-color="#AF3053"/>
            <stop offset="100%" stop-color="#7A3343"/>
        </linearGradient>
    </defs>
    <g fill="none" fill-rule="evenodd" transform="translate(0 1)">
        <ellipse cx="45" cy="289.865" fill="#373A5B" fill-rule="nonzero" opacity=".3" rx="44.666" ry="1"/>
        <ellipse cx="222.832" cy="289.865" fill="#373A5B" fill-rule="nonzero" opacity=".3" rx="117.075" ry="1"/>
        <g transform="translate(108.386 32.959)">
            <rect width="8.313" height="18.892" x="107.833" fill="#3E4992" fill-rule="nonzero" rx="4.156"/>
            <g transform="translate(6.547 9.322)">
                <mask id="c" fill="#fff">
                    <use xlink:href="#a"/>
                </mask>
                <use fill="url(#b)" fill-rule="nonzero" xlink:href="#a"/>
                <path fill="#F28DDB" fill-rule="nonzero" d="M-92.56 69.238H269.65v89.887H-92.56z" mask="url(#c)" opacity=".1" transform="rotate(30 88.545 114.181)"/>
                <path fill="#F28DDB" fill-rule="nonzero" d="M-57.903 49.014H272.35v50.505H-57.903z" mask="url(#c)" opacity=".1" transform="rotate(30 107.223 74.267)"/>
            </g>
            <path fill="#283273" fill-rule="nonzero" d="M116.145 203.537v49.218a3.662 3.662 0 0 1-3.662 3.662h-.988a3.662 3.662 0 0 1-3.662-3.662v-49.218l-28.616 49.565a3.662 3.662 0 0 1-5.003 1.34l-.856-.493a3.662 3.662 0 0 1-1.34-5.003l32.794-56.801a3.66 3.66 0 0 1 3.02-1.828v-3.15a3.662 3.662 0 0 1 3.663-3.663h.988a3.662 3.662 0 0 1 3.662 3.662v3.15a3.66 3.66 0 0 1 3.021 1.829l32.795 56.801a3.662 3.662 0 0 1-1.34 5.003l-.857.494a3.662 3.662 0 0 1-5.002-1.34l-28.617-49.566z"/>
            <path fill="#3E4992" fill-rule="nonzero" d="M4.521 183.63h214.936a3.995 3.995 0 0 1 3.995 3.996v1.078a3.995 3.995 0 0 1-3.995 3.995H4.521a3.995 3.995 0 0 1-3.995-3.995v-1.078a3.995 3.995 0 0 1 3.995-3.995z"/>
        </g>
        <g filter="url(#d)" transform="translate(197.748 22.42)">
            <mask id="f" fill="#fff">
                <use xlink:href="#e"/>
            </mask>
            <use fill="#FFF" fill-rule="nonzero" xlink:href="#e"/>
            <g fill-rule="nonzero" mask="url(#f)">
                <path fill="#FD9FB1" d="M14.426 33.846H62.7a3.884 3.884 0 0 1 3.884 3.884v25.524a3.884 3.884 0 0 1-3.884 3.884H14.426a3.884 3.884 0 0 1-3.884-3.884V37.73a3.884 3.884 0 0 1 3.884-3.884z" opacity=".2"/>
                <path fill="#A575F3" d="M75.46 33.846h53.822a3.884 3.884 0 0 1 3.884 3.884v25.524a3.884 3.884 0 0 1-3.884 3.884H75.461a3.884 3.884 0 0 1-3.884-3.884V37.73a3.884 3.884 0 0 1 3.884-3.884z" opacity=".2"/>
                <path fill="#F091A0" d="M32.153 55.182l4.185-6.965 2.484 3.877 2.306-2.519 3.844 5.607H32.153zm10.235-7.16a1.665 1.665 0 1 1 0-3.33 1.665 1.665 0 0 1 0 3.33z" opacity=".3"/>
            </g>
            <path fill="#47B3C0" fill-rule="nonzero" d="M28.298 13.594a1.11 1.11 0 0 1 0-2.22h9.842a1.11 1.11 0 1 1 0 2.22h-9.842z" mask="url(#f)"/>
            <g fill-rule="nonzero" mask="url(#f)">
                <g transform="translate(10.59 9.028)">
                    <circle cx="6.158" cy="6.168" r="6.103" fill="#50B9BD" opacity=".1"/>
                    <path fill="#A3DAD8" d="M8.308 8.6a.555.555 0 1 1-1.11 0c0-.54-.456-.983-1.026-.983-.57 0-1.027.443-1.027.983a.555.555 0 0 1-1.11 0c0-1.16.96-2.093 2.137-2.093 1.176 0 2.136.933 2.136 2.093z"/>
                    <path fill="#59BEB9" d="M6.172 7.53c-1.177 0-2.136-.933-2.136-2.092 0-1.16.96-2.093 2.136-2.093 1.176 0 2.136.933 2.136 2.093S7.348 7.53 6.172 7.53zm0-1.109c.57 0 1.026-.444 1.026-.983 0-.54-.456-.984-1.026-.984-.57 0-1.027.444-1.027.984s.457.983 1.027.983z"/>
                </g>
            </g>
            <path fill="#DAF0F2" fill-rule="nonzero" d="M28.298 19.143a1.11 1.11 0 0 1 0-2.22h20.939a1.11 1.11 0 1 1 0 2.22h-20.94z" mask="url(#f)"/>
            <path fill="#8E7DFD" fill-rule="nonzero" d="M51.047 78.513a1.11 1.11 0 0 1 0-2.22h7.622a1.11 1.11 0 0 1 0 2.22h-7.622zM67.693 78.513a1.11 1.11 0 1 1 0-2.22h7.622a1.11 1.11 0 0 1 0 2.22h-7.622z" mask="url(#f)" opacity=".3"/>
        </g>
        <g fill-rule="nonzero">
            <path fill="url(#g)" d="M2.09.007h39.363c.919 0 1.664.745 1.664 1.665V32.96c0 .92-.745 1.664-1.664 1.664H2.09c-.92 0-1.665-.745-1.665-1.664V1.67C.425.753 1.17.008 2.09.008z" transform="translate(291.303 31.852)"/>
            <path fill="#FFF" d="M298.959 38.224a.5.5 0 0 1 0-1h4.895a.5.5 0 0 1 0 1h-4.895z"/>
            <path fill="#71C5EB" d="M298.959 41.192a.5.5 0 0 1 0-1h9.84a.5.5 0 0 1 0 1h-9.84z"/>
            <path fill="#FFF" d="M300.045 55.454h3.884c.613 0 1.11.497 1.11 1.11v4.439a1.11 1.11 0 0 1-1.11 1.11h-3.884a1.11 1.11 0 0 1-1.11-1.11v-4.44c0-.612.497-1.11 1.11-1.11zM311.142 51.57h3.884c.613 0 1.11.497 1.11 1.11v8.323a1.11 1.11 0 0 1-1.11 1.11h-3.884a1.11 1.11 0 0 1-1.11-1.11V52.68c0-.613.497-1.11 1.11-1.11zM322.24 46.576h3.883c.613 0 1.11.497 1.11 1.11v13.317a1.11 1.11 0 0 1-1.11 1.11h-3.884a1.11 1.11 0 0 1-1.11-1.11V47.686c0-.613.498-1.11 1.11-1.11z"/>
        </g>
        <g fill-rule="nonzero">
            <path fill="url(#h)" d="M3.828.974h22.194a3.33 3.33 0 0 1 3.33 3.329v22.194a3.33 3.33 0 0 1-3.33 3.33H3.828a3.33 3.33 0 0 1-3.33-3.33V4.303a3.33 3.33 0 0 1 3.33-3.33z" transform="translate(127.567 .383)"/>
            <path fill="url(#i)" d="M3.828.974h22.194a3.33 3.33 0 0 1 3.33 3.329v4.439H.498v-4.44A3.33 3.33 0 0 1 3.828.975z" transform="translate(127.567 .383)"/>
            <g transform="translate(132.561 .383)">
                <circle cx="2.533" cy="4.893" r="2.054" fill="#373A5B" opacity=".1"/>
                <path fill="#FDC8FF" d="M1.48.442a1.11 1.11 0 1 1 2.219 0v4.392a1.11 1.11 0 0 1-2.22 0V.442z"/>
            </g>
            <g transform="translate(146.433 .383)">
                <circle cx="2.533" cy="4.893" r="2.054" fill="#373A5B" opacity=".1"/>
                <path fill="#FDC8FF" d="M1.48.442a1.11 1.11 0 1 1 2.219 0v4.392a1.11 1.11 0 0 1-2.22 0V.442z"/>
            </g>
        </g>
        <g transform="translate(98.399 151.754)">
            <mask id="l" fill="#fff">
                <use xlink:href="#j"/>
            </mask>
            <use fill="url(#k)" fill-rule="nonzero" xlink:href="#j"/>
            <path fill="#FFF" fill-rule="nonzero" d="M7.327 26.154h3.33c.306 0 .554.248.554.555v5.548a.555.555 0 0 1-.555.555H7.327a.555.555 0 0 1-.555-.555V26.71c0-.307.249-.555.555-.555zM13.985 22.27h3.33c.306 0 .554.248.554.555v9.432a.555.555 0 0 1-.554.555h-3.33a.555.555 0 0 1-.554-.555v-9.432c0-.307.248-.555.554-.555zM20.644 17.276h3.329c.306 0 .555.248.555.555v14.426a.555.555 0 0 1-.555.555h-3.33a.555.555 0 0 1-.554-.555V17.831c0-.307.248-.555.555-.555zM5.407 6.372a.5.5 0 0 1 0-1h4.895a.5.5 0 0 1 0 1H5.407z" mask="url(#l)"/>
            <path fill="#92D5CB" fill-rule="nonzero" d="M5.407 9.34a.5.5 0 0 1 0-1h8.176a.5.5 0 0 1 0 1H5.407z" mask="url(#l)"/>
            <path fill="url(#k)" fill-rule="nonzero" d="M22.727-26.262h15.42c.503 0 .989.189 1.36.53l9.73 8.93c.415.38.651.918.651 1.482V7.27a3.353 3.353 0 0 1-3.353 3.353H22.727a3.353 3.353 0 0 1-3.353-3.353V-22.91a3.353 3.353 0 0 1 3.353-3.353z" mask="url(#l)"/>
        </g>
        <g fill-rule="nonzero" transform="translate(162.784 32.959)">
            <path fill="url(#m)" d="M3.828.419h22.194a3.33 3.33 0 0 1 3.33 3.329v22.194a3.33 3.33 0 0 1-3.33 3.33H3.828a3.33 3.33 0 0 1-3.33-3.33V3.748a3.33 3.33 0 0 1 3.33-3.33z"/>
            <path fill="#E4BFF1" d="M12.29 22.524a.5.5 0 0 1 0-1h5.492a.5.5 0 0 1 0 1H12.29z"/>
            <circle cx="15.036" cy="13.936" r="6.103" fill="#373A5B" opacity=".1"/>
            <g transform="translate(8.878 6.103)">
                <circle cx="6.158" cy="6.168" r="6.103" fill="#FFF"/>
                <path fill="#F9B9BD" d="M8.308 8.6a.555.555 0 1 1-1.11 0c0-.54-.456-.983-1.026-.983-.57 0-1.027.443-1.027.983a.555.555 0 0 1-1.11 0c0-1.16.96-2.093 2.137-2.093 1.176 0 2.136.933 2.136 2.093z"/>
                <path fill="#F3747B" d="M6.172 7.53c-1.177 0-2.136-.933-2.136-2.092 0-1.16.96-2.093 2.136-2.093 1.176 0 2.136.933 2.136 2.093S7.348 7.53 6.172 7.53zm0-1.109c.57 0 1.026-.444 1.026-.983 0-.54-.456-.984-1.026-.984-.57 0-1.027.444-1.027.984s.457.983 1.027.983z"/>
            </g>
        </g>
        <g fill-rule="nonzero" filter="url(#n)" transform="translate(72.32 55)">
            <path fill="#FFF" d="M4.439 0H78.79a4.439 4.439 0 0 1 4.439 4.439v22.194a4.439 4.439 0 0 1-4.439 4.44H4.439A4.439 4.439 0 0 1 0 26.632V4.44A4.439 4.439 0 0 1 4.439 0z"/>
            <path fill="#FF9190" d="M59.606 7.29h.618a2 2 0 0 1 2 2v12.663a2 2 0 0 1-2 2h-.618a2 2 0 0 1-2-2V9.29a2 2 0 0 1 2-2zm6.558 0h.619a2 2 0 0 1 2 2v12.663a2 2 0 0 1-2 2h-.619a2 2 0 0 1-2-2V9.29a2 2 0 0 1 2-2zm6.56 0h.617a2 2 0 0 1 2 2v12.663a2 2 0 0 1-2 2h-.618a2 2 0 0 1-2-2V9.29a2 2 0 0 1 2-2zm-19.677 0h.618a2 2 0 0 1 2 2v12.663a2 2 0 0 1-2 2h-.618a2 2 0 0 1-2-2V9.29a2 2 0 0 1 2-2z" opacity=".1"/>
            <path fill="url(#o)" d="M8.559 4.943h.618a2 2 0 0 1 2 2v7.797a2 2 0 0 1-2 2h-.618a2 2 0 0 1-2-2V6.943a2 2 0 0 1 2-2zM2 10.49h.618a2 2 0 0 1 2 2v2.249a2 2 0 0 1-2 2H2a2 2 0 0 1-2-2V12.49a2 2 0 0 1 2-2zm13.117-2.603h.619a2 2 0 0 1 2 2v4.852a2 2 0 0 1-2 2h-.619a2 2 0 0 1-2-2V9.888a2 2 0 0 1 2-2zm6.21 5.548h1.315a1.652 1.652 0 0 1 0 3.304h-1.314a1.652 1.652 0 1 1 0-3.304z" transform="translate(51.047 7.213)"/>
            <path fill="#80DDD0" d="M9.868 13.594a1.11 1.11 0 1 1 0-2.22h9.841a1.11 1.11 0 1 1 0 2.22H9.868z"/>
            <path fill="#E6F8F6" d="M9.868 19.143a1.11 1.11 0 1 1 0-2.22h20.939a1.11 1.11 0 1 1 0 2.22H9.867z"/>
        </g>
        <g fill-rule="nonzero" transform="translate(85.074 22.42)">
            <circle cx="8.878" cy="8.878" r="8.878" fill="url(#p)"/>
            <path fill="#F0647A" d="M11.313 7.077a.555.555 0 1 1 .785.785L8.959 11a.555.555 0 0 1-.785 0L6.213 9.04a.555.555 0 1 1 .784-.785l1.57 1.57 2.746-2.747z"/>
        </g>
        <g fill-rule="nonzero" filter="url(#q)" transform="translate(213.623 120.404)">
            <path fill="#FFF" d="M4.439 0H78.79a4.439 4.439 0 0 1 4.439 4.439v48.273a4.439 4.439 0 0 1-4.439 4.438H4.439A4.439 4.439 0 0 1 0 52.712V4.439A4.439 4.439 0 0 1 4.439 0z"/>
            <path fill="#FA6EB9" d="M11.097 32.259h5.549c.613 0 1.11.497 1.11 1.11v14.443a1.11 1.11 0 0 1-1.11 1.11h-5.549a1.11 1.11 0 0 1-1.11-1.11V33.369c0-.613.497-1.11 1.11-1.11zm11.097 0h5.549c.613 0 1.11.497 1.11 1.11v14.443a1.11 1.11 0 0 1-1.11 1.11h-5.549a1.11 1.11 0 0 1-1.11-1.11V33.369c0-.613.497-1.11 1.11-1.11zm11.098 0h5.548c.613 0 1.11.497 1.11 1.11v14.443a1.11 1.11 0 0 1-1.11 1.11h-5.548a1.11 1.11 0 0 1-1.11-1.11V33.369c0-.613.497-1.11 1.11-1.11zm11.097 0h5.548c.613 0 1.11.497 1.11 1.11v14.443a1.11 1.11 0 0 1-1.11 1.11H44.39a1.11 1.11 0 0 1-1.11-1.11V33.369c0-.613.497-1.11 1.11-1.11zm11.097 0h5.548c.613 0 1.11.497 1.11 1.11v14.443a1.11 1.11 0 0 1-1.11 1.11h-5.548a1.11 1.11 0 0 1-1.11-1.11V33.369c0-.613.497-1.11 1.11-1.11zm11.097 0h5.549c.613 0 1.11.497 1.11 1.11v14.443a1.11 1.11 0 0 1-1.11 1.11h-5.549a1.11 1.11 0 0 1-1.11-1.11V33.369c0-.613.497-1.11 1.11-1.11z" opacity=".1"/>
            <path fill="#FB85B5" d="M67.638 23.828c-4.55 0-8.239-3.671-8.239-8.203s3.69-8.203 8.239-8.203c4.549 0 8.239 3.671 8.239 8.203s-3.69 8.203-8.24 8.203zm0-2.22c3.326 0 6.02-2.68 6.02-5.983 0-3.304-2.694-5.984-6.02-5.984-3.326 0-6.02 2.68-6.02 5.984 0 3.303 2.694 5.984 6.02 5.984z" opacity=".2"/>
            <path fill="url(#i)" d="M3.288 14.823a1.11 1.11 0 0 1 1.364-1.75 6.01 6.01 0 0 0 3.712 1.273c3.326 0 6.02-2.68 6.02-5.984 0-3.303-2.694-5.984-6.02-5.984a1.11 1.11 0 0 1 0-2.22c4.549 0 8.239 3.672 8.239 8.204s-3.69 8.203-8.239 8.203a8.23 8.23 0 0 1-5.076-1.742z" transform="translate(59.274 7.263)"/>
            <path fill="url(#i)" d="M11.987 42.673h3.768a2 2 0 0 1 2 2v2.249a2 2 0 0 1-2 2h-3.768a2 2 0 0 1-2-2v-2.249a2 2 0 0 1 2-2zm11.098-2.083h3.768a2 2 0 0 1 2 2v4.332a2 2 0 0 1-2 2h-3.768a2 2 0 0 1-2-2V42.59a2 2 0 0 1 2-2zm11.097-3.054h3.768a2 2 0 0 1 2 2v7.386a2 2 0 0 1-2 2h-3.768a2 2 0 0 1-2-2v-7.386a2 2 0 0 1 2-2zm11.097 2.03h3.768a2 2 0 0 1 2 2v5.356a2 2 0 0 1-2 2h-3.768a2 2 0 0 1-2-2v-5.357a2 2 0 0 1 2-2zm10.66 6.231h4.643a1.562 1.562 0 0 1 0 3.125h-4.644a1.562 1.562 0 1 1 0-3.125zm11.534-3.124h3.768a2 2 0 0 1 2 2v2.249a2 2 0 0 1-2 2h-3.768a2 2 0 0 1-2-2v-2.249a2 2 0 0 1 2-2z"/>
            <path fill="#9B72F6" d="M10.542 13.594a1.11 1.11 0 0 1 0-2.22h9.842a1.11 1.11 0 0 1 0 2.22h-9.842z"/>
            <path fill="#EBE3FD" d="M10.542 19.143a1.11 1.11 0 0 1 0-2.22h20.94a1.11 1.11 0 1 1 0 2.22h-20.94z"/>
        </g>
        <g transform="translate(53.318 278.65)">
            <mask id="s" fill="#fff">
                <use xlink:href="#r"/>
            </mask>
            <use fill="#D8E8F8" fill-rule="nonzero" transform="matrix(-1 0 0 1 29.074 0)" xlink:href="#r"/>
            <path fill="#6F54C0" fill-rule="nonzero" d="M.615 7.324H28.46v3.88H.615z" mask="url(#s)" opacity=".2"/>
        </g>
        <g transform="translate(19.36 278.65)">
            <mask id="u" fill="#fff">
                <use xlink:href="#t"/>
            </mask>
            <use fill="#D8E8F8" fill-rule="nonzero" transform="matrix(-1 0 0 1 23.089 0)" xlink:href="#t"/>
            <path fill="#6F54C0" fill-rule="nonzero" d="M.344 7.324h22.4v3.88H.344z" mask="url(#u)" opacity=".2"/>
        </g>
        <g transform="translate(21.193 169.454)">
            <mask id="x" fill="#fff">
                <use xlink:href="#v"/>
            </mask>
            <use fill="url(#w)" fill-rule="nonzero" xlink:href="#v"/>
            <path fill="#151731" fill-rule="nonzero" d="M39.508.256C39.17 6.412 34.3 9.49 24.901 9.49c-14.099 0-2.044 15.731-16.446 19.37-14.402 3.639-6.037 21.343-14.793 21.343-5.837 0-3.323-16.31 7.544-48.93L39.508.257z" mask="url(#x)" opacity=".3"/>
            <path fill="#151731" fill-rule="nonzero" d="M25.413 32.405l6.777-16.116c1.392 4.219 1.392 8.889 0 14.01-2.087 7.682 4.197 14.548 0 19.921-4.196 5.373 4.197 19.472-4.439 27.631-5.757 5.44-7.03 4.992-3.82-1.343l1.482-44.103z" mask="url(#x)" opacity=".3" transform="rotate(-8 27.938 48.955)"/>
            <path fill-rule="nonzero" stroke="#FFF" stroke-linecap="round" stroke-linejoin="round" stroke-width="1.2" d="M25.364 26.91c5.8 21.624 8.586 35.754 8.356 42.393-.345 9.959 1.987 33.943 1.987 41.278M3.927.676c-.798 18.437-.95 31.079-.46 37.925.737 10.27-.807 32.277-.807 36.469s1.478 30.235 0 34.792" mask="url(#x)" opacity=".4"/>
        </g>
        <g transform="translate(8.708 107.532)">
            <path fill="url(#y)" fill-rule="nonzero" d="M18.284.031l15.212 1.574a3.545 3.545 0 0 1 3.125 4.146 4.55 4.55 0 0 1-4.479 3.754H18.31a4.994 4.994 0 0 1-4.993-4.994 4.504 4.504 0 0 1 4.967-4.48z"/>
            <mask id="B" fill="#fff">
                <use xlink:href="#z"/>
            </mask>
            <use fill="url(#A)" fill-rule="nonzero" xlink:href="#z"/>
            <path fill="#87C2F9" fill-rule="nonzero" d="M19.689 67.634c.011-2.832.272-5.056.782-6.67.713-2.257 6.31-6.186 7.25-14.152.068-.586.608-1.823 1.831-1.823h12.332c1.53 0 1.932 1.037 2.013 1.541.742 4.645 2.223 8.498 4.445 11.558 2.463 3.393 2.056 7.134-1.222 11.223L19.69 67.634z" mask="url(#B)"/>
            <path fill="#373A5B" fill-rule="nonzero" d="M13.115 44.985c9.485.101 15.407.101 17.766 0 .783-.034 1.258-.615 1.814-.646l1.136-.066c4.636-.281 7.51-.638 8.624-1.07-6.282 2.217-10.52 3.326-12.716 3.326-3.293 0-3.193-2.39-6.8 2.57-3.608 4.96-6.472-1.363-9.824 8.016-2.235 6.252-2.235 2.21 0-12.13zM34.257 36.805L13.115 33.39l3.796-16.075c2.014 2.277 2.217 5.525.61 9.745-2.41 6.33 3.937.447 6.165 4.581 1.486 2.757 5.01 4.478 10.571 5.164z" mask="url(#B)" opacity=".3"/>
            <path fill="#2D4F83" fill-rule="nonzero" d="M72.14 12.59c.408 4.62 1.716 6.93 3.925 6.93 2.208 0 3.458-.691 3.75-2.074l2.684-6.634-6.252-1.86-4.108 1.41v2.228z" mask="url(#B)"/>
            <path fill="#373A5B" fill-rule="nonzero" d="M49.756 35.227c.015-7.366-.623-13.298-1.913-17.794 2.325 1.372 3.666 4.338 4.022 8.897.534 6.838 3.976.27 6.18 7.942 2.204 7.671 7.768 2.644 9.072 4.697.868 1.368-1.42 3.408-6.868 6.12l-10.493-9.862z" mask="url(#B)" opacity=".3"/>
            <path fill-rule="nonzero" stroke="#FFF" stroke-linecap="round" stroke-linejoin="round" stroke-width="1.2" d="M36.573 6.613c.924 2.509 1.169 6.566.736 12.173-.211 2.738-.184 4.65.083 5.734M27.251 6.727c.924 2.509 1.17 6.566.736 12.173-.211 2.738-.183 4.65.083 5.734" mask="url(#B)"/>
            <path fill="#2D4F83" fill-rule="nonzero" d="M35.349 37.41l-1.527-.222c-.132 4.18-.53 6.542-1.196 7.085h2.25l.746-2.554.198-3.945-.471-.364z" mask="url(#B)"/>
        </g>
        <g transform="translate(24.022 80.233)">
            <ellipse cx="14.648" cy="13.784" fill="url(#C)" fill-rule="nonzero" rx="14.131" ry="13.317"/>
            <g transform="translate(7.99 21.307)">
                <mask id="F" fill="#fff">
                    <use xlink:href="#D"/>
                </mask>
                <use fill="url(#E)" fill-rule="nonzero" xlink:href="#D"/>
                <path fill="#DA433D" fill-rule="nonzero" d="M1.899.577c.962 5.98 3.494 9.208 7.594 9.685 4.1.476 5.992-.824 5.676-3.902L1.9.577z" mask="url(#F)" opacity=".2"/>
            </g>
            <g transform="translate(6.658 11.32)">
                <mask id="I" fill="#fff">
                    <use xlink:href="#G"/>
                </mask>
                <use fill="url(#H)" fill-rule="nonzero" xlink:href="#G"/>
                <path fill="#DA433D" fill-rule="nonzero" d="M18.643.666c-3.041 1.96-5.788 2.69-8.24 2.186-3.677-.755-2.882 4.805-5.94 3.349l1.242-7.284L18.643.666z" mask="url(#I)" opacity=".2"/>
            </g>
        </g>
        <g>
            <g transform="translate(81.949 110.195)">
                <mask id="K" fill="#fff">
                    <use xlink:href="#J"/>
                </mask>
                <use fill="url(#H)" fill-rule="nonzero" xlink:href="#J"/>
                <path fill="#DA433D" fill-rule="nonzero" d="M.159 9.758c1.255 3.513 3.393 4.99 6.415 4.43l-2.19 2.327-4.225-1.746V9.76z" mask="url(#K)" opacity=".2"/>
                <path fill="#DA433D" fill-rule="nonzero" d="M7.02 4.904c-1.627.209-2.44 1.237-2.44 3.086 0 2.773.037 5.245 2.44 5.88-2.81-.228-4.07-1.988-3.78-5.28.29-3.29 1.55-4.52 3.78-3.686z" mask="url(#K)" opacity=".2"/>
            </g>
            <g fill-rule="nonzero">
                <path fill="url(#L)" d="M8.864.425L2.606 29.754l21.012-.457L30.328.425z" transform="translate(42.965 128.838)"/>
                <path fill="url(#H)" d="M.24 22.967c.666-2.845.882-5.061.647-6.651 2.142-1.842 3.818-2.764 5.027-2.764l-.477 2.25c2.977-.12 5.156-.87 6.538-2.25 2.073-2.07 1.047 2.561-.296 3.278-1.343.716-.757 4.84-3.98 5.489-2.148.432-4.635.648-7.46.648z" transform="translate(42.965 128.838)"/>
            </g>
        </g>
        <g>
            <g fill-rule="nonzero">
                <path fill="url(#H)" d="M13.889 12.013l3.36-.033.738 9.995c-1.697 1.913-3.533 2.766-5.508 2.559-1.976-.208-3.91-1.576-5.804-4.105l1.162-3.65c-1.535.453-2.98.612-3.86.612C1.098 17.391.15 11.589.229.526 2.5 2 11.078 1.627 14.13.526c-.024 1.3 1.36 7.53-.241 11.487z" transform="translate(298.675 90.218)"/>
                <path fill="url(#C)" d="M7.042 12.955a2.51 2.51 0 0 0-1.417.438c-.285-1.205-.782-3.548-1.543-4.055-3.303-2.201-5.28-5.652-2.937-7.906C3.488-.82 12.703.862 15.031.66c3.708-.325 5.562 1.197 5.563 4.565.876-.42 2.068-.225 2.359 0 1.645 1.273 1.558 6.913-1.483 14.04-.773 1.812-2.448 2.715-4.916 2.715-2.341 0-4.207.413-5.251-1.416-.743-1.301-1.645-2.2-2.527-2.972.52-.487.846-1.19.846-1.972 0-1.471-1.155-2.664-2.58-2.664z" transform="translate(296.678 84.225)"/>
            </g>
            <g transform="translate(262.68 278.65)">
                <mask id="O" fill="#fff">
                    <use xlink:href="#M"/>
                </mask>
                <use fill="url(#N)" fill-rule="nonzero" xlink:href="#M"/>
                <path fill="#373A5B" fill-rule="nonzero" d="M.615 7.324H28.46v3.76H.615z" mask="url(#O)" opacity=".2"/>
            </g>
            <g transform="translate(311.951 278.65)">
                <mask id="Q" fill="#fff">
                    <use xlink:href="#P"/>
                </mask>
                <use fill="url(#N)" fill-rule="nonzero" transform="matrix(-1 0 0 1 23.089 0)" xlink:href="#P"/>
                <path fill="#373A5B" fill-rule="nonzero" d="M.344 7.324h22.4v3.76H.344z" mask="url(#Q)" opacity=".2"/>
            </g>
            <g transform="translate(316.91 162.796)">
                <mask id="S" fill="#fff">
                    <use xlink:href="#R"/>
                </mask>
                <use fill="url(#H)" fill-rule="nonzero" transform="matrix(-1 0 0 1 17.01 0)" xlink:href="#R"/>
                <path fill="#DA433D" fill-rule="nonzero" d="M10.532.216c1.965 5.39 3.566 8.363 4.803 8.923 1.237.559 1.983-.928 2.238-4.462L10.532.216z" mask="url(#S)" opacity=".2"/>
            </g>
            <g transform="translate(275.997 168.788)">
                <mask id="V" fill="#fff">
                    <use xlink:href="#T"/>
                </mask>
                <use fill="url(#U)" fill-rule="nonzero" xlink:href="#T"/>
                <path fill="#151731" fill-rule="nonzero" d="M32.73 26.583l8.1-17.927c1.118 5.587.495 10.373-1.868 14.357-3.544 5.976 2.25 18.073-1.123 22.272-2.249 2.8-2.74 8.15-1.473 16.054L31.36 33.216l1.37-6.633z" mask="url(#V)" opacity=".3"/>
                <path fill="#151731" fill-rule="nonzero" d="M50.215.922c-.29 5.24-4.434 7.861-12.436 7.861-12.002 0-5.543 9.387-17.804 12.485-12.261 3.098-5.66 16.455-13.113 16.455-4.97 0-5.596-12.267-1.881-36.801h45.234z" mask="url(#V)" opacity=".3"/>
            </g>
            <g transform="translate(285.616 180.107)">
                <mask id="X" fill="#fff">
                    <use xlink:href="#W"/>
                </mask>
                <use fill="url(#H)" fill-rule="nonzero" xlink:href="#W"/>
                <path fill="#DA433D" fill-rule="nonzero" d="M3.65.74c1.265 3.129 4.063 4.855 8.396 5.18l-.163-4.513L3.65.74z" mask="url(#X)" opacity=".2"/>
            </g>
            <g transform="translate(288.28 108.863)">
                <mask id="aa" fill="#fff">
                    <use xlink:href="#Y"/>
                </mask>
                <use fill="url(#Z)" fill-rule="nonzero" xlink:href="#Y"/>
                <path fill="#373A5B" fill-rule="nonzero" d="M7.732-.272c-1.912 2.4.458 3.601 7.112 3.601s12.452-1.553 17.394-4.66L7.732-.273zM39.531 25.332l1.56-11.187c.79 7.458 2.697 11.584 5.723 12.378 4.539 1.19 2.82 6.914 4.443 9.091-2.25.225-5.639.622-10.166 1.19l-1.56-11.472zM13.462 64.835c1.95-11.226 3.033-18.786 3.245-22.68.213-3.894.213-10.953 0-21.179 2.424 3.545 3.636 7.1 3.636 10.665 0 5.348 7.475 10.986 1.415 17.114-6.06 6.129-.929 14.812-4.25 16.496-2.214 1.123-3.563.984-4.046-.416z" mask="url(#aa)" opacity=".3"/>
            </g>
            <g transform="translate(273.631 159.466)">
                <mask id="ac" fill="#fff">
                    <use xlink:href="#ab"/>
                </mask>
                <use fill="url(#L)" fill-rule="nonzero" xlink:href="#ab"/>
                <path fill="#373A5B" fill-rule="nonzero" d="M33.067 6.579c.406 2.163-.626 4.853-3.097 8.07-3.705 4.824-1.109 11.834-4.702 12.87-2.396.69-3.93 2.381-4.601 5.072l-10.058-2.717c-.017-3.912.909-6.908 2.78-8.987 2.806-3.118-3.195-14 1.49-18.795C18.004-1.105 24.067.39 33.068 6.579z" mask="url(#ac)" opacity=".3"/>
            </g>
        </g>
        <g>
            <g transform="translate(172.161 278.65)">
                <mask id="ae" fill="#fff">
                    <use xlink:href="#ad"/>
                </mask>
                <use fill="url(#U)" fill-rule="nonzero" transform="matrix(-1 0 0 1 29.912 0)" xlink:href="#ad"/>
                <path fill="url(#H)" fill-rule="nonzero" d="M-1.03 6.44c14.403 1.663 22.019.182 22.849-4.443.83-4.624-6.443-5.732-21.819-3.326l-1.03 7.77z" mask="url(#ae)"/>
            </g>
            <g transform="translate(139.535 278.65)">
                <mask id="ag" fill="#fff">
                    <use xlink:href="#af"/>
                </mask>
                <use fill="url(#U)" fill-rule="nonzero" transform="matrix(-1 0 0 1 25.25 0)" xlink:href="#af"/>
                <path fill="url(#H)" fill-rule="nonzero" d="M2.12 4.305c8.218 2.243 14.547 1.992 18.986-.751S19.619-1.003 3.329-1.887L2.12 4.305z" mask="url(#ag)"/>
            </g>
            <g transform="translate(143.53 166.79)">
                <mask id="ai" fill="#fff">
                    <use xlink:href="#ah"/>
                </mask>
                <use fill="url(#U)" fill-rule="nonzero" xlink:href="#ah"/>
                <path fill="#151731" fill-rule="nonzero" d="M25.796 33.292c-3.828.771-6.51 2.44-8.043 5.008-2.3 3.85.823 13.524-3.069 15.63-3.891 2.106 3.29 21.498 2.397 26.044-.595 3.031.099 4.85 2.083 5.455l6.632-52.137z" mask="url(#ai)" opacity=".3"/>
                <path fill="#151731" fill-rule="nonzero" d="M50.513 6.335c-2.793 11.342-8.889 17.013-18.288 17.013-14.099 0-2.509 7.393-16.91 11.031C.911 38.018 9.741 64.061.985 64.061c-5.837 0-4.171-21.998 4.998-65.994l44.53 8.268z" mask="url(#ai)" opacity=".3"/>
            </g>
            <g transform="translate(136.872 108.863)">
                <mask id="ak" fill="#fff">
                    <use xlink:href="#aj"/>
                </mask>
                <use fill="url(#i)" fill-rule="nonzero" xlink:href="#aj"/>
                <path fill="#373A5B" fill-rule="nonzero" d="M51.125 23.042c1.199-4.082 4.388-6.537 9.567-7.364 7.768-1.24 7.906-8.209 12.784-9.559 3.253-.9 1.415 2.008-5.513 8.723l-16.838 8.2z" mask="url(#ak)" opacity=".3"/>
                <g fill="#FFF" fill-rule="nonzero" mask="url(#ak)" opacity=".3">
                    <g transform="translate(-4.66 7.324)">
                        <circle cx="15.314" cy="8.656" r="1.997"/>
                        <circle cx="28.631" cy="8.656" r="1.997"/>
                        <circle cx="41.947" cy="8.656" r="1.997"/>
                        <circle cx="55.264" cy="8.656" r="1.997"/>
                        <circle cx="21.972" cy="1.997" r="1.997"/>
                        <circle cx="35.289" cy="1.997" r="1.997"/>
                        <circle cx="48.606" cy="1.997" r="1.997"/>
                        <circle cx="61.922" cy="1.997" r="1.997"/>
                        <circle cx="68.581" cy="8.656" r="1.997"/>
                        <circle cx="8.656" cy="15.314" r="1.997"/>
                        <circle cx="21.972" cy="15.314" r="1.997"/>
                        <circle cx="35.289" cy="15.314" r="1.997"/>
                        <circle cx="48.606" cy="15.314" r="1.997"/>
                        <circle cx="61.922" cy="15.314" r="1.997"/>
                        <circle cx="1.997" cy="21.972" r="1.997"/>
                        <circle cx="15.314" cy="21.972" r="1.997"/>
                        <circle cx="28.631" cy="21.972" r="1.997"/>
                        <circle cx="41.947" cy="21.972" r="1.997"/>
                        <circle cx="55.264" cy="21.972" r="1.997"/>
                        <circle cx="8.656" cy="28.631" r="1.997"/>
                        <circle cx="21.972" cy="28.631" r="1.997"/>
                        <circle cx="35.289" cy="28.631" r="1.997"/>
                        <circle cx="48.606" cy="28.631" r="1.997"/>
                        <circle cx="61.922" cy="28.631" r="1.997"/>
                        <circle cx="1.997" cy="35.289" r="1.997"/>
                        <circle cx="15.314" cy="35.289" r="1.997"/>
                        <circle cx="28.631" cy="35.289" r="1.997"/>
                        <circle cx="41.947" cy="35.289" r="1.997"/>
                        <circle cx="55.264" cy="35.289" r="1.997"/>
                        <circle cx="8.656" cy="41.947" r="1.997"/>
                        <circle cx="21.972" cy="41.947" r="1.997"/>
                        <circle cx="35.289" cy="41.947" r="1.997"/>
                        <circle cx="48.606" cy="41.947" r="1.997"/>
                        <circle cx="61.922" cy="41.947" r="1.997"/>
                        <circle cx="1.997" cy="48.606" r="1.997"/>
                        <circle cx="15.314" cy="48.606" r="1.997"/>
                        <circle cx="28.631" cy="48.606" r="1.997"/>
                        <circle cx="41.947" cy="48.606" r="1.997"/>
                        <circle cx="55.264" cy="48.606" r="1.997"/>
                        <circle cx="8.656" cy="55.264" r="1.997"/>
                        <circle cx="21.972" cy="55.264" r="1.997"/>
                        <circle cx="35.289" cy="55.264" r="1.997"/>
                        <circle cx="48.606" cy="55.264" r="1.997"/>
                        <circle cx="61.922" cy="55.264" r="1.997"/>
                        <circle cx="1.997" cy="61.922" r="1.997"/>
                        <circle cx="15.314" cy="61.922" r="1.997"/>
                        <circle cx="28.631" cy="61.922" r="1.997"/>
                        <circle cx="41.947" cy="61.922" r="1.997"/>
                    </g>
                </g>
                <circle cx="50.603" cy="69.246" r="1.997" fill="#FFF" fill-rule="nonzero" mask="url(#ak)" opacity=".3"/>
                <path fill="#373A5B" fill-rule="nonzero" d="M74.732 13.251c.53 3.716 1.883 5.574 4.059 5.574 2.175 0 3.703-1.123 4.581-3.368l-7.043-4.21-1.597 2.004zM42.098 6.635C38.58 31.18 31.39 44.755 20.53 47.36 9.669 49.966 1.76 49.937-3.193 47.274l3.45-26.633L35.29 2.684l6.809 3.951z" mask="url(#ak)" opacity=".3"/>
                <path fill="#FFD5D7" fill-rule="nonzero" d="M58.346 4.38C55.644 1.66 59.702-.172 61.818.596c2.117.768 6.725 5.714 5.76 9.884-.965 4.17-4.541 5.651-5.325 4.795-1.837-2.102-1.206-8.177-3.907-10.895z"/>
            </g>
            <path fill="url(#H)" fill-rule="nonzero" d="M5.423 39.284c-.513-4.89-2.305-7.979-5.377-9.265L13.62 11.914c.746-3.128 1.36-5.096 1.844-5.903.35-.585 2.86-2.045 4.205-2.655.509-.23 3.608-2.637 4.114-2.69.83-.088.409 1.574-1.417 3.142-1.99 1.708 1.492 4.042.39 7.03-.597 1.617-1.53 2.634-2.8 3.05C11.902 29.55 6.922 37.81 5.423 39.284z" transform="translate(198.69 79.6)"/>
            <path fill="url(#H)" fill-rule="nonzero" d="M11.969.386c1.572 1.936 2.603 3.932 3.092 5.989 1.602 6.737 1.078 13.033-1.94 13.786-1.04.259-2.14.229-3.24-.027l-.145 3.216c.26 2.983 0 4.474-.779 4.474-1.168 0-6.603-1.282-8.685-5.546C1.738 22.07 10.597 7.538 11.969.386z" transform="translate(166.169 92.883)"/>
            <g fill="url(#al)" fill-rule="nonzero" transform="translate(131.545 86.89)">
                <path d="M48.584 15.983a2.662 2.662 0 0 0-4.972 1.329 2.663 2.663 0 0 0 4.55 1.88c-.523 3.2-1.342 6.619-2.195 10.105-3.261 13.322-11.193 38.442-27.875 36.423C1.41 63.701-3.24 53.265 2.8 41.403c6.04-11.86 18.073-12.106 19.488-22.051C23.704 9.407 27.177-2.301 39.586.666c8.05 1.924 9.714 7.794 8.998 15.317z"/>
            </g>
        </g>
    </g>
</svg>
